<svg xmlns="http://www.w3.org/2000/svg" viewBox="0 0 36 36">
  <ellipse fill="#F4900C" cx="18.604" cy="24.424" rx="1.053" ry=".517"/>
  <path fill="#F4900C" d="M15.716 27.706c0 .389-.574.697-1.27.697-.15 0-.287-.013-.423-.04l.642-1.327c.586.054 1.051.335 1.051.67zm10.097 2.238L13.244 35.09v-1.092c.627 0 1.138-.515 1.138-1.142 0-.615-.511-1.13-1.138-1.13v-1.782l12.364-5.522.077 2.033c-.153-.088-.32-.125-.511-.125-.639 0-1.151.502-1.151 1.13s.511 1.129 1.151 1.129c.217 0 .422-.063.588-.163l.051 1.518z"/>
  <ellipse fill="#F4900C" cx="20.039" cy="27.023" rx="2.156" ry="1.058"/>
</svg>
