<svg xmlns="http://www.w3.org/2000/svg" viewBox="0 0 36 36">
  <path d="M28.897 14.913l1.542-.571.6-2.2c.079-.29.343-.491.644-.491.3 0 .564.201.643.491l.6 2.2 1.542.571c.262.096.435.346.435.625s-.173.529-.435.625l-1.534.568-.605 2.415c-.074.296-.341.505-.646.505-.306 0-.573-.209-.647-.505l-.605-2.415-1.534-.568c-.262-.096-.435-.346-.435-.625 0-.278.173-.528.435-.625M11.961 5.285l2.61-.966.966-2.61c.16-.433.573-.72 1.035-.72.461 0 .874.287 1.035.72l.966 2.61 2.609.966c.434.161.721.573.721 1.035 0 .462-.287.874-.721 1.035l-2.609.966-.966 2.61c-.161.433-.574.72-1.035.72-.462 0-.875-.287-1.035-.72l-.966-2.61-2.61-.966c-.433-.161-.72-.573-.72-1.035.001-.462.288-.874.72-1.035M24.13 20.772l1.383-.512.512-1.382c.085-.229.304-.381.548-.381.244 0 .463.152.548.381l.512 1.382 1.382.512c.23.085.382.304.382.548 0 .245-.152.463-.382.548l-1.382.512-.512 1.382c-.085.229-.304.381-.548.381-.245 0-.463-.152-.548-.381l-.512-1.382-1.383-.512c-.229-.085-.381-.304-.381-.548 0-.245.152-.463.381-.548" fill="#FFAC33"/>
</svg>
