<svg xmlns="http://www.w3.org/2000/svg" viewBox="0 0 36 36">
  <g fill="#FFF">
    <circle cx="10.5" cy="2.5" r=".5"/>
    <circle cx="7.5" cy="11.5" r=".5"/>
    <circle cx="22" cy="5" r="1"/>
    <circle cx="26.5" cy="5.5" r=".5"/>
    <circle cx="31" cy="3" r="1"/>
    <circle cx="31.5" cy="7.5" r=".5"/>
    <path d="M6.5 7C5.119 7 4 5.881 4 4.5c0-1.13.755-2.074 1.784-2.383C5.533 2.048 5.273 2 5 2 3.343 2 2 3.343 2 5s1.343 3 3 3c.959 0 1.803-.458 2.353-1.159C7.085 6.938 6.801 7 6.5 7z"/>
  </g>
</svg>
