<svg xmlns="http://www.w3.org/2000/svg" viewBox="0 0 36 36">
  <path fill="#292F33" d="M35.876 23.572c0-3.299-1.021-5.408-4.901-9.145-2.746-2.645-2.088-5.807-.237-5.365s2.229 2.293 2.229 2.293 1.133-1.448-.378-2.937c1.096.362 1.73 1.158 2.005 2.271 1.431-1.817 2.426-6.125-1.376-8.94C29.695-.86 24.025-.332 20.915 3.361c-3.516 4.175-1.506 8.346 1.266 10.672 1.676 1.406 3.089 2.617 3.878 3.925-3.408-.743-7.49.538-9.063 1.167-1.629.652-2.544-.231-2.863-.324 1.077-2.555-2.966-2.347-2.997-.726-.39-.05-.802-.07-1.22-.071-.023-1.44-2.206-.909-2.111.295-.223.066-.447.123-.669.216-3.235 1.355-2.583 3.237-4.578 4.597-1.179.803-2.345.388-2.345 2.18 0 .985 1.584 1.759 3.171 1.835 3.058.146 4.583-.806 5.801-.48 3.326.89 4.07 4.401 4.498 6.752.387 2.13.339 2.597 1.317 2.542.978-.054 3 .168 3-2.832 1.704-.273 3.974.717 7 .387.422-.046.697 2.074 1.272 2.339.515.238 2.15.147 2.931-.634.569-.569.59-1.485.595-2.466 4.87-2.039 6.078-6.188 6.078-9.163z"/>
</svg>
