<svg xmlns="http://www.w3.org/2000/svg" viewBox="0 0 36 36">
  <g fill="#E1E8ED">
    <circle cx="8.17" cy="21.424" r="1"/>
    <path d="M4.951 21.424c.413-1.834 1.85-3.156 4.073-3.374 1.541-.151 2.111.026 2.111.026s-.692 1.065-1.502 1.285c-1.134.31-2.783-.18-4.682 2.063zm10.629-1.99c2.747 1.123 4.557 4.732 7.591 6.159 6.083 2.862 9.112-.932 9.826-3.385.853-2.932-1.514-6.22-4.541-9.067-3.595-3.381-2.754-7.868-.798-9.456 1.899-1.541 4.23-2.085 7.122-.364-2.415-2.553-5.112-2.596-7.534-1.59s-5.036 4.145-3.605 7.982c1.294 3.468 5.367 5.672 6.33 8.397.492 1.393-.282 4.22-2.835 4.566-4.223.572-6.579-2.725-11.556-3.242z"/>
    <path d="M17.117 19.373s2.972-.699 5.835-.534c2.862.165 4.156.534 4.156.534s.734-1.84-2.394-4.569c-3.557-3.103-5.712-5.296-4.483-9.159 1.085-3.41 6.272-6.86 11.46-4.779-5.463-1.2-8.463 2.02-9.564 3.974-1.101 1.954-1.183 4.761 1.624 7.872s5.367 4.761 4.183 6.853c-.401.709-2.175 1.472-4.679.816-1.882-.491-3.992-1.228-6.138-1.008z"/>
  </g>
</svg>
