<svg xmlns="http://www.w3.org/2000/svg" viewBox="0 0 36 36">
  <g fill="#D99E82">
    <path d="M9.226 9.736c-.535.226-2.352.483-2.578-.052s1.225-1.659 1.76-1.885c.535-.226 1.152.024 1.378.559.225.535-.025 1.152-.56 1.378zm22.199-.506c.311.349.977 1.667.628 1.978-.349.311-1.581-.503-1.892-.852-.311-.349-.28-.884.069-1.194.349-.312.884-.281 1.195.068zm-6.578 8.119c-.442.152-1.915.258-2.067-.184-.152-.442 1.075-1.264 1.517-1.416.442-.152.923.083 1.075.525.152.442-.083.923-.525 1.075zm-16.86-3.013c-.393.428-1.839 1.308-2.267.915-.428-.393.325-1.909.718-2.337.393-.428 1.058-.456 1.485-.064.429.393.457 1.058.064 1.486z"/>
    <ellipse transform="matrix(1 -.0076 .0076 1 -.031 .133)" cx="17.539" cy="4.159" rx="1.216" ry=".566"/>
  </g>
</svg>
