<svg xmlns="http://www.w3.org/2000/svg" viewBox="0 0 36 36" xml:space="preserve">
  <path d="M22.47 19.167a82.351 82.351 0 0 0 3.426-1.22 52.308 52.308 0 0 0 3.019-1.252c-.01-.088-.027-.173-.04-.26a62.722 62.722 0 0 0-7.04 1.919c-.674.258-.881 1.261-.413 1.792.05.074.2.261.251.338 1.327 1.782 2.712 3.524 4.204 5.176.063-.065.121-.134.182-.2-1.184-2.053-2.511-4.017-3.872-5.95-.12-.217.115-.289.283-.343zM9.94 25.461c.061.066.119.136.182.2 1.491-1.652 2.877-3.394 4.204-5.176.052-.075.202-.265.251-.338.47-.531.26-1.534-.412-1.792a62.878 62.878 0 0 0-7.04-1.919c-.012.087-.029.172-.04.26.997.446 2.001.871 3.02 1.252a82.87 82.87 0 0 0 3.426 1.22c.168.053.402.126.282.343-1.361 1.933-2.689 3.897-3.873 5.95zm9.288-3.199c-.055-.073-.189-.274-.244-.343-.36-.611-1.379-.722-1.832-.162a62.956 62.956 0 0 0-4 6.101c.079.039.158.078.238.115a51.875 51.875 0 0 0 2.12-2.481 83.43 83.43 0 0 0 2.219-2.882c.102-.143.244-.344.413-.162 1.42 1.893 2.878 3.764 4.466 5.525.081-.038.162-.077.242-.117-1.109-1.927-2.338-3.782-3.622-5.594zM8.275 12.873c2.033.909 4.12 1.689 6.226 2.4.492.185 1.019.348 1.513-.007.491-.359.498-.912.474-1.437-.024-2.222-.121-4.446-.358-6.659-.088.015-.177.023-.264.041-.244 2.293-.337 4.596-.357 6.898.002.176.005.422-.239.374-2.263-.698-4.544-1.354-6.865-1.846a9.21 9.21 0 0 0-.13.236zm11.237.957c.002.091-.008.333-.004.421-.068.706.691 1.394 1.387 1.208a62.78 62.78 0 0 0 6.828-2.588 8.529 8.529 0 0 0-.127-.231 51.55 51.55 0 0 0-3.178.762 83.22 83.22 0 0 0-3.489 1.027c-.167.056-.4.135-.43-.112-.036-2.369-.117-4.744-.367-7.105-.086-.017-.176-.025-.263-.04-.234 2.213-.331 4.436-.357 6.658z" fill="#E1E1E1"/>
</svg>
