<svg xmlns="http://www.w3.org/2000/svg" viewBox="0 0 36 36" xml:space="preserve">
  <path d="M19.47 21.74c-.534-.945-1.942-1.168-2.676-.333-1.471 2-2.751 4.115-3.758 6.396.165.084.332.166.502.242 1.159-1.045 2.205-2.182 3.19-3.376h2.545c.986 1.193 2.031 2.328 3.189 3.374.17-.076.337-.158.503-.243-.949-2.151-2.167-4.122-3.495-6.06zm9.47-4.883c-.019-.185-.056-.366-.084-.548-2.48.253-4.886.817-7.243 1.598-1.022.44-1.243 1.848-.511 2.647 1.433 1.863 2.933 3.632 4.689 5.202.132-.133.253-.277.378-.416-.636-1.422-1.392-2.764-2.221-4.068l.788-2.42c1.439-.569 2.852-1.215 4.204-1.995zM8.22 12.989c2.035 1.183 4.179 2.062 6.392 2.849.97.456 2.271-.209 2.36-1.303.015-2.482-.193-4.946-.719-7.382-.186.03-.372.055-.555.094a29.438 29.438 0 0 0-.479 3.228c-.048.448-.086.914-.116 1.385l-2.059 1.492c-1.496-.385-3.006-.688-4.554-.854-.094.161-.184.324-.27.491zm12.758 2.963c2.366-.753 4.646-1.712 6.801-2.966a10.398 10.398 0 0 0-.274-.496c-1.09.116-2.155.309-3.207.541-.441.092-.896.2-1.353.317l-2.056-1.497c-.096-1.545-.275-3.078-.598-4.606-.18-.038-.365-.063-.548-.092-.496 2.3-.67 4.61-.734 6.958-.134 1.062.901 2.094 1.969 1.841zm-10.77 9.804c1.756-1.57 3.255-3.339 4.689-5.202.733-.8.51-2.207-.51-2.647-2.356-.781-4.763-1.345-7.243-1.597-.028.183-.065.363-.084.548 1.352.78 2.765 1.426 4.204 1.994l.788 2.42c-.829 1.304-1.584 2.646-2.221 4.068.125.139.245.283.377.416z" fill="#AEB3B2"/>
</svg>
