<svg xmlns="http://www.w3.org/2000/svg" viewBox="0 0 36 36">
  <path fill="#D4AB88" d="M21.842.878c-1.405-.68-3.719-.115-4.11 1.557-.388 1.661-.109 4.333 1.379 4.285 1.56-.05 3.174-.266 3.921-1.812.748-1.545.215-3.35-1.19-4.03z"/>
  <path fill="#D4AB88" d="M22.59 5.288c2.295-2.316-2.801-2.46-2.801-2.46-.964-.038-.424 1.613-.942 2.453-.356.582.925 1.001.925 1.001s.6.036.577.766v.007c-.007.186-.043.404-.151.691-.54 1.423 1.347 2.463 1.887 1.037.213-.564.186-1.077.136-1.552l-.006-.041c-.077-.707-.193-1.329.375-1.902z"/>
</svg>
