<svg xmlns="http://www.w3.org/2000/svg" viewBox="0 0 36 36">
  <path fill="#AF7E57" d="M25.89 15.686c-.677-.938-1.545-1.693-3.445-1.96.713.327 1.396 1.455 1.485 2.079.089.624.178 1.129-.386.505-2.261-2.499-4.723-1.515-7.163-3.041-1.704-1.066-2.223-2.246-2.223-2.246s-.208 1.574-2.792 3.178c-.749.465-1.643 1.5-2.139 3.03-.357 1.099-.246 2.079-.246 3.754 0 4.889 4.029 9 9 9s9-4.147 9-9c0-3.041-.318-4.23-1.091-5.299zM17 34l-5-1-2-1H7l-1 4h11c1 0 1-1 1-1 0-.553-1-1-1-1zm9-2l-2 1-5 1s-1 .447-1 1c0 0 0 1 1 1h11l-1-4h-3z"/>
</svg>
