<svg xmlns="http://www.w3.org/2000/svg" viewBox="0 0 36 36">
  <path fill="#CCD6DD" d="M20.18 32.705c.017 0 .034-.002.051-.007l.951-.25c.107-.028.171-.137.143-.244-.027-.106-.138-.172-.244-.142l-.951.25c-.107.028-.171.137-.143.244.023.09.104.149.193.149zm-.198-.752c.017 0 .034-.002.051-.007l.951-.251c.107-.028.171-.137.143-.244-.028-.106-.138-.172-.244-.142l-.951.251c-.107.028-.171.137-.143.244.023.09.104.149.193.149zm-.199-.753c.017 0 .034-.002.051-.007l.951-.251c.107-.028.171-.137.143-.244-.028-.106-.138-.172-.244-.142l-.951.251c-.107.028-.171.137-.143.244.023.09.105.149.193.149z"/>
</svg>
