<svg xmlns="http://www.w3.org/2000/svg" viewBox="0 0 36 36">
  <path fill="#7C533E" d="M11.842 16.187c0 1.271-.639 2.304-1.426 2.304-.788 0-1.426-1.033-1.426-2.304 0-1.272.639-2.305 1.426-2.305.788 0 1.426 1.033 1.426 2.305m14.26 0c0 1.271-.638 2.304-1.424 2.304-.789 0-1.428-1.033-1.428-2.304 0-1.272.639-2.305 1.428-2.305.786 0 1.424 1.033 1.424 2.305"/>
  <path fill="#7C533E" d="M10.13 17.087c0-4.911 3.32-8.893 7.416-8.893 4.095 0 7.416 3.982 7.416 8.893 0 4.91-3.32 8.893-7.416 8.893-4.095-.001-7.416-3.983-7.416-8.893"/>
</svg>
