<svg xmlns="http://www.w3.org/2000/svg" viewBox="0 0 36 36">
  <path fill="#9266CC" d="M25.354 13.447c-.501-.028-1.003-.061-1.503-.094-.389-.026-.775-.051-1.158-.074.198 3.285.199 6.299-1.607 8.104-1.804 1.804-4.813 1.805-8.094 1.607-.386-.023-2.159-.14-2.656-.168-3.667-.206-7.297-.126-9.82 2.397-.516.516-.516 1.353.001 1.87.258.258.597.388.935.388.338 0 .677-.129.935-.388 1.805-1.804 4.815-1.806 8.098-1.608.385.023 2.161.14 2.66.168 3.662.205 7.289.125 9.811-2.396 2.521-2.52 2.603-6.145 2.398-9.806z"/>
</svg>
