<svg xmlns="http://www.w3.org/2000/svg" viewBox="0 0 36 36">
  <path fill="#292F33" d="M20.476 35.056s.061-.144.061-.448c0-.303-.156-.869-.199-.95s-.09-.139-.194-.11c-.079.022-.685.326-1.072.341-.719.027-1.066-.618-1.066-.618s-.399.228-.716.413c-.318.185-.687.462-.959.627-.232.141-.497.208-.771.243s-.497.023-.563.029-.621-.061-.641.488l.004.16s.987.397 2.344.397c1.358 0 1.566-.399 2.444-.399s1.328-.173 1.328-.173z"/>
  <path fill="#292F33" d="M18.726 35.926c-.058-.052-.123-.22-.173-.243s-.57.089-.813.146c-.243.058-.66.156-1.152.156-.491 0-1.126-.144-1.519-.243-.393-.098-.701-.23-.77-.274-.07-.043-.05-.063-.046-.096.004-.033.052-.202.052-.202s.251.132.678.237c.426.104.851.183 1.584.183s1.193-.109 1.574-.211c.475-.128 1.163-.267 1.656-.267.38 0 .648-.112.751-.139.024-.006.046.012.046.037v.649c0 .042-.035.139-.146.162-.112.024-1.664.157-1.722.105zm12.221-5.012s-.072-.142-.307-.343c-.235-.2-.777-.454-.868-.473-.091-.02-.167-.022-.213.078-.035.075-.199.746-.444 1.056-.454.575-1.184.418-1.184.418s-.087.46-.153.828c-.067.368-.096.838-.148 1.158-.044.273-.167.523-.322.758-.154.236-.31.4-.35.456-.039.055-.457.441-.045.82l.127.103s.96-.502 1.857-1.555c.897-1.052.726-1.477 1.306-2.158.581-.682.744-1.146.744-1.146z"/>
  <path fill="#292F33" d="M30.465 32.846c-.078.01-.252-.05-.303-.026-.051.024-.308.5-.424.727-.116.226-.316.615-.64.996s-.856.778-1.192 1.018c-.336.24-.642.391-.721.416-.08.025-.082-.003-.104-.028-.022-.025-.122-.174-.122-.174s.269-.107.631-.369c.363-.261.705-.538 1.189-1.107s.704-.997.876-1.36c.214-.452.562-1.078.887-1.46.251-.295.342-.576.388-.674.011-.023.04-.028.059-.012l.503.429c.033.028.085.118.029.22-.055.103-.977 1.394-1.056 1.404z"/>
</svg>
