<svg xmlns="http://www.w3.org/2000/svg" viewBox="0 0 36 36">
  <path fill="#FFD983" d="M21.389 15.131v-.042c0-.421-.143-.763-.32-.763-.177 0-.32.342-.32.763v.042c-.208.217-.355.621-.355 1.103 0 .513.162.949.393 1.152.064.195.163.33.282.33s.218-.135.282-.33c.231-.203.393-.639.393-1.152-.001-.482-.147-.886-.355-1.103zm6.999 1.069v-.042c0-.421-.143-.763-.32-.763-.177 0-.32.342-.32.763v.042c-.208.217-.355.621-.355 1.103 0 .513.162.949.393 1.152.064.195.163.33.282.33s.218-.135.282-.33c.231-.203.393-.639.393-1.152 0-.481-.147-.885-.355-1.103zm6.017 1.03v-.039c0-.393-.134-.712-.299-.712-.165 0-.299.319-.299.712v.039c-.194.203-.331.58-.331 1.03 0 .479.151.886.367 1.076.059.182.152.308.263.308s.203-.126.263-.308c.215-.189.367-.597.367-1.076 0-.45-.136-.827-.331-1.03z"/>
</svg>
