<svg xmlns="http://www.w3.org/2000/svg" viewBox="0 0 36 36">
  <path fill="#F4ABBA" d="M34.452 31.467c-.257-.657-1.298-1.979-4.984-4.436-1.178-.784-1-4-3-6s-5-2-7-4-2-5-4-7-5.216-1.823-6-3C7.012 3.345 5.69 2.305 5.033 2.048c-.066-.026-.125-.045-.178-.057-.196.331-.413.723-.619 1.15.079.043.166.095.26.159.753.511 1.995 1.763 3.973 4.73.784 1.177 4 1 6 3s2 5 4 7 5 2 7 4 1.822 5.216 3 6c2.967 1.978 4.219 3.22 4.73 3.973.083.122.145.23.193.327.425-.238.805-.467 1.122-.667-.012-.056-.033-.123-.062-.196z"/>
</svg>
