<svg xmlns="http://www.w3.org/2000/svg" viewBox="0 0 36 36">
  <path fill="#EA596E" d="M31.865 32.576c-.656-.769-1.929-1.9-4.396-3.545-3-2-2-4-4-6s-4-2-6-4c-2-2.001-2-4-4-6s-4-1-6-4C5.825 6.564 4.694 5.292 3.924 4.635c-.075-.064-.149-.126-.217-.179-.134.425-.222.848-.239 1.244-.005.112-.007.224.001.331.025.353-.056.738-.2 1.131.607.651 1.329 1.562 2.2 2.869.784 1.177 4 1 6 3s2 6 4 8 5 2 7 4 2.822 5.216 4 6c1.521 1.014 2.524 1.833 3.18 2.494.102.102.185.196.27.291.751-.195 1.524-.504 2.251-.852-.081-.116-.185-.247-.305-.388z"/>
</svg>
