<svg xmlns="http://www.w3.org/2000/svg" viewBox="0 0 36 36">
  <g fill="#66757F">
    <path d="M17.137 7.999c4.885-.263 8.732-1.577 9.572-3.269.288-.581.251-1.213-.103-1.734-.94-1.388-4.231-1.683-9.773-1.058-1.681.189-3.854.513-3.791 1.062.063.549 2.417.312 3.976.202.693-.049 1.336-.083 1.939-.104 3.787-.135 5.773.256 5.836.904.07.719-3.192 1.753-7.762 2-8.958.485-10.596-1.011-10.885-1.481-.038-.062-.059-.122-.07-.18-.272.625-.368 1.452-.225 2.457 1.578.862 4.19 1.298 7.931 1.298 1.034 0 2.152-.033 3.355-.097zm4.988 6.689c.531-.15 2.41-.897 2.297-1.438-.141-.672-2.664.037-3.203.141-8.814 1.695-12.304-.676-13.37-1.725.271.432.567.875.901 1.334.662.91 1.326 1.644 1.961 2.298 1.229.321 2.733.534 4.566.534 1.928 0 3.973-.332 6.848-1.144z"/>
    <path d="M30.375 5.228c-.954 1.504-3.5 3.944-14.297 4.975-.608.058-2.734.156-2.688.766.072.94 2.777.673 2.797.672 7.749-.465 12.588-1.745 15.028-4.268.05-1.466-.062-2.71-.337-3.532-.044.401-.181.879-.503 1.387zM14.792 21.583c.047.271.075.545.099.818.966.337 2.237.567 3.939.567.799 0 1.692-.053 2.687-.161.811-.088 2.013-.555 1.951-1.103-.062-.549-1.597-.352-2.156-.344-4.707.066-6.424-.947-7.044-1.602.223.536.404 1.131.524 1.825zm5.849-4.505c-.55.048-2.172.141-2.219.734-.07.889 2.252.782 2.266.781 4.058-.165 6.849-1.289 8.708-2.482.446-1.133.805-2.323 1.087-3.508-.831 1.169-3.415 3.912-9.842 4.475zm-1.766 12.078c-.031-.391-.5-.453-1.703-.547-1.203-.094-1.715-.606-2.154-1.079-.256-.275-.393-.608-.468-.91-.198.864-.452 1.681-.723 2.42.791.67 1.83.985 3.236 1.053.529.026 1.877-.126 1.812-.937zm7.056-6.577c-.984.907-3.054 2.199-7.04 2.484-.543.039-1.829.089-1.859.641-.03.552 1.175.891 1.727.92.336.019.661.027.977.027 1.479 0 2.719-.201 3.77-.504.814-1.096 1.624-2.286 2.425-3.568z"/>
  </g>
</svg>
