<svg xmlns="http://www.w3.org/2000/svg" viewBox="0 0 36 36">
  <path fill="#CCD6DD" d="M28.642 36c.01-.083.025-.164.025-.25 0-.979-.652-1.795-1.542-2.064-.211-1.952-1.846-3.478-3.854-3.478-1.406 0-2.627.751-3.312 1.867-.448-.281-.975-.45-1.543-.45-1.103 0-2.051.619-2.546 1.521-.523-.55-1.258-.896-2.078-.896-.288 0-.56.055-.822.134-.34-.253-.736-.43-1.171-.504-.593-1.536-2.075-2.63-3.82-2.63-1.985 0-3.64 1.409-4.021 3.281-.104-.012-.206-.031-.312-.031-1.369 0-2.479 1.11-2.479 2.479 0 .365.084.709.226 1.021h27.249z"/>
</svg>
