<svg xmlns="http://www.w3.org/2000/svg" viewBox="0 0 36 36">
  <path fill="#5DADEC" d="M30.383 4.472c-.863 1.413-.403 3.247 1.028 4.099 1.431.852 3.291.398 4.154-1.014.607-.992.557-2.192-.021-3.114L33.061.09l-2.678 4.382zm-8.001 3c-.863 1.413-.403 3.247 1.028 4.099 1.431.852 3.291.398 4.154-1.014.607-.992.557-2.192-.021-3.114L25.061 3.09l-2.679 4.382zm-11.947-3c-.863 1.413-.402 3.247 1.028 4.099 1.431.852 3.291.398 4.154-1.014.607-.992.558-2.192-.022-3.114L13.114.09l-2.679 4.382zm-10 5.91c-.863 1.413-.402 3.247 1.028 4.099 1.431.851 3.291.398 4.154-1.014.607-.992.558-2.192-.022-3.114L3.114 6 .435 10.382z"/>
</svg>
