<svg xmlns="http://www.w3.org/2000/svg" viewBox="0 0 36 36">
  <path fill="#F4900C" d="M10.063 22.403c-.516 1.407.555 2.343.555 2.343s.058-.696.113-1.603c.056-.931.879-1.563.908-1.896.095-1.112-.854-1.931-.805-1.541.104.814-.357 1.568-.771 2.697zm-3.681 2.568c-.375.737-.321 2.496-.321 2.496s.9-.529.94-1.074c.04-.545.014-.834.138-1.15.352-.9 1.124-.842 1.595-2.088.167-.44-.194-1.203-.3-.954-.41.959-1.676 2.033-2.052 2.77zm6.045-.337c-.116-.322.124-2.378.328-2.1.204.278-.006 1.161.664 1.886.837.905.721 1.981.491 1.498-.231-.484-1.367-.962-1.483-1.284z"/>
</svg>
