<svg xmlns="http://www.w3.org/2000/svg" viewBox="0 0 36 36">
  <path fill="#3E721D" d="M30.156 28.192c.667.045 1.348-.178 1.858-.688.937-.937.937-2.457 0-3.394-.085-.085-.18-.154-.274-.224.411-.101.802-.304 1.123-.625.311-.311.509-.688.613-1.084.396-.105.773-.302 1.084-.613.937-.937.937-2.457 0-3.394.937-.937.937-2.457 0-3.394-.352-.352-.786-.572-1.241-.659.43-.893.284-1.994-.456-2.735-.321-.321-.712-.524-1.123-.625.094-.07.189-.139.274-.224.937-.937.937-2.457 0-3.394-.741-.741-1.842-.887-2.735-.456-.088-.455-.307-.889-.659-1.241-.51-.51-1.191-.732-1.858-.688.045-.667-.178-1.348-.688-1.858-.937-.937-2.457-.937-3.394 0-.741-.741-1.842-.887-2.735-.456-.088-.455-.307-.889-.659-1.241-.937-.937-2.457-.937-3.394 0-.352.352-.572.786-.659 1.241-.893-.43-1.994-.284-2.735.456-.321.321-.524.712-.625 1.123-.07-.094-.139-.189-.224-.274-.937-.937-2.457-.937-3.394 0-.742.739-.888 1.84-.458 2.734-.455.087-.889.307-1.241.659-.937.937-.937 2.457 0 3.394.321.321.712.524 1.123.625-.094.07-.189.139-.274.224-.937.937-.937 2.457 0 3.394.352.352.786.572 1.241.659-.43.893-.284 1.994.456 2.735.741.741 1.842.887 2.735.456.088.455.307.889.659 1.241.321.321.712.524 1.123.625-.094.07-.189.139-.274.224-.937.937-.937 2.457 0 3.394.741.741 1.842.887 2.735.456.088.455.307.889.659 1.241.636.636 1.537.83 2.345.603.064.084.124.169.201.246.51.51 1.191.732 1.858.688-.045.667.178 1.348.688 1.858.937.937 2.457.937 3.394 0 .085-.085.154-.18.224-.274.101.411.304.802.625 1.123.937.937 2.457.937 3.394 0 .51-.51.732-1.191.688-1.858z"/>
</svg>
