<svg xmlns="http://www.w3.org/2000/svg" viewBox="0 0 36 36">
  <circle fill="#5C913B" cx="10.92" cy="5.683" r="1.543"/>
  <circle fill="#5C913B" cx="15.285" cy="5.683" r="1.543"/>
  <circle fill="#5C913B" cx="18.194" cy="2.774" r="1.543"/>
  <circle fill="#5C913B" cx="21.831" cy="4.956" r="1.543"/>
  <circle fill="#5C913B" cx="24.74" cy="4.956" r="1.543"/>
  <circle fill="#5C913B" cx="25.468" cy="7.138" r="1.543"/>
  <circle fill="#5C913B" cx="27.65" cy="7.865" r="1.543"/>
  <circle fill="#5C913B" cx="30.559" cy="9.32" r="1.543"/>
  <circle fill="#5C913B" cx="29.832" cy="11.502" r="1.543"/>
  <circle fill="#5C913B" cx="32.014" cy="15.139" r="1.543"/>
  <circle fill="#5C913B" cx="32.741" cy="18.776" r="1.543"/>
  <circle fill="#5C913B" cx="26.922" cy="11.502" r="1.543"/>
  <circle fill="#5C913B" cx="24.013" cy="8.593" r="1.543"/>
  <circle fill="#5C913B" cx="20.376" cy="6.411" r="1.543"/>
  <circle fill="#5C913B" cx="16.012" cy="7.865" r="1.543"/>
  <circle fill="#5C913B" cx="17.467" cy="6.411" r="1.543"/>
  <circle fill="#5C913B" cx="13.102" cy="9.32" r="1.543"/>
  <circle fill="#5C913B" cx="20.376" cy="10.775" r="1.543"/>
  <circle fill="#5C913B" cx="25.468" cy="15.866" r="1.543"/>
  <circle fill="#5C913B" cx="26.922" cy="20.231" r="1.543"/>
</svg>
