<svg xmlns="http://www.w3.org/2000/svg" viewBox="0 0 36 36">
  <path fill="#AF7E57" d="M12.165 17.445c-.546-.091-1.06.234-1.151.778l-.825 4.56c-.071.043-.142.087-.217.135-1.762 1.131-1.661 3.529-2.934 4.616-.171.146-.949.766-1.203 1.325-.336.738.22.444.045.695-.406.584-.414 1.478-.127 1.686l.373.1c.557.403 2.081-1.336 2.281-2.302.3-1.443 3.075-3.25 3.589-4.653.162-.444.224-.787.173-1.074l1.106-5.145c.091-.546-.566-.631-1.11-.721zm17.922 12.167c-.175-.251.437-.016.101-.754-.255-.56-1.089-1.179-1.259-1.325-1.273-1.087-1.116-3.485-2.878-4.616-.083-.054-.164-.104-.243-.151l-.822-4.543c-.09-.544-.607-.868-1.15-.778-.545.091-1.235.175-1.145.72l1.151 5.222c-.028.272.036.592.184.998.513 1.402 3.289 3.209 3.589 4.653.201.967 1.725 2.706 2.281 2.302l.373-.1c.289-.21.225-1.044-.182-1.628z"/>
  <path fill="#AF7E57" d="M22.757 35.82c-1.04.089-2.02-.208-3 0-.475.03-.802 0-1.277-.416s-8.287-1.515-9.713-2.465c-.658-.439-1.662-1.54-1.396-2.465.263-.913 1.139-1.429 2.198-1.455 2.065-.051 6 2.941 8.851 4.04.518.2.948-.052 1.604.119.683.178 2.317-.555 3.149-.446 1.129.149 1.574.683 1.485 1.604-.094.974-.861 1.395-1.901 1.484z"/>
</svg>
