<svg xmlns="http://www.w3.org/2000/svg" viewBox="0 0 36 36">
  <path fill="#5C913B" d="M12 21.506c-.268.006-.595.104-.845.145-.436.073-.329.517-.463.443-.135-.074-.475-.265-.812-.658-.337-.394.25-.477.418-.622.168-.145-.316-.172-.485-.332-.169-.159-.471.104-.739-.276-.27-.376-.101-.79-.133-1.18-.034-.39.436-.341.739-.334.303.003.538.144.538.602 0 .456.37.708.269.146-.101-.561.101-.657.235-.89.134-.23.37-.55.672-1.04.221-.358.389-.283.606-.164v-3.345c-.055-.044-.11-.09-.165-.113-.303-.132.096.753-.139 1.109-.237.356-.598.193-.97.094-.369-.099-.713-.545-.443-1.007.268-.462.782-.268 1.051-.653.269-.385-.957-.672-1.394-.941-.438-.271-.963-.409-1.4-.146-.437.264-1.373.133-1.743.186-.37.054-.436-.369-.503-.693-.067-.322-.653-.329-1.257-.338-.606-.01-1.741.281-1.547 1.759.068.514.605.124.707.036.101-.088.605.2.671.637.068.439.035.887-.099 1.232-.137.345.336 1.006.604 1.612.269.605.573.686.707.723.135.036.908.587.875.996-.033.411.706.991 1.009 1.34.303.35.494.662.887.846.393.183.852 1.035 1.054 1.165.155.1.418.451.576.58-.208.242-.612.748-.612 1.029 0 .383.44 1.103.608 1.3.167.196.65.442.751.85.101.407-.07 1.646-.372 1.907-.304.262-.414 1.043-.414 1.043s.107.293.465.124c.309-.144.776-.566 1.094-.801v-6.371z"/>
</svg>
