<svg xmlns="http://www.w3.org/2000/svg" viewBox="0 0 36 36">
  <path fill="#77B255" d="M12.268 17.413c-.1.016-.187.012-.268.011v-3.345c.254.065.512.317.707.736.234.509.604.066.739.374.134.308.875.758.505.742-.371-.015-.741.008-.841.454-.102.448.168.794-.102.828-.27.033-.37.142-.74.2zm2.59 5.558c-.436-.074-.359-.023-.628-.599-.268-.577-.431-.743-1.036-.656-.605.087-.583.136-.751-.163-.072-.128-.241-.082-.443.031v6.37c.09-.114.17-.211.228-.267.505-.477.996-1.026 1.466-1.646.47-.621.3-.924.535-1.481.236-.558.541-.617.944-1.145.405-.53.122-.368-.315-.444zM24 15.731V9.417c-.04.004-.068.012-.11.015-.209.011-.482.135-.779.32-.024-.005-.046-.016-.07-.021-.896-.175-1.312 1.205-2.039 1.152-.729-.053-1.7-.344-2.332.514-.631.857-.777 1.53 0 1.294s1.312-1.425 1.7-1.089c.388.336.29.721-.632 1.105-.922.385-1.918.817-2.452.96-.534.143-.655.534-.292.822.364.288-.219.471-.826 1.02-.607.547.146.512.656.705.51.193.898-.323 1.117-.932.217-.608 1.158-1.521 1.55-1.544.392-.023.392.197.318.602-.013.071.001.103.011.138-.17.54-.31 1.03-.365 1.306-.026.135-.031.351-.027.595-.086.004-.183.021-.248.001-.438-.129-1.434-.22-1.701.043-.267.265-.412.502-.728.723-.317.219-1.603 1.224-1.627 2.084-.025.859-.049 1.83.461 1.721.51-.109 1.749-.826 2.137-1.288.387-.463.921-.522 1.092-.156.17.369.048.649-.12 1.354-.171.708.11.963.381 1.468.273.504.491.775.491 1.189 0 .412.389.723.97-.123.188-.27.367-.606.536-.957.409-.469.768-.923.758-1.096-.016-.281-.021-.434-.024-.624l.091-.22c.127-.293.241-.746.362-1.155.007-.01.013-.017.02-.024.237-.337.185-.353.58-.756.264-.27.254-.512.214-.678.105-.175.134-.28-.033-.235l-.016.004c-.002 0-.005.019-.006.014-.023-.149-.206.003-.501.148-.284.008-.566-.066-.668-.368-.133-.396-.602-.996-.639-1.336.003-.041.005-.077.01-.124.014-.036.033-.066.069-.088.038-.022.075-.03.112-.035.041.111.075.279.086.464.026.477.394.196.394.498 0 .303.53.492.661.548.037.016.094-.027.159-.098.031.011.06.033.093.037.292.031.922-.984 1.117-1.164.102-.095.104-.269.033-.394l.056-.025z"/>
</svg>
