<svg xmlns="http://www.w3.org/2000/svg" viewBox="0 0 36 36">
  <path fill="#5C913B" d="M27.634 20.221c-.053.44.184.201.606.705.423.508-.104.394-.289.316-.185-.08-.37-.131-.579-.518-.213-.391 0-.695 0-1.027 0 0 .316.084.262.524zm.362-.901c.389.166.114-.482.244-.841.132-.356.316-.368.555-.363.236.002.422-.191.581-.389.157-.199.448-.454.422-.733-.026-.279-.104-.482-.212-.843-.105-.36.316-.368.502-.711.184-.343 0 0 .421-.008.422-.008.238-.058.316-.218.08-.159.133-.327.054-.68-.078-.353-.37-.1-.66-.177-.289-.077.106-.425.132-.78.026-.356.397-.165.661-.125.263.039.342.484.421.597.081.112.895-.365 1.108-.641.211-.275-.186-.291-.079-.403.106-.111-.632-.337-.925-.469-.289-.133-1.028-.367-1.318-.649-.289-.283-1.396-.426-1.688-.337-.291.086-.476-.143-.606-.406-.131-.262-.686-.297-.844-.467-.158-.17-.316.127-.529.16-.21.035-.289.043-.554-.209-.263-.252.08-.371-.288-.621-.355-.238-.813-.182-1.71-.591v6.314c.157.014.309.036.364.051.131.035.448.573.448.784 0 .211.158.828.291 1.195.131.366.42.506.686.818.264.312.394.137.394.137s-.105-.544-.105-.965c0-.424.316-.701.316-.701s.5.558.528.685c.026.128.421.656.449.876.026.219.237.546.625.71zm2.092-2.068c.184.08.976.171.554-.334-.423-.506-.106-.299-.053-.738.053-.44-.264-.524-.264-.524 0 .332-.211.638 0 1.026.21.39-.423.49-.237.57zm2.004 5.371c-.131-.217-.421-.385-.738-.461-.315-.076-.29-.48-.606-.533-.316-.055-.544-.389-.686-.512-.312-.266-.106.209 0 .699.106.488.501.246.869.586.369.34.397.016.74.229.342.211.475.52.804.578.329.059-.25-.369-.383-.586zm-3.088-1.432c.262.402.159.043.504-.016.343-.059-.291-.561-.502-.799-.211-.238-.42-.301-.605.049-.21.399.342.364.603.766zm2.403 2.579c-.133-.338-.518-.713-.675-.91-.159-.193-.407-.312-.618-.279-.212.031-.343-.092-.448-.361-.106-.266-.29-.233-.449-.244-.157-.012-.791.119-1.161.23-.368.113-.537.252-.778.457-.382.32-.17.105 0 .424.168.318-.187 1.066-.213 1.543-.027.477.676.031.939.039.264.012.186-.189.396-.314.212-.125.349-.129.579.172.233.305.537.611.537.883 0 .27.834.947 1.151.852.316-.098.501-.408.791-.635.291-.225.186-.824.264-1.168.081-.344-.185-.354-.315-.689z"/>
</svg>
