<svg xmlns="http://www.w3.org/2000/svg" viewBox="0 0 36 36">
  <path fill="#662113" d="M16.136 11.285c-.061 0-.122-.015-.179-.045-.003-.002-.366-.198-.738-.231-.423-.042-.898.167-.902.169-.188.086-.411 0-.496-.189-.084-.189 0-.411.189-.496.027-.012.656-.286 1.277-.231.532.049 1.011.31 1.031.321.181.1.247.327.148.508-.069.124-.197.194-.33.194zm5.901.525c-.076 0-.152-.023-.219-.07-.001 0-.309-.212-.743-.25-.443-.039-.792.086-.796.087-.194.073-.41-.026-.481-.22-.073-.193.023-.408.216-.481.021-.008.51-.188 1.128-.133.636.056 1.067.354 1.114.388.168.121.207.355.086.523-.073.102-.189.156-.305.156z"/>
</svg>
