<svg xmlns="http://www.w3.org/2000/svg" viewBox="0 0 36 36">
  <path fill="#3E721D" d="M16.222 25.658c-.252-.216-.49-.44-.721-.667-.082-.158-.203-.325-.406-.512-.179-.164-.352-.334-.521-.506 1.02-.146 1.46-.672.521-1.476-.307-.263-.597-.54-.875-.823.122-.199.044-.468-.344-.801-.128-.109-.252-.222-.373-.336.773-.12 1.096-.53.373-1.149-.221-.19-.43-.389-.632-.592.187-.164.165-.411-.206-.728-.078-.067-.146-.14-.221-.209.562-.113.777-.433.221-.91-.352-.302-.666-.632-.96-.964.379-.091.515-.318.156-.648.263-.117.314-.333-.033-.63-1.28-1.096-1.999-2.666-2.666-2.666s-1.386 1.57-2.665 2.666c-.347.298-.296.514-.033.63-.359.33-.223.557.156.648-.294.332-.608.662-.96.964-.556.477-.341.796.221.91-.075.069-.143.142-.221.209-.371.318-.393.564-.206.728-.202.203-.41.402-.632.592-.723.619-.4 1.029.373 1.149-.121.115-.245.227-.373.336-.388.333-.467.602-.344.801-.278.283-.568.56-.875.823-.939.804-.499 1.331.521 1.476-.169.172-.342.342-.521.506-.203.186-.324.354-.406.511-.231.228-.47.452-.722.668-1.459 1.251-.765 1.975 1.236 1.83 1.784-.129 3.452-.534 5.451-.534s3.667.405 5.451.534c2 .145 2.696-.579 1.236-1.83z"/>
</svg>
