<svg xmlns="http://www.w3.org/2000/svg" viewBox="0 0 36 36">
  <path d="M11.001 6c-.367 0-.72-.202-.896-.553l-2-4C7.858.953 8.059.353 8.553.105c.495-.248 1.095-.047 1.342.447l2 4c.247.494.047 1.095-.447 1.342-.144.072-.297.106-.447.106zm-6.002 6c-.15 0-.303-.034-.446-.106l-4-2c-.494-.247-.695-.847-.448-1.341.247-.494.847-.695 1.342-.447l4 2c.494.247.694.848.447 1.342-.175.35-.528.552-.895.552zM8 9c-.256 0-.512-.098-.707-.293l-4-4c-.391-.391-.391-1.023 0-1.414s1.023-.391 1.414 0l4 4c.391.391.391 1.023 0 1.414C8.512 8.902 8.256 9 8 9z" fill="#FFCC4D"/>
</svg>
