<svg xmlns="http://www.w3.org/2000/svg" viewBox="0 0 36 36">
  <path fill="#3E701E" d="M12.45 21.329s-2.459 4.086-1.78 5.652c.409.945 1.123 2.064 2.389 2.271.423.069.623.898.501 1.505-.139.686-.621 1.646-.886 2.132-.265.487-.777.481-1.411 1.041-.442.39-.597 1.075.153 1.082l3.545.029c.664.006 1.093-.398 1.24-1.067.204-.928.76-4.461.551-5.146-.15-.491-.667-.886-.995-1.835-.243-.703.343-1.803.343-1.803l-3.65-3.861zm-5.748-5.571s.824-.146 1.272-.061c.448.086 1.705 1.019 2.085 1.16.38.141 1.299-.075 1.299-.075s1.065 1.436.995 1.581c-.07.145-1.617.47-1.981.579-.363.109-1.755-2.081-2.146-2.327s-.98.359-1.373.341c-.392-.018-.282-.298-.005-.374 0 0-.467.157-.483-.019-.016-.176.388-.281.388-.281s-.409.146-.475-.026c-.064-.172.063-.38.424-.498z"/>
</svg>
