<svg xmlns="http://www.w3.org/2000/svg" viewBox="0 0 36 36">
  <g fill="#3E701E">
    <path d="M20.363 14.538c-.127.245-.429.34-.674.213-.245-.127-.34-.429-.213-.674.127-.245.429-.34.674-.213.245.127.34.429.213.674zm1.246 3.151c-.181.349-.611.484-.96.303s-.484-.611-.303-.96.611-.484.96-.303c.349.182.484.612.303.96zm.537-2.21c-.096.185-.325.258-.51.161s-.258-.325-.161-.511.325-.258.511-.161.257.326.16.511zm1.062 1.438c-.091.175-.307.244-.483.152-.175-.091-.244-.307-.152-.483.091-.175.307-.243.483-.152.175.092.243.308.152.483zm3.005 7.533c-.069.133-.233.185-.366.116s-.185-.233-.116-.366c.069-.133.233-.185.366-.115s.185.232.116.365zm-1.216-5.37c-.169.324-.568.45-.893.282-.324-.169-.45-.568-.282-.893.169-.324.568-.45.893-.282.325.169.451.569.282.893z"/>
    <circle cx="24.35" cy="23.682" r=".424"/>
    <circle cx="22.836" cy="18.997" r=".424"/>
    <circle cx="25.621" cy="22.387" r=".424"/>
    <circle cx="24.04" cy="21.036" r=".627"/>
  </g>
</svg>
