<svg xmlns="http://www.w3.org/2000/svg" viewBox="0 0 36 36">
  <path fill="#77B155" d="M14.136 21.625s-1.471 3.333-.728 5.108c.687 1.643 2.359 2.952 3.897 3.472.374.126 1.093.116 1.268.658s-.164 2.343-.408 2.791c-.244.448-1.532.685-1.799 1.506-.1.307-.303.749.281.803.687.063 4.266.026 4.877.032.611.005.765-.474.771-1.104.003-.398-.688-2.39-.39-3.803.176-.835.526-1.626 1.002-2.334 1.001-1.489.044-1.661-1.351-1.661-2.176 0-4.34-.611-4.34-.611l-3.08-4.857zm-7.892-3.142s.78-.424 1.26-.489c.48-.064 2.057.452 2.488.466.43.014 1.69-.85 1.69-.85s1.146 1.425 1.124 1.595c-.022.169-1.469 1.016-1.798 1.248-.329.232-2.143-1.459-2.619-1.575-.476-.116-1.188.646-1.588.76-.401.114-.384-.205-.13-.375 0 0-.417.315-.493.144-.075-.171.296-.413.296-.413s-.362.285-.486.133c-.125-.152-.067-.403.256-.644z"/>
</svg>
