<svg xmlns="http://www.w3.org/2000/svg" viewBox="0 0 36 36">
  <path fill="#77B155" d="M8.957 11.055c-.543.142-1.212 0-1.527-.242-.251-.176-.294-.414.075-.606.029-.012.058-.033.098-.046.01-.001.009-.011.019-.011.544.049 1.098.097 1.34-.037.418-.224 1.789-1.817 1.677-2.011-.315-.593-1.847.988-2.256 1.022-.1.006-.304-.053-.559-.138-.14-.182-.3-.353-.429-.506 0 0 .341-.691 1.34-1.26.999-.569 2.665-.174 3.275.502.611.677-2.066 3.076-3.053 3.333z"/>
  <path fill="#77B155" d="M9.026 13.803c-.517-.212-.677-.371-1.116-.716-.294-.23-.706-.445-1.239-.394-1.266.121-3.474.638-3.893.322-.419-.316-.65-1.195-.348-1.343.029-.012.088-.035.157-.059l.002.03s-.043.984.34 1.032c.384.058 3.315-1.234 4.009-1.544.235-.104.388-.223.493-.319.315.242.984.384 1.527.242.987-.257 3.664-2.657 3.054-3.333-.612-.675-2.278-1.069-3.277-.501-.999.569-1.34 1.26-1.34 1.26.129.153.289.324.43.506-.326-.101-.726-.258-1.115-.406.174-.281.335-.611.335-.611s-1.175-.573-1.921-.48c-.747.093-3.918.527-4.224.775-.297.238.251 1.058.251 1.058.034.068.068.126.102.194-.159.019-.278.036-.339.03C.43 9.494.101 7.789.318 7.216c.227-.574 1.215-2.044 2.726-2.763 1.521-.729 2.342-.794 2.756-1.249.111-.119.126-.476.654-.638.571-.175 1.549-.12 2.291-.797 2.216-2.022 2.556-.636 3.865-.205 1.648.543 2.54-.56 3.956 3.137 1.092 2.851-.663 4.345 1.291 6.132 0 0 1.667 1.543 2.941 2.195 8.734 4.467 5.016 13.718 9.487 17.011 4.08 3.005 4.782-1.706 3.977-3.145-.136-.242.114-.59.481-.243.892.841 1.169 2.697.918 3.855-.66 3.052-3.498 3.58-6.268 3.231-4.426-.557-6.575-7.672-10.763-5.514-2.202 1.135-3.547-3.743-5.097-6.071-1.371-2.058-3.049-7.104-3.33-8.034-.044-.149-.632-.092-1.177-.315z"/>
</svg>
