<svg xmlns="http://www.w3.org/2000/svg" viewBox="0 0 36 36">
  <path fill="#F4900C" d="M7.045 7.969s-.161.33-.335.611c-.13.188-.251.345-.34.37-.07.004-.146-.282-.192-.55l-.01.001-.067-.467s-.028.202-.066.424c-.073.285-.175.602-.314.62-.06.003-.262-.366-.408-.638-.079-.156-.136-.273-.136-.273s-.002.14-.012.321c-.013.292-.03.694-.089.707-.06.004-.268-.305-.412-.547l-.145-.252-.003.291c-.003.3-.019.722-.078.745-.07.004-.3-.333-.464-.574-.078-.136-.143-.232-.143-.232s-.003.12-.024.282c-.013.301-.058.735-.137.749-.08.005-.289-.324-.434-.576-.1-.165-.168-.301-.168-.301s.019.159.03.349c.037.298.061.708-.028.733-.088.035-.349-.32-.515-.581-.098-.145-.175-.271-.175-.271s.027.129.057.297c.047.298.092.726.014.761-.078.035-.32-.342-.487-.623l-.001-.01c-.1-.165-.178-.3-.178-.3l.02.35c.017.3.02.7-.038.734-.078.045-.292-.204-.516-.601-.032-.07-.066-.128-.1-.196 0 0-.548-.82-.251-1.058.306-.248 3.478-.682 4.224-.775.746-.093 1.921.48 1.921.48zm.574 2.472s-.001.16-.189.372c-.105.096-.258.215-.493.319-.693.311-3.625 1.602-4.009 1.544-.384-.048-.34-1.032-.34-1.032l-.002-.03c-.052-.558.004-.972.114-.979.09-.005.348.641.409.828.012.029.023.049.023.049s-.001-.02.006-.06c.017-.221.101-1.028.22-1.045.12-.007.308.654.362.891.013.049.025.079.025.079s-.002-.03.015-.091c.026-.252.113-.988.232-1.015.119-.027.315.593.39.849l.036.108s.008-.041.013-.121c.043-.293.139-1.06.238-1.086.098-.046.372.71.443.896.012.029.012.039.012.039l-.003-.05c.018-.211.052-1.005.151-1.021.07-.004.305.423.442.706.068.136.114.234.114.234s.001-.15-.009-.33c.002-.291.001-.661.06-.675.04-.002.172.2.294.404.133.223.257.446.257.446s.003-.301.018-.562c.01-.181.03-.342.059-.364.039-.022.159.151.26.346.121.193.224.408.224.408s.009-.191.047-.394c.02-.181.059-.364.107-.407.057-.053.213.218.326.442.022.029.033.048.034.068.068.137.114.234.114.234z"/>
</svg>
