<svg xmlns="http://www.w3.org/2000/svg" viewBox="0 0 36 36">
  <path fill="#77B155" d="M2.437 9.208c-.167.059-.325.098-.473.127l.001.01-.159.039c-.217.063-.405.104-.553.132-.034-.068-.068-.126-.102-.194 0 0-.548-.82-.251-1.058.306-.248 3.478-.682 4.224-.775.746-.093 1.921.48 1.921.48s-.161.33-.335.611c-.184-.06-.369-.129-.532-.18l-.01.001c-.051-.017-.091-.025-.133-.043-.234-.066-.426-.105-.525-.079-.04.012-.109.026-.197.061-.039.012-.089.025-.148.049-.138.038-.305.087-.501.159l-.148.038c-.168.05-.344.11-.541.172-.049.013-.108.036-.168.05-.187.061-.384.122-.571.173-.05.013-.099.026-.138.048-.187.051-.365.101-.542.152-.039.012-.079.024-.119.027zm2.66-4.262c2.271-.762 1.011-1.05 2.169-1.658.613-.317 1.458-.255 1.614.187.159.502.118 1.175-1.072 1.575-.688.23-2.711-.104-2.711-.104zm3.86 6.109c-.543.142-1.212 0-1.527-.242-.105.096-.258.215-.493.319-.693.311-3.625 1.602-4.009 1.544-.384-.048-.34-1.032-.34-1.032l-.002-.03.522-.15c.01-.001.02-.001.029-.012.178-.05.375-.102.582-.154.01-.001.03-.002.039-.012.207-.052.424-.115.622-.166.02-.001.03-.002.049-.013.267-.066.503-.139.68-.19l.009-.011c.049-.013.099-.026.138-.038.187-.061.321-.169.455-.277.038-.032.066-.064.105-.096.114-.107.219-.203.355-.271.077-.055.165-.09.274-.116.049-.013.099-.016.159-.019.05-.003.1-.006.16.001.08.005.171.01.271.014.13.002.282.024.433.035.05.007.101.014.151.011.544.049 1.098.097 1.34-.037.418-.224 1.789-1.817 1.677-2.011-.315-.593-1.847.988-2.256 1.022-.1.006-.304-.053-.559-.138-.137-.182-.297-.353-.426-.506 0 0 .341-.691 1.34-1.26.999-.569 2.665-.174 3.275.502.611.677-2.066 3.076-3.053 3.333z"/>
</svg>
