<svg xmlns="http://www.w3.org/2000/svg" viewBox="0 0 36 36">
  <path fill="#DD2E44" d="M16.806 10.675c-.92-2.047-2.003-4.066-3.026-6.26-.028-.068-.051-.138-.082-.206-.064-.142-.137-.277-.208-.413l-.052-.111-.002.003C11.798.698 8.343-.674 5.46.621 2.414 1.988 1.164 5.813 2.67 9.163c1.505 3.351 5.194 4.957 8.24 3.589.106-.047.205-.105.306-.159 1.935.438 1.994 1.877 1.994 1.877s4.618-1.521 3.596-3.795zM4.876 8.173c-.958-2.133-.252-4.527 1.575-5.347 1.826-.822 4.084.242 5.042 2.374.958 2.132.253 4.526-1.573 5.346-1.828.821-4.087-.241-5.044-2.373z"/>
</svg>
