<svg xmlns="http://www.w3.org/2000/svg" viewBox="0 0 36 36">
  <path fill="#DD2E44" d="M30.54.62c-2.882-1.295-6.338.077-7.976 3.067l-.003-.003-.053.112c-.071.135-.145.27-.208.412-.03.068-.053.137-.081.206-1.023 2.194-2.107 4.213-3.026 6.26-1.021 2.274 3.597 3.796 3.597 3.796s.059-1.439 1.993-1.877c.102.054.2.111.307.159 3.045 1.368 6.733-.238 8.24-3.589 1.505-3.35.255-7.175-2.79-8.543zm.584 7.553c-.959 2.132-3.216 3.194-5.044 2.373-1.826-.82-2.531-3.214-1.572-5.346.956-2.132 3.214-3.195 5.041-2.374 1.827.82 2.532 3.214 1.575 5.347z"/>
</svg>
