<svg xmlns="http://www.w3.org/2000/svg" viewBox="0 0 36 36">
  <path fill="#FFD983" d="M14.017 10.368L8.173 4.524c.847-1.017.805-2.525-.15-3.479-1.011-1.011-2.65-1.011-3.662 0-.621.621-.856 1.478-.715 2.282-.804-.141-1.661.094-2.282.715-1.011 1.011-1.011 2.651 0 3.662.954.955 2.462.996 3.479.15l5.844 5.844 3.33-3.33zm11.918 11.919l5.845 5.844c1.017-.846 2.524-.805 3.479.15 1.012 1.011 1.012 2.65 0 3.661-.621.621-1.479.856-2.282.716.142.804-.095 1.661-.716 2.281-1.011 1.012-2.65 1.012-3.661 0-.955-.954-.996-2.462-.149-3.479l-5.845-5.844 3.329-3.329z"/>
</svg>
