<svg xmlns="http://www.w3.org/2000/svg" viewBox="0 0 36 36">
  <path fill="#662113" d="M5.094 21.969c.25 1.219.694 1.994 1.344 1.594.65-.4 1.65-.193 1.344.625-.281.75.969 1.094 1.5.656.509-.419 1.555-.881 1.656.062.094.875 1.168 1.11 1.656.469.5-.656 1.875-.394 2.125.406s1.594.688 1.969.125c.355-.533.713-.885 1.312-.885V25c.6 0 .957.373 1.312.906.375.562 1.719.675 1.969-.125s1.625-1.062 2.125-.406c.489.641 1.562.406 1.656-.469.101-.943 1.147-.482 1.656-.062.531.438 1.781.094 1.5-.656-.307-.818.694-1.025 1.344-.625.65.4 1.094-.375 1.344-1.594H5.094z"/>
</svg>
