<svg xmlns="http://www.w3.org/2000/svg" viewBox="0 0 36 36">
  <path d="M18 35.5c-.276 0-.5-.224-.5-.5v-8.646c0-.276.224-.5.5-.5s.5.224.5.5V35c0 .276-.224.5-.5.5zm-6.699-1.268c-.248 0-.463-.184-.496-.436l-1.031-7.982c-.035-.274.158-.525.432-.561.272-.041.524.158.56.432l1.031 7.982c.035.274-.158.525-.432.561-.021.003-.043.004-.064.004zm3.179.976c-.257 0-.476-.197-.498-.459l-.708-8.521c-.023-.274.182-.517.457-.539.283-.022.517.182.54.457l.708 8.521c.023.274-.182.517-.457.539l-.042.002zm-5.959-3.041c-.175 0-.331-.123-.367-.301l-1.5-7.438c-.041-.203.09-.4.293-.441.198-.048.4.09.442.293l1.5 7.438c.041.203-.09.4-.293.441-.026.006-.051.008-.075.008zm16.1 1.952c-.024 0-.048-.002-.072-.005-.273-.039-.463-.293-.424-.566l1.13-7.869c.039-.274.296-.456.566-.424.273.039.463.293.424.566l-1.13 7.869c-.036.249-.25.429-.494.429zm-3.042 1.089l-.042-.002c-.275-.022-.48-.265-.457-.539l.708-8.521c.022-.276.292-.474.539-.457.275.022.48.265.457.539l-.708 8.521c-.021.262-.24.459-.497.459zm5.983-3c-.023 0-.047-.002-.07-.007-.204-.039-.337-.235-.298-.438l1.438-7.479c.039-.203.241-.337.438-.298.204.039.337.235.298.438l-1.438 7.479c-.034.18-.191.305-.368.305z" fill="#88C9F9"/>
</svg>
