<svg xmlns="http://www.w3.org/2000/svg" viewBox="0 0 36 36">
  <path fill="#FFCC4D" d="M17.91 10.504c2.936-1.108 5.623-3.115 5.533-5.841 0-.858-.327-1.568-.852-2.125.643 2.808-3.651 6-8.399 6.506-5.941.633-5.261-2.872-5.261-2.872l-.007.007c-.883 1.536-.717 3.159-.717 3.159.905 2.383 5.576 2.724 9.703 1.166z"/>
  <path fill="#FFCC4D" d="M28.885 9.337c-.006-.143-.03-.268-.045-.402-.116-.677-.453-1.506-.774-2.138-.19-.265-.4-.499-.63-.702 1.109 4.426-5.563 9.749-11.93 10.982-8.299 1.606-11.654-3.065-11.654-3.065-.342 2.415.858 4.509 3.449 5.976 10.227 4.169 21.673-6.095 21.584-10.651z"/>
</svg>
