<svg xmlns="http://www.w3.org/2000/svg" viewBox="0 0 36 36">
  <path fill="#55ACEE" d="M5.696 10.003c-.179 1.05-.162 2.363.413 2.527.46.132 1.104-.09 1.639.177.535.267.963.965 1.506 1.151 1.04.356 1.678-.299 2.303-.221 1.188.148 1.721 1.284 2.702 1.373.98.089 1.781-.738 2.701-.709.984.032.936.767 2.48.797 1.516.029 1.766-.959 2.657-1.019.891-.059 1.471.547 2.303.399.832-.149 1.177-1.017 1.86-1.196.683-.178 1.045.326 1.639.177.594-.148.907-1.17 1.264-1.438.356-.267 1.571 1.26 1.277-1.663-.536-5.328-19.13-.563-20.882-.681-1.753-.119-3.491-1.845-3.862.326z"/>
</svg>
