<svg xmlns="http://www.w3.org/2000/svg" viewBox="0 0 36 36">
  <path fill="#99AAB5" d="M13 15.689c1.945-.886 7.032-.006 8.304-.048 3.861-.127 6.58-1.305 10.332 0C35.388 16.946 36 20.327 36 24c0 .816-.465-.9-1.008-1.662 0 0 .451 3.643-.854 6.253-.664 1.328-1.631 2.557-1.631 3.753-.001 1.197.493 1.78.493 2.656 0 .892-1 .98-2 .98-.926 0-3 .02-3-.98 0-1.423.385-2.394-.312-2.083-1.729.771-6.146.5-7.771-.167-.766-.314-.43 1.598-.428 1.932C19.499 35.795 19 36 17 36c-1.741 0-3-.012-3-1s.919-2.179.281-3.781C13 28 11 31 7.999 31 5.031 31 13 15.689 13 15.689z"/>
</svg>
