<svg xmlns="http://www.w3.org/2000/svg" viewBox="0 0 36 36">
  <path fill="#CCD6DD" d="M34.987 31.008c-1.187-1.187-2.373 0-2.373-2.373s-1.187-3.56-2.373-3.56-1.187-4.746-1.187-5.933-2.373-5.933-5.933-5.933c-3.56 0-5.933 1.187-8.306 1.187-2.373 0-3.56 0-4.746-4.746-.91-3.64-4.746-4.746-8.306-3.56 0 0-2.582-.995-1.395.192 1.187 1.187-.18.995-.18 3.368 0 .275.066.515.174.73C.354 11.489.343 13.521.369 14c.036.667.294.883 1.131 1.208 1.125.438 1.782-.319 1.854-.708.146-.792.021-1.656.021-1.656s1.167-.469 1.896-1.135c.098.081.625 1.146.052 2.688-.413 1.112-1.187 2.373 1.187 5.933 0 0-3.56 0-4.746 1.187C.577 22.704.288 25.077.312 26.263c.033 1.648 1.452 3.56 2.639 3.56s1.187-1.187 1.187-2.373c0-1.187-2.373 0-1.187-2.373 1.187-2.373 1.187-1.187 2.373-1.187 1.187 0 3.56-1.187 4.746-1.187s3.56 1.187 5.933 1.187c2.373 0 4.746-2.373 7.119 0 2.373 2.373 5.933 2.373 7.119 3.56 1.187 1.187 1.187 2.373 1.187 3.56 0 1.187 2.373 2.373 3.56 2.373s1.186-1.188-.001-2.375z"/>
</svg>
