<svg xmlns="http://www.w3.org/2000/svg" viewBox="0 0 36 36">
  <path fill="#DD2E44" d="M5.854 24.082l2.615-6.989L8 16s-.916.008-1-1c-.083-1.007 2.408-3.079 3-3 .593.08 0 2 0 2s2.32.557 2 2c-.319 1.444-2.375 8.688-2.375 8.688S11.375 25.563 12 27c.449 1.032 1.681 1.018 3 1 1.319-.016 4.393-.007 5-2 .606-1.991 1-3 1-3l-1-1 10-2s-.891 1.982 1 3c2.168 1.169 2.86 2.669 4 5 .749 1.534.448 1.897-1 2-1.941.14-4.44.386-5.79.535-1.197.134-2.284 1.65-4.164 1.65s-10.052.049-12.046-.186c-3.496-.409-4.758-3-10-3-2.072 0-1.06-1.563.028-2.665 1.209-1.226 3.801-2.4 3.826-2.252"/>
</svg>
