<svg xmlns="http://www.w3.org/2000/svg" viewBox="0 0 36 36">
  <path fill="#99AAB5" d="M33.799.005c-.467-.178-7.998 3.971-9.969 9.131-1.166 3.052-1.686 6.058-1.652 8.112C20.709 16.459 19.257 16 18 16s-2.709.458-4.178 1.249c.033-2.055-.486-5.061-1.652-8.112C10.2 3.977 2.668-.173 2.201.005c-.455.174 4.268 16.044 7.025 20.838C6.805 23.405 5 26.661 5 29.828c0 3.234 1.635 5.14 4 5.94 2.531.857 5-.94 9-.94s6.469 1.798 9 .94c2.365-.801 4-2.706 4-5.94 0-3.166-1.805-6.423-4.225-8.984C29.53 16.049 34.255.179 33.799.005z"/>
</svg>
