<svg xmlns="http://www.w3.org/2000/svg" viewBox="0 0 36 36">
  <path fill="#292F33" d="M22.336 33.782s-.616 1.993.008 2.138c.605.141 1.694-.388 1.755-.646.081-.343.216-1.179.098-1.366-.118-.187-1.861-.126-1.861-.126zm-7.676-5.296c-.167.146.164 1.859.164 1.859s2.064.299 2.111-.34c.045-.62-.647-1.614-.91-1.634-.351-.027-1.198-.031-1.365.115z"/>
  <circle fill="#292F33" cx="4.25" cy="8.047" r=".349"/>
  <path fill="#292F33" d="M12.655 9.07c1.773 1.446 3.147.322 3.147.322-1.295-.271-2.056-.867-2.708-1.562.835-.131 1.287-.666 1.287-.666-1.061-.013-1.824-.3-2.485-.699-.565-.614-1.233-1.202-2.254-1.631-.294-.125-.606-.21-.922-.276-.086-.025-.178-.063-.258-.073-.906-.114-1.845.051-2.737.603-.322.2-.214.639.117.623 1.741-.085 2.866.582 3.47 1.633 2.169 3.772 5.344 3.875 5.344 3.875s-1.29-.688-2.001-2.149z"/>
</svg>
