<svg xmlns="http://www.w3.org/2000/svg" viewBox="0 0 36 36">
  <path fill="#073163" d="M29.947 14.879c-.147-.049-.383-.099-.655-.143 0 0 .055.222.095.462.027.161.036.339.123.439.205.065.413.058.558 0 .399-.158.073-.694-.121-.758zm-2.343-.273c.123.144.199.521.371.757.062.038.458.214.795.044.037-.067-.28-.771-.28-.771-.159-.016-.733-.041-.886-.03zm-.86.896c.061.037.543-.105.543-.138-.006-.063-.06-.15-.139-.326-.065-.142-.15-.258-.241-.353-.395.06-.733.13-.817.148.168.286.353.489.654.669z"/>
</svg>
