<svg xmlns="http://www.w3.org/2000/svg" viewBox="0 0 36 36">
  <path fill="#059334" d="M24.787 13.239s.12-.441.64-.441.28.32.88.36c.601.04 2.721.32 3.04.48.32.16.721.12.92.08.2-.041.041.2-.159.32s-.601.04-.601.04.441.4.561.68c.12.28 0 .4-.2.28s-.44.12-.481-.04c-.04-.16-.439-.72-.439-.72s-1.16-.16-1.48.12c-.319.28-.712.384-1.36.32-.399-.04-.64-.24-.559-.48.08-.24.279-.32.279-.32s-.04-.48-.199-.36c-.16.12-.521.04-.561-.04-.041-.079-.281-.279-.281-.279z"/>
  <path fill="#059334" d="M26.066 13.079c.172-.103 1-.48 1.641-.44.64.04 1.04.2 1.479.44.441.24.4.44.641.52.24.08.12.2 0 .32s-.521.8-1.801.76c-1.28-.04-1.4-.4-1.6-.56-.2-.16-.32-.56-.32-.68s-.239-.241-.04-.36z"/>
</svg>
