<svg xmlns="http://www.w3.org/2000/svg" viewBox="0 0 36 36">
  <path fill="#F9D050" d="M33.74 22.72c-.279.04-.396.44-.516.68 0 0-.279.24-.72.2 0 0 .202-.32.401-.641.2-.319.081-.72-.199-.759-.279-.041-.319-.201-.68-.52-.36-.32-1-.36-1.12-.08-.12.279-.681.48-.6.88.079.4.279.92.479 1.24 0 0-.946.6-1.707.88-.76.28-1.311.32-1.311.32s-.799-.04-1.559-.32c-.761-.28-1.484-.88-1.484-.88.199-.32.399-.84.481-1.24.079-.399-.481-.601-.601-.88-.12-.28-.76-.24-1.12.08-.36.319-.399.479-.681.52-.279.039-.4.439-.2.759s.398.641.398.641c-.44.04-.721-.2-.721-.2-.12-.24-.244-.64-.524-.68-.28-.04-.286.239-.246.521.04.279.225.8.344 1.119.12.32.331.36.772.44.44.08 1.102-.279 1.102-.279C25.29 26.04 27.536 26 27.536 26s2.465.04 4.025-1.479c0 0 .772.359 1.213.279.44-.08.707-.12.826-.44.12-.319.334-.84.374-1.119.042-.282.047-.561-.234-.521z"/>
</svg>
