<svg xmlns="http://www.w3.org/2000/svg" viewBox="0 0 36 36">
  <path fill="#DB1C1C" d="M33.588 24.319s.319-.959.399-1.28c.08-.319-.24-.44-.479-.24-.24.201-.601 1.361-.601 1.361s.12-.24.36-.201c.241.041.321.36.321.36zm-1.921-1.479s.44-.521.48-.841c.04-.319-.4-.72-.721-.68-.319.04-.56.28-.479.56.08.28.359.841.359.841s0-.08.161-.08c.16 0 .2.2.2.2zm-9.741 1.479s-.32-.959-.401-1.28c-.079-.319.24-.44.48-.24.24.201.601 1.361.601 1.361s-.12-.24-.36-.201c-.241.041-.32.36-.32.36zm1.92-1.479s-.44-.521-.48-.841c-.04-.319.4-.72.72-.68.32.04.561.28.48.56-.08.28-.36.841-.36.841s0-.08-.159-.08c-.161 0-.201.2-.201.2z"/>
</svg>
