<svg xmlns="http://www.w3.org/2000/svg" viewBox="0 0 36 36">
  <path fill="#0B50A0" d="M25.231 20.879c.479 0 1.079-.439 1.399-.439.32 0 .6.439 1.04.439.44 0 1-.439 1.28-.439s.72.439 1.159.439c.44 0 .6-.439.999-.439.08 0 .316.031.38.059.041-.261.061-.698.047-1.106-.167-.004-.284-.01-.364-.01-.047 0-.106-.009-.173.014-.34.119-.411.483-.846.483-.519 0-.661-.52-1.181-.52-.521 0-.691.52-1.211.52-.439 0-.805-.52-1.205-.52s-.843.52-1.203.52c-.247 0-.427-.245-.631-.398-.093-.07-.186-.093-.186-.093-.024.554.03 1.103.03 1.103.198.115.289.387.666.387zm3.764 2.361c-.515 0-.679.505-1.185.516-.506-.011-.671-.516-1.185-.516-.348 0-.625.296-.856.45.267.169.655.276 1.163.653.362.269.878.297.878.297s.516-.029.878-.297c.509-.377.897-.484 1.163-.653-.23-.154-.508-.45-.856-.45zm2.311-2.121c-.56 0-.518.52-1.037.52-.521 0-.641-.52-1.16-.52-.521 0-.681.52-1.2.52-.441 0-.801-.52-1.201-.52-.399 0-.84.52-1.199.52-.274 0-.572-.302-.857-.447 0 0 .139.835.405 1.374.091.04.214.073.331.073.48 0 1.079-.439 1.4-.439.32 0 .6.439 1.04.439.44 0 1-.439 1.28-.439s.72.439 1.159.439c.285 0 .48-.192.672-.322.184-.338.323-.728.434-1.195-.019-.002-.045-.003-.067-.003z"/>
</svg>
