<svg xmlns="http://www.w3.org/2000/svg" viewBox="0 0 36 36">
  <path fill="#F9D050" d="M25.184 16.098c.25-.205.48.12.521.32.04.2.28.48.52.48 0 0 .16-.48.28-.72.12-.24.44-.32.641-.24.2.08.56.04.52.4-.04.36-.16.52-.16.52s.72.04 1.04 0c.32-.04.681-.24.921-.12.239.12.6.16.72.08s.2-.32-.08-.28c-.28.041-.52.041-.76.081-.24.039-1.28.08-1.28-.24s.399-.36.479-.32c.081.04.681-.4.801-.2s.12.44-.24.44-.881-.08-.881.04.161.2.401.2c.239 0 .64-.16.919-.16.28 0 .681-.32.92-.12.24.2.44.48.24.6-.199.12-.92.16-1.16.12 0 0 .28.16.521.2.24.041.72.12.681.36-.041.24.079.56-.24.52-.32-.04-.28-.2-.2-.32.08-.12-.12-.24-.48-.2-.359.04-.8-.16-.8-.16s-.12.32.04.4c0 0-.48.2-.76.24-.28.04-.56.16-.56 0s.2-.4.36-.32c.16.08.439-.041.521-.041.079 0-.281-.24-.081-.32.2-.08-.159-.12-.359 0-.2.12-1.4.44-1.801.6-.399.16-.76.12-.92.2-.16.08-.479-.12-.32-.32.16-.2.24-.32.36-.2s.32.08.6 0c.28-.08-.159-.16-.239-.24-.08-.08-.4-.56-.4-.68-.005-.12-.725-.24-.285-.6zm1.483-3.019c-.24-.36-.96-.84-.96-.84l.68.2s-.32-.44-.68-.52c.079 0 .72.08.919.24 0 0-.56-.64-.84-.76 0 0 .681.2.921.44l-.28-.6s.52.24.68.56c0 0-.16-.64-.48-.96 0 0 .48.281.642.52l.118-.571.353.318.241-.444.282.459.485-.503s-.12.39-.16.751c0 0 .2-.325.64-.485 0 0-.56.858-.64 1.178 0 0 .8-.792 1.32-.992 0 0-.721.845-.92 1.165 0 0 .6-.518 1.159-.678 0 0-.72.761-.84.921 0 0 .4-.16.92-.12 0 0-1.199.68-1.479.92-.281.24-2.081-.199-2.081-.199z"/>
</svg>
