<svg xmlns="http://www.w3.org/2000/svg" viewBox="0 0 36 36">
  <path fill="#77B255" d="M26.444 8.175c.251.493.057 1.094-.437 1.346l-5.347 2.724c-.492.25-1.094.055-1.344-.437l-4.542-8.91c-.839-1.649-2.29-.573-2.29-.573s.352-.546.41-.63c.399-.57 1.135-1.188 2.216-1.167L21.969.5c.324 0 .671.209.844.547l3.631 7.128z"/>
  <path fill="#77B255" d="M29.571 7.705c.118.231.143.505.06.762l-2.621 8.071c-.17.525-.734.812-1.26.642l-8.07-2.623c-.258-.083-.464-.265-.583-.496-.059-.114-.096-.242-.107-.376-.032-.404.184-.786.544-.969l10.692-5.448c.36-.184.795-.134 1.103.13.103.086.184.192.242.307z"/>
</svg>
