<svg xmlns="http://www.w3.org/2000/svg" viewBox="0 0 36 36">
  <path fill="#77B255" d="M4.451 17.002c.287-.472.902-.622 1.374-.335l5.126 3.119c.473.287.622.901.335 1.374l-5.197 8.543c-.96 1.58.717 2.25.717 2.25s-.65-.014-.751-.02c-.696-.038-1.609-.341-2.159-1.271L.27 24.842c-.171-.275-.174-.682.023-1.006l4.158-6.834z"/>
  <path fill="#77B255" d="M2.407 14.589c.136-.224.355-.388.618-.454l8.245-2.006c.537-.132 1.077.197 1.208.734l2.007 8.244c.064.264.017.534-.118.757-.066.109-.155.208-.264.288-.326.238-.764.256-1.11.046l-10.25-6.235c-.346-.211-.531-.609-.469-1.008.02-.134.066-.256.133-.366z"/>
</svg>
