<svg xmlns="http://www.w3.org/2000/svg" viewBox="0 0 36 36">
  <path fill="#F4900C" d="M33.629 16.565l-.092 1.608-.041.814c-.02.265-.092.529-.142.794l-.285 1.598c-.153.519-.326 1.028-.499 1.547-.743 2.025-1.791 4.029-3.246 5.698-1.445 1.689-3.134 3.175-5.006 4.396-1.903 1.221-3.867 2.167-6.126 2.859l-.385.121-.427-.142c-1.526-.499-2.798-1.099-4.101-1.832-1.272-.722-2.503-1.536-3.612-2.524l-.835-.732-.784-.794c-.529-.519-.987-1.109-1.455-1.689-.906-1.18-1.669-2.473-2.3-3.826-.611-1.353-1.109-2.768-1.404-4.213-.071-.366-.183-.722-.224-1.089l-.132-1.089c-.071-.733-.193-1.435-.153-2.279.061-1.618.56-3.175 1.313-4.508.773-1.343 1.75-2.503 2.849-3.48l3.46-3.053-1.669 4.174c-.57 1.435-.845 3.134-.193 4.202.315.529.885.814 1.587.824.733 0 1.475-.203 1.872-.692.407-.478.438-1.231.183-1.954-.326-.753-.631-1.77-.59-2.696 0-.946.275-1.893.753-2.717.488-.824 1.19-1.496 1.984-1.994l1.028-.641-.285 1.19c-.295 1.221-.081 2.503.733 3.287.804.784 2.076 1.058 3.103.794 1.028-.275 1.72-1.109 1.76-2.025.081-.946-.417-2.015-1.058-3.002L16.932 0l3.887 1.628c1.089.448 2.167.956 3.185 1.669 1.007.712 2.004 1.608 2.686 2.788.712 1.16 1.007 2.584.977 3.836 0 .315-.02.621-.041.926-.041.305-.051.55-.122.936-.122.682-.305 1.19-.458 1.709-.315.997-.519 2.025-.295 2.564.132.509 1.292.906 2.147.794.916-.092 1.77-.733 2.371-1.577.6-.855.916-1.923 1.079-2.981l.132-.834.295.763c.549 1.383.864 2.859.854 4.344z"/>
</svg>
