<svg xmlns="http://www.w3.org/2000/svg" viewBox="0 0 36 36">
  <path fill="#FFCC4D" d="M33.146 16.503c-.001-1.463.068-2.222-.507-3.52-.393 3.824-3.228 5.144-5.792 4.23-2.402-.857-.783-4.198-.664-5.793.202-2.703-.01-5.796-5.919-8.369 2.455 3.903.284 6.327-1.993 6.475-2.526.164-4.84-1.804-3.986-4.997-2.765 1.693-2.846 4.543-1.993 6.386.89 1.921-.036 3.518-2.206 3.695-2.426.199-3.773-2.158-2.531-5.913-2.151 2.104-3.676 4.837-3.449 7.805C5.142 30.035 17.841 33.93 17.841 33.93s15.319-3.757 15.305-17.427z"/>
</svg>
