<svg xmlns="http://www.w3.org/2000/svg" viewBox="0 0 36 36">
  <path fill="#FFCC4D" d="M24.312 31.553s1.426-2.769 1.319-5.645c-.038-1.024-.327-2.019-.736-2.958-.958-2.196-2.806-7.706 1.147-10.661 0 0-.755 1.269-.085 3.581.265.915.761 1.741 1.35 2.49 1.36 1.732 4.219 6.501-.484 10.948l-2.511 2.245zm-7.659 3.728s-1.581-1.515-2.421-3.652c-.299-.761-.406-1.58-.406-2.398-.001-1.911-.409-6.529-4.242-7.427 0 0 .957.687 1.205 2.591.098.753-.001 1.516-.192 2.251-.441 1.701-.972 5.909 3.886 7.659l2.17.976z"/>
</svg>
