<svg xmlns="http://www.w3.org/2000/svg" viewBox="0 0 36 36">
  <path fill="#E1E8ED" d="M13.956 12.498l.028-.022c.069-.068.122-.146.181-.22.042-.052.088-.101.127-.155.036-.05.065-.101.097-.152 1.42-2.187.489-5.896-2.322-8.707C9.255.43 5.547-.501 3.36.919c-.051.032-.103.061-.153.097-.054.039-.103.085-.155.127-.074.06-.152.112-.22.181-.009.009-.015.02-.022.028-.011.01-.025.019-.036.03l.005.005c-1 1.062-1.012 2.705-.005 3.712 1.007 1.007 2.65.995 3.712-.005l.011.011c-.021.019-.044.033-.064.053-1.059 1.059-1.084 2.748-.058 3.775 1.026 1.027 2.716 1.001 3.775-.058.02-.02.033-.043.053-.064l.011.011c-1 1.062-1.013 2.705-.005 3.712 1.007 1.007 2.649.995 3.711-.006l.005.006c.011-.011.02-.024.031-.036z"/>
</svg>
