<svg xmlns="http://www.w3.org/2000/svg" viewBox="0 0 36 36">
  <path fill="#CCD6DD" d="M2.773 5.1c.906.906 2.321.98 3.37.26.439-.75.564-1.462.564-1.685-2.206 1.645-4.177.007-4.617-.972-.183.847.039 1.752.683 2.397zm7.301 3.838c.297-.419.528-.822.635-1.096-1.406 1.288-4.092.344-4.905-1.699-.358.95-.175 2.044.57 2.79 1.004 1.003 2.637.994 3.7.005zm3.851 3.597c.011-.011.02-.024.03-.036l.028-.022c.069-.068.122-.146.181-.22.042-.052.088-.101.127-.155.036-.05.065-.101.097-.152.065-.1.1-.219.155-.325-2.528 1.131-4.415-.787-4.944-1.744-.295.917-.103 1.944.609 2.656 1.007 1.007 2.649.995 3.711-.006l.006.004z"/>
</svg>
