<svg xmlns="http://www.w3.org/2000/svg" viewBox="0 0 36 36">
  <path fill="#5C913B" d="M12.873 31.929c-.881 0-1.204-.328-1.248-.378L2.216 20.568c-.018-.021-.495-.567-.437-1.261.035-.421.253-.796.647-1.115l.063-.038c.061-.024 6.163-2.532 9.583-7.065l.2.15-.2-.15c3.618-4.796 9.859-6.854 9.921-6.874 1.745-.406 2.316.174 2.377.242l9.285 11.044c.017.018.493.566.435 1.261-.035.42-.253.795-.647 1.114l-.099.049c-.061.015-6.129 1.523-9.644 6.181-3.499 4.64-9.607 7.642-9.668 7.671-.464.11-.846.152-1.159.152zm-.871-.707c.001 0 .452.416 1.865.088.008-.011 6.009-2.962 9.436-7.504 3.437-4.555 9.225-6.182 9.867-6.351.257-.221.399-.466.422-.729.042-.48-.312-.893-.315-.897L23.992 4.784c-.002 0-.45-.415-1.864-.087-.041.014-6.135 2.026-9.656 6.693-3.366 4.461-9.239 6.995-9.758 7.213-.268.225-.414.476-.437.745-.04.476.312.887.315.891l9.41 10.983z"/>
</svg>
