<svg xmlns="http://www.w3.org/2000/svg" viewBox="0 0 36 36">
  <path fill="#5C913B" d="M14.479 22.555c-1.557-1.844-4.853 1.148-5.793.035-.455-.539-.162-1.238.436-1.742 1.005-.85 1.73-.355 2.185-.74.323-.272.306-.605.114-.834-.446-.527-1.586-.252-2.472.26l-.431-.51c-.269-.318-.745-.359-1.063-.09-.318.27-.358.744-.089 1.062l.446.529c-.677.898-.907 2.09-.106 3.037 1.496 1.77 4.833-1.172 5.883.072.364.432.262 1.256-.504 1.902-1.148.971-2.188.516-2.655.91-.228.191-.269.555-.026.844.387.457 1.62.359 2.805-.379.002.002.002.004.002.006l.487.576c.269.318.746.357 1.064.09.319-.27.358-.746.089-1.064l-.487-.576c-.005-.006-.013-.01-.019-.016.799-.978 1.069-2.267.134-3.372z"/>
</svg>
