<svg xmlns="http://www.w3.org/2000/svg" viewBox="0 0 36 36">
  <path fill="#E1E8ED" d="M32.456 32.588c.009-.008.019-.014.028-.021.068-.068.121-.146.181-.221.042-.052.089-.102.128-.155.035-.05.064-.101.096-.152 1.42-2.187.49-5.895-2.321-8.707-2.812-2.812-6.521-3.742-8.707-2.321-.052.031-.103.06-.153.096-.053.039-.104.086-.154.127-.074.061-.152.113-.221.182-.009.009-.015.019-.022.028-.011.011-.024.018-.036.03l.006.005c-1 1.062-1.012 2.705-.006 3.712 1.008 1.008 2.65.994 3.713-.006l.011.012c-.021.02-.044.033-.064.053-1.059 1.059-1.084 2.748-.059 3.775 1.026 1.025 2.717 1 3.775-.059.02-.02.033-.043.053-.064l.011.012c-1 1.062-1.013 2.705-.005 3.713 1.007 1.006 2.649.994 3.711-.006l.006.006c.01-.014.018-.027.029-.039z"/>
</svg>
