<svg xmlns="http://www.w3.org/2000/svg" viewBox="0 0 36 36">
  <path fill="#CCD6DD" d="M21.277 25.231c.906.905 2.321.979 3.37.261.439-.75.565-1.463.565-1.686-2.207 1.646-4.177.009-4.618-.97-.183.846.039 1.75.683 2.395zm7.299 3.84c.298-.419.529-.824.637-1.098-1.405 1.288-4.091.345-4.905-1.698-.358.95-.175 2.044.571 2.79 1.002 1.002 2.634.994 3.697.006zm3.854 3.595l.029-.036c.01-.008.02-.014.028-.022.069-.068.122-.146.181-.22.043-.053.089-.102.128-.156.036-.049.065-.101.097-.152.065-.1.1-.218.155-.324-2.528 1.131-4.415-.788-4.944-1.745-.295.917-.103 1.944.609 2.657 1.006 1.007 2.648.995 3.711-.006l.006.004z"/>
</svg>
