<svg xmlns="http://www.w3.org/2000/svg" viewBox="0 0 36 36">
  <path fill="#F4ABBA" d="M25.877 27.679c-.236 0-.469-.114-.61-.326l-1.952-2.928c-.224-.336-.133-.791.203-1.015.337-.224.791-.133 1.015.203l1.952 2.928c.224.336.133.791-.203 1.015-.125.083-.266.123-.405.123zm-5.857 4.88h-2.928c-.404 0-.732-.328-.732-.732s.328-.732.732-.732h2.196V16.211c0-.404.328-.732.732-.732s.732.328.732.732v15.616c0 .404-.328.732-.732.732z"/>
  <path fill="#F4ABBA" d="M20.996 35.487c-.307 0-.592-.193-.695-.5l-.601-1.804-2.09 2.09c-.286.286-.749.286-1.035 0-.286-.286-.286-.749 0-1.035l2.928-2.928c.18-.18.443-.252.685-.194.247.058.446.24.527.48l.976 2.928c.128.384-.08.798-.463.926-.077.025-.156.037-.232.037z"/>
</svg>
