<svg xmlns="http://www.w3.org/2000/svg" viewBox="0 0 36 36">
  <circle fill="#EA596E" cx="8.308" cy="4.499" r="3.904"/>
  <path fill="#EA596E" d="M12.579 20.716c-.573 0-1.14-.098-1.688-.3-2.025-.748-3.217-2.756-3.036-5.115.223-2.908 1.853-4.853 3.164-6.415 1.175-1.402 1.833-2.241 1.696-3.203-.163-1.143-.848-1.673-1.393-1.917-1.068-.477-2.506-.286-3.666.488L6.032 1.817C8.039.479 10.524.201 12.517 1.092c1.697.759 2.826 2.281 3.096 4.176.329 2.303-1.034 3.928-2.351 5.499-1.201 1.433-2.337 2.786-2.488 4.758-.081 1.051.342 1.852 1.131 2.144.858.315 2.341.04 3.68-1.792l2.364 1.727c-1.461 1.997-3.442 3.112-5.37 3.112z"/>
  <path fill="#EA596E" d="M15.14 17.187c-2.166-3.248 0-7.808 2.928-9.76s10.736-2.928 15.616 4.88c5.401 8.641-2.763 4.433-4.88 3.904-7.808-1.952-11.712 3.904-13.664.976z"/>
</svg>
