<svg xmlns="http://www.w3.org/2000/svg" viewBox="0 0 36 36">
  <path fill="#78B159" d="M6.6 23.601c0 1.822-1.478 3.3-3.3 3.3-1.822 0-3.3-1.478-3.3-3.3C0 21.777 1.478 20.3 3.3 20.3c1.823 0 3.3 1.477 3.3 3.301z"/>
  <path fill="#78B159" d="M6.6 33.5c0 1.215-.985 2.2-2.2 2.2-1.215 0-2.2-.985-2.2-2.2v-9.899c0-1.215.985-2.2 2.2-2.2 1.215 0 2.2.985 2.2 2.2V33.5zm19.8-9.899c0 1.822 1.477 3.3 3.3 3.3 1.821 0 3.3-1.478 3.3-3.3 0-1.823-1.479-3.301-3.3-3.301-1.822 0-3.3 1.477-3.3 3.301z"/>
  <path fill="#78B159" d="M26.4 33.5c0 1.215.984 2.2 2.199 2.2 1.215 0 2.2-.985 2.2-2.2v-9.899c0-1.215-.985-2.2-2.2-2.2-1.215 0-2.199.985-2.199 2.2V33.5zM16.5 28c0 1.215-.985 2.2-2.2 2.2H8.8c-1.215 0-2.2-.985-2.2-2.2 0-1.215.985-2.2 2.2-2.2h5.5c1.215 0 2.2.985 2.2 2.2zm9.9 0c0 1.215-.985 2.2-2.2 2.2h-5.5c-1.215 0-2.2-.985-2.2-2.2 0-1.215.985-2.2 2.2-2.2h5.5c1.215 0 2.2.985 2.2 2.2z"/>
  <path fill="#78B159" d="M6 28h21v3H6z"/>
</svg>
