<svg xmlns="http://www.w3.org/2000/svg" viewBox="0 0 36 36">
  <g fill="#A0041E">
    <path d="M20.896 18.375c.318 1.396 2.009 4.729 2.009 4.729s-1.639 1.477-2.987 1.437L17.963 21.7l-1.735 2.446s-1.713-1.274-2.931-1.485c0 0 1.666-3.182 2.023-3.856.357-.674 1.057-1.547 1.057-1.547s4.271.028 4.519 1.117z"/>
    <path d="M19.815 24.612l-1.853-2.693-1.632 2.3c-.02.027-.049.046-.082.051-.032.004-.066-.003-.094-.022-.018-.013-1.703-1.259-2.879-1.463-.039-.007-.073-.032-.091-.067-.018-.036-.017-.078.002-.113 0 0 1.666-3.183 2.022-3.857.358-.676 1.042-1.53 1.07-1.566.023-.03.06-.047.098-.047h.001c.447.003 4.377.062 4.64 1.214.31 1.365 1.981 4.667 1.998 4.7.026.051.014.111-.028.149-.067.061-1.646 1.471-3.016 1.471-.058-.001-.123-.008-.156-.057zm.959-6.209c-.163-.714-2.72-1.001-4.336-1.019-.149.19-.707.912-1.008 1.479-.311.587-1.613 3.076-1.945 3.709 1.05.248 2.342 1.132 2.715 1.398l1.662-2.343c.023-.033.062-.053.102-.053h.001c.041 0 .079.021.102.054l1.918 2.788c1.115-.008 2.444-1.073 2.765-1.345-.275-.545-1.684-3.383-1.976-4.668z"/>
  </g>
</svg>
