<svg xmlns="http://www.w3.org/2000/svg" viewBox="0 0 36 36">
  <path fill="#F7DECE" d="M1.789 15.856c1.478-2.63 3.772-4.847 6.111-5.917 3.657-1.673 5.169-7.582 6.211-9.05C15.558-1.148 18.484.724 18 3.754c-.522 3.265-1.943 4.053-2.804 6.021-.438 1.004-.297 1.713 1.556 1.847 1.854.134 6.996.634 7.249 1.647.616 2.464-7.787 8.445-.978 13.534 0 0 8.661 1.651 10.409 1.908 3.026.445 2.481 4.531-.675 4.196-2.972-.314-10.24-1.826-12.477-.436-1.796 1.116-8.495 2.609-14.445-.734-5.949-3.342-7.075-10.491-4.046-15.881z"/>
</svg>
