<svg xmlns="http://www.w3.org/2000/svg" viewBox="0 0 36 36">
  <path fill="#AF7E57" d="M15.087 24.856l-1.728-3.593c-.428.233-2.257 1.253-3.35 2.237-.635.572-.549 1.002-.36 1.944l.017.085c.189.952 2.205 7.351 2.47 8.187l1.345-.334c.011-.446-.04-2.803-.272-4.27-.073-.463-.147-1.025-.214-1.522-.071-.543-.263-1.087-.309-1.323-.064-.334.13-.493.433-.64.862-.417 1.715-.66 1.968-.771zm8.793 1.905c-.546-.067-1.107-.08-1.346-.095-.339-.021-.577-.253-.643-.584-.188-.939-.225-1.767-.268-2.039l-3.912.767c.118.473.644 2.5 1.322 3.806.393.757.831.782 1.79.838l.087.005c.975.057 7.669-.284 8.545-.329l.015-1.385c-.43-.124-2.59-.664-4.069-.808-.464-.045-1.025-.115-1.521-.176z"/>
</svg>
