<svg xmlns="http://www.w3.org/2000/svg" viewBox="0 0 36 36">
  <path fill="#CCD6DD" d="M11.144 33.103c-.054 0-.109-.023-.147-.067l-.247-.287c-.07-.081-.061-.204.02-.274.081-.07.205-.061.274.02l.247.287c.07.081.061.204-.02.274-.038.032-.083.047-.127.047zm-.575.425c-.063 0-.125-.031-.163-.088l-.218-.334c-.058-.09-.033-.21.057-.269.09-.058.209-.034.269.056l.218.334c.058.09.033.21-.057.269-.033.022-.069.032-.106.032zm-.617.337c-.07 0-.138-.039-.173-.106l-.165-.324c-.048-.095-.01-.212.085-.261.095-.049.211-.011.261.085l.165.324c.048.096.01.212-.085.261-.028.015-.059.021-.088.021zm4.369 1.108c.026-.014.125-.062.234-.17.036-.036.035-.095.026-.153-.01-.072-.078-.601-.184-.582 0 0-.154.04-.279-.003-.125-.043-.398-.021-.595.013-.197.035-.944.152-1.447.312-.503.16-1.379.571-1.684.664-.305.092-.784.217-1.156.249-.371.032-.705.05-.913.049-.269 0-.498-.036-.671-.103 0 0 .138.394.818.537.537.113 1.025.124 1.479.053.034-.005 1.237-.225 1.836-.337.439-.082 1.14-.21 1.14-.21.833-.146 1.25-.241 1.396-.319z"/>
</svg>
