<svg xmlns="http://www.w3.org/2000/svg" viewBox="0 0 36 36">
  <path fill="#55ACEE" d="M27 19c0 .553-.447 1-1 1h-3c-.553 0-1-.447-1-1v-3c0-.552.447-1 1-1h3c.553 0 1 .448 1 1v3zm7 0c0 .553-.447 1-1 1h-3c-.553 0-1-.447-1-1v-3c0-.552.447-1 1-1h3c.553 0 1 .448 1 1v3zm-21 0c0 .553-.448 1-1 1H9c-.552 0-1-.447-1-1v-3c0-.552.448-1 1-1h3c.552 0 1 .448 1 1v3zm7 0c0 .553-.447 1-1 1h-3c-.552 0-1-.447-1-1v-3c0-.552.448-1 1-1h3c.553 0 1 .448 1 1v3zM5 15H0v7h5c.552 0 1-.447 1-1v-5c0-.552-.448-1-1-1z"/>
</svg>
