<svg xmlns="http://www.w3.org/2000/svg" viewBox="0 0 36 36">
  <path fill="#99AAB5" d="M2.21 25.003c-1.402 1.401-.838 4.371 1.281 6.759 1.916 2.158 4.947 4.008 7.186 2.123.762-.633 1.163-1.607 1.147-2.735-.028-1.974-1.298-4.192-3.313-5.79-.324-.258-.788-.199-1.054.121-.257.325-.203.797.122 1.054 1.647 1.305 2.724 3.126 2.746 4.638.007.474-.095 1.13-.612 1.566-1.514 1.273-3.917-.641-5.099-1.971-1.676-1.888-2.053-3.994-1.343-4.704.184-.184.412-.231.695-.147.877.262 2 1.662 2.534 4.205.085.406.483.666.889.581.405-.086.665-.483.579-.889-.589-2.81-1.958-4.853-3.573-5.335-.813-.243-1.609-.051-2.185.524zM28.432 4.286c-.02.019-.038.038-.055.06-.261.322-.209.794.112 1.054.031.024 3.1 2.539 3.257 5.816.021.413.373.732.785.712.415-.021.733-.372.714-.785-.19-3.96-3.668-6.794-3.816-6.912-.301-.242-.731-.212-.997.055zM26.31 6.407c-.019.019-.037.038-.055.06-.26.322-.208.794.113 1.055.031.024 3.1 2.539 3.257 5.816.021.414.372.732.785.712.414-.021.732-.372.714-.785-.191-3.96-3.668-6.794-3.816-6.912-.301-.243-.731-.213-.998.054zm-8.486 8.486c-.018.019-.037.038-.054.059-.261.322-.209.794.112 1.055.031.024 3.1 2.539 3.257 5.816.021.413.372.733.785.712.414-.021.732-.372.714-.785-.191-3.959-3.668-6.794-3.816-6.912-.301-.242-.73-.213-.998.055zm-4.949 4.949c-.019.019-.038.039-.055.06-.26.322-.208.794.112 1.055.032.024 3.1 2.539 3.257 5.816.02.413.373.732.786.711.414-.02.732-.371.713-.785-.191-3.959-3.667-6.793-3.816-6.912-.3-.241-.73-.213-.997.055z"/>
</svg>
