<svg xmlns="http://www.w3.org/2000/svg" viewBox="0 0 36 36">
  <path fill="#31373D" d="M27.816 23.464c.299-1.148.465-2.318.465-3.464 0-4.161-2.122-6.779-5.258-8.035.417-1.008.665-2.108.665-3.2 0-1.581-.495-2.498-1.315-3.032 1.091-.482 2.517-1.5 3.027-2.011.781-.781.94-1.889.354-2.475-.586-.586-1.693-.428-2.475.354-.611.611-1.948 2.53-2.223 3.619C20.172 5.025 19.126 5 18 5c-1.125 0-2.172.025-3.055.219-.275-1.089-1.612-3.007-2.223-3.619-.781-.781-1.889-.94-2.475-.354-.585.587-.427 1.694.354 2.476.511.511 1.937 1.529 3.027 2.011-.821.533-1.316 1.451-1.316 3.032 0 1.093.248 2.192.665 3.2C9.841 13.221 7.719 15.839 7.719 20c0 1.146.167 2.317.465 3.464v.023l.006-.003c1.209 4.621 4.643 8.847 8.812 9.44L17 33c0 1.657.448 3 1 3 .553 0 1-1.343 1-3 0-.026-.002-.049-.003-.075 4.169-.593 7.604-4.819 8.813-9.44l.006.003v-.024z"/>
</svg>
