<svg xmlns="http://www.w3.org/2000/svg" viewBox="0 0 36 36">
  <g fill="#F4900C">
    <path d="M18.001 17.967c-.019.552.414 1.015.966 1.032l.034.001c.536 0 .98-.426.998-.967.201-6.065 5.758-8.816 6.35-9.092-.466-.525-.968-1.018-1.51-1.467-1.885 1.057-6.634 4.323-6.838 10.493zm5.018-2.163c-.108.542.243 1.068.784 1.177.067.013.132.019.198.019.467 0 .885-.329.98-.804.516-2.581 2.296-3.574 3.592-3.956-.305-.609-.645-1.202-1.028-1.768-1.877.691-3.908 2.246-4.526 5.332z"/>
    <path d="M13 20c0 .553.448 1 1 1s1-.447 1-1c0-8.97 5.841-12.544 8.266-13.641-.693-.419-1.424-.785-2.205-1.067C17.888 7.169 13 11.446 13 20z"/>
  </g>
</svg>
