<svg xmlns="http://www.w3.org/2000/svg" viewBox="0 0 36 36">
  <path fill="#E1E8ED" d="M22.235 35.662c-.418 0-.83-.123-1.182-.361l-2.96-2.007-2.959 2.007c-.354.238-.766.361-1.184.361-.183 0-.365-.023-.546-.072-.589-.156-1.084-.562-1.351-1.113l-1.721-2.393-3.405-.568c-.05.003-.101.005-.151.005-.558 0-1.096-.222-1.491-.617-.433-.435-.657-1.032-.614-1.642l.256-3.567-3.215-1.56c-.551-.266-.958-.762-1.116-1.353-.159-.591-.053-1.221.291-1.729l1.152-2.928-1.152-2.991c-.343-.507-.45-1.137-.291-1.729.159-.589.565-1.084 1.116-1.351l3.215-1.561-.254-3.564c-.043-.612.181-1.212.614-1.642.395-.397.933-.618 1.491-.618.05 0 .101 0 .151.004l3.28-.506 1.846-2.452c.267-.551.761-.958 1.351-1.116.181-.048.363-.073.546-.073.418 0 .83.125 1.184.363l2.959 2.005 2.96-2.005c.352-.239.764-.363 1.182-.363.183 0 .369.025.545.073.592.159 1.088.565 1.354 1.116L26 4.042l3.262.631c.048-.004.1-.004.149-.004.558 0 1.094.221 1.493.618.431.43.656 1.03.612 1.642l-.26 3.565 3.221 1.561c.551.267.957.761 1.113 1.351.158.592.055 1.223-.289 1.729l-.926 2.908.926 3.011c.344.508.447 1.138.289 1.729-.156.591-.562 1.087-1.113 1.353l-3.221 1.56.26 3.567c.044.609-.182 1.206-.612 1.642-.399.396-.935.617-1.493.617-.049 0-.101-.002-.149-.005l-3.22.526-1.908 2.435c-.266.551-.762.957-1.354 1.113-.176.049-.362.071-.545.071z"/>
</svg>
