<svg xmlns="http://www.w3.org/2000/svg" viewBox="0 0 36 36">
  <path fill="#D372B8" d="M18.5 28.709c-3.708.041-8.167-2.875-7.792-8.37.133-1.959.903-3.779 2.341-5.116 2.543-2.365 6.538-2.219 8.903.324.986 1.061 1.5 2.443 1.447 3.891-.052 1.447-.665 2.788-1.727 3.774-.918.853-2.104 1.302-3.365 1.253-1.253-.046-2.413-.577-3.266-1.495-.785-.844-1.059-2.045-.733-3.214.331-1.188 1.219-2.095 2.375-2.425.532-.151 1.123-.236 1.275.294.152.531-.38.757-1.083 1.25-.833.584-1.292 1.667-.368 2.733.471.544 1.155.831 1.874.857.716.024 1.405-.228 1.931-.719.669-.622 1.057-1.469 1.09-2.383.033-.914-.292-1.786-.914-2.456-1.615-1.736-4.34-1.836-6.077-.221-1.046.973-1.652 2.295-1.704 3.724-.052 1.429.455 2.791 1.428 3.838 1.202 1.293 2.835 2.04 4.6 2.104 1.764.07 3.447-.562 4.74-1.765 1.588-1.476 2.506-3.483 2.585-5.649.079-2.167-.691-4.234-2.167-5.822-3.725-4.008-8.601-4.952-13.643-1.91-.763.463-1.401 1.139-1.833.794-.208-.167-.314-.481.09-.857 4.815-4.478 12.376-4.201 16.851.614 1.84 1.979 2.919 4.562 2.7 7.257-.683 8.403-6.558 9.861-9.558 9.695z"/>
</svg>
