<svg xmlns="http://www.w3.org/2000/svg" viewBox="0 0 36 36">
  <path fill="#4289C1" d="M23.802 17.195c.193 1.421-.135 2.945-1.22 3.321-1.039.36-3.058.116-3.058.116s-.66.468-.426 1.231c.133.434.314.645.262.692-.046.042-.486.02-.684.027-.528.02-1.114-.114-2.108-.301s-1.44-.16-2.522-.359c-1.198-.22-2.051-.659-2.491-1.745-.375-.927.091-2.139 1.419-2.764 1.08-.508 4.289-.179 5.495-.168s5.166-1.285 5.333-.05z"/>
  <path fill="#4289C1" d="M6.77 28.689c-.656-.086-1.108-.395-1.51-.897 1.506-2.038 3.136-7.609 3.136-7.609.541-1.798 1.36-3.044 2.992-3.124 2.316-.113 5.772.032 5.772.032 2.296.13.738.727 1.448 1.573.712.845-1.115 2.095-2.611 2.126-2.607.054-3.902-.113-5.428 1.324-.596 2.367-1.706 4.252-2.275 6.63-.48.122-.868.031-1.524-.055z"/>
</svg>
