<svg xmlns="http://www.w3.org/2000/svg" viewBox="0 0 36 36">
  <path fill="#99AAB5" d="M3.852 31.3s-.924 1.07-1.994.146c-1.07-.924-.852 2.068-.852 2.068s3.137 1.776 5.132 1.631c1.995-.146.925-1.07-.146-1.995l-2.14-1.85z"/>
  <path fill="#99AAB5" d="M7.125 7.906c1.472-.243 3.645.766 4.065 1.591.978 1.92-.577 3.13-1.089 3.742-.535.64-2.895 2.102-3.152 3.841-.169 1.148.145 1.123.906 1.667.761.543 3.413 1.863 3.812 2.733.398.869.268 1.457-.167 2.146s-1.574 3.876-1.502 4.709c0 0-.978.833-1.884.073 0 0 .208-2.345.389-3.359.181-1.014.699-2.157.699-2.157l-2.796-.828s.507 1.394.471 2.046-.874 1.908-1.232 2.355c-.58.725-1.774 3.331-1.793 4.836 0 0-.89 1.214-1.994.146 0 0 .311-2.655.456-3.633.145-.978.94-2.906 1.193-3.377.254-.471-.374-.881-.664-1.497S.825 19.981.825 18.676c0-1.304.304-2.323 1.031-3.232.986-1.231 1.659-4.312 1.903-5.102.473-1.523 1.609-2.146 3.366-2.436z"/>
</svg>
