<svg xmlns="http://www.w3.org/2000/svg" viewBox="0 0 36 36">
  <path fill="#FFDC5D" d="M26.995 5.054l1.014 2.162-2.562 1.035-1.057-1.77z"/>
  <path fill="#FFDC5D" d="M27.474 4.856c-.178 1.588-1.526 2.277-2.88 2.804-1.291.502-2.363-1.756-2.536-3.333-.175-1.588 1.681-2.8 3.124-2.638s2.47 1.579 2.292 3.167zm-4.896 8.825c-1.312.875-2.89 2.257-3.703 2.382-.988.152-1.688-.938-2.59.366-.569.822.34 1.696 2.215 1.696 1.079 0 4.091-1.626 5.25-2.438 1.25-.875 1.528-1.867 1.982-3.061.143-.377.536.645 1.455.98 1.666.606 2.376 1.456 2.938 2.331 2.688-1.438 3.982-2.766 3.982-2.766-2.056-1.83-2.012-3.902-3.607-5.109-2.521-1.908-3.59-.753-5.382.134-1.267.628-1.79 2.61-2.54 5.485z"/>
</svg>
