<svg xmlns="http://www.w3.org/2000/svg" viewBox="0 0 36 36">
  <path fill="#FA743E" d="M30.062 16.188c2.688-1.438 4.754-2.821 4.754-2.821-2.557-1.915-2.721-4.098-4.316-5.304-.354-.267-.676-.469-.978-.625.125.229.106.47-.334.625-.952.336-2.056-.277-3.219-.318-.205.112-.416.228-.637.343.978.12 2.082 1.323 2.293 2.538.214 1.229-.213 2.361-.731 2.861.074.049.144.108.231.139 1.666.605 2.519 1.458 2.937 2.562zm-3.134 15.585s.705 1.226 1.931.52c1.226-.705.445 2.191.445 2.191s-3.417 1.151-5.348.63-.705-1.226.521-1.931l2.451-1.41z"/>
</svg>
