<svg xmlns="http://www.w3.org/2000/svg" viewBox="0 0 36 36">
  <path fill="#292F33" d="M26.761 11.262C25.305 9.507 23.165 8.5 20.89 8.5H9.11c-2.275 0-4.415 1.007-5.871 2.762-1.392 1.678-1.942 3.752-1.549 5.842C2.431 21.049 5.232 23.5 9 23.5c1.314 0 2.424-1.723 3.316-3.108.221-.344.428-.663.622-.938.475-.667 1.245-1.065 2.062-1.065s1.587.398 2.062 1.067c.194.272.401.593.622.935.892 1.385 2.002 3.109 3.316 3.109 3.769 0 6.569-2.45 7.31-6.396.393-2.089-.158-4.164-1.549-5.842zm.566 5.658c-.646 3.442-3.07 5.58-6.327 5.58-.769 0-1.837-1.659-2.476-2.651-.23-.356-.445-.688-.647-.972-.662-.931-1.737-1.487-2.877-1.487-1.14 0-2.215.555-2.877 1.486-.203.287-.417.618-.648.976-.639.99-1.706 2.648-2.475 2.648-3.256 0-5.681-2.139-6.328-5.581-.336-1.792.138-3.574 1.336-5.019 1.266-1.525 3.125-2.4 5.102-2.4h11.78c1.977 0 3.836.875 5.102 2.4 1.197 1.445 1.672 3.228 1.335 5.02z"/>
</svg>
