<svg xmlns="http://www.w3.org/2000/svg" viewBox="0 0 36 36">
  <path fill="#E6E7E8" d="M26.424 17.846c.193-.092.348-.224.449-.399.414-.717-.219-1.859-1.415-2.549s-2.501-.668-2.915.049c-.414.717.219 1.859 1.415 2.549.519.299 1.054.457 1.532.489-.292.524-.49 1.473-.49 2.569 0 1.063.185 1.991.463 2.524-.409-.016-.953.396-1.291.764-.709-.739-1.841-1.549-3.12-1.802-2.052-.406-2.901.386-3.088.933-.182-.547-1.029-1.348-3.09-.94-1.259.249-2.374 1.038-3.085 1.767-.339-.357-.86-.737-1.253-.722.279-.533.464-1.462.464-2.524 0-1.101-.2-2.054-.495-2.575.566.064 1.274-.09 1.953-.482 1.196-.69 1.829-1.832 1.415-2.549-.414-.717-1.719-.739-2.915-.049s-1.829 1.832-1.415 2.549c.05.087.115.163.189.229-.421.352-.732 1.5-.732 2.877 0 1.657.448 3 1 3 .02 0 .039-.014.059-.018-.037.136-.059.302-.059.511 0 1.823.667 1.823.667 1.823-.667 1.823.667 3.66.667 3.66 0 2.735 2 2.735 2 2.735C13.333 35 16 34.089 16 34.089 16.667 35 18 35 18 35s1.333 0 2-.911c0 0 2.667.911 2.667-1.823 0 0 2 0 2-2.735 0 0 1.333-1.837.667-3.66 0 0 .667 0 .667-1.823 0-.21-.022-.376-.059-.512.02.004.039.018.059.018.552 0 1-1.343 1-3-.001-1.2-.237-2.228-.577-2.708zm-5.757 8.024C18.781 24.582 18 24.959 18 24.959s-.781-.377-2.667.911c-1.013.692-2.024-.192-2.745-1.057.748-.275 1.684-.622 2.675-.818 1.831.03 2.534-.225 2.701-.599.167.364.875.598 2.7.606 1.013.2 1.97.56 2.726.837-.719.856-1.721 1.717-2.723 1.031z"/>
</svg>
