<svg xmlns="http://www.w3.org/2000/svg" viewBox="0 0 36 36">
  <path fill="#FFAC33" d="M20.731 32.36c-.119 0-.237-.036-.339-.109L18 30.535l-2.393 1.716c-.204.146-.477.146-.68-.002-.203-.147-.288-.407-.212-.645l.892-2.88-2.371-1.671c-.202-.149-.285-.41-.208-.648.078-.238.299-.399.549-.401L16.514 26l.935-2.809c.079-.238.301-.398.551-.398.25 0 .472.16.551.398L19.47 26l2.952.004c.251.002.472.163.549.401.077.238-.006.499-.208.648l-2.371 1.671.892 2.88c.076.238-.01.498-.212.645-.101.074-.221.111-.341.111z"/>
</svg>
