<svg xmlns="http://www.w3.org/2000/svg" viewBox="0 0 36 36">
  <g fill="#99AAB5">
    <path d="M3.016 5.201c-.062 0-.116-.043-.128-.105-.105-.555-.092-1.586.168-1.875.047-.053.129-.058.184-.01.053.048.058.13.01.184-.159.176-.216 1.072-.106 1.652.013.071-.033.139-.104.152-.008.002-.016.002-.024.002zm.517.9c-.057 0-.109-.038-.125-.096-.203-.74-.075-1.858-.008-2.097.019-.068.093-.107.16-.09.069.019.109.091.09.16-.069.246-.172 1.299.008 1.959.019.069-.022.141-.091.16-.011.003-.023.004-.034.004z"/>
    <path d="M4.17 7.035c-.054 0-.105-.035-.123-.089-.45-1.338-.336-2.578-.331-2.63.007-.07.066-.121.142-.116.071.007.124.07.117.142-.001.012-.113 1.238.318 2.521.023.068-.014.142-.082.165-.013.005-.027.007-.041.007zm.87.931c-.05 0-.098-.029-.12-.079-.779-1.808-.767-3.11-.766-3.164.001-.071.059-.128.13-.128h.002c.072.001.129.06.128.132 0 .013-.011 1.305.745 3.059.028.066-.002.142-.068.171-.017.006-.034.009-.051.009z"/>
  </g>
</svg>
