<svg xmlns="http://www.w3.org/2000/svg" viewBox="0 0 36 36">
  <path fill="#292F33" d="M7.584 2.037c.616.048.535.642.059.553-.475-.088-.812-.611-.059-.553zm25.477 25.458c1.51-.349 2.406 3.478 1.786 5.029-.63 1.575-2.047 1.961-3.222 2.137-.587.088-1.068.122-1.475-.043-.397-.161-.362-.509.09-.589.384-.067 1.006-.244 1.309-.356.35-.13.523-.437.523-.437s-1.84.665-3.083.379c-1.278-.293-.694-.811.417-.884.802-.053 1.698-.253 2.426-.845 0 0-.93.38-1.975.493-1.045.113-2.13.04-1.423-.662.144-.143 1.235-.286 1.906-.485.797-.238 1.448-.623 1.448-.623s-1.43.331-2.018.311c-.697-.023-.758-.423-.502-.552.531-.267 1.41-.367 1.929-.558.957-.352.348-1.965 1.864-2.315z"/>
</svg>
