<svg xmlns="http://www.w3.org/2000/svg" viewBox="0 0 36 36">
  <path d="M5.216 4.637c-.06 0-.113-.041-.127-.102-.213-.949-.958-1.66-.965-1.667-.052-.049-.055-.131-.005-.183s.131-.055.183-.006c.033.031.81.771 1.041 1.8.016.07-.028.14-.099.155-.009.002-.018.003-.028.003zm1.249.775c-.056 0-.107-.036-.124-.091-.377-1.214-1.404-2.154-1.415-2.164-.053-.048-.057-.13-.009-.184.049-.053.131-.056.184-.009.044.041 1.09.997 1.488 2.279.021.068-.017.142-.085.163-.013.004-.026.006-.039.006zm1.057.724c-.054 0-.104-.034-.123-.087-.524-1.521-1.584-2.511-1.595-2.521-.053-.049-.055-.131-.007-.184.05-.053.131-.056.184-.008.045.042 1.118 1.042 1.665 2.627.023.068-.013.142-.081.166-.014.005-.028.007-.043.007zm1.194 1.34c-.057 0-.109-.038-.125-.095-.521-1.892-1.608-3.114-1.62-3.126-.048-.053-.044-.135.01-.184.053-.048.134-.044.184.01.045.05 1.138 1.276 1.677 3.231.019.069-.021.141-.091.16-.012.003-.023.004-.035.004z" fill="#CCD6DD"/>
</svg>
