<svg xmlns="http://www.w3.org/2000/svg" viewBox="0 0 36 36">
  <path fill="#66757F" d="M2.85 1.802c.708-.674 1.726-.02 2.38.023.939.062 1.79-.263 3.018-.116s3.479.487 4.434 2.202c.787 1.415 1.852 3.802 2.682 4.979 1.019 1.445 2.753 3.657 3.875 4.803 1.206 1.232 4.908 2.917 6.094 3.118 2.351.399 6.989 1.903 8.042 5.612s1.328 5.824.563 6.513c-.765.689-1.571-.297-2.595-1.585-1.025-1.288-4.498-1.939-7.478-1.897s-8.146 1.437-11.177-.752c-3.034-2.19-4.614-6.029-5.104-9.706s-.205-4.92-.574-6.185C6.6 7.406 5.704 5.782 4.375 5.133S2.131 2.486 2.85 1.802z"/>
</svg>
