<svg xmlns="http://www.w3.org/2000/svg" viewBox="0 0 36 36">
  <path fill="#99AAB5" d="M2.85 1.802c.708-.674 1.726-.02 2.38.023.939.062 1.79-.263 3.018-.116s3.479.487 4.434 2.202c.787 1.415 1.852 3.802 2.682 4.979 1.019 1.445 2.753 3.657 3.875 4.803 1.206 1.232 4.908 2.917 6.094 3.118 2.351.399 6.989 1.903 8.042 5.612s1.328 5.824.563 6.513c-.765.689-1.158-.539-2.183-1.827-1.025-1.288-4.751-2.343-7.73-2.301s-8.188 1.199-11.22-.989c-3.034-2.19-4.73-5.144-5.22-8.821s-.205-4.92-.574-6.185c-.41-1.405-1.306-3.029-2.635-3.678S2.131 2.486 2.85 1.802z"/>
</svg>
