<svg xmlns="http://www.w3.org/2000/svg" viewBox="0 0 36 36">
  <path fill="#9D0522" d="M35.452 20.607c-1.341.693-17.35 9.168-19.132 10.044-2.822 1.387-5.22.05-6.416-1.769-.617-.938-.406-1.219 0-1.312s1.424-.277 1.688.25c.438.875 2.531 2.031 3.625 1.531s17.938-9.531 18.563-9.812.906-.281 1.375 0 1.314.542.297 1.068z"/>
  <path fill="#9D0522" d="M19.167 28.271c-.058 0-.117-.01-.174-.031-.259-.097-.391-.384-.295-.643l2.479-6.666c.062-.166.206-.286.379-.318.18-.029.352.031.467.164l3.334 3.833c.182.208.159.524-.049.705-.209.183-.523.158-.705-.049l-2.782-3.198-2.185 5.877c-.075.201-.266.326-.469.326zm-9.289-4.909c-.058 0-.117-.01-.174-.031-.259-.097-.391-.384-.294-.643l2.479-6.667c.062-.166.206-.286.379-.317.173-.036.35.03.467.164l3.333 3.833c.181.208.159.524-.049.705-.208.182-.523.159-.706-.049l-2.781-3.198-2.186 5.876c-.075.203-.265.327-.468.327zm18.605 0c-.058 0-.117-.01-.174-.031-.26-.097-.391-.384-.295-.643l2.479-6.667c.062-.166.206-.286.379-.317.179-.034.352.031.467.164l3.333 3.833c.182.208.159.524-.049.705-.208.183-.523.158-.705-.049l-2.781-3.198-2.186 5.876c-.074.203-.264.327-.468.327z"/>
</svg>
