<svg xmlns="http://www.w3.org/2000/svg" viewBox="0 0 36 36">
  <path fill="#BF6952" d="M12.532 17.375c-.179 0-.352-.096-.442-.265-.13-.244-.037-.547.207-.676L24.609 9.89c.242-.13.547-.038.676.207.13.244.037.547-.207.676l-12.312 6.544c-.075.039-.155.058-.234.058zm6.714 3.45c-.179 0-.352-.097-.441-.266-.13-.243-.037-.546.207-.676l12.312-6.544c.241-.131.546-.037.676.207s.037.547-.207.676L19.48 20.767c-.074.04-.154.058-.234.058zm-2.171-1.133c-.179 0-.352-.097-.442-.266-.13-.243-.037-.546.207-.676l12.313-6.544c.241-.131.546-.037.676.207s.037.547-.207.676L17.31 19.634c-.076.04-.156.058-.235.058zM14.84 18.56c-.179 0-.352-.096-.442-.265-.13-.244-.037-.547.207-.676l12.313-6.544c.242-.13.546-.038.676.207s.037.547-.207.676l-12.312 6.544c-.075.039-.156.058-.235.058z"/>
</svg>
