<svg xmlns="http://www.w3.org/2000/svg" viewBox="0 0 36 36">
  <path fill="#AF7E57" d="M21.001 1.418c-1.616-.481-3.893.53-4.11 2.372-.303 2.57 1.323 4.585 2.901 4.276 1.654-.324 2.648-.782 3.177-2.559.528-1.777-.353-3.608-1.968-4.089z"/>
  <path fill="#AF7E57" d="M22.562 5.988c2.045-2.867-3.411-2.136-3.411-2.136-1.034.127-.172 1.793-.579 2.778-.279.682 1.16.907 1.16.907s.646-.065.748.716v.007c.025.199.024.438-.042.763-.329 1.61 1.862 2.392 2.19.779.13-.638.012-1.18-.124-1.677l-.012-.045c-.205-.74-.436-1.383.07-2.092z"/>
</svg>
