<svg xmlns="http://www.w3.org/2000/svg" viewBox="0 0 36 36">
  <path fill="#F18F26" d="M18.022 17.154c-.276 0-.5-.224-.5-.5V8.37c0-.276.224-.5.5-.5s.5.224.5.5v8.284c0 .277-.223.5-.5.5zM21 15.572c-.276 0-.5-.224-.5-.5 0-2.882 1.232-5.21 1.285-5.308.13-.244.435-.334.677-.204.243.13.334.433.204.677-.012.021-1.166 2.213-1.166 4.835 0 .276-.224.5-.5.5zm-6 0c-.276 0-.5-.224-.5-.5 0-2.623-1.155-4.814-1.167-4.835-.13-.244-.038-.546.205-.677.242-.131.545-.039.676.204.053.098 1.285 2.426 1.285 5.308.001.276-.223.5-.499.5z"/>
</svg>
