<svg xmlns="http://www.w3.org/2000/svg" viewBox="0 0 36 36" xml:space="preserve">
  <path fill="#8899A6" d="M33.142 8.515 20.838 20.819a11.353 11.353 0 0 1-3.571 2.418l-2.931 1.256-4.869 4.869a1.518 1.518 0 0 1-2.146 0l-.683-.682a1.518 1.518 0 0 1 0-2.146l4.869-4.869 1.256-2.931a11.341 11.341 0 0 1 2.418-3.571L27.485 2.858a.5.5 0 0 1 .707.707L15.888 15.869c-.94.94-1.683 2.037-2.206 3.258l-.703 1.641a1.716 1.716 0 0 0 2.253 2.253l1.641-.703a10.368 10.368 0 0 0 3.258-2.206L32.435 7.808a.5.5 0 0 1 .707.707zM4.716 31.708l-.424-.424a.497.497 0 0 0-.526-.116l-2.687.99a.497.497 0 0 0-.181.116l-.637.636a.5.5 0 0 0 0 .708l2.122 2.122a.5.5 0 0 0 .708 0l.636-.637a.502.502 0 0 0 .116-.181l.99-2.687a.504.504 0 0 0-.117-.527z"/>
</svg>
