<svg xmlns="http://www.w3.org/2000/svg" viewBox="0 0 36 36" xml:space="preserve">
  <path fill="#FFAC33" d="M18.881 12.876c.223.519.685.94 1.213 1.106.354.111.783.325 1.191.733s.622.837.733 1.191c.166.528.586.99 1.106 1.213l-1.178 1.178a2.013 2.013 0 0 0-1.213-1.106 2.911 2.911 0 0 1-1.191-.733 2.911 2.911 0 0 1-.733-1.191 2.01 2.01 0 0 0-1.106-1.213l1.178-1.178zm15.444-2.702a1.48 1.48 0 0 1-.474-.078 8.388 8.388 0 0 1-3.268-2.02l-2.66-2.66a8.411 8.411 0 0 1-2.02-3.268 1.5 1.5 0 1 1 2.846-.948c.262.785.71 1.51 1.295 2.095l2.66 2.66a5.394 5.394 0 0 0 2.095 1.295 1.5 1.5 0 0 1-.474 2.924z"/>
</svg>
