<svg xmlns="http://www.w3.org/2000/svg" viewBox="0 0 36 36">
  <path fill="#292F33" d="M27.409 1.948C26.777.671 25.632-.212 23.332.206c-.937.17-1.279-.066-1.441.071-.778.661-.222 1.753.13 1.652 1.114-.321 1.948.069 2.068.535.12.466-.272 1.15-.092 1.2.486.137.528-.363.791-.59.431-.371.85.006.829.535-.017.42-.272 1.075-.953 1.03.196 1.086.998 1.604.998 1.604s.256.184.986-.652c.729-.836 1.389-2.375.761-3.643zM8.22 28.583s.108-.118.211-.409c.104-.291.147-.888.133-.98-.014-.092-.039-.164-.148-.171-.083-.006-.768.08-1.145-.039-.699-.22-.812-.957-.812-.957s-.46.083-.829.152c-.368.069-.818.209-1.134.274-.271.056-.548.03-.823-.03-.275-.06-.485-.147-.55-.165-.066-.017-.575-.27-.782.25l-.051.154s.811.718 2.114 1.182c1.303.464 1.639.152 2.481.452.843.3 1.335.287 1.335.287z"/>
  <path fill="#292F33" d="M6.243 28.821c-.038-.07-.043-.253-.083-.292-.04-.039-.577-.11-.83-.137-.253-.027-.687-.076-1.158-.244-.471-.168-1.032-.523-1.375-.752-.343-.228-.594-.46-.646-.526s-.026-.078-.011-.107.119-.176.119-.176.196.213.569.459.754.467 1.458.717c.703.25 1.182.303 1.583.335.499.039 1.207.141 1.681.309.365.13.66.114.768.123.025.002.04.027.032.051l-.222.623c-.014.041-.081.121-.196.105s-1.651-.419-1.689-.488z"/>
</svg>
