<svg xmlns="http://www.w3.org/2000/svg" viewBox="0 0 36 36">
  <path fill="#2CB4CD" d="M20.716 11.182c-.994-1.383-1.654-5.509-1.654-5.509-.155-2.715-2.494-5.572-5.571-5.572-1.173 0-2.26.365-3.159.985-.182-.027-.365-.056-.555-.056-2.051 0-3.714 1.663-3.714 3.714 0 0-.73 2.881-1.521 3.797.377-.223.706-.465.997-.724-.259 1.306-.788 3.586-1.478 4.547.765-.55 1.41-1.136 1.859-1.795-.021.647-.399 1.267-.837 3.348-.458 2.177.364 2.197 1.385 2.646 1.795.789 12.847 1.296 13.281-.969.513-2.675.068-4.112-.425-5.624.391.429.86.83 1.392 1.212z"/>
</svg>
