<svg xmlns="http://www.w3.org/2000/svg" viewBox="0 0 36 36">
  <path fill="#66757F" d="M2.984 12.86c-.677.423-.677 1.777-1.015 1.777S.954 13.841.954 12.86c-.001-.981 2.862-.52 2.03 0zm3.594 1.483c-.041.026-.09.036-.142.026-.018-.004-1.548-.241-2.545.146-.129.05-.341-.023-.413-.191s.023-.365.152-.415c1.44-.569 2.857-.234 2.934-.218.139.029.195.19.188.372-.004.114-.104.235-.174.28zm-.472 2.339c-.048.009-.097-.001-.141-.031-.015-.01-1.331-.83-2.402-.853-.138-.003-.305-.154-.305-.341 0-.186.165-.335.304-.333 1.552.024 2.724.891 2.789.937.117.082.104.255.027.424-.049.107-.189.182-.272.197z"/>
</svg>
