<svg xmlns="http://www.w3.org/2000/svg" viewBox="0 0 36 36">
  <path fill="#D1D3D4" d="M23.901 9.251c.65-.086 1.299-.145 1.945-.145.192 0 .36-.086.48-.217-.097-.374-.232-.732-.401-1.075-.027-.004-.051-.016-.079-.016-2.677 0-5.386.671-8.054 1.991l.208-.06s.771.201 1.829.587c.615-.245 1.232-.44 1.848-.612.014.006.024.017.039.022 1.573.524 3.292 1.564 4.603 2.761.079-.548.133-1.101.159-1.586-.797-.636-1.679-1.191-2.577-1.65zM9.61 11.973c1.895-1.354 8.186-5.421 15.433-5.477-.41-.473-.89-.894-1.426-1.253-6.334.471-11.749 3.626-14.113 5.215.01.43.044.957.106 1.515zm.067-3.093c2.339-1.498 6.791-3.734 11.74-4.596C20.666 4.062 19.873 4 19.062 4h-1.667c-2.572 1-4.866 1.815-6.632 2.788-.505.641-.882 1.304-1.086 2.092z"/>
</svg>
