<svg xmlns="http://www.w3.org/2000/svg" viewBox="0 0 36 36">
  <path fill="#C1694F" d="M12 4c0 1.104-.896 2-2 2s-2-.896-2-2 .896-2 2-2 2 .896 2 2M6 32c0 1.104-.896 2-2 2s-2-.896-2-2 .896-2 2-2 2 .896 2 2m24-17c0 .552-.447 1-1 1H11c-.552 0-1-.448-1-1s.448-1 1-1h18c.553 0 1 .448 1 1m0 4c0 .553-.447 1-1 1H11c-.552 0-1-.447-1-1s.448-1 1-1h18c.553 0 1 .447 1 1m0 4c0 .553-.447 1-1 1H11c-.552 0-1-.447-1-1s.448-1 1-1h18c.553 0 1 .447 1 1m0 4c0 .553-.447 1-1 1H11c-.552 0-1-.447-1-1 0-.553.448-1 1-1h18c.553 0 1 .447 1 1"/>
</svg>
