<svg xmlns="http://www.w3.org/2000/svg" viewBox="0 0 36 36" xml:space="preserve">
  <path fill="#AEB3B2" d="M34.5 32.423a.5.5 0 0 1-.5-.5V29.5a.5.5 0 0 1 1 0v2.423a.5.5 0 0 1-.5.5zM26 35.236V32.5a.5.5 0 0 0-1 0v2.736a.5.5 0 0 0 1 0zm-6-1.892V28.5a.5.5 0 0 0-1 0v4.844a.5.5 0 0 0 1 0zM17.488.991a.497.497 0 0 0-.608-.36A2.498 2.498 0 0 0 15 3.052v4.382l-.914 3.427-7.906 2.635.801-2.862L7 6.052c0-.686.464-1.283 1.128-1.453.268-.068.429-.341.36-.608s-.337-.43-.608-.361A2.5 2.5 0 0 0 6 6.052v4.379L1.259 27.365a.5.5 0 0 0 .962.27l.468-1.671 8.088-2.696-.294 1.103a.5.5 0 0 0 .967.258l4.533-17L16 3.052c0-.686.464-1.283 1.128-1.453a.499.499 0 0 0 .36-.608zm-3.71 11.027-.692 2.594-7.961 2.654.73-2.606 7.923-2.642zm-1.692 6.343L4.07 21.033l.73-2.606 7.978-2.659-.692 2.593zm-9.071 6.441.73-2.606 8.033-2.678-.692 2.594-8.071 2.69z"/>
</svg>
