<svg xmlns="http://www.w3.org/2000/svg" viewBox="0 0 36 36">
  <path d="M17.463 14.416l-1.61-.942c-.296-.173-.296-.454 0-.628l1.61-.942c.296-.173.777-.173 1.074 0l1.61.942c.296.173.296.454 0 .628l-1.61.942c-.297.174-.778.174-1.074 0zm3.757 2.197l-1.61-.942c-.296-.173-.296-.454 0-.628l1.61-.942c.296-.173.777-.173 1.074 0l1.61.942c.296.173.296.454 0 .628l-1.61.942c-.297.174-.777.174-1.074 0zm3.757 2.197l-1.61-.942c-.296-.173-.296-.454 0-.628l1.61-.942c.296-.173.777-.173 1.074 0l1.61.942c.296.173.296.454 0 .628l-1.61.942c-.297.174-.777.174-1.074 0zm3.758 2.198l-1.61-.942c-.296-.173-.296-.454 0-.628l1.61-.942c.296-.173.777-.173 1.074 0l1.61.942c.296.173.296.454 0 .628l-1.61.942c-.297.173-.778.173-1.074 0zm-15.03-4.395l-1.61-.942c-.296-.173-.296-.454 0-.628l1.61-.942c.296-.173.777-.173 1.074 0l1.61.942c.296.173.296.454 0 .628l-1.61.942c-.297.174-.777.174-1.074 0zm3.758 2.197l-1.61-.942c-.296-.173-.296-.454 0-.628l1.61-.942c.296-.173.777-.173 1.074 0l1.61.942c.296.173.296.454 0 .628l-1.61.942c-.297.174-.778.174-1.074 0zm3.757 2.198l-1.61-.942c-.296-.173-.296-.454 0-.628l1.61-.942c.296-.173.777-.173 1.074 0l1.61.942c.296.173.296.454 0 .628l-1.61.942c-.297.173-.777.173-1.074 0zm3.757 2.197l-1.61-.942c-.296-.173-.296-.454 0-.628l1.61-.942c.296-.173.777-.173 1.074 0l1.61.942c.296.173.296.454 0 .628l-1.61.942c-.297.173-.777.173-1.074 0zM9.948 18.81l-1.61-.942c-.296-.173-.296-.454 0-.628l1.61-.942c.296-.173.777-.173 1.074 0l1.61.942c.296.173.296.454 0 .628l-1.61.942c-.297.174-.778.174-1.074 0zm3.757 2.198l-1.61-.942c-.296-.173-.296-.454 0-.628l1.61-.942c.296-.173.777-.173 1.074 0l1.61.942c.296.173.296.454 0 .628l-1.61.942c-.297.173-.777.173-1.074 0zm3.758 2.197l-1.61-.942c-.296-.173-.296-.454 0-.628l1.61-.942c.296-.173.777-.173 1.074 0l1.61.942c.296.173.296.454 0 .628l-1.61.942c-.297.173-.778.173-1.074 0zm3.757 2.197l-1.61-.942c-.296-.173-.296-.454 0-.628l1.61-.942c.296-.173.777-.173 1.074 0l1.61.942c.296.173.296.454 0 .628l-1.61.942c-.297.173-.777.173-1.074 0zM6.191 21.008l-1.61-.942c-.296-.173-.296-.454 0-.628l1.61-.942c.296-.173.777-.173 1.074 0l1.61.942c.296.173.296.454 0 .628l-1.61.942c-.297.173-.778.173-1.074 0zm3.757 2.197l-1.61-.942c-.296-.173-.296-.454 0-.628l1.61-.942c.296-.173.777-.173 1.074 0l1.61.942c.296.173.296.454 0 .628l-1.61.942c-.297.173-.778.173-1.074 0zm3.757 2.197l-1.61-.942c-.296-.173-.296-.454 0-.628l1.61-.942c.296-.173.777-.173 1.074 0l1.61.942c.296.173.296.454 0 .628l-1.61.942c-.297.173-.777.173-1.074 0zm3.758 2.197l-1.61-.942c-.296-.173-.296-.454 0-.628l1.61-.942c.296-.173.777-.173 1.074 0l1.61.942c.296.173.296.454 0 .628l-1.61.942c-.297.173-.778.173-1.074 0z" fill="#F4900C"/>
</svg>
