<svg xmlns="http://www.w3.org/2000/svg" viewBox="0 0 36 36">
  <path fill="#D3790D" d="M15.72 16.354c-3.406-1.039-4.841-.515-4.618 2.165.058.693-.895 1.847-1.847 2.511-2.215 1.544-1.263 4.124 2.54 2.222 1.905-.952 4.682-.887 8.052.144 2.828.866 4.589 2.05 4.82 3.32 1.122-.367 1.732-.847 2.28-1.309-.233-.526-1.27-2.04-2.915-2.761-3.112-1.365-.106-3.331 2.222-3.81 2.107-.433.029-2.02-3.175-1.963-3.202.058-2.397.995-7.359-.519z"/>
  <path opacity=".5" fill="#D3790D" d="M24.668 26.542c0 .456.058.468.058 1.387 0 1.789 2.194 1.472 2.194-1.501 0-.346.029-1.021.029-1.021l-2.281 1.135z"/>
</svg>
