<svg xmlns="http://www.w3.org/2000/svg" viewBox="0 0 36 36">
  <path fill="#60352A" d="M8.942 14.044c.233-.338.379-.775.379-1.259 0-1.061-.679-1.922-1.516-1.922s-1.516.86-1.516 1.922c0 .878.467 1.61 1.101 1.84-.234.732-2.749 7.872-1.507 10.395s10.546 1.451 11.242.314c-.534-2.03-7.658-8.056-8.183-11.29zm18.114 0c-.233-.338-.379-.775-.379-1.259 0-1.061.679-1.922 1.516-1.922s1.516.86 1.516 1.922c0 .878-.467 1.61-1.101 1.84.234.732 2.749 7.872 1.507 10.395s-10.546 1.451-11.242.314c.534-2.03 7.658-8.056 8.183-11.29z"/>
</svg>
