<svg xmlns="http://www.w3.org/2000/svg" viewBox="0 0 36 36">
  <path fill="#FFF100" d="M26.072 24.312l.157.386 2.067-3.741 2.005 3.71.163-.412-2.125-4.063zm4.47-3.736c.333.549.942.386 1.204 1.312.262.927.123 1.931-.151 1.137s-.354-1.24-1.131-1.445c-.776-.205.078-1.004.078-1.004zm-4.976 4.797l-.194 1.158L26.416 26zm5.535.184l-.984.457 1.079.648z"/>
  <path fill="#FFF100" d="M29.251 23.813c0 .103-.084.187-.186.187h-1.456c-.103 0-.187-.084-.187-.187s.084-.186.187-.186h1.456c.102 0 .186.084.186.186z"/>
  <path fill="#FFF100" d="M28.428 25.738c0 .144-.038.262-.084.262h-.154c-.046 0-.084-.117-.084-.262v-2.477c0-.144.038-.262.084-.262h.154c.046 0 .084.117.084.262v2.477z"/>
  <path fill="#FFF100" d="M27.049 24.83l.584.61-.102.125.659.435.901-.434-.192-.121.653-.492-.094.832-.239-.069-.943.796-.991-.841-.189.02z"/>
</svg>
