<svg xmlns="http://www.w3.org/2000/svg" viewBox="0 0 36 36">
  <path fill="#FFF100" d="M24.926 16.122c.104.256-.018.547-.274.652l-.926.378c-.256.105-.548-.018-.652-.273-.104-.256.018-.547.274-.652l.926-.379c.255-.105.547.018.652.274zm7.972 2.816c-.15.232-.419.324-.6.207l-1.31-.85c-.181-.117-.206-.399-.056-.631.15-.232.419-.325.601-.208l1.31.85c.18.118.206.4.055.632z"/>
  <path fill="#FFF100" d="M33.068 18.63c.074.266-.081.542-.347.616-.267.074-.542-.081-.616-.347l-.537-1.927c-.074-.266.081-.542.347-.616.267-.074.542.081.616.347l.537 1.927z"/>
  <path fill="#FFF100" d="M33.479 18.852c0 .277-.224.5-.5.5s-.5-.223-.5-.5c0-.276.224-.5.5-.5s.5.224.5.5z"/>
</svg>
