<svg xmlns="http://www.w3.org/2000/svg" viewBox="0 0 36 36">
  <path fill="#009A67" d="M25 18.625c0 .207-.224.375-.5.375s-.5-.167-.5-.375v-2.25c0-.208.224-.375.5-.375s.5.167.5.375v2.25z"/>
  <path fill="#009A67" d="M25.719 17.587c.166.221.167.499.003.622l-1.185.889c-.163.123-.431.043-.597-.178-.166-.222-.167-.5-.003-.623l1.185-.889c.163-.122.431-.043.597.179z"/>
  <path fill="#009A67" d="M24.535 18.615c0 .272-.239.493-.535.493s-.536-.221-.536-.493.24-.493.536-.493.535.221.535.493zm9.311-1.614c-.109.258-.657.271-1.225.029-.566-.242-.937-.646-.826-.904.109-.258.657-.271 1.225-.029.566.241.936.646.826.904z"/>
</svg>
