<svg xmlns="http://www.w3.org/2000/svg" viewBox="0 0 36 36">
  <path fill="#D4D5D6" d="M27.805 17.255c-.58.376-1.357 1.076-1.357 1.076l.433.055s.529.554.621 1.079c.092.524-.118.169-.162.575-.044.406.184.68.184.68s.628-.212 1.04-.528c.412-.316.688-.79.923-.547.235.243.207.355.207.355H30s-.506-.494-.498-.777c.008-.283-.443-1.689-.443-1.689l-1.254-.279zm-.681-1.261s.475-.361.425-.316c-.05.045.537.25.894.104.356-.146 1.052-.849 1.223-.745.171.103-.863.709-.431.805s.568-.268.835-.4.685-.148.281.119c-.403.267-.959 1.422-.959 1.422l-1.63-.128-.427-.313-.211-.548z"/>
</svg>
