<svg xmlns="http://www.w3.org/2000/svg" viewBox="0 0 36 36">
  <path fill="#009A67" d="M29.905 17.203c0 .23-.602.417-1.344.417-.741 0-1.343-.187-1.343-.417 0-.23.601-.417 1.343-.417.743-.001 1.344.186 1.344.417zm-4.439 4.943c-.069.22-.57.255-1.12.081-.549-.174-.938-.491-.869-.71.07-.22.571-.256 1.121-.082.548.174.937.493.868.711zm7.605 1.623c-.03.17-.526.225-1.108.122-.582-.101-1.03-.322-1-.491.029-.169.525-.224 1.107-.121.582.101 1.031.322 1.001.49z"/>
  <path fill="#009A67" d="M32.082 23.851c-.157.757-.423 1.34-.592 1.305-.169-.035-.179-.676-.021-1.432.157-.756.422-1.34.591-1.305.169.035.179.677.022 1.432zm-2.513-6.514c.274.715 1.049 2.129 1.788 2.139.739.01.837-.31.837-.31s.027.562-.645.666c-.672.104-1.054-.228-.931-.113.123.114.395.374 1.021.538.626.164 1.696.357 1.664.956-.032.599-.45.831-.408.567.042-.264-.429-.744-1.256-.93-.827-.186-1.763-.637-2.172-1.977-.409-1.341-.076-.123-.076-.123s-.81.247-.805-.157.628-.192.5-.706-.432-.865-.13-.756c.303.11.613.206.613.206zm-2.038 1.83c-.406.624-1.585 1.502-1.965 1.914-.38.412-.655 1.191-.736 1.708-.081.517.074 1.313.362.419s.798-1.241 1.313-1.818c.516-.577.866-.959 1.055-1.344.189-.385-.029-.879-.029-.879z"/>
</svg>
