<svg xmlns="http://www.w3.org/2000/svg" viewBox="0 0 36 36">
  <path fill="#FFF100" d="M29.955 19.589c.127.419.114.793-.029.836-.143.043-.361-.261-.487-.68-.127-.419-.113-.794.03-.837.142-.043.36.262.486.681zm-3.539-.006c0 .127-.308.229-.688.229-.38 0-.688-.103-.688-.229 0-.127.308-.229.688-.229.38 0 .688.102.688.229zm-1.101 4.145c.149.772.127 1.425-.048 1.458-.174.033-.436-.564-.583-1.337-.149-.772-.127-1.426.048-1.459.174-.034.436.565.583 1.338z"/>
  <path fill="#FFF100" d="M25.821 23.585c0 .156-.442.281-.986.281-.545 0-.987-.125-.987-.281 0-.155.442-.281.987-.281.544 0 .986.126.986.281zm.225 2.193c.188.382.24.744.111.807-.127.063-.384-.196-.574-.578-.188-.382-.239-.745-.111-.807.128-.064.384.196.574.578zm5.431.244c-.277.396-.65.614-.834.486-.185-.129-.108-.555.169-.951.277-.397.65-.615.835-.486.183.128.107.554-.17.951zm2.279-4.598c.124.203-.253.66-.844 1.021-.59.361-1.169.488-1.293.285-.125-.204.252-.661.842-1.022.591-.361 1.17-.488 1.295-.284zm-10.113-.21c.281-.662 1.153-1.016 1.73-1.168.576-.152.705-.325 1.171-.692.466-.367.354-.615.581-.449.227.166.417.243.198.553-.219.31-.983.966-1.479 1.157-.495.191-1.469.601-1.531.712-.063.111-.764.108-.67-.113z"/>
</svg>
