<svg xmlns="http://www.w3.org/2000/svg" viewBox="0 0 36 36">
  <path fill="#662113" d="M15.971 15.083c-1.458-2.333-.667-7.708 0-8.958s-.542-2.458-1.5-.458-.996 3-3.162 2.458-1.088-3.292-.379-5.625c.729-2.4-.917-1.959-1.667-.458-.75 1.5-1.254 5.693-2.901 5.984-1.647.291-6.099.599-2.851-5.651C4.818-.139 2.773-.656 1.68 1.459.361 4.007-.404 7.25.221 8.625c1.113 2.448 3.483 2.95 6.983 2.284s6.101-.634 6.101 1.133c0 1.872.208 3.458 1.042 3.625s1.624-.584 1.624-.584zm4.057 0c1.458-2.333.667-7.708 0-8.958s.542-2.458 1.5-.458.996 3 3.162 2.458 1.088-3.292.379-5.625c-.729-2.4.917-1.959 1.667-.458s1.254 5.693 2.901 5.984c1.647.292 6.099.599 2.851-5.651-1.307-2.514.737-3.031 1.831-.916 1.318 2.549 2.084 5.792 1.459 7.167-1.113 2.448-3.482 2.95-6.982 2.284s-6.102-.634-6.102 1.133c0 1.872-.208 3.458-1.041 3.625s-1.625-.585-1.625-.585z"/>
</svg>
