<svg xmlns="http://www.w3.org/2000/svg" viewBox="0 0 36 36">
  <path fill="#99AAB5" d="M20 14c0 .552-.447 1-1 1h-9c-.552 0-1-.448-1-1s.448-1 1-1h9c.553 0 1 .448 1 1zm7 4c0 .552-.447 1-1 1H10c-.552 0-1-.448-1-1s.448-1 1-1h16c.553 0 1 .448 1 1zm0 4c0 .553-.447 1-1 1H10c-.552 0-1-.447-1-1 0-.553.448-1 1-1h16c.553 0 1 .447 1 1zm0 4c0 .553-.447 1-1 1H10c-.552 0-1-.447-1-1 0-.553.448-1 1-1h16c.553 0 1 .447 1 1zm0 4c0 .553-.447 1-1 1h-9c-.552 0-1-.447-1-1 0-.553.448-1 1-1h9c.553 0 1 .447 1 1z"/>
</svg>
