<svg xmlns="http://www.w3.org/2000/svg" viewBox="0 0 36 36">
  <path fill="#E0AA94" d="M6.203 21.641c-.078.922.321 1.198.946 1.636.618.433 4.383-2.867 5.614-3.369 1.231-.502 12.787-2.949 12.286-5.183-.501-2.234-3.993-2.564-6.683-2.108-2.69.456-7.838 2.822-9.342 4.099-1.504 1.276-2.821 4.925-2.821 4.925zm8.622 1.497s-3.557 1.155-3.557 4.155.866 4.692 1.276 5.513c.411.82 1.688 1.616 3.455.851 2.052-.889-.491-6.004 6-3.656 2.974 1.075 6.059 2.528 9.059 1.528C33.904 30.58 35 27 35 25c0-4.094-3-3-4-2s-9 3-10 3-6.175-2.862-6.175-2.862z"/>
</svg>
