<svg xmlns="http://www.w3.org/2000/svg" viewBox="0 0 36 36">
  <path fill="#EC9DAD" d="M29.647 13.63l-7.668-1.248 4.539-6.308c.107-.148.091-.354-.039-.484-.131-.129-.336-.146-.484-.039l-6.309 4.538-1.247-7.667c-.029-.181-.187-.314-.37-.314s-.341.133-.37.314l-1.248 7.667-6.308-4.538c-.149-.107-.353-.09-.484.039-.13.131-.146.335-.039.484l4.538 6.308L6.49 13.63c-.181.029-.314.186-.314.37s.133.341.314.37l7.668 1.248-4.538 6.308c-.107.149-.091.354.039.484.131.129.335.146.484.039l6.308-4.538 1.248 7.667c.029.182.187.314.37.314s.341-.134.37-.314l1.247-7.667 6.308 4.538c.148.106.354.09.484-.039.13-.131.146-.335.039-.484l-4.538-6.308 7.668-1.248c.182-.029.314-.187.314-.37s-.132-.341-.314-.37z"/>
</svg>
