<svg xmlns="http://www.w3.org/2000/svg" viewBox="0 0 36 36" xml:space="preserve">
  <path d="M.983 30.656a.1.1 0 0 1-.116.028.1.1 0 0 1-.06-.104c.095-.792.452-2.923 1.623-4.209a.1.1 0 0 1 .174.061c.129 1.932-1.116 3.623-1.621 4.224zM.95 33.678c-.01.038.004.079.035.104s.074.028.109.009c.462-.248.983-.784 1.221-1.485.289-.853.269-1.434.226-1.723a.102.102 0 0 0-.073-.082.1.1 0 0 0-.104.034 6.14 6.14 0 0 0-.794 1.279c-.299.655-.521 1.485-.62 1.864zm3.594-7.465a.1.1 0 0 0-.07-.085.097.097 0 0 0-.105.031c-.758.89-.897 2.264-.922 2.817a.1.1 0 0 0 .173.074 3.532 3.532 0 0 0 .924-2.837zm1.169 3.024a.1.1 0 0 0-.06-.108.1.1 0 0 0-.119.033c-.951 1.296-2.363 4.513-2.831 5.606a.1.1 0 0 0 .033.12.1.1 0 0 0 .124-.004c.515-.44 1.532-1.404 2.012-2.528.483-1.135.739-2.485.841-3.119zm24.448.423a.101.101 0 0 0-.114-.005.1.1 0 0 0-.044.105c.23 1.084.886 2.467 1.942 3.3a.1.1 0 0 0 .114.007.1.1 0 0 0 .046-.105c-.121-.615-.559-2.244-1.944-3.302zm4.729 4.28a.1.1 0 0 0 .145-.119c-.235-.677-1.032-2.6-2.692-3.283a.097.097 0 0 0-.104.018.1.1 0 0 0-.03.102c.525 1.879 2.097 2.943 2.681 3.282zm-.695-3.493a.1.1 0 0 0 .128-.127c-.374-1.05-1.476-2.639-2.95-3.014a.1.1 0 0 0-.12.126c.629 2.025 2.365 2.806 2.942 3.015zm.763-1.791a.1.1 0 0 0 .16-.102c-.263-1.09-1.298-2.795-2.646-3.282a.1.1 0 0 0-.105.024.102.102 0 0 0-.023.105c.552 1.499 2.058 2.809 2.614 3.255z" fill="#69615D"/>
</svg>
