<svg xmlns="http://www.w3.org/2000/svg" viewBox="0 0 36 36">
  <path fill="#FFAC33" d="M19.403 34c-.252 0-.503-.077-.719-.231l-5.076-3.641-5.076 3.641c-.433.31-1.013.31-1.443-.005-.43-.312-.611-.864-.45-1.369l1.894-6.11-5.031-3.545c-.428-.315-.605-.869-.442-1.375.165-.504.634-.847 1.165-.851l6.147-.012 2.067-5.957c.168-.504.639-.844 1.17-.844.531 0 1.002.34 1.17.844l1.866 5.957 6.347.012c.532.004 1.002.347 1.165.851.164.506-.014 1.06-.442 1.375l-5.031 3.545 1.893 6.11c.162.505-.021 1.058-.449 1.369-.217.158-.471.236-.725.236z"/>
</svg>
