<svg xmlns="http://www.w3.org/2000/svg" viewBox="0 0 36 36">
  <path fill="#B2C2CC" d="M6 27c-.256 0-.512-.098-.707-.293-.391-.391-.391-1.023 0-1.414l1-1c.391-.391 1.023-.391 1.414 0s.391 1.023 0 1.414l-1 1C6.512 26.902 6.256 27 6 27zm12.417.499c-.256 0-.512-.098-.707-.293l-1-1c-.391-.391-.391-1.024 0-1.414.391-.391 1.024-.391 1.415 0l1 1c.391.391.391 1.023 0 1.414-.196.195-.452.293-.708.293zm-6.167-4.291c-.255 0-.511-.098-.707-.292l-.459-.458c-.391-.391-.392-1.023-.002-1.414.389-.392 1.023-.392 1.415-.002l.459.458c.391.391.392 1.023.002 1.414-.195.196-.451.294-.708.294z"/>
</svg>
