<svg xmlns="http://www.w3.org/2000/svg" viewBox="0 0 36 36">
  <path fill="#FFD983" d="M22.28 11.076c-.598 1.539-1.477 2.633-1.961 2.444l-.877-.341c-.485-.188-.393-1.588.205-3.126l1.625-4.178c.599-1.538 1.477-2.632 1.962-2.444l.876.341c.485.188.394 1.588-.205 3.126l-1.625 4.178z"/>
  <path fill="#FFD983" d="M23.113 11.536c-1.562.535-2.965.568-3.133.076l-.305-.891c-.169-.492.962-1.324 2.522-1.858l4.242-1.45c1.562-.534 2.964-.567 3.133-.075l.304.89c.169.493-.961 1.325-2.523 1.858l-4.24 1.45z"/>
</svg>
