<svg xmlns="http://www.w3.org/2000/svg" viewBox="0 0 36 36">
  <path fill="#292F33" d="M9.515 6.687c-.391.39-1.023.39-1.414 0-.39-.391-.39-1.024 0-1.415l3.536-3.536 1.414 1.415-3.536 3.536zm5.656 1.414c-.39.391-1.024.391-1.414 0-.391-.391-.391-1.024 0-1.414l1.415-1.415 1.414 1.415-1.415 1.414zm1.415 5.656c-.391.391-1.024.391-1.414 0-.39-.391-.39-1.024 0-1.414l3.536-3.536c.486.486.929.928 1.414 1.415l-3.536 3.535zm5.656 1.414c-.39.391-1.023.391-1.413 0-.392-.391-.391-1.024 0-1.414l1.414-1.415c.485.487.928.928 1.414 1.415l-1.415 1.414zm1.415 5.657c-.391.391-1.023.392-1.414 0-.391-.391-.391-1.023-.001-1.414l3.536-3.535 1.414 1.414-3.535 3.535zm7.071 7.071c-.39.391-1.023.391-1.413 0-.392-.391-.392-1.023-.001-1.414l3.536-3.535 1.414 1.414-3.536 3.535zm-1.415-5.657c-.391.391-1.022.391-1.414.001-.391-.391-.39-1.024 0-1.414l1.415-1.414 1.413 1.413-1.414 1.414z"/>
</svg>
