<svg xmlns="http://www.w3.org/2000/svg" viewBox="0 0 36 36">
  <path fill="#7C533E" d="M34.624 11.009c.322-2.495-10.793-4.379-10.996-2.002-.203 2.377-.247 4.06-1.02 6.958C21.358 20.65 15.954 23 10.583 23H8.895c-.653 0-1.207.426-1.411 1.012-1.024 0-1.646.58-1.646 1.262-.531 0-1.713.508-1.713 1.725 0 0-2.5-.106-2.5 2.5l.002.015c-2.145.606-1.53 4.091.93 4.419 2.334.311 2.428-.369 4.428-.369 1.968 0 2.255.435 4.64.435 4.913 0 4.79-.968 9.447-1.681 5.138-.787 6.406 1.124 9.406 1.124s5.207-2.339 5.207-5.412c0-5-2.059-5.03-2.059-9.03s.676-5.497.998-7.991z"/>
</svg>
