<svg xmlns="http://www.w3.org/2000/svg" viewBox="0 0 36 36">
  <path fill="#60352A" d="M8.142 19.239c-.019-.912-.04-.205-.04-.424 0-3.118 1.871.449 1.871-1.771 0-2.222 1.247-2.444 2.494-3.69.624-.625 1.87-1.847 1.87-1.847s3.117 1.883 5.612 1.883c2.491 0 4.987 1.253 4.987 3.747 0 2.492 1.87-1.442 1.87 1.674 0 .223-.021-.484-.037.428h.655c.005-1.822.005-1.753.005-2.918 0-8.104-6.233-11.122-9.975-11.122-3.74 0-9.974 2.967-9.974 11.072 0 .723-.019 1.146.007 2.968h.655z"/>
  <path fill="#60352A" d="M14.414 18.224c-.423 0-.77-.346-.77-.771v-.769c0-.424.348-.771.77-.771.424 0 .771.347.771.771v.769c.001.425-.347.771-.771.771m6.163 0c-.424 0-.771-.346-.771-.771v-.769c0-.424.347-.771.771-.771.424 0 .771.347.771.771v.769c.001.425-.347.771-.771.771"/>
</svg>
