<svg xmlns="http://www.w3.org/2000/svg" viewBox="0 0 36 36">
  <path fill="#F3D2A2" d="M8.646 4.146c.011.127.871 1.535 1.323 2.635.452 1.1.71 2.198.948 2.448.476.499 2.092 1.879 3.117 3.343s.724 2.503.06 2.922c-.88.555-1.803.204-2.437-.788-.451-.706-1.951-3.209-2.739-4.601-.306-.541-.796-1.512-1.218-2.574-.397-1-.444-2.168-.504-2.312-.174-.425-1.12-.977-1.154-1.407 0 0 2.567-.095 2.604.334zm18.708 0c-.011.127-.871 1.535-1.323 2.635-.452 1.1-.71 2.198-.948 2.448-.476.499-2.092 1.879-3.117 3.343s-.724 2.503-.06 2.922c.88.555 1.803.204 2.437-.788.451-.706 1.951-3.209 2.739-4.601.304-.54.795-1.511 1.217-2.573.397-1 .444-2.168.504-2.312.175-.425 1.121-.977 1.155-1.406 0-.002-2.567-.097-2.604.332z"/>
</svg>
