<svg xmlns="http://www.w3.org/2000/svg" viewBox="0 0 36 36">
  <path fill="#DD2E44" d="M13.844 30.862l2.95-2.95c.194-.194.194-.513 0-.707-.194-.194-.513-.194-.707 0l-2.95 2.95c-.194.194-.194.513 0 .707.194.194.512.194.707 0zM32 34c-.55 0-1-.45-1-1v-3c0-.55.45-1 1-1s1 .45 1 1v3c0 .55-.45 1-1 1z"/>
  <path fill="#DD2E44" d="M13.5 34c-.55 0-1-.45-1-1v-3c0-.55.45-1 1-1s1 .45 1 1v3c0 .55-.45 1-1 1zm12.983-6.005h2c.275 0 .5-.225.5-.5s-.225-.5-.5-.5h-2c-.275 0-.5.225-.5.5s.225.5.5.5z"/>
  <path fill="#DD2E44" d="M31.123 30.803l-2.95-2.95c-.194-.194-.194-.513 0-.707.194-.194.513-.194.707 0l2.95 2.95c.194.194.194.513 0 .707-.194.195-.512.195-.707 0z"/>
</svg>
