<svg xmlns="http://www.w3.org/2000/svg" viewBox="0 0 36 36">
  <path fill="#4289C1" d="M25.097 17.21c.069 1.432-.391 2.922-1.505 3.202-1.066.268-3.056-.151-3.056-.151s-.698.408-.531 1.189c.095.444.257.67.201.712-.05.038-.486-.022-.684-.032-.528-.027-1.1-.211-2.073-.484-.974-.273-1.421-.285-2.481-.577-1.175-.324-1.986-.835-2.33-1.956-.293-.956.277-2.123 1.654-2.63 1.12-.412 4.288.195 5.488.311 1.201.118 5.257-.829 5.317.416z"/>
  <path fill="#4289C1" d="M7.127 27.177c-.646-.143-1.069-.49-1.426-1.025 1.678-1.899 3.787-7.307 3.787-7.307.695-1.744 1.62-2.914 3.252-2.851 2.317.089 5.748.535 5.748.535 2.276.329.671.789 1.305 1.693.635.903-1.294 1.99-2.786 1.891-2.602-.173-3.877-.453-5.522.846-.8 2.306-2.071 4.087-2.844 6.406-.489.079-.868-.045-1.514-.188z"/>
</svg>
