<svg xmlns="http://www.w3.org/2000/svg" viewBox="0 0 36 36">
  <path fill="#FFF100" d="M18.147 21.32h-.294c-.243 0-.44.3-.44.669v1.338c0 .369.197.669.44.669h.294c.243 0 .44-.3.44-.669v-1.338c0-.369-.197-.669-.44-.669zm.11 2.029c0 .209-.111.377-.247.377s-.248-.168-.248-.377V22c0-.207.111-.375.248-.375s.247.168.247.375v1.349z"/>
  <path fill="#FFF100" d="M19.326 20.265c-.107-.06-.25-.058-.318.003L18 21.177l-1.008-.909c-.068-.061-.211-.062-.318-.003-.108.059-.14.156-.072.218l1.232 1.108c.038.034.1.045.166.041.066.004.127-.007.166-.041l1.232-1.108c.069-.062.037-.16-.072-.218z"/>
</svg>
