<svg xmlns="http://www.w3.org/2000/svg" viewBox="0 0 36 36">
  <path fill="#FFF" d="M8.524 8.289l.893-.648.892.648-.341-1.049.893-.649H9.758l-.341-1.049-.341 1.049H7.972l.893.649zM5.785 9.841l-.341-1.049-.341 1.049H4l.893.649-.341 1.049.892-.648.893.648-.341-1.049.893-.649zm8.014-.607l-.32-.984-.32.984h-1.034l.837.608-.32.984.837-.608.837.608-.32-.984.837-.608zm-2.183 3.01l-.213-.656-.213.656h-.69l.558.406-.213.656.558-.406.558.406-.213-.656.558-.406zm-1.773 3.092l-.426-1.312-.427 1.312H7.611l1.116.81-.426 1.312 1.116-.81 1.116.81-.427-1.312 1.116-.81z"/>
</svg>
