<svg xmlns="http://www.w3.org/2000/svg" viewBox="0 0 36 36">
  <path fill="#BE1931" d="M30.795 15.685h-2.816c-.594 0-.813-.385-.813-.759 0-.385.209-.759.813-.759h3.983c.561 0 .792.506.792.792 0 .22-.121.451-.253.726l-2.729 5.545c-.308.615-.429.836-.925.836-.604 0-.912-.463-.912-.781 0-.133.033-.232.109-.385l2.751-5.215zm-12 0h-2.816c-.594 0-.814-.385-.814-.759 0-.385.209-.759.814-.759h3.983c.561 0 .792.506.792.792 0 .22-.121.451-.253.726l-2.729 5.545c-.308.615-.429.836-.924.836-.605 0-.913-.463-.913-.781 0-.133.033-.232.11-.385l2.75-5.215zm-12 0H3.979c-.594 0-.814-.385-.814-.759 0-.385.209-.759.814-.759h3.983c.561 0 .792.506.792.792 0 .22-.121.451-.253.726L5.772 21.23c-.308.615-.429.836-.924.836-.605 0-.913-.463-.913-.781 0-.133.033-.232.11-.385l2.75-5.215z"/>
</svg>
