<svg xmlns="http://www.w3.org/2000/svg" viewBox="0 0 36 36">
  <path fill="#DEE7ED" d="M22.729 35.087l-.07-.01c.02-.08.03-.149.04-.229.07-.528 0-1.046-.189-1.514-.389-.967-1.285-1.704-2.401-1.843-.12-.02-.249-.02-.379-.02-.259 0-.508.03-.757.09-.03-.399-.1-.807-.199-1.186-.219-.917-.618-1.764-1.166-2.501-.757-1.026-1.823-1.863-3.109-2.361-2.66-1.036-5.54-.339-7.453 1.534l-.02.02c-.11.1-.209.209-.309.319-.159-.139-.329-.269-.528-.379-.13-.08-.269-.149-.408-.209-.12-.05-.239-.1-.369-.14-.02-.01-.05-.01-.07-.02l-.12-.03c-.149-.04-.299-.07-.458-.09-1.016-.14-1.983.159-2.74.737-.05.04-.11.09-.159.14l-.01-.02c.438-.857 1.355-1.574 2.491-1.803.13-.02.259-.05.389-.06.389-.05.787-.06 1.186.01.897-1.076 2.122-1.943 3.517-2.431 1.754-.618 3.776-.618 5.56 0 1.764.578 3.428 1.774 4.434 3.358 0 .02.01.02.01.03.03.04.06.09.08.13.438.678.767 1.405 1.006 2.162.01.04.03.09.05.13 0 .02.01.04.02.06.11.418.179.847.219 1.265.658.299 1.216.727 1.604 1.275.369.508.618 1.076.688 1.654.01.07.02.139.02.209.048.627-.101 1.245-.4 1.723z"/>
</svg>
