<svg xmlns="http://www.w3.org/2000/svg" viewBox="0 0 36 36">
  <path fill="#C9D5DD" d="M34.118 28.979c-.996-1.016-2.621-1.226-3.866-.498-.1.04-.189.1-.279.169-.319.239-.578.528-.767.847-.199-.169-.418-.319-.628-.458-.209-.149-.438-.279-.668-.389 0 0 0-.01-.01-.01-1.893-.976-4.215-1.146-6.327-.249-.359.149-.688.319-.996.508-.02-.04-.04-.09-.05-.13-.239-.757-.568-1.485-1.006-2.162.14-.07.269-.14.399-.199 1.704-.817 3.776-1.126 5.669-.737.937.189 1.833.508 2.66.937.379.219.737.468 1.066.737.658-.249 1.355-.339 2.003-.249.03 0 .07 0 .1.01.717.11 1.375.369 1.863.797.378.299.667.678.837 1.076z"/>
</svg>
