<svg xmlns="http://www.w3.org/2000/svg" viewBox="0 0 36 36">
  <path fill="#C9D5DD" d="M13.931 8.882c-.11.209-.229.418-.359.618-.438.668-.976 1.265-1.604 1.774-.598.488-1.255.877-1.963 1.156-1.614.668-3.527.737-5.092.12-.239-.09-.478-.199-.697-.329-.947-.488-1.734-1.216-2.212-2.102.787.588 1.684 1.006 2.63 1.216 1.355.299 2.8.189 4.175-.418.588-.259 1.126-.588 1.594-.986.558-.458 1.036-.996 1.415-1.594.458-.717.767-1.514.927-2.361.578-.149 1.116-.389 1.574-.737.159-.12.319-.249.458-.379.1 1.352-.179 2.767-.846 4.022z"/>
</svg>
