<svg xmlns="http://www.w3.org/2000/svg" viewBox="0 0 36 36">
  <path fill="#F3F7F9" d="M35.378 4.814c.061.813-.213 1.586-.702 2.166-.071.081-.142.153-.213.224-.478.447-1.108.752-1.81.813-.61.041-1.19-.102-1.678-.366-.224.397-.498.752-.803 1.078-.071.071-.132.132-.204.193-1.24 1.179-2.979 1.779-4.799 1.474-1.83-.295-3.294-1.434-4.088-2.959-.173-.325-.315-.671-.417-1.037-.275.132-.569.214-.885.244-1.322.102-2.481-.885-2.593-2.206-.102-1.332.885-2.481 2.207-2.593.845-.061 1.607.305 2.085.915.732-1.505 2.217-2.593 4.006-2.745 2.135-.163 4.057 1.047 4.87 2.898.478-.458 1.108-.763 1.82-.824 1.628-.132 3.072 1.098 3.204 2.725z"/>
</svg>
