<svg xmlns="http://www.w3.org/2000/svg" viewBox="0 0 36 36">
  <path fill="#C9D5DD" d="M34.467 7.208c-.1.339-.269.658-.518.937-.299.359-.707.608-1.166.807-.179.08-.389.14-.588.169-.179.279-.389.538-.628.787-.578.638-1.325 1.156-2.152 1.495-1.415.598-3.109.658-4.553.159-.787-.259-1.525-.697-2.132-1.265-.498-.438-.917-.967-1.196-1.544-.08-.149-.149-.309-.209-.458-.11-.279-.189-.568-.239-.857.12.239.259.458.418.678.458.648 1.056 1.206 1.764 1.614h.01c.568.329 1.206.558 1.893.668 1.823.309 3.557-.299 4.803-1.475.07-.06.13-.12.199-.189.1-.11.199-.219.289-.339.199-.229.369-.478.518-.747.488.269 1.066.409 1.674.369.697-.062 1.334-.371 1.813-.809z"/>
</svg>
