<svg xmlns="http://www.w3.org/2000/svg" viewBox="0 0 36 36">
  <path fill="#DEE7ED" d="M27.92 4.408c-.06.409-.219.827-.458 1.216-.319.508-.777.966-1.345 1.285-.438.249-.947.468-1.485.548-.329.817-.787 1.584-1.355 2.272h-.01c-.169.199-.349.389-.538.568-.219.219-.448.418-.697.608-1.485 1.146-3.408 1.793-5.311 1.774-1.644 0-3.368-.478-4.753-1.405-.199-.13-.379-.269-.558-.408-.359-.289-.697-.598-1.006-.937-.329-.339-.628-.707-.897-1.096-.229-.37-.429-.738-.598-1.137-.478-.05-.957-.169-1.375-.379-.209-.09-.399-.199-.578-.329-.568-.408-1.026-.936-1.255-1.554-.19-.428-.269-.886-.24-1.315.429 1.405 1.824 2.302 3.289 2.113l.189-.03c.389-.07.747-.229 1.056-.428.199.458.428.887.707 1.285.08.13.169.249.269.369.249.329.538.638.847.907.518.478 1.106.867 1.754 1.166.797.379 1.684.598 2.621.638 1.973.1 3.786-.608 5.131-1.843l.179-.179c.648-.628 1.166-1.395 1.534-2.242.658.279 1.395.329 2.152.229.598-.08 1.236-.458 1.744-.837.559-.41.957-.819.987-.859z"/>
</svg>
