<svg xmlns="http://www.w3.org/2000/svg" viewBox="0 0 36 36">
  <path fill="#F3F7F9" d="M33.607 33.196c-.824.63-1.861.783-2.776.468l-.041-.01c0 .02-.393 1.209-1.922 1.2-.671-.004-1.261-.285-1.668-.752-.803.752-1.881 1.22-3.081 1.22-.508 0-.996-.081-1.454-.244-.712.498-1.576.791-2.522.793-1.881.005-2.695-.671-3.142-1.139-3.891 2.271-8.874 1.171-10.483-.783-.151-.183-.285-.376-.397-.58-.671.376-1.444.539-2.247.427C1.84 33.542.386 31.661.641 29.627c.122-.946.59-1.759 1.261-2.339.051-.051.112-.102.163-.142.763-.58 1.739-.874 2.756-.742.163.02.315.051.468.092l.122.03c.152.041.295.102.437.163.142.061.285.132.417.213.193.112.366.234.529.376.102-.112.203-.214.305-.315l.02-.02c1.932-1.891 4.83-2.593 7.514-1.546 1.261.488 2.318 1.312 3.071 2.318.702-.468 1.535-.732 2.44-.732.946 0 1.82.295 2.542.803 1.779-.488 3.64-.224 5.196.62.01 0 .01.01.01.01.224.112.447.244.651.397.213.142.417.305.62.468.183-.325.437-.62.752-.864 1.251-.956 3.01-.793 4.057.336l.183.214c1.018 1.311.774 3.212-.548 4.229z"/>
</svg>
