<svg xmlns="http://www.w3.org/2000/svg" viewBox="0 0 36 36">
  <path fill="#D99E82" d="M8.191.736c.328.339.735 2.394.735 2.394s1.282.092 2.407.786c4.5 2.776 2.542 9.542 3.944 11.102.432.48 9.681-1.643 14.222.544 3.844 1.852 3.083 4.646 4.083 5.271.758.474-2 1.25-2.578-2.313-.506 11.147-1.072 13.867-1.672 16.354-.339 1.406-1.979 1.601-1.792-.333.1-1.027.463-7.223-.583-8.792-.75-1.125-4.708 2.417-11.707 1.773-.485 4.276-1.097 7.136-1.272 7.519-.562 1.229-1.863 1.218-1.676-.009.187-1.228.447-4.949-.884-9.01-5.626-3.98-1.626-14.189-3.253-16.146-.362-.435-2.647-.981-3.314-1.048-.666-.067-1.265-.172-1.664-.239-.4-.067-.994-1.776-.927-2.242s.394-.623 1.26-.956.988-.222.942-.728c-.097-1.052 2.183-1.774 3.481-1.645-.133-.133-1.08-1.786-1.354-2.393-.35-.774 1.068-.442 1.602.111z"/>
</svg>
