<svg xmlns="http://www.w3.org/2000/svg" viewBox="0 0 36 36">
  <path fill="#AF7E57" d="M7.399 17.278c-1.878 1.035-3.24 2.455-3.336 2.617-.239.404-.437 1.592-.276 2.415.145.741.177 2.238.66 2.915.198.277.107.759-.032 1.208-.419 1.353.306 3.199-.145 2.882-.918-.644-1.074-1.83-1.047-2.528.015-.393-.166-.884-.257-1.138-.059-.16-1.245-3.203-1.518-4.54-.148-.722-.333-1.302.275-2.155.903-1.266 2.094-2.996 3.311-3.885 2.012-1.471 3.936-1.687 3.936-1.687s-.911 3.532-1.571 3.896zm23-6.626c-.084.009-.143.102-.203.238-.023-.164-.074-.276-.184-.264-.129.013-.201.22-.304.492-.027-.047-.062-.079-.117-.078-.261.009-.349.811-.909 1.334-.081.036-.154.078-.248.104-.059.016-.098.041-.146.061.005-.255.171-.405.271-.474.239-.166.089-.586-.314-.331-.289.183-.41.365-.501.55-.255.519-.354 1.058-.333 1.487l-.119.215c-.139.242-1.626 1.17-2.696 1.967-1.066.793-1.846 1.694-2.415 1.132-.396-.391-1.591-1.706-3.322-2.833-1.093-.712-2.733-.866-2.733-.866-.807.662.166 3.109.894 3.566.938.589 4.26 2.925 5.306 3.391s1.704-.161 2.196-.609c.403-.366 3.434-4.072 3.703-4.326.365-.344 1.063-.797 1.457-1.491.338-.596.543-1.079.667-1.855.071-.456.402-1.447.05-1.41zM10.706 9.387v3.714c0 1.026.831 1.857 1.857 1.857s1.857-.831 1.857-1.857V9.387h-3.714z"/>
</svg>
