<svg xmlns="http://www.w3.org/2000/svg" viewBox="0 0 36 36">
  <path fill="#66757F" d="M17.5 35c-.128 0-.256-.049-.354-.146-.195-.195-.195-.512 0-.707L19 32.293V29.5c0-.276.224-.5.5-.5s.5.224.5.5v3.207l-2.146 2.146c-.098.098-.226.147-.354.147z"/>
  <path fill="#66757F" d="M19.5 33h-3c-.276 0-.5-.224-.5-.5s.224-.5.5-.5h3c.276 0 .5.224.5.5s-.224.5-.5.5zm3 2c-.128 0-.256-.049-.354-.146-.195-.195-.195-.512 0-.707L24 32.293V29.5c0-.276.224-.5.5-.5s.5.224.5.5v3.207l-2.146 2.146c-.098.098-.226.147-.354.147z"/>
  <path fill="#66757F" d="M24.5 33h-3c-.276 0-.5-.224-.5-.5s.224-.5.5-.5h3c.276 0 .5.224.5.5s-.224.5-.5.5z"/>
</svg>
