<svg xmlns="http://www.w3.org/2000/svg" viewBox="0 0 36 36">
  <path fill="#D99E82" d="M18.145 22.526s-1.274-1.881-2.117-2.553c-.672-.843-2.549-2.116-2.549-2.116-.448-.446-1.191-.48-1.629-.043-.437.438-.793 1.366-1.173 2.291-.472 1.146-1.276 4.154-1.768 5.752-.083.272.517-.45.503-.21-.01.187.027.394.074.581l-.146.159.208.067c.025.082.05.154.068.21l.159-.146c.187.047.394.084.58.074.24-.014-.483.587-.21.503 1.598-.493 4.607-1.296 5.752-1.768.924-.381 1.854-.736 2.291-1.174.439-.435.406-1.178-.043-1.627z"/>
</svg>
