<svg xmlns="http://www.w3.org/2000/svg" viewBox="0 0 36 36">
  <path fill="#65471B" d="M18 27.136c3.335 0 5.547.388 8.284.92.625.12 1.841 0 1.841-1.841 0-3.682-4.23-8.284-10.125-8.284S7.875 22.533 7.875 26.215c0 1.841 1.216 1.962 1.841 1.841 2.736-.532 4.949-.92 8.284-.92zM6.668 18.888c-.287 0-.571-.13-.756-.378-.313-.417-.229-1.009.189-1.322.135-.101 2.787-2.061 6.475-2.77-2.338-1.172-4.932-1.197-4.965-1.197-.521-.001-.943-.425-.942-.946 0-.521.422-.943.944-.943.209 0 5.149.036 8.223 3.11.27.27.351.676.205 1.029-.146.353-.491.583-.872.583-4.357 0-7.898 2.618-7.933 2.644-.173.129-.371.19-.568.19zm22.664 0c-.196 0-.395-.061-.564-.187-.036-.027-3.6-2.645-7.935-2.645-.382 0-.727-.23-.872-.583-.147-.353-.066-.759.205-1.029 3.075-3.075 8.015-3.11 8.223-3.11.521 0 .943.422.944.943.001.521-.422.944-.942.946-.034 0-2.629.025-4.966 1.197 3.688.708 6.34 2.668 6.475 2.77.417.313.502.903.19 1.321-.186.247-.47.377-.758.377z"/>
</svg>
