<svg xmlns="http://www.w3.org/2000/svg" viewBox="0 0 36 36">
  <path fill="#A5A7A9" d="M20.364 14.738c.242-.088.44-.42.44-.42s-.39.049-.635 0-.427-.225-.427-.225c.177-.312-.113-.501-.669-.567-.43-.05-1.076-.068-1.076-.068s-.657.018-1.088.068c-.555.065-.851.254-.675.567 0 0-.185.176-.43.225-.245.049-.635 0-.635 0s.196.332.439.42c0 0-.069.225-.372.273 0 0 .635.107 1.093-.087.459-.195.713-.361.781-.43.069-.068-.181-.224.004-.244.186-.019.882-.039.882-.039s.685.02.871.039c.186.02-.077.176-.008.244.068.068.322.234.781.43.459.195 1.093.087 1.093.087-.3-.048-.369-.273-.369-.273z"/>
</svg>
