<svg xmlns="http://www.w3.org/2000/svg" viewBox="0 0 36 36">
  <path fill="#C09B5A" d="M21.021 16.3c-.278-.29-.614 0-.762-.088-.146-.088-.336-.154-.321.154s.249.45.381.553c.132.103.059.408.059.408s-.22-.25-.308-.411c-.088-.161-.161-.308-.322-.308s-.322.219-.22.307c.103.088.469.176.469.41 0 .234.146.469.146.469l-.044.161s-.146-.073-.19-.161c-.044-.088.044-.366-.161-.366-.205 0-.264.454-.132.527.132.073.513.498.513.498s.16.307.409.454c.249.146.572.469.572.469s-.425.308-.454.498c-.029.189.146.263.131.425-.015.16-.204.078-.365.166-.162.088.003.312.003.312h.44l.217-.405v-.294l.464-.103s-.042.176.046.278c.088.104.426.249.426.498s-.131.257-.278.271c-.146.016-.219.186-.219.186h.572s.16-.375.249-.55c.087-.177.028-.298-.074-.343-.103-.044-.204-.273-.175-.463 0 0 .204.164.439.12.234-.044.439-.241.454-.489.015-.25 0-.495-.234-.582s-.189.164-.103.236c.088.073.088.396-.029.47-.117.074-.307.162-.366-.043-.059-.205-.186-.526-.436-.614-.249-.088-.589-.645-.574-1.04.012-.394.114-1.259-.223-1.61zm-6.061 0c.278-.29.615 0 .761-.088.146-.088.337-.154.322.154-.015.308-.249.45-.38.553-.132.103-.059.408-.059.408s.22-.25.308-.411c.088-.161.161-.308.322-.308s.322.219.22.307c-.103.088-.469.176-.469.41 0 .234-.146.469-.146.469l.044.161s.146-.073.19-.161c.044-.088-.044-.366.161-.366.205 0 .264.454.132.527-.132.073-.513.498-.513.498s-.161.307-.41.454c-.249.146-.571.469-.571.469s.425.308.454.498c.029.189-.146.263-.132.425.015.16.205.078.366.166.161.088.118.307.118.307h-.441l-.336-.399v-.294l-.456-.103s.038.176-.05.278c-.088.104-.428.249-.428.498s.13.257.277.271c.146.016.218.186.218.186h-.571s-.162-.375-.249-.55c-.088-.177-.03-.298.073-.343.102-.044.205-.273.176-.463 0 0-.205.164-.439.12-.234-.044-.439-.241-.454-.489-.015-.25 0-.495.234-.582.234-.087.191.164.103.236-.088.073-.088.396.029.47.117.074.308.162.366-.043.059-.205.186-.526.436-.614.249-.088.589-.645.575-1.04-.016-.395-.118-1.26.219-1.611z"/>
</svg>
