<svg xmlns="http://www.w3.org/2000/svg" viewBox="0 0 36 36">
  <path fill="#CCD6DD" d="M34.148 27.12s-.002.164-.079.276c-.077.113-.129.39-.149.596-.019.206-.105.981-.083 1.524.022.544.194 1.527.203 1.855.009.328.003.839-.065 1.217-.069.378-.142.715-.199.922-.073.267-.171.486-.285.639 0 0 .43-.03.757-.667.258-.503.402-.986.454-1.457l.263-3.109c.081-.868.1-1.309.061-1.475-.007-.029-.013-.152-.106-.279-.06-.083-.762-.153-.772-.042zm-2.472 3.287c-.074 0-.146-.042-.181-.113-.048-.1-.006-.219.094-.267l.317-.152c.101-.046.219-.006.268.094.048.1.006.219-.094.267l-.317.152c-.029.013-.058.019-.087.019zm.268.657c-.086 0-.164-.055-.191-.141-.032-.105.026-.218.132-.25l.354-.11c.112-.033.217.027.251.132.032.105-.026.218-.132.25l-.354.11c-.021.006-.04.009-.06.009zm.232.678c-.095 0-.179-.067-.196-.164-.021-.109.052-.213.16-.233l.333-.061c.108-.02.213.052.232.161.021.109-.052.213-.16.233l-.333.061-.036.003z"/>
</svg>
