<svg xmlns="http://www.w3.org/2000/svg" viewBox="0 0 36 36">
  <path fill="#CCD6DD" d="M18.141 34.183s-.159.039-.287-.008-.409-.028-.614.004c-.204.033-.976.142-1.497.298-.521.157-1.431.567-1.747.657s-.812.211-1.195.239c-.383.027-.728.04-.942.036-.277-.004-.513-.045-.69-.117 0 0 .136.409.834.567.552.125 1.055.145 1.524.078.036-.005 3.077-.517 3.077-.517.861-.137 1.293-.229 1.444-.307.027-.014.144-.05.244-.172.065-.078-.042-.776-.151-.758zm-3.379-1.16c-.057 0-.113-.024-.153-.071l-.227-.269c-.071-.084-.06-.211.024-.282.084-.07.21-.061.282.024l.227.269c.071.084.06.211-.024.282-.037.032-.083.047-.129.047zm-.6.47c-.067 0-.133-.034-.17-.095l-.194-.316c-.059-.094-.029-.217.065-.275.093-.057.217-.029.274.066l.194.316c.059.094.029.217-.065.275-.032.02-.068.029-.104.029zm-.652.384c-.075 0-.147-.043-.182-.116l-.143-.308c-.046-.1-.003-.219.098-.265.1-.047.219-.003.266.097l.143.308c.046.1.003.219-.098.265-.028.013-.056.019-.084.019z"/>
</svg>
