<svg xmlns="http://www.w3.org/2000/svg" viewBox="0 0 36 36">
  <path d="M16.152 15.017c-.165-.02-.299.057-.213.17.085.113.129.042.236-.011.107-.054.207-.133-.023-.159zm.455.36c-.151.073-.297.16-.344.314-.048.154-.042.29.101.253.216-.056.23-.311.388-.34-.052-.076-.067-.178-.145-.227zm.265-.134c.014.063.035.165.087.215.139-.067.493-.202.627-.231.011-.096-.016-.159-.043-.21-.191.018-.47.087-.671.226zm1.191.601c.002.094.042.331.061.425.086.041.197.072.283.096.057-.112.071-.274.069-.376-.156-.099-.295-.206-.413-.145zm-.303.135c.01.076.013.187.023.255-.111.002-.288.066-.398.102-.11.037-.242-.165-.048-.245.194-.081.321-.101.423-.112zm-2.723.766c.201-.107.306-.04.491-.096.087.083.191.183.261.283-.107.181-.433.061-.542.14-.086-.092-.148-.184-.21-.327zm.821-.206c.053.11.107.202.15.252.153.014.211-.072.277-.176.066-.104.063-.231-.107-.219-.17.013-.263.049-.32.143zM14.531 18.5c.045.109.173.149.209.234.142-.088.211-.081.331-.058.12.022.441-.087.624-.278.183-.191.064-.171-.148-.141-.212.03-.373.068-.518.037-.146-.031-.366.033-.498.206zm1.878-.892c-.101.062-.151.105-.072.197.079.092.12.049.213-.005.093-.053.134-.13.081-.198-.054-.065-.122-.055-.222.006zm.498-.157c-.102.002-.094.066-.08.116.014.051.027.082.11.081.083-.002.095-.021.068-.104-.027-.082-.034-.095-.098-.093zm.308.088c.003.116-.017.109.098.126s.154.01.157-.099c.004-.108.009-.147-.125-.151-.132-.003-.131.041-.13.124zm.475.092c-.033.092-.08.168.062.222.141.055.147.016.189-.106.042-.122.047-.18-.062-.21-.109-.029-.147-.022-.189.094zm.505.034c-.005.051-.047.192-.065.238.058.024.135.054.194.091.058.037.139-.067.111-.162-.028-.095-.133-.246-.24-.167zm.598-1.526c-.018.064-.077.276-.101.334.167.041.295.064.41.055.115-.009.299-.044.389-.028.089.017.138-.073-.011-.185-.149-.111-.239-.128-.335-.127-.095.003-.258-.114-.352-.049zm.636.79c-.114-.018-.177.074-.098.136.078.062.179.034.19-.023.012-.057.017-.096-.092-.113zm.256-.031c.007.057.022.159.023.204.085.081.173-.004.264.077.091.081.158-.003.176-.087.018-.083.029-.128-.047-.126-.167.003-.278-.141-.416-.068zm-1.811-1.964c.02.044.073.145.075.196.077.049.258.102.307.012.049-.091.067-.129-.017-.172-.085-.042-.267-.198-.365-.036zm.686.158c-.055.062-.011.096.067.139.078.043.134-.028.126-.086-.008-.058-.112-.145-.193-.053zm-2.52 4.345c.058.052.105.126.09.21-.015.086.037.119.097.144.06.023.217.171.247.011.031-.163-.103-.415-.197-.43-.093-.016-.136-.015-.18-.065-.044-.05-.17.03-.057.13zm5.245-.675c-.04.145-.196.462-.296.525-.153-.073-.436-.136-.463-.22.056-.154.111-.283.154-.377.175-.038.456-.053.605.072zm-.959-.218c-.004.111-.069.359-.1.445-.178.021-.605-.063-.749-.009.006-.119.002-.273.035-.351.272-.005.523-.181.814-.085z" fill="#EEE"/>
</svg>
