<svg xmlns="http://www.w3.org/2000/svg" viewBox="0 0 36 36">
  <path fill="#F3D2A2" d="M14.593 29.239l1.825-3.939c.215-.468.774-.673 1.242-.458.467.217.674.778.457 1.245l-1.822 3.941c-.217.468-.776.674-1.245.457-.467-.217-.672-.777-.457-1.246z"/>
  <path fill="#F3D2A2" d="M14.07 34.202s.297-3.515.386-4.188c.089-.673.599-1.197 1.114-1.146.511.049.75.431.817 1.295.067.863-.959 3.206-.867 4.121.03.297.934.551.683.743-.111.085-.853.164-1.01.148l-.564.03c-.252-.025-.888.031-1.04-.149-.158-.188.454-.593.481-.854z"/>
</svg>
