<svg xmlns="http://www.w3.org/2000/svg" viewBox="0 0 36 36">
  <path fill="#F3D2A2" d="M21.251 24.544l1.871 3.49c.264.486.082 1.127-.4 1.384-.484.264-1.09.097-1.354-.389l-1.75-3.22-2.281 1.586-.436-2.134c-.142-.22 5.374-2.71 5.745-3.124.001.001.492 1.327-1.395 2.407z"/>
  <path fill="#F3D2A2" d="M26.857 21.431l-4.341.033c-.516.004-.934.428-.931.943.004.515.43.935.945.93l4.342-.031c.516-.004.934-.429.931-.944-.005-.515-.43-.934-.946-.931z"/>
  <path fill="#F3D2A2" d="M30.852 22.974c-.743-.149-3.178-1.455-3.772-1.485-.594-.03-.799.189-.965.679-.166.486.223.747 1.025 1.311.802.564 2.911.505 3.386.624.135.034.398.385.653.505.505.238.833-.071 1.129-.059.442.018.76.209.832 0l.148-.267c.119-.416-.471-.753-1.069-1.129-.303-.191-1.117-.129-1.367-.179z"/>
</svg>
