<svg xmlns="http://www.w3.org/2000/svg" viewBox="0 0 36 36">
  <path fill="#CCD6DD" d="M23.26 1.913s.14.035.221.123c.081.089.308.19.481.248.173.058.82.288 1.291.379.471.091 1.349.142 1.633.201.284.059.72.167 1.031.302.31.135.585.266.751.357.215.116.382.245.491.374 0 0 .061-.375-.419-.784-.38-.323-.765-.544-1.159-.684-.03-.011-1.085-.357-1.613-.528-.386-.124-1.001-.327-1.001-.327-.728-.245-1.103-.35-1.253-.351-.027 0-.133-.02-.261.035-.084.035-.286.624-.193.655zm2.321 2.786c-.015.064-.065.116-.134.132-.095.021-.189-.039-.21-.134l-.067-.302c-.02-.097.039-.189.134-.211.095-.021.189.039.21.134l.067.302c.007.027.006.054 0 .079zm.618-.098c-.017.073-.08.13-.159.136-.097.006-.182-.067-.188-.164l-.023-.326c-.007-.101.066-.182.164-.189.097-.006.181.067.188.164l.023.326c0 .019-.001.036-.005.053zm.628-.061c-.019.081-.094.14-.18.135-.097-.004-.172-.087-.167-.185l.015-.299c.007-.104.088-.172.185-.167.097.004.172.087.167.185l-.015.299c-.001.012-.002.022-.005.032z"/>
</svg>
