<svg xmlns="http://www.w3.org/2000/svg" viewBox="0 0 36 36">
  <path fill="#292F33" d="M12.655 9.07c1.773 1.446 3.147.322 3.147.322-1.295-.271-2.056-.867-2.708-1.562.835-.131 1.287-.666 1.287-.666-1.061-.013-1.824-.3-2.485-.699-.565-.614-1.233-1.202-2.254-1.631-.294-.125-.606-.21-.922-.276-.086-.025-.178-.063-.258-.073-.906-.114-1.845.051-2.737.603-.322.2-.214.639.117.623 1.741-.085 2.866.582 3.47 1.633 2.169 3.772 5.344 3.875 5.344 3.875s-1.29-.688-2.001-2.149zm5.11 13.33l-.361-7.566 1.029.228.45 7.208c-.377.071-1.118.13-1.118.13z"/>
</svg>
