<svg xmlns="http://www.w3.org/2000/svg" viewBox="0 0 36 36">
  <path fill="#D99E82" d="M15.564 27.655c.289-.07.578-.149.864-.241l-.015.013.13-.052c.264-.088.527-.179.788-.284.698-.238 1.734-.558 2.942-.806 1.848-.38 3.541 1.606 4.955 3.021 1.414 1.414 4.242 5.657 4.949 6.364.707.707 1.414 0 2.122-.707l.707-.707.707-.707c.707-.708 1.414-1.415.707-2.122-.707-.707-4.95-3.535-6.364-4.949-1.414-1.414-3.4-3.107-3.021-4.955.198-.965.441-1.815.653-2.481.357-.764.633-1.543.824-2.334L15.564 27.655z"/>
</svg>
