<svg xmlns="http://www.w3.org/2000/svg" viewBox="0 0 36 36">
  <path fill="#4289C1" d="M13.617 35.149c.106-.243.331-.694.355-.955.024-.261.036-.354.25-.426.362-.121 1.496-.087 1.691-.016.194.071.197.263.225.424.028.161.118.424.237.64s.426.697.272 1.034c-.064.14-.422.138-1.569.138s-1.476-.026-1.554-.118c-.08-.092-.014-.477.093-.721zm8.704 0c-.106-.243-.331-.694-.355-.955-.024-.261-.036-.354-.25-.426-.362-.121-1.496-.087-1.691-.016-.194.071-.197.263-.225.424s-.118.424-.237.64c-.118.216-.426.697-.272 1.034.064.14.422.138 1.569.138s1.476-.026 1.554-.118.013-.477-.093-.721z"/>
</svg>
