<svg xmlns="http://www.w3.org/2000/svg" viewBox="0 0 36 36" xml:space="preserve">
  <path fill="#D2A077" d="M16.428 30.331a2.31 2.31 0 0 0 3.217-.568.798.798 0 0 0-.197-1.114l-1.85-1.949 4.222 2.955a1.497 1.497 0 0 0 2.089-.369 1.5 1.5 0 0 0-.369-2.089l-3.596-3.305 5.375 3.763a1.497 1.497 0 0 0 2.089-.369 1.5 1.5 0 0 0-.369-2.089l-4.766-4.073 5.864 4.105a1.497 1.497 0 0 0 2.089-.369 1.5 1.5 0 0 0-.369-2.089L4.733 11.194l-3.467 5.521c-.389.6-.283 1.413.276 1.891l7.786 6.671c.355.304.724.591 1.107.859l5.993 4.195z"/>
</svg>
