<svg xmlns="http://www.w3.org/2000/svg" viewBox="0 0 36 36">
  <path fill="#D67909" d="M6.814 33.279c-1.166 1.166-3.021 1.221-4.121.121-1.1-1.1-1.045-2.955.121-4.121L26.079 6.014c1.167-1.167 3.021-1.221 4.121-.121 1.101 1.1 1.046 2.955-.121 4.121L6.814 33.279z"/>
  <path fill="#D67909" d="M32.585 7.657c.781-.781.781-2.048 0-2.829l-1.414-1.414c-.78-.78-2.047-.78-2.828 0-.781.781-.781 2.048 0 2.829l1.414 1.414c.781.781 2.048.781 2.828 0z"/>
  <path fill="#D67909" d="M32.585 7.657c.781-.781.781-2.048 0-2.829l-1.414-1.414c-.78-.78-2.047-.78-2.828 0-.781.781-.781 2.048 0 2.829l1.414 1.414c.781.781 2.048.781 2.828 0z"/>
</svg>
