<svg xmlns="http://www.w3.org/2000/svg" viewBox="0 0 36 36">
  <path fill="#FFCC4D" d="M21.388.62c-1.852 0-4.235 1.849-6.22 4.826-2.322 3.483-1.069 5.989-.062 8.002.155.31.459.517.805.549.029.001.059.003.089.003.313 0 .61-.147.8-.4 2.394-3.193 6.211-8.196 6.907-8.893C23.895 4.52 24 4.265 24 4 24 1.508 22.65.62 21.388.62zm2.378 8.995c-1.21 0-2.575 1.132-4.565 3.785-2.124 2.831-2.461 5.313-1.095 8.047.151.302.444.507.779.546.038.005.077.007.115.007.295 0 .577-.131.769-.359 1.719-2.063 5.173-6.168 5.938-6.934.188-.188.293-.442.293-.707 0-1.085 0-4.385-2.234-4.385z"/>
</svg>
