<svg xmlns="http://www.w3.org/2000/svg" viewBox="0 0 36 36">
  <path fill="#3B88C3" d="M18.425 26.836s.568-.446.979-.776c0 0-.409-.721.615-1.479 1.025-.758 1.688-.396 1.688-.396s.231.09 1.038-.153c.383-.115 1.147-.307 1.147-.307s-.041-1.617-.267-2.601l-1.951-.077s-.341-.402-.546-.989c-.142-.404-.479-1.167-.624-1.515-.446-1.069-.73-1.909-.799-2.272 0 0-2.408.956-4.149 1.446-1.348.38-3.291.024-3.291.024.481.655 1.307 2.352 1.823 3.297 1.094 2.003 2.734 3.803 2.297 4.289-.438.487-1.062 1.535-1.062 1.535s.615.449 1.032.802c.584.493 1.072.613 1.072.613s.646-1.102.998-1.441z"/>
</svg>
