<svg xmlns="http://www.w3.org/2000/svg" viewBox="0 0 36 36">
  <path fill="#77B255" d="M20.917 22.502c-2.706-.331-3.895-1.852-6.273-4.889 3.039-2.376 4.559-3.565 7.266-3.235 2.71.332 5.25 2.016 6.273 4.889-1.683 2.543-4.557 3.563-7.266 3.235zm-5.959 8.814c-2.549-.187-3.733-1.553-6.098-4.288 2.735-2.364 4.102-3.547 6.652-3.364 2.551.185 5.009 1.644 6.098 4.287-1.459 2.458-4.1 3.548-6.652 3.365zm-6.22-15.707c1.338 1.631 1.191 3.117.898 6.088-2.97-.294-4.456-.44-5.795-2.071-1.339-1.634-1.861-3.935-.898-6.088 2.301-.524 4.456.439 5.795 2.071zm21.116-5.448c-2.435 1.02-4.16.314-7.613-1.097 1.411-3.453 2.118-5.18 4.549-6.203 2.434-1.021 5.378-.826 7.612 1.096-.194 2.944-2.117 5.181-4.548 6.204zM17.103 6.608c.874 2.869-.124 4.742-2.119 8.488-3.745-1.996-5.619-2.994-6.494-5.864-.876-2.872-.315-6.18 2.118-8.49 3.308.561 5.619 2.993 6.495 5.866z"/>
</svg>
