<svg xmlns="http://www.w3.org/2000/svg" viewBox="0 0 36 36">
  <path fill="#FFDC5D" d="M34.081 1.421C32.56.337 30.55 3.943 30.094 4.437l1.764 1.469-.592 5.579s-1.321-.094-2.653-.205c-1.604-.134-3.431-.579-4.812-.579-1.152 0-2.299.281-2.299.281l-.453-1.713c.97-.747 1.608-1.972 1.608-3.363 0-2.278-1.699-4.125-3.792-4.125-2.094 0-3.786 1.856-3.583 4.125.167 1.861 1.017 3.351 2.405 3.893l-.167 1.441c-.486-.042-2.154-.302-3.21.009-2.333.688-5.404 2.71-6.08 2.81-.474.07-2.608.675-4.14.901-.277.041-.891-.966-1.416-1.033-.15-.02-.686.691-.835.672-.56-.069-1.079-.115-1.307-.022-.926.381-.4 3.381.727 3.213 0 0 2.036-.483 2.793-.574 1.669-.2 4.343-.273 5.317-.536 1.416-.382 4.34-1.451 4.34-1.451-.139.467.49 2.683.605 3.486.268 1.875 1.156 5.023.378 7.146-.888 2.422 6.525.148 8.302.148 0 0-1.548-3.813-.399-6.605.538-1.309 1.863-4.165 1.875-4.517 0 0 7.911.001 8.906-.764 1.012-.777.65-8.46.565-8.232.312-.298 1.434-3.547.14-4.47z"/>
</svg>
