<svg xmlns="http://www.w3.org/2000/svg" viewBox="0 0 36 36">
  <path fill="#55ACEE" d="M17.414 15.586c.391.391.391 1.023 0 1.414L1.708 32.707c-.391.391-1.023.391-1.415 0-.391-.391-.39-1.024 0-1.414L16 15.586c.391-.391 1.023-.391 1.414 0zm-3-3c.391.391.391 1.023 0 1.414L1.708 26.707c-.391.391-1.023.391-1.415 0-.391-.391-.39-1.024 0-1.414L13 12.586c.391-.391 1.023-.391 1.414 0zm-3-3c.391.391.391 1.023 0 1.414L2 20.414c-.391.391-1.023.391-1.415 0-.391-.391-.39-1.024 0-1.414L10 9.586c.391-.391 1.023-.391 1.414 0zm9 9c.391.391.391 1.024 0 1.414L7.708 32.707c-.391.391-1.023.391-1.415 0-.391-.391-.39-1.024 0-1.414L19 18.586c.391-.391 1.023-.391 1.414 0zm3 3c.391.391.391 1.024 0 1.414L14 32.414c-.391.391-1.023.391-1.415 0-.391-.391-.39-1.024 0-1.414L22 21.586c.391-.391 1.023-.391 1.414 0z"/>
</svg>
