<svg xmlns="http://www.w3.org/2000/svg" viewBox="0 0 36 36">
  <path fill="#BF9300" d="M20.859 15.484s-.031-.734-.703-.641c-.672.094-.719.422-1.438.5l-.148.014c-.108-.285-.196-.697-.196-1.014 0-.469.141-.672-.344-.906-.484-.234-.578-.016-.578-.016s-.375-.188-.547-.047c-.172.141-.078.5 0 .391.078-.109.391.203.391.203.106.519-.195 1.081-.401 1.394-.071-.007-.128-.01-.208-.019-.719-.078-.766-.406-1.438-.5-.672-.094-.703.641-.703.641l-.266 5.672.547-.422.003-.067 1.138-1.011.19-.19-.471 1.377s-.719-.047-.516.531c0 0 .109-.328.297-.266s.734.203.734.203l.188.297.234-.219.734-.031s.234.062.219.266c.049-.113.055-.206.037-.283l.221-.015c-.022.08-.018.178.034.299-.016-.203.219-.266.219-.266l.734.031.235.219.188-.297s.546-.141.733-.203.297.266.297.266c.203-.578-.516-.531-.516-.531l-.449-1.313.126.126 1.138 1.011.003.067.547.422-.265-5.673zm-3.107 3.438c-1.127-.696-1.22-2.453-1.22-2.453s.697-.036 1.203-.391c.456.405 1.234.359 1.234.359s-.053 1.764-1.217 2.485zm2.576-3.656l-.953.906-.16.064c-.164.006-.962.008-1.465-.439-.625.438-1.484.469-1.484.469l-.133-.053-1.055-.947-.277.114c.012-.113.074-.367.418-.317.564.081.797.391 1.391.453l.168.017-.059.076c.092 0 .228-.027.328-.049l.113.011-.051.178c.08-.024.196-.093.291-.154l.26.025.059.082.198-.099.133-.013c.115.067.279.127.279.127l.031-.156c.141.094.375.094.375.094-.027-.022-.054-.078-.082-.126l.144-.015c.594-.062.826-.372 1.391-.453.344-.049.406.204.418.317l-.278-.112z"/>
</svg>
