<svg xmlns="http://www.w3.org/2000/svg" viewBox="0 0 36 36">
  <path fill="#AF7E57" d="M2.695 17.336s-1.132-1.65.519-2.781c1.649-1.131 2.78.518 2.78.518l5.251 7.658c.181-.302.379-.6.6-.894L4.557 11.21s-1.131-1.649.519-2.78c1.649-1.131 2.78.518 2.78.518l6.855 9.997c.255-.208.516-.417.785-.622L7.549 6.732s-1.131-1.649.519-2.78c1.649-1.131 2.78.518 2.78.518l7.947 11.589c.292-.179.581-.334.871-.498L12.238 4.729s-1.131-1.649.518-2.78c1.649-1.131 2.78.518 2.78.518l7.854 11.454 1.194 1.742c-4.948 3.394-5.419 9.779-2.592 13.902.565.825 1.39.26 1.39.26-3.393-4.949-2.357-10.51 2.592-13.903L24.515 8.62s-.545-1.924 1.378-2.47c1.924-.545 2.47 1.379 2.47 1.379l1.685 5.004c.668 1.984 1.379 3.961 2.32 5.831 2.657 5.28 1.07 11.842-3.94 15.279-5.465 3.747-12.936 2.354-16.684-3.11L2.695 17.336z"/>
</svg>
