<svg xmlns="http://www.w3.org/2000/svg" viewBox="0 0 36 36">
  <g fill="#5DADEC">
    <path d="M12 32.042C8 32.042 3.958 28 3.958 24c0-.553-.405-1-.958-1s-1.042.447-1.042 1C1.958 30 6 34.042 12 34.042c.553 0 1-.489 1-1.042s-.447-.958-1-.958z"/>
    <path d="M7 34c-3 0-5-2-5-5 0-.553-.447-1-1-1s-1 .447-1 1c0 4 3 7 7 7 .553 0 1-.447 1-1s-.447-1-1-1zM24 2c-.552 0-1 .448-1 1s.448 1 1 1c4 0 8 3.589 8 8 0 .552.448 1 1 1s1-.448 1-1c0-5.514-4-10-10-10z"/>
    <path d="M29 .042c-.552 0-1 .406-1 .958s.448 1.042 1 1.042c3 0 4.958 2.225 4.958 4.958 0 .552.489 1 1.042 1s.958-.448.958-1C35.958 3.163 33 .042 29 .042z"/>
  </g>
</svg>
