<svg xmlns="http://www.w3.org/2000/svg" viewBox="0 0 36 36">
  <path fill="#FFD983" d="M15.156 12.438c.826.727 2.388 1.164 3.471.972l4.892-.866c1.084-.192 1.613.478 1.178 1.488l-1.968 4.563c-.436 1.01-.369 2.63.148 3.602l2.335 4.384c.518.972.044 1.682-1.051 1.58l-4.947-.463c-1.095-.102-2.616.462-3.379 1.254l-3.45 3.577c-.763.792-1.585.562-1.827-.512L9.469 27.17c-.241-1.073-1.248-2.345-2.237-2.827l-4.467-2.175c-.989-.481-1.024-1.335-.078-1.896l4.274-2.534c.946-.561 1.845-1.911 1.997-3.001l.689-4.92c.152-1.09.953-1.387 1.779-.66l3.73 3.281z"/>
</svg>
