<svg xmlns="http://www.w3.org/2000/svg" viewBox="0 0 36 36">
  <path fill="#67757F" d="M7.192 13.168c.795-1.126 3.067-4.339 5.508-4.55 0 0 1.118 1.459 2.565 1.235 1.447-.224 1.482-1.318 1.482-1.318l1.727.149c.494.04.841.148 1.12.281-.163-.101-.304-.189-.391-.246-.435-.287-.837-.638-1.828-.719h-1.639s-.309.699-.751.766S13.56 8 13.56 8l-1.748.167c-2.678.421-4.566 3.941-5.32 4.598.106.104.456.283.7.403z"/>
  <path fill="#67757F" d="M13.762 27.297c-.402-1.36-1.283-4.497-.45-6.056.075-.368-.23-1.357-.318-1.729-.063-.266-.103-2.438-.072-2.717 3.859-.123 5.068-1.763 5.068-1.763s-2.139 1.191-5.354.57c.174-1.719-1.134-4.337-1.134-4.337-.213-.025-.265.168-.408.424 0 0 .774 1.865.912 2.718.137.852.202 2.593.202 2.593s-.005 1.674.058 1.94c.088.372.353 1.449.353 1.884-.952 1.783-.099 2.98.625 6.492.169.008.336.008.518-.019zm7.32-4.562c-.06-.958.024-1.639-.072-1.843-.096-.204-.52-.455-.52-.455s-.201.557-.141 1.516c.055.877.69 1.734.8 2.703.309-.046.406-.073.706-.161-.613-.261-.735-1.154-.773-1.76z"/>
</svg>
