<svg xmlns="http://www.w3.org/2000/svg" viewBox="0 0 36 36">
  <path fill="#C1694F" d="M1.3 32.876c-.08 0-.161-.016-.239-.048-.319-.133-.47-.498-.337-.817 2.393-5.756 6.062-8.645 8.72-10.055 1.57-.833 2.938-2.249 4.036-3.387.663-.687 1.236-1.28 1.767-1.672 1.357-1.003 6.335-4.495 6.547-4.643.282-.199.672-.129.87.153.198.283.13.672-.153.871-.051.036-5.177 3.631-6.521 4.625-.447.331-.986.889-1.61 1.536-1.16 1.201-2.604 2.696-4.35 3.622-2.476 1.314-5.9 4.018-8.151 9.432-.102.238-.334.383-.579.383z"/>
  <path fill="#C1694F" d="M7.538 24.5c-.321 0-.594-.245-.622-.571-.01-.113-.241-2.802-.12-4.437.025-.345.316-.602.669-.578.344.026.603.326.578.669-.114 1.536.116 4.21.118 4.237.03.344-.225.646-.568.677l-.055.003zm6 .356c-.117 0-.234-.032-.339-.101l-.231-.15c-.837-.545-2.399-1.55-3.163-1.477-.345.042-.652-.209-.69-.553-.038-.343.209-.651.552-.689 1.129-.117 2.525.721 3.983 1.672l.228.148c.29.188.373.574.185.864-.12.186-.321.286-.525.286zm2.051-6.85c-.211 0-.411-.106-.521-.307-.534-.979.188-4.022.385-4.512.128-.321.493-.477.812-.348.32.128.476.492.348.812-.262.654-.631 3.017-.444 3.456.131.307.009.686-.292.831-.093.046-.192.068-.288.068z"/>
  <path fill="#C1694F" d="M19.774 20.163c-.127 0-.256-.039-.367-.119-1.576-1.148-2.984-1.563-4.306-1.263-.339.075-.671-.136-.748-.472-.076-.337.136-.671.472-.748 1.689-.382 3.431.099 5.317 1.471.278.203.34.595.138.874-.122.168-.312.257-.506.257zm3.625-3.624c-.069 0-.14-.011-.208-.036-1.02-.36-3.124-.883-4.528-.573-.335.073-.67-.138-.746-.475-.075-.337.138-.671.475-.746 2.074-.457 4.901.503 5.215.615.325.115.496.472.382.797-.091.258-.332.418-.59.418z"/>
</svg>
