<svg xmlns="http://www.w3.org/2000/svg" viewBox="0 0 36 36">
  <path fill="#3E721D" d="M34.449 2.845c2.5 1.136-1.426 5.406-3.624 6.653-2.198 1.248-10.455 5.406-10.99 5.049s3.089-6.772 6.713-9.148 6.594-3.148 7.901-2.554zM18.944 18.587c1.344-.504 6.772 1.366 9.386 3.149 2.614 1.782 4.04 4.634 2.911 5.584s-5.822.238-8.792-2.436-4.456-5.94-3.505-6.297zM9.617 2.964c2.225-.384 2.851 4.218 2.139 7.782S7.954 21.38 7.419 21.498c-.535.119-2.911-5.822-2.495-10.158.416-4.337 2.97-8.079 4.693-8.376z"/>
</svg>
