<svg xmlns="http://www.w3.org/2000/svg" viewBox="0 0 36 36">
  <path fill="#FFF" d="M33.466 22.644c-.281-.184-.694-.577-.766-.693-.282-.469-.605-.566-.827-.566-.027 0-.058.005-.089.008.106-.177.175-.352.175-.517v-9.229H21.875v9.229c0 .165.069.339.175.517-.031-.004-.062-.008-.089-.008-.222 0-.545.098-.827.566-.071.116-.484.51-.766.693-.231.149-.367.389-.384.672-.023.399.206.861.586 1.178.155.13.34.197.533.197.26 0 .482-.119.657-.262 1.661 1.372 3.353 2.04 5.156 2.04s3.495-.668 5.156-2.04c.175.143.398.262.657.262.193 0 .378-.067.533-.197.38-.316.609-.778.586-1.178-.015-.284-.152-.523-.382-.672z"/>
</svg>
