<svg xmlns="http://www.w3.org/2000/svg" viewBox="0 0 36 36">
  <path fill="#F8C600" d="M28.766 13.203h.828s.109-.375.281-.391.219.375.219.375.391.094.562-.016c.172-.109.594.016.266.203s-.141-.203-.328 0-.359.281-.328.359c.031.078-.098.14-.361.14-.264 0-.436-.061-.404-.186.031-.125-.172-.172-.406-.219-.236-.046-.329-.265-.329-.265zm4.427 9.859c-.312-.203-.797-.646-.922-.854s-.375-.499-.641-.189c-.266.309-2.381 2.372-4.714 2.372s-4.448-2.062-4.714-2.372c-.266-.31-.516-.019-.641.189s-.609.651-.922.854-.125.734.25 1.047.828-.375.828-.375c1.297 1.156 2.984 2.234 5.198 2.234s3.901-1.078 5.198-2.234c0 0 .453.688.828.375s.565-.843.252-1.047z"/>
</svg>
