<svg xmlns="http://www.w3.org/2000/svg" viewBox="0 0 36 36">
  <path fill="#FFC6B5" d="M25.078 17.891c-.204.079-.266-.469 0-.859.266-.391 1.047-1.188 1.219-1.922s.475-.625.62-.828c.146-.203.167-.438 0-.484s-.401-.109-.245-.719c.156-.609.828-.547.828-.125 0 .422-.156.797 0 1.125.156.328.516.25.734.875.219.625.297 1.234.156 1.5s-.219 1.281-.406 1.547-.438.156-.391-.328c.047-.484.359-1.141.453-1.484.094-.344-.141-1.047-.484-1.125-.344-.078-.969.719-1.25 1.047-.281.328-.891.578-.922.844-.031.264-.109.857-.312.936z"/>
</svg>
