<svg xmlns="http://www.w3.org/2000/svg" viewBox="0 0 36 36">
  <path fill="#FFF" d="M28.766 21.875c-.359.078-1.156.375-1.594.266-.438-.109-1.219.172-1.328.024-.109-.149.109-.961.141-1.336.031-.375.078-.75.016-.75s-.326 0-.187-.672c.14-.672.374-1.906.374-1.906s-.234-.094-.094-.469c.141-.375.312-1.266.266-1.469s-.391-.141-.266-.453.219-.375.312-.609c.094-.234.286-.419.422-.359s.289.234.441.141c.152-.094.168-.234.371-.219.203.016.638.424.547.516s-.256.41-.284.807c-.028.396-.278 1.365-.356 1.678s.266 1.062.453 1.766c.188.7.766 3.044.766 3.044z"/>
</svg>
