<svg xmlns="http://www.w3.org/2000/svg" viewBox="0 0 36 36">
  <path fill="#4289C1" d="M22.66 30.437c.12-.038.249-.065.374-.097-.19-.282-.388-.577-.588-.879-.118.035-.232.076-.347.116-.312-.481-.592-.917-.802-1.253.118-.035.239-.064.362-.093-.23-.378-.403-.689-.466-.862-.004-.011-.008-.033-.012-.046-.112.03-.227.055-.335.09-.102-.357-.215-.884-.319-1.505.152-.036.305-.072.464-.099-.024-.306-.045-.641-.065-.999-.186.029-.366.065-.544.106-.068-.533-.123-1.093-.156-1.649.206-.042.418-.073.635-.096-.009-.332-.014-.668-.017-1.003-.221.021-.44.045-.651.082-.001-.191.01-.466.021-.688.649-.842 1.058-1.939.713-3.468l-7.889.092s-1.107 9.026-1.107 9.857c0 .828.516 4.528.83 5.856.105.439 3.91.614 3.773-.354-.086-.599-.645-4.492-.554-4.948.086-.431.513-2.597 1.245-4.133l.064.448c.052-.059.108-.112.162-.168.055.507.123 1 .2 1.458-.051.041-.104.08-.153.123.07.461.134.871.191 1.21.059-.066.124-.126.186-.189.124.529.481 1.331.553 1.45-.086.079-.166.165-.247.249.148.243.34.541.557.868.076-.086.154-.17.236-.251.251.392.538.834.837 1.29-.073.07-.138.149-.207.222.199.282.4.562.596.827.057-.065.117-.126.177-.188.427.649.831 1.259 1.131 1.71.237.051.611-.08.999-.304-.316-.475-.825-1.242-1.358-2.053.182-.123.373-.236.574-.338.461.705.94 1.431 1.331 2.02.3-.234.561-.495.714-.733-.339-.509-.726-1.095-1.108-1.678zm-4.093-4.858c-.074-.503-.138-1.044-.184-1.593.27-.169.555-.319.86-.438.038.558.095 1.119.166 1.656-.293.109-.577.231-.842.375zm.179 1.065c.256-.162.527-.308.817-.429.11.628.233 1.174.357 1.575-.243.118-.474.249-.695.393-.041-.07-.347-.866-.479-1.539zm1.851 3.684c-.304-.465-.593-.911-.84-1.297.188-.123.386-.235.594-.337.204.331.491.781.82 1.289-.2.106-.39.221-.574.345z"/>
</svg>
