<svg xmlns="http://www.w3.org/2000/svg" viewBox="0 0 36 36">
  <path fill="#FFAC33" d="M6.899 14.801s3.797 3.054 4.581 4.003c.784.949 8.337 9.946 9.121 11.019.784 1.073 2.518 3.467 2.518 3.467s-7.14-8.419-8.172-9.657-8.048-8.832-8.048-8.832zm6.562-1.569s2.352 2.641 2.848 2.972c.495.33.612-.017.083-.66-.53-.644-2.931-2.312-2.931-2.312zm4.003 4.994s4.664 4.375 5.407 5.448c.743 1.073 4.457 5.283 4.953 6.067.495.784.619 2.064.619 2.064s-1.114-2.435-2.683-4.086-4.829-4.994-5.448-5.695c-.619-.702-2.848-3.798-2.848-3.798zm1.6-1.9s3.358 2.024 4.206 3.016 3.975 3.807 4.547 4.537.636 1.159.636 1.159-1.166-1.479-2.893-2.963c-1.727-1.484-2.921-2.421-3.608-3.056s-2.888-2.693-2.888-2.693zm-5.149-7.551s2.93 1.981 3.467 2.6c.537.619 1.733 1.898 1.527 2.146s-1.321-1.156-1.981-1.692c-.661-.536-3.013-3.054-3.013-3.054z"/>
</svg>
