<svg xmlns="http://www.w3.org/2000/svg" viewBox="0 0 36 36">
  <path fill="#F4900C" d="M24.992 34.054c-.304 0-.595-.175-.729-.47-.575-1.271-1.422-2.395-2.102-3.297-.154-.205-.3-.398-.433-.581-1.5-2.052-3.386-4.594-3.769-5.006-.314-.338-.94-1.133-1.665-2.052-.499-.634-1.013-1.287-1.413-1.772-1.412-1.713-1.495-3.458-.216-4.554 1.303-1.117 2.316-2.479 2.938-3.425.591-.9 1.331-1.142 1.848-1.186 1.153-.099 2.462.634 3.898 2.172.976 1.045 2.886 2.529 4.42 3.721l.33.256c2.333 1.815 3.998 3.47 5.09 5.061.25.364.158.862-.206 1.112-.366.253-.863.157-1.112-.206-.984-1.434-2.583-3.017-4.754-4.704l-.329-.256c-1.579-1.227-3.545-2.754-4.608-3.893-1.022-1.096-1.992-1.721-2.593-1.67-.153.013-.388.076-.646.469-.678 1.033-1.789 2.523-3.234 3.762-.795.682.021 1.851.409 2.321.406.492.929 1.156 1.436 1.8.645.817 1.311 1.663 1.58 1.954.525.565 2.895 3.79 3.888 5.15.13.177.271.363.42.562.728.966 1.633 2.169 2.28 3.6.183.403.004.877-.398 1.059-.107.05-.219.073-.33.073z"/>
</svg>
