<svg xmlns="http://www.w3.org/2000/svg" viewBox="0 0 36 36">
  <path fill="#FFE8B6" d="M15.696 27.613c-.384 0-.75-.223-.916-.597-.223-.505.006-1.096.511-1.318 1.573-.693 4.542-2.287 6.76-5.164 2.202-2.856 1.835-6.188 1.831-6.221-.065-.547.323-1.046.87-1.113.55-.072 1.046.318 1.114.865.021.168.489 4.161-2.231 7.689-2.489 3.229-5.791 5.003-7.537 5.773-.13.059-.267.086-.402.086z"/>
  <path fill="#FFE8B6" d="M24.327 27.031c-.463 0-.879-.323-.978-.795l-1.133-5.395c-.074-.351.046-.714.313-.952s.642-.315.982-.201l4.688 1.566c.523.175.806.741.631 1.266-.174.522-.737.807-1.266.631l-3.033-1.014.774 3.688c.113.54-.232 1.07-.773 1.184-.067.015-.136.022-.205.022z"/>
</svg>
