<svg xmlns="http://www.w3.org/2000/svg" viewBox="0 0 36 36">
  <circle fill="#D99E82" cx="9.008" cy="5.377" r=".691"/>
  <path fill="#D99E82" d="M5.383 12.516c1.836-.977 4.937-4.033 6.016-6.406.51-1.122.428-2.272.115-2.835-.066-.011-.125-.039-.194-.039-.681 0-1.232.552-1.232 1.232 0 .429.232.788.565 1.009-.199.201-.313.472-.347.768-.169-.05-.344-.086-.529-.086-1.024 0-1.853.83-1.853 1.853 0 .161.027.314.065.462-.363.188-.65.498-.802.881-.145-.108-.305-.192-.478-.253.204-.153.345-.386.345-.66 0-.464-.376-.84-.84-.84s-.84.376-.84.84c0 .244.108.46.275.613-.786.203-1.37.911-1.37 1.76 0 .125.013.247.037.364-.065-.01-.123-.039-.191-.039-.734 0-1.328.595-1.328 1.328 0 .139.039.265.079.391.741.151 1.774.047 2.507-.343z"/>
</svg>
