<svg xmlns="http://www.w3.org/2000/svg" viewBox="0 0 36 36">
  <g fill="#FFD983">
    <circle cx="3.318" cy="11.729" r=".657"/>
    <path d="M6.957 11.426c.029-.091.046-.186.046-.288 0-.36-.18-.666-.443-.872.189-.16.315-.389.315-.656 0-.48-.389-.87-.87-.87s-.87.389-.87.87c0 .213.086.402.213.553-.348.192-.594.549-.594.975 0 .598.47 1.075 1.059 1.111.359-.226.739-.492 1.144-.823zM9.95 4.947c.313.229.738.182.948-.105s.127-.706-.187-.935c-.313-.229-.738-.182-.948.105-.21.287-.127.705.187.935zm1.471 1.104c-.239-.284-.587-.474-.994-.474-.736 0-1.332.585-1.332 1.306 0 .621.456 1.108 1.049 1.237.52-.684.964-1.372 1.254-2.012.009-.018.014-.037.023-.057zm-2.424 3.43c-.084-.338-.382-.594-.756-.594-.438 0-.792.345-.792.77 0 .377.284.676.652.742.304-.293.603-.599.896-.918z"/>
    <circle cx="7.848" cy="7.732" r=".78"/>
  </g>
</svg>
