<svg xmlns="http://www.w3.org/2000/svg" viewBox="0 0 36 36">
  <path fill="#99AAB5" d="M25.786 32.106c-.018-.035-.334-.608-.918-1.05.092-.377.05-.748-.275-.988-.806-.593-7.902.202-8.409 2.739-.21 1.049.527 1.049.93.724-.123.447-.19.905-.152 1.335.021.241.234.419.475.398.026-.002.051-.007.075-.013.202-.054.342-.247.323-.462-.026-.299.02-.622.099-.942.18.161.38.293.614.241.28-.063.457-.338.574-.638.014.19.042.312.045.326.062.232.299.369.531.309l.005-.001c.23-.062.368-.298.312-.53-.004-.015-.046-.205-.017-.506.396.239.896.456 1.305.356.521-.127.769-.566.893-.997.393.369.625.801.859 1.303.091.196.308.293.51.239.025-.007.048-.015.072-.026.22-.102.315-.363.213-.582-.166-.357-.371-.789-.711-1.208.31.207.637.352.851.227.149-.087.326-.271.488-.495.338.301.528.646.53.652.099.183.308.269.501.217.031-.008.062-.02.092-.036.216-.116.298-.379.185-.592z"/>
</svg>
