<svg xmlns="http://www.w3.org/2000/svg" viewBox="0 0 36 36">
  <path fill="#99AAB5" d="M11.29 32.904c-2.744-1.233-5.845-3.48-5.898-7.615-.058-4.524 4.073-7.097 4.567-9.714.173 3.065-2.752 5.037-2.722 8.946.028 3.541 1.019 6.223 4.053 8.383zm6.984-.497c-2.612-1.34-5.792-4.185-6.488-8.1-1.002-5.636 1.365-9.11.782-13.372 1.415 4.899.563 7.254 1.436 12.126.568 3.17 2.161 7.531 4.27 9.346zm10.667-4.233c1.759-2.44 3.322-5.937 1.3-9.544-2.212-3.947-7.076-4.11-8.812-6.129 1.383 2.741 4.902 2.986 6.83 6.386 1.748 3.081 2.23 5.9.682 9.287zm-6.296 3.061c1.592-2.466 2.924-6.52 1.569-10.259-1.951-5.382-5.737-7.207-7.363-11.19 1.224 4.951 3.139 6.564 4.819 11.22 1.092 3.03 1.894 7.603.975 10.229z"/>
</svg>
