<svg xmlns="http://www.w3.org/2000/svg" viewBox="0 0 36 36">
  <path fill="#292F33" d="M1.906 35.562c-.55 0-1.031-.438-1.156-1.938l-.031-.562c.156-2 .638.625 1.188.625.55 0 1 .45 1 1-.001.55-.451.875-1.001.875zm3.032.25c-.55 0-1-.45-1-1s.45-1 1-1 1 .45 1 1-.45 1-1 1zM8 36c-.55 0-1-.45-1-1s.45-1 1-1 1 .45 1 1-.45 1-1 1zm3.062-.156c-.55 0-1-.45-1-1s.45-1 1-1 1 .45 1 1-.449 1-1 1zM20 36c-.55 0-1-.45-1-1s.45-1 1-1 1 .45 1 1-.45 1-1 1zm3 0c-.55 0-1-.45-1-1s.45-1 1-1 1 .45 1 1-.45 1-1 1zm2.938-.125c-.55 0-1-.45-1-1s.45-1 1-1 1 .45 1 1-.451 1-1 1zm3.031-.187c-.55 0-1-.45-1-1s.45-1 1-1 1 .45 1 1c0 .549-.45 1-1 1zm3-.188c-.55 0-1-.45-1-1s.45-1 1-1 1 .45 1 1-.45 1-1 1zm2.962-.481h-.281c-.55 0-1-.606-1-1.156 0-.55.45-1 1-1s1.219-.675 1.219-.125l-.063 1.062c0 .55-.325 1.219-.875 1.219z"/>
</svg>
