<svg xmlns="http://www.w3.org/2000/svg" viewBox="0 0 36 36">
  <path fill="#BE1931" d="M14.5 19.425c-.362 0-.69-.247-.777-.614-.103-.43.162-.861.592-.964l3.833-.917c.428-.105.861.162.964.592.103.43-.162.861-.592.964l-3.833.917c-.063.015-.126.022-.187.022zm1.5 3.187c-.288 0-.566-.155-.709-.429-.205-.392-.054-.875.337-1.08l3.542-1.854c.392-.203.874-.054 1.08.338.205.392.054.875-.338 1.08l-3.542 1.854c-.118.062-.245.091-.37.091zm2.25 2.688c-.225 0-.449-.095-.607-.278-.288-.335-.25-.84.085-1.128l2.958-2.542c.336-.288.84-.249 1.128.085.288.335.25.84-.085 1.128l-2.958 2.542c-.15.129-.336.193-.521.193zm3.332 1.5c-.125 0-.252-.029-.37-.091-.392-.205-.543-.688-.338-1.08l1.417-2.708c.205-.391.69-.541 1.08-.338.392.205.543.688.338 1.08l-1.417 2.708c-.143.273-.422.429-.71.429zm3.45.906c-.037 0-.074-.002-.112-.008-.438-.062-.742-.466-.681-.903l.386-2.739c.061-.438.462-.75.903-.681.438.062.742.466.681.903l-.386 2.739c-.055.401-.398.689-.791.689z"/>
</svg>
