<svg xmlns="http://www.w3.org/2000/svg" viewBox="0 0 36 36">
  <path fill="#292F33" d="M1.334 31.216c.787.175 2.201.662 4.591.7 2.755.044 5.187-.525 8.308-.525 2.991 0 6.9.848 10.319.7 3.487-.152 7.35-.652 8.192-.799 1.667-.292 2.438-.479 2.438-.479s.365-.021.531.688c.167.708.304 2.083-.841 2.427-2.186.656-7.554 1.113-12.724 1.049-2.626-.032-5.549-.81-6.966-.976-1.417-.167-2.667-.287-3.062 0-.396.287.089.792-.946.933-2.58.35-8.614.044-9.928-.516-.672-.286-1.051-3.455.088-3.202zm12.102-10.613c-.219 0-.421-.146-.482-.368l-.61-2.224c-.073-.266.084-.542.35-.615.264-.073.541.083.615.35l.61 2.225c.073.266-.084.541-.35.614-.045.012-.09.018-.133.018zm1.505 3.28c-.201 0-.39-.122-.467-.32l-.827-2.153c-.099-.258.03-.548.288-.646.257-.1.547.03.646.287l.827 2.153c.099.258-.03.548-.288.646-.059.022-.12.033-.179.033zm2.992 2.861c-.127 0-.254-.048-.352-.145l-1.639-1.622c-.196-.194-.198-.511-.004-.707s.511-.198.707-.004l1.639 1.622c.196.194.198.511.004.707-.098.099-.226.149-.355.149zm3.998 1.563c-.077 0-.155-.018-.228-.055l-2.053-1.051c-.246-.126-.344-.428-.218-.673.127-.246.431-.343.673-.218l2.053 1.051c.246.126.344.428.218.673-.089.173-.264.273-.445.273zm3.993.755c-.032 0-.065-.003-.098-.01l-2.263-.448c-.271-.054-.447-.316-.394-.587.054-.271.32-.45.587-.394l2.263.448c.271.054.447.316.394.587-.047.239-.256.404-.489.404z"/>
</svg>
