<svg xmlns="http://www.w3.org/2000/svg" viewBox="0 0 36 36">
  <path fill="#FFE8B6" d="M26.902 13.908c.218-.939.159-1.941-.258-2.942-.404-.969-1.106-1.726-1.956-2.239.19-.709.154-1.469-.179-2.228-.501-1.145-1.589-1.903-2.814-2.113.152-.341.214-.76.039-1.288-.595-1.782-2.97-.584-4.751-2.959-1.476.885-1.777 2.208-1.707 3.315-1.352.241-2.132.532-2.132.532v.001c-.808.327-1.379 1.119-1.379 2.044 0 .49.165.939.436 1.305l-.48.179.001.002c-1.384.517-2.36 1.767-2.36 3.229 0 .622.191 1.197.5 1.702C8.176 13.198 7 14.838 7 16.754c0 2.495 1.989 4.518 4.508 4.712 2.663.826 7.99.6 12.076-.091 2.371-.4 4.791-1.82 4.791-4.225 0-1.295-.576-2.445-1.473-3.242z"/>
</svg>
