<svg xmlns="http://www.w3.org/2000/svg" viewBox="0 0 36 36">
  <path d="M14.75 18.212c-2.24.634-5.602.796-7.39.314.725 1.744 2.478 2.977 4.535 2.977 6.145 0 12.417-4.183 12.417-4.183 1.969-1.226 2.972-3.16 2.649-5.188-2.042 2.888-9.869 5.417-12.211 6.08zm-1.615-3.981c4.739 0 9.575-3.069 9.575-3.069 1.583-.937 2.372-2.438 2.02-3.994-6.026 3.918-11.564 5.07-14.918 5.198.633 1.104 1.876 1.865 3.323 1.865zm-1.302-7.676c.236.964 1.1 1.681 2.136 1.681.655 0 1.312-.111 1.936-.277.384-.116.764-.24 1.143-.375 1.456-.565 2.517-1.291 2.517-1.291 1.056-.677 2.143-1.873 2.143-1.873s.369-.831-.25-1.319c-1.745 1.748-7.313 3.478-9.625 3.454z" fill="#FFD983"/>
</svg>
