<svg xmlns="http://www.w3.org/2000/svg" viewBox="0 0 36 36">
  <path fill="#FFAC33" d="M30.414 9.28c-2.266-3.135-6.545-6.934-14.066-7.232l-.372-.015-.126.35c-.063.176-.302.519-.532.851-.679.979-1.609 2.319-1.212 3.52.221.669.814 1.17 1.764 1.491 1.893.639 5.829 3.862 6.602 7.745.215 1.076.155 2.111-.144 3.105-1.624-3.031-4.566-4.938-8.158-4.938-5.814 0-9.527 4.787-9.527 10.67 0 5.082 3.713 10.671 9.527 10.671.029 0 .058-.004.086-.004l.091.006c.602.043 1.608.113 2.826.113 6.086 0 13.838-1.729 16.201-9.968 1.554-5.419.421-11.69-2.96-16.365z"/>
</svg>
