<svg xmlns="http://www.w3.org/2000/svg" viewBox="0 0 36 36">
  <path d="M18.911 30.798c-.17.636 2.905 1.47 5.61-1.461 3.049-3.303 3.239-11.623-3.789-17.297-.071-.021-.133-.033-.2-.049.909 1.172 1.648 2.539 1.938 3.999.208 1.04.154 2.04-.12 3.004 1.932 3.715 2.909 9.93-3.439 11.804zm11.962-6.542c.759-.091 1.894-.461 2.991-.937.104-.723.164-1.455.182-2.19-.908.835-1.941 1.532-2.793 1.92-1.397.636-1.968 1.397-.38 1.207zm-.89-8.257c-2.223 2.032.101 1.333 1.398.508.761-.484 1.315-1.189 1.687-1.972-.429-1.311-.995-2.578-1.693-3.769.118 2.073-.098 4.051-1.392 5.233z" fill="#F4900C"/>
</svg>
