<svg xmlns="http://www.w3.org/2000/svg" viewBox="0 0 36 36">
  <path fill="#FF839B" d="M20.896 3.385c-.043-.434-.357-.791-.782-.889C18.519 2.128 7.344.435 4.96.435l-.195.003c-1.421.065-2.507.79-2.768 1.848-.123.498-.209 1.771 1.624 2.84.551.322.887.661.899.908.01.235-.261.712-1.062 1.283-.794.567-1.119 1.442-.85 2.284.331 1.033 1.467 1.728 2.828 1.728.744 0 1.513-.196 2.285-.582 1.996-.999 4.682-1.643 6.844-1.643 1.066 0 1.971.15 2.689.445.362.149.717.225 1.053.225.619 0 1.965-.2 1.6-.722-2.647-3.787 1.059-4.98.989-5.667z"/>
</svg>
