<svg xmlns="http://www.w3.org/2000/svg" viewBox="0 0 36 36">
  <path fill="#77B255" d="M2.708 18.875c-.808-1.161-2.333-3.5-.708-7 .708-1.833 2.18-3.027 2.375-2.458.458 1.333 1.375 2.5 2.75 2.375-.018.473-.669-4.309 1.625-5.584 1.125-.625 2.333.375 3.708 2.583 2.202 3.537 7.811 1.884 9.385.958 1.594-.938 2.99-1.552 2.573-4.062-.092-.551.743-1.029 1.595-.573 1.431.766 3.498 2.671 3.863 4.761 1.021.271 1.786-.163 2.375-1.354.292-.59 1.292-.729 1.72.041.754 1.356 1.992 5.527.239 9.105-2 4.083-5.042 6.25-11.875 7.125s-15.625-.167-19.625-5.917z"/>
</svg>
