<svg xmlns="http://www.w3.org/2000/svg" viewBox="0 0 36 36">
  <path fill="#F7DECE" d="M16.261 28.432c-.378-.1-.67-.432-.807-.785-.059-.152-.365-1.001-.365-1.001H13.27c.043.214-.037.696-.134 1.197-.062.322-.114.892-.013 1.093.101.201.817.74 1.301.839 1.237.255 2.491-.342 2.644-.517.222-.255-.428-.726-.807-.826zm7.51-3.222c-.334-.065-.607-.336-.746-.634-.06-.129-.22-.651-.22-.651l-1.609.22c.05.183-.027.417-.008.793.017.335-.058.748.042.917.099.169.601.571 1.027.629 1.088.148 2.141-.443 2.264-.604.176-.235-.416-.605-.75-.67z"/>
</svg>
