<svg xmlns="http://www.w3.org/2000/svg" viewBox="0 0 36 36">
  <path fill="#292F33" d="M16.188 2.219c.875-1.312 2.774-1.438 3.637-.469S21.01 4 22.163 4c.368 0 .552.344-.212.688S18.062 5.719 16.875 3.5c-.531-.656-.687-1.281-.687-1.281zm6.589 20.022c.023-.706.412-2.193.265-2.824-.229-.981-1.5-2.047-2.677-2.948-1.177-.901-2.375-1.438-2.375-1.438-.302-1.896.242-2.896.235-3.716-.006-.684-.433-2.648-1.006-3.315h-1.565s.246 1.013-.647 1.112C14.112 9.211 13.56 8 13.56 8l-1.748.167c-.278.043-.549.125-.813.236.376.639.23 2.285 0 2.841.823 1.188 1.536 3.003 1.146 5.256-.346 2.002.473 3.889.473 4.324 0 0-.503 1.749-.2 2.898.403 1.529.768 2.884.81 3.423 1.412 0 1.981-.39 1.981-.39s-.278-.638-.165-1.577c.069-.572.351-1.455.351-2.304 0-.849-.022-1.461.104-1.812s.52-1.576.812-2.704c.534.292 1.493.792 2.084.954.849.232 1.494.595 1.718.79s.376.335.376.335-.07.625-.01 1.583c.055.877.53 1.551.636 2.596.893-.133 1.739-.528 1.739-.528s-.096-1.267-.077-1.847z"/>
</svg>
