<svg xmlns="http://www.w3.org/2000/svg" viewBox="0 0 36 36">
  <path fill="#67757F" d="M12.375 8.594l.904-.086s1.202 1.373 2.096 1.274c.894-.099.841-1.354.841-1.354h1.269c-.085-.168-.173-.319-.266-.428h-1.565s.246 1.013-.647 1.112C14.112 9.211 13.56 8 13.56 8l-1.748.167c-.278.043-.549.125-.813.236.077.131.128.311.165.509.346-.118.973-.282 1.211-.318zm8.667 13.854c-.06-.958.01-1.583.01-1.583s-.151-.141-.376-.335c-.068-.059-.186-.136-.326-.218l.139.126s-.07.625-.01 1.583c.055.877.53 1.551.636 2.596.158-.024.313-.057.464-.093-.175-.763-.492-1.357-.537-2.076zm-8.061 1.701c-.303-1.149.2-2.898.2-2.898 0-.435-.798-2.791-.452-4.793 4-.021 5.26-1.427 5.26-1.427s-2.719 1.26-5.201.533c-.074-1.788-.788-3.661-1.707-4.579-.025.1-.053.188-.082.258.823 1.188 1.536 3.003 1.146 5.256-.346 2.002.473 3.889.473 4.324 0 0-.503 1.749-.2 2.898.403 1.529.768 2.884.81 3.423.178 0 .342-.006.494-.017-.129-.672-.421-1.766-.741-2.978z"/>
</svg>
