<svg xmlns="http://www.w3.org/2000/svg" viewBox="0 0 36 36">
  <path fill="#F3D2A2" d="M14.801 11.245c-.114.64.259 1.431 1.738 1.741 1.479.31 2.554.273 3.324.218.653-.047.563.952.711 1.998.148 1.05.241 2.419.182 2.633-.1.361-.722.479-.439 1.123.283.643.329.995.942.79.613-.205 1.222-.427 1.396-.759.174-.332-.43-1.065-.439-1.463-.007-.294.293-3.972.275-4.405-.022-.528-.035-1.251-.884-1.582-.849-.331-4.108-1.174-4.972-1.342-.912-.177-1.683.199-1.834 1.048z"/>
  <path fill="#F3D2A2" d="M16.495 6.612c.31-.401.546-.872.661-1.455.409-2.083-.794-4.073-2.688-4.444-1.893-.372-4.483 1.029-4.425 3.151.057 2.107 1.229 5.214 2.993 4.69.466-.138.932-.29 1.375-.474.189.224.325 1.081.247 1.815-.2 1.87 2.381 2.065 2.579.192.157-1.482-.768-2.424-.742-3.475z"/>
</svg>
