<svg xmlns="http://www.w3.org/2000/svg" viewBox="0 0 36 36" xml:space="preserve">
  <path fill="#AF7E57" d="M4 18.406c0 .39-.091.775-.265 1.124l-1.376 2.752a4.646 4.646 0 0 0 .586 5.051l2.209 2.651a4.64 4.64 0 0 0 2.1 1.433l6.277 2.092a4.643 4.643 0 0 0 2.938 0l2.328-.776a4.644 4.644 0 0 0 2.938-2.938L22 29s4.637-.971 4.281-2.676C26.281 26.324 28 28 30 26c1.067-1.067 2.134-2.419 2.897-3.448a4.646 4.646 0 0 0 .879-3.343l-.278-2.223a6.373 6.373 0 0 0-4.309-5.256L27 11l-3.071-2.628c.604-3.273-1.159-5.437-3.935-5.702-1.709-.163-4.741.595-4.863 3.545a.98.98 0 0 1-.732.907L11 8l-2.086.834A4.636 4.636 0 0 0 6 13.139c0 .561-.166 1.11-.478 1.578L4.78 15.83A4.64 4.64 0 0 0 4 18.406z"/>
</svg>
