<svg xmlns="http://www.w3.org/2000/svg" viewBox="0 0 36 36" xml:space="preserve">
  <path d="M21.901 28.977c.038 0 .07.018.107.022L22 29l-.266.797a4.62 4.62 0 0 1-.6 1.18H19.62a13.76 13.76 0 0 1-8.951-3.312l-3.418-2.929a.999.999 0 1 1 1.301-1.518l3.418 2.929a11.766 11.766 0 0 0 7.65 2.83h2.281zm4.546-13.872a1 1 0 0 0-1.342.447l-1 2-.013.028-1.96-.795a8.315 8.315 0 0 1-2.767-1.834l-2.659-2.659a.999.999 0 1 0-1.414 1.414l2.659 2.659a10.305 10.305 0 0 0 3.429 2.273l1.957.794c-.8 2.435-.573 4.309-.055 5.627l-2.313-.619a11.776 11.776 0 0 1-5.112-2.999l-4.65-4.65a.999.999 0 1 0-1.414 1.414l4.65 4.65a13.797 13.797 0 0 0 5.997 3.514l4.408 1.178a1.14 1.14 0 0 0 1.277-.501 1.116 1.116 0 0 0-.136-1.357c-.675-.728-1.986-2.747-.478-6.4.007-.016.02-.028.026-.044.006-.015.003-.03.008-.045.103-.244.219-.496.348-.754l1-2a.998.998 0 0 0-.446-1.341zm3.377 5.39c-.784-.61-1.705.573-.922 1.184 1.458 1.136 1.119 2.814 2.152 2.814 1.674 0 .105-2.958-1.23-3.998zM17.35 6.031c1.536-.751 3.074-.775 4.736.013.723.341.567-2.022-2.356-2.073-2.903-.078-3.12 2.418-2.38 2.06zm2.06 4.679c2.963.122 4.646-1.791 4.38-3.125-.044-.361-.675-.348-.738-.118-.426 1.559-3.573 2.456-5.686 1.104-1.614-1.012-.985-1.702-1.654-1.716-1.235-.022.121 3.823 3.698 3.855z" fill="#90603E"/>
</svg>
