<svg xmlns="http://www.w3.org/2000/svg" viewBox="0 0 36 36">
  <path fill="#CCD6DD" d="M11.385 33.301c-.055 0-.109-.022-.149-.067L11 32.971c-.073-.082-.066-.209.016-.282.083-.073.207-.067.283.016l.235.263c.073.082.066.209-.016.282-.039.034-.085.051-.133.051zm-.529.406c-.063 0-.127-.031-.165-.088l-.209-.308c-.062-.092-.039-.216.053-.278.089-.061.216-.039.277.053l.209.308c.062.092.039.216-.053.278-.033.024-.072.035-.112.035zm-.57.325c-.071 0-.141-.038-.177-.106l-.159-.299c-.052-.098-.015-.219.083-.271.094-.052.218-.016.271.083l.159.299c.052.098.015.219-.083.271-.029.016-.062.023-.094.023zm4.098.941c.024-.013.116-.06.215-.162.033-.034.031-.089.022-.143-.011-.067-.083-.559-.181-.54 0 0-.143.04-.26.002-.117-.038-.371-.013-.555.022-.184.036-.878.158-1.345.315-.467.157-1.277.556-1.56.648-.283.091-.728.215-1.074.252-.346.037-.657.058-.851.062-.251.004-.466-.025-.628-.085 0 0 .136.366.772.488.502.097.959.099 1.381.025.032-.006 1.15-.231 1.708-.346.408-.084 1.06-.215 1.06-.215.774-.151 1.162-.247 1.296-.323z"/>
</svg>
