<svg xmlns="http://www.w3.org/2000/svg" viewBox="0 0 36 36">
  <path fill="#F18F26" d="M32.347 26.912c0-.454-.188-1.091-.407-1.687.585.028 1.519.191 2.77.817-.008-.536-.118-.984-.273-1.393.041.02.075.034.116.055-1.103-3.31-3.309-5.517-3.309-5.517h2.206c-2.331-4.663-4.965-8.015-8.075-9.559-1.39-.873-3.688-1.338-7.373-1.339h-.003c-3.695 0-5.996.468-7.385 1.346-3.104 1.547-5.734 4.896-8.061 9.552H4.76s-2.207 2.206-3.311 5.517c.03-.015.055-.025.084-.04-.201.392-.307.847-.282 1.377 1.263-.632 2.217-.792 2.813-.818-.189.513-.343 1.044-.386 1.475-.123.371-.191.812-.135 1.343C6.75 26.584 8.25 26.792 10 27.667 11.213 31.29 14.206 34 18.001 34c3.793 0 6.746-2.794 7.958-6.416 1.458-1.25 3.708-.875 6.416.416.066-.414.036-.773-.036-1.093l.008.005z"/>
</svg>
