<svg xmlns="http://www.w3.org/2000/svg" viewBox="0 0 36 36">
  <path fill="#FFD983" d="M31.243 23.601c.006 0 1.108.003 3.309 1.103-1.249-2.839-7.525-4.07-9.931-3.291-1.171 1.954-1.281 5.003-3.383 6.622-1.741 1.431-4.713 1.458-6.479 0-2.345-1.924-2.559-5.813-3.382-6.622-2.407-.781-8.681.454-9.931 3.291 2.201-1.101 3.304-1.103 3.309-1.103 0 .001-1.103 2.208-1.103 3.311l.001-.001v.001c2.398-1.573 5.116-2.271 7.429-.452 1.666 7.921 12.293 7.545 13.833 0 2.314-1.818 5.03-1.122 7.429.452v-.001l.001.001c.002-1.103-1.101-3.311-1.102-3.311z"/>
</svg>
