<svg xmlns="http://www.w3.org/2000/svg" viewBox="0 0 36 36">
  <path fill="#F4900C" d="M17.411 27.376c-1.459.092-2.938-.066-4.379-.503-3.156-.961-5.748-3.093-7.3-6.003-1.217-2.283-1.473-4.902-.719-7.376.752-2.474 2.424-4.507 4.707-5.724 1.781-.95 3.822-1.149 5.751-.561 1.929.586 3.514 1.89 4.463 3.67.734 1.377.889 2.958.434 4.451-.454 1.494-1.462 2.721-2.84 3.455-1.056.562-2.267.682-3.412.333-1.144-.348-2.085-1.122-2.648-2.178-.879-1.648-.253-3.704 1.395-4.583.592-.317 1.272-.384 1.915-.187.231.07.447.171.644.299-.672-.327-1.486-.34-2.194.037-1.347.719-1.858 2.399-1.14 3.746.404.758 1.079 1.313 1.901 1.564.822.25 1.692.166 2.45-.239 1.836-.98 2.534-3.271 1.555-5.108-.562-1.055-1.502-1.827-2.645-2.174-1.143-.349-2.353-.231-3.408.332-2.601 1.388-3.589 4.633-2.202 7.235.809 1.517 2.162 2.629 3.807 3.13 1.645.5 3.387.33 4.905-.479 1.839-.98 3.187-2.62 3.794-4.614.605-1.994.399-4.105-.58-5.944-1.195-2.241-3.193-3.884-5.623-4.624-2.432-.74-5.004-.489-7.245.708-2.744 1.463-4.754 3.907-5.66 6.883-.905 2.976-.598 6.125.865 8.869.917 1.721 2.151 3.202 3.623 4.392 1.924 1.028 4.12 1.615 6.455 1.615 1.151.002 2.263-.155 3.331-.422zm-1.325-12.548c.161-.086.288-.211.377-.356-.071.566-.407 1.09-.947 1.378-.297.158-.637.19-.957.093-.321-.098-.585-.314-.743-.611-.21-.393-.06-.884.333-1.094.067-.036.14-.053.212-.053.161 0 .318.086.399.238.255.479.848.661 1.326.405z"/>
</svg>
