<svg xmlns="http://www.w3.org/2000/svg" viewBox="0 0 36 36">
  <path fill="#FFCC4D" d="M24.515 8.499C22.946 5.027 18.398 1.187 12.744.564c-.212-.023-.423-.033-.633-.047-3.6.52-6.743 2.429-8.871 5.176 3.382-2.809 6.776-3.214 9.264-2.944 4.835.533 8.694 3.751 10.006 6.655 2.009 4.448.023 9.702-4.424 11.71-1.669.755-3.534.812-5.247.165-1.714-.647-3.074-1.924-3.828-3.594-1.196-2.647-.015-5.774 2.631-6.97 2.007-.906 4.38-.01 5.287 1.997.564 1.251.19 2.691-.822 3.524.263-.27.47-.593.607-.956.261-.692.237-1.444-.067-2.118-.35-.775-.981-1.369-1.777-1.669-.797-.301-1.663-.274-2.437.077-.903.407-1.594 1.142-1.944 2.068-.35.927-.318 1.934.089 2.837.479 1.061 1.343 1.873 2.433 2.284 1.09.412 2.275.373 3.335-.105 2.599-1.174 3.76-4.246 2.586-6.847-1.405-3.111-5.083-4.497-8.195-3.095-3.752 1.696-5.425 6.128-3.731 9.88.997 2.206 2.792 3.891 5.056 4.745 1.042.394 2.124.59 3.205.59 1.269 0 2.534-.27 3.725-.808 5.551-2.51 8.029-9.067 5.523-14.62zm-9.859 6.003c-.054.142-.16.255-.297.318-.554.249-.799.9-.55 1.454.119.264.329.458.576.562-.202-.017-.402-.062-.597-.134-.54-.205-.969-.607-1.206-1.133-.166-.367-.179-.777-.036-1.154.142-.376.423-.676.792-.841.129-.059.267-.088.405-.088.118 0 .236.021.349.064.247.094.442.276.551.518.062.138.066.292.013.434z"/>
</svg>
