<svg xmlns="http://www.w3.org/2000/svg" viewBox="0 0 36 36">
  <path d="M19.984 24.417l2.474-1.709 1.281 2.614c.24.185.28.276 1.615 1.052 1.203.699 3.46 3.091 4.21 4.025.213.198.259.341.393.701l-1.023.266s-.182-.34-.476-.533c-1.453-.618-6.23-3.343-6.23-3.343-.394-.283-.64-.478-.78-.72 0 0-1.245-1.86-1.464-2.353zm-6.078-2.65l2.515 1.534c-.171.271-.513.854-.797 1.59-.083.213-.154.445.201.701.2.146.59.466.889.704.204.163.438.349.714.563.997.778 2.994 2.961 3.16 3.124.166.164.283.377.344.662-.087.019-.965.233-.965.233s-.123-.307-.421-.487c-.929-.561-6.214-3.599-6.214-3.599-.69-.495-1.067-.722-1.005-1.432.108-1.241 1.249-3.137 1.579-3.593zm8.518-12.445c.268-.28.705-.422 1.299-.422 1.689 0 3.358.215 3.783.3.118.023.173.024.301-.052.318-.188.435-.697.583-1.341.049-.217.102-.445.165-.672.279-1.001.588-2.46.55-2.736-.053-.384.312-3.219.356-3.262.071-.07.274.067.413.075.111.007.19.098.308.176.682.447.78 1.376.849 2 .042.386-.62 1.095-.684 1.502-.021.133.012.946-.03 2.03-.044 1.135-.082 2.63-.124 2.869-.101.572-.285.962-1.087 1.159-.604.147-2.17.29-3.465.359-.65.035-1.848.115-2.147.144-.647.062-.771-.158-1.088-.432-.192-.167-.296-.389-.309-.66-.016-.443.092-.793.327-1.037zM2.393 12.423c.285-.016.335-.059.612-.053.406.009.393.056.577.053.399-.006.967-.034 1.387-.084.31-.037 1.968-.116 2.419-.198.614-.113 1.384-.261 2.798-.152.794-.409 1.869-.87 2.823-1.279.699-.3 1.359-.583 1.802-.8.223-.109.442-.165.652-.165.156 0 .308.031.449.092.325.141.568.43.686.813.043.142.162.638-.108 1.073-.216.347-.624.573-1.214.671-.618.102-1.111.368-1.979.636-.857.265-2.101.615-3.084.826 0 0-1.562-.168-2.374-.217-1.124-.068-2.651-.447-3.06-.324-.518.157-1.068.303-1.715-.03-1.106-.569-2.212-.236-2.095-.707.027-.109.881-.125 1.424-.155z" fill="#F3D2A2"/>
</svg>
