<svg xmlns="http://www.w3.org/2000/svg" viewBox="0 0 36 36">
  <path fill="#292F33" d="M25.327 25.622c-.152-.132-.369-.159-.551-.069l-4 2c-1.871.935-6.727.947-6.776.947-.276 0-.5.224-.5.5 0 .185.101.347.25.433v.001h.001v.001c.071.04.153.063.24.065h7.008c2.658 0 4.089-2.186 4.475-3.342.064-.192.006-.403-.147-.536z"/>
  <g fill="#292F33">
    <ellipse cx="12" cy="14.5" rx="2" ry="3.5"/>
    <ellipse cx="24" cy="14.5" rx="2" ry="3.5"/>
    <path d="M21 12c-.256 0-.512-.098-.707-.293-.391-.391-.391-1.023 0-1.414C24.537 6.049 28.819 6 29 6c.553 0 1 .448 1 1 0 .551-.445.998-.995 1-.065.001-3.687.096-7.298 3.707-.195.195-.451.293-.707.293zm-6 0c-.256 0-.512-.098-.707-.293C10.667 8.082 7.031 8 6.995 8c-.551-.006-.995-.455-.992-1.005C6.006 6.444 6.45 6 7 6c.18 0 4.463.049 8.707 4.293.391.391.391 1.023 0 1.414-.195.195-.451.293-.707.293z"/>
  </g>
</svg>
