<svg xmlns="http://www.w3.org/2000/svg" viewBox="0 0 36 36">
  <path fill="#664500" d="M29.52 15.42c-.294 0-.582-.138-.771-.4-2.543-3.521-5.837-3.599-5.976-3.6-.53-.006-.957-.456-.954-1.005.003-.551.43-.995.96-.995.177 0 4.369.05 7.511 4.4.32.442.233 1.069-.193 1.4-.174.135-.376.2-.577.2zm-25.04 0c-.2 0-.403-.065-.577-.2-.426-.331-.511-.958-.193-1.4 3.141-4.35 7.334-4.4 7.511-4.4.532 0 .963.448.963 1 0 .551-.429.998-.959 1-.15.002-3.437.086-5.975 3.6-.187.262-.477.4-.77.4zm10.223 1.598c-.013.009-1.262.902-3.703.902-2.442 0-3.69-.893-3.7-.9-.194-.146-.466-.132-.644.037-.177.167-.208.438-.072.641.061.09 1.515 2.222 4.416 2.222 2.9 0 4.355-2.132 4.416-2.223.134-.202.104-.47-.071-.638-.176-.169-.449-.184-.642-.041zm12.642.042c-.175-.169-.447-.186-.643-.042-.012.009-1.262.902-3.702.902-2.441 0-3.69-.893-3.7-.9-.193-.146-.466-.132-.644.037-.177.167-.207.438-.072.641.061.09 1.515 2.222 4.416 2.222 2.9 0 4.355-2.132 4.416-2.223.135-.201.104-.469-.071-.637zm-4.86 11.239c-.011-.044-1.145-4.379-5.485-4.379s-5.474 4.335-5.485 4.379c-.053.213.044.431.232.544.188.112.433.086.596-.06.009-.008 1.013-.863 4.657-.863 3.59 0 4.617.83 4.656.863.095.09.219.137.344.137.084 0 .169-.021.246-.064.196-.112.294-.339.239-.557z"/>
</svg>
