<svg xmlns="http://www.w3.org/2000/svg" viewBox="0 0 36 36">
  <path fill="#F3F7F9" d="M17.283 27.456c-.024.016-1.782 1.313-3.111 3.113-.49.664-.777 1.445-1.039 2.228-.085.254-.205.499-.36.729-.02.05-.05.09-.08.14-.15.21-.32.4-.51.57-1.11.97-2.78 1.1-4.05.21-.36-.26-.65-.57-.87-.93-.74.27-1.59.19-2.27-.3-1.11-.78-1.37-2.31-.59-3.42.03-.04.07-.07.1-.11-.72-1-.621-2.476.495-3.358.964-.761 2.293-.637 3.215.174l.025.022c1.1.988 2.532 1.54 3.988 1.284 1.198-.211 2.708-.593 4.607-1.232.23-.08.49.03.6.25.12.22.05.49-.15.63z"/>
</svg>
