<svg xmlns="http://www.w3.org/2000/svg" viewBox="0 0 36 36">
  <path fill="#292F33" d="M23.042 19.417c-.229-.981-1.5-2.047-2.677-2.948-1.177-.901-2.375-1.438-2.375-1.438.034-.487-.172-1.295-.089-2.016.099-.853.26-1.689.26-1.689s1.633.727 3.402 1.267c.302-.363.618-1.395.559-1.833-.903-.841-2.483-1.754-2.919-2.042s-.837-.637-1.828-.718h-1.639s-.099.856-.749.918C14.337 8.98 13.56 8 13.56 8l-1.748.167c-2.198.338-4 3.024-4.794 4.151-.36.283-.36.283-.526.447.927.602 2.128 1.035 2.128 1.035 1.188-1.024 2.078-1.535 2.474-2.113 0 0 .659 1.356.912 2.388.253 1.032.202 2.925.202 2.925s-.005 1.674.058 1.94c.088.372.353 1.449.353 1.884 0 0-.606 1.335-.302 2.484.403 1.529.885 3.468.927 4.008 1.412 0 1.667-.359 1.667-.359s.02-.839.134-1.778c.069-.572.269-1.544.269-2.393 0-.849.217-1.424.343-1.776s.601-1.452.677-2.052c.02-.162.008-.374-.022-.6.534.292 1.493.792 2.084.954.849.232 1.494.595 1.718.79s.376.335.376.335-.201.557-.141 1.516c.055.877.693 1.658.8 2.703.893-.133 1.53-.499 1.53-.499s.079-1.336.098-1.916c.023-.706.412-2.193.265-2.824z"/>
</svg>
