<svg xmlns="http://www.w3.org/2000/svg" viewBox="0 0 36 36">
  <path fill="#002D62" d="M18.438 15.282c.019-.05.038-.122.056-.188-.142-.018-.313-.03-.472-.03-.16 0-.331.012-.473.03.018.066.037.138.056.188.012.038-.062.131-.329.115-.229-.013-.563.009-.854.059.049.075.067.09.062.148-.007.065-.16.126-.427.164-.267.037-.37.314-.462.711-.105-.044-.271-.086-.375-.101.06-.258.267-.844.526-.903-.063-.14-.048-.21.193-.323.261-.122.703-.196 1.19-.214-.031-.118 0-.165.153-.231.131-.057.339-.1.741-.1.4 0 .609.043.739.1.154.065.184.113.154.231.486.018.929.092 1.189.214.241.112.256.183.193.323.258.059.466.645.525.903-.101.015-.27.058-.373.101-.092-.397-.196-.674-.464-.711-.267-.038-.421-.099-.427-.164-.007-.058.013-.073.061-.148-.29-.05-.626-.072-.853-.059-.266.016-.34-.078-.329-.115z"/>
</svg>
