<svg xmlns="http://www.w3.org/2000/svg" viewBox="0 0 36 36">
  <path d="M17.908 17.948l-.197-.575.001-.003c.054-.044.194-.107.277-.065.058-.07.215-.139.299-.095l.178.545c-.026.021-.063.026-.102.031-.039.004-.079.01-.109.028-.022.013-.065.037-.072.056-.032-.012-.103-.002-.147.011-.019.006-.035.018-.052.03-.023.016-.046.032-.076.037zm-.191-.575l.193.57c.025-.006.047-.022.069-.038.018-.013.034-.024.054-.031.045-.015.114-.024.148-.009.003-.019.046-.043.066-.055.035-.021.076-.026.116-.031.038-.004.074-.009.097-.026l-.178-.54c-.075-.039-.226.02-.293.096-.081-.042-.218.022-.272.064z"/>
</svg>
