<svg xmlns="http://www.w3.org/2000/svg" viewBox="0 0 36 36">
  <path fill="#549334" d="M19.707 20.28c.163-.001.379.043.447.068-.069-.056-.173-.108-.285-.149.149.024.187.049.287.074.069.02.08.027.083.127.001.067.001.154.042.014.038-.126.052-.144-.015-.186-.071-.049-.162-.095-.261-.135.192.05.348.112.441.173-.047-.072-.122-.16-.236-.229.112.026.262.087.367.144-.05-.067-.138-.179-.244-.229.17.036.351.092.449.147-.095-.125-.203-.235-.345-.278.189.023.368.08.449.129-.11-.105-.225-.216-.338-.254.155.021.299.061.383.099-.105-.105-.282-.194-.449-.22.117.002.267.013.394.039-.106-.068-.288-.114-.368-.108.193-.044.41-.038.647.04-.1-.062-.274-.133-.443-.171.094-.005.231-.027.319-.015-.095-.032-.329-.079-.434-.073.19-.056.379-.092.493-.113-.199-.013-.423 0-.622.032.22-.187.38-.187.523-.211.142-.025.249-.056.101-.071-.096-.009-.174-.017-.241-.018.155-.047.351-.146.416-.181.065-.034.224-.149.053-.072-.171.078-.416.09-.638.115-.095.011-.164.029-.229.064.12-.069.255-.142.396-.21.141-.068.11-.091.233.049.059.069.055 0-.022-.178-.062-.138-.115-.074-.25-.021-.05.02-.114.048-.188.088.078-.093.348-.405.392-.458.048-.053.119.009.211.068.088.06.058.003-.026-.094-.085-.096-.125-.111-.181-.064-.055.047-.325.218-.476.361.276-.261.596-.556.669-.639-.158.085-.3.18-.427.278.044-.062.124-.178.166-.227-.064.043-.152.089-.202.136.074-.132.152-.253.163-.274.017-.034.035-.042.061-.044l.14-.012c.08-.006.049-.023.014-.032-.222-.058-.213-.033-.263.015-.036.037-.085.094-.136.16.056-.173.224-.334.251-.383-.174.096-.266.171-.328.25.079-.128.328-.324.403-.402-.077.031-.239.112-.282.162.041-.073.08-.149.116-.227-.136.086-.234.201-.312.334.008-.032.021-.08.034-.12.044-.085.164-.202.226-.271.063-.068.077-.087.254.025-.026-.077-.061-.131-.091-.174-.051-.077-.075-.044-.145.014-.039.031-.075.075-.145.136.076-.196.165-.406.212-.542-.127.124-.226.294-.306.485.006-.137.081-.417.068-.56-.06.075-.124.203-.154.352-.004-.151-.006-.338-.043-.445.011.093-.085.306-.11.455-.06-.142-.126-.279-.164-.374.003.074.024.245.056.447-.05-.155-.231-.317-.237-.441-.005.18.125.485.139.572.002.028.013.07.023.118-.062-.1-.21-.28-.249-.398 0 .074.028.204.042.285-.078-.072-.133-.03-.265.219.043-.013.093-.068.13-.093s.072-.052.112.012c.05.082.185.27.258.51-.021-.069-.146-.231-.19-.302.01.034.032.146.047.211-.06-.163-.122-.279-.167-.345-.004.081.056.309.065.405-.035-.083-.074-.156-.105-.218.023.064.057.292.053.409-.051-.092-.103-.167-.142-.223.032.094.059.28.064.387-.018-.036-.033-.063-.045-.082-.062-.1-.103.081-.14.174-.038.093-.018.08.025.016.065-.099.057-.086.095.022.024.064.091.217.146.417-.054-.088-.129-.205-.169-.292-.041-.087-.044-.082 0 .091.028.113.099.323.07.547-.04-.142-.092-.312-.149-.465.008.097.02.281.02.359-.024-.045-.052-.082-.083-.11.041.131.051.358.051.5-.022-.09-.053-.175-.084-.229-.003.103.026.345.051.456-.021-.086-.054-.17-.09-.237.021.116.028.307-.006.431-.006-.064-.025-.122-.048-.189-.01.058-.024.227-.065.3.023-.107.025-.207.016-.268-.031.117-.072.225-.119.315.015-.055.036-.16.042-.264-.014.065-.058.118-.082.174.012-.092.015-.169.011-.205-.047.156-.114.268-.204.391.048-.126.061-.26.061-.341-.08.141-.087.201-.214.369.067-.14.055-.258.041-.324-.01.036-.054.14-.118.252-.013-.079.005-.278.03-.334-.055.037-.13.144-.13.224-.02-.081-.052-.153-.1-.205.043.278.027.52-.14.631-.372.244-.687.785-1.142.986.032.018.106.081.144.125.435-.192.728-.625 1.065-.867.16-.086.527.107.932.002.156-.04.46.05.596.106-.064-.087-.187-.157-.406-.2z"/>
  <path fill="#549334" d="M16.575 19.999c.075-.013.28-.011.443.016-.108-.041-.039-.298-.17-.394.134.062.191.04.262.052l.025.007c-.006-.033.003-.108.031-.148.018.068.093.083.158.133.01.007.021.017.033.028.003-.081.12-.187.133-.24.025.072.091.123.115.225.062.262-.143.317-.068.504.372.244.703.731 1.157.933-.032.018-.106.081-.143.125-.603-.267-.992-1.04-1.544-1.078l-.042.017c-.137.066-.265.116-.386.09-.121-.023-.23.014-.33.06.153-.237.232-.305.326-.33-.079.031-.234.055-.348.007-.068.165-.228.212-.371.23-.143.02-.248.077-.293.156-.015-.072-.008-.198.01-.234-.062-.008-.137-.01-.227.005.085-.033.162-.274.37-.303-.039-.026-.073-.057-.102-.098.049.028.093-.003.183-.027.045-.013.117-.022.183-.02-.071-.049-.124-.139-.137-.204-.064.194-.276.246-.401.255-.15.01-.221.059-.249.1 0-.092.03-.167.064-.217-.062.006-.119.008-.151.021.027-.144.097-.229.171-.276-.091-.021-.217-.181-.224-.295.072.083.367-.003.511.158-.091-.078-.139-.176-.147-.287.033.044.104.045.174.085-.097-.352-.341-.273-.485-.385-.183-.144-.109-.393-.255-.511.064 0 .117.004.16.015-.031-.076-.03-.226-.027-.316.035.112.159.097.237.206.013-.031.02-.062.015-.091.056.067.108.125.141.187-.01-.118.038-.187.074-.219-.003.042.009.144.056.237s.065.199.03.37c-.032.162.034.287.117.406.009-.071-.001-.278-.023-.343s-.032-.174-.01-.296c.013.05.071.122.134.183.016.016.027.037.035.062.02-.044.033-.078.048-.115.02-.056-.239-.15-.225-.442-.174-.097-.331-.226-.374-.459.019.019.054.034.096.05-.096-.143-.121-.324-.087-.414.023.075.099.094.181.152.02-.155-.144-.267-.14-.416.006-.236.13-.239.173-.386.034.054.059.104.077.157.028-.099.148-.173.15-.248.062.09.108.191.074.293.081-.024.174-.007.226.03-.152.028-.143.211-.243.258-.1.047-.287.178-.24.376.062.068.12.177.153.364.03.029.057.065.076.107.025-.042.048-.092.066-.148-.009-.078-.112-.164-.14-.24-.038-.101.052-.255.016-.392.049.019.133.05.192.125.046-.108.135-.176.137-.357.037.071.068.149.088.226.055-.075.154-.161.27-.195-.072.124-.047.246-.05.349-.003.102-.006.274-.155.388-.149.116-.188.147-.22.438.063-.137.214-.243.22-.316.031.13.056.23.052.319.05-.059.14-.092.246-.097-.075.086-.131.425-.33.465-.198.041-.278.242-.332.324-.068.103-.085.182-.017.318-.003-.109.02-.227.054-.296.066-.132.208-.187.217-.28.019.098.029.176.025.241.1-.202.311-.144.37-.203-.041.053-.083.127-.103.237-.018.108-.102.21-.22.267-.092.044-.172.051-.22.146-.012.056.036.103.036.188.005-.031.014-.06.028-.08.057-.082.094-.144.094-.19.125.124.152.246.112.376-.04.132-.07.238.011.342.048.041.104.071.156.087.066-.066-.011-.146-.086-.224-.075-.077-.068-.26-.006-.335.062-.077.116-.156.112-.224.046.04.096.113.111.153.024-.06.059-.113.106-.142.01.109.081.159.081.277.032-.071.084-.133.156-.156-.016.06.039.151.047.208.006.045 0 .096-.022.152-.022.059-.061.119-.152.165-.029.014-.074.028-.119.049.106-.014.299.021.343.1-.079-.03-.25.033-.334.067z"/>
</svg>
