<svg xmlns="http://www.w3.org/2000/svg" viewBox="0 0 36 36">
  <g fill="#CE1225">
    <path d="M18.12 20.687c-.02-.018-.049-.026-.098-.026-.048 0-.077.009-.097.026-.196-.067-.323-.038-.323.023v.188c0 .032.072.072.337.008.02.012.041.022.083.022.043 0 .067-.01.087-.024v.001c.266.065.338.024.338-.008v-.188c0-.062-.128-.092-.327-.022z"/>
    <path d="M18.427 20.679c.082.01.176.024.238.055-.009.041-.029.191-.029.225-.047-.031-.146-.064-.208-.07v-.21zm-.805 0c-.082.01-.175.024-.238.055.01.041.03.191.03.225.046-.031.146-.064.207-.07v-.21z"/>
    <path d="M18.022 20.485c.567 0 1.023.034 1.386.112-.044.034-.083.079-.112.101-.033.028-.021.106.054.173.075.064.257.121.438.042l.104-.046c-.051.043-.093.1-.07.153.107.239.519-.075.765.226.066-.084.231-.259.299-.324-.14-.17-.335-.142-.496-.129.059-.097.065-.171-.064-.263-.052-.038-.233-.032-.399.043.03-.078.025-.206-.232-.319-.392-.176-1.057-.212-1.672-.212-.616 0-1.282.036-1.674.212-.257.113-.263.241-.231.319-.168-.075-.347-.081-.401-.043-.128.092-.121.166-.062.263-.162-.013-.357-.041-.497.129.068.066.234.24.298.324.246-.302.659.013.765-.226.024-.054-.018-.11-.068-.153l.103.046c.181.079.364.022.438-.042.075-.067.087-.145.054-.173-.03-.022-.067-.067-.113-.101.363-.077.819-.112 1.387-.112z"/>
  </g>
</svg>
