<svg xmlns="http://www.w3.org/2000/svg" viewBox="0 0 36 36">
  <path fill="#FFF" d="M18.022 18.743c-.498.267-.821.057-.821-.198v-.318c-.193 0-.411-.099-.411-.162v-.273c0 .081.324.155.411.155v-.958l.18.143v-.249l.274.28v.196l-.181-.153v.81c.187 0 .333.111.548.111.214 0 .36-.111.547-.111v-.81l-.18.153v-.196l.273-.28v.249l.181-.143v.958c.087 0 .41-.075.41-.155v.273c0 .063-.218.162-.41.162v.318c0 .255-.324.466-.821.198v-.279c.267.155.547.193.547.025v-.199c-.187 0-.333.112-.547.112-.215 0-.361-.112-.548-.112v.199c0 .168.281.13.548-.025v.279z"/>
</svg>
