<svg xmlns="http://www.w3.org/2000/svg" viewBox="0 0 36 36">
  <path fill="#292F33" d="M2.488 33.514c2.41 2.41 5.103 3.627 7.688 1.042 1.835-1.835 1.368-5.277-1.043-7.689-2.411-2.41-5.852-2.877-7.688-1.042-2.585 2.585-1.368 5.277 1.043 7.689zm6.553-6.554c1.808 1.808 2.158 4.39.782 5.767-1.938 1.938-3.958 1.025-5.767-.783-1.809-1.807-2.721-3.826-.782-5.766 1.376-1.376 3.958-1.026 5.767.782zM33.513 2.487c-2.41-2.411-5.102-3.627-7.688-1.042-1.835 1.835-1.368 5.277 1.043 7.688 2.411 2.411 5.851 2.878 7.688 1.042 2.585-2.585 1.368-5.278-1.043-7.688zM26.96 9.04c-1.808-1.808-2.158-4.389-.782-5.766 1.938-1.938 3.958-1.026 5.767.782 1.809 1.808 2.721 3.827.782 5.766-1.376 1.376-3.958 1.026-5.767-.782z"/>
  <circle fill="#292F33" cx="18" cy="18" r="17"/>
</svg>
