<svg xmlns="http://www.w3.org/2000/svg" viewBox="0 0 36 36">
  <path fill="#3E721D" d="M35.125 13.344c0-1 .771-2.327.771-2.635 0-.656-1.553-.421-1.626-1.046-.209-1.794 1.887-3.318-1.745-3.312-1.352.002-.274-1.768-.274-2.725 0-.957-2.596-.145-3.552-.145-.957 0-.957-2.87-1.913-2.87-2.87 0-3.827 2.87-4.783 2.87-.957 0-1.744-3.621-2.87-2.87-2.87 1.913-3.826 7.653-3.826 7.653s4.783-3.826 10.522-2.87c5.345.891 4.79 10.821 5.641 16.888L24.609 36h3.359c.344-1.5 1.939-.529 2.375-1.688.381-1.016-.67-1.966-.094-2.969s.978-.755 2.094-1.375c1.184-.657 0-2.199 0-3.156 0-.956 2.312-1.574 2.312-2.531 0-.63-1.068-1.292-.812-2.356.257-1.064 1.586-1.186 1.749-2.184.138-.847-.921-1.455-.796-2.393s1.174-1.378 1.174-2.097c.002-.718-.845-1.001-.845-1.907z"/>
</svg>
