<svg xmlns="http://www.w3.org/2000/svg" viewBox="0 0 36 36">
  <path fill="#379543" d="M13 24.812s-.188.126-.375.084-.458.009-.458.009l-1.613-2.777s-.866.81-1.658.102c.417.125.916-.709 1.521-.354-.563-.522-1.646.395-2.188-.876.75.459 1.188-.271 1.875.188-.667-.75-1.646.069-2.042-.944.604.216 1.104-.444 1.646 0-.458-.931-1.854.361-2.125-1.201.604.312 1.271-.083 1.646.229-.708-1.354-1.354.207-1.958-1.771.417.583 1 .021 1.604.938-.438-1.667-1.625-.271-2-2.229.75-.25 1.062.854 1.667 1.083-.375-1.293-1.167-.918-.688-2.439 1.083.542.604 1.458.958 2.521.271-.375-.083-.854.105-1.187s.292-.5.229-.667c.979 1.125-.209 2.083-.104 2.479.104.396.271.542.271.542s-.104-.604.104-.958.542-.479.521-.792c.229.271.146.896-.125 1.208s-.313 1.084-.146 1.354c-.064-.845.688-.792.563-1.646.417.083.564 1.042.104 1.396-.459.354-.104 1.333-.104 1.333s.021-.624.271-.916.396-.605.333-.896c.333.271.375 1.042.146 1.417s-.583.583-.229 1.188c-.042-1.104.708-.896.688-1.604.438.334.188 1.043-.062 1.271s-.208.75-.208.75.271-.376.479-.521.352-.564.352-.564.258 1.299-.562 1.354c-.021.605 1.145 2.396 1.562 2.896z"/>
</svg>
