<svg xmlns="http://www.w3.org/2000/svg" viewBox="0 0 36 36">
  <path fill="#0081C7" d="M27.35 19.129l.43.21-2.356 2.791 2.196-4.172.324.456.618-2.766-1.803 2.054.468.104-1.644 3.088.521-2.186.417.375V16.25l-1.313 2.396h.48l-.925 3.789-.487.915-.56.216-.227.398-.159.021-1.834 1.955.924.006.184.908.782-.933-.282.912.834-.399.562.733.646-2.584-.295-.558-.008-.026.164-.69 3.121-3.732.209.518 1.242-2.547zM3.646 15.062H1.729s.417.083.604.521 1.361 3.882 1.458 4.296c.146.62-.312.745-.312.745h1.896s-.542-.095-.375-.745S6.271 16 6.396 15.604s.479-.542.479-.542H4.979s.646.144.458.666c-.188.521-1.021 3.313-1.021 3.313s-.938-2.793-1.104-3.313.334-.666.334-.666zm30.198 0h-1.75s.34.234.34.688c0 .461-.012 3.933-.012 4.266 0 .438-.4.609-.4.609h1.895s-.509-.266-.509-.641v-4.336c-.001-.398.436-.586.436-.586z"/>
</svg>
