<svg xmlns="http://www.w3.org/2000/svg" viewBox="0 0 36 36">
  <path fill="#F4C63D" d="M32.998 8.479c-.49.062-2.072.917-4.969 1.479-.167-.125-.479-.062-.979.167s-2.896.896-3.562 1.146-1.018.766-.938 1.208c.146.792.729.917.521 1.146-.208.229-.833-.312-1.25-.062-.215.129-1.416-.162-1.445-.292-.104-.458-.562-.854-.562-.854s.354-.062.438-.208c-.584-.333-.958-.979-.958-.979s.375.167.5 0c-.479-.438-.438-1.438-.667-1.875s-.5-.771-1.058-.792c-.558-.021-.775.021-1.109.458-.25-.021-.3.271-.3.271s-.221.021-.575.083-.583.5-.438.896c.083-.229.542-.271.917-.312s.646.417.5.562-.188.333-.271.688-.698.521-.698.521.177.188.448.167c-.146.229-.583.542-.896.583.188.229.479.188.479.188s-.167.458-.479.729c0 0-1.159.296-1.375.167-.417-.25-1.042.292-1.25.062s.375-.354.521-1.146c.081-.442-.271-.958-.938-1.208s-3.062-.917-3.562-1.146-.814-.293-.981-.168c-2.895-.562-4.479-1.416-4.968-1.479s-.636.75.093 1.083c-.208.229-.083.854.542.896-.25.271.062.833 1.188 1.083-.146.292.167.979 1.521 1.208-.146.417.312.854 1.333.979-.188.292.167.75 1.146.854-.312.479.521.812 1.583.792-.354.208-.208.792.292.896-.167.333.292.896.833.812.042.271.417.479.771.229 0 .354.771.75 1 .292.176.175.675.286 1.015-.056.015.083.035.164.056.245-.14.414-.438.858-.926 1.228-.521.396-.791 1.041-.771 1.458s-.146.729-.396.833l.229.084s-.375.499-.583.541-1.208-.083-1.396.104-.562.937-.312 1.083.354.396.5.542.937-.084 1.104-.229.146-.875.292-.958 1.521-.708 1.521-.708l.021.312s.229-.271.417-.354.229-.479.333-.667c.096-.173.778-.781 1.698-.975.116.067-.073.204-.073.204-.366-.081-.521.396-.5.583-.396.042-1.313 1.312-1.458 1.75s-.021.626.167.604c-.021.312.229.573.5.484.021.328.208.537.438.516.042.354.25.562.5.5.042.354.312.542.667.438.021.479.375.937.875.416.083.959 1.271 1.273 1.396.063.437.396 1 .188 1-.479.25.188.604-.062.625-.438.25.104.459-.146.459-.562.271.146.459-.155.438-.474.291.099.562-.192.5-.526.271.104.457-.324.125-.854-.521-.833-1.334-1.438-1.334-1.438s.126-.496-.541-.592c-.09-.013-.189-.135-.09-.193.914.197 1.589.8 1.685.972.104.188.146.584.333.667s.417.354.417.354l.021-.312s1.375.625 1.521.708c.144.083.125.812.291.958.168.146.959.375 1.104.229s.25-.396.5-.542-.125-.896-.312-1.083-1.188-.062-1.396-.104c-.209-.042-.584-.541-.584-.541l.229-.084c-.25-.104-.417-.416-.396-.833.019-.417-.25-1.062-.771-1.458-.477-.363-.772-.795-.915-1.203.023-.09.047-.178.064-.27.34.341.84.23 1.015.055.229.458 1 .062 1-.292.354.25.73.042.771-.229.541.083 1-.479.833-.812.5-.104.646-.688.292-.896 1.062.021 1.896-.312 1.583-.792.979-.104 1.333-.563 1.146-.854 1.021-.125 1.48-.562 1.334-.979 1.354-.229 1.666-.917 1.521-1.208 1.125-.25 1.438-.812 1.188-1.083.625-.042.751-.667.542-.896.725-.331.578-1.143.09-1.081z"/>
</svg>
