<svg xmlns="http://www.w3.org/2000/svg" viewBox="0 0 36 36">
  <path fill="#292F33" d="M3.911 36c-.086-.645-.271-2.974 1.151-5.031.415-.6-.032-1.472 2.281-5 .636-.97 3.052-2.928 3.711-3.688s1.323-3.406 1.323-3.406l-1.51-.029s-.861 2.274-1.562 2.625c-1.867.935-3.802 3.122-4.167 3.75-.508.873-3.842 5.437-4.43 6.404L0 32.8V36h3.911zm27.463-14.199l-9.223-1.961 1.3 3.724 2.097 1.035c1.296.836 2.895 1.31 3.103 3.666.056.632-.39 2.882-.755 4.261-.307 1.159.057 2.079-.114 3.473h3.443c-.723-1.452-1.158-3.185-1.147-3.398.016-.309.313-3.223.48-4.858.766 1.378 2.102 3.889 2.15 4.714.037.639-.011 2.307-.056 3.542H36V24.438c0-1.247-3.155-1.289-4.626-2.637zm-15.709 7.345c-.525 1.297-.241 1.298-.306 2.099-.133 1.634.758 2.653.758 2.653s.669-1.379.655-1.929c-.067-2.494.965-3.376.833-4.048-.001-.001-1.415-.071-1.94 1.225zm-4.945 1c.301-.51 1.124-.543 1.58-1.344.456-.8.446-2.183.924-3.632s2.608-2.359 2.608-2.359-1.796-2.533-3.243-.813c-1.242 1.477-1.031 4.184-1.18 4.927-.149.743-1.832 2.934-1.832 2.934s-.361 2.382-.289 3.046c.071.666.851-1.775 1.432-2.759zm12.567-1.637c-.377-.61-1.063-1.391-1.191-2.114-.148-.836-.203-1.273-.482-1.379-.279-.106-.783.118-1.156.618-.347.465-.062 1.827-.062 1.827s.842.73 1.375 1.066c.454.286.763 3.013.852 3.332.088.319 1.041-2.74.664-3.35z"/>
</svg>
