<svg xmlns="http://www.w3.org/2000/svg" viewBox="0 0 36 36">
  <path fill="#E1E8ED" d="M16.063 9.906c-.762 0-5.001 5.587-5.001 5.587l-.157.256-5.312 5.719s.242.737.698 1.266c.731.847 2.059-.709 2.963-1.003 1.453-.472.976 2.182 1.915 2.289 1.272.145 2.585-2.184 3.511-2.11s1.953 2.65 2.937 2.65c1.468 0 1.309-1.947 3.32-1.947.953 0 1.141 1.117 2.514.952 1.073-.129 2.621-2.404 3.133-2.597 1.15-.433 2.6 1.446 3.452 1.356.851-.09.655-.185.655-.185L19.575 9.843h-.644c-.514 0-.736-.025-1.325-.025-.396 0-1.329.088-1.543.088z"/>
</svg>
