<svg xmlns="http://www.w3.org/2000/svg" viewBox="0 0 36 36">
  <path fill="#AAB8C2" d="M15.721 13.294s-1.838 3.483-2.025 4.049-.63 2.447-.63 2.447.886-.589 1.186-1.039c.3-.45.762-1.906 1.098-2.474.336-.568.953-1.166 1.186-1.596.233-.43.141-2.55.141-2.55l-.956 1.163zm-4.041 1.243c-.479.511-1.886 2.41-1.886 2.41l-4.218 4.5s.53 1.524 1.171 1.541.89-1.481.907-2.19c.017-.709 1.929-1.884 2.167-2.564s1.049-.908 1.558-1.517c.509-.609.589-1.446 1.291-2.117 1.781-1.702.808-2.142.808-2.142s-1.319 1.568-1.798 2.079zm7.515 3.947c-.103-1.114-1.099-3.592-1.099-3.592s-.402 2.154-.441 2.876.191 1.611.407 2.403c.215.792.817 1.839.817 1.839s.419-2.411.316-3.526z"/>
</svg>
