<svg xmlns="http://www.w3.org/2000/svg" viewBox="0 0 36 36">
  <path fill="#F7DECE" d="M24.229 14.008l-.118-.118c-.271-.28-.494-.141-.642-.049-.064.04-.126.078-.172.078h-.004c-.178-.025-2.298-.865-2.562-1.116-.072-.069-.182-.192-.321-.348-.399-.449-1.004-1.126-1.621-1.538-.484-.323-.858-.319-1.086-.26-.277.071-.515.266-.655.534-.315.605-.131 1.283.447 1.647 1.135.716 2.013 1.25 2.539 1.542.41.227 1.505.465 2.229.624.248.054.482.105.526.123.079.032.188.141.292.247.163.165.331.333.502.333.017 0 .033-.001.051-.005.267-.055.513-.419.783-.854.252-.403.067-.586-.188-.84z"/>
</svg>
