<svg xmlns="http://www.w3.org/2000/svg" viewBox="0 0 36 36">
  <path fill="#66757F" d="M10.594 18.312c-1.26-1.717-2.834-1.977-4.49-1.979-.729 0-.687.479-.104.542 1.076.115 1.963.406 2.077.667.076.175-.702-.042-1.431-.042-1.167 0-1.042.298-.167.521 1.875.479 1.833 1.219 2.896 1.188 1.063-.033 1.219-.897 1.219-.897zm15.848-6.987c-1.65-.616-3.942-2.241-6.192-1.991-.751.083-.462.519 0 .625.609.141 1.438.704 1.731.933.281.219-2.314-.558-4.065.109-.872.332-.514.562.031.5.816-.094 1.609.172 2.641.797 1.031.624 6.932-.571 5.854-.973z"/>
</svg>
