<svg xmlns="http://www.w3.org/2000/svg" viewBox="0 0 36 36">
  <path fill="#E1E8ED" d="M22.828 11.757l-2.414 2.414-.707-.707c-.391-.391-1.023-.391-1.414 0s-.391 1.024 0 1.414l.707.708L15.586 19l-.707-.707c-.391-.391-1.023-.391-1.414 0s-.391 1.023 0 1.414l.707.707-2.414 2.414-.707-.707c-.391-.391-1.023-.391-1.414 0s-.391 1.024 0 1.414l.707.707-1 1c-.391.392-.391 1.024 0 1.415s1.023.391 1.414 0l1-1 .707.707c.391.391 1.023.391 1.414 0 .391-.392.391-1.024 0-1.414l-.707-.707 2.414-2.414.707.707c.391.392 1.023.392 1.414 0 .391-.391.391-1.024 0-1.414L17 20.414 20.414 17l.707.707c.391.391 1.024.391 1.414 0 .391-.391.392-1.023 0-1.414l-.707-.707 2.414-2.414.707.707c.391.391 1.023.39 1.414 0 .391-.391.391-1.023 0-1.414l-.707-.707 1-1c.39-.391.39-1.023 0-1.414-.391-.391-1.024-.391-1.415 0l-1 1-.707-.707c-.39-.391-1.024-.391-1.414 0-.391.39-.391 1.023 0 1.414l.708.706zM.564 24.472l10.965 10.965c1.04-.018 2.088-.111 3.136-.279L.843 21.335c-.168 1.049-.261 2.096-.279 3.137zM24.472.564c-1.04.018-2.088.111-3.136.279l13.822 13.822c.168-1.049.261-2.096.279-3.136L24.472.564z"/>
</svg>
