<svg xmlns="http://www.w3.org/2000/svg" viewBox="0 0 36 36">
  <path fill="#FFCC4D" d="M26.84 19.728v.352s-.675-.059-1.263-.47c-.358-.25-1.116-.559-1.703-.058-.382.322-.353 1.146-.116 1.468.233.323.469 1.058-.031.559-.499-.5-.647-1.264-.499-1.763.147-.499.47-.998 1.233-.998.765 0 1.264.411 1.616.617.306.177.794.233.763.293z"/>
  <path fill="#FFCC4D" d="M23.895 21.499l.41-.019-.117.626s.411-.312.431-.235c.018.08.078.646.078.646l-.53-.117.313.451-.41.194s-.157-.528-.196-.781c-.04-.255.021-.765.021-.765zm.86.334l.391-.039s-.338-.764.157-.745c.549.021.176.726.176.726h.412l.059.567-.391-.235v.334l.43.411-1.136.116.293-.489-.018-.351-.274.313-.099-.608z"/>
</svg>
