<svg xmlns="http://www.w3.org/2000/svg" viewBox="0 0 36 36">
  <path fill="#99AAB5" d="M9.385 26.228c.362-.058 1.368 1.423 1.344 1.714-.024.291-2.196.478-2.331.248-.136-.23.625-1.904.987-1.962zm-4.538 3.303c.214.332 3.412-.078 3.43-.51.018-.431-1.679-2.47-2.21-2.362-.53.109-1.433 2.54-1.22 2.872zm22.746-1.341c-.135.23-2.307.043-2.331-.248-.024-.291.982-1.772 1.344-1.714.361.058 1.123 1.732.987 1.962zm2.33-1.53c-.531-.108-2.228 1.93-2.21 2.362.018.431 3.217.842 3.43.51.214-.333-.69-2.764-1.22-2.872z"/>
</svg>
