<svg xmlns="http://www.w3.org/2000/svg" viewBox="0 0 36 36">
  <path fill="#DD2E44" d="M24.056 36c-1.211-1.194-3.466-2-6.056-2s-4.845.806-6.056 2h12.112zM18 31.022S13 31 11 32c0 0-1.319-2.978-3.703-3.325-2.955-.43-4.742 1.746-4.742 1.746s.884-1.785 2.915-2.796c1.968-.979 4.038.075 4.038.075s1.2-.739 2.2-.739c1.066 0 2.095.094 2.667.914.719 1.031 2.625 3.147 3.625 3.147z"/>
  <path fill="#DD2E44" d="M17.992 31.022s5-.022 7 .978c0 0 1.319-2.978 3.703-3.325 2.955-.43 4.742 1.746 4.742 1.746s-.884-1.785-2.915-2.796c-1.968-.979-4.038.074-4.038.074s-1.2-.739-2.2-.739c-1.066 0-2.095.094-2.667.914-.718 1.032-2.625 3.148-3.625 3.148z"/>
</svg>
