<svg xmlns="http://www.w3.org/2000/svg" viewBox="0 0 36 36">
  <path fill="#8899A6" d="M32.326 3.708C29.405.787 26.104-.649 24.954.502c-.013.013-.022.031-.034.044-.006.006-.015.008-.021.014L2.295 23.164c-1.412 1.412-2.19 3.29-2.19 5.288 0 1.997.778 3.875 2.19 5.287 1.413 1.413 3.291 2.19 5.288 2.19 1.998 0 3.875-.777 5.287-2.189l22.604-22.604c.007-.007.009-.016.015-.023.013-.012.03-.02.043-.033 1.151-1.15-.285-4.451-3.206-7.372zM10.75 31.619c-.846.846-1.97 1.311-3.166 1.311s-2.321-.466-3.167-1.312c-.846-.846-1.312-1.97-1.312-3.167 0-1.196.466-2.32 1.311-3.166L25.412 4.29c.622 1.144 1.56 2.394 2.749 3.584 1.189 1.189 2.44 2.127 3.584 2.749L10.75 31.619z"/>
</svg>
