<svg xmlns="http://www.w3.org/2000/svg" viewBox="0 0 36 36">
  <path fill="#17BF63" d="M29.196 13.144c-.058.379-2.627.751-5.691.343-3.063-.408-5.482-1.223-5.403-1.82.08-.597 2.627-.751 5.691-.343s5.495 1.224 5.403 1.82zM10.84 23.247c-.31.31-.813.31-1.123 0-.31-.31-.31-.813 0-1.123.31-.31.813-.31 1.123 0 .31.31.31.813 0 1.123zm3.317 2.615c-.507.507-1.328.506-1.835 0-.506-.506-.506-1.328 0-1.834.507-.507 1.328-.506 1.834 0 .507.506.508 1.327.001 1.834zm1.677-5.324c-.476.476-1.25.476-1.726 0s-.476-1.249 0-1.726c.476-.476 1.249-.477 1.725 0 .478.477.478 1.25.001 1.726zm-6.868 8.858c-.581.581-1.524.581-2.105 0-.582-.582-.581-1.524 0-2.105s1.523-.581 2.105 0c.581.581.582 1.523 0 2.105zm11.396-9.158c-.413.413-1.083.413-1.496 0-.413-.413-.412-1.083.001-1.496.414-.414 1.083-.414 1.496-.001.413.414.413 1.083-.001 1.497zm-1.207-4.288c-.27.27-.708.27-.979 0-.27-.27-.27-.708 0-.979.27-.27.708-.271.979 0 .27.271.27.709 0 .979z"/>
</svg>
