<svg xmlns="http://www.w3.org/2000/svg" viewBox="0 0 36 36">
  <path fill="#90603E" d="M15.281 20.258l-1.869-3.661-3.811-8.11c-.285-.612-1.147-.815-1.924-.452l-.061.028c-.68.317-1.071.963-.964 1.53 0 0-1.275-1.147-2.024-.797l-.06.027c-.749.35-1.123 1.136-.833 1.757l.533 1.192c-.301-.644-1.19-.866-1.985-.494l-.062.029c-.795.371-1.197 1.194-.896 1.838l5.131 13.15 6.794.212 2.031-6.249zm18.572-8.95l-.062-.029c-.796-.372-1.685-.15-1.985.494l.533-1.192c.29-.621-.084-1.408-.832-1.757l-.06-.027c-.749-.35-1.591-.129-1.882.492l-.143.306c.107-.567-.283-1.213-.964-1.53l-.062-.028c-.777-.363-1.639-.16-1.924.452l-3.885 8.11-1.604 3.388 2.909 7.246 6.302-4.318 4.554-9.766c.302-.647-.101-1.47-.895-1.841z"/>
</svg>
