<svg xmlns="http://www.w3.org/2000/svg" viewBox="0 0 36 36" xml:space="preserve">
  <path fill="#F4900C" d="M22.864 1.134A1.51 1.51 0 0 0 21.55.004a1.608 1.608 0 0 0-.799.119l-5.775 2.446c-3.314 1.074-3.116.975-3.626 1.281-.915.547-2.007 1.513-3.961 3.377C5.728 8.811.059 9.794.041 15.297.034 17.438 1.698 19.192 4 19.185c2.423-.008 3.816-1.29 4.482-2.159a4.161 4.161 0 0 1 1.52-1.228c3.93-1.875 2.256-3.522 5.185-7.281a.712.712 0 0 0-.226-1.071l6.858-4.024c.608-.357.878-1.004.698-1.674l.095-.051a.505.505 0 0 0 .252-.563z"/>
</svg>
