<svg xmlns="http://www.w3.org/2000/svg" viewBox="0 0 36 36" xml:space="preserve">
  <path fill="#65471B" d="M21 29.25c-4.076 0-6.156-.508-6.243-.53a1.001 1.001 0 0 1-.728-1.213 1.005 1.005 0 0 1 1.211-.728c.039.01 1.982.471 5.759.471 3.796 0 5.74-.466 5.76-.471a.999.999 0 0 1 .483 1.94c-.086.023-2.166.531-6.242.531zM18 14h-4a1 1 0 0 0 0 2h.519c-.319.532-.519 1.228-.519 2 0 1.658.896 3 2 3s2-1.343 2-3c0-.772-.2-1.468-.519-2H18a1 1 0 0 0 0-2zm10 0h-4a1 1 0 0 0 0 2h.519c-.319.532-.519 1.228-.519 2 0 1.657.896 3 2 3s2-1.342 2-3c0-.772-.2-1.468-.519-2H28a1 1 0 0 0 0-2z"/>
</svg>
