<svg xmlns="http://www.w3.org/2000/svg" viewBox="0 0 36 36">
  <path d="M16.19 11.917c-.058 0-.116-.013-.17-.041-.004-.002-.371-.188-.744-.212-.436-.027-.82.133-.824.134-.193.082-.41-.009-.491-.199-.081-.19.006-.409.196-.491.022-.009.55-.234 1.167-.192.532.034 1.019.283 1.039.293.184.095.255.32.161.504-.066.13-.197.204-.334.204zm5.913.37c-.073 0-.146-.021-.211-.065-.001 0-.312-.204-.748-.231-.448-.025-.792.106-.795.108-.194.077-.41-.017-.487-.208s.014-.409.204-.487c.021-.008.499-.196 1.125-.163.637.04 1.075.327 1.123.359.171.116.216.35.1.521-.074.108-.191.166-.311.166z"/>
</svg>
