<svg xmlns="http://www.w3.org/2000/svg" viewBox="0 0 36 36">
  <path fill="#3E721D" d="M12.434 29.833c.626-6.708-4.417-7.542-6.417-6.083-1.097.8-1.353 2.323-.479 1.521 1.542-1.416 2.083-.375.917.375s-1.375 2.145-.083 1.188c1.292-.958 1.646-.334.646.895-.605.744.042 1.438 1.167-.062.938-1.251 3.2-1.294 2.662 2.99-.222 1.756 1.453.608 1.587-.824zm7.941-21.022c-.583-3.5-1.125-5.248-4.625-5.832s-6.417 1.75-6.417 1.75.583-3.5 2.333-4.667c.686-.458 1.167 1.75 1.75 1.75s1.167-1.75 2.917-1.75c.583 0 .583 1.75 1.167 1.75.583 0 2.243-.577 2.333 0 .126.812-.167 1.729.292 2.104s1.553-.148 1.901.489c.349.636-.61 1.553-.526 1.97s.719.583.526 1.375-.65.833-.692 1.417.885 1.081.692 1.686c-.192.606-.651.688-.859 1.459-.208.771.541.649.333 1.439-.208.79-.958.991-1.208 1.766-.25.774.666.941.208 1.691s-1.291.875-1.333 1.333.209.818.042 1.555c-.167.736-1.126.362-1.209.945s.209.875.209 1.583-.709.834-.625 1.542.75.167 1.167 1-.249 1.583.209 2.083 1.083-.667 1.708-.25c.625.417.677 1.25 1.359 1.375s.891-1.292 1.391-1.25 1.625.709 2.208.417.541-1.459 1-1.959 1.042-.041 1.458-.583-.145-1.175-.062-1.967.854-1.241.812-1.866-.667-.625-.917-1.292.458-1.25.208-1.875-1.332-.833-1.291-1.458.459-1.333.25-2.042-1.084-1.166-1.042-1.707.499-1.25.583-1.646-.749-.812-.666-1.479.624-.621.832-1.223c.208-.602-.749-.901-.249-1.672s.751-.27 1.167-.688c.416-.417-.001-1.334.416-1.542.417-.208 1.25-.042 1.667-.333s.417-.708.875-.875c.458-.167 1.042.542 1.417.542s1.041-.708 1.541-.542c.5.167 1.584 1.333.917 1.688s-5.751.605-5.792 2.938 2.793 12.917 1.959 15.583-4.291 8.334-8.25 7.25c-3.959-1.084-8.667-3.501-7.542-7.209 1.125-3.709 4.749-11.296 5.458-14.773z"/>
</svg>
