<svg xmlns="http://www.w3.org/2000/svg" viewBox="0 0 36 36">
  <path fill="#A7A9AC" d="M28 35c0 .553-.447 1-1 1H9c-.552 0-1-.447-1-1 0-.553.448-1 1-1h18c.553 0 1 .447 1 1zm-2-4c0 .553-.447 1-1 1H11c-.552 0-1-.447-1-1 0-.553.448-1 1-1h14c.553 0 1 .447 1 1zm-2-4c0 .553-.447 1-1 1H13c-.552 0-1-.447-1-1 0-.553.448-1 1-1h10c.553 0 1 .447 1 1zm-2-3.3c0 .387-.224.7-.5.7h-7c-.276 0-.5-.313-.5-.7 0-.387.224-.7.5-.7h7c.276 0 .5.313.5.7zm-1-2.366c0 .221-.18.399-.4.399h-5.2c-.221 0-.4-.179-.4-.399v-.201c0-.221.179-.399.4-.399h5.2c.221 0 .4.179.4.399v.201zm-1-2.102c0 .085-.18.412-.4.412h-3.2c-.221 0-.4-.327-.4-.412v-.078c0-.085.179-.154.4-.154h3.2c.221 0 .4.069.4.154v.078z"/>
</svg>
