<svg xmlns="http://www.w3.org/2000/svg" viewBox="0 0 36 36">
  <path fill="#F5F8FA" d="M4.66 7.479c1.928.786 5.193 1.693 8.25 2.556 2.76.78 4.727 1.8 4.727 4.279 0 1.126-.136 4.519-.185 8.533.41-.104.791-.153 1.196-.117l-.001-.134c-.038-4.321-.179-8.044-.178-9.239.003-2.529 1.817-2.208 4.667-2.996 1.297-.359 7.232-1.686 9.209-2.103 1.658-.35 1.012-1.059.494-1.617-.034.107-.147.202-.383.273-1.51.453-10.716 2.236-12.941 2.859-1.569.439-3.591-.367-6.007-1.349-2.416-.981-8.53-2.416-9.738-2.869-.25-.094-.432-.222-.57-.362-.094.052-.19.103-.278.161.066-.003.12-.011.19-.012.477-.008-.195 1.427 1.548 2.137z"/>
</svg>
