<svg xmlns="http://www.w3.org/2000/svg" viewBox="0 0 36 36">
  <path fill="#9BC2D4" d="M17.573 32.621c.067-.637-.176-4.564-.127-9.281l.006-.493c-.465.117-.971.297-1.625.496-2.466.751-8.592 2.467-12.344 3.136-.719.128-1.156.404-1.36.736.548.754 1.279 1.308 2.152 1.657 2.079.832 6.772 2.495 9.743 3.98.9.45 1.868.721 2.838.84.403-.257.671-.633.717-1.071zm14.505-2.62c1.347-.331 2.046-.888 2.398-1.618-.402-.274-.843-.486-1.268-.583-2.037-.465-11.554-3.853-12.922-4.544-.658-.332-1.168-.485-1.638-.526.037 4.758-.203 8.658-.138 9.313.061.611.32 1.223.771 1.608.503-.083.991-.207 1.451-.382 2.019-.773 8.197-2.496 11.346-3.268z"/>
</svg>
