<svg xmlns="http://www.w3.org/2000/svg" viewBox="0 0 36 36">
  <path fill="#FFF" d="M7.515 8.898c-.08.096-.184.24-.184.408 0 .368.272.528.624.528h2.67c.304 0 .576-.16.576-.528s-.271-.528-.624-.528H9.114c.679-.855 1.919-1.958 1.919-3.07 0-1.015-.792-1.663-1.775-1.663s-1.879.807-1.879 1.815c0 .311.2.583.584.583.768 0 .328-1.295 1.247-1.295.328 0 .576.288.576.616 0 .288-.136.536-.28.744-.608.879-1.327 1.599-1.991 2.39zm-1.307 5.433H5.049v-1.16c0-.288-.184-.479-.48-.479-.295 0-.479.192-.479.479v1.16H2.931c-.296 0-.48.192-.48.479 0 .288.184.48.48.48H4.09v1.159c0 .288.184.479.479.479.296 0 .48-.191.48-.479V15.29h1.159c.296 0 .48-.192.48-.48 0-.287-.184-.479-.48-.479zm4.369 1.447H9.113c.68-.855 1.919-1.958 1.919-3.07 0-1.015-.792-1.663-1.775-1.663s-1.879.808-1.879 1.815c0 .311.2.583.583.583.768 0 .328-1.295 1.248-1.295.328 0 .576.288.576.616 0 .288-.136.536-.28.744-.608.879-1.327 1.599-1.991 2.391-.08.096-.184.24-.184.408 0 .368.272.528.624.528h2.67c.304 0 .576-.16.576-.528 0-.369-.271-.529-.623-.529zm.84 3.192H3.083c-.276 0-.5-.224-.5-.5s.224-.5.5-.5h8.333c.276 0 .5.224.5.5.001.276-.223.5-.499.5z"/>
</svg>
