<svg xmlns="http://www.w3.org/2000/svg" viewBox="0 0 36 36">
  <g fill="#D4AB88">
    <path d="M20.093 24.067l2.664-1.668 1.149 2.757c.24.185.28.276 1.615 1.052 1.203.699 3.041 2.897 3.791 3.832.213.198.504.544.646 1.061-.566.137-1.023.266-1.023.266s-.171-.202-.466-.396c-1.438-.821-6.319-3.633-6.319-3.633-.394-.283-.64-.478-.78-.72l-.01.006c-.954-1.365-1.048-2.063-1.267-2.557zm-6.532-2.196l2.815 1.487c-.171.271-.513.854-.797 1.59-.083.213-.132.49.223.746.2.146.433.331.731.568.204.163.438.349.714.563.997.778 2.582 2.469 2.694 2.575.059.056.145.12.239.202.08.07.165.163.248.278.002.004.005.005.007.008l.002.005c.12.17.231.388.292.673-.087.019-.965.233-.965.233s-.164-.223-.464-.399c-.907-.513-5.677-3.215-6.356-3.703l-.062-.044c-.69-.495-.977-.699-.915-1.409.108-1.241 1.264-2.916 1.594-3.373zm8.389-11.505c-.03-.672.209-1.616 1.772-1.616 1.699 0 3.246.172 3.686.298.651.186.707-.9 1.002-1.952.295-1.056.577-2.448.546-2.676-.053-.384.461-3.239.505-3.282.072-.07.275.067.413.075.111.007.19.098.308.176.682.447.906 1.376.974 2 .042.386-.597 1.118-.661 1.525-.047.301-.154 4.237-.231 4.678-.095.539-.207 1.278-1.122 1.502-.916.223-4.298.317-5.205.406-1.039.102-1.947-.243-1.987-1.134zM2.177 12.341c.285-.018.335-.066.612-.059.406.01.393.062.577.059.399-.007.967-.038 1.387-.094.31-.041 1.968-.32 2.419-.413.614-.126 1.372-.353 2.786-.23v-.001c1.217-.728 3.875-1.827 4.754-2.147 1.009-.367 2.187 2.707.602 2.97-1.277.211-3.237 1.018-5.292 1.425l-.001-.032c-.023.016-.037.039-.062.052 0 0-1.491-.204-2.303-.259-1.124-.076-2.682-.406-3.092-.267-.518.176-1.068.34-1.715-.034-1.106-.639-2.212-.265-2.095-.794.026-.124.88-.142 1.423-.176zm15.996-7.515c.062-.564.59-1 1.148-.934.564.062.977.558.914 1.122l-.411 3.61.328.048s.391 1.056-1.422 1.056-1.621-.825-1.621-.825l.595-.113.469-3.964z"/>
    <path d="M16.142 4.648c0-1.702 1.208-3.083 2.697-3.083s2.697 1.38 2.697 3.083-1.011 3.082-2.794 3.082c-.68 0-1.784-.136-2.258-.61-.565-.565-.342-1.547-.342-2.472z"/>
  </g>
</svg>
