<svg xmlns="http://www.w3.org/2000/svg" viewBox="0 0 36 36">
  <path fill="#FFF" d="M25.604 22.069l-.067.003c-.146 0-.791-.028-.89-.544-.066-.343-.01-.597.028-.765.028-.129.047-.214-.001-.284l-.024-.036-.086-.03c-.063-.01-.148-.027-.23-.045.056-.035.112-.078.159-.126.03-.029.076-.065.128-.065.065 0 .137.058.2.163.149.246.262.565.263.567l.194-.044c-.002-.017-.036-.405.378-.619.157-.081.271-.143.355-.189l-.167.67.209-.129c.07-.044.345-.216.535-.391-.021.639-.533 1.066-.798 1.174l-.107.044.06.101c.175.292.103.528.101.538l-.021.065.596.488-.489.153-.326-.699z"/>
</svg>
