<svg xmlns="http://www.w3.org/2000/svg" viewBox="0 0 36 36">
  <path fill="#FFD101" d="M23.719 13.297c-.326.057-.484-.141-.422-.328s.375-.359.672-.391c.297-.031.578.266.812.281.234.016.359-.114.406-.284s.375-.557.172-.654c.266 0 .266.281.266.281s.297-.297.516-.281c.125.219 0 .531 0 .531s.312-.125.531.016c-.422.062-.484.312-.484.312s.078.203-.031.312c-.109.109.859.312 1.391.156.531-.156 1.547-.516 2.203-.516.656 0 .797.25.953.031.156-.219-.188-.453-.75-.406s-1.516.698-1.891.263c-.094 0-.141.112-.141.112s-.234-.078-.469-.203c-.234-.125-.188.297-.062.359-.391-.016-.378-.268-.378-.268s-.482-.354-.169-.62c.023.485.453.344.688.25.234-.094.531-.016.672.109.141.125.547.234 1.062-.062.516-.297 1.906-.406 1.922.219s-.688.672-.688.672.078.375.516.297.719-.203.844.141.406.359.313.641c-.094.281-.406.412-.828.339-.422-.073-.469-.245-.125-.308.344-.062.406-.328.281-.391s-.359.188-.672.062-.719-.375-.719-.375.016.172-.266.266c-.281.094-.047.203.031.375s-.281.312-.656.39-.656.282-1.016-.156c-.359-.438.094-.562.281-.422s.375.391.531.266c.156-.125-.109-.203-.141-.438-.031-.234.016-.515.016-.515s-.5.78-1.562.936c-1.062.156-1.25.156-1.25.156l-.312-.219-.375.25-.016-.281s-.594.466-.906.538-1.166-.131-1.185-.366c-.019-.234.075-.344.356-.438.281-.094.328.062.469.188s.297.297.5.125.312-.234.312-.234l.062-.297-.297-.016.109-.343s-.219.046-.375-.095c-.156-.141-.172-.281-.312-.234-.139.048-.03.204-.389.267z"/>
</svg>
