<svg xmlns="http://www.w3.org/2000/svg" viewBox="0 0 36 36">
  <path fill="#964B36" d="M24.469 17.828c-.266.109-.672-.766-.438-1.016.235-.25.703.907.438 1.016zm.515-.109c-.249.022-.156-1.188 0-1.188.157 0 .344 1.157 0 1.188zm.438.191c-.311-.057.156-.785.281-.785s.078.851-.281.785zm4.937.199c-.609.017-.266-.107-.203-.272.062-.166.025-1.4.025-1.4h.35s-.109 1.063 0 1.282c.11.219.391.375-.172.39zm1.203 2.157c.145-.162-.219-.422-.469-.422s-.533.141-.743.734c-.21.594.235.422.349.094s.207-.516.379-.531c.172-.016.234.406.484.125zm-2.39 2.078c-.321-.024-.594.812-.594.812s1.438-.75.594-.812z"/>
</svg>
