<svg xmlns="http://www.w3.org/2000/svg" viewBox="0 0 36 36">
  <path fill="#00A651" d="M24.184 17.125c.078.25-.715-.04-.73.394-.328-.05.141-.691.438-.597-.062-.344-.506-.484-.55.078-.497-.438.136-.859.421-.672-.152-.531-.443-.522-.479-.203-.376-.312.003-.812.329-.578.326.234.35.484.35.484s.227-.809.805-.545c-.701.296-.838.826-.584 1.639z"/>
  <path fill="#00A651" d="M25.004 16.777c-.207-.199-.332-.418-.332-.418s.221.594-.124.844c.015-.547-.36-.734-.157-.953.203-.219.547 0 .547 0s.081-.127-.271-.438c-.352-.31-.604-.297-.62-.562.353.21.893.211.957.797.074-.703.391-.719.537-.734s.49.062.615-.062c0 .25-.281.172-.469.25.25.172.266.727.266.727s-.359-.633-.516-.586c-.156.047-.26.516-.26.516s.571-.017.363.75c-.088-.422-.182-.469-.291-.469s-.245.338-.245.338z"/>
  <path fill="#00A651" d="M25.541 17.307c.021-.292.162-.792.318-.831.052-.32.219-.773.562-.851.344-.078.422.281.344.484-.203-.297-.484-.375-.547.328.297-.078.469.156.391.469-.281-.328-.484-.367-.609-.129.328.129.334.41.167.645-.073-.406-.29-.375-.405 0-.116.374-.221-.115-.221-.115zm4.754-.53c-.357 0-.826.369-.857.942-.375-.563.084-1.188.565-1.407-.847.016-1.159.391-1.268.703-.109-.828.943-1.156 1.268-1.016-.206-.359-1.018-.329-1.425-.032 0-.687 1.215-.852 1.717-.231-.061-.503.143-.628.143-.628v.672s1.131-1.062 1.753.219c-1.003-.516-1.491.016-1.491.016s1.039-.25.896.953c-.33-.734-1.018-.656-1.018-.656s.797.36.484 1.25c-.312-.859-.767-.785-.767-.785z"/>
</svg>
