<svg xmlns="http://www.w3.org/2000/svg" viewBox="0 0 36 36">
  <path fill="#FFF" d="M15.632 34.661c-.799-.597-1.498-1.484-2.035-2.592l-.228-.47-.46.249c-.975.528-1.913.858-2.744.969l-.202-3.756-3.636.968c-.157-.854-.125-1.887.096-3.022l.103-.525-.532-.066c-1.242-.154-2.306-.525-3.104-1.08l1.521-2.917-2.988-1.523c.319-.944.948-1.882 1.834-2.735l.377-.363-.379-.36c-.803-.764-1.408-1.554-1.77-2.311l3.51-1.353-2.045-3.159c.74-.402 1.693-.686 2.789-.832l.519-.068-.091-.514c-.215-1.211-.172-2.338.124-3.288l3.308.523.524-3.308c.988.013 2.08.326 3.164.907l.462.248.226-.473c.479-1.003 1.044-1.824 1.653-2.404L18 4.326l2.372-2.92c.609.58 1.175 1.401 1.653 2.404l.226.473.462-.247c1.085-.581 2.178-.894 3.164-.906l.523 3.308 3.31-.525c.296.951.34 2.078.124 3.288l-.092.515.518.069c1.095.145 2.048.43 2.788.832l-2.046 3.156 3.511 1.355c-.361.757-.966 1.547-1.77 2.311l-.379.36.377.363c.888.854 1.516 1.793 1.835 2.736l-2.984 1.52 1.521 2.984c-.812.574-1.871.964-3.094 1.134l-.518.072.096.514c.201 1.089.226 2.083.073 2.909l-3.634-.97-.204 3.757c-.83-.11-1.768-.44-2.742-.968l-.459-.249-.228.47c-.539 1.107-1.237 1.994-2.036 2.591L18 32.293l-2.368 2.368z"/>
</svg>
