<svg xmlns="http://www.w3.org/2000/svg" viewBox="0 0 36 36">
  <path fill="#EF9645" d="M13.375 16.539l.009.061-3.782-8.114c-.286-.611-1.148-.814-1.925-.451l-.061.028c-.68.317-1.071.963-.964 1.53 0 0-1.275-1.147-2.024-.797l-.06.027c-.749.35-1.123 1.136-.833 1.757l.533 1.192c-.301-.644-1.19-.866-1.985-.494l-.062.029c-.795.371-1.197 1.194-.896 1.838l5.131 13.15 6.794.212 2.031-6.25-1.906-3.718zm20.478-5.231l-.062-.029c-.796-.372-1.685-.15-1.985.494l.533-1.192c.29-.621-.084-1.408-.832-1.757l-.06-.027c-.749-.35-1.591-.129-1.882.492l-.143.306c.107-.567-.283-1.213-.964-1.53l-.062-.028c-.777-.363-1.639-.16-1.924.452l-3.771 8.088-.033-.114-2.021 4.52L24 27.375l6.195-4.463 4.554-9.766c.301-.644-.102-1.467-.896-1.838z"/>
</svg>
