<svg xmlns="http://www.w3.org/2000/svg" viewBox="0 0 36 36">
  <path fill="#583529" d="M20.035 18.576c-2.337 0-8.909-.521-11.246.648s-5.842 4.674-5.842 5.842-.14 4.502-.14 6.839c0 2.752 4.786 3.655 10.486 3.901 5.587.241 12.796-1.014 16.151-2.446 1.976-.844 3.437-2.106 3.581-7.89.124-4.956-2.181-18.241-2.475-19.446-1.149-4.71-2.571-1.716-2.581-1.746-.51-1.531-2.164-2.358-3.695-1.847-1.531.51-2.355 2.164-1.848 3.695.046.137 1.603 7.256 2.772 13.098.643 3.151.174 4.874-3.18 4.76-4.084-.139-3.544-2.685-1.983-5.408z"/>
  <path fill="#583529" d="M16.946 22.785s3.56 3.082 5.772 2.387 5.671-18.206 2.508-22.044C22.99.414 19.033 2.103 19.701 5.623c.244 1.287 1.261 5.03 2.272 8.822.178.668-.21 3.411-.263 4.563-.157 3.447-4.764 3.777-4.764 3.777z"/>
</svg>
