<svg xmlns="http://www.w3.org/2000/svg" viewBox="0 0 36 36">
  <path d="M14.962 19.766c-.13-.35-.166-.656-.166-.656s-.078-.109-.318 0-.494.312-.854.391c-.167.036-.311-.049-.42-.147.04.143.101.275.153.413h1.605zm3.571 0c-.099-.202-.221-.359-.533-.359-.302 0-.437.177-.536.359h1.069zm4.11 0c.059-.152.124-.302.167-.461-.331.337-.84.208-.997.008-.172-.219-.562-.252-.562-.252s-.047.315-.15.69c-.001.005-.005.011-.007.016h1.549zm-.356.75c.079-.135.161-.268.228-.411-.097-.049-.215-.094-.358-.097-.344-.008-.377.238-.859.242-.229.002-.35-.056-.416-.13-.116.142-.272.279-.444.396h1.849zm-5.374 0h2.067c-.042-.042-.083-.086-.118-.134l.003.012s-.428-.409-.866-.409c-.562 0-.95.409-.95.409l.013-.024c-.043.049-.094.099-.149.146zm-1.439 0c-.141-.117-.259-.257-.348-.41-.148.102-.315.188-.485.176-.422-.031-.69-.48-.938-.359-.085.042-.165.083-.242.119.074.165.164.32.254.475l1.759-.001zm-1.094.89h7.242c.119-.129.233-.262.339-.402-.168-.144-.422-.316-.711-.316-.484 0-.691.438-1.119.438-.428 0-.475-.391-1.006-.391s-.766.453-1.18.453c-.414 0-.711-.453-1.101-.453-.391 0-.688.453-1.109.453s-.656-.5-1.031-.5c-.236 0-.515.15-.699.265.116.158.242.309.375.453zm6.356.735c.115-.078.236-.147.345-.234-.251-.12-.667-.297-.95-.297-.428 0-.537.234-1.006.234s-.676-.266-1.143-.266c-.467 0-.625.344-1.069.344-.444 0-.632-.375-1.179-.375-.321 0-.698.134-.957.245.149.13.315.237.479.349h5.48zm-1.595.265c-.531 0-.781.453-1.141.453s-.674-.469-1.087-.469c-.248 0-.538.138-.74.25.565.228 1.178.36 1.827.36.652 0 1.265-.139 1.831-.369-.182-.112-.427-.225-.69-.225z" fill="#083E9D"/>
</svg>
