<svg xmlns="http://www.w3.org/2000/svg" viewBox="0 0 36 36">
  <path d="M14.777 16.677l-1.399-.574c-.147.355-.239.735-.3 1.126l1.699.122v-.674zm1.02.419v.328l.949.068v-.007l-.949-.389zm5.303.252l1.821-.131c-.065-.409-.163-.807-.321-1.177l-1.5.616v.692zm-.969-.294l-.853.35.003.074.85-.061v-.363zm1.562-2.399l-.593.518v.845l1.146-.6c-.163-.271-.341-.53-.553-.763zm-1.562 1.363l-.875.763.007.199.868-.455v-.507zm-3.4.903l-.934-.815v.57l.941.497-.007-.252zm-1.954-1.704l-.543-.473c-.216.249-.398.523-.561.81l1.104.583v-.92zm5.354-.013c0-.152.206-.24.427-.261l.69-.715c-.246-.208-.508-.396-.79-.557l-1.229 2.127c.003.172.009.341.014.51l.889-.922-.001-.182zm-4.334-.188v.46l.921 1.002-.014-.497-1.294-2.238c-.256.156-.495.335-.72.529l.537.584c.273-.035.57.008.57.16zm3.424-.146l.691-1.468c-.265-.112-.536-.211-.822-.275l-.277 1.123s.583.021.458.042c-.033.005-.047.239-.05.578zm-2.594-1.655c-.211.061-.407.152-.605.238l.652 1.462-.047-1.7zm-1.85 4.672l-1.761-.047c-.006.053-.016.105-.016.16 0 .198.032.388.058.578h1.719v-.691zm6.323.691h1.842c.026-.19.058-.38.058-.578 0-.055-.01-.107-.016-.16l-1.884.069v.669z" fill="#FF9D11"/>
</svg>
