<svg xmlns="http://www.w3.org/2000/svg" viewBox="0 0 36 36">
  <path d="M15.047 15.297v3.578c0 .484.266 1.641 1.031 1.641 1.047 0 1.386-1.297 1.386-1.297s-.755.664-1.291.453c-.536-.211-.573-.531-.573-1.234v-3.052c.001-.277-.553-.339-.553-.089zm5.855 0v3.578c0 .484-.266 1.641-1.031 1.641-1.047 0-1.386-1.297-1.386-1.297s.755.664 1.29.453c.536-.211.573-.531.573-1.234v-3.052c.001-.277.554-.339.554-.089zm-2.09 1.997l-1.797-.551v-2.868c0-.844.646-1.26 1.797-.859-1 .094-1.318.936 0 1.562v2.716z" fill="#CE1126"/>
</svg>
