<svg xmlns="http://www.w3.org/2000/svg" viewBox="0 0 36 36">
  <path d="M20 18.711c0 .073-.06.133-.133.133h-3.859c-.073 0-.133-.06-.133-.133 0-.073.06-.133.133-.133h3.859c.073 0 .133.06.133.133zm-2.984.702h-.893l.383-.507h.893zm1.853 0h.893l-.383-.507h-.894zm-2.211-1.116l-.223-.243.222-.242c.04-.043.025-.102-.034-.131-.058-.029-.139-.017-.179.027l-.101.109v-.149c0-.035-.028-.063-.063-.063s-.063.028-.063.063v.149l-.1-.109c-.04-.044-.121-.056-.179-.027-.059.029-.074.088-.034.131l.222.242-.223.243c-.04.043-.024.102.034.132.059.028.138.016.179-.028l.164-.179.164.179c.041.044.121.056.179.028.059-.03.074-.089.035-.132zm.828 0l-.223-.243.222-.242c.04-.043.025-.102-.034-.131-.058-.029-.139-.017-.179.027l-.101.109v-.149c0-.035-.028-.063-.063-.063s-.063.028-.063.063v.149l-.1-.109c-.04-.044-.121-.056-.179-.027-.059.029-.074.088-.034.131l.222.242-.223.243c-.04.043-.024.102.034.132.059.028.138.016.179-.028l.164-.179.164.179c.041.044.121.056.179.028.059-.03.075-.089.035-.132zm.829 0l-.223-.243.222-.242c.04-.043.025-.102-.034-.131-.058-.029-.139-.017-.179.027l-.101.11v-.149c0-.035-.028-.063-.063-.063s-.063.028-.063.063v.149l-.1-.109c-.04-.044-.121-.056-.179-.027-.059.029-.074.088-.034.131l.222.242-.223.243c-.04.043-.024.102.034.132.059.028.138.016.179-.028l.164-.179.164.179c.041.044.121.056.179.028.059-.031.075-.09.035-.133zm.831 0l-.223-.243.222-.242c.04-.043.025-.102-.034-.131-.058-.029-.139-.017-.179.027l-.101.109v-.149c0-.035-.028-.063-.063-.063s-.063.028-.063.063v.149l-.1-.109c-.04-.044-.121-.056-.179-.027-.059.029-.074.088-.034.131l.222.242-.223.243c-.04.043-.024.102.034.132.059.028.138.016.179-.028l.164-.179.164.179c.041.044.121.056.179.028.059-.03.075-.089.035-.132zm.828 0l-.223-.243.222-.242c.04-.043.025-.102-.034-.131-.058-.029-.139-.017-.179.027l-.101.109v-.149c0-.035-.028-.063-.063-.063s-.063.028-.063.063v.149l-.1-.109c-.04-.044-.121-.056-.179-.027-.059.029-.074.088-.034.131l.222.242-.223.243c-.04.043-.024.102.034.132.059.028.138.016.179-.028l.164-.179.164.179c.041.044.121.056.179.028.059-.03.075-.089.035-.132z" fill="#630810"/>
</svg>
