<svg xmlns="http://www.w3.org/2000/svg" viewBox="0 0 36 36">
  <path fill="#9AAAB4" d="M18 9v11.756c-3 0-1.067 5.182-6 5.999-1.781.295-3.931.355-6 0-3.253-.559-4.824-3.027-5.042-7.681-.281-5.993 1.276-8.847 5.318-9.533C9.394 9.012 14 9 18 9z"/>
  <path fill="#9AAAB4" d="M17.926 9v11.756c3 0 1.067 5.182 6 5.999 1.781.295 3.931.355 6 0 3.253-.559 4.824-3.027 5.042-7.681.281-5.993-1.276-8.847-5.318-9.533C26.532 9.012 21.926 9 17.926 9zM1.5 21C.675 21 0 20.325 0 19.5v-3c0-.825.675-1.5 1.5-1.5s1.5.675 1.5 1.5v3c0 .825-.675 1.5-1.5 1.5z"/>
  <path fill="#9AAAB4" d="M34.5 21c-.825 0-1.5-.675-1.5-1.5v-3c0-.825.675-1.5 1.5-1.5s1.5.675 1.5 1.5v3c0 .825-.675 1.5-1.5 1.5z"/>
  <path fill="#9AAAB4" d="M34.5 22c-.825 0-1.5-.675-1.5-1.5v-5c0-.825.675-1.5 1.5-1.5s1.5.675 1.5 1.5v5c0 .825-.675 1.5-1.5 1.5zm-33 0C.675 22 0 21.325 0 20.5v-5c0-.825.675-1.5 1.5-1.5s1.5.675 1.5 1.5v5c0 .825-.675 1.5-1.5 1.5z"/>
</svg>
