<svg xmlns="http://www.w3.org/2000/svg" viewBox="0 0 36 36">
  <path fill="#DFA994" d="M23.02 21.249h8.604c1.17 0 2.268-.626 2.866-1.633.246-.415.109-.952-.307-1.199-.415-.247-.952-.108-1.199.307-.283.479-.806.775-1.361.775h-8.81c-.873 0-1.583-.71-1.583-1.583s.71-1.583 1.583-1.583H28.7c.483 0 .875-.392.875-.875s-.392-.875-.875-.875h-5.888c-1.838 0-3.333 1.495-3.333 3.333 0 1.025.475 1.932 1.205 2.544-.615.605-.998 1.445-.998 2.373 0 1.028.478 1.938 1.212 2.549-.611.604-.99 1.441-.99 2.367 0 1.12.559 2.108 1.409 2.713-.524.589-.852 1.356-.852 2.204 0 1.838 1.495 3.333 3.333 3.333h5.484c1.17 0 2.269-.625 2.867-1.632.247-.415.11-.952-.305-1.199-.416-.245-.953-.11-1.199.305-.285.479-.808.776-1.363.776h-5.484c-.873 0-1.583-.71-1.583-1.583s.71-1.583 1.583-1.583h6.506c1.17 0 2.27-.626 2.867-1.633.247-.416.11-.953-.305-1.199-.419-.251-.954-.11-1.199.305-.289.487-.799.777-1.363.777h-7.063c-.873 0-1.583-.711-1.583-1.584s.71-1.583 1.583-1.583h8.091c1.17 0 2.269-.625 2.867-1.632.247-.415.11-.952-.305-1.199-.417-.246-.953-.11-1.199.305-.289.486-.799.776-1.363.776H23.02c-.873 0-1.583-.71-1.583-1.583s.709-1.584 1.583-1.584z"/>
</svg>
