<svg xmlns="http://www.w3.org/2000/svg" viewBox="0 0 36 36">
  <g fill="#BBDDF5">
    <path d="M33.052 20.252c0 1.783-1.431 3.227-3.197 3.227s-3.197-1.444-3.197-3.227c0-1.782 1.431-3.229 3.197-3.229s3.197 1.447 3.197 3.229z"/>
    <path d="M35.833 22.565c0 1.536-1.245 2.781-2.781 2.781s-2.781-1.245-2.781-2.781c0-1.535 1.245-2.78 2.781-2.78s2.781 1.245 2.781 2.78z"/>
    <path d="M34.595 27.072c0 1.761-1.427 3.188-3.188 3.188-1.76 0-3.188-1.427-3.188-3.188 0-1.76 1.428-3.187 3.188-3.187 1.761.001 3.188 1.427 3.188 3.187z"/>
    <path d="M30.271 27.288c0 .879-.996 1.592-2.225 1.592s-2.224-.713-2.224-1.592c0-.878.995-1.591 2.224-1.591s2.225.713 2.225 1.591zm-1.248-5.777s-2.968.951-5.789.504c2.479 1.871 6.845.998 6.845.998l-1.056-1.502z"/>
    <path d="M29.221 23.335c-.087.021-3.002.551-7.037.145 1.222 1.227 6.482 1.358 7.438 1.033.953-.325-.401-1.178-.401-1.178zm.686 4s-2.422-1.123-6.673-1.988c2.896-.836 7.366.2 7.824.865.46.665-1.151 1.123-1.151 1.123z"/>
    <path d="M32.463 24.292c0 2.275-.999 4.12-2.232 4.12s-2.233-1.845-2.233-4.12c0-2.277 1-4.122 2.233-4.122s2.232 1.845 2.232 4.122z"/>
  </g>
</svg>
