<svg xmlns="http://www.w3.org/2000/svg" viewBox="0 0 36 36">
  <path fill="#CCD6DD" d="M1.902 8.125s2.803 2.014 5.365.19c4.217-3.002 8.742-3.165 11.14-1.889 2.686 1.427 4.563 4.921 3.104 7.544-1.792 3.231-.551 4.065.6 4.608 1.186.562-.338 1.859-1.008 2.018-.668.16.297 1.501 1.039 1.501-.232.925-.643 1.349-1.05 1.539.612.353.868 1.495.484 1.578-.813.176-1.491.524-1.771 1.156-1.684 3.818-3.475-1.509-7.986 1.268-4.897 3.013-9.855-2.424-7.299-6.395-3.307-.658-4.104-4.176-1.807-6.057-2.561-1.374-3.186-5.624-.811-7.061z"/>
</svg>
