<svg xmlns="http://www.w3.org/2000/svg" viewBox="0 0 36 36">
  <path fill="#DD637F" d="M32.407 22.743c-1.024-2.991-2.742-5.684-4.518-8.275-1.027-1.498-2.107-2.966-3.09-4.493-.666-1.034-1.669-2.643-1.077-3.916.407-.875 1.495-1.092 2.336-.781 1.492.551 2.009 2.31 2.101 3.733.174 2.697 4.404 2.723 4.531 0 .174-3.702-2.184-7.239-5.842-8.172-3.679-.939-7.597 1.497-8.099 5.303-.508 3.857 2.49 7.148 4.529 10.094 1.952 2.82 3.963 5.727 4.793 9.104.347 1.413.691 3.337-.163 4.634-.68 1.034-2.007.675-2.986.262-1.59-.671-1.976-1.979-2.156-3.601-.212-1.915-.241-3.84-.632-5.734-.73-3.533-2.647-7.084-6.106-8.534-3.431-1.44-7.713-1.578-10.728.873-3.472 2.822-3.656 7.694-2.457 11.668 1.238 4.101 4.069 7.995 8.697 8.183 2.66.108 3.307-3.749.644-4.377-2.879-.679-4.077-3.502-4.707-6.144-.541-2.271-.381-5.801 2.429-6.429 2.481-.555 4.979.657 6.158 2.834 1.504 2.777 1.311 5.923 1.782 8.949.526 3.383 2.661 5.989 6.052 6.823 3.06.753 6.511.167 8.259-2.692 1.685-2.753 1.249-6.395.25-9.312z"/>
</svg>
