<svg xmlns="http://www.w3.org/2000/svg" viewBox="0 0 36 36">
  <path fill="#F3D2A2" d="M19.652 1.065c-1.764-.694-4.514.202-4.834 2.263-.317 2.047.265 5.257 2.063 5.063 1.885-.204 3.819-.613 4.582-2.554.764-1.942-.047-4.078-1.811-4.772z"/>
  <path fill="#F3D2A2" d="M20.963 6.335c2.567-3.016-3.617-2.722-3.617-2.722-1.17.042-.365 1.993-.916 3.057-.378.737 1.212 1.128 1.212 1.128s.73-.011.769.875v.008c.009.225-.015.493-.12.851-.524 1.772 1.857 2.859 2.38 1.083.207-.703.127-1.321.022-1.892l-.009-.051c-.159-.847-.356-1.591.279-2.337z"/>
</svg>
