<svg xmlns="http://www.w3.org/2000/svg" viewBox="0 0 36 36">
  <circle fill="#CCD6DD" cx="7.189" cy="27.5" r="1.5"/>
  <path fill="#CCD6DD" d="M9.609 13.234c.051-.237.08-.482.08-.734 0-1.933-1.567-3.5-3.5-3.5-1.764 0-3.208 1.308-3.45 3.005-.017 0-.033-.005-.05-.005-1.104 0-2 .896-2 2s.896 2 2 2c.033 0 .063-.008.095-.01-.058.16-.095.33-.095.51 0 .46.212.867.539 1.143-.332.357-.539.831-.539 1.357 0 1.104.896 2 2 2 0 .375.11.721.289 1.021-.727.103-1.289.723-1.289 1.479 0 .828.672 1.5 1.5 1.5s1.5-.672 1.5-1.5c0-.18-.037-.35-.095-.51.032.002.062.01.095.01 1.104 0 2-.896 2-2 0-.601-.27-1.133-.69-1.5.419-.367.69-.899.69-1.5 0-.378-.111-.728-.294-1.03.097.015.193.03.294.03 1.104 0 2-.896 2-2 0-.771-.441-1.432-1.08-1.766z"/>
</svg>
