<svg xmlns="http://www.w3.org/2000/svg" viewBox="0 0 36 36">
  <path fill="#BF6952" d="M22.194 35.227c-.139 0-.279-.003-.423-.007-4.29-.132-7.807-.959-8.938-1.671-.683-.429-1.036-1.223-.897-2.021.135-.783.695-1.375 1.461-1.546l.083-.017c-.067-.036-.129-.071-.184-.107-.739-.479-1.051-1.296-.815-2.13.233-.825.929-1.394 1.731-1.414.111-.002.236-.001.371.003-.091-.062-.174-.124-.248-.187-.592-.511-.814-1.358-.552-2.108.272-.779.979-1.266 1.89-1.302 1.433-.049 5.346.718 7.401 1.491-.026-.505-.05-1.192-.038-1.937.022-1.35 1.04-2.261 2.034-2.462 1.004-.206 1.879.259 2.298 1.205.928 2.094 2.293 7.525 1.487 10.013-.901 2.785-3.141 4.196-6.661 4.197zm-7.824-4.329c-.304 0-.567.018-.755.06-.368.082-.627.358-.693.739-.055.316.033.747.444 1.006 1.012.636 4.525 1.396 8.437 1.517 3.3.101 5.308-1.042 6.103-3.498.644-1.985-.437-7.01-1.45-9.3-.319-.72-.933-.681-1.185-.63-.603.122-1.22.677-1.233 1.498-.022 1.413.091 2.652.092 2.665.017.184-.068.361-.223.463-.154.103-.353.11-.514.022-1.435-.776-6.187-1.786-7.68-1.721-.674.026-.907.407-.985.632-.127.365-.023.776.261 1.021.671.579 2.791 1.227 3.551 1.427.258.068.417.327.361.589-.057.261-.312.43-.572.388-.03-.005-2.962-.493-4.092-.462-.416.011-.704.363-.795.686-.055.193-.125.681.398 1.021.677.439 3.108 1.023 3.988 1.211.265.057.437.314.387.581s-.306.447-.571.401c-.648-.106-2.213-.316-3.274-.316z"/>
</svg>
