<svg xmlns="http://www.w3.org/2000/svg" viewBox="0 0 36 36">
  <path fill="#BF6952" d="M13.806 35.227c-3.52 0-5.76-1.411-6.662-4.196-.806-2.487.56-7.919 1.487-10.013.418-.946 1.3-1.411 2.297-1.205.995.201 2.013 1.111 2.035 2.462.012.744-.011 1.432-.038 1.937 2.056-.774 5.966-1.559 7.401-1.491.911.036 1.618.522 1.89 1.302.263.75.041 1.598-.552 2.108-.073.062-.156.125-.247.187.135-.004.261-.005.371-.003.803.021 1.498.589 1.731 1.414.235.834-.077 1.65-.815 2.13-.055.036-.116.071-.185.107l.083.017c.767.171 1.326.763 1.462 1.546.138.799-.215 1.593-.898 2.021-1.131.712-4.648 1.539-8.938 1.671-.143.003-.284.006-.422.006zm-3.318-14.459c-.294 0-.703.111-.943.654-1.014 2.29-2.093 7.314-1.45 9.3.796 2.456 2.794 3.616 6.103 3.498 3.912-.12 7.424-.881 8.437-1.517.41-.259.499-.689.444-1.006-.066-.381-.325-.657-.693-.739-.848-.188-3.196.121-4.031.255-.266.05-.521-.134-.571-.401-.05-.267.122-.524.387-.581.88-.188 3.312-.771 3.988-1.211.523-.34.452-.827.397-1.021-.091-.322-.378-.675-.794-.686-1.174-.049-4.063.457-4.092.462-.266.046-.515-.127-.571-.388-.056-.262.103-.521.361-.589.76-.201 2.88-.849 3.551-1.427.283-.244.389-.655.261-1.021-.079-.225-.312-.605-.985-.632-1.452-.06-6.245.944-7.68 1.721-.164.087-.361.08-.514-.022-.154-.102-.24-.279-.223-.464.001-.012.115-1.251.092-2.664-.013-.821-.631-1.376-1.234-1.498-.061-.012-.144-.023-.24-.023z"/>
</svg>
