<svg xmlns="http://www.w3.org/2000/svg" viewBox="0 0 36 36">
  <path fill="#CCD6DD" d="M36 14.771C35.157 13.7 33.864 13 32.396 13c-1.997 0-3.681 1.279-4.318 3.059-.19-.033-.38-.059-.578-.059-.82 0-1.565.294-2.162.767C24.679 16.289 23.876 16 23 16c-.353 0-.689.06-1.015.146.002-.049.015-.096.015-.146 0-2.209-1.791-4-4-4-1.215 0-2.291.554-3.024 1.409C14.369 13.148 13.702 13 13 13c-.18 0-.35.034-.525.053C11.429 10.505 8.926 8.709 6 8.709c-2.551 0-4.777 1.369-6 3.408v13.544l32.396-1.452s2.761-1.343 3.604-2.966v-6.472z"/>
</svg>
