<svg xmlns="http://www.w3.org/2000/svg" viewBox="0 0 36 36">
  <path fill="#F5F8FA" d="M25 25c-.821 0-1.582.249-2.217.673-.664-1.839-2.5-3.07-4.534-2.863-1.883.192-3.348 1.56-3.777 3.298-.181-.012-.363-.019-.55 0-.773.079-1.448.427-1.965.93-.667-.387-1.452-.582-2.278-.498-.333.034-.644.123-.942.236-.003-.047.004-.093 0-.139-.212-2.083-2.073-3.599-4.155-3.387-1.145.117-2.107.742-2.716 1.619-.586-.186-1.217-.258-1.866-.197V32c0 .773.23 1.489.61 2.101C.715 34.098 29 31.209 29 29s-1.791-4-4-4z"/>
</svg>
