<svg xmlns="http://www.w3.org/2000/svg" viewBox="0 0 36 36">
  <path fill="#FFF" d="M27.021 22.897v-.902h-.542v-.901h-.496v-.586h-.226v-.451h-.438l-.238-.341v-1.599l.271-.271v-1.488l-.226.203v-.474h-.181v.226h-.359v-.723l-.429.384.136-.485-.249-1.116h-.136s-.111-.474-.337-.474c0 0 .09-.292-.091-.292s-.136.225-.136.225-.315.136-.315.473l-.18-.022-.271 1.307.191.384-.44-.384v.993H19.94v-.902l-.136.135v.316h-.315v-.316l.226-.203v-.428l-.182.191-.271-.372v-.316l-.157.157-.046-.27.226-.36-.034-.293-.258.315v-.27l.113-.248-.519-1.309-.124-.362-.191-.022v-.181s-.136-.315-.316-.315-.315.315-.315.315v.181l-.191.022-.125.362-.518 1.309.113.248v.27l-.259-.315-.035.293.226.36-.044.27-.158-.157v.316l-.27.372-.181-.191v.428l.226.203v.316h-.315v-.316l-.136-.135v.902H13.58v-.993l-.44.384.191-.384-.271-1.307-.181.022c0-.337-.315-.473-.315-.473s.045-.225-.136-.225c-.18 0-.09.292-.09.292-.226 0-.338.474-.338.474h-.135l-.248 1.116.135.485-.428-.384v.722h-.361v-.226h-.181v.474l-.225-.203v1.488l.27.271v1.599l-.239.341h-.348v.451h-.314v.586h-.452v.901h-.495v.902h-.497l-.045.991h19.035l.045-.991h-.496z"/>
</svg>
