<svg xmlns="http://www.w3.org/2000/svg" viewBox="0 0 36 36">
  <path fill="#9266CC" d="M9.308 17.315c.439 0 .755.228.755.72s-.316.72-.755.72H7.393c.053.299.123.632.123 1.159 0 .826-.544 2.09-1.51 2.951h5.919c.44 0 .756.228.756.72s-.316.721-.756.721H4.9c-.491 0-.931-.123-.931-.738 0-.754 2.002-1.58 2.002-3.67 0-.316-.018-.755-.123-1.142H4.074c-.439 0-.755-.228-.755-.72s.316-.72.755-.72h1.353c-.421-.755-.86-1.581-.86-2.511 0-1.845 1.809-3.109 3.793-3.109 2.09 0 4.022 1.722 4.022 3.109 0 .474-.298.755-.737.755-1.177 0-.562-2.424-3.268-2.424-1.142 0-2.266.615-2.266 1.774 0 .931.527 1.633.931 2.406h2.266z"/>
</svg>
