<svg xmlns="http://www.w3.org/2000/svg" viewBox="0 0 36 36">
  <path fill="#F6DDCD" d="M34.956 18.084c0 .503-.12.975-.321 1.404-1.341 4.326-7.619 4.01-16.549 4.221-1.493.035-.639 1.798-.115 5.668.341 2.517-1.282 6.382-4.01 6.382-4.498 0-.171-3.548-4.148-12.322-2.125-4.688-6.875-2.062-6.875-6.771V5.948c0-1.833.18-3.595 2.758-3.885C8.195 1.781 7.633 0 11.238 0h18.044c1.838 0 3.333 1.496 3.333 3.334 0 .762-.267 1.456-.698 2.018 1.02.571 1.72 1.649 1.72 2.899 0 .76-.266 1.454-.696 2.015 1.023.57 1.725 1.649 1.725 2.901 0 .909-.368 1.733-.961 2.336.757.611 1.251 1.535 1.251 2.581z"/>
</svg>
