<svg xmlns="http://www.w3.org/2000/svg" viewBox="0 0 36 36">
  <path fill="#F4900C" d="M33.625 15.62c0 1.332-.979 2.411-2.188 2.411s-2.188-1.079-2.188-2.411.979-2.411 2.188-2.411 2.188 1.079 2.188 2.411zm-22.25 4.862c0 1.255-.923 2.272-2.062 2.272-1.139 0-2.062-1.018-2.062-2.272 0-1.256.923-2.273 2.062-2.273 1.139 0 2.062 1.018 2.062 2.273zm17.156 4.98c-.503.602-1.355.72-1.903.262-.547-.457-.582-1.317-.077-1.919.505-.605 1.356-.722 1.903-.265.548.458.582 1.317.077 1.922zm-9.684-7.378c-.677.811-1.825.97-2.562.353-.736-.615-.783-1.773-.104-2.583.68-.814 1.826-.971 2.562-.356.737.616.784 1.773.104 2.586zm.873 10.015c-1.2 1.604-3.354 2.021-4.808.933-1.455-1.088-1.663-3.272-.463-4.875 1.2-1.605 3.354-2.022 4.808-.935 1.455 1.088 1.663 3.272.463 4.877z"/>
</svg>
