<svg xmlns="http://www.w3.org/2000/svg" viewBox="0 0 36 36">
  <path d="M14.2 18.73c-.046.218-1.067 5.711-1.476 8.054.269.117.604.213.962.283.377-2.18 1.368-7.533 1.493-8.132l-.979-.205zm3.488-.184l-.996-.092c-.001.014-.133 1.436-.312 2.322-.051.253-.123.534-.198.819-.083.312-.177.637-.28.972-.25.814-.54 1.67-.815 2.472l-.001.004c-.083.242-.434 1.317-.67 2.128.367.033.723.037 1.035.008.267-.867.652-2.019.671-2.076.276-.805.557-1.647.799-2.454.102-.342.193-.671.274-.989.059-.234.122-.472.165-.686.189-.939.322-2.368.328-2.428zm1.709.507c0 .629-.265 1.913-.503 2.56-.045.121-.841 1.651-.985 1.979.359-.293.828-.617 1.298-1.008.201-.167.399-.348.59-.543.065-.167.128-.359.187-.566.238-.832.413-1.886.413-2.422h-1z" fill="#B7C0C1"/>
</svg>
