<svg xmlns="http://www.w3.org/2000/svg" viewBox="0 0 36 36">
  <path fill="#FFDC5D" d="M15.015 10.618c-.085.612.05 1.546 1.466 1.787 1.416.241 2.812.059 3.411-.108.599-.167.569.884.747 1.872.179.992.301 1.768.252 1.973-.082.347-.809 1.011-.517 1.612s.757 1.179 1.332.962c.575-.217 1.05-.475 1.203-.797s-.525-1.295-.552-1.574c-.027-.278.227-3.888.194-4.298-.04-.501-.078-1.187-.896-1.47-.818-.284-4.094-.92-4.915-1.079-.942-.185-1.612.309-1.725 1.12zM13.826.971C11.981.781 9.725 2.34 9.867 4.376c.198 2.841 2.368 4.687 4.011 4.031 1.723-.688 2.703-1.387 2.911-3.417.21-2.03-1.117-3.829-2.963-4.019z"/>
  <path fill="#FFDC5D" d="M16.449 5.593c1.625-3.518-4.125-1.612-4.125-1.612-1.092.348.181 1.974-.058 3.122-.162.794 1.439.743 1.439.743s.685-.202.955.622l.002.008c.068.21.116.469.111.834-.027 1.808 2.503 2.205 2.528.394.01-.717-.229-1.278-.478-1.788l-.022-.045c-.372-.76-.753-1.408-.352-2.278z"/>
</svg>
