<svg xmlns="http://www.w3.org/2000/svg" viewBox="0 0 36 36">
  <path fill="#FFDC5D" d="M3.258 26.96c-.258.124-.503-.097-.619-.227-.328-.367-.583-1.246-.282-2.209.303-.973.6-2.384 1.199-4.002.081-.22.499-3.764.805-4.445.197-.437 1.28-.896 1.81-.807.529.089.246.651.105 1.13 0 0-.916 3.953-1.016 4.296-.316 1.079-1.624 2.918-1.565 4.237.031.692.06 1.255-.339 1.246-.049.362-.003.735-.098.781zm14.984-.2c.271.091.487-.159.586-.302.279-.405.422-1.309.004-2.227-.423-.927-.894-2.29-1.69-3.821-.108-.208-.966-3.672-1.355-4.309-.25-.409-1.382-.729-1.897-.574-.513.154-.162.676.037 1.134 0 0 1.403 3.807 1.546 4.135.449 1.031 1.977 2.691 2.082 4.008.056.69.097 1.253.492 1.194.094.353.095.729.195.762z"/>
</svg>
