<svg xmlns="http://www.w3.org/2000/svg" viewBox="0 0 36 36">
  <path fill="#FFF" d="M9.292 8.659L8.75 6.625l-.542 2.034c.175-.033.357-.052.542-.052s.367.019.542.052zM5.857 11.5c0-.185.018-.367.052-.542l-2.034.542 2.034.542c-.033-.175-.052-.357-.052-.542zm2.351 2.841l.542 2.034.542-2.034c-.176.034-.357.052-.542.052s-.367-.019-.542-.052zm3.435-2.841c0 .185-.018.367-.052.542l2.034-.542-2.034-.542c.033.175.052.357.052.542zm-.455-4.222L9.701 8.769c.348.122.666.308.939.544l.548-2.035zm-.251 6.112l2.035.548-1.491-1.487c-.121.348-.307.665-.544.939zm-4.625 2.332l1.487-1.491c-.348-.121-.666-.308-.939-.544l-.548 2.035zm.251-6.112l-2.035-.548 1.491 1.487c.121-.348.307-.665.544-.939zm3.138 4.621l1.487 1.491-.548-2.035c-.274.237-.591.423-.939.544zM6.019 12.45l-1.491 1.487 2.035-.548c-.237-.273-.423-.59-.544-.939zm1.78-3.681L6.312 7.278l.548 2.035c.274-.237.591-.423.939-.544zm5.173.293l-2.035.548c.237.273.423.591.544.939l1.491-1.487z"/>
  <circle fill="#FFF" cx="8.75" cy="11.5" r="2.438"/>
</svg>
