<svg xmlns="http://www.w3.org/2000/svg" viewBox="0 0 36 36">
  <path fill="#662113" d="M33.495 16.378C33.268 11.612.614 12.279.614 12.279c0 3 1.524 4.057 1.396 5.465-.119 1.307 1.96 1.782 1.96 1.782s1.644.753 1.644 2.753c0 1.311 1.151 2.763 2.162 6.17.297 3.149 3.773 3.988 5.347 3.535 1.699-.49 3.072-.207 3.564.267 1.172 1.128 3.189.715 4.396.208.784-.33 1.285-1.398 3.089-.535 1.366.653 2.355.151 3.568-.898l-.007.026c.043-.064.111-.108.166-.163l.208-.19c.972-.633 2.905-.467 3.369-1.548.552-1.288 2.589-1.876 2.796-2.246.832-1.485-.582-2.043-.479-2.685.598-.404 1.4-.701 1.905-1.682 1.11-2.157-2.113-4.25-2.203-6.16z"/>
</svg>
