<svg xmlns="http://www.w3.org/2000/svg" viewBox="0 0 36 36">
  <path fill="#FFD983" d="M26.894 23.627c-.58 0-1.096-.122-1.451-.342-.569-.354-1.154-.527-1.784-.527-.643 0-1.214.181-1.764.356-.569.18-1.106.35-1.766.35-.22 0-.455-.019-.707-.063-2.894-.506-4.914-1.975-6.357-4.619-1.521-2.785-3.505-4.196-5.099-5.33-.553-.393-1.03-.733-1.414-1.077-1.2-1.077-2.088-2.871-1.499-4.01.492-.951 1.611-1.375 3.627-1.375.511 0 1.011.025 1.472.047l.407.019c4.172.185 7.588 1.072 8.501 2.207 1.848 2.296 4.961 4.531 6.5 5.261.262.124.595.262.968.414.906.37 3.314 1.355 3.28 2.14-.051 1.128-1.015 1.537-1.125 1.579l-2.397.937 2.125 1.462c.57.394 1.31 1.22 1.137 1.49-.393.617-1.534 1.081-2.654 1.081z"/>
</svg>
