<svg xmlns="http://www.w3.org/2000/svg" viewBox="0 0 36 36">
  <path fill="#744EAA" d="M29.607 32.856c.189.808 1.227 2.28 2.032 2.091.806-.19 1.077-1.971.888-2.777-.189-.808-.998-1.307-1.804-1.117-.805.19-1.306.997-1.116 1.803zm-5.434.649c.003.83.681 2.498 1.509 2.495.828-.004 1.494-1.677 1.491-2.506-.003-.829-.677-1.497-1.505-1.495-.828.004-1.498.677-1.495 1.506zm-5.271-2.446c-.326.764-.365 2.563.396 2.89.763.324 2.037-.947 2.363-1.71.325-.762-.028-1.643-.789-1.97-.762-.325-1.643.027-1.97.79zm-5.031-11.04c-.812.172-2.308 1.173-2.139 1.983.173.81 1.945 1.124 2.757.953.811-.171 1.329-.967 1.16-1.777-.172-.81-.965-1.33-1.778-1.159zm-2.037-5c-.812.172-2.308 1.173-2.139 1.983.173.81 1.945 1.124 2.757.953.811-.171 1.329-.967 1.16-1.777-.172-.81-.966-1.33-1.778-1.159z"/>
</svg>
