<svg xmlns="http://www.w3.org/2000/svg" viewBox="0 0 36 36">
  <path fill="#9266CC" d="M27.244 34c2.831 0 4.926-.877 5.266-1.027 2.271-1.01 3.293-3.669 2.284-5.939-.999-2.25-3.616-3.275-5.872-2.314-.133.05-1.793.649-3.343-.072-1.851-.861-2.995-3.309-3.628-5.209-.144-.43-.385-1.274-.686-2.316-1.866-6.471-2.832-8.285-3.983-9.82C13.571 2.352 7.69 2.007 4.799 2.587c-2.437.487-4.018 2.858-3.53 5.295.488 2.438 2.86 4.02 5.296 3.53.162-.026 2.204-.306 3.424 1.169.643 1.287 2.08 5.128 2.63 7.034.346 1.199.629 2.171.794 2.667 1.773 5.317 4.666 8.893 8.603 10.629C23.868 33.729 25.67 34 27.244 34z"/>
</svg>
