<svg xmlns="http://www.w3.org/2000/svg" viewBox="0 0 36 36">
  <path d="M30.923 32.964c-.089 0-.18-.012-.269-.036-.532-.148-.844-.699-.696-1.231.757-2.722-.77-4.542-.785-4.56-.359-.419-.312-1.051.107-1.41.418-.359 1.051-.312 1.41.107.092.107 2.234 2.66 1.195 6.397-.122.443-.525.733-.962.733zm-7.199-.563c-.245 0-.49-.089-.684-.27-.403-.378-.424-1.011-.047-1.414 1.485-1.587 1.453-4.193 1.452-4.22-.016-.552.419-1.012.972-1.028.542-.005 1.013.419 1.028.972.004.139.073 3.437-1.991 5.644-.197.21-.464.316-.73.316zm-8.542-8.696c-.48 0-.904-.347-.985-.837-.09-.544.278-1.06.823-1.149 3.074-.51 4.774-2.377 4.791-2.396.365-.41.998-.449 1.409-.084.412.365.453.993.091 1.406-.087.099-2.156 2.415-5.964 3.046-.056.01-.111.014-.165.014zm2.921 4.857c-.425 0-.819-.272-.954-.698-.166-.526.126-1.089.652-1.255 2.693-.853 3.88-2.83 3.892-2.85.28-.477.892-.637 1.368-.357.477.279.636.893.357 1.368-.063.108-1.595 2.663-5.013 3.744-.101.033-.203.048-.302.048zm-4.619-10.67c-.496 0-.927-.369-.991-.875-.069-.548.319-1.048.867-1.118 2.689-.34 4.657-1.971 4.676-1.988.422-.354 1.053-.303 1.408.119.356.421.305 1.05-.115 1.407-.097.083-2.42 2.029-5.718 2.446-.043.006-.085.009-.127.009zm-1.821-4.767c-.425 0-.819-.273-.954-.701-.165-.527.127-1.088.654-1.254 3.13-.983 4.253-2.692 4.299-2.764.295-.462.911-.605 1.375-.312.465.292.611.899.324 1.366-.06.097-1.506 2.396-5.399 3.619-.099.031-.2.046-.299.046z" fill="#744EAA"/>
</svg>
