<svg xmlns="http://www.w3.org/2000/svg" viewBox="0 0 36 36">
  <path fill="#963B22" d="M18.821 3.118c.859.07 2.492-1.259 4.177-.741-1.037.821.282 1.908 1.076 2.469.469.331 2.76.29 3.115.686-1.729.778-.878 1.75-.575 2.494.384.945.563 1.949.563 2.942 0 3.604-.706 5.047-1.412 3.604-.706-1.441-1.356-3.368-1.356-3.368s-4.292.485-5.704-.957l.503 1.796s-1.396-.332-2.909-2.319l-.519 1.772s-.971-.477-2.723-1.969c0 0-2.118 1.442-2.824 5.046-.196 1.001-1.412 0-1.412-3.604 0-1.214.037-2.696.519-3.908.347-.873 1.514-1.745.045-3.085 1.642-.735 3.307.718 4.344.823.544-.868 2.87-3.366 3.824-3.589-.173 1.081.292 1.829 1.268 1.908z"/>
</svg>
