<svg xmlns="http://www.w3.org/2000/svg" viewBox="0 0 36 36">
  <path fill="#88C9F9" d="M31.492 8.021c.36.066.776.114 1.139.074-.602-.43-1.421-1.148-1.967-1.641-2.314-3.621-6.343-4.974-9.12-4.974-2.246 0-5.708 1.133-7.628 3.316S13.85 10 15.735 10.763c-.175-.924-.348-2.163-.194-3.17 1.022 1.039 2.682 2.078 5.319 2.574.391.122 1.878.647 3.063 1.885-.037-.761-.313-1.301-.529-1.616.295.012.574.034.887.034 2.285 0 3.816.985 4.446 2.888-.034.512-.19 1.771-.906 2.958.762-.248 1.185-.705 1.374-.96.494 1.429 1.717 2.622 1.717 2.622.562-3.938 2.094-4.135 1.226-7.964-.162-.719-.385-1.378-.646-1.993z"/>
</svg>
