<svg xmlns="http://www.w3.org/2000/svg" viewBox="0 0 36 36">
  <path fill="#99AAB5" d="M13 32c-.256 0-.512-.098-.707-.293-.391-.391-.391-1.023 0-1.414l12-12c.391-.391 1.023-.391 1.414 0s.391 1.024 0 1.415l-12 12c-.195.194-.451.292-.707.292zm-4-4c-.256 0-.512-.098-.707-.293-.391-.391-.391-1.023 0-1.414l12-12c.391-.391 1.023-.391 1.414 0s.391 1.023 0 1.414l-12 12.001C9.512 27.902 9.256 28 9 28zm-4-4c-.256 0-.512-.098-.707-.293-.391-.391-.391-1.023 0-1.414l12-12c.391-.391 1.023-.391 1.414 0s.391 1.023 0 1.414l-12 12.001C5.512 23.902 5.256 24 5 24z"/>
</svg>
