<svg xmlns="http://www.w3.org/2000/svg" viewBox="0 0 36 36">
  <path fill="#963B22" d="M27.41 5.412c.824-2.202-1.159-3.876-2.847-4.048-1.024-.104-1.948.549-2.398 1.331C20.114-.739 17.046.07 15.094.757c-2.068.728-5.144 2.869-3.937 5.17 1.207 2.302 5.238 1.312 5.238 1.312l1.459 2.352c-.394-2.024.95-2.476 1.571-2.035.654.465.22 1.956.518 2.544.298.588 1.33 1.394 1.33 1.394.634-.806 2.635-3.578 1.7-6.935.387-.145.968-.047 1.437.198 1.192.619.253 3.703 1.911 4.678 1.589.935 2.521-.351 2.521-.351-1.628.054-2.219-1.567-1.432-3.672z"/>
</svg>
