<svg xmlns="http://www.w3.org/2000/svg" viewBox="0 0 36 36">
  <path fill="#F4900C" d="M33.995 25.192c0-.023.003-.044.003-.067l-.002-.039.002-.086-.006.006C33.928 21.679 31.216 19 27.873 19c-.298 0-.588.029-.875.07-.286-.041-.577-.07-.875-.07-3.383 0-6.125 2.742-6.125 6.125 0 0 .125 3.188-1 6.875 0 0 3.344 2 8 2s8-2 8-2c-.968-3.172-1.01-6.061-1.003-6.808zm-1.002 1.848c0 3.291-2.685 5.96-5.997 5.96s-5.997-2.669-5.997-5.96c-.001-.013.001-.027.001-.04h-.002v-1.911c4.172-.181 6.588-1.592 7.929-2.91.91 1.074 2.351 2.414 4.071 2.816V27h-.007l.002.04z"/>
</svg>
