<svg xmlns="http://www.w3.org/2000/svg" viewBox="0 0 36 36">
  <path fill="#D4AB88" d="M18.133 6.036c1.024-.19 2.358.58 2.372 1.726.019 1.599-1.112 2.732-2.062 2.439-.996-.307-1.576-.653-1.786-1.78-.209-1.127.452-2.195 1.476-2.385z"/>
  <path fill="#D4AB88" d="M16.876 8.742c-1.07-1.895 2.236-1.091 2.236-1.091.627.145-.011 1.113.175 1.745.127.437-.772.482-.772.482s-.393-.082-.506.392l-.001.004c-.028.121-.044.268-.024.472.098 1.011-1.3 1.349-1.397.336-.038-.401.07-.726.186-1.023l.01-.026c.173-.441.357-.822.093-1.291z"/>
</svg>
