<svg xmlns="http://www.w3.org/2000/svg" viewBox="0 0 36 36">
  <path d="M18 12.64l-.169.524h-.555l.451.325-.173.524.446-.325.445.325-.171-.528.449-.32h-.552zm-3.08 1l.171.523-.448.326.555-.001.168.525.169-.525.552.001-.448-.326.175-.522-.447.324zm-1.904 2.621l.446.322-.171.527.449-.327.445.326-.172-.525.447-.323-.555-.001-.166-.525-.17.526zm0 3.239l.55-.002.171.527.171-.529.552.002-.447-.322.172-.525-.45.325-.442-.327.171.525zm1.904 2.619l.444-.324.448.326-.172-.529.448-.322-.552.001-.17-.525-.172.527-.55-.003.447.324zm3.08 1l.169-.523h.554l-.451-.326.173-.524-.445.326-.445-.326.17.527-.448.321h.552zm3.08-1l-.172-.523.448-.326-.555.001-.168-.525-.169.525-.552-.001.448.326-.175.523.448-.326zm1.903-2.621l-.446-.322.171-.527-.449.327-.444-.326.171.524-.446.324h.554l.166.525.171-.525zm-.001-3.238l-.549.001-.171-.527-.171.529-.552-.003.447.323-.171.525.449-.325.442.327-.171-.526zm-1.903-2.62l-.444.324-.448-.325.171.528-.447.322.552-.001.17.525.172-.528.549.005-.446-.324z" fill="#006000"/>
</svg>
