<svg xmlns="http://www.w3.org/2000/svg" viewBox="0 0 36 36">
  <path fill="#7D76B6" d="M18.86 15.76c.013.102.077.206.154.27-.051.038-.077.09-.09.128-.283.244-.939 1.941-.951 2.314-.045.199-.136.515-.213.65-.437-.392-.887-1.125-.812-1.455-.026-.004-.064-.008-.107-.021.009-.03.025-.18.03-.27-.026 0-.073 0-.112-.013.009-.056.026-.219.026-.292-.043-.013-.095-.056-.133-.099.029-.077.107-.227.146-.317-.064-.008-.111-.073-.133-.111.056-.034.129-.133.158-.193-.047-.039-.102-.094-.111-.12.06-.056.236-.248.313-.355-.048 0-.064-.004-.104-.013.064-.025.138-.12.224-.201.147.128.428.105.563.028.244.141.508.161.849.051.066.019.239.045.303.019z"/>
</svg>
