<svg xmlns="http://www.w3.org/2000/svg" viewBox="0 0 36 36">
  <g fill="#3E721D">
    <path d="M10.2 14.938l-.057-.039c-.074-.055-7.361-5.588-4.567-12.735.201-.515.781-.768 1.295-.567.518.199.768.781.568 1.295-2.245 5.743 3.837 10.357 3.899 10.403.443.33.535.956.205 1.4-.317.423-.905.525-1.343.243zm14.777-.416l-.057-.039c-.074-.055-7.361-5.588-4.567-12.735.201-.515.781-.768 1.295-.567.518.199.768.781.568 1.295-2.245 5.743 3.837 10.357 3.899 10.403.443.33.535.956.205 1.4-.316.423-.905.525-1.343.243z"/>
    <path d="M11.008 14.522l.057-.039c.074-.055 7.361-5.588 4.567-12.735-.201-.515-.781-.768-1.295-.567-.518.199-.768.781-.568 1.295 2.245 5.743-3.837 10.357-3.899 10.403-.443.33-.535.956-.205 1.4.316.423.905.525 1.343.243zm-9.147 7.85c-.139-.027-.275-.085-.397-.173-.446-.326-.544-.951-.219-1.398 4.404-6.039 12.313-5.463 12.648-5.436.549.05.958.527.914 1.077-.044.55-.526.96-1.076.917-.071-.006-7.135-.5-10.87 4.62-.236.325-.631.465-1 .393zm3.786 11.977c-.124.07-.264.115-.414.127-.551.043-1.032-.367-1.076-.918-.592-7.451 5.783-12.166 6.055-12.363.449-.319 1.07-.224 1.395.222.325.446.226 1.071-.219 1.397-.058.042-5.74 4.269-5.237 10.586.031.401-.177.764-.504.949zm20.11-19.411l.057-.039c.074-.055 7.361-5.588 4.567-12.735-.201-.515-.781-.769-1.295-.568-.518.199-.768.781-.568 1.295 2.245 5.743-3.837 10.357-3.899 10.403-.443.33-.535.956-.205 1.4.317.424.905.526 1.343.244z"/>
    <path d="M34.096 22.372c.139-.027.275-.085.397-.173.446-.326.544-.951.219-1.398-4.404-6.039-12.313-5.463-12.648-5.436-.549.05-.958.527-.914 1.077.044.55.526.96 1.076.917.071-.006 7.135-.5 10.87 4.62.236.325.631.465 1 .393zM30.31 34.349c.124.07.264.115.414.127.551.043 1.032-.367 1.076-.918.592-7.451-5.783-12.166-6.055-12.363-.449-.319-1.07-.224-1.395.222-.325.446-.226 1.071.219 1.397.058.042 5.74 4.269 5.237 10.586-.031.401.177.764.504.949z"/>
  </g>
</svg>
