<svg xmlns="http://www.w3.org/2000/svg" viewBox="0 0 36 36">
  <path fill="#5C913B" d="M14.915 33.38c-.33 0-.653-.163-.844-.462-5.907-9.252-3.183-19.831-2.853-21.007.149-.531.696-.845 1.233-.692.532.149.841.702.692 1.233-.306 1.087-2.826 10.871 2.612 19.39.297.466.161 1.084-.305 1.381-.164.106-.351.157-.535.157zm5.983 0c-.185 0-.37-.051-.537-.157-.466-.297-.602-.915-.305-1.381 4.418-6.92 3.721-15.444 2.612-19.39-.149-.532.161-1.084.692-1.233.533-.146 1.084.161 1.233.692.33 1.176 3.056 11.753-2.853 21.007-.188.299-.511.462-.842.462z"/>
  <path fill="#5C913B" d="M10 10.832h16v3H10z"/>
</svg>
