<svg xmlns="http://www.w3.org/2000/svg" viewBox="0 0 36 36">
  <path d="M6.427 16.518c.446-1.381 1.439-2.842 2.606-3.676 1.082-.772 2.114-.741 1.804.668-.957 4.367-5.024 4.912-4.41 3.008zm6.46-2.918c.586-1.73 3.587-1.871 4.032.067.446 1.938-1.025 2.072-2.228 2.027-1.203-.045-2.294-.646-1.804-2.094zm16.459 2.918c-.446-1.381-1.439-2.842-2.606-3.676-1.082-.772-2.114-.741-1.804.668.957 4.367 5.024 4.912 4.41 3.008zM22.885 13.6c-.586-1.73-3.587-1.871-4.032.067-.446 1.938 1.025 2.072 2.228 2.027 1.203-.045 2.294-.646 1.804-2.094z" fill="#77B255"/>
</svg>
