<svg xmlns="http://www.w3.org/2000/svg" viewBox="0 0 36 36">
  <path fill="#FFDC5D" d="M8.564 34.087c.131.787-2.091 1.454-2.376 1.326-.305-.137.988-.808.967-1.226-.106-2.12-.904-1.961-.818-4.18-.802-2.376-.735-4.653-.772-5.287-.087-1.472 3.528.615 3.509 1.518-.038 1.776-.663 2.321-.687 3.502.42 1.882-.131 2.499.177 4.347zm7.189-.872c.353.715.726 1.971.416 1.931-.331-.043-1.396-.505-1.736-1.427-.734-1.991-1.804-1.447-2.364-3.596-1.047-1.579-2.186-3.886-2.406-4.482-.509-1.384 3.441-1.701 3.683-.832.477 1.711.287 3.328.607 4.465.948 1.68.97 2.261 1.8 3.941z"/>
  <path fill="#FFDC5D" d="M5.621 26.146c-.164.146-.57.212-.669.182-.232-.07-.745-.46-1.026-.831-.513-.675-2.601-1.446-3.103-2.856-.085-.238-.067-.524.118-.86.113-.205 1.505-2.37 2.77-3.655.336-.342 1.248-.428 1.676-.104.427.323.483.579.233 1.04-.811 1.497-2.441 2.342-3.119 3.194.974.847.851 1.353 2.193 2.22.156-.088.457-.158.538-.136.08.022.264.154.224.397.024.02.226.196.271.286.126.245.107.934-.106 1.123zm8.023.065c.176.132.586.163.682.125.225-.089.703-.521.953-.914.454-.715 2.471-1.659 2.853-3.106.065-.244.023-.528-.19-.847-.13-.195-1.698-2.235-3.066-3.41-.364-.312-1.279-.322-1.679.037-.399.358-.433.617-.146 1.056.934 1.424 2.628 2.129 3.375 2.922-.9.925-.735 1.419-2 2.396-.163-.075-.469-.119-.547-.09-.078.029-.25.176-.19.414-.022.021-.209.214-.246.307-.103.255-.027.939.201 1.11z"/>
</svg>
