<svg xmlns="http://www.w3.org/2000/svg" viewBox="0 0 36 36">
  <path fill="#292F33" d="M21.158.777c2.625-.219 3.75 2.875 3 4.25-1.969 0-3.938-1.813-3-4.25zm9.987.062c-2.625-.219-3.75 2.875-3 4.25 1.969 0 3.937-1.812 3-4.25z"/>
  <path fill="#292F33" d="M23.783 3.902c1.812-1.438 4.344-1.062 5.156.156.031.312-.37 1.178-.688 1.031-.812-.375-2.188-.938-4.063-.062-.093-.063-.44-1.098-.405-1.125zm7.656 29.788c-.386.475.511 1.883 1.188 2.168.564.238 1.545.149 1.842-.446.186-.373-1.04-1.842-1.426-1.931-.386-.089.594.475-.356.564-.684.065-1.248-.355-1.248-.355zm-5.792.397c.505.435.654 1.474-1.069 1.801-1.268.241-2.228.086-2.347-.386-.149-.594 1.485-1.277 1.901-1.366.416-.089-.475.564.238.535.712-.031 1.277-.584 1.277-.584z"/>
</svg>
