<svg xmlns="http://www.w3.org/2000/svg" viewBox="0 0 36 36">
  <path fill="#1E5AA6" d="M30.161 17.921l-.408-.53.313-.407-.287-.002L28.267 18l-1.512-1.018-.25.001.313.407-.443.576v.036l.429.557-.429.557v.036l.413.537-.267.347c.088.265.226.548.441.82l.387-.503.335.434-.347.45c.198.168.443.317.729.446l.207-.269.204.265c.285-.13.53-.279.728-.447l-.343-.445.347-.451.384.499c.215-.278.346-.566.431-.833l-.242-.314.378-.491v-.127l-.394-.511.394-.511.001-.127zm-.582.638l-.37.481-.37-.481.37-.481.37.481zm-.724 1.129l.354-.461.354.461-.354.461-.354-.461zm-1.149-1.129l-.357.464-.357-.464.357-.464.357.464zm-.699 1.129l.342-.444.342.444-.342.444-.342-.444zm.909 1.1l.356-.463.356.463-.356.463-.356-.463z"/>
</svg>
