<svg xmlns="http://www.w3.org/2000/svg" viewBox="0 0 36 36">
  <path fill="#8B9497" d="M23.922 17.641c.036-1 .203-1.5.188-1.891s.328-.391.594-.469c.266-.078.391.141.609.156.219.016.344.047.281.312s-.266.608-.312.703c-.047.094.266.688.516 1.188s.609 1.141.344 2.141c-.266 1-.422 1.359-.531 1.438-.109.078-.025-.656-.122-1s-.222-.422-.222-.422-.422.398-.578.902c-.156.504-.031.871.266 1.078.297.207.969.332 1.078.395.109.062-.219.203-.672.172-.453-.031-1.525-.412-1.927-.839-.401-.427-.949-1.125-.636-1.896.172-.422.5-.562.609-.703.109-.14.504-.966.515-1.265z"/>
</svg>
