<svg xmlns="http://www.w3.org/2000/svg" viewBox="0 0 36 36">
  <path fill="#CDAD57" d="M26.656 10c-.135-.104-.344-.234-.641-.406-.297-.172-.359-.531-.219-.797.141-.266.475-.359.393-.109-.081.25-.169.557 0 .583.169.026.122-.333.278-.317.156.016-.156.578 0 .594.156.016.109-.5.281-.438s.141.516 0 .547.018.234.119.343c.102.109-.07.108-.211 0zm.799 0c.135-.104.344-.234.641-.406.297-.172.359-.531.219-.797-.141-.266-.475-.359-.394-.109s.169.557 0 .583-.122-.333-.278-.317c-.156.016.156.578 0 .594-.156.016-.109-.5-.281-.438-.172.062-.141.516 0 .547.141.031-.016.234-.117.344-.102.108.07.107.21-.001z"/>
</svg>
