<svg xmlns="http://www.w3.org/2000/svg" viewBox="0 0 36 36">
  <path fill="#FFBC00" d="M31.464 24.188c.359-.391.609-.375.797-.75s-.094-.672-.578-.583c-.484.089-.984.864-.984.864s-.921-.547-2.314-.547c-1.394 0-2.315.547-2.315.547s-.5-.775-.984-.864c-.484-.089-.766.208-.578.583s.438.359.797.75c-.578.391-1.047 1.172-1.047 1.172l.531.516s.297-.5.922-1.016c.547.625.547 1.578.547 1.578s.164-.672.418-.891c-.012-.609-.184-1.062-.184-1.062s.816-.5 1.893-.5c1.076 0 1.893.5 1.893.5s-.172.453-.184 1.062c.254.219.418.891.418.891s0-.953.547-1.578c.625.516.922 1.016.922 1.016l.531-.516c-.001-.001-.47-.782-1.048-1.172z"/>
</svg>
