<svg xmlns="http://www.w3.org/2000/svg" viewBox="0 0 36 36">
  <path fill="#656263" d="M28.203 17.406c-1.297 0-1.75-.594-1.625-1s.562-.188.703-.297c.141-.109.141-.828-.188-1.156-.328-.328-.531-.672-.391-.844-.188-.312.107-.453.194-.812.087-.359.18-.694.316-.734.137-.04.208.297.255.234.047-.062.1-.344.331-.359.231-.016.2.234.278.297.078.062.141-.29.359-.297.219-.008.281.297.375.313.094.016.125-.225.312-.188s.125.516.25.719c.125.203.391.594.234.828.219.156-.016.438-.281.641-.266.203-.578.703-.391 1.266.172.375.828-.016.984.219.16.233.098 1.17-1.715 1.17z"/>
</svg>
