<svg xmlns="http://www.w3.org/2000/svg" viewBox="0 0 36 36">
  <path fill="#292F33" d="M28.844 25.39l-4.91-1.456c.004-.051-11.873-.051-11.868 0L7.155 25.39c-.791.236-1.25 1.092-1.023 1.912.187.68.784 1.122 1.432 1.122.135 0 .274-.02.411-.059l2.878-.853c-.322.453-.409 1.065-.149 1.604.261.542.788.855 1.335.855.223 0 .451-.053.665-.163l2.35-1.219c.054.505.318 1.072.788 1.315.214.11.442.163.665.163.547 0 1.074-.409 1.335-.951L18 28.79l.157.326c.261.542.788.951 1.335.951.224 0 .451-.053.665-.163.47-.243.735-.811.789-1.315l2.35 1.219c.214.11.441.163.665.163.547 0 1.073-.313 1.335-.855.259-.539.173-1.151-.148-1.604l2.878.853c.137.039.274.059.411.059.648 0 1.245-.443 1.432-1.122.226-.82-.233-1.676-1.025-1.912z"/>
</svg>
