<svg xmlns="http://www.w3.org/2000/svg" viewBox="0 0 36 36">
  <path fill="#292F33" d="M34.808 9.627c-.171-.166-1.267.274-2.376-.291-2.288-1.166-8.07-2.291-11.834.376-.403.285-2.087.333-2.558.313-.471.021-2.155-.027-2.558-.313-3.763-2.667-9.545-1.542-11.833-.376-1.109.565-2.205.125-2.376.291-.247.239-.247 1.196.001 1.436.246.239 1.477.515 1.722 1.232.247.718.249 4.958 2.213 6.424 1.839 1.372 6.129 1.785 8.848.238 2.372-1.349 2.289-4.189 2.724-5.881.155-.603.592-.907 1.26-.907s1.105.304 1.26.907c.435 1.691.351 4.532 2.724 5.881 2.719 1.546 7.009 1.133 8.847-.238 1.965-1.465 1.967-5.706 2.213-6.424.245-.717 1.476-.994 1.722-1.232.248-.24.249-1.197.001-1.436zm-20.194 3.65c-.077 1.105-.274 3.227-1.597 3.98-.811.462-1.868.743-2.974.743h-.001c-1.225 0-2.923-.347-3.587-.842-.83-.619-1.146-3.167-1.265-4.12-.076-.607-.28-2.09.388-2.318 1.06-.361 2.539-.643 4.052-.643.693 0 3.021.043 4.155.741 1.005.617.872 1.851.829 2.459zm16.278-.253c-.119.954-.435 3.515-1.265 4.134-.664.495-2.362.842-3.587.842h-.001c-1.107 0-2.163-.281-2.975-.743-1.323-.752-1.52-2.861-1.597-3.966-.042-.608-.176-1.851.829-2.468 1.135-.698 3.462-.746 4.155-.746 1.513 0 2.991.277 4.052.638.668.228.465 1.702.389 2.309z"/>
  <path fill="#292F33" d="M14.337 10.19s-.06-3.214-1.31-4.226c-1.316-1.065-2.381.595-2.381.595s-.252-2.143-1.68-1.964c-1.428.179-1.369 1.548-1.369 1.548s-.82-1.845-2.381-1.19c-1.518.637-.76 2.024-.76 2.024s-1.145-.41-1.666.416c-.715 1.131.998 2.024.998 2.024s3.571-.833 5.357-.774c1.786.059 5.192 1.547 5.192 1.547zm7.326 0s.06-3.214 1.31-4.226c1.316-1.065 2.381.595 2.381.595s.252-2.143 1.68-1.964c1.429.179 1.369 1.548 1.369 1.548s.82-1.845 2.381-1.19c1.518.637.76 2.024.76 2.024s1.145-.409 1.667.417c.714 1.131-.998 2.024-.998 2.024s-3.571-.833-5.357-.774c-1.787.058-5.193 1.546-5.193 1.546z"/>
</svg>
