<svg xmlns="http://www.w3.org/2000/svg" viewBox="0 0 36 36">
  <path d="M28.05 26c.41.943.278 2.134.128 2.958.29-.098.575-.202.849-.312C28.949 26.671 28.05 26 28.05 26zm-16.242 1.321c.646-.809.882-1.615 1.195-2.604 0 0-.798 1.38-2.036 2.101.272.172.551.34.841.503zm6.032-1.253c-.262 1.185-1.563 2.163-2.595 2.78.51.176 1.028.338 1.553.478 1.49-1.215 1.042-3.258 1.042-3.258zm4.592 2.358s-.465.794-1.086 1.564c.086.002.175.01.261.01.241 0 .482-.011.723-.019.166-.783.102-1.555.102-1.555zm13.483-5.468s-3.224 1.087-4.397.921c-1.172-.166-.879 2.656.147 2.121s3.136-.6 4.25-3.042zM7.214 18.006s2.399-3.598 8.771-2.154c4.823 1.093 9.22 4.553 15.217 3.353 0 0-.825 5.042-10.42 5.042S5.309 20.619 7.214 18.006z" fill="#846659"/>
</svg>
