<svg xmlns="http://www.w3.org/2000/svg" viewBox="0 0 36 36">
  <path fill="#A78E81" d="M1.789 21.604c3.06 0 8.233-4.018 8.211-6.843-.023-3.06-4.106-4.106-6.843-2.737s-4.106 9.58-1.368 9.58z"/>
  <path fill="#A78E81" d="M2 14.5c-.158 0-.313-.074-.41-.213-.263-.376-1.206-2.56 6.089-8.658.214-.177.528-.147.705.063.177.212.149.527-.063.705-6.442 5.385-5.922 7.302-5.911 7.317.158.226.104.538-.123.696-.087.061-.187.09-.287.09zM5.229 31H2.891c-.552 0-1-.447-1-1s.448-1 1-1h1.51l4.505-4.505c.391-.391 1.023-.391 1.414 0s.391 1.023 0 1.414L5.229 31zm15.178-3.099c-.214 0-.432-.046-.638-.143-.75-.353-1.071-1.246-.719-1.996l9.595-20.389c.353-.75 1.248-1.071 1.996-.719.75.353 1.071 1.247.719 1.996l-9.594 20.39c-.256.543-.796.861-1.359.861z"/>
  <path fill="#A78E81" d="M19.844 27.812C22.469 28.562 26 26 27 22s.969-8.375 1.969-10.375S28 10 26 13s-6.156 14.812-6.156 14.812z"/>
</svg>
