<svg xmlns="http://www.w3.org/2000/svg" viewBox="0 0 36 36">
  <path fill="#BE1931" d="M18.11 33.515c-.031-.194-.196-.868-.314-1.095l-.467-1.48c-.021-.075-.101-.116-.175-.09-.214.073-.794.523-1.375.371-.388-.102-.642-.513-.828-.498-.059.005-.101.059-.092.117 0 0 .082.272.129.516-.043.235-.021.651-.188.911-.128.098-.214.305-.572.522-.213.129-1.186.729-1.186.729-.25.148-.287.269-.42.351-.273.168-1.026.535-1.257.68-.231.145-.289.363-.271.516.018.152.074.228.074.228s.446.283 2.106.121c.974-.095 4.774-1.125 4.774-1.125l.075-.167c.076-.168.02-.403-.013-.607z"/>
</svg>
