<svg xmlns="http://www.w3.org/2000/svg" viewBox="0 0 36 36">
  <path fill="#D4AB88" d="M15.909 11.701c-.677-.938-1.544-1.693-3.445-1.96.713.327 1.396 1.455 1.485 2.079.089.624.178 1.129-.386.505C11.302 9.826 8.84 10.81 6.4 9.284 4.695 8.217 4.177 7.038 4.177 7.038s-.208 1.574-2.792 3.178c-.452.28-.947.792-1.385 1.469v9.39c1.042 2.02 2.834 3.598 5 4.38V28c0 1.657 1.343 3 3 3s3-1.343 3-3v-2.539c1.795-.651 3.333-1.852 4.399-3.395C16.406 20.608 17 18.857 17 17c0-3.041-.318-4.229-1.091-5.299z"/>
</svg>
