<svg xmlns="http://www.w3.org/2000/svg" viewBox="0 0 36 36">
  <path fill="#77B255" d="M13.758 25.712c-.269 3.395.314 5.641.636 6.672.158.505-.201 1.016-.729 1.045-.714.039-1.591.08-2.116.08-1 0-3.477 2.243-3.942-.193C7.143 30.88 7 28.711 7 27.909s-.158-3.166 1.167-3.17c1.817-.005 2.155-.153 2.917-.705.857-.622 2.738.879 2.674 1.678zm8.426.007c.247 3.305-.257 5.437-.553 6.44-.145.492-.261.897.099 1.237.698.66 2.007-.07 2.49-.07.92 0 2.935 2.261 3.612-.991.633-3.039.604-5.475.604-6.255s-.468-1.038-1.077-1.363c-1.486-.792-1.982-.149-2.683-.687-.788-.605-2.55.911-2.492 1.689z"/>
</svg>
