<svg xmlns="http://www.w3.org/2000/svg" viewBox="0 0 36 36">
  <path fill="#FFAC33" d="M18 0c8.615 0 14 6.358 14 11.656 0 5.298-1.077 7.417-2.154 5.298l-2.153-4.238s-6.462 0-8.615-2.12c0 0 3.23 6.358-3.231 0 0 0 1.077 4.239-5.385-1.06 0 0-3.23 2.12-4.308 7.417C5.855 18.423 4 16.954 4 11.656 4 6.357 8.308 0 18 0zm9.375 24.174c-1.042 1.1-3.125 3.3-5.208 2.2-2.946-1.556-4.167-1.1-4.167-1.1s-1.221-.455-4.167 1.1c-2.083 1.1-4.167-1.1-5.208-2.2-.737-.778-3.125-2.2-3.125 0 0 3.3 2.083 5.5 2.083 5.5 2.083 5.5 6.25 5.5 6.25 5.5 1.042 1.1 7.292 1.1 8.333 0 0 0 4.167 0 6.25-5.5 0 0 2.083-2.2 2.083-5.5.001-2.2-2.388-.777-3.124 0z"/>
</svg>
