<svg xmlns="http://www.w3.org/2000/svg" viewBox="0 0 36 36">
  <path fill="#662113" d="M16.625 12.345c-.058 0-.116-.013-.17-.041-.004-.002-.371-.188-.744-.212-.434-.025-.82.133-.824.134-.192.081-.411-.009-.491-.199-.081-.19.006-.409.196-.491.022-.009.549-.234 1.167-.192.532.034 1.019.283 1.039.293.184.095.255.32.161.504-.067.13-.198.204-.334.204zm5.333.347c-.073 0-.146-.021-.211-.064-.001-.001-.313-.204-.749-.231-.448-.025-.79.106-.794.108-.19.077-.409-.017-.487-.207-.077-.191.013-.409.204-.487.02-.008.5-.196 1.124-.163.637.04 1.075.327 1.124.359.171.116.216.35.1.521-.073.107-.191.164-.311.164z"/>
</svg>
