<svg xmlns="http://www.w3.org/2000/svg" viewBox="0 0 36 36">
  <path fill="#7C533E" d="M26.3 26.621c-.339-.021-.504-.165-.57-.496-.187-.94-.313-1.721-.356-1.993l-3.912.767c.118.473.644 2.5 1.322 3.806.393.757.831.782 1.79.838 0 0 3.726-.134 6.305-.231 1.142-.043 1.225-1.795.253-2.014-.692-.156-1.438-.3-2.053-.36-.465-.046-2.539-.303-2.779-.317zm-7.462-1.676l-1.729-3.593c-.428.233-2.257 1.253-3.35 2.237-.635.572-.549 1.002-.36 1.944 0 0 1.087 3.639 1.831 6.111.32 1.062 2.024.713 1.995-.251-.022-.732-.07-1.523-.171-2.156-.073-.463-.348-2.534-.394-2.77-.064-.334.033-.53.337-.677.863-.416 1.588-.735 1.841-.845z"/>
</svg>
