<svg xmlns="http://www.w3.org/2000/svg" viewBox="0 0 36 36">
  <path fill="#A6D388" d="M8.002 25.236c.156-.67.885-1.175 1.063-.623.177.55.233 3.471.295 4.387s-.608-.184-.861-.898c-.254-.714-.644-2.234-.497-2.866zm19.115-.849c-.175-.579-.846-.279-1.003.176s.021 1.692-.01 2.465c-.031.773.325.014.551-.574.227-.588.627-1.521.462-2.067zm-16.802-.852c.024-.521.923-1.192 1.004-.656.081.536.571 6.09.845 7.289.274 1.199-.196.978-.522.124s-1.401-5.186-1.327-6.757zm14.802-.853c-.245-.141-.842.207-.89.639-.047.432-.005 4.021-.202 4.982-.196.961.115.81.383.133s1.831-5.106.709-5.754z"/>
</svg>
