<svg xmlns="http://www.w3.org/2000/svg" viewBox="0 0 36 36">
  <path fill="#FFF" d="M23.422 17.375s.484.062.859-.281c.375-.344 1.016-.516 1.484 0 .469.516 1 .5 1.406.078.406-.422 1.016-.622 1.594-.045.578.577 1.078.33 1.422 0 .344-.33 1.062-.545 1.531 0 .469.545.797.249.797.249l-.203 1.438s-.141.031-.578-.344c-.438-.375-1.047-.516-1.484-.047-.438.469-1.094.484-1.562.031-.469-.453-1.016-.406-1.422-.047-.406.359-1.109.531-1.672 0-.562-.531-1.047-.266-1.328.016-.281.281-.662.391-.662.391l-.182-1.439zm.481 2.565c.124-.042.257-.11.378-.222.375-.344 1.016-.516 1.484 0 .469.516 1 .5 1.406.078.406-.422 1.016-.622 1.594-.045.578.576 1.078.329 1.422 0 .344-.33 1.062-.546 1.531 0 .094.108.182.183.263.234.081.311-.359 1.018-.419.979-.415-.272-.93-.329-1.312.081-.438.469-1.094.484-1.562.031-.469-.453-1.016-.406-1.422-.047-.406.359-1.109.531-1.672 0-.486-.46-.915-.322-1.203-.095-.045.038-.746-.905-.488-.994zm1.221 2.049c.223.014.447.109.642.323.469.516 1 .5 1.406.078.406-.422 1.016-.622 1.594-.045.578.576 1.078.329 1.422 0 .125-.12.3-.226.494-.284-.644.924-2.479 1.861-2.724 1.86-.248 0-2.239-.874-2.834-1.932z"/>
</svg>
