<svg xmlns="http://www.w3.org/2000/svg" viewBox="0 0 36 36">
  <path fill="#DD8B59" d="M23.846 19.719c-.095.115 1.201.682 1.201.682s.115.615.219.537.547.007.547.007.106 1.837 2.156 1.837c2.05 0 2.601-1.963 2.601-1.963s.74.009.827.054c.087.045-.178-.243-.068-.472.109-.229.375-.494.219-.557-.156-.062-1.812.391-1.812.391s.031 1.484-1.766 1.484-1.562-.969-1.562-.969-2.416-1.21-2.562-1.031z"/>
  <path fill="#DD8B59" d="M26.484 21.322c0 .048-.038.086-.086.086-.048 0-.086-.038-.086-.086v-3.955c0-.047.038-.086.086-.086.048 0 .086.038.086.086v3.955zm1.485.483c0 .039-.031.07-.07.07-.039 0-.07-.031-.07-.07v-4.719c0-.039.031-.07.07-.07.039 0 .07.031.07.07v4.719zm1.547-.258c0 .043-.035.078-.078.078s-.078-.035-.078-.078v-4.188c0-.043.035-.078.078-.078s.078.035.078.078v4.188z"/>
</svg>
