<svg xmlns="http://www.w3.org/2000/svg" viewBox="0 0 36 36">
  <path fill="#FECF3D" d="M25.875 18s.141.281.609.156c.469-.125.484-.516.484-.516l-1.093.36zm2.578-.625l-1.062.266s.109.347.508.267c.398-.08.554-.533.554-.533zm.469.5s.25.297.594.188c.344-.109.562-.516.562-.516l-1.156.328zm-1.797.313l-1.34.368s-.129.24-.082.49.172.484.172.484.125-.312.438-.375.531.188.531.188-.12-.572.281-1.155zm.266 0s-.273.155-.266.625c.004.257.266.581.266.581s.141-.253.438-.347c.297-.094.625.172.625.172s-.123-.379-.078-.672c.045-.293.25-.638.25-.638l-1.235.279zm1.437.234s-.094.204-.094.438.188.671.188.671.094-.328.438-.406c.344-.078.531.156.531.156s-.115-.231-.065-.569c.05-.337.394-.625.394-.625l-1.392.335zm-1.937 1.031l-1.171.219s.14.375.585.328c.445-.047.586-.547.586-.547zm1.625-.059s-1.125.061-1.125.138c0 .076.109.359.484.297s.641-.435.641-.435zm1.453.059l-1.109.248s.156.283.555.205c.397-.078.554-.453.554-.453z"/>
</svg>
