<svg xmlns="http://www.w3.org/2000/svg" viewBox="0 0 36 36">
  <path fill="#FFF" d="M26.094 16.688c.109-.438.188-1.047-.078-1.141-.266-.094-.736-.375-.892-.875-.155-.5-.077-1.656-.218-1.734-.141-.078-.562.109-.812-.203s-.094-.423.078-.532c.172-.109.656-.359.625-.453-.031-.094.031-.243.327-.344.548-.188.985.297 1.157.484.172.188.625.438.828.453.203.016 2.656.047 2.938.078.281.031 1 .219.938 1.078s-.184 1.688-.303 1.844c-.119.156-.197.203-.197.203s.125.688.109.812c-.016.125-.234.172-.25-.047-.016-.219-.094-.734-.094-.734l-.422-.077s.016.75-.125.969c-.141.219-.5.078-.406-.078.094-.156.141-.297.141-.484s-.047-.469-.141-.5c-.094-.031-.562.156-.906.156s-1.109-.219-1.25-.094c-.141.125-.328.766-.422 1.125-.094.359-.25.141-.234-.031s.078-.75-.016-.656c-.094.094-.062.531-.125.672-.063.14-.25.109-.25.109z"/>
</svg>
