<svg xmlns="http://www.w3.org/2000/svg" viewBox="0 0 36 36">
  <path d="M22 28c-1.979 0-3.25-.749-4-1.437-.75.688-2.021 1.437-4 1.437-3.577 0-4.842-2.448-4.895-2.553-.247-.494-.047-1.095.447-1.342.491-.244 1.086-.049 1.336.437.046.082.834 1.458 3.112 1.458 2.298 0 3.08-1.4 3.112-1.46.177-.328.503-.524.899-.533.373.006.716.212.883.546C18.92 24.6 19.701 26 22 26s3.08-1.4 3.112-1.46c.26-.481.859-.673 1.345-.42.485.251.682.839.438 1.327C26.843 25.552 25.577 28 22 28zm4 6c-1.979 0-3.25-.749-4-1.437-.75.688-2.021 1.437-4 1.437s-3.25-.749-4-1.437c-.75.688-2.021 1.437-4 1.437-3.577 0-4.842-2.448-4.895-2.553-.247-.494-.047-1.095.447-1.342.491-.243 1.086-.049 1.336.437C6.934 30.624 7.722 32 10 32c2.298 0 3.08-1.4 3.112-1.46.177-.328.523-.534.899-.533.373.006.716.212.883.546C14.92 30.6 15.702 32 18 32c2.299 0 3.08-1.4 3.112-1.46.177-.328.53-.541.899-.533.373.006.716.212.883.546C22.92 30.6 23.701 32 26 32s3.08-1.4 3.112-1.46c.26-.481.86-.673 1.345-.42.485.251.682.839.438 1.327C30.843 31.552 29.577 34 26 34z" fill="#3B88C3"/>
</svg>
