<svg xmlns="http://www.w3.org/2000/svg" viewBox="0 0 36 36">
  <path fill="#F7DECE" d="M11.213 34.309c-.052.682 1.849.953 2.129.791.299-.173-.698-.623-.702-.977-.019-1.797.53-1.648.311-3.492.443-1.625.672-2.592.672-3.131 0-1.25-3.312-.766-3.312 0 0 .344.365 1.681.417 3.131-.313 1.659.641 1.615.485 3.678zm-2.448 0c.052.682-1.849.953-2.129.791-.299-.173.698-.623.702-.977.019-1.797-.53-1.648-.311-3.492-.443-1.625-.672-2.592-.672-3.131 0-1.25 3.313-.766 3.313 0 0 .344-.365 1.681-.417 3.131.311 1.659-.642 1.615-.486 3.678z"/>
</svg>
