<svg xmlns="http://www.w3.org/2000/svg" viewBox="0 0 36 36">
  <path fill="#FFF" d="M20 8.5c0 1.38-.896 2.5-2 2.5-1.105 0-2-1.12-2-2.5S16.895 6 18 6c1.104 0 2 1.119 2 2.5zm5.918 19.74L21 19.869v-5.371c.371.326.755.678 1.127 1.043l.925 2.774c.139.42.529.685.948.685.104 0 .211-.017.316-.052.523-.175.807-.741.632-1.265l-1-3c-.049-.147-.132-.281-.241-.39C22.205 12.79 20.169 11 19 11h-2c-1.21 0-2.643 1.702-3.682 3.223l-3.765 1.882c-.494.247-.694.848-.447 1.342.247.494.846.695 1.342.447l4-2c.155-.078.288-.195.385-.339.202-.303.421-.605.643-.893l1.101 3.853-3.819 2.183c-.469.267-.758.764-.758 1.302v7c0 .828.671 1.5 1.5 1.5S15 29.828 15 29v-6.13l3.207-1.833 5.125 8.723c.279.476.78.74 1.294.74.259 0 .521-.066.759-.207.714-.419.953-1.339.533-2.053z"/>
</svg>
