<svg xmlns="http://www.w3.org/2000/svg" viewBox="0 0 36 36">
  <path fill="#583529" d="M18.734 18.386l-4.084 6.952c.117.047.231.097.35.139V28c0 .594.178 1.144.476 1.61 2.195-4.449 5.085-10.533 5.085-10.533l-1.827-.691z"/>
  <path fill="#583529" d="M13.513 7.846c.945-.291 1.598.508 1.77 1.195l.284 1.14.756-2.155c.366-1.042 1.507-1.591 2.549-1.225l3.774 1.324c1.042.366 1.591 1.507 1.225 2.549l-2.648 7.549s-.331.944-1.275.613l-5.662-1.986-.613-1.275.345-.984-1.226-4.929c-.17-.688.044-1.607.721-1.816z"/>
</svg>
