<svg xmlns="http://www.w3.org/2000/svg" viewBox="0 0 36 36">
  <path fill="#8C989F" d="M1.999 34c-.191 0-.383-.055-.554-.168-.459-.307-.583-.928-.277-1.387 1.465-2.194 3.785-3.446 6.379-3.446l.114.001h20.691c2.604-.06 4.994 1.218 6.479 3.444.307.459.183 1.08-.277 1.387-.459.305-1.08.182-1.387-.277-1.117-1.675-2.784-2.612-4.802-2.554H7.647c-1.99-.014-3.697.879-4.815 2.555-.193.289-.51.445-.833.445z"/>
  <path fill="#8C989F" d="M28 30c-.553 0-1-.447-1-1V6.324c0-.552.447-1 1-1s1 .448 1 1V29c0 .553-.447 1-1 1zm-20-.135c-.552 0-1-.447-1-1V6.028c0-.552.448-1 1-1s1 .448 1 1v22.837c0 .553-.448 1-1 1z"/>
</svg>
