<svg xmlns="http://www.w3.org/2000/svg" viewBox="0 0 36 36">
  <path fill="#BBDDF5" d="M21.062 7.057c-.524-.108-6.586 2.12-8.108 2.69-1.959.733-1.381 2.407-2.238 3.944-.459.823-1.578 1.197-2.252 1.815-.7.643-.278 1.564.196 2.262.794 1.169 1.585 1.244 2.766.487.916-.587 1.594-1.51 2.162-2.422.724 2.055 3.283 2.263 5.183 2.32 1.193.036 2.42-.056 3.566-.407.837-.257 1.119-.397 1.105-1.385 0 0 .222-2.11-.544-4.019.385.302.737.501.927.959.152.369.08.794.196 1.156.165.511.585.7 1.087.866.607.201 1.322.321 1.963.252.87-.094.849-.441.778-1.294-.129-1.561-.546-3.25-1.748-4.316-1.411-1.25-3.16-2.52-5.039-2.908z"/>
</svg>
