<svg xmlns="http://www.w3.org/2000/svg" viewBox="0 0 36 36" xml:space="preserve">
  <path d="M16.536 27.929c-.07.267-.207.498-.389.681l-1.004.996a1.494 1.494 0 0 1-1.437.396 1.5 1.5 0 0 1-.683-2.512l1.004-.996a1.494 1.494 0 0 1 1.437-.396 1.502 1.502 0 0 1 1.072 1.831zM5.992 23.008l1.503-1.497a1.5 1.5 0 0 0-.444-2.429 1.495 1.495 0 0 0-1.674.31l-1.503 1.497a1.5 1.5 0 0 0 .445 2.429 1.496 1.496 0 0 0 1.673-.31zm5.204.052a1.5 1.5 0 1 0-2.122-2.118L6.072 23.94a1.5 1.5 0 1 0 2.122 2.118l3.002-2.998zm2.25 3a1.5 1.5 0 0 0-.945-2.555 1.489 1.489 0 0 0-1.173.44L9.323 25.94a1.5 1.5 0 0 0 .945 2.556c.455.036.874-.141 1.173-.44l2.005-1.996zm16.555-4.137.627-.542-6.913-10.85-12.27 1.985a1.507 1.507 0 0 0-1.235 1.737c.658 2.695 6.003.693 8.355-.601l11.436 8.271z" fill="#E0AA94"/>
</svg>
