<svg xmlns="http://www.w3.org/2000/svg" viewBox="0 0 36 36">
  <path fill="#77B255" d="M35.279 29.382s-1.975-6.154-2.731-8.768-1.006-4.614 1.077-6.147c1.135-.835 1.431-1.844 1.204-2.899-.377-1.752-1.284-4.076-1.72-4.925-.189-.369-.486-.758-1.073-.928 0 0-3.915-1.737-15.24-1.737-6.333 0-14.215.957-14.215 3.265v3.612c0 1.23.997 2.227 2.227 2.227H18.51c.727 0 1.37.473 1.587 1.168l4.352 13.79v.001c.429 1.402-.915 1.633-.915 2.787 0 .714.584 1.297 1.297 1.297h8.433c1.425 0 2.441-1.383 2.015-2.743z"/>
</svg>
