<svg xmlns="http://www.w3.org/2000/svg" viewBox="0 0 36 36">
  <path fill="#292F33" d="M18 3c5.648 0 9.178 4.648 9.178 8.121 0 3.473-.971 4.968-1.412 3.473C25 12 24 12 24 12s-3.882 1.538-5.294.148c0 0 2.118 4.168-2.118 0 0 0 .706 2.779-3.53-.694 0 0-2.118-.333-2.824 3.14-.196.964-1.412 0-1.412-3.473S11.646 3 18 3"/>
  <path fill="#292F33" d="M32.104 3.511l-14-3c-.068-.015-.14-.015-.209 0l-14 3c-.224.048-.387.243-.395.472-.007.229.142.434.363.498l4.944 1.413C8.615 6.489 8.5 7.176 8.5 8c0 2.29 3.285 3.5 9.5 3.5s9.5-1.21 9.5-3.5c0-.824-.115-1.511-.307-2.106l4.945-1.413c.221-.063.37-.269.362-.498-.008-.229-.171-.424-.396-.472z"/>
</svg>
