<svg xmlns="http://www.w3.org/2000/svg" viewBox="0 0 36 36">
  <path fill="#FFAC33" d="M19.875 13.979c-.609 0-1.094.375-1.531.609-.125-.156-.344-.141-.344-.141s-.219-.016-.344.141c-.438-.234-.922-.609-1.531-.609s-2.047.594-2.047 3.609c0 3.969 3.922 5.234 3.922 5.234s3.922-1.266 3.922-5.234c0-3.016-1.438-3.609-2.047-3.609zm-4.687-1.329c.391.078.904.797.904 1.117.361-.398 1.908-.43 1.908-.43s1.547.031 1.908.43c0-.32.514-1.039.904-1.117-.078-.156-.297-.109-.297-.109s.484-.828.297-1.219c-.188-.391-.922-.375-1.516-.438-.594-.062-.703-.328-.703-.328l.156-.188s-.297-.062-.234-.266c.062-.203-.188-.188-.188-.188s.188-.188.109-.359c-.078-.172-.25-.219-.25-.219s-.109-.25 0-.328c.109-.078.359.219.359-.078s-.281-.047-.359-.156c-.077-.108.142-.389-.186-.389s-.109.281-.188.391c-.078.109-.359-.141-.359.156s.25 0 .359.078c.109.078 0 .328 0 .328s-.172.047-.25.219c-.078.172.109.359.109.359s-.25-.016-.188.188c.062.203-.234.266-.234.266l.156.188s-.109.266-.703.328-1.328.047-1.516.438c-.188.391.297 1.219.297 1.219s-.217-.049-.295.107zm4.124-1.421c.531.094 1.391.281.375.953.016-.234-.109-.422-.109-.422s-.25.031-.453.219c-.087-.31-.234-.406-.234-.406s-.297.093-.391.327c-.037-.101-.088-.186-.144-.257.088-.153.144-.361.144-.591 0-.049-.012-.092-.017-.139.258.158.572.27.829.316zm-2.624 0c.255-.045.567-.156.823-.312-.005.046-.016.087-.016.135 0 .232.056.442.146.596-.054.07-.104.154-.14.253-.094-.234-.391-.328-.391-.328s-.148.097-.234.406c-.203-.188-.453-.219-.453-.219s-.125.188-.109.422c-1.017-.672-.158-.86.374-.953z"/>
</svg>
