<svg xmlns="http://www.w3.org/2000/svg" viewBox="0 0 36 36">
  <path fill="#CCD6DD" d="M17.312 20.197c.156-.453.25-.75.25-1.016V18.04s-.25-.125-.25-.266v-.422l.25-.094v.281l.25-.094v-.25H18v.266l.219.047v-.234l.281.078v.391s-.219.234-.219.297v1.141c0 .109.328 1.016.328 1.016h-1.297zm.649-3.218s-.07-.297-.242-.547c-.172-.25-.115-.718.264-.719.705-.001.236.633.236.633s-.156-.32-.219-.227c-.062.094.164.453.062.656s-.101.204-.101.204zm-1.578.281s-.07-.297-.242-.547c-.172-.25-.115-.718.264-.719.705-.001.236.633.236.633s-.156-.32-.219-.226c-.062.094.164.453.062.656l-.101.203zm3.131 0s-.07-.297-.242-.547-.115-.718.264-.719c.705-.001.236.633.236.633s-.156-.32-.219-.226c-.062.094.164.453.062.656l-.101.203zm-3.662 2.865c.084-.268.132-.473.132-.662v-1.141s-.25-.125-.25-.266v-.422l.25-.094v.281l.25-.094v-.25h.188v.266l.219.047v-.234l.281.078v.391s-.219.234-.219.297v1.141c0 .11.328 1.016.328 1.016s-1.213-.247-1.179-.354zm3.013.354c.156-.453.25-.75.25-1.016v-1.141s-.25-.125-.25-.266v-.422l.25-.094v.281l.25-.094v-.25h.188v.266l.219.047v-.234l.281.078v.391s-.219.234-.219.297v1.141c0 .068.131.457.228.733.055.16-1.197.283-1.197.283z"/>
</svg>
