<svg xmlns="http://www.w3.org/2000/svg" viewBox="0 0 36 36">
  <path fill="#99AAB5" d="M16.383 17.479h-.148v.25l-.25.094v-.281l-.25.094v.422c0 .141.25.266.25.266v1.141c0 .189-.048.395-.132.662-.016.051.248.133.531.205v-2.853zm1.568-.282h-.149v.25l-.25.094v-.281l-.25.094v.422c0 .141.25.266.25.266v1.141c0 .189-.048.395-.132.662-.016.051.249.133.531.205v-2.853zm1.601.328l-.196-.047v.25l-.25.094v-.281l-.25.094v.422c0 .141.25.266.25.266v1.141c0 .189-.049.395-.133.662-.016.051.248.133.579.252v-2.853z"/>
</svg>
