<svg xmlns="http://www.w3.org/2000/svg" viewBox="0 0 36 36">
  <path fill="#658D5C" d="M18.855 24.541c-.442-.723-.839-1.547-1.917-2.047s-1.25-.641-1.562-1.156-.922-.859-.922-.859.016-.484-.188-.797c-.203-.312-.188-.703-.188-.703s-.25.133-.188-.355-.25-.816-.25-.816.391-.516.062-1.18c.375-.648.203-1.383.203-1.383s.328-.609 0-1.266c-1.047.438-1.109 1.828-1.109 1.828l-.594-.859s-.5.328-.375.938c.125.609.094.742.094.742l-.562-.476s-.406.672.156 1.203.656.688.656.688-.281-.156-.281.094.062.359.062.359l-.736-.609s-.217.828.298 1.297c.516.469.828.641.828.641s-.984-.281-.969-.211c.016.07.203.586.703.867.5.281.875.391.875.391l-1.016.184s.25.723.844.723 1.156-.188 1.156-.188-.422.344-.547.609c-.125.266-.484.297-.484.297s.328.344.938.234c.609-.109.688-.938 1.438-.672.75.266 2.094.75 2.531 1.422s.594.828.688 1.062c.095.232.485.209.356-.002z"/>
  <path fill="#658D5C" d="M17.027 24.541c.441-.723.839-1.547 1.917-2.047 1.078-.5 1.25-.641 1.562-1.156s.922-.859.922-.859-.016-.484.188-.797.188-.703.188-.703.25.133.188-.355.25-.816.25-.816-.391-.516-.062-1.18c-.375-.648-.203-1.383-.203-1.383s-.328-.609 0-1.266c1.047.438 1.109 1.828 1.109 1.828l.594-.859s.5.328.375.938c-.125.609-.094.742-.094.742l.562-.476s.406.672-.156 1.203-.656.688-.656.688.281-.156.281.094-.062.359-.062.359l.735-.609s.218.828-.298 1.297-.828.641-.828.641.984-.281.969-.211c-.016.07-.203.586-.703.867-.5.281-.875.391-.875.391l1.016.184s-.25.723-.844.723-1.156-.188-1.156-.188.422.344.547.609c.125.266.484.297.484.297s-.328.344-.938.234-.688-.938-1.438-.672c-.75.266-2.094.75-2.531 1.422s-.594.828-.688 1.062c-.094.232-.484.209-.355-.002z"/>
</svg>
