<svg xmlns="http://www.w3.org/2000/svg" viewBox="0 0 36 36">
  <path fill="#292F33" d="M12 34h2l2-15.75 1.234-1.797 3.578-5.234.094-1.469-3.287 4.454L15 17.752l-2.388 7.362L12 27l-1.791 3.134L8 34zm12.059-17.616l-1.965 5.897L21 26l2.792 7.625 3.552-.062S23 26.625 23 26c0-.12.625-2.687.625-2.687l1.094-4.531L25 17.25l-.941-.866z"/>
  <path fill="#292F33" d="M36 36s-.384-3.845-.854-7.083c0 0-.146-3.885-1.271-5.167-1.049-1.195-2.624-1.875-2.833-1.962l-1.229-3.523L27.953 13l-2.422-2.125-1.844-1.626-.505-.621L18 2.25l2.289 7.299.524 1.67 3.246 5.165.66 2.397 1.438 2.281.774 2.701L28 27.5 26 34l10 2z"/>
</svg>
