<svg xmlns="http://www.w3.org/2000/svg" viewBox="0 0 36 36">
  <path fill="#60352A" d="M34.986 20.5c.612-.456 1.014-1.178 1.014-2 0-1.078-.687-1.989-1.644-2.34.396-.442.644-1.02.644-1.66 0-1.381-1.119-2.5-2.5-2.5l-.012.001c.317-.419.512-.935.512-1.501C33 9.119 31.881 8 30.5 8c-.619 0-1.177.233-1.614.605C26.106 5.213 22.196 3 18 3 13.706 3 9.711 5.031 6.921 8.446 6.517 8.166 6.029 8 5.5 8 4.119 8 3 9.119 3 10.5c0 .566.195 1.082.512 1.501L3.5 12C2.119 12 1 13.119 1 14.5c0 .64.248 1.218.644 1.66C.687 16.511 0 17.422 0 18.5c0 .822.402 1.544 1.014 2C.402 20.956 0 21.678 0 22.5c0 1.078.687 1.989 1.644 2.34C1.248 25.282 1 25.86 1 26.5c0 1.231.892 2.249 2.063 2.456-.039.176-.063.357-.063.544C3 30.881 4.119 32 5.5 32c.64 0 1.218-.248 1.66-.644C7.511 32.313 8.422 33 9.5 33c.64 0 1.218-.248 1.66-.644.351.957 1.262 1.644 2.34 1.644 1.229 0 2.245-.888 2.455-2.056.673.034 1.353.056 2.045.056.691 0 1.37-.031 2.043-.078C20.244 33.101 21.264 34 22.5 34c1.078 0 1.989-.687 2.34-1.644.442.396 1.02.644 1.66.644 1.078 0 1.989-.687 2.34-1.644.442.396 1.02.644 1.66.644 1.381 0 2.5-1.119 2.5-2.5 0-.187-.024-.368-.063-.544C34.108 28.749 35 27.731 35 26.5c0-.64-.248-1.218-.644-1.66.957-.351 1.644-1.262 1.644-2.34 0-.822-.402-1.544-1.014-2z"/>
</svg>
