<svg xmlns="http://www.w3.org/2000/svg" viewBox="0 0 36 36">
  <g fill="#99AAB5">
    <path d="M2.447 5.2l.707-.707L15.178 16.51l-.707.707zm1.417-2.83l.707-.707 12.728 12.728-.708.707z"/>
    <path d="M1.035 9.441L9.52.956l.707.707-8.485 8.485zm.707 3.535L12.35 2.37l.707.707L2.449 13.684zm2.122 2.122L15.177 3.785l.707.707L4.571 15.805zm2.828 1.415l9.899-9.9.707.707-9.9 9.9zm2.828 1.413l8.485-8.485.707.707-8.485 8.486z"/>
    <path d="M1.035 8.027l.707-.707L12.35 17.926l-.707.707zM7.4 1.663l.706-.707 10.607 10.606-.707.708z"/>
  </g>
</svg>
