<svg xmlns="http://www.w3.org/2000/svg" viewBox="0 0 36 36">
  <g fill="#269">
    <path d="M17.298 14.391c.391.391.39 1.024 0 1.414l-1.415 1.415c-.39.39-1.023.391-1.414 0s-.391-1.024 0-1.415l1.414-1.414c.391-.391 1.024-.391 1.415 0z"/>
    <path d="M18.005 16.512c.391.391.391 1.024 0 1.415s-1.024.391-1.414 0l-.707-.707c-.391-.391-.39-1.024 0-1.415.391-.391 1.023-.391 1.415 0l.706.707z"/>
  </g>
  <path fill="#269" d="M29.56 27.44c.586.585-.122.828-.707 1.414-.586.585-.829 1.292-1.414.707-.586-.586-.586-1.536 0-2.121.585-.586 1.536-.586 2.121 0z"/>
</svg>
