<svg xmlns="http://www.w3.org/2000/svg" viewBox="0 0 36 36">
  <path d="M26.414 7.823c.578-.683 5.432 3.727 4.58 4.579-.853.851-5.275-3.759-4.58-4.579zm1.705 7.448c.68-.443-3.072-5.816-3.535-5.427-.031.026-.045.072-.053.126.883 1.626 2.006 3.594 2.824 4.867.336.342.616.53.764.434zm.272-9.233c-.391.462 4.984 4.214 5.427 3.535.115-.178-.17-.541-.656-.97-1.215-.782-2.856-1.767-4.285-2.571-.24-.065-.418-.074-.486.006zm-2.989 2.859c.426-.429 4.641 4.589 4.002 5.093-.638.5-4.515-4.576-4.002-5.093zm2.041-2.041c-.428.426 4.59 4.64 5.092 4.002.502-.639-4.574-4.516-5.092-4.002z" fill="#CCD6DD"/>
</svg>
