<svg xmlns="http://www.w3.org/2000/svg" viewBox="0 0 36 36">
  <path fill="#A05A2D" d="M22.047 21.498c.04.021.09.005.109-.036.021-.04.005-.09-.035-.109l-2.466-1.26c-.041-.021-.089-.005-.11.034-.021.041-.005.09.036.11l2.466 1.261zm-.494.456c.038.024.089.013.113-.024.025-.036.015-.088-.023-.113l-2.309-1.527c-.037-.025-.088-.016-.112.022-.025.038-.015.087.022.112l2.309 1.53z"/>
  <path fill="#A05A2D" d="M21.054 22.377c.029.033.081.037.114.008.034-.03.037-.082.008-.116l-1.831-2.078c-.028-.034-.08-.036-.114-.007-.034.029-.037.08-.008.114l1.831 2.079z"/>
  <path fill="#A05A2D" d="M18.652 20.715l.57 1.181.102-.104.222.307.603-.328-.749-1.464z"/>
</svg>
