<svg xmlns="http://www.w3.org/2000/svg" viewBox="0 0 36 36">
  <path fill="#A05A2D" d="M13.953 21.498c-.04.021-.089.005-.109-.036-.021-.04-.004-.09.035-.109l2.467-1.26c.04-.021.089-.005.109.034.021.041.004.09-.035.11l-2.467 1.261zm.494.456c-.038.024-.088.013-.113-.024-.024-.036-.015-.088.023-.113l2.31-1.527c.038-.025.088-.016.113.022.025.038.015.087-.023.112l-2.31 1.53z"/>
  <path fill="#A05A2D" d="M14.947 22.377c-.03.033-.082.037-.115.008-.034-.03-.037-.082-.007-.116l1.831-2.078c.03-.034.081-.036.115-.007.034.029.037.08.007.114l-1.831 2.079z"/>
  <path fill="#A05A2D" d="M17.348 20.715l-.57 1.181-.102-.104-.222.307-.603-.328.749-1.464z"/>
</svg>
