<svg xmlns="http://www.w3.org/2000/svg" viewBox="0 0 36 36">
  <path fill="#292F33" d="M24.3 31.985s.371 1.007 1.62.869c.277-.031-.079 1.164-.39 1.461-.311.297-3.405 1.719-4.959.855-1.553-.864-.345-1.208.864-1.553 1.208-.345 2.865-1.632 2.865-1.632zM30.936 2.94c1.992-.206 3.261.867 3.451 1.975.368 2.152-1.002 3.9-2.193 3.555-.526-.153-.965-.547-1.072-2.188-.085-1.296-.325-3.07-1.964-1.8-.388.299.395-1.399 1.778-1.542z"/>
  <path fill="#292F33" d="M33.229 4.093c.307-.516 1.745-.438 2.298.7s-.699 3.17-.784 4.239.503 1.191.481 1.425-.626.861-1.434.626-2.784-.619-1.246-2.999c1.538-2.379.685-3.991.685-3.991z"/>
</svg>
