<svg xmlns="http://www.w3.org/2000/svg" viewBox="0 0 36 36">
  <path fill="#8899A6" d="M24.161 10.166l-.676-2.034c-.134-.302-.49-.43-.781-.275-.918.487-2.944 1.318-3.684 1.575 1.419.505 3.499 1.503 4.511 1.396.384-.04.787-.308.63-.662zm10.21 24.574c-.399.225-6.509 1.692-18.621-8.906C12.083 22.625 1.2 12.879 1.341 12.547c0 0-.329.36-.602.736-.197.271-.319.559-.274.848.31 1.967 3.112 3.819 6.962 6.781l.549.422.363.279c.588.452 2.316 1.815 4.329 3.403 2.753 2.171 8.284 6.49 8.445 6.61 2.12 1.574 4.635 2.817 7.667 3.672 3.838 1.081 5.591-.558 5.591-.558z"/>
</svg>
