<svg xmlns="http://www.w3.org/2000/svg" viewBox="0 0 36 36">
  <path fill="#BE1931" d="M34.371 34.74s.477-.219.97-.918c.493-.699.79-1.924.045-3.248-.745-1.323-3.456-5.121-4.345-6.671-.433-.755-.297-1.447-1.125-2.835 0 0-3.164-5.523-3.864-6.723-1.497-2.567-.84-3.902-1.837-4.668-.665-.511-7.306.166-9.327-1.389-1.397-1.074-1.418-4.428-2.003-5.526-.466-.875-2.02-.475-3.087.11S5.825 6.661 5.123 7.574s-1.601 1.909-1.679 2.928l-.079 1.018S19.226 26.67 23.74 29.726c7.697 5.211 10.631 5.014 10.631 5.014z"/>
</svg>
