<svg xmlns="http://www.w3.org/2000/svg" viewBox="0 0 36 36">
  <path fill="#CCD6DD" d="M23.107 14.256c-.335 0-.65-.202-.78-.533-.169-.431.043-.917.474-1.087l1.823-.715c.43-.167.919.043 1.087.475.169.431-.043.917-.474 1.087l-1.823.715c-.101.039-.204.058-.307.058zm1.347 3.063c-.291 0-.573-.151-.728-.421-.231-.401-.093-.914.309-1.145l1.793-1.031c.402-.231.915-.092 1.145.309.231.401.093.914-.309 1.145l-1.793 1.031c-.132.076-.275.112-.417.112zm1.821 2.752c-.256 0-.509-.117-.673-.338-.277-.371-.2-.896.171-1.173l1.514-1.129c.371-.277.897-.201 1.173.171.277.372.2.897-.171 1.174l-1.514 1.128c-.15.113-.326.167-.5.167zm1.945 2.571c-.242 0-.482-.104-.648-.307-.294-.358-.241-.887.116-1.181l1.155-.948c.357-.293.887-.242 1.181.116s.241.887-.116 1.181l-1.155.948c-.157.128-.346.191-.533.191zM3.2 10.76s.675.612 1.425.726c.75.114 2.079.95 2.993 1.653.914.703 4.399 3.292 6.534 5.444s5.495 6.58 6.801 7.863c1.306 1.282 3.413 3.193 5.214 4.347s3.455 2.131 4.516 2.686c1.368.716 2.632 1.144 3.688 1.261-.368.216-2.313.946-5.69-.205-3.228-1.101-5.332-2.294-7.071-3.586-1.739-1.292-11.208-8.808-12.759-10.001-1.551-1.193-6.188-4.728-6.92-5.787-1.04-1.504-.99-2.162-.788-2.424.492-.641 1.531-2.382 2.057-1.977z"/>
</svg>
