<svg xmlns="http://www.w3.org/2000/svg" viewBox="0 0 36 36">
  <path fill="#E2C196" d="M28.313 14.316c-1.076.54-2.32.982-2.873.817-.415-.124-1.235-.382-1.886-.38-.651.002-.76.343-.325 1.021.435.679 1.324 1.039 2.032.823.708-.216 2.276-.29 3.233-.317.956-.025.628-2.369-.181-1.964z"/>
  <path fill="#E2C196" d="M27.85 14.614c.484-.258 1.333-.391 1.333-.391l.929-2.272 2.482 1.636s-1.65 1.934-2.05 2.355c-.4.422-1.77.457-2.595.341-.826-.115-.64-1.381-.099-1.669zm1.972 11.558s-2.739-1.872-2.937-1.076c-.198.796 2.252 2.908 2.846 4.888.24.799 1.68 1.663 1.697.079.03-2.735-1.606-3.891-1.606-3.891z"/>
  <path fill="#E2C196" d="M27.162 25.501s.88 1.752 1.766 1.567 3.219-3.005 3.92-4.075c.701-1.07.419-3.671-1.168-2.416-1.586 1.253-4.518 4.924-4.518 4.924z"/>
</svg>
