<svg xmlns="http://www.w3.org/2000/svg" viewBox="0 0 36 36">
  <path fill="#F3D2A2" d="M32.932 7.593l-.245 2.329-2.675-.429.01-2.022z"/>
  <path fill="#F3D2A2" d="M33.434 7.67c-.953 1.243-2.434 1.138-3.838.894-1.338-.233-1.093-2.671-.44-4.083.658-1.422 2.829-1.498 3.959-.631 1.131.867 1.273 2.577.319 3.82z"/>
  <path fill="#F3D2A2" d="M25.451 7.96c-.942-1.226-2.63-2.587-2.806-3.374-.214-.957-.164-1.954-1.499-2.752-.842-.503-.278.882-.154 2.717.071 1.055 1.795 3.768 2.764 4.759.623.637 3.457 1.854 4.439 3.973.166.358-.01.759.503 1.569.85 1.343 1.792 2.849 1.109 4.412 2.984.155 5.482-1.221 5.482-1.221-.883-2.313-.212-4.329-.94-6.15-1.15-2.879-2.429-2.989-4.35-2.598-1.467.3-2.312-.572-4.548-1.335z"/>
</svg>
