<svg xmlns="http://www.w3.org/2000/svg" viewBox="0 0 36 36">
  <path fill="#9B3C07" d="M25.988 9.758c.036.026.069.035.106.066 1.181.986 3.125 3.915 4.088 5.49.09.146.249.21.414.215.216-1.052.273-2.283.266-3.455-.247.518-.425 1.087-.538 1.593-.908-1.4-2.47-3.675-3.59-4.611-.666-.557-1.468-.672-2.171-.34.672.226 1.12.615 1.425 1.042zm-20.17 5.556c1.248-2.042 3.059-4.63 4.089-5.49.069-.058.131-.082.196-.121.299-.4.731-.759 1.359-.976-.708-.349-1.522-.235-2.197.33-1.122.937-2.683 3.212-3.59 4.611-.106-.472-.267-1.001-.488-1.49-.003 1.141.057 2.328.265 3.349.148-.02.286-.082.366-.213z"/>
</svg>
