<svg xmlns="http://www.w3.org/2000/svg" viewBox="0 0 36 36">
  <path fill="#D79E84" d="M30.608 15.053s.2-2.476 1.197-3.542c1.302-1.393 2.87-.314 2.749 1.64-.44 7.086-1.996 9.033-4.018 10.196-2.021 1.164-4.789.946-7.718-1.872s-4.158-4.554-4.508-5.797c-.35-1.244.956-2.254 2.07-1.621 1.002.569 2.51 2.308 2.51 2.308s-1.947-2.696-2.223-3.738c-.382-1.441 1.322-2.301 2.247-1.507.912.783 2.792 3.156 2.792 3.156s-1.606-2.464-1.754-3.651c-.146-1.172 1.239-2.208 2.463-1.186 1.223 1.023 3.189 3.971 4.193 5.614zm-25.216 0s-.2-2.476-1.197-3.542c-1.302-1.393-2.87-.314-2.749 1.64.44 7.086 1.996 9.033 4.018 10.196 2.021 1.164 4.789.946 7.718-1.872s4.158-4.554 4.508-5.797c.35-1.244-.956-2.254-2.07-1.621-1.002.569-2.51 2.308-2.51 2.308s1.947-2.696 2.223-3.738c.382-1.441-1.322-2.301-2.247-1.507-.912.783-2.792 3.156-2.792 3.156s1.606-2.464 1.754-3.651c.146-1.172-1.239-2.208-2.463-1.186s-3.189 3.971-4.193 5.614z"/>
</svg>
