<svg xmlns="http://www.w3.org/2000/svg" viewBox="0 0 36 36">
  <path fill="#99AAB5" d="M36 13.533C36 8.867 32.866 7 29 7c-1.621 0-3.285.354-4.676 1.027C22.523 6.798 20.405 6.062 18 6.062s-4.523.736-6.324 1.965C10.285 7.354 8.621 7 7 7c-3.866 0-7 1.867-7 6.533 0 3.844 2.128 6.417 5.038 7.206-.043.536-.068 1.073-.068 1.611 0 5.729 4.52 7.675 8.581 8.326C14.649 31.487 16.232 32 18 32s3.351-.513 4.449-1.323c4.062-.651 8.581-2.597 8.581-8.326 0-.538-.025-1.075-.068-1.611 2.91-.79 5.038-3.363 5.038-7.207z"/>
</svg>
