<svg xmlns="http://www.w3.org/2000/svg" viewBox="0 0 36 36">
  <path d="M18 18.927c.306 0 .555-.424.555-.946s-.249-.947-.555-.947c-.306 0-.554.424-.554.947-.001.522.248.946.554.946zm-.231-2.497c-.502-.739-.746-1.677-.746-2.821 0-1.145.244-2.083.746-2.823v5.644zm.462 0c.501-.739.744-1.677.744-2.821 0-1.145-.243-2.083-.744-2.823v5.644zm-.462 3.1c-.502.738-.746 1.677-.746 2.821 0 1.146.244 2.082.746 2.822V19.53zm.462 0c.501.738.744 1.677.744 2.821 0 1.146-.243 2.082-.744 2.822V19.53z" fill="#FFF"/>
</svg>
