<svg xmlns="http://www.w3.org/2000/svg" viewBox="0 0 36 36">
  <path fill="#292F33" d="M17.7 5.445c1.173-.195 2.067-1.049 2.405-1.461s.228 1.174-.405 1.804-2-.343-2-.343zm-4.524 1.373c-1.431-.33-2.446-.083-3.012.22s.563-.055 1.994.688 1.018-.908 1.018-.908zm-.413 6.055c-.55.771-1.101 2.064-1.018 3.193.083 1.128-1.183-.853-.138-2.67s1.156-.523 1.156-.523zM26.08 8.932c1.188.583 1.958 1.547 2.206 2.097s.798.908 1.101.963c.303.055-.248.33-.963 0-.716-.33-1.239-1.134-1.817-1.365-.578-.231-.527-1.695-.527-1.695zM8.288 15.316c-.011 1.218-.561 1.939-.864 2.212-.303.272.881.322 1.321-1.052.44-1.373-.457-1.16-.457-1.16z"/>
</svg>
