<svg xmlns="http://www.w3.org/2000/svg" viewBox="0 0 36 36">
  <path fill="#D99E82" d="M5.367 27.603C4 22 4.655 18.919 5.433 16.861 6.8 13.24 16.699 5.169 23.8 2.637 25.678 1.967 31.62 1 35 1c.589 2.332-1.174 6.717-1.62 7.518-1.009 1.81-3.564 4.273-8.646 9.482-.252.258-5.119-.46-5.376-.191-.283.296 4.044 1.579 3.755 1.889-.738.79-1.495 1.624-2.268 2.507-.172.196-8.311-.923-8.484-.722-.232.27 7.501 1.862 7.266 2.14-.645.765-1.299 1.564-1.959 2.397-1.725 2.178-12.301 1.583-12.301 1.583z"/>
</svg>
