<svg xmlns="http://www.w3.org/2000/svg" viewBox="0 0 36 36">
  <path fill="#662113" d="M35.088 1.514c-.02-.179-.047-.352-.088-.514-.378 0-.792.014-1.225.036-3.438.178-8.307 1.006-9.975 1.601-.345.123-.702.27-1.059.418-.478.198-.964.416-1.459.654.356 1.481 1.126 3.144 1.807 4.013-1.703 1.323-3.317 2.704-4.836 4.115-5.655 5.248-10.021 10.872-13.005 15.242.04.174.076.344.12.524 0 0 .219.012.589.026 1.482-2.288 5.703-8.239 13.194-14.841 1.565-1.379 3.276-2.786 5.13-4.195 1.745.787 5.228 1.597 7.487 2.087.322-.369.606-.712.849-1.028.316-.412.569-.785.763-1.134.415-.746 1.969-4.594 1.708-7.004z"/>
</svg>
