<svg xmlns="http://www.w3.org/2000/svg" viewBox="0 0 36 36">
  <path fill="#FFD83D" d="M7.826 10.408l-.023.328c-.626-.095-1.513-.445-2.341-.445-.764 0-1.357.306-1.357 1.077 0 .76.322 1.451.75 2.153l-.445.211c-.397-.772-.725-1.429-.725-2.317 0-.744.584-1.475 1.591-1.475.891 0 1.801.301 2.55.468zm.711 0l.023.328c.626-.095 1.513-.445 2.341-.445.765 0 1.357.306 1.357 1.077 0 .76-.322 1.451-.75 2.153l.445.211c.397-.772.725-1.429.725-2.317 0-.744-.584-1.475-1.591-1.475-.891 0-1.801.301-2.55.468zm-.356-3.382l-.262.492.262.49.263-.49zm0 1.242l-.262.49.262.492.263-.492zm-.935-.13l.414.262.412-.262-.412-.263zm1.045 0l.412.262.414-.262-.414-.263z"/>
  <path fill="#FFD83D" d="M8.181 7.945c.11 0 .199.088.199.198 0 .11-.089.199-.199.199-.109 0-.199-.088-.199-.199 0-.109.09-.198.199-.198zm0 .936c.294 0 .533.238.533.533 0 .293-.238.531-.533.531-.294 0-.532-.238-.532-.531 0-.294.238-.533.532-.533zm0 3.319c-.658 0-1.141.311-1.17 1.1-.161-.283-.841-1.173-1.476-1.054-.376.071-.71.594-.653 1.194-.313-.898-1.228-1.046-1.896-.515.593.488.857 1.927 1.356 2.552h7.68c.499-.625.764-2.064 1.357-2.552-.668-.531-1.583-.383-1.895.515.055-.6-.279-1.124-.657-1.194-.634-.119-1.313.771-1.474 1.054-.03-.79-.514-1.1-1.172-1.1z"/>
</svg>
