<svg xmlns="http://www.w3.org/2000/svg" viewBox="0 0 36 36">
  <path fill="#FFD83D" d="M7.715 10.383s.585.084.931 0c0 0 .135 1.197.252 1.641 0 0-.412-.117-.702-.117s-.733.117-.733.117.083-.539.146-.898.106-.743.106-.743zm-4.403 1.635c-.189-.804-.198-1.625.817-2.324s2.708-.109 3.176.007.478.627-.096.484-2.183-.591-2.959.102-.626 1.204-.507 1.614c.344 1.181-.284.744-.431.117zm9.739.046c.189-.804.198-1.625-.817-2.324s-2.708-.109-3.176.008-.478.627.096.484 2.183-.591 2.959.102.621 1.202.507 1.614c-.261.945.283.743.431.116z"/>
</svg>
