<svg xmlns="http://www.w3.org/2000/svg" viewBox="0 0 36 36">
  <path fill="#31373D" d="M34.157 20.709c-.807-1.404-1.932-2.604-3.565-3.526-.431-.244-1.826-.275-1.826-.275s-.707-.809-1.344-.978c-3.476-.923-8.798.434-10.427 1.086-1.628.652-1.914.299-3.995-.016-.277-.042-.586-.066-.918-.073-.503-.431-.114-1.509-1.114-1.509S9.535 16.465 9 17c-.226.031-.456.074-.688.125-.207.042-.412.097-.621.155-.32-.673-.774-1.347-1.222-1.28-.402.06-.466 1.098-.421 1.943-.272.152-1.946 3.729-3.019 6.198-.092.212-1.882.83-2.064 1.011-.616.612-1.062 1.152-.653 1.642.631.757 2.649.694 3.91.505 1.261-.189 3.847-1.513 5.108-1.513 3.443 0 3.925 3.154 4.353 5.505.387 2.128.339 4.763 1.317 4.709s3-2 3-5c1 0 7.728.674 8 1s1 4 2 4 5-7 5-13c1 2 .668 4.172.668 4.878S34 30 35 30s1-2.009 1-3-.594-4.119-1.843-6.291z"/>
</svg>
