<svg xmlns="http://www.w3.org/2000/svg" viewBox="0 0 36 36">
  <path fill="#E1E8ED" d="M4.958 22c.853-2.352 1.615-3.78 4.042-5-1.229.167-2.579.554-3.75 1.458-2.775 2.144-1.659 3.795-3.235 5.624-.329.381-.714.736-1.049 1.069C2.75 25 4.11 24.34 4.958 22zm11.596-3.809c-2.504.888-5.941 3.094-7.679 4.553C6.5 24.74 4.559 25.473 3.562 26c-1.631.863.755 1.177 3.438 0 2.108-.925 5.94-2.519 8.875-2.5 6.462.041 9.625-5.292 11.548-7.57-3.792-.334-8.162 1.301-10.869 2.261z"/>
  <circle fill="#E1E8ED" cx="7" cy="21" r="1"/>
</svg>
