<svg xmlns="http://www.w3.org/2000/svg" viewBox="0 0 36 36">
  <path fill="#3E721D" d="M23.594 25.677l2.083-2.083c.573-.573.573-1.51 0-2.083-.573-.573-1.51-.573-2.083 0l-2.083 2.083c-.573.573-.573 1.51 0 2.083.574.573 1.511.573 2.083 0zm3.471 3.471l2.083-2.083c.573-.573.573-1.51 0-2.083-.573-.573-1.51-.573-2.083 0l-2.083 2.083c-.573.573-.573 1.51 0 2.083.574.573 1.511.573 2.083 0zm3.471 3.471l2.083-2.083c.573-.573.573-1.51 0-2.083-.573-.573-1.51-.573-2.083 0l-2.083 2.083c-.573.573-.573 1.51 0 2.083.574.573 1.511.573 2.083 0z"/>
</svg>
