<svg xmlns="http://www.w3.org/2000/svg" viewBox="0 0 36 36">
  <path fill="#4289C1" d="M3.852 31.3s-.924 1.07-1.994.146c-1.07-.924-.852 2.068-.852 2.068s3.137 1.776 5.132 1.631c1.995-.146.925-1.07-.146-1.995l-2.14-1.85z"/>
  <path fill="#4289C1" d="M7.75 7.812c2.732-.311 3.272.58 3.692 1.405.978 1.92-.87 3.333-1.341 4.022-.471.688-2.862 2.717-3.152 3.841-.29 1.123.145 1.123.906 1.667.761.543 3.413 1.863 3.812 2.733.398.869.268 1.457-.167 2.146s-1.574 3.876-1.502 4.709c0 0-.978.833-1.884.073 0 0 .072-2.681.254-3.696.181-1.014.57-1.805.57-1.805l-2.531-.844s.507 1.394.471 2.046-.874 1.908-1.232 2.355c-.58.725-1.774 3.331-1.793 4.836 0 0-.89 1.214-1.994.146 0 0-.017-2.481.127-3.46.145-.978 1.268-3.08 1.522-3.551.254-.471-.374-.881-.664-1.497S.826 19.979.826 18.674c0-1.304.652-3.297 1.159-4.022.507-.725 1.531-3.522 1.775-4.312.472-1.521 2.069-2.309 3.99-2.528z"/>
</svg>
