<svg xmlns="http://www.w3.org/2000/svg" viewBox="0 0 36 36">
  <path fill="#67757F" d="M21.733 14.605l-7.449-.077-1.255 1.614c-.31.398-.467 1.01-.467 1.337-.001.833.562 2.792.732 4.287.181 1.598 3.542.793 3.497.192-.073-.972.11-1.64-.302-2.511-.078-.165.199-.662.199-.662.415.24.872.395 1.353.449l-.627 1.269c-.224.454-.259 1.109-.086 1.584 0 0 1.328 3.135 1.476 3.874.323 1.602 4.206.488 3.706-.61-.595-1.308-.553-2.954-1.438-3.923.905-1.135 2.197-2.59 2.041-3.979.002-.001-1.319-2.672-1.38-2.844z"/>
</svg>
