<svg xmlns="http://www.w3.org/2000/svg" viewBox="0 0 36 36">
  <path fill="#60352A" d="M25.274 27.038l-3.294-.941c.003-.034.02-.063.02-.097 0-.553-.447-1-1-1h-6c-.552 0-1 .447-1 1 0 .034.016.063.019.097l-3.294.941c-.531.152-.838.706-.686 1.236.125.44.525.726.961.726.091 0 .184-.013.275-.038l1.931-.552c-.216.293-.274.688-.1 1.037.175.351.528.553.895.553.15 0 .303-.034.446-.105l1.577-.788c.036.326.213.631.529.788.143.071.296.105.446.105.367 0 .72-.202.896-.553l.105-.211.105.211c.176.351.529.553.896.553.15 0 .303-.034.446-.105.315-.157.493-.462.529-.788l1.576.788c.144.071.297.105.447.105.367 0 .72-.202.896-.553.174-.349.116-.744-.1-1.037l1.931.552c.091.025.183.038.275.038.434 0 .835-.286.961-.726.151-.53-.156-1.084-.688-1.236zM18 0c8.615 0 14 6.358 14 11.656 0 5.298-1.077 7.417-2.154 5.298l-2.153-4.238s-6.462 0-8.615-2.12c0 0 3.23 6.358-3.231 0 0 0 1.077 4.239-5.385-1.06 0 0-3.23 2.12-4.308 7.417C5.855 18.423 4 16.954 4 11.656 4 6.357 8.308 0 18 0z"/>
</svg>
