<svg xmlns="http://www.w3.org/2000/svg" viewBox="0 0 36 36">
  <path fill="#CCD6DD" d="M34.768 10.814l-2.736-2.737-4.108-4.106-2.738-2.738c-1.512-1.512-3.963-1.512-5.433-.041l-5.91 5.911c.082.301.157.589.157.897 0 1.104-.896 2-2 2-.308 0-.596-.075-.857-.2l-9.91 9.911c-1.512 1.513-1.512 3.963 0 5.476l2.738 2.737 4.106 4.107 2.737 2.737c1.512 1.512 3.964 1.512 5.476 0l9.911-9.91c-.126-.261-.201-.55-.201-.858 0-1.104.896-2 2-2 .308 0 .597.075.857.2l5.91-5.911c1.512-1.512 1.512-3.964.001-5.475zM16 14c-1.104 0-2-.896-2-2s.896-2 2-2 2 .896 2 2-.896 2-2 2zm4 4c-1.104 0-2-.896-2-2s.896-2 2-2 2 .896 2 2-.896 2-2 2zm4 4c-1.104 0-2-.896-2-2s.896-2 2-2 2 .896 2 2-.896 2-2 2z"/>
</svg>
