<svg xmlns="http://www.w3.org/2000/svg" viewBox="0 0 36 36">
  <path fill="#BE1931" d="M35.939 9.001c0-1.499-5.964-2.994-11.939-3h-.03c-5.974.005-11.939 1.5-11.939 3 0 .327-.006.668-.012 1.014-.036.799-1.103.444-1.994.289-.007-.001-.013.002-.019.001-.035-.007-.067-.022-.103-.027L2.47 9.08C1.383 8.905.365 9.812.208 11.097l-.143 1.168c-.157 1.284.611 2.413 1.708 2.508l7.5.649c.075.007.148-.003.223-.003.021.003.038.012.06.013 1.298.099 2.721.058 3.136.919.031.065.064.118.098.164.436 1.007 1.102 1.923 2.131 2.66 1.764 1.264 4.654 1.823 9.05 1.826h.03c4.396-.003 7.286-.562 9.05-1.826 3.425-2.456 2.888-6.876 2.888-10.174z"/>
</svg>
