<svg xmlns="http://www.w3.org/2000/svg" viewBox="0 0 36 36">
  <path fill="#292F33" d="M14 21.001c-.376.827-.839 9.111-.839 9.762s.434.521 2.257.477c.738-.018.608-.651.738-3.993.056-1.437.304-4.297.521-5.078.216-.781-2.185-2.25-2.677-1.168zm19.993 0c.376.827.839 9.111.839 9.762s-.434.521-2.257.477c-.738-.018-.608-.651-.738-3.993-.056-1.437-.304-4.297-.521-5.078s2.185-2.25 2.677-1.168zM24 33.237c-.37 0-.673-.303-.673-.673v-9.722c0-.37.303-.673.673-.673.37 0 .673.303.673.673v9.722c0 .37-.303.673-.673.673z"/>
  <ellipse fill="#292F33" cx="24" cy="22.001" rx="10" ry="2"/>
</svg>
