<svg xmlns="http://www.w3.org/2000/svg" viewBox="0 0 36 36">
  <path fill="#F4900C" d="M25.929 12.836c0-.584-.505-1.057-1.127-1.057H11.129c-.623 0-1.057.473-1.057 1.057 0 .397.204.739.529.92v.666h2.114v-.529h2.114v.529h2.114v-.529h2.114v.529h2.114v-.529h2.114v.529H25.4v-.693c.317-.188.529-.517.529-.893zM27.514 24c0 .438-.355.793-.793.793H9.279c-.438 0-.793-.355-.793-.793 0-.438.355-.793.793-.793h17.443c.437 0 .792.355.792.793z"/>
  <path fill="#F4900C" d="M26.457 12.2c0 .292-.236.529-.529.529H10.071c-.292 0-.529-.237-.529-.529 0-.292.237-.529.529-.529l15.857.003c.293.001.529.234.529.526zm-14.271.614h11.629V14H12.186z"/>
</svg>
