<svg xmlns="http://www.w3.org/2000/svg" viewBox="0 0 36 36">
  <path fill="#FFAC33" d="M3.155 7.407c.069-.304.205-.605.435-.835.646-.646 1.474-1.282 2.577-1.308.711-.017 1.535.091 2.501.675l7.069.059c-.244-.406-.541-.798-.907-1.164-2.528-2.528-7.035-2.935-10.065-.908-1.431.956-2.268 2.284-2.497 3.685.256-.207.587-.284.887-.204zm12.592-1.391L15.738 6h-.004l.013.016zM2.959 9.842c-.023-.019-.051-.027-.073-.049-.131-.131-.202-.294-.244-.462-.137-.035-.264-.101-.379-.189-.079-.499-.076-1.007 0-1.501-.169 1.075.026 2.19.598 3.215l-.001-.002c-.081-.337-.057-.694.099-1.012z"/>
</svg>
