<svg xmlns="http://www.w3.org/2000/svg" viewBox="0 0 36 36">
  <path fill="#FFE8B6" d="M16.946 4.179c-.137-.16-.274-.32-.428-.474C13.211.399 7.298-.165 3.355 2.516-.48 5.124-1.043 10.124 2.166 13.301c.244.242.504.467.774.68 3.393 2.683 8.718 2.964 12.389.509 3.78-2.526 4.431-7.031 1.617-10.311zM15.738 6l.009.016c1.428 2.397.759 5.337-1.826 7.066-3.03 2.027-7.537 1.62-10.066-.909-.412-.412-.737-.856-.995-1.317-.572-1.025-.767-2.14-.598-3.215l.002-.028.003-.002c.23-1.401 1.067-2.729 2.498-3.685 3.031-2.026 7.537-1.62 10.066.909.366.366.663.758.907 1.164"/>
</svg>
