<svg xmlns="http://www.w3.org/2000/svg" viewBox="0 0 36 36">
  <path fill="#C1694F" d="M13.921 13.082c2.585-1.729 3.254-4.669 1.826-7.066L15.734 6h.004l-.001-.002-7.069-.059c-.967-.584-1.791-.692-2.501-.675-1.103.026-1.931.662-2.577 1.308-.23.23-.366.531-.435.835-.3-.08-.631-.003-.888.204l-.005.029c-.076.494-.079 1.002 0 1.501.116.089.243.155.38.19.043.168.113.331.244.462.022.022.05.03.073.049-.156.318-.18.675-.099 1.012l.001.002c.257.461.583.906.995 1.317 2.528 2.529 7.035 2.936 10.065.909z"/>
</svg>
