<svg xmlns="http://www.w3.org/2000/svg" viewBox="0 0 36 36">
  <path fill="#77B255" d="M16.269 7.682c-.389-.389-1.02-.389-1.409 0-.129.129-.211.285-.255.45-.164.043-.321.126-.45.254.389-.389.39-1.021.001-1.41.385-.385.393-1.013.009-1.398l-.016-.016c-.386-.386-1.015-.382-1.402.005-.131-.131-.293-.201-.461-.244-.043-.168-.113-.329-.245-.46-.232-.232-.55-.322-.851-.278-.058-.413-.239-.813-.557-1.131-.777-.777-2.037-.777-2.816.002-.779.779-.779 2.039-.001 2.817.532.531 1.285.691 1.959.497.043.073.092.144.154.207-.389.389-.389 1.02 0 1.409.226.226.532.316.826.28.066.187.169.363.319.512.396.396.974.497 1.464.307.048.112.117.218.208.31-.389.389-.389 1.02 0 1.409s1.019.389 1.409 0c.075.075.16.13.249.176l.03.016c.37.175.823.114 1.129-.192.389-.389.389-1.02 0-1.409.094-.094.163-.203.211-.318.001-.04-.001-.079-.001-.119.181-.039.353-.127.494-.268.391-.389.391-1.02.002-1.408z"/>
</svg>
