<svg xmlns="http://www.w3.org/2000/svg" viewBox="0 0 36 36">
  <path fill="#C1694F" d="M25 22h-.253c.16-.798.253-1.633.253-2.5 0-5.247-3.134-9.5-7-9.5s-7 4.253-7 9.5c0 .867.093 1.702.253 2.5H11c-2 3-1.502 8.056.122 9C18 35 14 29 18 29s0 6 6.878 2c1.624-.944 2.122-6 .122-9z"/>
  <path fill="#C1694F" d="M23.667 20.458c-.177-1.544.317-3.562.255-5.25C22.535 16.292 19.947 17 18 17s-4.51-.708-5.897-1.792c-.062 1.688.407 3.706.23 5.25-.458 4 2.353 7.184 5.667 7.184s6.125-3.184 5.667-7.184z"/>
  <path fill="#C1694F" d="M12.373 14s-5 1-6 7 3.419 6.581 5 5c2-2 0-4 0-4s1-5 1-8zm11.254 0s5 1 6 7-3.419 6.581-5 5c-2-2 0-4 0-4s-1-5-1-8z"/>
</svg>
