<svg xmlns="http://www.w3.org/2000/svg" viewBox="0 0 36 36">
  <path fill="#934035" d="M11.265 27.002c-.166 0-.327-.082-.422-.231-.148-.233-.08-.542.153-.69.04-.025 1.027-.688.997-2.022-.023-.991-.933-1.641-.942-1.646-.121-.085-.2-.221-.213-.368-.205-2.36.65-4.709.687-4.809.096-.258.381-.391.642-.296.259.096.392.383.296.642-.008.021-.761 2.099-.644 4.165.375.322 1.146 1.124 1.174 2.289.044 1.91-1.398 2.851-1.459 2.89-.085.051-.178.076-.269.076zm13.471 0c-.092 0-.186-.025-.269-.078-.062-.039-1.504-.979-1.46-2.89.027-1.165.799-1.967 1.174-2.289.118-2.072-.636-4.143-.644-4.164-.096-.259.036-.547.296-.643.257-.095.546.037.642.296.037.099.893 2.448.688 4.809-.013.149-.092.284-.215.369-.008.005-.918.654-.94 1.646-.031 1.353.986 2.016.997 2.022.232.148.302.457.153.69-.096.15-.257.232-.422.232zM24.665 22h.01-.01z"/>
</svg>
