<svg xmlns="http://www.w3.org/2000/svg" viewBox="0 0 36 36">
  <path fill="#934035" d="M15.95 29.727c-.185 0-.362-.103-.449-.28-2.274-4.635-6.795-3.15-6.986-3.086-.262.091-.545-.049-.635-.311-.09-.261.048-.544.309-.635.055-.02 5.543-1.845 8.21 3.592.122.247.02.547-.229.669-.071.034-.147.051-.22.051zm4.101 0c-.065 0-.132-.013-.195-.04-.255-.108-.373-.401-.265-.655 2.255-5.301 8.141-3.641 8.198-3.623.265.077.416.354.339.619-.077.267-.362.414-.619.341-.207-.061-5.096-1.42-6.998 3.054-.081.189-.266.304-.46.304z"/>
</svg>
