<svg xmlns="http://www.w3.org/2000/svg" viewBox="0 0 36 36">
  <path fill="#292F33" d="M4.075.777c2.625-.219 3.75 2.875 3 4.25-1.968 0-3.937-1.813-3-4.25zm9.988.062c-2.625-.219-3.75 2.875-3 4.25 1.969 0 3.937-1.812 3-4.25z"/>
  <path fill="#292F33" d="M6.7 3.902c1.812-1.438 4.344-1.062 5.156.156.031.312-.37 1.178-.688 1.031-.812-.375-2.188-.938-4.063-.062-.092-.063-.439-1.098-.405-1.125zm7.657 29.788c-.386.475.511 1.883 1.188 2.168.564.238 1.545.149 1.842-.446.186-.373-1.04-1.842-1.426-1.931-.386-.089.594.475-.356.564-.684.065-1.248-.355-1.248-.355zm-5.793.397c.505.435.654 1.474-1.069 1.801-1.268.241-2.228.086-2.347-.386-.148-.594 1.486-1.278 1.902-1.367.416-.089-.475.564.238.535.712-.03 1.276-.583 1.276-.583z"/>
</svg>
