<svg xmlns="http://www.w3.org/2000/svg" viewBox="0 0 36 36">
  <path fill="#FFDC5D" d="M25.647 34.087c.131.787-2.091 1.454-2.376 1.326-.305-.137.988-.808.967-1.226-.106-2.12-.904-1.961-.818-4.18-.802-2.376-.735-4.653-.772-5.287-.087-1.472 3.804.623 3.682 1.518-.204 1.488-.663 2.321-.687 3.502.42 1.882-.304 2.499.004 4.347zm7.188-.872c.353.715.726 1.971.416 1.931-.331-.043-1.396-.505-1.736-1.427-.734-1.991-1.962-1.447-2.522-3.596-1.047-1.579-2.186-3.886-2.406-4.482-.509-1.384 3.391-1.737 3.619-.863.5 1.914.509 3.359.829 4.496.949 1.68.971 2.261 1.8 3.941z"/>
  <path fill="#FFDC5D" d="M22.704 26.146c-.164.146-.57.212-.669.182-.232-.07-.745-.46-1.026-.831-.513-.675-2.601-1.446-3.103-2.856-.085-.238-.067-.524.118-.86.113-.205 1.505-2.37 2.77-3.655.336-.342 1.248-.428 1.676-.104.427.323 1.483.579 1.233 1.04-.811 1.497-3.441 2.342-4.119 3.194.974.847.851 1.353 2.193 2.22.156-.088.457-.158.538-.136.08.022.264.154.224.397.024.02.226.196.271.286.125.245.106.934-.106 1.123zm8.022.065c.176.132.586.163.682.125.225-.089.703-.521.953-.914.454-.715 2.471-1.659 2.853-3.106.065-.244.023-.528-.19-.847-.13-.195-1.698-2.235-3.066-3.41-.364-.312-1.279-.322-1.679.037-.399.358-1.433.617-1.146 1.056.934 1.424 3.628 2.129 4.375 2.922-.9.925-.735 1.419-2 2.396-.163-.075-.469-.119-.547-.09-.078.029-.25.176-.19.414-.022.021-.209.214-.246.307-.103.255-.026.939.201 1.11z"/>
</svg>
