<svg xmlns="http://www.w3.org/2000/svg" viewBox="0 0 36 36">
  <path fill="#7C533E" d="M27.833 15.936c0 1.448-.733 2.622-1.639 2.622-.905 0-1.639-1.174-1.639-2.622s.733-2.623 1.639-2.623c.906-.001 1.639 1.174 1.639 2.623m-16.389 0c0 1.448-.734 2.622-1.639 2.622s-1.639-1.174-1.639-2.622.734-2.623 1.639-2.623c.905-.001 1.639 1.174 1.639 2.623"/>
  <path fill="#7C533E" d="M9.734 15.717c0-5.834 3.676-10.563 8.21-10.563 4.534 0 8.211 4.729 8.211 10.563 0 5.833-3.677 10.286-8.211 10.286-4.534 0-8.21-4.452-8.21-10.286"/>
</svg>
