<svg xmlns="http://www.w3.org/2000/svg" viewBox="0 0 36 36">
  <path d="M7.333 15.667c0 .644-.522 1.167-1.167 1.167-.644 0-1.166-.523-1.166-1.167 0-.645.522-1.167 1.167-1.167s1.166.522 1.166 1.167m8.605-4.636c0 .604-.49 1.094-1.094 1.094s-1.094-.49-1.094-1.094c0-.604.49-1.094 1.094-1.094s1.094.49 1.094 1.094m7.374-5.719c0 .725-.588 1.312-1.312 1.312-.726 0-1.313-.587-1.313-1.312S21.275 4 22 4c.725.001 1.312.587 1.312 1.312m1.876 3.407c0 .432-.35.781-.781.781-.432 0-.78-.349-.78-.781 0-.432.349-.781.78-.781.431 0 .781.349.781.781M19.75 19.75c0 .553-.447 1-1 1s-1-.447-1-1 .447-1 1-1 1 .447 1 1m12.188.672c0 .518-.42.937-.937.937-.519 0-.938-.419-.938-.937s.42-.937.938-.937c.517 0 .937.419.937.937m.75-9.516c0 .639-.518 1.156-1.156 1.156-.639 0-1.157-.517-1.157-1.156 0-.639.519-1.156 1.157-1.156s1.156.517 1.156 1.156" fill="#AA8DD8"/>
</svg>
