<svg xmlns="http://www.w3.org/2000/svg" viewBox="0 0 36 36">
  <path d="M22.281 23.728c0 .362-.293.656-.655.656-.363 0-.656-.294-.656-.656 0-.362.293-.656.656-.656.362-.001.655.293.655.656M12.562 2.562c0 .449-.364.812-.812.812-.449 0-.813-.363-.813-.812s.364-.812.813-.812c.449 0 .812.363.812.812M5.606 5.938c0 .371-.301.672-.672.672-.371 0-.672-.301-.672-.672 0-.371.301-.672.672-.672.371 0 .672.301.672.672m23.113 20.07c0 .449-.363.812-.812.812-.45 0-.813-.362-.813-.812 0-.449.363-.811.813-.811.448-.001.812.362.812.811m-21.851-.511c0 .516-.418.934-.934.934S5 26.013 5 25.497c0-.517.418-.935.934-.935s.934.418.934.935M11 18.781c0 .812-.658 1.469-1.469 1.469s-1.469-.657-1.469-1.469c0-.811.658-1.469 1.469-1.469S11 17.97 11 18.781m9.351-3.981c0 .925-.75 1.675-1.676 1.675-.925.001-1.675-.75-1.675-1.675s.75-1.675 1.675-1.675c.926 0 1.676.75 1.676 1.675m8.337-10.331c0 .397-.322.719-.719.719-.397 0-.719-.322-.719-.719 0-.397.321-.719.719-.719.396 0 .719.322.719.719M34.312 3c0 .552-.447 1-1 1s-1-.448-1-1 .447-1 1-1 1 .448 1 1" fill="#CBB7EA"/>
</svg>
