<svg xmlns="http://www.w3.org/2000/svg" viewBox="0 0 36 36">
  <path d="M11.333 7.562c0 .495-.401.896-.896.896s-.895-.401-.895-.896.401-.896.896-.896.895.401.895.896m22.979 8.094c0 .432-.35.781-.781.781-.432 0-.78-.349-.78-.781 0-.432.349-.781.78-.781.432 0 .781.349.781.781m-8.624-2.125c0 .38-.308.687-.687.687-.381 0-.688-.307-.688-.687 0-.38.308-.687.688-.687.379 0 .687.307.687.687m-13.157 1.188c0 .328-.266.594-.594.594-.328 0-.593-.266-.593-.594 0-.328.265-.594.593-.594.328 0 .594.266.594.594M22.75 11.24c0 .639-.518 1.156-1.156 1.156-.639 0-1.157-.517-1.157-1.156 0-.639.519-1.156 1.157-1.156.638-.001 1.156.517 1.156 1.156m6.125-3.084c0 .535-.434.969-.969.969-.535 0-.968-.434-.968-.969 0-.535.433-.969.968-.969.535 0 .969.434.969.969m-12.641 9.93c0 .738-.598 1.336-1.336 1.336-.738 0-1.336-.598-1.336-1.336 0-.738.598-1.336 1.336-1.336.738 0 1.336.598 1.336 1.336M2.633 24.129c0 .485-.394.879-.879.879s-.879-.393-.879-.879c0-.485.394-.879.879-.879s.879.394.879.879M6 21.079c0 .358-.291.648-.648.648-.358 0-.649-.29-.649-.648s.291-.648.649-.648c.357 0 .648.29.648.648M32.156 5.75c0 .449-.363.812-.812.812-.45 0-.813-.363-.813-.812s.363-.812.813-.812c.449 0 .812.363.812.812" fill="#F5F8FA"/>
</svg>
