<svg xmlns="http://www.w3.org/2000/svg" viewBox="0 0 36 36">
  <ellipse fill="#FFF" cx="20" cy="7.5" rx="3" ry="3.5"/>
  <path fill="#FFF" d="M26 13s0-2-2-2h-7c-1 0-2 1-2 1l-2 2H9s-1 0-1 1 1 1 1 1h5l2-1.171V31s0 1 1 1h1s1 0 1-1v-8s0-1 1-1 1 1 1 1v8s0 1 1 1h1s1 0 1-1v-9s2 0 2-2v-7zM9.242 19.467c0 .846-.726 1.533-1.621 1.533S6 20.313 6 19.467c0-.847.726-1.533 1.621-1.533s1.621.686 1.621 1.533z"/>
  <path fill="#FFF" d="M13.242 22.467c0 .847-.726 1.533-1.621 1.533S10 23.313 10 22.467c0-.847.726-1.533 1.621-1.533s1.621.686 1.621 1.533zm-2 4c0 .847-.726 1.533-1.621 1.533S8 27.313 8 26.467c0-.847.726-1.533 1.621-1.533s1.621.686 1.621 1.533z"/>
</svg>
