<svg xmlns="http://www.w3.org/2000/svg" viewBox="0 0 36 36">
  <path fill="#FFAC33" d="M26.524 21.346l-1.267-.275c-.404-.093-1.173-.071-1.535-.071h-3.689c-.362 0-1.131-.022-1.536.071l-1.267.275c-.348.1-.55.392-.45.74.082.288.345.44.63.44.06 0 .12-.026.181-.043l1.266-.37c-.142.192-.18.447-.066.675.115.23.346.36.587.36.098 0 .198-.024.293-.07l1.034-.517c.024.214.14.413.347.516.094.047.194.069.293.069.241 0 .472-.133.587-.362l.068-.138-.053.138c.115.23.224.362.465.362.098 0 .198-.022.293-.069.207-.103.323-.303.347-.516l1.034.517c.094.047.194.07.293.07.241 0 .472-.13.587-.36.114-.229.076-.483-.066-.675l1.266.37c.06.017.121.043.181.043.285 0 .548-.152.63-.44.097-.348-.105-.64-.453-.74zM22 3.479c5.648 0 9.178 4.168 9.178 7.641s-.706 4.863-1.412 3.473l-1.412-2.778s-4.236 0-5.648-1.39c0 0 2.118 4.168-2.118 0 0 0 .706 2.779-3.53-.695 0 0-2.118 1.39-2.824 4.863-.196.963-1.412 0-1.412-3.473S15.646 3.479 22 3.479z"/>
</svg>
