<svg xmlns="http://www.w3.org/2000/svg" viewBox="0 0 36 36">
  <path fill="#F4ABBA" d="M31.298 20.807c4.197-1.363 5.027-3.182 4.191-6.416-.952.308-2.105-.001-2.272-.518-.168-.513.581-1.443 1.533-1.753-1.223-3.107-2.964-4.089-7.161-2.727-1.606.522-3.238 1.492-4.655 2.635C23.582 10.327 24 8.475 24 6.786c0-4.412-1.473-5.765-4.807-5.968 0 1-.652 2-1.193 2s-1.194-1-1.194-2C13.472 1.021 12 2.374 12 6.786c0 1.689.417 3.541 1.066 5.241-1.416-1.142-3.049-2.111-4.655-2.633-4.197-1.364-5.938-.381-7.162 2.727.951.31 1.701 1.238 1.534 1.753-.167.515-1.32.826-2.271.518-.837 3.233-.005 5.052 4.19 6.415 1.606.521 3.497.697 5.314.605-1.524.994-2.95 2.247-3.943 3.613-2.594 3.57-2.197 5.53.381 7.654.588-.809 1.703-1.235 2.142-.917.438.317.378 1.511-.21 2.32 2.816 1.795 4.803 1.565 7.396-2.003.993-1.366 1.743-3.111 2.218-4.867.475 1.757 1.226 3.501 2.218 4.867 2.594 3.57 4.58 3.798 7.397 2.003-.587-.81-.649-2.002-.21-2.321.437-.317 1.553.107 2.142.917 2.577-2.123 2.973-4.083.381-7.653-.993-1.366-2.42-2.619-3.943-3.613 1.816.092 3.706-.084 5.313-.605zM18 20.337c-.162-.292-.353-.538-.588-.709-.234-.171-.528-.276-.856-.341.228-.244.403-.502.493-.778.09-.275.1-.587.059-.919.302.141.602.228.892.228s.59-.087.894-.229c-.041.332-.031.644.059.919.09.276.265.534.492.778-.327.065-.621.17-.855.341-.236.172-.428.418-.59.71z"/>
</svg>
