<svg xmlns="http://www.w3.org/2000/svg" viewBox="0 0 36 36">
  <g fill="#FFF">
    <path d="M16.795 18.685c-.12.54-.653.88-1.193.76l-5.858-1.302c-.539-.12-.879-.653-.759-1.193.12-.539.654-.879 1.193-.759l5.857 1.302c.54.12.88.653.76 1.192zm.976.218c.12-.54.654-.88 1.193-.76l5.857 1.302c.54.12.879.653.76 1.193-.12.538-.654.879-1.193.759l-5.857-1.302c-.54-.118-.88-.654-.76-1.192z"/>
    <path d="M17.771 18.903c-.466.296-1.083.159-1.38-.308l-3.221-5.061c-.296-.466-.16-1.084.307-1.38.466-.297 1.084-.159 1.38.307l3.222 5.062c.295.466.158 1.083-.308 1.38zm.797 1.252c.466-.296 1.084-.159 1.38.307l3.223 5.062c.296.467.159 1.083-.308 1.381-.466.296-1.084.159-1.381-.307l-3.221-5.062c-.296-.466-.157-1.084.307-1.381z"/>
    <path d="M17.988 17.927c-.539-.12-.879-.654-.759-1.193l1.302-5.857c.119-.539.652-.879 1.192-.759.54.12.879.654.759 1.193l-1.301 5.857c-.119.538-.654.879-1.193.759zm-.217.976c.539.119.879.653.759 1.192l-1.3 5.857c-.121.54-.654.88-1.194.76-.538-.12-.878-.654-.76-1.193l1.303-5.857c.119-.539.653-.879 1.192-.759z"/>
    <path d="M17.771 18.902c-.297-.466-.159-1.083.307-1.38l5.062-3.221c.466-.296 1.084-.16 1.38.307.297.466.159 1.083-.307 1.38l-5.062 3.221c-.466.297-1.084.16-1.38-.307z"/>
    <path d="M17.771 18.902c.296.467.159 1.084-.307 1.381l-5.062 3.222c-.466.296-1.083.16-1.381-.308-.296-.465-.159-1.083.307-1.38l5.062-3.222c.467-.296 1.085-.158 1.381.307z"/>
  </g>
</svg>
