<svg xmlns="http://www.w3.org/2000/svg" viewBox="0 0 36 36">
  <path d="M22.012 25.566c.932-.592 2.168-.317 2.762.614.593.932.318 2.168-.614 2.762-.932.593-2.168.318-2.762-.614-.592-.932-.318-2.168.614-2.762zM14.55 13.841c-.932.593-2.168.319-2.761-.613-.593-.932-.318-2.168.614-2.761.932-.593 2.168-.318 2.761.613.593.932.318 2.168-.614 2.761zm1.92 10.918c1.078.241 1.758 1.31 1.52 2.388-.24 1.078-1.308 1.758-2.387 1.519-1.079-.24-1.758-1.309-1.519-2.387.239-1.079 1.308-1.758 2.386-1.52zm3.037-13.665c-1.078-.239-1.758-1.308-1.518-2.386.239-1.078 1.308-1.758 2.386-1.519 1.078.24 1.759 1.308 1.519 2.386-.241 1.079-1.309 1.758-2.387 1.519zm-6.013 10.53c.592.933.317 2.169-.614 2.763-.932.593-2.168.318-2.762-.615-.593-.931-.318-2.167.613-2.761.933-.592 2.169-.318 2.763.613zm9.339-5.943c-.593-.932-.317-2.168.614-2.761.932-.593 2.168-.318 2.761.614s.317 2.168-.613 2.761c-.933.593-2.169.318-2.762-.614zm.795 4.524c.24-1.079 1.309-1.759 2.387-1.52 1.078.24 1.758 1.309 1.519 2.387-.24 1.078-1.309 1.758-2.387 1.518-1.079-.238-1.758-1.307-1.519-2.385zm-12.69-2.821c-.24 1.079-1.308 1.758-2.386 1.519-1.078-.24-1.758-1.309-1.519-2.387.239-1.078 1.308-1.758 2.386-1.519 1.079.241 1.758 1.309 1.519 2.387z" fill="#EA596E"/>
</svg>
