<svg xmlns="http://www.w3.org/2000/svg" viewBox="0 0 36 36">
  <path fill="#CCD6DD" d="M24.219 7.5c-1.781 0-2.438 1.344-2.562 1.688-.125.344-1.344 2.406-1.438 2.875-.094.469-.562.25-.969.188-.406-.062-2.375-.156-3.094-.188 0 0-.485-.743-1.156-.688-.75.062-1.281.281-1.406 1.031s1.031 1.562 1.562 1.562c.531 0 1-.281 1.188-.281s3.094.656 3.625.719c.531.062 1.469.031 1.719-.375s2.094-2.906 2.344-3.406.187-3.125.187-3.125zm-1.531 8.594s-3.503 7.748-3.792 8.184c-.289.435-.334 1.233-.208 1.91s2.003 6.486 1.847 7.673c-.076.576 2.588 1.38 2.087.039-.469-1.258-.349-3.708-.497-5.681-.105-1.396-.5-2.813-.5-2.813l3.562-5.562s1.917 4.909 2 5.781c.031.323-.208 1.214-.188 2.344.034 1.922.309 4.416.25 5.125-.09 1.075 1.597 1.829 1.712.071.125-1.91 1.353-5.644.976-8.134-.637-4.205-1.5-8.469-1.5-8.469l-5.749-.468z"/>
</svg>
