<svg xmlns="http://www.w3.org/2000/svg" viewBox="0 0 36 36">
  <path fill="#99AAB5" d="M31.107 35.025h-4.08c-.582 0-.166-1.287-.125-1.827.042-.54.291-.249.498-.083.208.166.716-.042 1.173-.291.457-.249 1.074-.466 1.27-.168.719 1.094 1.35.9 1.875 1.312.438.344.657 1.057-.611 1.057zm-12.419 0h3.848c.581 0 .166-1.287.125-1.827-.042-.54-.291-.249-.498-.083-.208.166-1.557.374-1.693-.271-.107-.509-.958-.266-1.156.031-.625.936-2.218.565-2.625 1.094-.359.465-.426 1.056 1.999 1.056zM25.25 7.469H28c.969 0 1.5.719 1.625 1.25s.156 1.844-.312 2.625c-.469.781-1.356 2.469-1.356 3.344s.95 2.937 1.075 3.5-.985.459-1.781 1c-.781.531-1.594 1.438-1.656 1.719-.062.281-1.031.656-1.219.062-.188-.594-.833-1.35-1.688-2.062-.562-.469-1.031-.625-1-.938.031-.312.649-1.887.703-2.43.25-2.531-1.249-2.596-.828-4.32.248-1.015 1.125-3.156 1.875-3.531s1-.219 1.812-.219z"/>
</svg>
