<svg xmlns="http://www.w3.org/2000/svg" viewBox="0 0 36 36">
  <path fill="#CCD6DD" d="M28.875 7.719c.906-.062 1.188.406 1.594.594.406.188 1.5.594 1.75.688.25.094.688.625.688-.219 0-.439.219-1.531.312-2.031.133-.709.25-1.375.25-1.375s-.719-1.031-.688-1.344c.031-.312.375-1.125.781-1.312.406-.188 1.562.469 1.938.719s.219.875-.062 1.281c-.281.406-.562 1.115-.562 1.774 0 .844.019 3.264-.2 4.921-.074.561-.844.562-1.406.5s-3.051-.476-4.582-.82c-1.532-.345-.719-3.314.187-3.376zm-4.024-6.362c1.404-.299 2.624.453 3.105 1.26.826 1.383-.332 3.458.138 4.32.436.8.126.986-.5 1.406-.612.411-1.263.932-2.531.906-1.465-.029-1.676-.859-1.5-1.562.086-.342.087-.676.028-.998 0 0-.586-.469-.615-2.021-.023-1.201-.323-2.842 1.875-3.311z"/>
</svg>
