<svg xmlns="http://www.w3.org/2000/svg" viewBox="0 0 36 36">
  <path fill="#5C913B" d="M20.958 8.542c-2.811 4.371-6.701 7.706-8.542 9.125C7.938 21.122.488 25.179 1 30.15c.375 3.642 2.714 5.669 8.143 5.283 5.184-.368 11.058-4.834 15.763-10.48 5.197-6.236 8.195-10.559 9.355-14.551.974-3.355 1.468-7.515-1.219-9.027C30.71.063 25.83.965 20.958 8.542z"/>
  <circle fill="#5C913B" cx="18.217" cy="30.997" r=".639"/>
  <circle fill="#5C913B" cx="21.417" cy="27.975" r=".639"/>
  <circle fill="#5C913B" cx="20.987" cy="28.668" r=".639"/>
  <circle fill="#5C913B" cx="23.958" cy="25.404" r=".639"/>
  <circle fill="#5C913B" cx="30.021" cy="17.935" r=".639"/>
  <circle fill="#5C913B" cx="33.708" cy="10.81" r=".639"/>
  <circle fill="#5C913B" cx="34.427" cy="4.06" r=".639"/>
</svg>
