<svg xmlns="http://www.w3.org/2000/svg" viewBox="0 0 36 36">
  <circle fill="#77B255" cx="24.844" cy="20.719" r=".5"/>
  <circle fill="#77B255" cx="30.875" cy="12.219" r=".5"/>
  <circle fill="#77B255" cx="32.656" cy="7.219" r=".5"/>
  <circle fill="#77B255" cx="28" cy="16.75" r=".5"/>
  <circle fill="#77B255" cx="17.938" cy="28.344" r=".5"/>
  <circle fill="#77B255" cx="20.656" cy="25.5" r=".789"/>
  <circle fill="#77B255" cx="11.062" cy="32.938" r=".5"/>
  <circle fill="#77B255" cx="25.781" cy="19.969" r=".5"/>
  <circle fill="#77B255" cx="11.297" cy="19.828" r="1.422"/>
  <circle fill="#77B255" cx="5.698" cy="23.355" r=".98"/>
  <circle fill="#77B255" cx="26.448" cy="3.324" r=".98"/>
  <circle fill="#77B255" cx="1.948" cy="27.23" r=".694"/>
  <circle fill="#77B255" cx="2.48" cy="26.512" r=".694"/>
  <circle fill="#77B255" cx="1.855" cy="31.324" r=".859"/>
  <circle fill="#77B255" cx="13.509" cy="17.138" r=".639"/>
  <circle fill="#77B255" cx="27.478" cy="2.169" r=".639"/>
  <circle fill="#77B255" cx="31.447" cy="1.294" r=".639"/>
  <circle fill="#77B255" cx="16.728" cy="14.201" r=".639"/>
  <circle fill="#77B255" cx="19.697" cy="10.951" r=".639"/>
  <circle fill="#77B255" cx="19.125" cy="11.594" r=".639"/>
  <circle fill="#77B255" cx="22.009" cy="7.763" r=".639"/>
</svg>
