<svg xmlns="http://www.w3.org/2000/svg" viewBox="0 0 36 36">
  <path fill="#CBB7EA" d="M29.696 10.342c-1.801-1.439-3.926-2.627-5.95-3.301-.471-.157-.974.098-1.13.564-.156.468.097.974.564 1.13 2.149.716 4.508 2.15 6.298 3.787.117-.805.196-1.714.218-2.18zm-23.05 1.463c2.589-1.852 11.253-7.429 21.153-7.506-.61-.703-1.269-1.209-2.037-1.687-8.651.642-16.031 4.952-19.26 7.122.012.587.059 1.307.144 2.071z"/>
  <path fill="#CBB7EA" d="M28.968 6.102c-.037-.005-.108 0-.146 0-3.657 0-7.357.916-11.001 2.719.18-.054.284-.082.284-.082s1.052.273 2.498.801c2.743-1.09 5.499-1.652 8.219-1.652.262 0 .521.018.739.068-.096-.541-.319-1.305-.593-1.854zM6.737 7.58c3.195-2.046 9.161-4.995 15.921-6.172-1.026-.304-1.994-.324-3.102-.324H17.28c-3.515 1.366-6.647 2.395-9.059 3.724-.691.875-1.205 1.696-1.484 2.772z"/>
</svg>
