<svg xmlns="http://www.w3.org/2000/svg" viewBox="0 0 36 36">
  <path d="M2.079 17.319l-.278-.421c-.011-.347-.063-.617-.129-.617s-.118.269-.129.617l-.278.421c-.062.095-.011.173.116.173h.191c.024.155.059.257.099.257s.075-.103.099-.257h.191c.129.001.18-.077.118-.173zm-.274-1.469c0 .237-.06.214-.133.214-.073 0-.133.023-.133-.214 0-.236.06-.428.133-.428.074 0 .133.192.133.428zm.194.48c-.237 0-.214-.06-.214-.133 0-.073-.023-.133.214-.133.236 0 .428.059.428.133 0 .074-.192.133-.428.133zm-.653 0c.237 0 .214-.06.214-.133 0-.073.023-.133-.214-.133-.236 0-.428.059-.428.133 0 .074.192.133.428.133zm3.877.989l-.278-.421c-.011-.347-.063-.617-.129-.617s-.118.269-.129.617l-.277.421c-.062.095-.011.173.116.173h.191c.024.155.059.257.099.257s.075-.103.099-.257h.191c.128.001.179-.077.117-.173zm-.274-1.469c0 .237-.06.214-.133.214-.073 0-.133.023-.133-.214 0-.236.06-.428.133-.428.074 0 .133.192.133.428zm.194.48c-.237 0-.214-.06-.214-.133 0-.073-.023-.133.214-.133.236 0 .428.059.428.133 0 .074-.192.133-.428.133zm-.653 0c.237 0 .214-.06.214-.133 0-.073.023-.133-.214-.133-.236 0-.428.059-.428.133 0 .074.192.133.428.133zm3.951.989l-.278-.421c-.011-.347-.063-.617-.129-.617s-.118.269-.129.617l-.278.421c-.062.095-.011.173.116.173h.191c.024.155.059.257.099.257.04 0 .075-.103.099-.257h.191c.13.001.181-.077.118-.173zm-.273-1.469c0 .237-.06.214-.133.214-.073 0-.133.023-.133-.214 0-.236.06-.428.133-.428.073 0 .133.192.133.428zm.193.48c-.237 0-.214-.06-.214-.133 0-.073-.023-.133.214-.133.236 0 .428.059.428.133.001.074-.191.133-.428.133zm-.652 0c.237 0 .214-.06.214-.133 0-.073.023-.133-.214-.133-.236 0-.428.059-.428.133 0 .074.192.133.428.133zm-1.724-1.632c-.062.095-.011.173.116.173h.191c.024.155.059.257.099.257s.075-.103.099-.257h.191c.127 0 .178-.078.116-.173l-.277-.421c-.003-.102-.011-.193-.021-.277h-.216c-.01.084-.017.175-.02.277l-.278.421zm-3.141 0c-.062.095-.011.173.116.173h.191c.024.155.059.257.099.257s.075-.103.099-.257h.191c.127 0 .178-.078.116-.173l-.278-.421c-.002-.102-.01-.193-.019-.277h-.217c-.01.084-.017.175-.02.277l-.278.421zm-2.492 3.73c0 .237-.06.214-.133.214s-.133.023-.133-.214c0-.236.06-.428.133-.428s.133.192.133.428zm.193.48c-.237 0-.214-.06-.214-.133 0-.073-.023-.133.214-.133.236 0 .428.059.428.133.001.074-.191.133-.428.133zm-.326-3.779c.04 0 .075-.103.099-.257H.51c.127 0 .178-.078.116-.173l-.278-.421C.345 14.175.337 14.084.327 14H.111c-.01.084-.017.175-.02.277L0 14.415v.457h.12c.025.154.059.257.099.257zm0 5.199c.04 0 .075-.103.099-.258H.51c.127 0 .178-.078.116-.173l-.278-.421c-.01-.348-.063-.617-.129-.617s-.118.269-.129.617l-.09.138v.456h.12c.024.155.059.258.099.258zm-.112-1.553c0-.059.009-.107-.107-.124v.249c.115-.018.107-.066.107-.125zm3.565 1.123l-.278-.421c-.01-.348-.063-.617-.129-.617s-.118.269-.129.617l-.276.421c-.062.095-.011.173.116.173h.191c.024.155.059.258.099.258s.075-.103.099-.258h.191c.128-.001.179-.079.116-.173zm-.273-1.47c0 .237-.06.214-.133.214-.073 0-.133.023-.133-.214 0-.236.06-.428.133-.428.073 0 .133.192.133.428zm.193.48c-.237 0-.214-.06-.214-.133 0-.073-.023-.133.214-.133.236 0 .428.059.428.133 0 .074-.191.133-.428.133zm-.652 0c.237 0 .214-.06.214-.133 0-.073.023-.133-.214-.133-.236 0-.428.059-.428.133 0 .074.192.133.428.133zm3.889.99l-.278-.421c-.01-.348-.063-.617-.129-.617s-.118.269-.129.617l-.278.421c-.062.095-.011.173.116.173h.191c.024.155.059.258.099.258s.075-.103.099-.258h.191c.129-.001.18-.079.118-.173zm-.274-1.47c0 .237-.06.214-.133.214-.073 0-.133.023-.133-.214.001-.236.06-.428.133-.428.074 0 .133.192.133.428zm.194.48c-.237 0-.214-.06-.214-.133 0-.073-.023-.133.214-.133.236 0 .428.059.428.133 0 .074-.192.133-.428.133zm-.653 0c.237 0 .214-.06.214-.133 0-.073.023-.133-.214-.133-.236 0-.428.059-.428.133 0 .074.192.133.428.133zm3.699-.48c0 .237-.06.214-.133.214s-.132.024-.132-.214c0-.236.059-.428.133-.428s.132.192.132.428zm-.591-3.73c-.062.095-.011.173.116.173h.191c.024.155.059.257.099.257s.075-.103.099-.257H9.9c.049 0 .075-.02.1-.039v-.158l-.262-.397c-.003-.102-.01-.193-.02-.277h-.216c-.01.084-.017.175-.02.277l-.278.421zm.459 4.161c-.066 0-.118.269-.129.617l-.278.421c-.062.095-.011.173.116.173h.191c.024.155.059.258.099.258s.075-.103.099-.258h.191c.023 0 .029-.014.047-.018v-.259l-.209-.316c-.009-.348-.062-.618-.127-.618zm.112-.084c0 .073-.023.133.214.133l.011-.001v-.264l-.011-.001c-.238.001-.214.06-.214.133zm-.439.133c.237 0 .214-.06.214-.133 0-.073.023-.133-.214-.133-.236 0-.428.059-.428.133 0 .074.192.133.428.133zM7.934 22h.238c-.019-.271-.064-.469-.119-.469-.055 0-.1.198-.119.469zm.252-.9c0 .238-.06.215-.133.215s-.133.023-.133-.215c0-.236.06-.428.133-.428s.133.191.133.428zm.193.48c-.237 0-.214-.06-.214-.133 0-.073-.023-.133.214-.133.236 0 .428.059.428.133.001.074-.191.133-.428.133zm-.652 0c.237 0 .214-.06.214-.133 0-.073.023-.133-.214-.133-.236 0-.428.059-.428.133 0 .074.192.133.428.133zm-2.744-.48c0 .238-.06.215-.133.215-.073 0-.133.023-.133-.215 0-.236.06-.428.133-.428.073 0 .133.191.133.428zm.193.48c-.237 0-.214-.06-.214-.133 0-.073-.023-.133.214-.133.236 0 .428.059.428.133 0 .074-.191.133-.428.133zm-.652 0c.237 0 .214-.06.214-.133 0-.073.023-.133-.214-.133-.236 0-.428.059-.428.133 0 .074.192.133.428.133zm.207.42h.238c-.019-.271-.064-.469-.119-.469s-.1.198-.119.469zm-3.215 0h.238c-.019-.271-.064-.469-.119-.469s-.1.198-.119.469zm.252-.9c0 .238-.06.215-.133.215-.073 0-.133.023-.133-.215 0-.236.06-.428.133-.428.073 0 .133.191.133.428zm.193.48c-.237 0-.214-.06-.214-.133 0-.073-.023-.133.214-.133.236 0 .428.059.428.133 0 .074-.192.133-.428.133zm-.652 0c.237 0 .214-.06.214-.133 0-.073.023-.133-.214-.133-.236 0-.428.059-.428.133-.001.074.191.133.428.133z" fill="#292F33"/>
</svg>
