<svg xmlns="http://www.w3.org/2000/svg" viewBox="0 0 36 36">
  <path fill="#FFCC4D" d="M33.75 13.719c-1.188-.406-2.531-.469-2.531-.469l-.875 1.719s2.594.055 2.594.215c0 .11-.59 1.088-.959 1.689-.189-.059-.421-.091-.697-.091-1.125 0-1.562.25-2.031.938-.469.688 0 .969 0 .969s-.58 1.287-2.752 2.002l.713-2.463c.813-.136 1.508.274 1.508.274s-.531-1.562.125-3.906c.655-2.346 3.092-4.096 3.092-4.096l-2.726.806.694-2.399s.344-.75 0-.969c-.224-.142-.34.162-.396.395-.239-.068-.657-.129-1.104.074-.688.312-2.281-.139-2.281-.139s.625.701 1.094.826c-.5.25-1.469.156-1.469.156s1.188.688 1.984.438c.529-.166 1.114-.18 1.451-.171l-.583 1.97-2.478.733s-1.125.906-1.5 3.562c-.375 2.656.969 4.625.969 4.625s-.141-1.283.934-1.918l-.706 2.39c-.299.07-.615.132-.964.177-.008-.019-1.295-2.907-1.077-5.337.219-2.438 2.344-4.928 2.344-4.928l-2.781 1.011.978-3.396s.615-.406.084-.656c-.529-.25-.427.55-.427.55-.246-.048-.596-.063-.968.106-.688.312-2.281-.139-2.281-.139s.625.701 1.094.826c-.5.25-1.469.156-1.469.156s1.188.688 1.984.438c.514-.161.976-.185 1.241-.182l-.83 2.512-2.53.919s-.438.625-1.344 2.438c-.906 1.812.375 4.406.375 4.406s.378-.574 1.178-.738l-.485 1.47C17.935 19.59 17.5 18 17.5 18s.344-.062.344-.437c0-.361-.154-.546-1.195-.56l.252-.9c.455.268.787.679.787.679s-.438-1.625.469-3.25c.906-1.625 3.031-3.031 3.125-3.031.05 0-1.553.456-3.055.88l.627-2.236s.459-.675-.041-.831-.419.706-.419.706c-.235-.03-.536-.02-.853.124-.688.312-2.281-.139-2.281-.139s.625.701 1.094.826c-.5.25-1.469.156-1.469.156s1.187.688 1.984.438c.461-.144.889-.177 1.171-.18l-.374 1.293-1.979.557s-.406.625-.875 2.125.344 2.719.344 2.719.25-1.062 1.031-1.062c.074 0 .147.015.219.029l-.32 1.111c-.748.054-.867.259-.867.578 0 .375.406.406.406.406s-.094.656.156 1.469c.25.812-.312.656-1.25.188-.062-.03-.123-.047-.184-.069l.006-.006L12 18.531s-.5-.719-.75-.219.562.615.562.615l1.348.68c-.263.137-.394.357-.254.58.312.5 1 0 2.406 1.375.474.463 1.51 1.576 3.024 2.539.271.173 13.274-.395 13.182-.629-.227-.576-.719-1.611-1.394-1.878 1.5-1.344 1.594-2.906 1.594-2.906s.406 0 .75-.688c.172-.345.156-.649-.044-.868.478-.928 1.653-3.205 1.95-3.725.376-.657.001-.969-.624.312zm-10.5 7.437c-.995 0-1.816-.134-2.504-.341l.512-1.774c.101.017.195.023.305.053 1.589.436 3.285 1.953 3.295 1.962-.485.063-1.017.1-1.608.1z"/>
</svg>
