<svg xmlns="http://www.w3.org/2000/svg" viewBox="0 0 36 36">
  <path d="M34.688 23.031c-.781-.562-1.5-.375-1.656.17s-.875.299-1.656-.264-1.312-.469-1.469.156-1.031.562-1.844-.031c-.812-.594-1.625-.156-1.938.29-.312.446-.562.491-1.566-.134s-1.715-.25-1.996.281c-.281.531-.688.406-1.531-.17-.844-.576-1.625-.361-2.031 0-.406.361-.969.482-1.719 0-.75-.482-1.344-.455-1.719-.068s-.812.957-2 .036-1.812-.142-2.406.265c-.595.407-1.157-.624-1.157-.624v.656s.562 1.031 1.156.625c.594-.406 1.219-1.186 2.406-.265s1.625.351 2-.036.969-.414 1.719.068c.75.482 1.312.361 1.719 0 .406-.361 1.188-.576 2.031 0 .844.576 1.25.701 1.531.17.281-.531.992-.906 1.996-.281s1.254.58 1.566.134c.312-.446 1.125-.884 1.938-.29.812.594 1.688.656 1.844.031s.688-.719 1.469-.156 1.5.809 1.656.264.875-.732 1.656-.17S36 24 36 24v-.656s-.531.25-1.312-.313z"/>
</svg>
