<svg xmlns="http://www.w3.org/2000/svg" viewBox="0 0 36 36">
  <path fill="#BBDDF5" d="M34.688 23.688c-.781-.562-1.5-.375-1.656.17s-.875.299-1.656-.264-1.312-.469-1.469.156-1.031.562-1.844-.031c-.812-.594-1.625-.156-1.938.29-.312.446-.562.491-1.566-.134s-1.715-.25-1.996.281c-.281.531-.688.406-1.531-.17-.844-.576-1.625-.361-2.031 0-.406.361-.969.482-1.719 0-.75-.482-1.344-.455-1.719-.068s-.812.957-2 .036-1.812-.142-2.406.265c-.595.406-1.157-.625-1.157-.625v.625s.562 1.031 1.156.625c.594-.406 1.219-1.186 2.406-.265s1.625.351 2-.036.969-.414 1.719.068c.75.482 1.312.361 1.719 0 .406-.361 1.188-.576 2.031 0 .844.576 1.25.701 1.531.17.281-.531.992-.906 1.996-.281s1.254.58 1.566.134c.312-.446 1.125-.884 1.938-.29.812.594 1.688.656 1.844.031s.688-.719 1.469-.156 1.5.809 1.656.264.875-.732 1.656-.17 1.313.312 1.313.312V24s-.531.25-1.312-.312zm-22.532 2.281c.53-.601 1.344-.531 1.969 0s.906.129 1.5-.217 1.437-.367 1.625.128-.781-.179-1.375.346c-.594.524-1.556.68-2.25 0s-1.938.274-1.469-.257zm6.969.12c.571.194 1.344.255 2.031-.183s1.188-.233 1.938.368 1.312.399 2 0 1.25-.899 2.219-.462c.969.438 1.438.482 1.812.335.375-.148 0 .509-.938.352-.938-.156-1.594-.75-2.438-.188-.844.562-1.938 1.088-2.812.341-.875-.747-1.344-.644-1.875-.32-.531.323-1.125.354-1.438.198-.312-.155-.959-.597-.499-.441zm12.031 0c.362.219.75.276 1.125 0s.75-.052 1.219.211c.469.263.562.558 0 .379-.562-.179-.781-.577-1.219-.331-.438.246-.906.316-1.125 0-.219-.317-.271-.423 0-.259zm-16.094 1.474c.514-.272 1.344-.656 1.937 0 .594.656.875.312 1.344 0 .469-.312.875-.688 1.594-.219.719.469 1.062.34 1.344.185.281-.154.531-.06 0 .252s-1.062.281-1.469-.031c-.406-.312-.75-.469-1.281.062-.531.531-1.219.69-1.719.189-.5-.501-.656-.542-1.156-.287-.5.255-1.108.121-.594-.151zm9.563.151c.629-.332 1.469-.901 2.156-.245.688.656 1.094.348 1.656-.029.562-.377 1.094-.922 1.906-.274.812.647 1.344.585 1.75.397.406-.188.219.172-.281.289-.5.117-1.188.117-1.656-.289-.469-.406-.906-.385-1.406.151-.5.536-1.75.686-2.219.205-.469-.481-1.062-.2-1.5-.013s-1.034.14-.406-.192zM11.5 28.21c.373-.344.875-.21 1.5.415s.906.5 1.469.188 1.312-.375 1.625-.031c.312.344.188.453-.188.289-.375-.164-.735-.258-1.243.18-.507.438-1.414.531-1.851 0-.438-.531-.688-.844-1.031-.719-.344.124-.781.138-.281-.322zm8.656.609c.364-.391 1.094-.712 1.812 0 .719.712.844.618 1.406.243s1.219-.805 1.906-.168c.688.637.969.512 1.562.168.594-.344 1.125-.648 1.781-.168.656.48 1.156.605 1.719.262.562-.344.686-.191.156.25-.438.363-1.231.5-1.781-.031-.689-.665-1.125-.469-1.688-.062-.562.406-1.438.5-1.938-.031s-.844-.375-1.312 0c-.469.375-1.275.758-1.844-.031-.569-.789-1.125-.438-1.406-.281-.279.155-.904.419-.373-.151z"/>
</svg>
