<svg xmlns="http://www.w3.org/2000/svg" viewBox="0 0 36 36">
  <path fill="#FFCC4D" d="M8.141 24.641c-.406.156-.781.109-1.281-.462-.101-.115-.212-.191-.326-.249.241.057.549.172.81.195.516.047 1.031-.328 1.031-.328s-.234-.188-.859-.359c-.511-.141-1.368-.036-1.666.368-.242.014-.474.063-.662.086-.326.039-.703-.109-.703-.109s-.062-.766-.938-.766c-.766 0-.781.703-.781.703s-.391.188-.391-.363-.438-.52-.82-.52-.477-.023-.477.477.281.406.453.562c0 0 .172.875 1.203.75.046.085.062.297.062.297s-.187.052-.484-.016c-.443-.101-.766-.156-.766.453s.641.438 1.547.438.953-.562.953-.562.422-.125.922-.094c-.125.109-.054.374.062.5.243.262.688.156 1.031.156s.5-.266.422-.625c.328.234 1.234-.203 1.125 0-.109.203.156.703.844.422.689-.283.095-1.111-.311-.954z"/>
</svg>
