<svg xmlns="http://www.w3.org/2000/svg" viewBox="0 0 36 36">
  <path fill="#DD2E44" d="M30.453 27c-1.953-.266-3.594.547-3.594.547s-.845-.594-1.845-.614c-1.469-.03-2.442.935-3.014 1.755C21.281 29.719 19 30 18 30s-3.281-.281-4-1.312c-.572-.82-1.545-1.784-3.014-1.755-1 .02-1.845.614-1.845.614S7.5 26.734 5.547 27c-1.305.177-2.357.764-2.846 1.248 2.83-1.685 4.757-.229 6.065.643C10.074 29.763 11 32 11 32c2-1 7-1 7-1s5 0 7 1c0 0 .926-2.237 2.234-3.109 1.308-.872 3.234-2.328 6.065-.643-.489-.484-1.541-1.071-2.846-1.248z"/>
</svg>
