<svg xmlns="http://www.w3.org/2000/svg" viewBox="0 0 36 36">
  <path fill="#EEE" d="M17.879 15.779c0 .168-.136.304-.304.304h-.632c-.168 0-.304-.136-.304-.304 0-.168.136-.304.304-.304h.632c.168 0 .304.136.304.304zm1.534 4.249c0 .243-.197.441-.44.441h-.042c-.243 0-.441-.197-.441-.441 0-.243.197-.44.441-.44h.042c.243 0 .44.197.44.44zm-.607 1.79c0 .088-.072.16-.161.16-.089 0-.161-.072-.161-.16v-.628c0-.088.072-.16.161-.16.089 0 .161.072.161.16v.628zm-1.026-.172c0 .165-.133.298-.297.298h-.136c-.164 0-.297-.133-.297-.298 0-.164.133-.297.297-.297h.136c.164.001.297.133.297.297zm.11-4.335c0 .24-.136.436-.304.436-.167 0-.304-.195-.304-.436v-.478c0-.24.136-.436.304-.436.168 0 .304.195.304.436v.478zm.717-1.471c0 .1-.081.182-.182.182-.1 0-.182-.082-.182-.182v-.278c0-.101.081-.182.182-.182.101 0 .182.082.182.182v.278zm2.589 6.148c0 .185-.129.335-.289.335h-.601c-.16 0-.29-.149-.29-.335 0-.185.13-.334.29-.334h.601c.16 0 .289.15.289.334zm-4.632.53c0 .159-.129.288-.288.288h-.709c-.159 0-.288-.129-.288-.288 0-.159.129-.288.288-.288h.709c.159-.001.288.128.288.288z"/>
</svg>
