<svg xmlns="http://www.w3.org/2000/svg" viewBox="0 0 36 36">
  <path fill="#5C913B" d="M6.95 18.019s5.438 2.625 7.938 6.656c1.9 3.064 2.782 8.656 2.782 8.656s.043.564-.907-2.281c-1-3-2.217-6.288-4.312-8.188-3.344-3.031-4.75-3.5-6.062-4.25-.332-.189.217-.687.561-.593z"/>
  <path fill="#5C913B" d="M16.198 28.54s2.038.103 3.107 2.139c1.068 2.036-.053 4.914-.053 4.914s-2.75-1.268-3.462-2.947c-.712-1.68.408-4.106.408-4.106zm-2.133-4.778s1.274 1.437 3.558 1.705c2.284.269 4.121-1.379 4.121-1.379s-2.144-1.97-3.968-2.033c-1.823-.065-3.711 1.707-3.711 1.707zm-4.047-3.148s-2.015.329-2.85 2.472.425 4.01.425 4.01 2.534-.848 3.055-2.597c.521-1.747-.63-3.885-.63-3.885z"/>
</svg>
