<svg xmlns="http://www.w3.org/2000/svg" viewBox="0 0 36 36">
  <path fill="#9AAAB4" d="M13.811 20.784c-1.71 0-3.092-1.357-3.165-1.431-.195-.195-.195-.511 0-.706.195-.195.512-.195.707-.002.018.018 1.773 1.734 3.423.907.247-.125.547-.022.671.224.124.247.023.547-.224.671-.481.241-.958.337-1.412.337zm8.378 0c-.454 0-.932-.096-1.413-.337-.247-.124-.347-.424-.224-.671.125-.246.424-.347.671-.224 1.657.829 3.406-.89 3.423-.906.195-.195.512-.195.707 0s.195.512 0 .707c-.072.074-1.455 1.431-3.164 1.431z"/>
</svg>
