<svg xmlns="http://www.w3.org/2000/svg" viewBox="0 0 36 36">
  <path fill="#292F33" d="M28.646 9.958c-.833-.188-2.305-1.908-2.843-2.727-.006-.009-.012-.013-.017-.021-1.354-1.85-3.644-3.349-6.622-3.664.158-.261.272-.531.337-.775.122-.46.271-1.653-.417-.861-.575.662-2.406 1.428-2.99 1.661-1.426-.707-3.451-.603-3.906-.384-.562.271-.039.231.312.292.436.075.907.386 1.359.717-1.711.663-2.961 1.73-3.789 2.953l-.004.005c-.61.886-1.695 2.138-2.274 2.346-1.125.403.243.563.812.309.129-.057.261-.116.394-.183-.114.503-.176 1.006-.176 1.495 0 3.473 1.216 4.437 1.412 3.473.706-3.473 2.824-4.863 2.824-4.863 3.213 3.831 2.9.581 2.9.581 5.646 6.542 2.748.113 2.748.113 1.412 1.39 5.648 1.39 5.648 1.39l1.412 2.778c.706 1.39 1.412 0 1.412-3.473 0-.285-.032-.575-.079-.867.425.157.812.215 1.13.225.667.022 1.25-.332.417-.52z"/>
</svg>
