<svg xmlns="http://www.w3.org/2000/svg" viewBox="0 0 36 36">
  <path fill="#3B88C3" d="M33.582 16.654c3.518-.202 2.185 1.133 1.072 1.712-.505.262-1.515 1.738-2.098 4.234-.455 1.948-.847 5.658-5.213 5.391-2.994-.183-.045-7.084-.045-7.084s1.871 3.119 3.876-1.47c.895-2.049 1.409-2.726 2.408-2.783zM5.829 28.351c-1.112 0-2.138-.351-3.021-1.04C.858 25.789.167 22.812.167 21c0-2.422 1.331-4.875 3.875-4.875 1.546 0 2.209.537 2.911 1.104.394.319.801.648 1.48.988l-.782 1.931c-.849-.424-1.375-.85-1.798-1.192-.607-.491-.884-.715-1.811-.715-1.46 0-2.125 1.254-2.125 2.759 0 1.531.608 3.551 1.967 4.611.822.643 1.815.822 2.945.54l.425 2.017c-.486.122-.963.183-1.425.183z"/>
  <path fill="#3B88C3" d="M29 24.727C29 31.254 22.1 32 17.5 32S6 31.254 6 24.727 10.775 12 17.5 12 29 18.2 29 24.727z"/>
</svg>
