<svg xmlns="http://www.w3.org/2000/svg" viewBox="0 0 36 36">
  <path fill="#269" d="M29.485 26.965c-.489.039-1.069-.757-1.069-.757-.847 2.049-3.342 4.589-11.139 4.589-6.995 0-9.579-2.139-10.96-3.965 0 0 .33 1.202-1.782.757-.648-.137-1.926-.768-2.966-1.658.34.524.749.998 1.239 1.38.883.689 1.91 1.04 3.021 1.04.354 0 .718-.047 1.087-.118 2.02 3.3 6.932 3.847 10.521 3.847 3.679 0 8.883-.566 10.798-4.097 3.525-.265 3.898-3.577 4.32-5.382.439-1.88 1.12-3.18 1.645-3.82-.03.013-.051.016-.082.031-1.826.891-1.871 7.93-4.633 8.153zM4.891 17.698c-.64-.362-1.96-.223-2.629.891-.442.736-.471 1.642-.34 2.316.028-1.462.691-2.664 2.12-2.664.926 0 1.204.224 1.811.715.289.234.636.508 1.092.793l.174-.492s-1.203-.98-2.228-1.559zm19.663-3.704c.284.159.446.328.446.506 0 .828-3.358 1.5-7.5 1.5s-7.5-.672-7.5-1.5c0-.178.162-.347.446-.506C9.533 14.353 9 14.785 9 15.25c0 1.243 3.806 2.25 8.5 2.25s8.5-1.007 8.5-2.25c0-.465-.533-.897-1.446-1.256z"/>
  <ellipse fill="#269" cx="17.5" cy="11" rx="2.8" ry="1.5"/>
  <ellipse fill="#269" cx="34.364" cy="17.141" rx="1.047" ry=".334"/>
</svg>
