<svg xmlns="http://www.w3.org/2000/svg" viewBox="0 0 36 36">
  <path d="M22.217 35.615h-.002c-.804-.142-1.34-.908-1.198-1.712l.59-3.344s.68-3.165-1.076-5.449c1.259-1.171 5.024.085 5.024.085l-1.626 9.221c-.142.804-.908 1.34-1.712 1.199zm-12.692-.021h-.002c-.804-.142-1.34-.908-1.198-1.712l1.312-7.025s.503-2.419.503-4.439c1.142-.439 2.723 2.757 2.723 2.757l-1.626 9.221c-.143.803-.909 1.339-1.712 1.198zm21.277-9.823c-.537 0-.977-.431-.985-.969-.012-.723-.304-4.326-4.925-4.326-.545 0-.985-.441-.985-.985s.441-.985.985-.985c5.363 0 6.858 3.938 6.896 6.264.009.545-.425.993-.969 1.002l-.017-.001z" fill="#F4900C"/>
</svg>
