<svg xmlns="http://www.w3.org/2000/svg" viewBox="0 0 36 36">
  <path fill="#FFCC4D" d="M28.935 34.094s-.647-2.515-.998-4.154c-.332-1.549-1.025-3.981-1.171-8.225-.01-.145-.039-.512-.138-.779-.122-.33-.567-.933-.766-1.203-.777-1.052-2.012-1.691-3.526-1.847-1.283-.132-2.573-.185-3.854-.339-.59-.071-1.1-.156-1.422-.272-1.636-.589-1.962-2.502-2.414-3.965-.8-2.59-1.508-5.225-1.961-7.9l-.036.009.036-.009-.027-.165V4.84c1.567-.714 2.79-2.888 1.971-3.706-1.416-.708-2.827.11-3.513.992-.02-.001-.039-.006-.059-.006H8.459c-.655 0-1.304.16-1.872.51-.584.359-.986.907-1.633 1.19-.786.344-1.721.093-2.417.64-1.189.933-.625 2.525.854 2.578.201.577.745.993 1.39.993h2.106c.055.011.108.021.173.029.604.071 1.088.525 1.477 1.215 1.047 1.856 1.244 4.244 1.415 6.324.119 1.448.177 2.906.158 4.36-.293 1.566-.12 3.377-.12 3.377.044.419.186.777.394 1.095l-.01.011c1.99 2.81 2.449 5.97 2.449 5.97l.784 4.193c.142.804.908 1.341 1.713 1.199.804-.142 1.341-.908 1.199-1.712l-1.262-7.159c1.977.534 4.609.932 6.449.852 0 .006-.003.014-.002.02 2.371-.146 3.26 1.73 3.454 2.576.194.846.868 4.228.868 4.228.142.804.909 1.341 1.712 1.199.802-.143 1.339-.91 1.197-1.714z"/>
</svg>
