<svg xmlns="http://www.w3.org/2000/svg" viewBox="0 0 36 36">
  <path fill="#F4900C" d="M11.975 22.1c-.985.985-1.16 2.408-.391 3.178.77.77 2.193.595 3.178-.391s1.16-2.408.391-3.178c-.77-.77-2.193-.595-3.178.391zm1.088-6.185c0 1.633 1.324 2.956 2.956 2.956 1.029 0 1.933-.526 2.462-1.323-.59-.071-1.1-.156-1.422-.272-1.564-.563-1.872-2.237-2.253-3.441-.057-.179-.108-.349-.162-.523-.935.496-1.581 1.469-1.581 2.603zm-.986-4.434c0-1.361-1.103-2.464-2.464-2.464-.388 0-.75.098-1.077.257.635 1.126 1.015 2.885 1.242 4.653 1.282-.086 2.299-1.142 2.299-2.446zm-1.093-4.079c0 1.118.906 2.023 2.023 2.023.182 0 .355-.032.523-.077-.449-1.787-.709-3.122-.847-3.937-.961.156-1.699.985-1.699 1.991zm8.977 12.456c0 1.633 1.324 2.956 2.956 2.956 1.633 0 2.956-1.324 2.956-2.956 0-.043-.011-.082-.013-.124-.777-1.052-2.012-1.691-3.526-1.847-.457-.047-.972-.088-1.499-.128-.538.536-.874 1.277-.874 2.099zM11.598 2.613c.505-.483 1.317-1.089 1.778-.856.461.233.258 1.273-1.166 2.151.113-.439.551-1.215-.612-1.295z"/>
</svg>
