<svg xmlns="http://www.w3.org/2000/svg" viewBox="0 0 36 36">
  <path fill="#9AAAB4" d="M25.454 27.9c-.149.062-.305.125-.467.188-.122.048-.247.095-.374.142-.124.046-.249.092-.378.138-.146.052-.293.102-.444.153l-.145.048c-.54.179-1.096.346-1.652.495l.001.003s.151.334.428.853c.71-.214 1.397-.448 2.049-.716 1.993-.82 3.946-1.805 5.139-2.765-.216-.221-.401-.432-.542-.624l-.002.002c-.212.148-.432.297-.657.446l-.155.101c-.176.115-.352.227-.53.338l-.208.129c-.167.101-.33.197-.493.291l-.205.118c-.223.124-.441.241-.647.341-.162.079-.346.161-.538.244l-.18.075z"/>
</svg>
