<svg xmlns="http://www.w3.org/2000/svg" viewBox="0 0 36 36">
  <path fill="#A0041E" d="M18 26.5c-1.86 0-2.647-1.005-2.901-1.855-.543.128-1.345.209-1.929-.187-.305-.207-.67-.628-.67-1.458 0-.276.224-.5.5-.5s.5.224.5.5c0 .474.173.591.231.63.373.254 1.229.046 1.585-.095.153-.061.328-.042.465.052.136.093.219.247.219.413.003.149.083 1.5 2 1.5 1.978 0 2-1.438 2-1.5 0-.166.082-.32.22-.413.136-.094.309-.113.465-.052.356.142 1.211.35 1.585.095.057-.039.23-.156.23-.63 0-.276.224-.5.5-.5s.5.224.5.5c0 .83-.364 1.251-.671 1.458-.584.396-1.386.314-1.929.187-.253.85-1.041 1.855-2.9 1.855z"/>
</svg>
