<svg xmlns="http://www.w3.org/2000/svg" viewBox="0 0 36 36">
  <path fill="#BE1931" d="M23.663 34.095c-.63 0-1.292-.273-1.975-.816-.96-.765-1.864-1.484-3.688-1.484s-2.729.72-3.687 1.483c-1.186.945-2.439.944-3.624.002-.216-.172-.252-.487-.08-.703.171-.216.486-.252.703-.08.821.654 1.556.654 2.377 0 1.003-.798 2.138-1.701 4.311-1.701 2.174 0 3.309.903 4.31 1.7.578.46 1.096.654 1.531.587.477-.075.729-.449.738-.465.151-.229.46-.296.69-.147.229.148.3.452.154.684-.049.077-.5.759-1.403.912-.118.018-.237.028-.357.028z"/>
</svg>
