<svg xmlns="http://www.w3.org/2000/svg" viewBox="0 0 36 36">
  <path fill="#F4900C" d="M6.002.95c.026-.497.435-.896.92-.936.632-.053.912.447 1.146.953.73 1.574 1.508 3.121 2.544 4.52.72.973 1.589 2.014 2.696 2.564.589.197.862.911.55 1.449.525.911-.513 1.79-1.366 1.364-1.16.67-3.078-1.545-3.733-2.334-.846-1.019-1.496-2.191-1.954-3.43-.469-1.27-.883-2.779-.803-4.15zm23.988 0c-.026-.497-.435-.896-.92-.936-.632-.053-.912.447-1.146.953-.73 1.574-1.508 3.121-2.544 4.52-.72.973-1.589 2.014-2.696 2.564-.589.197-.862.911-.55 1.449-.525.911.513 1.79 1.366 1.364 1.16.67 3.078-1.545 3.733-2.334.846-1.018 1.496-2.19 1.954-3.429.469-1.271.883-2.78.803-4.151z"/>
</svg>
