<svg xmlns="http://www.w3.org/2000/svg" viewBox="0 0 36 36">
  <g fill="#FFF">
    <path d="M25.721 28.741l-.805-3c-1.155.485-4.343 1.348-6.917 1.348-2.835 0-6.12-.912-7.186-1.388l-.815 3.04c-.142.531.176 1.082.707 1.225.531.142 1.082-.176 1.225-.707l.748-2.331c.892.344 3.114.664 5.322.66 2.161-.004 4.308-.324 5.18-.66l.616 2.331c.142.531.689.849 1.22.707.532-.142.848-.694.705-1.225z"/>
    <path d="M22.929 29.906c.086-.403-.174-.804-.578-.889-.403-.086-.804.174-.889.578l-.119.643c-.351-.19-1.839-.646-3.343-.649-1.553-.003-3.125.454-3.484.649l-.198-.643c-.086-.404-.517-.664-.92-.578-.403.086-.679.486-.593.889l.318 1.514C14.038 30.941 15.632 30 18 30c2.255 0 3.729.847 4.624 1.345l.305-1.439z"/>
  </g>
</svg>
