<svg xmlns="http://www.w3.org/2000/svg" viewBox="0 0 36 36">
  <path d="M12.718 10.765l-.031-.001c-.276-.017-.485-.254-.468-.53.17-2.752 1.996-4.955 4.651-5.611 3.382-.833 5.454 1.144 5.54 1.229.197.193.201.509.008.707-.191.196-.508.201-.705.009-.071-.068-1.778-1.671-4.603-.974-2.256.558-3.748 2.359-3.893 4.702-.017.265-.237.469-.499.469zm2.524-6.131c-.173 0-.341-.089-.434-.25-.006-.011-.649-1.11-1.576-1.705-.232-.149-.3-.458-.151-.69.149-.233.458-.301.691-.151 1.135.729 1.872 1.994 1.902 2.047.138.239.056.544-.183.682-.078.045-.164.067-.249.067zm2.877-.71c-.051 0-.102-.007-.153-.024-.263-.084-.407-.365-.324-.628.001-.005.174-.555.278-1.513.03-.275.281-.474.551-.443.275.03.473.276.443.551-.116 1.07-.312 1.686-.32 1.711-.068.212-.264.346-.475.346zm2.443.177c-.091 0-.183-.025-.266-.077-.233-.147-.304-.455-.157-.688.022-.035.542-.854 1.407-1.481.223-.161.536-.112.698.111.162.223.113.536-.11.698-.704.51-1.145 1.198-1.148 1.205-.096.15-.258.232-.424.232z" fill="#F4ABBA"/>
</svg>
