<svg xmlns="http://www.w3.org/2000/svg" viewBox="0 0 36 36">
  <path d="M24.106 14.346c-.028 0-.057-.002-.086-.007-.271-.047-.454-.305-.408-.577l.046-.263c.355-2.029.662-3.782-2.016-4.932-.254-.109-.371-.403-.262-.657.108-.254.403-.372.656-.262 3.404 1.461 2.962 3.991 2.606 6.023l-.045.259c-.04.244-.252.416-.491.416zm1.698-4.322c-.141 0-.275-.08-.339-.215-.089-.188-.009-.411.179-.499.049-.023 1.217-.571 2.091-.594.208.029.379.159.385.365.005.207-.158.379-.365.385-.715.019-1.779.517-1.79.522-.053.024-.108.036-.161.036zm2.94 2.171c-.054 0-.108-.008-.161-.027-1.156-.395-2.344-.11-2.355-.107-.271.066-.539-.098-.604-.365-.066-.268.096-.538.363-.605.06-.015 1.477-.361 2.919.131.262.089.401.373.312.635-.072.207-.266.338-.474.338zm-17.843.417c-.276 0-.5-.224-.5-.5 0-.043-.009-4.348-.731-6.565-.086-.263.058-.545.32-.63.261-.086.544.058.63.321.771 2.369.78 6.691.78 6.875.001.275-.223.499-.499.499z" fill="#F7DAE2"/>
</svg>
