<svg xmlns="http://www.w3.org/2000/svg" viewBox="0 0 36 36">
  <g fill="#D84864">
    <path d="M7.85 25.525c-.23 0-.438-.16-.488-.394-.023-.106-.556-2.621.183-4.262.661-1.469 1.637-2.033 2.497-2.53 1.024-.592 1.764-1.019 1.911-2.855.022-.275.263-.476.539-.458.275.022.48.263.458.539-.189 2.359-1.317 3.011-2.407 3.641-.801.463-1.557.899-2.085 2.074-.603 1.34-.122 3.616-.117 3.64.058.27-.113.536-.383.594-.038.007-.073.011-.108.011zm12.412 3.253c-.174 0-.343-.091-.436-.253-.137-.239-.053-.545.187-.682.02-.011 1.878-1.084 2.481-2.424.627-1.394.331-2.007-.116-2.935-.413-.856-.927-1.923-.776-3.8.021-.275.27-.479.538-.458.275.022.48.263.458.539-.128 1.607.283 2.46.681 3.286.486 1.009.946 1.961.128 3.779-.738 1.64-2.811 2.833-2.898 2.883-.079.044-.164.065-.247.065z"/>
    <path d="M19.15 24.175c-.143 0-.285-.062-.384-.18-.39-.467-.476-1.242-.211-1.887.246-.598.736-.973 1.348-1.031.838-.08 1.566-.865 1.598-1.335.019-.276.26-.49.532-.466.275.019.484.257.466.532-.069 1.047-1.285 2.147-2.501 2.265-.239.022-.413.162-.518.415-.137.332-.078.708.054.866.177.212.148.527-.063.704-.094.079-.207.117-.321.117zm7.7 4.1c-.037 0-.075-.004-.112-.013-.27-.062-.438-.331-.375-.6.038-.162-.042-.503-.262-.816-.191-.271-.438-.449-.659-.475-1.191-.141-2.52-2.244-2.73-3.243-.057-.271.116-.536.386-.593.273-.054.536.115.593.386.186.879 1.338 2.395 1.869 2.456.514.061.997.378 1.359.894.368.522.528 1.142.419 1.616-.055.232-.261.388-.488.388zm-2.95 4.95c-.123 0-.247-.045-.344-.137-.2-.189-.209-.506-.02-.707.68-.719.27-1.806-.399-2.512-.617-.651-1.721-2.397-1.198-3.639.108-.254.401-.371.655-.267.254.107.374.4.267.655-.268.635.414 1.942 1.002 2.562 1.201 1.267 1.366 2.864.4 3.887-.098.105-.23.158-.363.158zm-10.35-8.5c-.056 0-.113-.01-.169-.029-.26-.094-.395-.38-.301-.64.249-.69-.172-1.192-1.665-1.989-.839-.447-1.369-1.213-1.455-2.099-.074-.767.204-1.507.725-1.931.216-.175.529-.142.703.072.174.214.142.529-.072.703-.261.212-.402.628-.36 1.059.031.322.193.92.93 1.312.965.516 2.761 1.474 2.135 3.21-.074.205-.267.332-.471.332zm-1.05 4.55c-.041 0-.081-.005-.122-.015-1.124-.281-1.816-1.544-1.513-2.757.167-.666-1.047-2-1.555-2.149-1.384-.402-2.112-1.866-1.9-2.927.054-.271.312-.448.588-.393.271.054.446.317.392.588-.094.47.236 1.491 1.2 1.771.922.27 2.576 2.028 2.245 3.352-.187.747.265 1.414.787 1.544.268.067.431.339.363.606-.057.229-.261.38-.485.38zm1.24-10.438c-.556 0-1.116-.291-1.534-.807-.468-.579-.631-1.28-.425-1.831.097-.26.386-.39.644-.293.259.097.39.385.293.644-.078.207.034.565.265.851.194.239.513.477.842.43.281-.035.528.147.569.42s-.147.528-.42.569c-.078.011-.156.017-.234.017z"/>
    <path d="M12.003 22.208c-.191 0-.385-.04-.577-.136-.247-.124-.347-.424-.224-.671.124-.246.423-.348.671-.224.22.114.631-.112 1.029-.329.584-.317 1.247-.68 1.941-.385.254.107.374.4.267.654-.107.256-.4.374-.655.268-.25-.107-.67.122-1.077.343-.405.22-.883.48-1.375.48zm14.847 9.817c-.119 0-.239-.042-.335-.129-.205-.185-.222-.5-.036-.706.063-.071.095-.28.025-.528-.082-.29-.308-.642-.697-.759-.339-.102-.684-.013-1.049.08-.452.116-.963.249-1.481-.011-.247-.123-.347-.424-.224-.671.124-.247.422-.349.671-.224.173.085.41.033.785-.063.436-.111.98-.253 1.585-.068.661.198 1.174.738 1.373 1.446.159.57.067 1.119-.246 1.468-.099.11-.235.165-.371.165zm1.15-12.5c-.196 0-.383-.116-.462-.31-.337-.817-.807-1.357-1.225-1.408-.34-.037-.623.257-.811.513-.753 1.027-2.606 1.037-3.481.898-.272-.043-.459-.299-.416-.572s.302-.461.572-.416c.925.146 2.154-.004 2.519-.502.626-.853 1.281-.968 1.738-.914.8.097 1.539.833 2.027 2.02.105.255-.017.548-.271.652-.062.028-.127.039-.19.039z"/>
  </g>
</svg>
