<svg xmlns="http://www.w3.org/2000/svg" viewBox="0 0 36 36">
  <path fill="#CCD6DD" d="M18 13c7.18 0 13 1.344 13 3v-2c0-1.657-5.82-3-13-3S5 12.343 5 14v2c0-1.656 5.82-3 13-3zm0 12c7.18 0 13 1.344 13 3v-2c0-1.656-5.82-3-13-3S5 24.344 5 26v2c0-1.656 5.82-3 13-3zm0 6c7.18 0 13 1.344 13 3v-2c0-1.656-5.82-3-13-3S5 30.344 5 32v2c0-1.656 5.82-3 13-3zm0-24c7.18 0 13 1.344 13 3V8c0-1.657-5.82-3-13-3S5 6.343 5 8v2c0-1.656 5.82-3 13-3z"/>
  <path fill="#CCD6DD" d="M14 .146V36h2V.039c-.685.024-1.354.059-2 .107zm-6 .938V36h2V.639c-.732.132-1.406.28-2 .445zM20 .039V36h2V.146c-.646-.048-1.315-.083-2-.107zm6 .6V36h2V1.084c-.594-.165-1.269-.313-2-.445z"/>
</svg>
