<svg xmlns="http://www.w3.org/2000/svg" viewBox="0 0 36 36">
  <path d="M11.13 5.583h-.708c-.576 0-.815-.42-.815-.828 0-.419.3-.827.815-.827h1.703c.516 0 .804.372.804.851v6.825c0 .6-.384.935-.899.935s-.899-.335-.899-.935V5.583zm2.88 2.147c0-1.955.756-4.414 3.179-4.414s3.178 2.459 3.178 4.414c0 1.955-.755 4.414-3.178 4.414S14.01 9.685 14.01 7.73zm4.485 0c0-.912-.084-2.783-1.307-2.783-1.224 0-1.308 1.871-1.308 2.783 0 .852.084 2.782 1.308 2.782 1.223.001 1.307-1.93 1.307-2.782zm8.592-.972c0 1.811-1.835 4.353-3.046 5.481-.096.096-.24.192-.384.288-.132.084-.264.084-.36.084-.335 0-.852-.444-.852-.875 0-.168.108-.312.252-.492.48-.588 1.26-1.356 1.655-1.919l-.023-.024c-.216.096-.492.144-.756.144-1.439 0-2.507-1.271-2.507-2.687 0-1.559 1.235-2.974 3.011-2.974 1.847 0 3.01 1.379 3.01 2.974zm-1.871 0c0-.671-.419-1.247-1.139-1.247-.684 0-1.14.552-1.14 1.247 0 .636.384 1.248 1.14 1.248.684-.001 1.139-.541 1.139-1.248z" fill="#BE1931"/>
</svg>
