<svg xmlns="http://www.w3.org/2000/svg" viewBox="0 0 36 36">
  <path fill="#FFAC33" d="M21.278 30.634c-.142 0-.284-.044-.406-.131L18 28.444l-2.871 2.059c-.245.175-.573.175-.816-.003-.243-.176-.345-.489-.255-.774l1.071-3.456-2.845-2.005c-.242-.178-.342-.492-.25-.778.093-.285.358-.479.659-.481l3.524-.005 1.122-3.37c.095-.285.361-.477.662-.477.3 0 .567.192.662.477l1.103 3.37 3.542.005c.301.002.567.196.659.481.093.286-.008.599-.25.778l-2.846 2.005 1.071 3.456c.092.286-.012.598-.254.774-.123.09-.267.134-.41.134z"/>
</svg>
