<svg xmlns="http://www.w3.org/2000/svg" viewBox="0 0 36 36">
  <g fill="#FFF">
    <path d="M3.926 18c0-2.627 1.837-4.822 4.295-5.38-.395-.09-.805-.142-1.227-.142-3.05 0-5.522 2.472-5.522 5.522s2.472 5.522 5.522 5.522c.422 0 .832-.052 1.227-.142-2.458-.558-4.295-2.753-4.295-5.38z"/>
    <path d="M7.62 14.875l.601-.437.601.437-.23-.706.601-.437H8.45l-.229-.707-.23.707h-.743l.601.437zm0 2.635l.601-.437.601.437-.23-.707.601-.436H8.45l-.229-.707-.23.707h-.743l.601.436zm0 2.635l.601-.437.601.437-.23-.707.601-.437H8.45l-.229-.706-.23.706h-.743l.601.437zm.601 2.198l.601.436-.23-.706.601-.437H8.45l-.229-.706-.23.706h-.743l.601.437-.229.706z"/>
  </g>
</svg>
