<svg xmlns="http://www.w3.org/2000/svg" viewBox="0 0 36 36">
  <path d="M9.916 14.277c-.307.46-.741.708-.971.555-.23-.153-.168-.649.139-1.109.307-.46.741-.708.971-.555.23.153.168.649-.139 1.109zm6 1c-.307.46-.741.708-.971.555-.23-.153-.168-.649.139-1.109.307-.46.741-.708.971-.555.23.153.168.649-.139 1.109zm5.082 4.678c.05.551-.132 1.016-.406 1.041-.275.025-.538-.4-.588-.951-.051-.551.132-1.016.406-1.04.275-.026.538.398.588.95zm-9-2c.05.551-.132 1.016-.406 1.041-.275.025-.538-.4-.588-.951-.05-.551.132-1.016.406-1.04.276-.026.538.398.588.95zm3.901 5.346c-.333.441-.78.663-1 .497-.221-.166-.129-.658.205-1.099.333-.441.781-.663 1-.497.221.166.13.657-.205 1.099zm8.036.454c.273.481.299.979.06 1.115-.241.137-.656-.143-.929-.624-.273-.48-.299-.979-.059-1.115.241-.138.655.141.928.624zm-7.017-5.028c.303.463.362.958.131 1.109-.231.152-.663-.1-.966-.562-.303-.462-.361-.958-.131-1.108.231-.154.663.097.966.561zm8.981 1.574c-.333.441-.78.663-1.001.497-.221-.166-.129-.658.205-1.099.333-.442.78-.663 1-.497.222.166.131.657-.204 1.099z"/>
</svg>
