<svg xmlns="http://www.w3.org/2000/svg" viewBox="0 0 36 36">
  <path fill="#FCAB40" d="M13.31 33.709c-1.516 0-2.939-.59-4.011-1.661-1.071-1.07-1.661-2.495-1.661-4.011 0-1.515.59-2.939 1.661-4.011L19.995 13.33c1.071-1.071 2.496-1.661 4.012-1.661 1.515 0 2.94.59 4.011 1.661 2.211 2.212 2.211 5.811 0 8.022L17.322 32.047c-1.072 1.071-2.496 1.662-4.012 1.662zM24.007 15.45c-.506 0-.98.197-1.338.554L11.974 26.7c-.357.357-.554.832-.554 1.337 0 .506.197.979.553 1.336.358.357.832.555 1.337.555s.98-.197 1.337-.555l10.696-10.695c.737-.737.736-1.937-.001-2.674-.356-.357-.83-.554-1.335-.554z"/>
  <path fill="#FCAB40" d="M25.344 24.026c.736.738 1.936.738 2.674 0 .738-.739.738-1.937 0-2.674l-8.022-8.023c-.739-.738-1.935-.738-2.673 0-.739.739-.739 1.937 0 2.675l8.021 8.022zm-4.012 4.011c.738.738 1.937.738 2.674 0 .738-.739.738-1.936.002-2.674l-8.023-8.023c-.739-.738-1.936-.738-2.675 0-.738.738-.738 1.936 0 2.675l8.022 8.022zm-4.01 4.011c.738.738 1.934.738 2.673 0 .738-.738.738-1.937 0-2.674l-8.021-8.022c-.739-.738-1.936-.738-2.675 0-.738.737-.738 1.935 0 2.674l8.023 8.022z"/>
</svg>
