<svg xmlns="http://www.w3.org/2000/svg" viewBox="0 0 36 36">
  <path fill="#CCD6DD" d="M14.648 13.329c.369.369.968.369 1.337 0l1.337-1.336c.369-.369.369-.968 0-1.338-.37-.369-.968-.369-1.337 0l-1.337 1.338c-.37.369-.37.967 0 1.336zm-4.011 4.012c.37.371.967.37 1.337 0l1.336-1.337c.37-.37.371-.967 0-1.337-.369-.37-.967-.37-1.337 0l-1.337 1.337c-.369.37-.369.968.001 1.337zm-4.012 4.012c.37.37.967.37 1.337 0l1.337-1.338c.37-.369.37-.967 0-1.337-.369-.369-.967-.369-1.336 0l-1.337 1.338c-.37.369-.37.967-.001 1.337z"/>
</svg>
