<svg xmlns="http://www.w3.org/2000/svg" viewBox="0 0 36 36">
  <g fill="#DD2E44">
    <path d="M11.83 26.822l11.18.981c.274.024.518-.18.542-.454l.003-.03c.024-.274-.181-.518-.455-.542l-11.18-.981c-.274-.024-.518.18-.542.455l-.003.03c-.024.273.181.517.455.541z"/>
    <path d="M23.01 27.803l-.03-.003c-.274-.024-.478-.268-.455-.542l.452-5.161c.024-.274.268-.478.542-.455l.03.003c.274.024.478.268.455.542l-.452 5.161c-.024.274-.268.479-.542.455zm-11.062-7.809l-.03-.003c-.274-.024-.518.181-.542.454l-1.048 11.977c-.024.274.181.518.455.542l.03.003c.274.024.518-.181.542-.454l1.048-11.977c.023-.274-.181-.518-.455-.542z"/>
  </g>
</svg>
