<svg xmlns="http://www.w3.org/2000/svg" viewBox="0 0 36 36">
  <path d="M11.844 4.273L7.248 8.869c-.195.195-.512.195-.707 0-.195-.195-.195-.512 0-.707l4.596-4.596c.195-.195.512-.195.707 0 .195.196.195.512 0 .707zm1.414 1.415l-4.596 4.596c-.195.195-.512.195-.707 0-.195-.195-.195-.512 0-.707l4.596-4.596c.195-.195.512-.195.707 0 .195.195.195.511 0 .707zm1.414 1.414l-4.596 4.596c-.195.195-.512.195-.707 0s-.195-.512 0-.707l4.596-4.596c.195-.195.512-.195.707 0s.196.511 0 .707zm1.414 1.414l-4.596 4.596c-.195.195-.512.195-.707 0-.195-.195-.195-.512 0-.707l4.596-4.596c.195-.195.512-.195.707 0 .196.195.196.512 0 .707zm1.415 1.414l-4.596 4.596c-.195.195-.512.195-.707 0s-.195-.512 0-.707l4.596-4.596c.195-.195.512-.195.707 0s.195.512 0 .707z" fill="#99AAB5"/>
</svg>
