<svg xmlns="http://www.w3.org/2000/svg" viewBox="0 0 36 36" xml:space="preserve">
  <g fill="#DEAD74">
    <path d="M21.272 10.135C9.833 9.704 7.708 14.489 9.381 16.409c.519.595 1.148.951 1.852 1.297 1.173.576.227 2.37-.945 1.795-4.128-2.026-4.263-5.481-1.868-7.823-1.461.576-1.931-1.41-.768-1.88 1.62-.654 3.298-1.073 5.004-1.339-.515-.093-1.426-.053-1.514-1.032-.166-1.857 2.62-.745 4.557-.272 1.363-.834 2.896-1.02 4.496-.893 1.153.091 1.358 1.26.647 1.838 1.89.064 1.627 2.081.43 2.035z"/>
    <path d="M8.764 23.59c-1.97-3.539-4.057-3.525-5.385-5.45-2.436-3.533 2.76-4.666 1.844-7.751-.372-1.249-2.33-.717-1.957.539.284.957-1.482 1.487-2.295 3.977a4.908 4.908 0 0 0 .134 3.408c-1.169.207-1.011 1.771-.097 1.953.735.146 1.158.293 1.759.524.266.175 2.663.983 4.245 3.824.625 1.121 2.428.19 1.752-1.024zm25.914-9.412c-.411-.843-1.103-1.522-1.865-2.1a18.34 18.34 0 0 0-.311-1.108c.815-.233 1.052-1.608.025-1.947-.97-.32-2.074.404-2.122 1.651a26.297 26.297 0 0 0-4.936-2.326c-1.219-.426-1.896 1.485-.589 1.941 3.732 1.304 1.823 4.862-1.373 6.759-2.489 1.074-5.175 1.31-7.567.49-1.086-.372-1.905 1.477-.432 1.982 3.262 1.118 7.204.335 10.223-1.365 1.709-.963 3.306-3.694 2.988-5.638-.051-.309.293-.519.548-.349.873.581 1.684 1.398 1.644 1.761-.21 1.925-.414 2.872-2.426 4.353-.413.304-.677.887-.511 1.421.15.482.716.8 1.174.554.925-.497 1.815-1.149 2.524-2.177.735-1.039.82-2.079 1.102-3.154.439.752.569 1.72.185 2.798-.19.533.185 1.154.674 1.231 1.752.341 1.89-3.044 1.045-4.777zm-12.126 7.521c-.392-2.012-4.323.709-7.849-1.502-1.196-.75-2.219 1.001-1.154 1.669 2.487 1.56 5.411 1.335 8.202 1.024.545-.062.9-.685.801-1.191z"/>
  </g>
</svg>
