<svg xmlns="http://www.w3.org/2000/svg" viewBox="0 0 36 36" xml:space="preserve">
  <path fill="#BD9366" d="M33.485 14.893c-.061-.147-.1-.604-.31-1.04-.049-.076-.382-.523-.329-.491-.532-.572-.838-.829-1.454-1.274-.265-.008-.437-.029-.808-.525-2.567-1.545-5.955-3.929-10.796-3.958-4.472-.027-10.333 2.143-14.46 4.496-3.746 2.136-3.565 2.492-3.531 5.144l3.061 3.893c1.07 1.36 2.073 2.97 3.414 4.081.826.684 2.663 2.118 10.134 2.661.91.066 1.728.08 2.255-.006 2.763-.451 5.445-2.886 6.183-3.243 3.455-1.671 6.286-2.989 6.659-8.219a8.202 8.202 0 0 0-.018-1.519z"/>
</svg>
