<svg xmlns="http://www.w3.org/2000/svg" viewBox="0 0 36 36" xml:space="preserve">
  <path d="M18.826 28.109c.024.537-.477 1.005-1 1a19.065 19.065 0 0 1-6.425-1.17c-.526-.195-.827-.664-.698-1.23.113-.495.739-.88 1.23-.698 1.964.727 3.854 1.079 5.893 1.098.561.005.976.454 1 1zm14.147-13.543c-.184-.507-.682-.848-1.231-.696-.49.136-.881.721-.696 1.231.526 1.451 1.138 3.071.791 4.635-.15.675-.441 1.255-.957 1.722-.624.566-1.359 1.03-2.037 1.529-.434.32-.65.869-.356 1.369.252.429.931.678 1.369.356.833-.613 1.741-1.187 2.497-1.895.686-.642 1.154-1.511 1.381-2.417.497-1.984-.085-3.969-.761-5.834z" fill="#BD9366"/>
</svg>
