<svg xmlns="http://www.w3.org/2000/svg" viewBox="0 0 36 36" xml:space="preserve">
  <path fill="#77B255" d="M24.986 3.599a.485.485 0 0 0-.002-.221c-.001-.002-.003-.004-.003-.007-.004-.015-.014-.027-.02-.041a.508.508 0 0 0-.093-.159c-.007-.007-.008-.018-.015-.025C20.95-.757 18.173.329 16.84.85c-.182.071-.335.133-.462.165a.5.5 0 0 0-.326.709c.016.031 1.155 2.214 4.08 2.724-.343.578-.639 1.28-.883 2.116a.502.502 0 0 0 .277.597c.305.135.621.202.946.202 1.412 0 2.985-1.256 4.45-3.597.021-.034.029-.073.041-.11.005-.015.018-.025.021-.041.004-.006.001-.011.002-.016z"/>
</svg>
