<svg xmlns="http://www.w3.org/2000/svg" viewBox="0 0 36 36">
  <path fill="#F5F8FA" d="M9.521 12.245H7.85c-1.358 0-1.924-.991-1.924-1.953 0-.99.707-1.952 1.924-1.952h4.019c1.217 0 1.896.876 1.896 2.007v16.104c0 1.414-.906 2.207-2.122 2.207-1.216 0-2.122-.793-2.122-2.207V12.245zm7.307 10.13c0-2.264 1.245-3.934 3.027-4.895-1.33-.963-2.15-2.265-2.15-4.047 0-3.312 2.745-5.434 6.112-5.434 3.283 0 6.14 2.093 6.14 5.434 0 1.583-.791 3.17-2.178 4.047 1.924.96 3.027 2.715 3.027 4.895 0 3.934-3.197 6.451-6.989 6.451-3.906 0-6.989-2.658-6.989-6.451zm4.413-.283c0 1.443.849 2.832 2.575 2.832 1.612 0 2.576-1.389 2.576-2.832 0-1.783-1.02-2.83-2.576-2.83-1.641 0-2.575 1.246-2.575 2.83zm.538-8.206c0 1.274.736 2.151 2.037 2.151 1.302 0 2.066-.877 2.066-2.151 0-1.217-.736-2.151-2.066-2.151-1.33 0-2.037.934-2.037 2.151z"/>
</svg>
