<svg xmlns="http://www.w3.org/2000/svg" viewBox="0 0 36 36">
  <path fill-rule="evenodd" clip-rule="evenodd" fill="#292F33" d="M7.657 14.788c.148.147.888.591 1.036 1.034.148.443.445 2.954 1.333 3.693.916.762 4.37.478 5.032.149 1.48-.738 1.662-2.798 1.924-3.842.148-.591 1.036-.591 1.036-.591s.888 0 1.036.591c.262 1.044.444 3.104 1.924 3.841.662.33 4.116.614 5.034-.147.887-.739 1.183-3.25 1.331-3.694.146-.443.888-.886 1.035-1.034.148-.148.148-.739 0-.887-.296-.295-3.788-.559-7.548-.148-.75.082-1.035.295-2.812.295-1.776 0-2.062-.214-2.812-.295-3.759-.411-7.252-.148-7.548.148-.149.148-.149.74-.001.887z"/>
</svg>
