<svg xmlns="http://www.w3.org/2000/svg" viewBox="0 0 36 36">
  <path fill="#FFDC5D" d="M7.482 17.392c-1.878 1.035-3.267 2.429-3.38 2.58-.477.637-.324 1.509-.251 2.345.086.995.112 2.231.595 2.908.198.277.107.759-.032 1.208-.419 1.353.306 3.199-.145 2.882-.918-.644-1.074-1.83-1.047-2.528.015-.393-.166-.884-.257-1.138-.059-.16-1.348-3.094-1.622-4.431-.148-.722-.186-1.381.379-2.263.621-.971 1.939-2.945 3.117-3.885.989-.789 1.564-1.189 1.914-1.38 1.57-.857 1.389 3.338.729 3.702zm22.917-6.74c-.084.009-.143.102-.203.238-.023-.164-.074-.276-.184-.264-.129.013-.201.22-.304.492-.027-.047-.062-.079-.117-.078-.261.009-.349.811-.909 1.334-.081.036-.154.078-.248.104-.059.016-.098.041-.146.061.005-.255.171-.405.271-.474.239-.166.089-.586-.314-.331-.289.183-.41.365-.501.55-.255.519-.354 1.058-.333 1.487l-.119.215c-.139.242-1.626 1.17-2.696 1.967-1.066.793-1.846 1.694-2.415 1.132-.396-.391-1.462-1.74-3.322-2.833-1.124-.661-2.733-.866-2.733-.866-.807.662.226 3.019.812 3.647.981 1.051 4.341 2.844 5.388 3.31s1.704-.161 2.196-.609c.403-.366 3.434-4.072 3.703-4.326.365-.344 1.063-.797 1.457-1.491.338-.596.543-1.079.667-1.855.071-.456.402-1.447.05-1.41zm-19.86-.361v3.727c0 1.029.834 1.864 1.864 1.864 1.029 0 1.864-.834 1.864-1.864v-3.727h-3.728z"/>
</svg>
