<svg xmlns="http://www.w3.org/2000/svg" viewBox="0 0 36 36">
  <path fill="#C1694F" d="M26.949 14.467c-.039-.575-.098-1.131-.177-1.662-.095-.636-.214-1.235-.347-1.797-.122-.517-.255-.999-.392-1.442-.205-.666-.417-1.243-.609-1.716-.377-.929-.674-1.46-.674-1.46l-2.583.333s.298.622.621 1.841c.131.495.265 1.09.386 1.784.061.351.118.724.17 1.125.072.558.131 1.167.173 1.823.024.37.041.756.053 1.158.004.146.011.287.013.437.007.469-.026.946-.084 1.422-.053.429-.13.856-.223 1.279-.133.606-.296 1.202-.479 1.77-.149.46-.308.901-.468 1.316-.246.637-.493 1.209-.707 1.687-.358.798-.622 1.33-.622 1.441 0 .351.25 1.007 2 1.444 2.736.684 3-.444 3-.444s.174-.528.376-1.567c.1-.513.206-1.147.303-1.915.058-.459.112-.964.158-1.513.049-.572.089-1.192.118-1.863.021-.508.034-1.051.039-1.615.002-.176.006-.346.006-.527 0-.459-.021-.903-.051-1.339z"/>
</svg>
