<svg xmlns="http://www.w3.org/2000/svg" viewBox="0 0 36 36">
  <path fill="#D99E82" d="M24.324 21.362c-1.003-.175-1.643-.467-1.994-.686-.246.637-.493 1.209-.707 1.687.655.356 1.487.64 2.389.796.521.091 1.038.136 1.523.136.296 0 .574-.023.841-.057.1-.513.206-1.147.303-1.915-.318.113-1.107.257-2.355.039zm.758-3.342c-.782-.077-1.383-.249-1.805-.43-.133.606-.296 1.202-.479 1.77.618.233 1.345.401 2.106.476.307.03.611.045.908.045.359 0 .7-.028 1.026-.071.049-.572.089-1.192.118-1.863-.45.098-1.08.152-1.874.073zm.221-1.524c.588 0 1.165-.059 1.692-.163.001-.176.005-.346.005-.527 0-.458-.021-.902-.051-1.339-.378.099-.919.194-1.682.205-.775-.003-1.32-.111-1.698-.219.004.146.011.287.013.437.007.469-.026.946-.084 1.422.545.115 1.148.181 1.76.184h.045zm-.178-3.273c.59-.085 1.137-.238 1.648-.418-.095-.636-.214-1.235-.347-1.797-.354.146-.857.308-1.56.409-.651.094-1.147.088-1.522.055.072.558.131 1.167.173 1.823.109.004.207.021.319.021.42 0 .857-.031 1.289-.093zm.909-3.658c-.206-.665-.418-1.242-.61-1.715-.317.159-.718.326-1.242.471-.568.158-1.027.221-1.395.243.131.495.265 1.09.386 1.784.487-.049.989-.128 1.497-.269.486-.135.937-.316 1.364-.514z"/>
</svg>
