<svg xmlns="http://www.w3.org/2000/svg" viewBox="0 0 36 36">
  <path fill="#3E721D" d="M34.549 2.943c-.032-.042-3.202-4.283-7.313-2.423-1.847.835-3.038 2.2-3.469 3.963-.804-1.125-2.026-1.839-3.644-2.127-4.421-.788-7.092 4.123-7.118 4.172-.039.072-.022.16.039.214.062.053.151.057.217.01.02-.015 2.037-1.427 5.396-.828 3.433.611 5.84 1.211 5.864 1.217.015.003.028.005.043.005.048 0 .095-.02.129-.056.022-.024 2.303-2.475 4.4-3.423 3.104-1.404 5.221-.472 5.24-.462.072.033.158.013.209-.049.051-.061.054-.148.007-.213z"/>
</svg>
