<svg xmlns="http://www.w3.org/2000/svg" viewBox="0 0 36 36">
  <path fill="#DD2E44" d="M21.797 10.844c-.206.63-.344.903-.478 1.251-.242.625-.975 2.202-3.037 2.312-1.806.096-2.331-.675-2.13-1.877.101-.601.194-.792.489-1.373 0 0-.438-.062-1.094-.047 0 0-1.511 2.156-2.109 5.391-.34 1.84 1.344 3.188 1.875 6.531.35 2.203 8.156.719 8.156.719s-.656-3.812.312-5.781c-1.06-1.221-1.525-4.558-.949-7.413l-1.035.287zm-4.006-7.988c1.875-.188 3.306.636 3.625 2.512.499 2.935-.802 4.155-1.971 4.592-1.06.396-2.553-.555-2.488-.547 0 0 .991 1.387 2.74.85 1.387-.426 1.859-1.793 2.218-1.96.464-.216.87-.458 1.032-.728.312-.531.406-1.281.25-1.969-.062-.274-.323-.538-.331-.808-.062-2.083-1.662-3.567-4.024-3.379-1.662.132-2.676 1.064-3.21 2.398.178-.101.836-.829 2.159-.961z"/>
</svg>
