<svg xmlns="http://www.w3.org/2000/svg" viewBox="0 0 36 36">
  <path fill="#FFE8B6" d="M34.345 24.615c-1.582-.977-4.292.715-5.675-.668-.877-.877-7.984-8.516-11.111-11.493S10.937 6.8 10.12 6.065c-.477-.429 1.076-3.55-.238-4.864C8.488-.192 6.566-.348 5.173 1.045c-.856.855-.461 2.285-1.062 2.683s-2.212.59-3.066 1.445c-1.393 1.392-1.191 3.683.396 4.85 1.621 1.192 4.053-.095 5.007.191 1.301.39 4.734 4.223 9.347 8.822 4.303 4.29 7.882 9.171 8.25 9.585.763.858-1.478 3.767.668 6.152 1.318 1.464 3.71 1.489 5.103.095.856-.854.806-3.721 1.574-4.292s2.53-.051 3.386-.906c1.391-1.392 1.19-4.053-.431-5.055z"/>
</svg>
