<svg xmlns="http://www.w3.org/2000/svg" viewBox="0 0 36 36">
  <path fill="#F2C994" d="M5.113 3.013C5.208 1.868 6.544.295 8.022.438c1.478.143 2.003 1.669 1.86 2.48-.144.81-.382 1.573-.478 2.193-.095.62-.143 1.097 1.097 2.003s11.397 10.157 13.734 12.971c2.337 2.814 3.72 4.578 4.673 4.816.954.238 1.812.143 2.718 0 .847-.134 2.847-.575 3.729.885-.227-.475-.557-.891-1.01-1.171-1.582-.977-4.292.715-5.675-.668-.877-.877-7.984-8.516-11.111-11.493-3.127-2.977-6.622-5.655-7.439-6.39-.477-.429 1.076-3.55-.238-4.864C8.488-.192 6.566-.348 5.173 1.045c-.856.855-.461 2.285-1.062 2.683-.14.093-.34.175-.568.257.953-.055 1.494-.06 1.57-.972z"/>
</svg>
