<svg xmlns="http://www.w3.org/2000/svg" viewBox="0 0 36 36">
  <path fill="#D99E82" d="M35.537 27.953c-.143 1.24-2.48 2.146-3.958 1.669-.873-.282-1.717-.143-1.621.763.095.906.238 2.241-.286 3.29-.477.954-2.48 1.431-3.767.525-1.186-.835-1.383-2.957-.858-3.958.525-1.001.572-1.669-.668-3.195-.628-.773-4.109-4.765-8.011-8.87-3.801-3.998-7.593-7.828-8.393-8.393-1.623-1.144-2.466-.662-3.625-.381-1.574.381-3.1-.715-3.386-1.431-.255-.639-.228-2.13.243-2.933-.054.045-.113.085-.162.134-1.393 1.392-1.191 3.683.396 4.85 1.621 1.192 4.053-.095 5.007.191 1.301.39 4.734 4.223 9.347 8.822 4.303 4.29 7.882 9.171 8.25 9.585.763.858-1.478 3.767.668 6.152 1.318 1.464 3.71 1.489 5.103.095.855-.854.806-3.721 1.574-4.292.767-.571 2.53-.051 3.386-.906.558-.557.848-1.317.906-2.093-.065.026-.118.142-.145.376z"/>
</svg>
