<svg xmlns="http://www.w3.org/2000/svg" viewBox="0 0 36 36">
  <path fill="#3B88C3" d="M27.367 35.339c-2.44 0-4.521-1.268-6.199-3.784-.307-.459-.183-1.08.277-1.387.458-.307 1.079-.183 1.387.277 1.564 2.343 3.359 3.228 5.644 2.781.945-.184 1.793-.98 2.27-2.132.701-1.693.47-3.668-.62-5.282-2.006-2.971-2.777-6.787-2.063-10.21.615-2.956 2.24-5.344 4.698-6.905.466-.295 1.084-.158 1.38.308.297.466.158 1.084-.308 1.38-2.516 1.598-3.462 3.941-3.813 5.625-.604 2.905.055 6.151 1.765 8.683 1.466 2.172 1.769 4.851.811 7.167-.734 1.772-2.131 3.018-3.736 3.329-.513.1-1.009.15-1.493.15z"/>
</svg>
