<svg xmlns="http://www.w3.org/2000/svg" viewBox="0 0 36 36">
  <path d="M31.532 30.992c-.781-2.485-2.807-4.482-4.157-2.075-1.342 2.392 1.04 3.456 3.717 2.74.781 2.485 2.807 4.482 4.157 2.075 1.342-2.392-1.039-3.456-3.717-2.74zm-1.425-7.039c2.377 1.066 5.215.876 4.311-1.731-.898-2.592-3.275-1.517-4.517.961-2.377-1.066-5.215-.876-4.311 1.731.898 2.592 3.275 1.517 4.517-.961zm-1.261-6.597c1.355 2.225 3.802 3.676 4.534 1.015.727-2.645-1.84-3.105-4.267-1.766-1.355-2.224-3.802-3.676-4.534-1.015-.728 2.645 1.84 3.105 4.267 1.766zm2.897-6.557c-.132 2.602 1.074 5.178 3.177 3.39 2.089-1.777.226-3.602-2.534-3.861.132-2.602-1.074-5.178-3.177-3.39-2.089 1.777-.225 3.602 2.534 3.861z" fill="#9266CC"/>
</svg>
