<svg xmlns="http://www.w3.org/2000/svg" viewBox="0 0 36 36">
  <path fill="#4289C1" d="M25.097 17.21c.069 1.432-.391 2.922-1.505 3.202-1.066.268-3.056-.151-3.056-.151s-.698.408-.531 1.189c.095.444.257.67.201.712-.05.038-.486-.022-.684-.032-.528-.027-1.1-.211-2.073-.484-.974-.273-1.421-.285-2.481-.577-1.175-.324-1.986-.835-2.33-1.956-.293-.956.277-2.123 1.654-2.63 1.12-.412 4.339-.347 5.539-.231 1.201.118 5.206-.287 5.266.958z"/>
  <path fill="#4289C1" d="M7.002 27.225c-.646-.143-1.293-.6-1.419-1.224 1.346-1.871 3.671-7.538 3.671-7.538.695-1.744 1.517-3.426 3.133-3.182 2.081.315 5.629 1.028 5.629 1.028 2.276.329 1.144 1.007 1.778 1.912.635.903-1.294 1.99-2.786 1.891-2.602-.173-3.877-.453-5.522.846-.8 2.306-2.071 4.087-2.844 6.406-.826.244-.993.004-1.64-.139z"/>
</svg>
