<svg xmlns="http://www.w3.org/2000/svg" viewBox="0 0 36 36">
  <path fill="#7C533E" d="M26.082 1.281c-1.193-.904-3.4-.774-4.155.689-1.053 2.041-.331 4.222 1.077 4.458 1.476.247 2.444.176 3.438-1.136.994-1.312.833-3.107-.36-4.011z"/>
  <path fill="#7C533E" d="M25.955 5.565c2.593-1.744-2.168-2.839-2.168-2.839-.898-.217-.702 1.436-1.347 2.128-.444.479.681 1.115.681 1.115s.557.147.398.828l-.002.006c-.041.173-.116.372-.273.621-.776 1.235.802 2.568 1.577 1.33.307-.49.378-.977.42-1.433l.004-.041c.06-.677.069-1.284.71-1.715z"/>
</svg>
