<svg xmlns="http://www.w3.org/2000/svg" viewBox="0 0 36 36">
  <path fill="#FFF" d="M18.964 4.033C11.251 3.501 4.566 9.322 4.033 17.036s5.289 14.399 13.002 14.931c7.714.533 14.399-5.289 14.931-13.002.533-7.714-5.288-14.399-13.002-14.932zm-1.183 25.983c-3.317-.06-5.958-2.799-5.897-6.118C11.943 20.583 14.683 17.94 18 18c3.317.06 6.056-2.581 6.118-5.897.046-2.558-1.524-4.748-3.758-5.657l.151-.171c5.517 1.174 9.612 6.096 9.506 11.943-.122 6.639-5.597 11.919-12.236 11.798z"/>
  <circle fill="#FFF" cx="18" cy="24" r="2.5"/>
</svg>
