<svg xmlns="http://www.w3.org/2000/svg" viewBox="0 0 36 36">
  <path fill="#CCD6DD" d="M30.375 2.039c-.045 0-.088.01-.132.013-.193-.446-.635-.76-1.153-.76-.235 0-.443.082-.631.194-.448-.72-1.241-1.204-2.152-1.204-.814 0-1.531.39-1.996.985-.493-.336-1.088-.534-1.729-.534-1.154 0-2.148.644-2.674 1.585-.265-.612-.874-1.041-1.583-1.041-.55 0-1.035.263-1.351.664C16.584.815 15.525 0 14.266 0c-1.015 0-1.902.528-2.414 1.322-.141-.021-.283-.043-.43-.043-.802 0-1.526.33-2.048.859-.068-.005-.132-.02-.201-.02-.034 0-.066.009-.099.01-.308-.398-.783-.657-1.323-.657-.526 0-.99.247-1.297.626-.17-.05-.347-.084-.534-.084-1.06 0-1.92.86-1.92 1.921s.86 1.921 1.921 1.921c.055 0 .106-.012.16-.016.217.271.536.456.91.456.046 0 .085-.021.129-.026.473.62 1.212 1.026 2.051 1.026.19 0 .374-.023.552-.062.35.278.758.485 1.213.576.644 1.121 1.839 1.885 3.224 1.885 1.311 0 2.459-.679 3.125-1.701.552.677 1.382 1.118 2.323 1.118 1.392 0 2.552-.95 2.897-2.233.026.001.05.008.076.008.367 0 .714-.075 1.041-.193.516.403 1.157.653 1.863.653 1.062 0 1.995-.546 2.539-1.37.194.139.419.238.676.238.482 0 .893-.291 1.078-.704.188.067.387.11.597.11.988 0 1.789-.801 1.789-1.789s-.801-1.792-1.789-1.792z"/>
</svg>
