<svg xmlns="http://www.w3.org/2000/svg" viewBox="0 0 36 36">
  <path fill="#292F33" d="M18.135 25.726c-.145-.513-.026-.97-.177-1.476-.148-.499-.566-1.047-.693-1.478-.265-.899-.454-1.583-.445-1.772.024-.469.894-.401 1.102.469.293 1.224.688 1.594.688 1.594s.084-3.381-.632-4.068c.145-.231.289-.476.418-.744.625-1.292.646-2.104.646-2.104S16.521 19.208 15.82 21c-.701 1.792 1 8 1 8l-4 7h4.467s-.474-1.469-.467-1.969c.007-.5 1.899-3.688 2-5.031.041-.545-.285-1.861-.685-3.274zm15.74.024c-.515-.586-1.841-1.42-3.128-2.154 0 0-2.335-5.596-3.622-7.263s-3.667-3-3.667-3l-2.646 1.479s1.705 1.446 2.646 3.062.689 3.519.745 3.908c.067.467.059.973.588 1.759 1.045 1.553 1.726 1.541 2.183 2.276.049.145.099.291.15.432.14.385.68.656.792 1.021.175.576.878 2.284.682 3.09-.106.437-.224 1.521-.307 2.014-.341 2.043.766 3.626.766 3.626H36s-1-8.969-2.125-10.25z"/>
</svg>
