<svg xmlns="http://www.w3.org/2000/svg" viewBox="0 0 36 36">
  <path fill="#FFAC33" d="M26.098 22.256c-.772-.754-1.187-1.898-1.229-3.294.173-1.667-4.662-4.923-4.662-4.923l-1.915.316s4.112 1.681 4.708 4.453c.297 1.381-.107 3.271-.208 4.11-.136 1.119.661 1.768.875 2.832.111.55.007 1.694-.14 2.878-.075.602-.348 1.175-.422 1.726-.192 1.424-.12 2.472.229 1.812.422-.796.653-1.922 1.263-3.606.293-.81.311-1.743.239-2.811-.031-.461.111-1.009.061-1.521-.051-.528-.294-1.02-.333-1.604-.011-.166.03-.738.092-1.444.074.012.146.054.216.172.938 1.562.764 3.025 1.276 2.581.41-.356.493-1.146-.05-1.677z"/>
</svg>
