<svg xmlns="http://www.w3.org/2000/svg" viewBox="0 0 36 36">
  <path fill="#FFAC33" d="M18 12.594s-3.844-1.094-6.458 1.25C10.351 14.911 10.48 15.896 10 18.25s-1.861 3.086-2.062 4.021c-.396 1.833-1.852 3.23-2.417 4.104-.328.508-.758 1.336-1.038 1.802-.586.978-1.014 1.805-1.066 2.239-.125 1.042 1.833-1.208 1.833-1.208l3.281-4.035c-.107 2.301-.924 4.738-.031 4.514.75-.188 1.363-1.136 1.016-2.156-.454-1.336-.338-2.483-.094-3.456.05-.089 2.252-4.007 2.787-7.117.542-3.146 5.381-3.976 5.381-3.976l2.244.862.417-1.066L18 12.594z"/>
</svg>
