<svg xmlns="http://www.w3.org/2000/svg" viewBox="0 0 36 36">
  <path fill="#E95F28" d="M27.953 17c-1.328-1.75-3.286-3.685-4.234-3.988-.823-.263-.428.815-.428.815s2.833 1.236 4.271 6.736c.686 2.625 2.765 3.711 3.344 5.344 1.938 5.469 4.166 6.463 2.943 4.747S29.281 18.75 27.953 17zm-9.972 1.535c-.108-.166-.205-.306-.294-.437 1.259-1.904 2.751-4.035 2.751-4.035s-2.912-.294-3 .031c-.875 3.219-1.669 4.238-2.312 6.281-1.876 5.958 1.21 9.869 1.694 8.625.388-1-.211-3.746-.672-5.373s-.266-2.002-.169-2.669c.034-.233.594-1.153 1.303-2.244.089.071.172.163.243.29.446.8.653 2.26.753 3.251.115 1.139 1.134 1.653 1.696 1.25s-.188-2.422-1.41-3.726c-.289-.31-.392-.95-.583-1.244z"/>
  <path fill="#E95F28" d="M23.969 13.125s.594 1.156-1.635 1.135c-.584-.005-.861.512-1.625.576-.636.053-1.509-.243-2.229-.243-.72 0-1.55.491-2.186.438-.766-.064-1.659-.834-2.231-.959-1.062-.232-1.792-.289-1.792-.646 0-.357 1.207-.789 2.271-1.021.571-.125 1.058.285 1.822.221.636-.053 1.291-.101 2.011-.101.72 0 1.415-.431 2.051-.377.766.064 1.403.432 1.979.535.683.123 1.088.244 1.314.329.185.069.25.113.25.113z"/>
</svg>
