<svg xmlns="http://www.w3.org/2000/svg" viewBox="0 0 36 36">
  <path fill="#FFAC33" d="M25.531 6.906s-3.455-1.365-6.764-1.365-7.392 1.886-7.392 1.886c3.25 2.764 3.119 5.697 3.119 5.697h7.688c0 .001 1.162-4.052 3.349-6.218z"/>
  <path fill="#FFAC33" d="M22.182 13.125s-.056.21-.4.312c-.091.027-.307-.048-.453 0-.174.057-.486.201-.641.219-.166.02-.546-.094-.734-.078-.344.028-.519.159-.922.172-.273.008-.401-.098-.693-.098-.109 0-.341-.097-.525-.089-.303.012-.583.13-.75.125-.453-.014-.545-.216-.922-.25-.365-.032-.625.141-.891.094-.502-.089-.756-.406-.756-.406 0-.291 1.721-.527 3.844-.527s3.843.526 3.843.526z"/>
</svg>
