<svg xmlns="http://www.w3.org/2000/svg" viewBox="0 0 36 36">
  <path fill="#E95F28" d="M17.145 13.682s-.07-.575-.301-1.367c-.615-2.107-.594-3.628-.594-3.628l-1.396.667s.729 1.396 1.305 4.093c0 0 .2.005.429.129s.557.106.557.106zm1.698.063c.004-.228.01-.715.074-1.214.063-.492.321-1.677.417-2.26.163-.995.117-1.696.333-2.083l-2.229.083s.471.931.583 2.042c.088.866.001 2.239.195 3.327 0 0 .063.017.149.024.043.003.14.003.192.012.157.026.286.069.286.069zm2.212-.2s.462-1.455.62-2.446c.257-1.613 1.714-3.985 2.106-4.38l-2.828-.094s.069 2.111-.058 3.491c-.096 1.043-.598 1.991-.519 3.503 0 0 .134.05.311.037.155-.012.368-.111.368-.111z"/>
</svg>
