<svg xmlns="http://www.w3.org/2000/svg" viewBox="0 0 36 36">
  <path fill="#F7D116" d="M14.347 15.903l.764-.555h-.944l-.292-.898-.292.898h-.944l.764.555-.292.899.764-.555.764.555zm6.182 4.492l.764-.555h-.944l-.292-.899-.292.899h-.945l.765.555-.292.898.764-.555.764.555zm-12.364 0l.765-.555h-.945l-.292-.899-.292.899h-.944l.764.555-.292.898.764-.555.764.555zm0 4.017l.765-.555h-.945l-.292-.898-.292.898h-.944l.764.555-.292.898.764-.555.764.555zm12.364 0l.764-.555h-.944l-.292-.898-.292.898h-.945l.765.555-.292.898.764-.555.764.555zm-6.362 3.936l-.292-.898-.292.898h-.944l.764.555-.292.899.764-.555.764.555-.292-.899.764-.555zm4.001-.686l.764-.555h-.945l-.291-.898-.292.898h-.945l.764.555-.292.898.765-.555.764.555zm0-10.504l.764-.555h-.945l-.291-.898-.292.898h-.945l.764.555-.292.898.765-.555.764.555zM9.582 27.662l-.764-.555h.945l.291-.898.292.898h.945l-.764.555.292.898-.765-.555-.764.555zm0-10.504l-.764-.555h.945l.291-.898.292.898h.945l-.764.555.292.898-.765-.555-.764.555z"/>
</svg>
