<svg xmlns="http://www.w3.org/2000/svg" viewBox="0 0 36 36">
  <path fill="#8899A6" d="M34.247 6.324l-2.742 2.743s-1.829.914-3.657-.915c-1.829-1.828-.915-3.657-.915-3.657l2.743-2.743C30.591.838 29.492 0 28.667 0c-4.051 0-7.334 3.283-7.334 7.333 0 .569.072 1.121.194 1.653l-6.199 6.199 5.485 5.485 6.199-6.198c.533.122 1.084.194 1.654.194 4.05 0 7.333-3.283 7.333-7.333.001-.83-.838-1.923-1.752-1.009zm-19.027 9.04L3.031 27.552c-1.495 1.496-1.495 3.921 0 5.417 1.497 1.495 3.921 1.495 5.417 0l12.187-12.188-5.415-5.417zM5.763 31.838c-.819 0-1.482-.664-1.482-1.482s.664-1.483 1.482-1.483c.819 0 1.482.664 1.482 1.483 0 .818-.663 1.482-1.482 1.482z"/>
</svg>
