<svg xmlns="http://www.w3.org/2000/svg" viewBox="0 0 36 36">
  <path fill="#BE1931" d="M30.53 27.396c-.13-.104-.427-.155-.613-.173-.129-.013-.464-.023-.746-.007-.127.007-.272.023-.331.04-.185.054-.266.131-.31.185-.053.065-.058.134-.046.169.049.143.284.39.386.625.034.078.054.155.047.226-.025.258-.354.633-.6.911-.148.167-.266.299-.271.35-.005.055.01.102.035.148v.002c.067.123.214.251.314.587.065.217.369 1.205.369 1.205.073.252.17.313.211.449.085.277.235 1.021.309 1.256.074.235.253.336.39.355.138.019.217-.013.217-.013s.322-.145.535-1.352c.154-.872.018-1.007-.098-2.317-.114-1.312.202-2.646.202-2.646z"/>
</svg>
