<svg xmlns="http://www.w3.org/2000/svg" viewBox="0 0 36 36">
  <path fill="#CCD6DD" d="M34.553 24.704c-.437-1.313-3.665-3.101-6.973-4.513.26-.664.42-1.401.42-2.191 0-2.761-1.791-5-4-5s-4 2.239-4 5c0 3 4 10-2.001 11.118-5.125-.955-2.954-6.201-2.212-9.58.072-.276.125-.559.158-.853.034-.245.055-.476.055-.685 0-2.761-1.791-5-4-5s-4 2.239-4 5c0 .79.16 1.527.421 2.191-3.308 1.412-6.535 3.2-6.973 4.513C3.655 23.6 4.759 23.6 4.759 23.6s-1.104 2.208-1.104 3.312c2.67-1.78 5.339-2.122 7.429-.452C12.297 30.083 14 33 18.001 30.124c3.999 2.876 5.7-.04 6.912-3.662 2.092-1.673 4.763-1.33 7.434.45 0-1.104-1.103-3.312-1.103-3.312s1.103.001 3.309 1.104z"/>
</svg>
