<svg xmlns="http://www.w3.org/2000/svg" viewBox="0 0 36 36">
  <path d="M30 35c-.104 0-.211-.017-.316-.052-.523-.174-.807-.74-.632-1.265l2-6c.175-.523.735-.808 1.265-.632.523.174.807.74.632 1.265l-2 6c-.14.419-.53.684-.949.684zm-3-3c-.104 0-.211-.017-.316-.052-.523-.174-.807-.74-.632-1.265l2-6c.174-.523.737-.809 1.265-.632.523.174.807.74.632 1.265l-2 6c-.14.419-.53.684-.949.684zm-3-3c-.104 0-.211-.017-.316-.052-.523-.174-.807-.74-.632-1.265l2-6c.175-.523.735-.808 1.265-.632.523.174.807.74.632 1.265l-2 6c-.14.419-.53.684-.949.684zm-3-3c-.104 0-.211-.017-.316-.052-.523-.174-.807-.74-.632-1.265l2-6c.174-.523.737-.809 1.265-.632.523.175.807.741.632 1.265l-2 6c-.14.419-.53.684-.949.684zm-5-5c-.104 0-.211-.017-.316-.052-.524-.174-.807-.74-.632-1.265l2-6c.175-.524.74-.808 1.265-.632.524.175.807.741.632 1.265l-2 6c-.14.419-.53.684-.949.684zm-3-3c-.104 0-.211-.017-.316-.052-.524-.175-.807-.741-.632-1.265l2-6c.174-.523.739-.81 1.265-.632.524.175.807.741.632 1.265l-2 6c-.14.419-.53.684-.949.684zm-3-3c-.104 0-.211-.017-.316-.052-.524-.175-.807-.741-.632-1.265l2-6c.175-.523.74-.808 1.265-.632.524.175.807.741.632 1.265l-2 6c-.14.419-.53.684-.949.684z" fill="#66757F"/>
</svg>
