<svg xmlns="http://www.w3.org/2000/svg" viewBox="0 0 36 36">
  <path fill="#843511" d="M18 14.33l.242 1.265.116.605.339-.514.708-1.076-.261 1.261-.125.604.51-.346 1.066-.723-.723 1.066-.346.51.603-.125 1.262-.26-1.076.708-.515.337.605.116L21.67 18l-1.265.242-.605.116.514.339 1.076.708-1.262-.261-.604-.125.346.51.723 1.065-1.065-.723-.51-.346.125.604.261 1.262-.708-1.076-.338-.515-.116.605L18 21.67l-.242-1.265-.116-.605-.339.515-.708 1.076.26-1.262.125-.603-.51.346-1.066.723.723-1.066.346-.51-.604.125-1.261.261 1.076-.708.514-.339-.605-.116L14.33 18l1.265-.242.605-.116-.515-.339-1.076-.708 1.261.26.603.125-.346-.51-.724-1.066 1.066.724.51.346-.125-.603-.26-1.261.708 1.076.339.515.116-.605L18 14.33M18 13l-.488 2.548-1.425-2.167.524 2.541-2.147-1.457 1.457 2.147-2.54-.524 2.167 1.425L13 18l2.548.488-2.167 1.426 2.54-.525-1.457 2.146 2.147-1.457-.524 2.541 1.425-2.167L18 23l.488-2.548 1.426 2.167-.525-2.541 2.146 1.457-1.457-2.146 2.541.525-2.167-1.426L23 18l-2.548-.488 2.167-1.425-2.541.524 1.457-2.147-2.146 1.457.525-2.541-1.426 2.167L18 13zm1.914.381h.005-.005zm1.621 1.083h.005-.005zm1.084 1.623h.005-.005z"/>
</svg>
