<svg xmlns="http://www.w3.org/2000/svg" viewBox="0 0 36 36">
  <path d="M5 22c0 .553-.447 1-1 1H2c-.552 0-1-.447-1-1v-2c0-.553.448-1 1-1h2c.553 0 1 .447 1 1v2zm6 0c0 .553-.447 1-1 1H8c-.552 0-1-.447-1-1v-2c0-.553.448-1 1-1h2c.553 0 1 .447 1 1v2zm6 0c0 .553-.447 1-1 1h-2c-.553 0-1-.447-1-1v-2c0-.553.447-1 1-1h2c.553 0 1 .447 1 1v2zm6 0c0 .553-.447 1-1 1h-2c-.553 0-1-.447-1-1v-2c0-.553.447-1 1-1h2c.553 0 1 .447 1 1v2zm6 0c0 .553-.447 1-1 1h-2c-.553 0-1-.447-1-1v-2c0-.553.447-1 1-1h2c.553 0 1 .447 1 1v2zm6 0c0 .553-.447 1-1 1h-2c-.553 0-1-.447-1-1v-2c0-.553.447-1 1-1h2c.553 0 1 .447 1 1v2z" fill="#55ACEE"/>
</svg>
