<svg xmlns="http://www.w3.org/2000/svg" viewBox="0 0 36 36">
  <path fill="#D14A15" d="M23.549 3.135c.004-.045.013-.089.013-.135 0-.863-.7-1.562-1.562-1.562S20.438 2.137 20.438 3s.7 1.562 1.562 1.562c.046 0 .09-.01.135-.014l1.158 1.158c.195.196.451.294.707.294s.512-.098.707-.293c.391-.391.391-1.023 0-1.414l-1.158-1.158zM27 .438c-.863 0-1.562.7-1.562 1.562 0 .48.221.905.562 1.191V5c0 .552.447 1 1 1s1-.448 1-1V3.191c.341-.286.562-.711.562-1.191 0-.863-.699-1.562-1.562-1.562zm5 1c-.863 0-1.562.7-1.562 1.562 0 .046.01.09.014.135l-1.158 1.158c-.391.391-.391 1.023 0 1.414.194.195.45.293.706.293s.512-.098.707-.293l1.158-1.158c.045.004.089.013.135.013.863 0 1.562-.7 1.562-1.562S32.863 1.438 32 1.438z"/>
</svg>
