<svg xmlns="http://www.w3.org/2000/svg" viewBox="0 0 36 36">
  <path fill="#E08110" d="M17.338 26.109c0 1.515-.032 2.456-.771 2.813-.739.357-3.354.065-3.805.339-.45.274-.845.792-.42.78.425-.012 1.004.13 1.004.13s-.821.222-1.127.531-.464.961-.148.923c.316-.038 1.869-.427 2.177-.429 0 0-.386.482-.429.816-.043.335.229.478.229.478s1.118-.495 1.551-.697c.433-.202 1.161-.83 1.504-.977.343-.147.768-.158 2.126.249 0 0 .016-.655-.51-.859-.526-.205-.915-.058-.802-.847.134-.936.436-2.834.713-3.342.278-.505-1.292-1.027-1.292.092z"/>
</svg>
