<svg xmlns="http://www.w3.org/2000/svg" viewBox="0 0 36 36">
  <path fill="#FFAC33" d="M20.457 27.401c-.039 1.158-.045 2.673-.802 3.297-.757.624-3.876 1.025-4.322 1.47-.446.446-.757 1.158-.267 1.025s1.203-.134 1.203-.134-.891.49-1.158.936c-.267.446-.267 1.248.089 1.114s2.05-1.025 2.406-1.114c0 0-.312.668-.267 1.069.045.401.401.49.401.49s1.158-.891 1.604-1.248 1.114-1.292 1.47-1.559c.356-.267.847-.401 2.54-.312 0 0-.223-.624-.891-.713-.668-.089-1.515.089-1.337-.847s.713-3.208.891-3.876c.178-.667-1.515-.935-1.56.402z"/>
</svg>
