<svg xmlns="http://www.w3.org/2000/svg" viewBox="0 0 36 36">
  <path fill="#CCD6DD" d="M25.999 13.524c.23-1.11 1.477-2.227 2.903-2.135.921.059 1.842.446 2.243 1.188.421.78-.059 1.515-.059 1.515s.356.52.238 1.396c-.105.771-.743.802-.743.802s-.305 1.343-.802 1.871c-1.426 1.515-1.693 1.411-1.693 1.411s.297-.876.431-1.678c0 0-.475-.074-.475-.876s-.016-1.369-.327-2.347c-.298-.935-1.716-1.147-1.716-1.147zm-7.623 5.727s1.211-.081 1.776.081c.565.161 1.897 1.09 1.17 1.13-.727.04-2.946-1.211-2.946-1.211zm-.081.807s1.574.242 2.139.404c.565.161 1.897 1.164 1.17 1.13-1.735-.081-3.309-1.534-3.309-1.534zm.363 1.009s1.574.525 2.139.686 1.897.881 1.17.847c-1.735-.081-3.309-1.533-3.309-1.533zm0 .968s1.574.525 2.139.686 1.897.881 1.17.847c-1.735-.08-3.309-1.533-3.309-1.533zm-1.077-4.89s1.659.033 2.246.02c.587-.014 2.073.278 1.369.462-1.68.438-3.615-.482-3.615-.482zm.835-.638s.986-.176 1.573-.189c.587-.014 1.795.331 1.09.512-1.251.322-2.663-.323-2.663-.323zm.202-.727s.906-.107 1.493-.121 1.592.181.888.363c-1.251.323-2.381-.242-2.381-.242zm-.242 7.264s1.13.282 1.695.444c.565.161 1.897.881 1.17.847-1.736-.08-2.865-1.291-2.865-1.291zm-.808-4.923s.987-.237 1.572-.188c.586.049 2.032.498 1.312.605-1.718.256-2.884-.417-2.884-.417z"/>
</svg>
