<svg xmlns="http://www.w3.org/2000/svg" viewBox="0 0 36 36">
  <path fill="#99AAB5" d="M10.026 2.323c-.255-.074-.425-.467-.3-.801.142-.38 1.135-1.168 2.87-1.068s4.139 1.335 4.205 4.606c.067 3.271-1.569 4.239-2.203 5.006-.634.768-.634 1.769.868 1.836 1.502.067-.2 3.605-1.368 5.04s-4.339 3.304-5.607 1.535c-1.268-1.769-1.902-2.637-1.969-4.606s.935-3.638 2.069-4.606 2.169-1.135 2.336-2.069c0 0 .567.067.901-.434.334-.501.768-.501 1.202-.567s1.202-.968 1.168-1.635c-.033-.655-.38-1.646-.884-2.069-1.035-.868-2.644.019-3.288-.168z"/>
</svg>
