<svg xmlns="http://www.w3.org/2000/svg" viewBox="0 0 36 36">
  <path fill="#BE1931" d="M8.188 25.532c0 1.421-1.151 2.572-2.573 2.572s-2.573-1.151-2.573-2.572c0-1.422 1.151-2.573 2.573-2.573 1.421 0 2.573 1.151 2.573 2.573zm5-4c0 1.421-1.151 2.572-2.573 2.572s-2.573-1.151-2.573-2.572c0-1.422 1.151-2.573 2.573-2.573 1.421 0 2.573 1.151 2.573 2.573zm6 1c0 1.421-1.151 2.572-2.573 2.572s-2.573-1.151-2.573-2.572c0-1.422 1.151-2.573 2.573-2.573 1.421 0 2.573 1.151 2.573 2.573zm5-4c0 1.421-1.151 2.572-2.573 2.572s-2.573-1.151-2.573-2.572c0-1.422 1.151-2.573 2.573-2.573 1.421 0 2.573 1.151 2.573 2.573zm6 1c0 1.421-1.151 2.572-2.573 2.572s-2.573-1.151-2.573-2.572c0-1.422 1.151-2.573 2.573-2.573 1.421 0 2.573 1.151 2.573 2.573z"/>
</svg>
