<svg xmlns="http://www.w3.org/2000/svg" viewBox="0 0 36 36">
  <path fill="#F4900C" d="M32.096 13.498C27.647 9.24 15.601 4.328 7.775 3.582c-.221-.019-.435.114-.507.329 0 0-4.982 13.827-6.193 17.621C.9 22.08.99 22.79.99 22.829c0 .15.07.293.187.386.086.066.193.102.3.102.039 0 .079-.005.119-.014l30.797-7.747c.186-.047.326-.199.359-.389.06-.331-.015-1.055-.656-1.669z"/>
  <path fill="#F4900C" d="M32.096 13.498C27.647 9.24 15.601 4.328 7.775 3.582c-.221-.019-.435.114-.507.329 0 0-6.278 17.61-6.278 17.918 0 .15.07.293.187.386.086.066.193.102.3.102.039 0 .079-.005.119-.014l30.194-7.739c.185-.047.326-.199.359-.389.06-.331.588-.063-.053-.677z"/>
</svg>
