<svg xmlns="http://www.w3.org/2000/svg" viewBox="0 0 36 36">
  <path fill="#FFCC4D" d="M9.65 20.239l-1.833-2.456 4.458-.527 1.436 1.942 5.584-1.431-.922-1.232 4.218-.499.571.772 5.571-1.456-.029-.039.325-.038 3.613-.944c-.099-.271-.262-.561-.546-.832-.612-.586-1.38-1.184-2.249-1.783l-3.569.355-1.941-2.595 1.416-.167c-3.435-1.761-7.531-3.361-11.415-4.435l1.437 1.944-4.348.432-1.67-2.234 3.527-.417c-1.951-.496-3.83-.857-5.509-1.017-.221-.019-.435.114-.507.329 0 0-1.376 3.586-2.768 7.741l3.453-.24 1.709 2.311-4.539.451-1.022-1.339c-.721 2.154-1.568 4.362-2.15 6.124l2.124 2.709 5.575-1.429zm8.62-10.047l1.842 2.491-4.301.428-1.806-2.415 4.265-.504z"/>
</svg>
