<svg xmlns="http://www.w3.org/2000/svg" viewBox="0 0 36 36">
  <path fill="#F4900C" d="M10.862 17.487c.807-.218 2.42-1.237 4.013-1.456 1.594-.219 3.531.617 4.108.549l2.313-.273c.516-.061 2.829-1.338 4.173-1.526 1.344-.188 3.145.762 3.791.584 0 0 .718.203 0 .294-.718.091-2.601-.645-3.646-.472-1.502.25-2.573 1.112-4.318 1.393-1.052.169-1.792.307-2.421.357-1.164.094-2.6-.779-4.069-.529-1.469.25-2.275 1.243-3.945 1.404-.989.096-.616-.158.001-.325zm-4.32 2.961c1.194-.278 2.57-.742 3.108-.21L6.959 21.27l-2.884.397c-.001.001.092-.666 2.467-1.219zm9.854-2.552c1.489-.356 2.464-.425 2.898-.129l-2.72 1.025-2.864.406c.001 0 .248-.719 2.686-1.302z"/>
  <path fill="#F4900C" d="M25.708 15.583c1.082-.297 2.479-.438 2.833-.354 0 0 2.857-.741 3.991-.871 0 0-2.604.891-3.412 1.1-.808.208-5.901 1.616-5.959 1.35-.057-.266.881-.766 2.547-1.225z"/>
</svg>
