<svg xmlns="http://www.w3.org/2000/svg" viewBox="0 0 36 36">
  <path fill="#F4900C" d="M6.862 11.487c.807-.218 2.419-1.237 4.013-1.456 1.594-.219 3.531.617 4.108.549l2.313-.273c.516-.061 2.829-1.338 4.173-1.526 1.344-.188 3.145.762 3.791.584 0 0 .718.203 0 .294-.718.091-2.601-.645-3.646-.472-1.502.25-2.573 1.113-4.318 1.393-1.052.169-1.792.307-2.421.357-1.164.094-2.6-.779-4.069-.529-1.469.25-2.275 1.243-3.945 1.404-.989.096-.616-.158.001-.325zm1.986 6.173c-.759.09-1.809-.775-3.703-.437-1.895.339-3.195 1.736-3.195 1.736l.122.573s-.48-.337.187-.544c.667-.207 1.366-1.232 2.991-1.407 1.625-.175 2.156.388 3.25.419 1.094.031.348-.34.348-.34zM28 15.235l1.579.092L30 15l-.281.89-1.313.405zM7.125 4.719c1.469-.406 2.426.322 3.489.196 1.063-.126 1.078.167.261.335s-2.86-.545-3.706-.269c-.846.276-.985 1.15-.985 1.15l.14-.874c-.001 0-.163-.272.801-.538zm1.971 9.059c2.06-.33 2.204-.847 3.748-1.154 1.406-.28 2.281.383 3.071.383 1.284 0 .892-.784.46-.6-.906.386-2.734-.712-4.531 0-.917.363-1.339.865-2.748 1.042-1.408.176-.738.448 0 .329zm10.372-1.031c.86-.085 2.188-.882 3.5-1.095 1.312-.214 2.487.5 3.309.419.822-.082.99-.524.348-.459s-2.281-.642-3.875-.33c-1.594.312-2.219.969-3.282 1.125-1.062.155-.644.404 0 .34zM3.262 14.192c.715-.188 1.459.236 2.239-.056.78-.292.832-.636.114-.448s-1.551-.135-2.192.12l-.161.384zm5.269-7.223c1.355-.061 2.104.358 3.067.262.962-.096.559-.341-.144-.302-.704.04-1.722-.429-3.182-.148s-1.387.572-2.517.817l-.255.36s.51-.105 1.083-.36c.573-.254 1.2-.596 1.948-.629zm7.031-.132c.887-.053 1.633-.706 2.582-.771l-.551-.19s-1.126.588-2.032.653c-.905.065-.937.364.001.308z"/>
</svg>
