<svg xmlns="http://www.w3.org/2000/svg" viewBox="0 0 36 36">
  <path fill="#FFAD1F" d="M33.677 1.413c-.329-.014-.811.026-1.254.299l-.004.001c-.003.002-.005.005-.008.006-.328.206-.631.541-.827 1.078-.366-.007-.698-.044-.991-.109C31.225.868 32.577.81 33.185.885c-.14-.119-.291-.222-.453-.311-.774.042-1.879.409-2.435 2.035-.274-.088-.507-.206-.693-.353.008-.012.015-.024.02-.038C30.129.687 31.467.342 31.878.271c-.151-.026-.305-.047-.463-.047-.161 0-.317.021-.471.047-.569.281-1.229.799-1.575 1.755-.174-.215-.233-.416-.256-.549-.076.116-.141.239-.198.366.065.154.153.319.313.486.484.505 1.298.765 2.415.777.098.341.148.655.163.94-1.782.064-2.684-.668-3.121-1.257-.004.062-.019.122-.019.185 0 .096.019.188.028.281.525.549 1.419 1.1 2.905 1.1.068 0 .139-.003.209-.005-.011.295-.058.554-.125.778-1.464-.039-2.28-.518-2.735-.962.134.276.305.532.519.747.507.27 1.178.482 2.114.502-.048.116-.101.217-.152.307.122-.001.239-.02.357-.036.28-.573.51-1.479.132-2.732l-.03-.094c.139-.361.333-.613.549-.786.682 1.388.321 2.7-.016 3.452.145-.057.282-.129.414-.209.307-.84.521-2.095-.141-3.411.214-.111.435-.164.633-.185.001.002.001.005.003.007.655 1.021.369 2.297-.009 3.221.233-.225.421-.492.564-.787.221-.937.163-1.777-.209-2.45.073.004.129.012.18.019-.055-.109-.11-.218-.179-.318z"/>
</svg>
