<svg xmlns="http://www.w3.org/2000/svg" viewBox="0 0 36 36">
  <path fill="#D99E82" d="M32.202 15.654c-1.253-3.752-7.214-3.628-13.997-2.765-3.055.389-3.64-4.453-3.64-5.286 0-3.626-3.244-5.455-6.496-4.229-.779.293-1.402 1.33-1.754 1.872-1.977 3.037-4.658.015-4.917 2.822-.313 3.395 1.721 4.534 5.051 4.821 1.892.163 3.459 1.095 3.871 5.044.154 1.472-.295 5.644 2.388 7.076.78 2.959 1.836 6.615 2.25 8.475-2.252.476-1.341 2.179-1.341 2.179s3.151-.043 3.836-.043c.814 0 .191-5.976-.935-9.787 4.764.043 7.828-1.337 8.799-1.762 1.028 2.96 4.152 3.633 4.851 4.892.433.78 1.878 3.383 2.001 4.496-1.602.52-1.091 1.732-.909 2.122 1.083-.043 3.22-.043 3.498-.043 1.11 0-1.137-6.904-2.083-8.713-1.082-2.071.781-7.419-.473-11.171z"/>
</svg>
