<svg xmlns="http://www.w3.org/2000/svg" viewBox="0 0 36 36">
  <path fill="#F4C7B5" d="M16.266 24.464c.044.371.141.891.253 1.369 4.764.043 7.828-1.337 8.799-1.762-.215-.78-.23-1.27-.171-1.538-3.394.557-4.548 2.205-8.881 1.931zM6.449 12.889c1.892.163 2.425 1.069 2.838 5.018.154 1.472.739 5.67 3.421 7.102-.72-2.788-1.959-12.388-6.259-12.12z"/>
  <path fill="#F4C7B5" d="M3.153 6.665c-2.793 0-1.909.526-2.002 1.692-.093 1.166-.074 2.976.776 3.929 1.127 1.262 3.858 1.266 5.215.277s-.424-5.898-3.989-5.898z"/>
</svg>
