<svg xmlns="http://www.w3.org/2000/svg" viewBox="0 0 36 36">
  <path fill="#CCD6DD" d="M28.048 30.27c-.073 0-.142-.041-.175-.111-.046-.097-.005-.213.092-.258l.342-.162c.097-.046.212-.005.259.092.046.097.005.213-.092.258l-.342.162c-.028.013-.056.019-.084.019zm.218.625c-.082 0-.158-.053-.185-.135-.032-.102.024-.211.126-.244l.38-.121c.097-.033.21.023.243.126.032.102-.024.211-.126.244l-.38.121c-.018.007-.038.009-.058.009zm.184.637c-.091 0-.171-.063-.19-.155-.021-.105.046-.207.152-.229l.356-.072c.111-.023.207.047.229.152.021.105-.046.207-.152.229l-.356.072-.039.003zm2.776-4.13c-.006-.028-.027-.137-.101-.27-.025-.045-.082-.059-.14-.066-.072-.009-.6-.085-.61.022 0 0-.003.159-.077.268-.075.109-.127.377-.146.577-.019.199-.105.951-.085 1.478.02.528.183 1.482.19 1.8.008.318 0 .814-.068 1.18s-.14.692-.196.893c-.072.259-.168.471-.279.619 0 0 .417-.028.736-.645.252-.487.393-.955.446-1.411.004-.035.113-1.252.165-1.86.038-.445.102-1.155.102-1.155.081-.841.1-1.269.063-1.43z"/>
</svg>
