<svg xmlns="http://www.w3.org/2000/svg" viewBox="0 0 36 36">
  <path fill="#FA743E" d="M13.792 35.149c.102-.243.318-.694.341-.955.023-.261.034-.354.24-.426.347-.121 1.436-.087 1.623-.016.186.071.189.263.216.424s.114.424.227.64c.114.216.409.697.261 1.034-.062.14-.405.138-1.507.138s-1.417-.026-1.492-.118-.011-.477.091-.721zm8.356 0c-.102-.243-.318-.694-.341-.955-.023-.261-.034-.354-.24-.426-.347-.121-1.436-.087-1.623-.016-.187.071-.189.263-.216.424s-.114.424-.227.64-.409.697-.261 1.034c.062.14.405.138 1.507.138 1.102 0 1.417-.026 1.492-.118s.011-.477-.091-.721z"/>
</svg>
