<svg xmlns="http://www.w3.org/2000/svg" viewBox="0 0 36 36">
  <path fill="#C1694F" d="M2 15.375S0 11.75 0 7.75s3.786-3.542 5-2.438c1.292 1.174 3 4.938 3 4.938l-1 .688s-.833-1.51-1.833-2.823-2.75-.943-2.75 1.057S4 15 4 15l-2 .375zm32 0s2-3.625 2-7.625-3.786-3.542-5-2.438c-1.292 1.174-3 4.938-3 4.938l1 .688s.833-1.51 1.833-2.823 2.75-.943 2.75 1.057S32 15 32 15l2 .375z"/>
  <path fill="#C1694F" d="M33.238 16.762C33.238 21.496 30.381 32 18 32S2.762 21.496 2.762 16.762C2.762 13.905 8.532 12 18 12s15.238 1.905 15.238 4.762z"/>
</svg>
