<svg xmlns="http://www.w3.org/2000/svg" viewBox="0 0 36 36">
  <path d="M17 27.99c-3.646-.051-6.853-.387-9.415-1.138 1.007 1.094 2.262 2.045 3.784 2.765 1.717.226 3.608.341 5.631.37V27.99zm2 0v1.998c2.022-.029 3.913-.143 5.631-.37 1.522-.721 2.777-1.671 3.784-2.765-2.562.749-5.769 1.085-9.415 1.137zm-9.87-4.766c-1.77-.38-3.312-.906-4.55-1.628.282.861.648 1.728 1.11 2.576 1.299.572 2.848.984 4.583 1.276-.451-.727-.828-1.475-1.143-2.224zM18 26c1.875 0 3.64-.071 5.275-.226.458-.697.845-1.417 1.173-2.141-1.953.249-4.11.367-6.448.367-2.442 0-4.684-.129-6.703-.403.327.727.716 1.448 1.174 2.148 1.705.174 3.555.255 5.529.255zm8.61-2.724c-.317.746-.695 1.492-1.147 2.215 1.844-.293 3.483-.718 4.848-1.32.462-.848.828-1.715 1.11-2.576-1.299.758-2.932 1.299-4.811 1.681z" fill="#D99E82"/>
</svg>
