<svg xmlns="http://www.w3.org/2000/svg" viewBox="0 0 36 36">
  <path d="M17 12.594c-3.646.051-6.853.387-9.415 1.138 1.007-1.094 2.262-2.045 3.784-2.765 1.717-.226 3.608-.341 5.631-.37v1.997zm2 0v-1.998c2.022.029 3.913.143 5.631.37 1.522.721 2.777 1.671 3.784 2.765-2.562-.75-5.769-1.086-9.415-1.137zm-9.822 4.662c.306-.714.665-1.427 1.095-2.12-1.716.288-3.247.695-4.537 1.257.99.332 2.15.623 3.442.863zM18 14.584c1.875 0 3.64.071 5.275.226.458.697.845 1.417 1.173 2.141-1.953-.249-4.109-.367-6.448-.367-2.442 0-4.684.129-6.703.403.327-.727.716-1.448 1.174-2.148 1.705-.175 3.555-.255 5.529-.255zm7.463.508c.449.719.825 1.46 1.14 2.201 1.378-.247 2.617-.55 3.661-.9-1.356-.591-2.977-1.011-4.801-1.301z" fill="#8A4633"/>
</svg>
