<svg xmlns="http://www.w3.org/2000/svg" viewBox="0 0 36 36">
  <path fill="#99AAB5" d="M27 20c0 .553-.447 1-1 1h-8c-.552 0-1-.447-1-1 0-.553.448-1 1-1h8c.553 0 1 .447 1 1zm0-4c0 .553-.447 1-1 1h-8c-.552 0-1-.447-1-1 0-.553.448-1 1-1h8c.553 0 1 .447 1 1zm0-4c0 .553-.447 1-1 1h-8c-.552 0-1-.447-1-1 0-.553.448-1 1-1h8c.553 0 1 .447 1 1zm0 12c0 .553-.447 1-1 1H4c-.552 0-1-.447-1-1 0-.553.448-1 1-1h22c.553 0 1 .447 1 1zm0 4c0 .553-.447 1-1 1H4c-.552 0-1-.447-1-1 0-.553.448-1 1-1h22c.553 0 1 .447 1 1zm0 4c0 .553-.447 1-1 1H4c-.552 0-1-.447-1-1 0-.553.448-1 1-1h22c.553 0 1 .447 1 1zM25 9s2 0 2-2V5s0-2-2-2H5S3 3 3 5v2s0 2 2 2h20z"/>
</svg>
