<svg xmlns="http://www.w3.org/2000/svg" viewBox="0 0 36 36">
  <path fill="#C1694F" d="M33 24.671v-2.347H3v2.34c.32-.133.625-.37.625-.37s.491.458.982.542c.491.083.848-.583.848-.583s.357.5 1.027.5c.67 0 .804-.5.804-.5s.179.5.804.542c.625.042.848-.5.848-.5s.134.458.893.5c.759.042.803-.542.803-.542s.223.417.759.458c.536.042.848-.417.848-.417s.357.5.938.5c.58 0 .848-.417.848-.417s.089.542.67.542c.58 0 .893-.583.893-.583s0 .542.67.542.893-.5.893-.5 0 .542.625.542.982-.542.982-.542.045.583.804.542c.759-.042.938-.542.938-.542s.223.5.759.542c.536.042.803-.542.803-.542s.045.583.714.5c.67-.083.803-.542.803-.542s.089.667.759.625c.67-.042.848-.583.848-.583s.179.583.803.583c.625 0 .759-.542.759-.542s0 .583.714.542c.714-.042.982-.583.982-.583s.223.542.938.542.759-.5.759-.5.223.5.848.458c.625-.042.759-.458.759-.458s.357.458.804.458c.184-.001.329-.099.446-.207z"/>
</svg>
