<svg xmlns="http://www.w3.org/2000/svg" viewBox="0 0 36 36">
  <path fill="#FFD983" d="M18.242 4.234c-.177-.129-.4-.132-.58-.007-1.179.823-5.745 4.565-10.379 9.037-3.675 3.546-6.071 7.361-7.162 8.794-.284.374-.033.928.416.928h34.928c.461 0 .707-.584.398-.951-1.562-1.856-5.152-6.882-8.193-9.703-3.573-3.313-8.235-7.228-9.428-8.098z"/>
  <path fill="#FFD983" d="M16.997 5.203s-1.003-1.274-.821-1.813c.148-.437.775-.343.867 0 0 0 .182-.784.593-.882.41-.098.593.735.593.735s.365-.735.775-.588c.41.147.137.931.137.931s.319-.539.775-.196-1.231 2.058-1.231 2.058-1.368.294-1.688-.245zm-15.415 17.1c-.228.735.319 1.225.73 1.274s1.049-.539 1.049-.539.502.539 1.003.637.867-.686.867-.686.365.588 1.049.588.821-.588.821-.588.182.588.821.637.867-.588.867-.588.137.539.912.588c.775.049.821-.637.821-.637s.228.49.775.539c.547.049.866-.49.866-.49s.365.588.958.588.867-.49.867-.49.091.637.684.637c.593 0 .912-.686.912-.686s0 .637.684.637.912-.588.912-.588 0 .637.639.637 1.003-.637 1.003-.637.046.686.821.637c.775-.049.958-.637.958-.637s.228.588.775.637c.547.049.821-.637.821-.637s.046.686.73.588c.684-.098.821-.637.821-.637s.091.784.775.735c.684-.049.866-.686.866-.686s.182.686.821.686.775-.637.775-.637 0 .686.73.637c.73-.049 1.003-.686 1.003-.686s.228.637.958.637.775-.588.775-.588.228.588.867.539.775-.539.775-.539.365.539.821.539.73-.637.73-.637.274.735.912.588c.639-.147.456-.931.456-.931l-1.14-1.029-29.052-.098-3.238.686z"/>
</svg>
