<svg xmlns="http://www.w3.org/2000/svg" viewBox="0 0 36 36">
  <path fill="#FFAC33" d="M16.085 7.064s-6.522 4.997-8.711 7.349c-2.189 2.352-4.424 6.909-4.424 6.909s4.15-5.586 5.245-6.762c1.095-1.175 7.89-7.496 7.89-7.496zm5.519 1.568s2.417 2.94 3.512 4.115c1.095 1.176 4.834 8.33 4.834 8.33s-3.512-5.293-4.743-7.154c-.897-1.355-3.603-5.291-3.603-5.291zm-6.112.637s-2.691 3.038-4.014 5.291C10.174 16.785 9.427 20 9.427 20s2.957-5.034 3.74-6.468l2.325-4.263zm3.649.882s.224 3.052.684 5.634c.41 2.303 1.095 5.929 1.095 5.929s-.319-4.362-.684-6.86c-.34-2.323-1.095-4.703-1.095-4.703z"/>
</svg>
