<svg xmlns="http://www.w3.org/2000/svg" viewBox="0 0 36 36">
  <path fill="#FFAC33" d="M22.88 33.097c-.098-.18-.25-.302-.418-.391C20.865 31 22 28.999 22 28.999c0-.553 1-2 0-2l-1 1c-1 1-1 4-1 4h-2c-.553 0-1 .447-1 1 0 .553.447 1 1 1h1.107l-.222.12c-.486.263-.667.869-.404 1.356.263.486.869.667 1.356.404l2.639-1.427c.486-.263.667-.869.404-1.355zm-7 0c-.097-.18-.25-.302-.417-.391C13.866 31 15 28.999 15 28.999c0-.553 1-2 0-2l-1 1c-1 1-1 4-1 4h-2c-.553 0-1 .447-1 1 0 .553.447 1 1 1h1.108l-.222.12c-.486.263-.667.869-.404 1.356.263.486.869.667 1.356.404l2.639-1.427c.485-.263.666-.869.403-1.355z"/>
</svg>
