<svg xmlns="http://www.w3.org/2000/svg" viewBox="0 0 36 36">
  <path fill="#66757F" d="M17.984 9.4c-1.626.002-3.174.297-4.585.829 3.914-.229 6.351-.042 9.602 1.552-.923-1.515-3.392-2.381-5.017-2.381zm17.942 5.435c-.086-1.278-.254-2.456-.52-3.545-6.25 1.272-3.404 3.545.52 3.545zm-1.985-7.223c-.676-1.154-1.541-2.205-2.623-3.186-7.162 3.574-3.006 4.73 2.623 3.186zm1.212 14.473c-3.402-1.085-4.247.821-2.215 3.415-2.5-2.344-4.031-1.062-3.344 2-1.469-2.188-2.969-.208-3.594.749 3.761.038 7.52-1.844 9.153-6.164zM31.315 4.424C30.378 3.574 29.286 2.771 28 2c-7 3.688-2 4.406 3.315 2.424zm3.838 17.66C35.691 20.66 36 18.973 36 17c0-.755-.027-1.471-.074-2.163-4.61.382-3.801 2.882.006 3.351-3.557.062-4.181 2.25-.779 3.896zm-1.21-14.469c-6.427 2.385-3.693 4.291 1.462 3.673-.328-1.344-.808-2.557-1.462-3.673z"/>
</svg>
