<svg xmlns="http://www.w3.org/2000/svg" viewBox="0 0 36 36">
  <path fill="#FFD983" d="M30.929 11.07c.043-.184.071-.373.071-.57 0-.674-.27-1.284-.704-1.733.422-.266.704-.732.704-1.267 0-.829-.672-1.5-1.5-1.5-.197 0-.385.04-.558.11-.139-.513-.539-.913-1.052-1.052.07-.173.11-.36.11-.558 0-.829-.672-1.5-1.5-1.5-.191 0-.372.039-.54.104C25.769 1.913 24.745 1 23.5 1 22.119 1 21 2.119 21 3.5c0 .187.024.368.063.544-.64.113-1.19.469-1.563.969C19.044 4.402 18.322 4 17.5 4 16.119 4 15 5.119 15 6.5l.001.012c-.304-.23-.657-.395-1.047-.466C13.74 4.882 12.725 4 11.5 4c-1.228 0-2.245.887-2.455 2.055C8.866 6.027 8.687 6 8.5 6 6.567 6 5 7.567 5 9.5c0 .545.135 1.054.357 1.514C4.597 11.087 4 11.72 4 12.5c0 .829.672 1.5 1.5 1.5h25c.828 0 1.5-.671 1.5-1.5 0-.678-.453-1.245-1.071-1.43z"/>
</svg>
