<svg xmlns="http://www.w3.org/2000/svg" viewBox="0 0 36 36">
  <g fill="#FFAC33">
    <circle cx="28" cy="8" r="1"/>
    <circle cx="24.5" cy="5.5" r="1.5"/>
    <circle cx="12" cy="7" r="1"/>
    <path d="M31 12.5c0-.828-.672-1.5-1.5-1.5-.658 0-1.212.427-1.414 1.017-.029-.002-.055-.017-.086-.017-.552 0-1 .448-1 1h3.908c.056-.157.092-.324.092-.5zM9.5 12c.198 0 .385.04.558.11.172-.638.75-1.11 1.442-1.11.828 0 1.5.671 1.5 1.5 0 .176-.036.343-.092.5h4.184c-.056-.157-.092-.324-.092-.5 0-.829.672-1.5 1.5-1.5.237 0 .459.06.658.158-.098-.199-.158-.421-.158-.658 0-.829.672-1.5 1.5-1.5s1.5.671 1.5 1.5c0 .198-.04.385-.11.558.638.172 1.11.749 1.11 1.442 0 .176-.036.343-.092.5h2.968l-.566-.5c.42-.367.69-.899.69-1.5 0-1.104-.896-2-2-2-.378 0-.728.111-1.03.294.015-.097.03-.193.03-.294 0-1.104-.896-2-2-2-.808 0-1.501.482-1.816 1.172C18.978 8.066 18.748 8 18.5 8c-.828 0-1.5.672-1.5 1.5 0 .198.04.385.11.558-.638.173-1.11.75-1.11 1.442 0 .198.04.385.11.558-.23.062-.438.177-.61.332-.266-.24-.614-.39-1-.39-.237 0-.459.06-.659.159.099-.2.159-.422.159-.659 0-.828-.672-1.5-1.5-1.5-.198 0-.385.04-.558.11C11.77 9.472 11.192 9 10.5 9 9.672 9 9 9.672 9 10.5c0 .198.04.385.11.558-.23.062-.438.177-.61.332-.266-.24-.614-.39-1-.39-.828 0-1.5.672-1.5 1.5 0 .176.036.343.092.5h2c.207-.581.756-1 1.408-1z"/>
  </g>
</svg>
