<svg xmlns="http://www.w3.org/2000/svg" viewBox="0 0 36 36">
  <path fill="#FADA10" d="M11.5 18.766l-.156-.891-.828.266.25 1.203.188.047s.016.969-.719 1.719-2.031.75-2.031.75-.672.484-1.75.484c-1.078 0-1.75-.484-1.75-.484s-1.297 0-2.031-.75c-.734-.75-.719-1.719-.719-1.719l.188-.047.25-1.203-.828-.266-.156.891-.297.031s.016 1.75.625 2.672c.609.922 1.969 1.203 1.969 1.203s.016.109.047.219c.891.516 2.703.547 2.703.547s1.812-.031 2.703-.547c.031-.109.047-.219.047-.219s1.359-.281 1.969-1.203c.609-.922.625-2.672.625-2.672l-.299-.031z"/>
</svg>
