<svg xmlns="http://www.w3.org/2000/svg" viewBox="0 0 36 36" xml:space="preserve">
  <path fill="#3B94D9" d="M14.813 18.923a.922.922 0 0 1-.081-.61 1.02 1.02 0 0 1 .218-.421c-1.292.314-2.542.098-3.472-.744a.093.093 0 0 0-.151.098c.119.369.274.685.444.977a23.2 23.2 0 0 0 3.042.7zm4.01-3.99a7.864 7.864 0 0 0-1.026-2.303.044.044 0 0 0-.055-.016.043.043 0 0 0-.023.052c.03.097.057.193.082.29.578 2.277-.323 3.826-1.876 4.579.005.002.01.001.014.003.845.29 1.727.441 2.623.477.438-.804.579-1.829.261-3.082z"/>
</svg>
