<svg xmlns="http://www.w3.org/2000/svg" viewBox="0 0 36 36" xml:space="preserve">
  <path fill="#A57F5A" d="M33.182 14.629c-.362-.516-.971-2.118-1.403-1.877a1.01 1.01 0 0 0-.482-.144c-.069 0-.143.027-.216.044-.688-1.375-1.999-2.436-3.602-3.009-.265-.095-.493-.075-.679.015a55.723 55.723 0 0 1-.603-.451c-.512-.39-1.01.478-.505.863 1.13.862 1.668.95 1.722 2.407.224 6.007-.481 10.022-9.002 9.794-2.399-.064-5.718-1.876-8.156-3.884a7.352 7.352 0 0 1-.706-1.262c-.215-.508-.956-.61-1.387-.364-.054.031-.083.076-.127.112a9.476 9.476 0 0 0-1.866-1.036c-.506-.211-1.115.228-1.247.708-.161.584.201 1.036.708 1.247 3.812 1.589 1.494 3.724 8.324 5.482 1.264.325.725 2.279-.539 1.954-3.22-.829-10.199-5.75-10.199-5.75.086.096.847 10.93 14.543 11.461.372.014 12.158.67 15.078-10.759.443-1.737 1.813-3.455.344-5.551z"/>
</svg>
