<svg xmlns="http://www.w3.org/2000/svg" viewBox="0 0 36 36">
  <path fill="#D1D3D4" d="M26.636 9.045c.919-.123 1.836-.207 2.749-.207.271 0 .508-.123.679-.311-.137-.535-.329-1.05-.568-1.542-.038-.005-.072-.022-.111-.022-3.784 0-7.613.961-11.383 2.854.186-.057.294-.087.294-.087s1.088.287 2.585.84c.87-.351 1.741-.631 2.612-.876.02.008.034.025.055.032 2.224.752 4.652 2.241 6.505 3.959.112-.787.188-1.578.226-2.274-1.127-.912-2.374-1.708-3.643-2.366zM6.437 12.948c2.679-1.943 11.569-7.771 21.813-7.852-.579-.677-1.257-1.281-2.015-1.796-8.951.674-16.605 5.197-19.946 7.475.013.616.061 1.371.148 2.173zm.095-4.434C9.839 6.366 16.13 3.25 23.125 2.016c-1.061-.319-2.182-.319-3.328-.319h-2.355C13.805 3.13 10.564 4.21 8.068 5.605c-.715.918-1.247 1.779-1.536 2.909z"/>
</svg>
