<svg xmlns="http://www.w3.org/2000/svg" viewBox="0 0 36 36">
  <path fill="#CCD6DD" d="M28.337 30.337c-.075 0-.146-.042-.181-.115-.048-.1-.005-.219.095-.266l.319-.151c.104-.048.22-.004.267.095.047.1.005.219-.095.266l-.319.151c-.028.014-.058.02-.086.02zm.204.584c-.085 0-.163-.054-.19-.139-.034-.105.024-.218.13-.251l.354-.113c.1-.035.217.024.251.13.034.105-.024.218-.13.251l-.354.113c-.02.006-.04.009-.061.009zm.172.595c-.094 0-.177-.065-.196-.16-.021-.108.048-.214.156-.236l.332-.068c.114-.023.214.048.236.156.021.108-.048.214-.156.236l-.332.068c-.014.002-.027.004-.04.004zm2.59-3.873c-.006-.027-.025-.128-.095-.252-.023-.042-.077-.055-.131-.061-.067-.009-.56-.08-.569.02 0 0-.002.148-.072.25-.07.102-.118.352-.136.539-.018.186-.098.887-.08 1.379.018.492.17 1.383.178 1.68.007.297 0 .759-.063 1.101-.063.342-.131.646-.183.834-.067.242-.157.439-.26.578 0 0 .389-.026.687-.602.235-.454.367-.891.416-1.317.004-.032.105-1.168.154-1.736.035-.415.095-1.078.095-1.078.075-.786.093-1.185.059-1.335z"/>
</svg>
