<svg xmlns="http://www.w3.org/2000/svg" viewBox="0 0 36 36">
  <path fill="#FFAC33" d="M18.112 12.01l-1.833-2.954s-5.064 1.243-6.58-1.649C8.183 4.516 12.047 1.826 14.645.912c2.598-.915 6.773-2.009 9.332 3.261 2.37 4.882-.68 9.096-1.57 10.228 0 0-1.297-1.013-1.671-1.751-.374-.739.172-2.612-.65-3.196-.781-.554-2.468.014-1.974 2.556z"/>
  <path fill="#FFAC33" d="M23.306 5.242c-.682-1.427 1.115-3.782 3.234-3.566 2.12.215 4.612 2.319 3.576 5.085-.989 2.645-.247 4.682 1.801 4.613 0 0-1.172 1.615-3.168.44-2.083-1.225-.903-5.099-2.401-5.876-.752-.391-1.749-.505-2.151-.034-.399.47-.891-.662-.891-.662z"/>
</svg>
