<svg xmlns="http://www.w3.org/2000/svg" viewBox="0 0 36 36">
  <path fill="#D2A077" d="M5.138 27.094s-.301-2.733 2.365-3.005c1.566-.16 3.676-.418 4.475-.511 1.374-.16 1.662-1.343 1.311-2.365-.347-1.009-2.493-6.297-3.005-7.64-.38-.997-1.364-.659-1.726.064-.669 1.337-1.828 3.845-1.982 4.251-.349.924.735 1.566 1.247.639.346-.627 1.63-3.644 1.63-3.644s2.397 5.786 2.653 6.521c.223.64-.064 1.023-.703 1.119s-3.485.441-4.347.575c-1.439.224-2.526 1.663-1.918 3.996z"/>
  <path fill="#D2A077" d="M7.695 17.601s1.023.448 1.822.735c.799.288.511 1.406-.32 1.183-.831-.224-2.174-.575-2.174-.575l.672-1.343zM4.179 9.45c.389-.829 1.311-.352 1.087.32-.224.671-3.612 8.758-3.932 9.589s-.831.639-.575-.224 2.94-8.662 3.42-9.685z"/>
  <path fill="#D2A077" d="M9.453 14.884c-.391 1.397.054 3.091.441 3.834l-2.436-.891 1.995-2.943z"/>
</svg>
