<svg xmlns="http://www.w3.org/2000/svg" viewBox="0 0 36 36">
  <path fill="#60379A" d="M31.906 6.062c.531 1.312.848 3.71.595 5.318-.15-3.923-3.188-6.581-4.376-7.193-2.202-1.137-4.372-.979-6.799-.772.111.168.403.814.32 1.547-.479-.875-1.604-1.42-2.333-1.271-1.36.277-2.561.677-3.475 1.156-.504.102-1.249.413-2.372 1.101-1.911 1.171-4.175 4.338-6.737 3.511 1.042 2.5 3.631 1.845 3.631 1.845 1.207-1.95 4.067-3.779 6.168-4.452 7.619-1.745 12.614 3.439 15.431 9.398.768 1.625 2.611 7.132 4.041 10.292V10.956c-.749-1.038-1.281-3.018-4.094-4.894z"/>
</svg>
