<svg xmlns="http://www.w3.org/2000/svg" viewBox="0 0 36 36">
  <path fill="#C43512" d="M4.677 2.25l.009-.025c-.301-.174-.594-.341-.878-.5-.016.038-.022.069-.041.11-.112.243-.256.484-.429.716-.166.224-.349.424-.541.595-.02.018-.036.026-.056.043.238.22.489.446.745.676.234-.21.456-.449.654-.717.214-.287.395-.589.537-.898zm2.275 2.945c.306-.41.521-.822.66-1.212-.292-.181-.584-.36-.876-.538-.076.298-.247.699-.586 1.152-.31.417-.613.681-.864.845.259.223.52.445.779.665.314-.244.619-.552.887-.912zM9.87 7.32c.365-.49.609-.983.734-1.437l-.906-.586c-.023.296-.172.81-.631 1.425-.412.554-.821.847-1.1.978l.814.671c.381-.256.761-.611 1.089-1.051z"/>
</svg>
