<svg xmlns="http://www.w3.org/2000/svg" viewBox="0 0 36 36">
  <path fill="#AF7E57" d="M18.032 10.676c-.037.617.172 1.537 1.603 1.665 1.43.128 2.808-.164 3.392-.377.584-.214.637.836.892 1.807.256.974.44 1.739.407 1.947-.054.352-.726 1.071-.388 1.647.338.576.848 1.115 1.404.854s1.009-.557 1.136-.889c.127-.333-.626-1.25-.674-1.525s-.081-3.894-.146-4.3c-.08-.496-.172-1.177-1.01-1.395s-4.153-.593-4.985-.688c-.953-.109-1.582.436-1.631 1.254z"/>
  <path fill="#AF7E57" d="M18.885 6.217c.253-.418.429-.895.475-1.466C19.525 2.71 18.155.934 16.3.784c-1.855-.15-4.184 1.475-3.897 3.502.285 2.013 1.746 4.863 3.38 4.169.431-.183.861-.38 1.267-.604.205.194.429 1.001.435 1.713.012 1.814 2.507 1.72 2.492-.097-.013-1.437-1.002-2.239-1.092-3.25z"/>
</svg>
