<svg xmlns="http://www.w3.org/2000/svg" viewBox="0 0 36 36">
  <path fill="#77B255" d="M12.374 5.251c-2.068.017-4.209-.435-5.523 2.099-1.404 2.709-2.065 8.579.776 9.664 2.479.947 7.933-1.187 13.866 1.187 5.933 2.373 8.306 16.612 13.015 16.63 1.224.005 1.206 1.123.001 1.132-5.914.045-8.509-5.897-9.509-5.897 0 0 1 5.934 0 5.934h-4c-1 0 0-3.081 0-4.268v-1.667s-1.593 1.218-5.936 1.218C11.781 31.284 9 30.066 9 30.066S10 36 9 36H5.255c-1.678 0 .166-4.013 0-5.934-.102-1.182-.51-4.757-1.224-5.933-1.726-2.847-2.763-11.521-1.929-15.285.781-3.526 3.122-6.633 4.675-7.51C8.296.479 9.64-.162 12.968.373c1.775.285 3.591 2.922 2.89 4.274-.421.81-1.94.591-3.484.604z"/>
</svg>
