<svg xmlns="http://www.w3.org/2000/svg" viewBox="0 0 36 36">
  <path fill="#65471B" d="M8.265 25.234c-.215.215-.525.33-.849.283-.547-.078-.927-.584-.848-1.131.025-.176.543-3.63 2.774-6.922-2.627.873-4.589 2.796-4.614 2.821-.391.389-1.024.388-1.414-.003-.39-.39-.39-1.022 0-1.412.156-.156 3.882-3.828 8.485-3.828.405 0 .769.243.924.617.155.374.069.804-.217 1.09-3.262 3.262-3.953 7.874-3.96 7.919-.031.224-.134.419-.281.566zm16.968-16.97c-.147.147-.341.25-.563.282-.047.007-4.676.715-7.921 3.96-.286.286-.716.372-1.09.217-.374-.155-.617-.519-.617-.924 0-4.604 3.672-8.329 3.828-8.485.39-.39 1.022-.39 1.412 0 .391.389.392 1.023.003 1.413-.026.026-1.949 1.987-2.822 4.614 3.292-2.231 6.745-2.749 6.921-2.774.546-.078 1.052.3 1.131.847.049.324-.066.635-.282.85z"/>
</svg>
