<svg xmlns="http://www.w3.org/2000/svg" viewBox="0 0 36 36">
  <path fill="#963B22" d="M20.825 2.026c-1.061-1.242-2.52-1.757-5.019-.791-2.183.844-1.481 2.579-.972 2.282 1.402-.817 2.332-.119 3.046 1.021.208-.56 1.122-.904 1.307-.085.208.921-.647 1.322-.533 1.573.038.084-.043-.076 0 0 .547.96 1.437 1.262 1.437 1.262s.337.132.912-1.001.876-3.028-.178-4.261z"/>
  <path fill="#963B22" d="M20.251 3.332c2.163.467 1.275 3.839 1.487 5.08.261 1.528 1.761 1.582 1.761 1.582s-.247-1.064-.116-2.177c.183-1.543 1.189-2.789.127-4.296-1.355-1.924-4.604-.479-3.259-.189z"/>
</svg>
