<svg xmlns="http://www.w3.org/2000/svg" viewBox="0 0 36 36">
  <path fill="#1C6399" d="M32.67 26.978c-.133.007-.238.02-.315.037l-1.55.085c-.078.002-.137.069-.131.147.017.225.309.899.018 1.424-.195.351-.656.495-.688.679-.01.058.032.112.091.118 0 0 .284-.012.532.003.217.1.626.182.836.408.063.148.242.283.364.684.072.239.412 1.33.412 1.33.081.278.189.345.236.494.095.306.263 1.127.346 1.387.083.26.28.37.433.391.152.02.239-.016.239-.016s.385-.362.64-2.01c.15-.967.095-4.904.095-4.904l-1.558-.257z"/>
</svg>
