<svg xmlns="http://www.w3.org/2000/svg" viewBox="0 0 36 36">
  <path fill="#60352A" d="M23.453 1.588C22.574.386 21.283-.183 18.944.523c-2.044.617-1.525 2.243-1.042 2.008 1.331-.647 2.128.052 2.699 1.138.228-.495 1.083-.745 1.194.013.126.852-.68 1.158-.593 1.394.029.079-.034-.072 0 0 .431.911 1.22 1.246 1.22 1.246s.297.144.898-.847 1.005-2.693.133-3.887z"/>
  <path fill="#60352A" d="M22.934 2.681c1.968.317 1.157 2.559 1.358 3.601.247 1.283 1.436 1.361 1.436 1.361s-.463-.666-.35-1.611c.156-1.312 1.379-2.377.405-3.613-1.244-1.58-4.072.065-2.849.262z"/>
</svg>
