<svg xmlns="http://www.w3.org/2000/svg" viewBox="0 0 36 36">
  <g fill="#DD2E44">
    <path d="M13.465 27.092l10.824.95c.274.024.518-.181.542-.455.024-.274-.181-.518-.455-.542l-10.824-.95c-.274-.024-.518.181-.542.455-.024.274.181.518.455.542z"/>
    <path d="M24.288 28.041c-.274-.024-.478-.268-.455-.542l.436-4.981c.024-.274.268-.478.542-.455.274.024.478.268.455.542l-.436 4.981c-.024.275-.268.479-.542.455zm-10.738-7.58c-.274-.024-.518.181-.542.455l-1.015 11.597c-.024.274.181.518.455.542.274.024.518-.181.542-.455l1.015-11.597c.023-.274-.181-.518-.455-.542z"/>
  </g>
</svg>
