<svg xmlns="http://www.w3.org/2000/svg" viewBox="0 0 36 36">
  <path fill="#C7521E" d="M11.784 23.477v-.521l-.292-.292h-.063c-.086-.435-.229-1.313-.229-2.337 0-.584-.292-.584-.292 0 0 1.023-.143 1.902-.229 2.337h-.063l-.292.292v.521c-.465.474-.293 1.523-.293 1.523h2.045s.172-1.049-.292-1.523zm13.906 0v-.521l-.292-.292h-.063c-.086-.435-.229-1.313-.229-2.337 0-.584-.292-.584-.292 0 0 1.023-.143 1.902-.229 2.337h-.063l-.292.292v.521c-.465.474-.292 1.523-.292 1.523h2.045c-.001 0 .171-1.049-.293-1.523zm4 4v-.521l-.292-.292h-.063c-.086-.435-.229-1.313-.229-2.337 0-.584-.292-.584-.292 0 0 1.023-.143 1.902-.229 2.337h-.063l-.292.292v.521c-.465.474-.292 1.523-.292 1.523h2.045c-.001 0 .171-1.049-.293-1.523zm4 5v-.521l-.292-.292h-.063c-.086-.435-.229-1.313-.229-2.337 0-.584-.292-.584-.292 0 0 1.023-.143 1.902-.229 2.337h-.063l-.292.292v.521c-.465.474-.292 1.523-.292 1.523h2.045c-.001 0 .171-1.049-.293-1.523zm-25.906-5v-.521l-.292-.292h-.063c-.086-.436-.229-1.314-.229-2.337 0-.584-.292-.584-.292 0 0 1.023-.143 1.902-.229 2.337h-.064l-.292.292v.521C5.859 27.951 6.031 29 6.031 29h2.045s.172-1.049-.292-1.523zm-4 5v-.521l-.292-.292h-.063c-.086-.436-.229-1.314-.229-2.337 0-.584-.292-.584-.292 0 0 1.023-.143 1.902-.229 2.337h-.064l-.292.292v.521C1.859 32.951 2.031 34 2.031 34h2.045s.172-1.049-.292-1.523z"/>
</svg>
