<svg xmlns="http://www.w3.org/2000/svg" viewBox="0 0 36 36">
  <g fill="#EF9645">
    <path d="M20.546 14.136l.131.745.537-.045.599-.042c.49-.035.884-.37 1.022-.812l-2.289.154zm0-2.391l.02.73.651-.007c.525-.015.967-.334 1.172-.782l-1.843.059zm-.01-2.65l.011.717.223.031c.524.036.995-.238 1.242-.664l-1.476-.084zm9.61 1.344l-.159-.007c-.474-.019-.878.353-.898.827l-.073 2.506 1.766.328.132-3.103c-.122-.309-.416-.537-.768-.551z"/>
    <path d="M30.404 11.858l-.144.067c-.43.201-.946.014-1.147-.416l-.763-1.631c-.201-.43-.014-.946.416-1.147l.144-.067c.43-.201.946-.014 1.147.416l.763 1.631c.201.43.014.946-.416 1.147z"/>
  </g>
</svg>
