<svg xmlns="http://www.w3.org/2000/svg" viewBox="0 0 36 36">
  <path fill="#CCD6DD" d="M33.536 2.464c-1.953-1.953-5.118-1.953-7.071 0l-1.197 1.199 2.842 2.843c.391.391.391 1.024 0 1.414-.195.195-.451.293-.707.293s-.512-.098-.707-.293l-2.841-2.842-2.11 2.112 2.841 2.84c.391.39.391 1.023 0 1.414-.195.195-.451.293-.707.293s-.512-.098-.707-.293l-2.84-2.839-2.12 2.122 2.837 2.838c.391.391.391 1.024 0 1.414-.195.195-.451.293-.707.293s-.512-.098-.707-.293l-2.837-2.837-2.12 2.123 2.836 2.836c.391.391.391 1.023 0 1.414-.195.195-.451.293-.707.293s-.512-.098-.707-.293l-2.835-2.835-2.12 2.123 2.833 2.833c.391.391.391 1.023 0 1.414-.195.195-.451.293-.707.293s-.512-.098-.707-.293l-2.833-2.832-1.781 1.785C4.107 21.03 1 24.151 1 28c0 3.866 3.134 7 7 7 3.832 0 6.941-3.081 6.995-6.9L33.536 9.536c1.952-1.953 1.952-5.119 0-7.072z"/>
</svg>
