<svg xmlns="http://www.w3.org/2000/svg" viewBox="0 0 36 36">
  <path fill="#292F33" d="M13.272 22.343c.256 0 .512-.098.707-.293.391-.391.391-1.023 0-1.414l-2.833-2.833-1.413 1.415 2.833 2.832c.194.195.45.293.706.293zm3.536-3.535c.256 0 .512-.098.707-.293.391-.391.391-1.023 0-1.414l-2.836-2.836-1.413 1.415 2.835 2.835c.195.195.451.293.707.293zm3.535-3.536c.256 0 .512-.098.707-.293.391-.39.391-1.023 0-1.414l-2.837-2.838-1.413 1.415 2.837 2.837c.194.195.45.293.706.293zm3.536-3.536c.256 0 .512-.098.707-.293.391-.391.391-1.024 0-1.414l-2.841-2.84-1.413 1.415 2.84 2.839c.195.196.451.293.707.293zm3.523-3.523c.256 0 .512-.098.707-.293.391-.39.391-1.023 0-1.414l-2.842-2.843-1.413 1.415 2.841 2.842c.196.195.451.293.707.293z"/>
</svg>
