<svg xmlns="http://www.w3.org/2000/svg" viewBox="0 0 36 36">
  <path fill="#292F33" d="M14.457 20.548v2.06s-2.06 0-2.06 2.06v3.09c0 1.03 1.03 2.06 2.06 2.06h10.302c1.03 0 2.06-1.03 2.06-2.06v-5.151c0-1.03-1.03-2.06-2.06-2.06l-10.302.001z"/>
  <path fill="#292F33" d="M21.622 22.154l-10.145-1.789c-1.014-.179-1.014-.179-.836-1.193.098-.558.635-.934 1.193-.836l10.145 1.789c.558.098.934.635.836 1.193-.178 1.015-.178 1.015-1.193.836z"/>
  <path fill="#292F33" d="M23.974 18.511c-.199.949-.574 1.882-2.157 1.583-1.583-.298-1.836 1.262-.849 1.538.987.275 3.35.666 4.039-.459.688-1.124.803-2.203.734-2.685-.069-.481-1.62-.679-1.767.023z"/>
</svg>
