<svg xmlns="http://www.w3.org/2000/svg" viewBox="0 0 36 36">
  <path fill="#DD2E44" d="M21.794 21.397c1.023.18 3.043.537 3.58-2.507.537-3.043 1.551-2.865 1.014.179s-2.304 3.778-4.773 3.342c-2.029-.357-1.85-1.372.179-1.014zm-10.641-1.876c2.03.35 2.345 1.465.317 1.102-.899-.161-1.014.218-1.289.987-.259.723-.63 1.81-1.178 3.328-.403 1.115-1.317.621-.979-.352.568-1.636 1.093-3.058 1.434-3.962.348-.924.632-1.286 1.695-1.103z"/>
  <path fill="#DD2E44" d="M8.929 23.654l-.029-.011c-.258-.094-.547.04-.641.299l-2.124 5.836c-.094.258.04.547.299.641l.028.01c.258.094.547-.04.641-.299l2.124-5.836c.094-.258-.04-.546-.298-.64z"/>
</svg>
