<svg xmlns="http://www.w3.org/2000/svg" viewBox="0 0 36 36">
  <path fill="#DD2E44" d="M12.225 30.718l3.06-3.06c.194-.194.194-.513 0-.707l-.021-.021c-.194-.194-.513-.194-.707 0l-3.06 3.06c-.194.194-.194.513 0 .707l.021.021c.194.194.512.194.707 0zm18.744 3.222h-.06c-.55 0-1-.45-1-1v-3.151c0-.55.45-1 1-1h.06c.55 0 1 .45 1 1v3.151c0 .55-.45 1-1 1z"/>
  <path fill="#DD2E44" d="M11.911 33.94h-.06c-.55 0-1-.45-1-1v-3.151c0-.55.45-1 1-1h.06c.55 0 1 .45 1 1v3.151c0 .55-.45 1-1 1zm13.329-6.186h2.09c.275 0 .5-.225.5-.5v-.03c0-.275-.225-.5-.5-.5h-2.09c-.275 0-.5.225-.5.5v.03c0 .275.225.5.5.5z"/>
  <path fill="#DD2E44" d="M30.047 30.657l-3.06-3.06c-.194-.194-.194-.513 0-.707l.021-.021c.194-.194.513-.194.707 0l3.06 3.06c.194.194.194.513 0 .707l-.021.021c-.195.195-.513.195-.707 0z"/>
</svg>
