<svg xmlns="http://www.w3.org/2000/svg" viewBox="0 0 36 36">
  <path fill="green" d="M29 28.479s-8.396-4.417-12.458-5.75-5.146-.292-5.375.208c.438-1.188.896-1.479.896-1.479s-1.604.416-1.583 1.416c-.333-.896.791-2 2.271-2.021-1.333-.188-3.646.021-4.062 1.333.021-1.354 2.375-1.729 3.333-1.688-2.396-.75-4.396-.729-4.542.271-.167-.438.292-.797.292-.797s-.938-.079-1.396.338c-.021-.375 1.521-.749 2.271-.666-1.312-.521-2.333-.606-2.583-.012-.085-.694 2.353-.882 3.478-.632-2.625-.958-3.604-1.333-4.583-.312 0-.708.854-.979 1.458-.917-.521-.542-.916-.896-1.458-.917.312-.125.979.125.979.125s-.75-.792-1.271-1.042c.917.146 2.625 1.917 2.75 2.062s.854.312.854.312-2.375-1.938-2.458-2.562c.979.479 2.896 2.583 2.896 2.583s.479.271.5.062c.021-.208-2.875-2.104-2.833-3.188.583.812 1.417 1.729 1.417 1.729s-.604-.792-.542-1.521c.583 1.042 1.458 2.312 2.25 2.75-1.302-1.278-1.438-2.021-1.333-2.292.708 1.292 1.854 2.583 2.042 2.667s.292.062.292.062-.812-.854-.938-1.396c.562.396.958 1.312 1.083 1.354s.271-.042.271-.042-1.208-1.25-1.208-1.854c.583.458 1.354 1.729 1.458 1.917s.583.521.646.375-1.729-1.771-1.208-2.042c.833.688 1.312 1.688 1.396 1.708s.458.167.396.042-1.175-1.531-.896-2.312c.061.829.917 2.417 2.396 2.771s5.875 3.312 8.812 4.188 8.229 2.042 8.229 2.042l-.167.25s-7.771-2.042-7.771-1.979.229.271.229.271 7.459 1.958 7.438 2.021-.168.356-.168.356l-7.562-2.354h-.229s7.542 2.542 7.542 2.604-.146.333-.146.333l-7.792-2.938.25.292s7.438 2.832 7.417 2.916-.209.292-.209.292l-7.083-2.896-.417-.104 7.375 3.188-.229.271-6.854-3.041h-.229l6.938 3.438-.272.207z"/>
</svg>
