<svg xmlns="http://www.w3.org/2000/svg" viewBox="0 0 36 36">
  <path fill="#FCDD09" d="M25.351 24.345s-.259-.883-1.971-.919l.004-.004c.933-.933 1.781-.845 2.245-.663 0 0-.433-.78-2.056-.491.716-1.012 1.531-1.094 2.008-1.01 0 0-.598-.724-2.215-.043.01-.023.024-.043.033-.068.471-1.232 1.281-1.498 1.779-1.521 0 0-.711-.544-2.073.381.245-1.205.952-1.611 1.421-1.727 0 0-.837-.415-2.029.851 0-.017.003-.032.002-.048-.065-1.316.567-1.888 1.014-2.109 0 0-.896-.22-1.781 1.247l-.001-.005c-.343-1.272.155-1.965.545-2.276 0 0-.914-.024-1.471 1.576-.579-1.158-.241-1.931.074-2.312 0 0-.895.17-1.109 1.844-.799-1.012-.628-1.836-.399-2.273 0 0-.842.351-.706 2.035-.995-.827-.997-1.669-.862-2.145 0 0-.752.517-.271 2.138-1.144-.601-1.323-1.427-1.29-1.921 0 0-.634.664.184 2.161-1.266-.345-1.616-1.123-1.687-1.616 0 0-.479.774.613 2.054-1.274-.093-1.768-.769-1.936-1.232 0 0-.318.87 1.054 1.913-.008.001-.015 0-.023.002-1.3.205-1.938-.363-2.205-.785 0 0-.117.882 1.351 1.6-1.154.374-1.853-.033-2.183-.382 0 0 .053.938 1.76 1.343-.022.013-.044.021-.066.035-1.106.714-1.919.452-2.333.175 0 0 .259.883 1.97.919l-.005.004c-.93.931-1.78.847-2.244.663 0 0 .433.781 2.055.491-.714 1.01-1.53 1.096-2.007 1.01 0 0 .598.724 2.214.042-.01.024-.024.044-.033.068-.469 1.229-1.28 1.5-1.778 1.521 0 0 .71.544 2.071-.38-.243 1.203-.95 1.612-1.419 1.726 0 0 .836.415 2.028-.851 0 .016-.003.031-.002.048.067 1.314-.565 1.889-1.013 2.109 0 0 .896.22 1.781-1.247l.001.005c.344 1.271-.154 1.965-.544 2.275 0 0 .914.024 1.47-1.575.579 1.156.242 1.93-.074 2.312 0 0 .895-.171 1.109-1.844.8 1.011.629 1.835.399 2.272 0 0 .842-.351.707-2.035.995.826.997 1.669.862 2.144 0 0 .752-.517.271-2.137 1.147.603 1.321 1.429 1.29 1.92 0 0 .633-.663-.183-2.159 1.268.346 1.613 1.124 1.687 1.614 0 0 .478-.772-.611-2.052 1.275.093 1.765.77 1.935 1.23 0 0 .318-.869-1.054-1.913l.021-.001c1.303-.206 1.938.364 2.205.784 0 0 .117-.881-1.351-1.601 1.155-.374 1.852.035 2.183.382 0 0-.053-.937-1.759-1.344.022-.013.044-.021.065-.034 1.107-.711 1.917-.447 2.333-.171zM6.249 11.417s.043-1.479-.916-2.271c-.958-.792-1.562.062-1.521.542.042.479.455 1.104 1.217 1.333-.467-.917.167-.934.387-.812.311.172.479.625.479 1.208h.354zm.439-5.146c-1.042.542-1 2.146-.667 2.958.333.813.417 2.188.417 2.188h.5s.083-1.375.417-2.188c.333-.812.374-2.417-.667-2.958zm.438 5.146s-.043-1.479.916-2.271c.958-.792 1.562.062 1.52.542-.042.479-.455 1.104-1.217 1.333.467-.917-.167-.934-.387-.812-.311.172-.479.625-.479 1.208h-.353zm-.438.187l-.877.073.877.073.876-.073zm1.14 1.084c-.547-.297-.702-.75-.702-.75h-.877s-.155.453-.702.75c.484.078.984-.172.984-.172s-.282.688.156 1.359c.438-.672.156-1.359.156-1.359s.501.25.985.172zm9.734-1.271s.043-1.479-.916-2.271c-.958-.792-1.563.062-1.521.542.042.479.455 1.104 1.217 1.333-.467-.917.167-.934.387-.812.311.172.479.625.479 1.208h.354zM18 6.271c-1.042.542-1 2.146-.667 2.958.333.813.417 2.188.417 2.188h.5s.083-1.375.417-2.188c.333-.812.375-2.417-.667-2.958zm.438 5.146s-.043-1.479.916-2.271c.958-.792 1.562.062 1.521.542-.042.479-.455 1.104-1.218 1.333.468-.917-.167-.934-.387-.812-.311.172-.479.625-.479 1.208h-.353zm-.438.187l-.877.073.877.073.877-.073zm1.141 1.084c-.547-.297-.702-.75-.702-.75h-.877s-.155.453-.702.75c.484.078.984-.172.984-.172s-.282.687.156 1.359c.438-.672.156-1.359.156-1.359s.5.25.985.172zm9.811-1.271s.043-1.479-.915-2.271c-.959-.792-1.563.062-1.521.542.042.479.455 1.104 1.217 1.333-.467-.917.168-.934.388-.812.311.172.479.625.479 1.208h.352zm.439-5.146c-1.042.542-1 2.146-.666 2.958.333.813.416 2.188.416 2.188h.5s.083-1.375.416-2.188c.334-.812.376-2.417-.666-2.958zm.438 5.146s-.043-1.479.916-2.271c.958-.792 1.562.062 1.52.542-.042.479-.455 1.104-1.218 1.333.468-.917-.167-.934-.387-.812-.311.172-.479.625-.479 1.208h-.352zm-.438.187l-.877.073.877.073.877-.073zm1.14 1.084c-.547-.297-.702-.75-.702-.75h-.876s-.155.453-.702.75c.484.078.984-.172.984-.172s-.282.688.156 1.359c.438-.672.156-1.359.156-1.359s.5.25.984.172z"/>
</svg>
