<svg xmlns="http://www.w3.org/2000/svg" viewBox="0 0 36 36">
  <path fill="#EEE" d="M.068 27.679c.017.093.036.186.059.277.026.101.058.198.092.296.089.259.197.509.333.743L.555 29h34.89l.002-.004c.135-.233.243-.483.332-.741.034-.099.067-.198.093-.301.023-.09.042-.182.059-.275.041-.22.069-.446.069-.679H0c0 .233.028.458.068.679zM0 23h36v2H0zm0-4v2h36v-2H18zm18-4h18v2H18zm0-4h18v2H18zM0 9c0-.233.03-.457.068-.679C.028 8.542 0 8.767 0 9zm.555-2l-.003.005L.555 7zM.128 8.044c.025-.102.06-.199.092-.297-.034.098-.066.196-.092.297zM18 9h18c0-.233-.028-.459-.069-.68-.017-.092-.035-.184-.059-.274-.027-.103-.059-.203-.094-.302-.089-.258-.197-.507-.332-.74.001-.001 0-.003-.001-.004H18v2z"/>
</svg>
