<svg xmlns="http://www.w3.org/2000/svg" viewBox="0 0 36 36">
  <path d="M26.043 18.888c-1.122.561-1.23 1.205-.908 1.854.159-.253.446-.498.908-.729 1.251-.625 1.915-2.424 1.625-3.439-.187.902-.766 1.885-1.625 2.314zm-5 12c-2 0-3-3-5-3s-1 3-4 3-2-5-4-4c-1.08.54-1.853.773-2.192.572-.611 1.526.362 1.468 2.192.553 2-1 1 4 4 4s2-3 4-3 3 3 5 3c1.421 0 2.106-1.222 1.828-2.496-.209.783-.844 1.371-1.828 1.371zm4-6c-1-1-4 1-3 2 .014.014.021.03.034.044.613-.86 2.271-1.614 2.966-.919 1.191 1.191 2.422.154 2.003-1.385-.266.814-1.143 1.12-2.003.26z" fill="#A0041E"/>
</svg>
