<svg xmlns="http://www.w3.org/2000/svg" viewBox="0 0 36 36">
  <path fill="#31373D" d="M27.819 33.653C28.46 32.997 29 32.072 29 30.801c0-3.149-3.645-6.753-5-9.801-1.333-3-2.104-5.875-.083-6.688l.17-.073c.578-.218.913-.47.913-.739 0-.46-.97-.872-2.494-1.147C24.03 11.069 25 9.149 25 7c0-3.866-3.134-7-7-7s-7 3.134-7 7c0 2.149.97 4.069 2.494 5.353C11.97 12.628 11 13.04 11 13.5c0 .269.335.521.914.739.056.024.106.048.169.073C14.104 15.125 13.333 18 12 21c-1.355 3.048-5 6.652-5 9.801 0 1.271.54 2.196 1.181 2.852C7.432 34.058 7 34.515 7 35c0 .351.233.687.639 1H28.36c.407-.313.64-.649.64-1 0-.485-.432-.942-1.181-1.347z"/>
</svg>
