<svg xmlns="http://www.w3.org/2000/svg" viewBox="0 0 36 36">
  <path fill="#C1694F" d="M7.997 21.582c0-.028.003-.053.003-.082V18h.542c2.93 0 5.449 2.5 5.449 2.5 0-.553-2.157-4.5-5.741-4.5H8V9c0-.552-.448-1-1-1s-1 .448-1 1v7h-.541C1.876 16 .015 19.947.015 20.5c0 0 2.223-2.5 5.152-2.5H6v2.042c0 .393-.02.749-.032 1.12l-.431-.009C1.954 21.083 1.011 24.52 1 25.072c0 0 1.277-1.983 4.206-1.925l.634.013c-.105 1.051-.26 1.993-.453 2.837-1.737.379-3.27 1.81-3.36 2.197 0 0 1.87-.487 2.864-.423C3.401 32.095.938 33 .938 33c.371 0 3.43-.973 5.398-4.45l.379.179c.82.489 1.745 2.217 1.745 2.217.186-.396.138-2.914-1.294-4.241.321-.905.565-1.931.702-3.094 2.711.79 4.223 3.659 4.223 3.659.128-.53-.741-4.749-4.094-5.688z"/>
</svg>
