<svg xmlns="http://www.w3.org/2000/svg" viewBox="0 0 36 36">
  <path fill="#C1694F" d="M28.296 21.8c4.201-.084 6.034 2.762 6.034 2.762-.017-.793-1.367-5.725-6.511-5.624l-.792.016c-.016-.523-.027-1.058-.027-1.611V15h1.349c4.205 0 7.394 3.023 7.394 3.023 0-.793-2.668-6.023-7.811-6.023H27V1.498c0-.792-.708-1.435-1.5-1.435-.793 0-1.5.643-1.5 1.435V12h-.073c-5.144 0-8.238 5.229-8.238 6.023 0 0 3.616-3.023 7.821-3.023H24v4.435c0 .072.004.14.005.211-4.573 1.502-5.77 7.325-5.589 8.068 0 0 2.062-3.917 5.771-5.163.209 1.724.586 3.239 1.077 4.566-1.843 1.948-1.896 5.322-1.638 5.872 0 0 1.324-2.479 2.503-3.181l.323-.152c2.846 4.915 7.217 6.281 7.746 6.281 0 0-3.507-1.288-5.625-7.495 1.37-.165 4.282.598 4.282.598-.131-.567-2.44-2.723-5.012-3.2-.268-1.197-.484-2.533-.632-4.02l1.085-.02z"/>
</svg>
