<svg xmlns="http://www.w3.org/2000/svg" viewBox="0 0 36 36">
  <path d="M5.499 8c-.209 0-.419-.065-.599-.2l-4-3C.458 4.469.369 3.842.7 3.4c.332-.441.958-.531 1.4-.2l4 3c.442.331.531.958.2 1.4-.197.262-.497.4-.801.4zm3.002-3c-.323 0-.64-.156-.833-.445l-2-3c-.306-.46-.182-1.081.277-1.387.459-.307 1.08-.182 1.387.277l2 3c.306.459.182 1.081-.277 1.387-.171.114-.364.168-.554.168zm22 3c-.305 0-.604-.138-.801-.4-.332-.442-.242-1.069.2-1.4l4-3c.44-.333 1.068-.242 1.399.2.332.442.242 1.069-.2 1.4l-4 3c-.179.135-.389.2-.598.2zm-3.002-3c-.19 0-.383-.054-.554-.168-.46-.306-.584-.927-.277-1.387l2-3c.306-.459.925-.585 1.387-.277.46.306.584.927.277 1.387l-2 3c-.192.289-.51.445-.833.445z" fill="#5DADEC"/>
</svg>
