<svg xmlns="http://www.w3.org/2000/svg" viewBox="0 0 36 36">
  <path fill="#FFDC5D" d="M21.541 1.384c-1.593-.627-4.077.182-4.365 2.043-.287 1.848.239 4.747 1.863 4.572 1.702-.184 3.448-.554 4.138-2.307s-.043-3.681-1.636-4.308z"/>
  <path fill="#FFDC5D" d="M22.724 6.143c2.318-2.723-3.266-2.458-3.266-2.458-1.057.038-.329 1.799-.827 2.761-.341.665 1.095 1.018 1.095 1.018s.659-.01.694.79v.007c.008.204-.013.445-.108.769-.473 1.601 1.677 2.582 2.149.978.187-.635.114-1.193.02-1.708l-.009-.046c-.143-.766-.321-1.437.252-2.111z"/>
</svg>
