<svg xmlns="http://www.w3.org/2000/svg" viewBox="0 0 36 36">
  <path fill="#AA8DD8" d="M18.59 13.609c-.199.161-.459.245-.734.215-.868-.094-1.598-.396-2.109-.873-.541-.505-.808-1.183-.735-1.862.128-1.192 1.324-2.286 3.363-2.066.793.085 1.147-.17 1.159-.292.014-.121-.277-.446-1.07-.532-.868-.094-1.598-.396-2.11-.873-.541-.505-.809-1.183-.735-1.862.13-1.192 1.325-2.286 3.362-2.065.578.062.883-.057 1.012-.134.103-.063.144-.123.148-.158.012-.121-.275-.446-1.07-.532-.549-.06-.947-.552-.886-1.102.059-.549.55-.946 1.101-.886 2.037.219 2.973 1.542 2.844 2.735-.13 1.194-1.325 2.286-3.364 2.067-.578-.063-.88.057-1.01.134-.103.062-.145.123-.149.157-.013.122.276.446 1.071.532 2.037.22 2.973 1.542 2.844 2.735-.129 1.192-1.324 2.286-3.362 2.065-.578-.062-.882.058-1.012.134-.104.064-.144.124-.148.158-.013.121.276.446 1.07.532.548.06.947.553.886 1.102-.028.274-.167.511-.366.671z"/>
</svg>
