<svg xmlns="http://www.w3.org/2000/svg" viewBox="0 0 36 36">
  <path d="M1.956 35.026c-.256 0-.512-.098-.707-.293-.391-.391-.391-1.023 0-1.414L4.8 29.77c.391-.391 1.023-.391 1.414 0s.391 1.023 0 1.414l-3.551 3.55c-.195.195-.451.292-.707.292zm6.746.922c-.109 0-.221-.018-.331-.056-.521-.182-.796-.752-.613-1.274l.971-2.773c.182-.521.753-.795 1.274-.614.521.183.796.753.613 1.274l-.971 2.773c-.144.412-.53.67-.943.67zm-7.667-7.667c-.412 0-.798-.257-.943-.667-.184-.521.089-1.092.61-1.276l2.495-.881c.523-.18 1.092.091 1.276.61.184.521-.089 1.092-.61 1.276l-2.495.881c-.111.039-.223.057-.333.057zm29.46-21.767c-.256 0-.512-.098-.707-.293-.391-.391-.391-1.024 0-1.415l3.552-3.55c.391-.39 1.023-.39 1.414 0s.391 1.024 0 1.415l-3.552 3.55c-.195.196-.451.293-.707.293zm-4.164-1.697c-.109 0-.221-.019-.33-.057-.521-.182-.796-.752-.614-1.274l.97-2.773c.183-.521.752-.796 1.274-.614.521.182.796.752.614 1.274l-.97 2.773c-.144.413-.531.671-.944.671zm6.143 5.774c-.412 0-.798-.257-.943-.667-.184-.521.09-1.092.61-1.276l2.494-.881c.522-.185 1.092.09 1.276.61.184.521-.09 1.092-.61 1.276l-2.494.881c-.111.039-.223.057-.333.057z" fill="#FA743E"/>
</svg>
