<svg xmlns="http://www.w3.org/2000/svg" viewBox="0 0 36 36">
  <path fill="#D5AB88" d="M19.15 34.768c2.772-1.191 4.574-3.617 5.644-5.956 1.673-3.657 7.582-5.169 9.05-6.211 2.038-1.446.166-4.373-2.864-3.889-3.265.522-4.053 1.943-6.021 2.804-1.004.438-1.713.297-1.847-1.556-.098-1.359 1.656-12.037 2.19-16.96.183-1.685-.519-2.645-1.875-2.826-1.536-.205-2.331.631-2.656 2.17-.81 3.832-2.094 11.344-2.633 11.768-2.896 1.817-6.757 4.194-10.208-.423 0 0-1.651-8.661-1.908-10.409C5.577.254 1.491.8 1.826 3.955c.314 2.972 1.289 9.985.435 12.476-.75 2.189-2.074 9.702.843 14.277 2.878 4.514 10.56 6.417 16.046 4.06z"/>
</svg>
