<svg xmlns="http://www.w3.org/2000/svg" viewBox="0 0 36 36">
  <path fill="#A6D388" d="M12.871 5.837c4.713 0 9.174 4.19 10.607 9.962.811 3.267.56 6.581-.707 9.331-1.231 2.674-3.28 4.486-5.768 5.103-.61.152-1.238.228-1.868.228-4.712 0-9.172-4.19-10.605-9.962-1.654-6.662 1.252-13.138 6.476-14.434.609-.151 1.236-.228 1.865-.228m0-1c-.702 0-1.406.084-2.106.257-5.769 1.432-8.995 8.437-7.206 15.647 1.572 6.335 6.492 10.721 11.575 10.721.702 0 1.409-.084 2.109-.258 5.766-1.431 8.994-8.435 7.205-15.646-1.573-6.335-6.494-10.721-11.577-10.721z"/>
  <g fill="#A6D388">
    <path d="M18.974 18.518l-2.799 1.311 1.656 4.152-2.955-2.326-.697 4.171-1.378-4.098-2.651 1.745 1.006-3.976-3.043-1.701 2.8-1.315-1.657-4.149 2.957 2.115.697-4.172 1.379 4.31 2.645-1.745-1.001 3.973z"/>
    <path d="M14.178 26.826c-.426 0-.81-.271-.947-.682l-.964-2.868-1.567 1.032c-.343.228-.792.221-1.129-.021-.336-.238-.491-.66-.39-1.06l.817-3.232-2.373-1.326c-.328-.184-.525-.534-.512-.908.013-.375.235-.71.574-.87l1.947-.914-1.308-3.274c-.165-.413-.038-.884.312-1.158.35-.273.838-.284 1.199-.026l1.653 1.183.432-2.59c.076-.456.454-.8.914-.833.472-.022.885.253 1.025.693l.977 3.053 1.544-1.019c.344-.227.794-.22 1.129.019.336.239.492.66.391 1.06l-.813 3.231 2.373 1.33c.326.184.523.535.51.909-.014.375-.235.71-.574.869l-1.945.912 1.307 3.276c.168.42.032.9-.33 1.171-.363.271-.862.265-1.217-.015l-1.628-1.282-.419 2.506c-.076.452-.45.796-.907.832l-.081.002zm-1.377-6.098c.11 0 .22.018.326.055.293.102.523.333.622.627l.103.306.038-.225c.058-.349.296-.64.625-.768.329-.126.701-.071.979.146l.027.021-.275-.691c-.196-.491.025-1.051.504-1.275l1.036-.485-1.342-.752c-.394-.221-.591-.679-.481-1.117l.372-1.477-.496.327c-.261.172-.588.213-.883.109-.295-.104-.524-.34-.62-.639l-.12-.375-.016.097c-.057.34-.285.627-.604.759-.318.133-.683.09-.964-.11l-.181-.129.391.979c.196.492-.024 1.051-.503 1.276l-1.038.487 1.343.75c.395.221.593.68.481 1.118l-.374 1.479.5-.329c.166-.109.357-.164.55-.164z"/>
  </g>
</svg>
