<svg xmlns="http://www.w3.org/2000/svg" viewBox="0 0 36 36">
  <g fill="#C6E5B3">
    <path d="M16.788 18.019l-1.709.812 1.076 2.538-1.846-1.288-.378 2.556-.91-2.634-1.606 1.077.566-2.437-1.902-1.034 1.706-.813-1.078-2.539 1.852 1.286.373-2.556.911 2.637 1.61-1.079-.567 2.438z"/>
    <path d="M13.931 23.137c-.211 0-.402-.134-.472-.337l-.698-2.021-1.066.716c-.17.114-.394.114-.563-.004-.169-.116-.25-.324-.203-.524l.48-2.066-1.569-.852c-.165-.09-.266-.265-.261-.453s.115-.357.285-.438l1.274-.607-.891-2.099c-.087-.205-.028-.443.145-.583.173-.141.417-.149.601-.022l1.188.826.256-1.757c.033-.228.218-.404.448-.425.228-.028.444.116.52.334l.7 2.024 1.071-.718c.171-.114.394-.112.562.004.169.117.25.325.203.525l-.48 2.067 1.568.854c.165.09.266.265.261.453-.005.188-.116.357-.285.438l-1.277.607.89 2.097c.087.205.028.443-.146.584-.173.141-.418.147-.601.021l-1.184-.826-.26 1.757c-.034.228-.219.403-.448.425h-.048zm-.91-3.634c.053 0 .107.009.159.026.147.049.263.164.313.311l.243.701.079-.533c.025-.171.138-.317.296-.386.159-.067.341-.051.484.049l.421.294-.398-.938c-.104-.247.004-.532.246-.646l.823-.392-1.04-.566c-.197-.107-.299-.333-.248-.552l.28-1.205-.558.374c-.129.086-.292.106-.438.059-.147-.049-.263-.164-.313-.311l-.241-.697-.077.525c-.025.171-.137.317-.295.386-.16.069-.342.051-.484-.048l-.429-.298.401.945c.104.246-.003.531-.245.646l-.821.391 1.041.565c.197.107.299.334.248.553l-.279 1.203.553-.371c.083-.056.18-.085.279-.085z"/>
  </g>
</svg>
