<svg xmlns="http://www.w3.org/2000/svg" viewBox="0 0 36 36">
  <path fill="#292F33" d="M9.306 14.957c.229.497.147 1.024-.185 1.178-.332.153-.786-.127-1.016-.624-.229-.497-.147-1.024.185-1.177.331-.154.786.126 1.016.623zm6.698-2.936c-.129.532-.521.894-.876.809-.356-.087-.538-.589-.409-1.121.129-.532.521-.894.877-.807.354.085.537.586.408 1.119zm-2.644 9.914c-.129.532-.52.894-.875.809-.357-.087-.539-.588-.41-1.12.129-.531.521-.895.877-.808.354.086.537.587.408 1.119zm3.216 2.178c.229.497.147 1.023-.185 1.179-.331.151-.786-.128-1.016-.625-.228-.496-.148-1.023.185-1.178.332-.152.787.127 1.016.624zm1.121-7.683c-.304.292-.68.391-.843.225-.161-.17-.045-.542.258-.835.303-.292.681-.393.843-.224.162.169.047.542-.258.834zm-5.274-2.365c.181.38.158.768-.053.871-.212.098-.53-.129-.71-.509-.18-.38-.156-.77.056-.871.21-.101.528.128.707.509zm-3.98 7.094c-.304.292-.679.392-.843.225-.16-.169-.045-.542.258-.834.303-.291.68-.393.843-.225.162.169.047.542-.258.834zm10.622-.928c.329.356.382.842.116 1.093-.267.246-.752.159-1.082-.195-.33-.356-.384-.843-.116-1.094.267-.248.751-.16 1.082.196z"/>
</svg>
