<svg xmlns="http://www.w3.org/2000/svg" viewBox="0 0 36 36">
  <path fill="#7C533E" d="M29.326 16.167l-.159-.007c-.474-.02-.846-.424-.827-.898l.162-3.936c.02-.474.424-.846.898-.827l.159.007c.474.02.846.424.827.898l-.162 3.936c-.019.475-.423.847-.898.827z"/>
  <path fill="#7C533E" d="M29.885 11.915l-.144.067c-.43.201-.946.014-1.147-.416l-.764-1.631c-.201-.43-.014-.946.416-1.147l.144-.068c.43-.201.946-.014 1.147.416l.763 1.631c.202.43.015.947-.415 1.148zm.933 1.865c-.785-.332-1.639-.124-1.974.114-2.887 2.044-2.462 5.208-.448 5.645 1.63.353 2.182-.789 2.182-.789l.182-3.272.058-1.698zm-10.1-1.878l-.06.002c-.18.005-.332-.138-.337-.319l-.041-1.477c-.005-.18.138-.332.319-.337l.06-.002c.18-.005.332.138.337.319l.041 1.477c.005.18-.138.332-.319.337z"/>
  <g fill="#7C533E">
    <path d="M20.695 14.369l1.486-.105s.378-.029.654-.283c.172-.159.305-.405.277-.79-.071-1.002-1.073-.931-1.073-.931l-.403.029-.599.042-.483.034.141 2.004z"/>
    <path d="M20.713 14.368l-.037.003c-.175.012-.328-.121-.341-.296l-.097-1.368c-.012-.175.121-.328.296-.341l.037-.003c.175-.012.328.121.341.296l.097 1.368c.012.175-.121.329-.296.341z"/>
  </g>
  <g fill="#7C533E">
    <path d="M20.846 14.79l.187 1.693.571-.049s.291-.037.513-.236c.156-.139.278-.356.24-.704-.094-.846-.94-.753-.94-.753l-.571.049z"/>
    <path d="M21.049 16.481l-.031.004c-.147.021-.285-.083-.306-.23l-.162-1.151c-.021-.147.083-.285.23-.306l.031-.004c.147-.021.285.083.306.23l.162 1.151c.021.147-.083.285-.23.306z"/>
  </g>
  <g fill="#7C533E">
    <path d="M21.339 9.348s.358.018.673-.169c.228-.135.434-.375.465-.821.074-1.064-.99-1.138-.99-1.138l-.532-.037-.148-.01-.148 2.128.68.047z"/>
    <path d="M20.689 9.303l-.06-.004c-.18-.013-.317-.17-.305-.35l.102-1.474c.013-.18.17-.317.35-.305l.06.004c.18.013.317.17.305.35l-.102 1.474c-.013.181-.17.318-.35.305z"/>
  </g>
  <path fill="#7C533E" d="M21.735 11.873s.358-.017.653-.234c.214-.157.396-.415.383-.862-.03-1.066-1.096-1.036-1.096-1.036l-.533.015-.514.014.06 2.133 1.047-.03z"/>
</svg>
