<svg xmlns="http://www.w3.org/2000/svg" viewBox="0 0 36 36">
  <path fill="#66757F" d="M22.998 4.944c-.016-.284-.151-.548-.373-.726l-3.683-2.945c.087-.302.049-.635-.162-.898-.314-.394-.859-.468-1.281-.221-.42-.248-.966-.174-1.281.221-.211.264-.25.597-.162.898l-3.682 2.945c-.222.178-.358.441-.374.726-.016.284.09.561.291.762l3.835 3.834c-.198.377-.152.848.165 1.165.197.197.453.295.709.295.176 0 .344-.063.5-.155.156.091.324.155.5.155.256 0 .512-.098.707-.293.317-.317.363-.788.165-1.165l3.835-3.835c.201-.202.308-.479.291-.763zM17.5 8.085l-3.003-3.003L17.5 2.68l3.003 2.403L17.5 8.085z"/>
</svg>
