<svg xmlns="http://www.w3.org/2000/svg" viewBox="0 0 36 36">
  <path fill="#FF605E" d="M33.702 11.938c.208-1.924-.128-3.959-2.262-5.42l-.004-.008c.751.196 1.524.581 2.234 1.362-1.301-3.789-5.222-6.067-9.318-6.723-2.05-.427-5.387-.171-6.414 1.164-2.944.057-5.397 2.759-6.001 6.212-.456 2.604.193 6.816 1.342 8.726 1.541 2.56 2.427-1.457 3.758-1.06 1.914 2.529 2.302 6.776 5.719 6.776 6.506 0 9.133-4.248 9.52-11.489.136.528.246 1.087.426 1.682.434 1.437 1.818 1.586 1.818 1.586s-1.032-.827-.818-2.808z"/>
</svg>
