<svg xmlns="http://www.w3.org/2000/svg" viewBox="0 0 36 36">
  <path d="M19.198 22.592c.4-.332.798-.711 1.122-1.166-3.304.609-5.935-.062-7.598-.634l-.121 1.016c1.255.419 2.988.867 5.106.867.476-.001.977-.033 1.491-.083zm-2.604 3.518c.104-.338.225-.678.354-1.01-1.907.06-3.494-.274-4.66-.605-.04.349-.078.684-.113 1.006 1.118.31 2.577.612 4.318.612l.101-.003zm-.61 2.984c-.016-.24-.02-.42-.005-.497.018-.091.055-.276.103-.5-1.668.058-3.072-.187-4.128-.437-.014.172-.024.314-.024.383 0 .14.016.368.042.648.969.218 2.188.42 3.613.42.128-.001.268-.014.399-.017zm-3.759 1.67c.048.343.1.69.152 1.028.628.08 1.348.144 2.162.144.548 0 1.138-.034 1.756-.104-.043-.322-.087-.661-.128-.994-1.566.178-2.915.071-3.942-.074z" fill="#88C9F9"/>
</svg>
