<svg xmlns="http://www.w3.org/2000/svg" viewBox="0 0 36 36">
  <path d="M9 26.023l-1.222 1.129.121-1.66-1.645-.251 1.373-.94-.829-1.443 1.591.488L9 21.797l.612 1.549 1.591-.488-.83 1.443 1.374.94-1.645.251.121 1.66zM27.95 9.562l-.799.738.079-1.086-1.077-.164.899-.615-.542-.944 1.04.319.4-1.013.401 1.013 1.041-.319-.543.944.898.615-1.076.164.079 1.086zm-4 6l-.799.739.079-1.086-1.077-.164.899-.616-.542-.944 1.04.319.4-1.013.401 1.013 1.041-.319-.543.944.898.616-1.076.164.079 1.086zm9-2l-.799.739.079-1.086-1.077-.164.899-.616-.542-.944 1.04.319.4-1.013.401 1.013 1.041-.319-.543.944.898.616-1.076.164.079 1.086zm-5 14l-.799.739.079-1.086-1.077-.164.899-.616-.542-.944 1.04.319.4-1.013.401 1.013 1.041-.319-.543.944.898.616-1.076.164.079 1.086zM31 16l.294.596.657.095-.475.463.112.655L31 17.5l-.588.309.112-.655-.475-.463.657-.095z" fill="#FFF"/>
</svg>
