<svg xmlns="http://www.w3.org/2000/svg" viewBox="0 0 36 36">
  <path fill="#77B255" d="M26.252 3.572c-1.278-1.044-3.28-1.55-5.35-1.677.273-.037.542-.076.82-.094.973-.063 3.614-1.232 1.4-1.087-.969.063-1.901.259-2.837.423.237-.154.479-.306.74-.442C21 0 17 0 14.981 1.688 14.469 1.576 14 1 11 1c-2 0-4.685.926-3 1 .917.041 2 0 1.858.365C9.203 2.425 6 3 6 4c0 .353 2.76-.173 3 0-1.722.644-3 2-3 3 0 .423 2.211-.825 3-1-1 1-1.4 1.701-1.342 2.427.038.475 2.388-.09 2.632-.169.822-.27 3.71-1.258 4.6-2.724.117.285 2.963 1.341 4.11 1.466.529.058 2.62.274 2.141-.711C21 6 20 5 19.695 4.025c.446-.019 8.305.975 6.557-.453z"/>
</svg>
