<svg xmlns="http://www.w3.org/2000/svg" viewBox="0 0 36 36">
  <path fill="#F4ABBA" d="M9.339 17.306c-.136-1.46-2.54-3.252-2.331-1 .136 1.46 2.54 3.252 2.331 1zm7.458.553c-.069-.622-.282-1.191-.687-1.671-.466-.55-1.075-.362-1.234.316-.187.799.082 1.752.606 2.372l.041.048c-.213-.525-.427-1.05-.642-1.574l.006.047c.071.64.397 1.73 1.136 1.906.754.182.826-.988.774-1.444zm5.752-4.841c.476-.955.17-3.962-.831-1.954-.476.954-.171 3.962.831 1.954zm7.211-1.457c-.03-.357-.073-.78-.391-1.01-1.189-.858-2.381 2.359-1.385 3.08.02.012.036.025.055.039l-.331-.919c0 .018.001.035.003.052.049.564.376 1.377 1.084.948.667-.406 1.028-1.444.965-2.19zm-1.345 8.567c1.016-1.569-.545-3.451-1.78-1.542-1.016 1.568.546 3.45 1.78 1.542zm-5.748 2.894c.173-1.938-2.309-2.752-2.51-.496-.173 1.938 2.309 2.752 2.51.496zm-9.896-1.212l-.049.004 1.362.715c-.006-.004-.011-.011-.018-.017-.306-.28-1.353-1.083-1.788-.592-.44.497.498 1.421.804 1.703.342.314.928.763 1.429.73 1.437-.093-.783-2.605-1.74-2.543zm13.227 5.907c.969-1.066.725-4.05-.798-2.376-.969 1.066-.724 4.05.798 2.376zM12.599 13.753c.093-.005.187-.012.28-.019.703-.046 1.004-1.454 1.042-1.952.044-.571-.043-1.456-.785-1.407l-.281.019c-.702.047-1.004 1.454-1.042 1.952-.044.571.044 1.457.786 1.407zm7.846 15.257c.395.764.252 1.623-.32 1.919s-1.357-.081-1.753-.844c-.395-.764-.252-1.623.32-1.919.573-.296 1.357.081 1.753.844z"/>
</svg>
