<svg xmlns="http://www.w3.org/2000/svg" viewBox="0 0 36 36">
  <path fill="#FFE8B6" d="M11 27c-.552 0-1-.447-1-1s.448-1 1-1c1.898 0 3.082-1.085 3.174-1.835.091-.736-.96-1.081-1.417-1.195-.906-.225-1.58.033-2.358.335-1.068.414-2.531.978-4.106-.598-.689-.688-.868-1.604-.492-2.513C6.534 17.425 9.245 16 11 16c.552 0 1 .448 1 1s-.448 1-1 1c-1.115 0-2.995 1.099-3.351 1.96-.074.178-.044.23.058.333.629.628.928.548 1.971.147.862-.334 2.042-.79 3.564-.409 2.384.596 3.07 2.136 2.917 3.379C15.942 25.174 13.953 27 11 27zm6 1c-.552 0-1-.447-1-1s.448-1 1-1c5.697 0 9.833-1.247 12.293-3.707.391-.391 1.023-.391 1.414 0s.391 1.023 0 1.414C27.858 26.556 23.247 28 17 28z"/>
  <path fill="#FFE8B6" d="M21.349 24.16c-.537 0-1.069-.06-1.591-.191-.543-.135-2.194-.548-2.246-1.883-.038-1 .661-2.172 5.938-3.957C22.875 17.66 21.492 17 20 17c-2.513 0-3.797.211-4.293.707-.391.391-1.023.391-1.414 0s-.391-1.023 0-1.414C15.248 15.338 16.741 15 20 15c2.396 0 5.396 1.333 5.676 3.053.107.662-.193 1.506-1.359 1.895-2.583.861-3.921 1.549-4.501 1.957.112.039.253.081.427.125 3.231.804 7.322-2.366 7.768-3.18.072-.481.488-.85.989-.85.553 0 1 .448 1 1 0 .706-.635 1.56-1.887 2.537-1.743 1.361-4.289 2.622-6.764 2.623z"/>
</svg>
