<svg xmlns="http://www.w3.org/2000/svg" viewBox="0 0 36 36">
  <path fill="#EA596E" d="M16 24c-.256 0-.512-.098-.707-.293-.391-.391-.391-1.023 0-1.414.281-.305.112-.474 0-.586-.558-.558-2.238-.616-3.846.188-.495.247-1.095.047-1.342-.447-.247-.494-.047-1.095.447-1.342 1.977-.988 4.726-1.242 6.154.188 1.252 1.252.686 2.728 0 3.414-.194.194-.45.292-.706.292zm4-4c-2.414 0-3.685-1.271-4.707-2.293-.391-.391-.391-1.023 0-1.414s1.023-.391 1.414 0C17.661 17.247 18.414 18 20 18c.773 0 2.586 0 3.293-.707.391-.391 1.023-.391 1.414 0s.391 1.023 0 1.414C23.414 20 21.108 20 20 20zm0 4c-.553 0-1-.447-1-1s.447-1 1-1c1.847 0 4.548-.962 5.293-1.707.391-.391 1.023-.391 1.414 0s.391 1.023 0 1.414C25.416 22.998 22.041 24 20 24z"/>
</svg>
