<svg xmlns="http://www.w3.org/2000/svg" viewBox="0 0 36 36">
  <path fill="#99AAB5" d="M35.125 11.042l-15.24-4.503C16.534 1.23 12.319 2.084 10 2c-.25-.009-.819.22-.833.625-.015.392 1.026.337 1.186.343 1.705.062 3.945.176 6.132 2.486C13.827 4.528 9.744 3.933 9 4c-.458.042-.5.375.042.625.445.206 4.572 1.647 6.84 2.34-1.419.489-3.286.715-6.434-.86C8.951 5.857 8.247 5.506 8 6c-.247.494.506.753 1 1 2.16 1.08 3.43 2.332 4.823 2.332 1.656 0 2.854-.505 3.792-.899.333-.14.634-.263.903-.343.016.01.028.024.044.033l14.805 6.592c.485.265 1.572-.791 1.837-1.275.265-.486.28-2.175-.079-2.398z"/>
</svg>
