<svg xmlns="http://www.w3.org/2000/svg" viewBox="0 0 36 36">
  <path fill="#EA596E" d="M9.166 17.417c-.478 0-.9-.343-.984-.83l-.046-.267c-.398-2.308-.849-4.925-1.669-7.425-.173-.524.114-1.089.638-1.262.524-.173 1.09.114 1.262.639.866 2.639 1.33 5.332 1.739 7.708l.046.266c.094.544-.271 1.062-.815 1.155-.057.011-.115.016-.171.016zm6.042-.25c-.529 0-.971-.416-.998-.95-.077-1.54-1.186-7.973-2.19-10.705-.19-.519.075-1.093.593-1.284.522-.191 1.094.075 1.284.593 1.064 2.895 2.217 9.435 2.31 11.295.028.551-.397 1.021-.949 1.048-.016.002-.033.003-.05.003zm5.625-3.792c-.487 0-.913-.355-.988-.852l-.113-.787c-.293-2.061-.839-5.897-1.68-8.42-.175-.524.108-1.09.632-1.265.526-.175 1.09.109 1.265.632.898 2.695 1.461 6.647 1.763 8.771l.112.772c.082.546-.295 1.055-.841 1.137-.05.009-.101.012-.15.012zm5.666-3.417c-.508 0-.942-.385-.994-.901-.186-1.863-.473-3.22-.989-4.684-.184-.521.09-1.092.61-1.275.523-.184 1.092.089 1.276.61.565 1.604.893 3.144 1.093 5.15.055.549-.347 1.039-.896 1.094-.034.005-.067.006-.1.006z"/>
</svg>
