<svg xmlns="http://www.w3.org/2000/svg" viewBox="0 0 36 36">
  <g fill="#77B255">
    <path d="M21.209 22.542c0-.422 1.806-.335 4.291-.335s4.209-.546 4.209-.124c0 1.775-1.724 3.552-4.209 3.552s-4.291-1.318-4.291-3.093z"/>
    <path d="M25.5 26.135c-2.776 0-4.791-1.511-4.791-3.593 0-.172.069-.336.195-.461.378-.377 1.197-.393 3.503-.378l1.093.004c1.094 0 2.054-.11 2.756-.191.993-.113 1.443-.165 1.746.104l.168.149.039.313c0 1.949-1.801 4.053-4.709 4.053zm-3.777-3.358c.157 1.38 1.697 2.357 3.777 2.357 2.046 0 3.474-1.343 3.683-2.707-.22.013-.528.049-.812.081-.726.084-1.719.198-2.87.198l-1.099-.004c-1.05-.006-2.219-.011-2.679.075z"/>
  </g>
</svg>
