<svg xmlns="http://www.w3.org/2000/svg" viewBox="0 0 36 36">
  <g fill="#F4900C">
    <path d="M30 22s-2-1-5 0c-2.357.786-4 2.56-4 .785s2.015-3.213 4.5-3.213S30 21 30 22z"/>
    <path d="M21.446 24.05c-.167 0-.322-.039-.468-.127-.478-.288-.478-.928-.478-1.138 0-2.047 2.243-3.713 5-3.713 2.77 0 5 1.602 5 2.928 0 .173-.09.334-.237.426-.146.089-.33.099-.484.022-.033-.017-1.887-.886-4.62.026-.757.252-1.435.61-2.032.927-.682.361-1.225.649-1.681.649zm4.054-3.978c-2.206 0-4 1.217-4 2.713 0 .127.01.208.021.257.232-.045.749-.318 1.138-.524.601-.317 1.349-.714 2.184-.992 1.696-.565 3.097-.529 4.043-.366-.676-.543-1.87-1.088-3.386-1.088z"/>
  </g>
</svg>
