<svg xmlns="http://www.w3.org/2000/svg" viewBox="0 0 36 36">
  <path fill="#77B255" d="M29.656 8.625c1.438-1.5 1.188-6.062.531-6.812-.968-.813-1.937 1.645-4.812 2.395-.708-1.375-1.481-1.852-1.5-1.865-.833-.593-2.625-.509-3.125 1.907-1.719-1.5-5.323-1.636-5.542-.833-1.333 4.896-3.166 5.541-5.166 7.583-3.009 3.072 2.708 3.688 8.521 1.875s11.093-4.25 11.093-4.25z"/>
  <path fill="#77B255" d="M12.25 10.542c-.5-3.5-6.848-4.161-8.25-3.082C2 9 3.167 13.833 5.25 14.5c3.639 1.164 7-3.958 7-3.958z"/>
</svg>
