<svg xmlns="http://www.w3.org/2000/svg" viewBox="0 0 36 36">
  <path fill="#6B26B5" d="M10.935 18.666c-.408 0-.828-.346-.846-.698-.019-.336.078-.471.164-.589.076-.105.142-.195.121-.401-.022-.209-.021-.304-.02-.389 0-.049.001-.096-.003-.158-.015-.221-.012-.815-.012-.821v-.01l.007.007c.002.002.173.186.263.4.03.071.055.16.082.254.056.195.118.416.248.576.185.228.605.931.605 1.233-.001.289-.214.596-.609.596zm-.589-3.047c0 .081-.002.605.012.81.004.063.004.11.003.159-.001.084-.002.18.02.388.021.209-.048.305-.122.407-.085.117-.181.25-.163.584.019.348.434.69.838.69.39 0 .601-.303.601-.588 0-.3-.419-1-.604-1.228-.131-.161-.194-.383-.25-.579-.027-.094-.052-.183-.082-.253-.078-.189-.22-.353-.253-.39z"/>
</svg>
