<svg xmlns="http://www.w3.org/2000/svg" viewBox="0 0 36 36">
  <path fill="#8C8A8C" d="M16.826 13.023c.877 0 1.527.022 1.982.022.457 0 .912.148.912.57 0 .421-.227.57-.227.57s.091.318-.057.661c-.149.341-.411.524-.878.524s-1.298.011-1.527.011c-.227 0-.442-.055-.592-.57-.445-1.526-.081-1.788.387-1.788zm.262 2.369h1.72c.194 0 .366 0 .387.547.024.547.981 8.159 1.037 8.728.057.57-.422.638-.422.638s-.136.263-.763.444c-.627.182-.855.114-1.071.057-.216-.057-.456-.125-.763 0-.308.125-.582.092-.844-.045-.262-.136-.285-.343-.285-.343s-.171-.046-.376-.204c-.205-.158-.194-.547-.137-.81.057-.261.923-7.656.991-8.181.07-.523.15-.831.526-.831z"/>
</svg>
