<svg xmlns="http://www.w3.org/2000/svg" viewBox="0 0 36 36">
  <g fill="#FFB636">
    <path d="M12.109 17.283s-.202-.647-.661-.558c-.354.068-.251.251-.137.353.114.102.114.171.216.102.103-.068.262-.057.342.023.08.08.24.08.24.08zm-1.436-1.812s.068.069.148.206c.08.136.388.205.513.159.125-.045.16.331.046.433-.114.102-.245.153-.467-.046-.32-.284-.24-.752-.24-.752zm1.071.058c.171-.058.33.091.308.319-.023.228-.262.684-.262.684s-.046-.091-.08-.205c-.034-.114.125-.17.023-.354-.103-.182.011-.444.011-.444zm-.49-1.641s.239.228.375.274c.137.045.411-.069.49.113.08.183.103.57-.216.467-.319-.103-.444-.296-.524-.467-.079-.171-.125-.387-.125-.387zm1.698-.513c.137-.148.478-.16.501.125.023.285-.216.809-.216.809s-.069-.183-.08-.262c-.011-.08-.08-.331-.228-.387-.148-.057.023-.285.023-.285zm.615-.707c.194-.137.41-.023.468.148.056.171-.069.798-.171.934l-.068-.228c-.022-.08.011-.387-.251-.456-.263-.066.022-.398.022-.398zm1.082-1.754s-.638.581-.262 1.026c.376.444.433 0 .387-.137-.045-.137-.011-.148-.091-.274-.08-.125-.08-.262-.034-.364.046-.103 0-.251 0-.251z"/>
    <path d="M14.205 12.35c-.023.171.034.251.137.33.102.08.045.398.045.398s.205-.045.25-.421c.046-.376-.102-.569-.205-.569s-.227.262-.227.262zm.866-.547c-.103.126-.125.421.045.547.171.126.102.513.102.513s.25-.148.273-.501c.022-.354-.194-.604-.194-.604l-.226.045zm.809-1.242s-.559.491-.274.9c.285.41.559-.091.456-.193-.102-.103-.273-.194-.205-.376.069-.183.023-.331.023-.331z"/>
    <path d="M15.926 11.621c.182-.057.296.069.33.262.034.193-.251.763-.251.763s-.125-.114-.069-.285c.058-.17-.056-.285-.159-.387-.102-.103-.033-.296.149-.353zm1.31-.353c-.213.05-.33.25-.148.399.182.148.171.227.125.341-.045.114.011.251.011.251s.239-.125.307-.479c.07-.353-.101-.558-.295-.512zm2.802-.685s-.204.456.034.752c.24.296.468.068.456-.103-.011-.171-.171-.205-.273-.273-.102-.068-.159-.068-.137-.17.025-.103-.08-.206-.08-.206zm.013.946c-.104.046-.149.376-.092.479.058.103-.079.229-.114.354l-.034.125s.285-.091.468-.365c.183-.273.193-.502.079-.581-.114-.08-.307-.012-.307-.012zm.979-.752s-.502.421-.456.821c.046.399.422.307.49.114.067-.194-.058-.353-.079-.468-.023-.114.021-.182.056-.273.034-.091 0-.194-.011-.194z"/>
    <path d="M20.894 11.894c-.104.125-.046.376-.046.524 0 .148-.17.296-.159.434 0 0 .513-.125.581-.661.068-.537-.376-.297-.376-.297zm.752-.262c.215-.171.593-.148.878-.045 0 0-.081.182-.239.171-.16-.012-.081.319-.479.376-.4.056-.331-.365-.16-.502zm.25.866c-.201.08-.308.354-.114.456.193.103.17.16.159.308-.012.149.081.262.081.262s.146-.216.181-.559c.035-.342-.079-.558-.307-.467zm.662.262c.022-.217.308-.422.58-.422.273 0 .445.102.445.102s-.012.103-.217.114c-.205.012-.217.41-.559.434-.341.023-.249-.228-.249-.228zm2.038 3.931s.126-.126.32-.136c.192-.012.375.182.49.33.112.148.17.353.17.353s-.159 0-.217-.091c-.057-.091-.502-.022-.718-.182 0 0-.091.103-.204.171-.115.068-.319.011-.399.16-.079.148-.216.25-.216.25s-.046-.456.158-.684c.206-.228.297-.251.434-.228.137.023.182.057.182.057z"/>
  </g>
</svg>
