<svg xmlns="http://www.w3.org/2000/svg" viewBox="0 0 36 36">
  <path fill="#FFF" d="M25.935 18.32c-.017-.324-.222-.581-.222-.581s.308-.29.29-.718c-.018-.427-.428-.734-.428-.734s.138-.154.154-.479c.017-.325-.257-.444-.257-.444s.103-.274-.051-.445c-.154-.171-.394-.154-.394-.154s.223-.222.068-.53c-.153-.307-.427-.376-.427-.376s.068-.376-.205-.649c-.273-.274-.752-.24-.752-.24s.084-.563-.153-.803c-.24-.239-.769-.085-.769-.085.085-.206-.069-.582-.325-.752-.257-.17-.974-.103-.974-.103.051-.188-.154-.427-.462-.53-.308-.103-.615.051-.615.051s-.29-.342-.547-.359c-.256-.017-.444.103-.444.103s-.138-.308-.445-.308-.922.411-.922.411-.701-.325-1.042-.308c-.342.017-.53.239-.53.239s-.358-.206-.769-.017c-.41.188-.444.461-.444.461s-.257-.137-.667-.051c-.41.085-.461.513-.461.513s-.325-.137-.649.085c-.325.222-.239.444-.239.444s-.24-.188-.633.017c-.393.205-.393.564-.393.564s-.256-.068-.564.342c-.308.41-.256.581-.256.581s-.325.017-.513.496 0 .718 0 .718-.273.12-.479.53c-.205.411-.068.821-.068.821s-.376.171-.342.667c.034.496.359.615.359.615s-.29.154-.325.547c-.034.394.223.547.223.547s-.256.154-.273.479c-.017.323.547.513.547.513s-.205.119-.205.428c0 .307.41.442.41.442s-.171.155-.068.549c.102.392.461.392.461.392-.102.291.24.394.24.394s-.154.102.119.429c.273.322.547.203.547.203-.12.359.222.479.222.479.035.633.735.479.735.479.12.581.564.444.564.444s-.188.256.103.564c.291.309.752.204.752.204.256.411.82.563 1.453.462.632-.102 1.316-.137 1.641-.222.325-.085 2.479.017 2.479.017s.819.188 1.264-.051c.444-.24.41-.462.41-.462s.239.153.701-.067c.461-.224.376-.703.376-.703s.427 0 .667-.221c.239-.221.154-.359.154-.359s.375-.188.511-.358c.138-.172.018-.343.018-.343s.17.085.478-.188c.309-.274.273-.719.273-.719s.223.034.411-.273c.188-.309.067-.581.067-.581s.257-.19.411-.581c.153-.393.017-.805.017-.805s.204-.306.187-.631zm-2.188.65c.017.051-.137.018-.341.309-.206.289-.068.683-.068.683s-.239.188-.394.36c-.153.17-.153.495-.153.495s-.205.017-.496.255c-.29.239-.29.666-.29.666s-.205-.051-.513.207c-.308.256-.308.598-.308.598s-.223-.172-.685.051c-.462.223-.871.599-.871.599s-3.469-.034-3.726-.411c-.256-.374-.94-.203-.94-.203s.068-.225-.273-.445c-.342-.222-.667-.119-.667-.119s.188-.102.102-.275c-.085-.17-.324-.152-.324-.152s.136-.051.051-.359c-.085-.307-.581-.273-.581-.273s.222-.136.068-.427c-.154-.292-.513-.239-.513-.239s.069-.257 0-.512c-.068-.258-.341-.309-.341-.309s.222-.034.17-.343c-.051-.308-.393-.461-.393-.461s.069-.204.069-.547c0-.341-.206-.427-.206-.427s.256-.12.291-.41c.034-.29-.154-.598-.154-.598s.171-.137.24-.359c.068-.223-.035-.342-.035-.342s.223-.137.308-.377c.086-.239.051-.495.051-.495s.188-.052.359-.256c.171-.205.086-.393.086-.393s.393.017.581-.188c.188-.206.206-.462.206-.462s.239.034.547-.188c.308-.222.273-.427.273-.427s.29.085.529-.068c.24-.154.359-.427.359-.427s.085.12.444 0 .496-.239.496-.239.137.205.479.136c.342-.068.615-.29.615-.29s.052.239.428.171c.375-.069.529-.189.529-.189s-.034.256.24.325c.273.068.53-.035.53-.035s.033.189.222.223.324-.102.324-.102.034.273.326.427c.29.154.768.068.768.068s-.017.137.188.239c.206.103.41.137.41.137s-.068.29.258.393c.323.103.512.103.512.103s.034.24.153.479c.12.239.428.342.428.342s-.104.154-.051.427c.051.274.443.393.443.393s-.101.189-.034.445c.068.256.257.444.257.444s-.12.256-.137.479c-.017.222.257.82.257.82s-.273.154-.257.462c.017.303.137.56.154.611z"/>
</svg>
