<svg xmlns="http://www.w3.org/2000/svg" viewBox="0 0 36 36">
  <path fill="#DE200F" d="M11.14 16.907s-.151.226-.148.388c.002.162.159.262.25.262.376 0 .319-.433.194-.616 0 0 .126-.102.17-.308.046-.205-.136-.364-.136-.364s.216 0 .285-.228c.068-.228-.046-.456-.046-.456s.205-.034.296-.274c.091-.239-.011-.421-.011-.421s.183-.011.308-.217c.125-.205.068-.398.068-.398s.137.023.296-.183c.16-.205.114-.399.114-.399s.16-.011.308-.148c.148-.137.16-.387.16-.387s.148.011.319-.137c.171-.149.16-.296.16-.296s.183.057.387-.08c.205-.137.205-.354.205-.354s.137.08.387-.056c.251-.137.239-.32.239-.32s.148.103.398-.034c.251-.137.262-.262.262-.262s.114.091.342.011c.228-.08.308-.262.308-.262s.08.171.353.103c.274-.068.354-.285.354-.285s.114.194.331.194c.216 0 .399-.16.399-.16s.091.137.308.137c.216 0 .376-.137.376-.137s.068.092.341.114c.274.023.377-.057.377-.057s.101.171.273.216c.17.046.387-.034.387-.034s.057.171.263.251c.204.08.41 0 .41 0s-.012.193.228.273c.239.08.41 0 .41 0s.067.206.284.308c.217.103.377.08.377.08s.012.171.192.296c.183.125.377.114.377.114s0 .206.171.342c.171.137.354.171.354.171s-.08.194.046.342c.125.148.363.25.363.25s-.034.194.069.354c.103.16.308.239.308.239s.012.137.067.308c.058.171.331.273.331.273s-.103.183-.057.354.273.318.273.318-.08.092-.058.274c.023.182.217.376.217.376s-.045.102-.058.376c-.011.273.16.376.16.376s-.113.125-.125.33c-.011.206.171.399.342.387.172-.011.25-.125.229-.33-.023-.205-.195-.411-.195-.411s.149-.159.139-.353c-.014-.194-.263-.433-.263-.433s.102-.057.091-.318c-.012-.262-.239-.353-.239-.353s.079-.068.022-.342c-.057-.273-.262-.341-.262-.341s.057-.148-.034-.377c-.091-.227-.331-.285-.331-.285s0-.183-.079-.387c-.08-.206-.319-.194-.319-.194s.034-.274-.137-.433c-.171-.159-.376-.171-.376-.171s.067-.182-.137-.376c-.205-.194-.388-.114-.388-.114s0-.262-.229-.421c-.227-.16-.364-.091-.364-.091s-.011-.16-.228-.273c-.217-.114-.409-.08-.409-.08s-.012-.193-.251-.285c-.24-.09-.434-.023-.434-.023s0-.17-.262-.262c-.263-.091-.423-.022-.423-.022s-.067-.125-.273-.205c-.205-.08-.444.046-.444.046s-.16-.171-.388-.194c-.228-.023-.364.091-.364.091s-.069-.114-.331-.137c-.262-.022-.376.125-.376.125s-.045-.08-.285-.102c-.239-.023-.432.228-.432.228s-.206-.16-.422-.126-.342.216-.342.216-.125-.091-.365-.034c-.24.058-.341.239-.341.239s-.103-.057-.331.034c-.228.091-.285.331-.285.331s-.148-.103-.421.056c-.273.16-.262.296-.262.296s-.114-.045-.342.08c-.228.125-.194.387-.194.387s-.182-.08-.41.091c-.228.171-.16.376-.16.376s-.273-.012-.399.183c-.125.193-.103.41-.103.41s-.239.023-.353.205c-.114.182-.046.399-.046.399s-.216 0-.33.216c-.114.217-.045.41-.045.41s-.216.057-.297.296c-.079.239.012.399.012.399s-.251.068-.307.296c-.057.228.045.421.045.421s-.148.091-.193.319c-.043.231.105.379.105.379z"/>
</svg>
