<svg xmlns="http://www.w3.org/2000/svg" viewBox="0 0 36 36">
  <path fill="#FFE301" d="M11.14 17.17s.117.096.251 0c0 0 .091.325-.148.285-.208-.036-.103-.285-.103-.285zm.068-.621s.051.048.128.054c.077.006.142-.023.142-.023s.006.086-.028.166c-.034.08-.088.168-.19.134-.103-.034-.094-.168-.083-.225.012-.058.031-.106.031-.106zm.18-.738s.068.057.134.063c.065.005.145-.012.145-.012s-.008.094-.049.177c-.04.082-.114.136-.196.117-.083-.02-.083-.131-.08-.197.003-.065.046-.148.046-.148zm.26-.692s.045.059.105.077c.06.017.151.02.151.02s-.023.108-.06.163c-.037.054-.117.125-.194.091s-.085-.128-.068-.21c.017-.085.066-.141.066-.141zm.338-.664s.042.069.114.088c.071.019.148.019.148.019s-.031.083-.077.149c-.046.066-.129.103-.214.071-.069-.025-.074-.134-.051-.199.023-.066.08-.128.08-.128zm.408-.632s.031.069.085.105c.068.045.148.051.148.051s-.094.12-.137.154c-.042.035-.168.094-.231-.011-.048-.081 0-.165.031-.205.032-.04.104-.094.104-.094zm.441-.601s.022.083.082.119c.06.038.146.051.146.051s-.093.231-.26.206c-.168-.026-.125-.18-.091-.24.035-.06.123-.136.123-.136zm.524-.502s.04.087.077.117c.049.04.129.071.129.071s-.102.142-.22.163c-.114.02-.191-.06-.185-.148.007-.114.199-.203.199-.203zm.578-.473s.021.086.066.125c.046.04.133.085.133.085s-.108.151-.236.151-.168-.054-.168-.125c0-.071.049-.14.086-.165.036-.026.119-.071.119-.071zm.63-.412s.008.096.054.157c.032.041.123.082.123.082s-.106.13-.236.13c-.131 0-.171-.065-.171-.143 0-.077.06-.136.103-.167.041-.031.127-.059.127-.059zm.664-.329s-.005.103.026.151.117.105.117.105-.105.074-.191.086c-.084.011-.159-.003-.184-.1-.025-.097.043-.162.083-.188.038-.025.149-.054.149-.054zm.672-.298s-.003.094.043.176c.03.054.085.106.085.106s-.082.077-.225.068c-.139-.008-.164-.122-.142-.2.034-.122.239-.15.239-.15zm.746-.183s-.031.117-.003.185c.029.068.085.111.085.111s-.102.057-.217.057c-.113 0-.194-.079-.17-.194.034-.164.305-.159.305-.159zm.726-.065s-.022.083-.02.131c.005.103.062.157.062.157s-.099.052-.216.023c-.117-.029-.157-.065-.154-.163.003-.096.1-.14.168-.153.069-.015.16.005.16.005zm.436.125c-.005-.06.088-.156.276-.154-.003.005-.014.105.003.157.017.051-.279-.003-.279-.003zm.724-.017c.048-.105.265-.111.342-.068 0 0-.061.122-.031.188.028.065-.311-.12-.311-.12zm1.082.071s-.08.057-.091.122c-.012.065.022.163.022.163s-.113-.009-.197-.041c-.082-.031-.137-.116-.116-.21.017-.077.105-.103.186-.106.079-.002.196.072.196.072zm.693.242s-.046.017-.073.102c-.029.086-.007.168-.007.168-.086-.017-.15-.04-.223-.1-.068-.058-.076-.123-.042-.197.034-.073.119-.071.194-.06.073.013.151.087.151.087zm.327.225c.045-.08.231-.042.285 0 .054.043.068.08.068.08s-.062.014-.092.08c-.028.066-.008.16-.008.16s-.085-.024-.16-.072c-.074-.048-.156-.133-.093-.248zm.649.356c.048-.102.18-.083.245-.04.065.043.107.105.107.105s-.067.02-.099.08c-.031.06-.034.165-.034.165s-.1-.031-.168-.094c-.067-.062-.085-.141-.051-.216zm.621.368c.06-.074.149-.057.214-.006.065.051.107.149.107.149s-.067.017-.104.062c-.037.045-.037.136-.037.136s-.085-.025-.154-.105c-.068-.079-.071-.18-.026-.236zm.546.473c.067-.076.17-.042.221.008.051.052.103.174.103.174s-.094.006-.128.045c-.034.04-.057.137-.057.137s-.058-.034-.115-.12c-.057-.085-.077-.181-.024-.244zm.527.518c.075-.071.198-.003.231.04.048.062.062.154.062.154s-.065.011-.106.04c-.039.029-.079.123-.079.123s-.066-.034-.109-.111c-.041-.078-.066-.18.001-.246zm.556.621c.157-.006.24.188.24.188s-.159-.003-.215.125c-.054.128-.067-.173-.067-.211 0-.036.042-.102.042-.102zm.262.587c.094-.075.192-.02.229.04.037.06.071.186.071.186s-.097.008-.156.042c-.06.034-.108.106-.108.106s-.049-.062-.086-.171c-.037-.109.008-.17.05-.203zm.334.649c.093-.056.171.023.211.069.04.045.066.168.066.168s-.104.002-.149.031c-.045.028-.104.119-.104.119s-.055-.094-.078-.171c-.023-.076-.012-.176.054-.216zm.268.653c.1-.042.178.054.191.126.011.071.019.177.019.177s-.048-.023-.134 0c-.089.024-.125.065-.125.065s-.046-.08-.058-.168c-.01-.09.008-.158.107-.2zm.16.732c.139-.035.185.077.188.17.002.097-.003.143-.003.143s-.062-.02-.135 0c-.071.02-.113.08-.113.08s-.04-.092-.055-.18c-.013-.088.012-.187.118-.213zm.05.709c.101-.026.198.074.203.154.006.079.003.17.003.17s-.068-.025-.131-.014c-.062.012-.142.078-.142.078s-.026-.083-.037-.163c-.011-.079-.005-.197.104-.225z"/>
</svg>
