<svg xmlns="http://www.w3.org/2000/svg" viewBox="0 0 36 36">
  <path fill="#103800" d="M19.036 12.354l.02-.036c.001-.002.133-.25.067-.558-.052-.238-.298-.385-.497-.385-.165 0-.19.014-.192.015.003-.002.006-.009.003-.017l-.031.015-.004-.009-.129-.279.015-.007c.201-.105.508-.069.762.085.227.139.357.342.357.557 0 .509-.329.608-.332.609l-.039.01zm-.41-1.013c.212 0 .476.158.53.413.053.25-.016.456-.052.54.083-.042.268-.177.268-.56 0-.203-.124-.395-.34-.527-.234-.143-.524-.178-.714-.092l.11.241c.024-.008.077-.015.198-.015z"/>
</svg>
