<svg xmlns="http://www.w3.org/2000/svg" viewBox="0 0 36 36">
  <path fill="#103800" d="M24.606 17.16l-.015-.054c-.001-.003-.104-.377-.238-.635l-.033-.063c-.146-.275-.39-.737-.378-.994.011-.274.154-.575.16-.588l.039-.082-.007.09c0 .003-.025.352-.012.625.009.162.117.349.232.547.189.328.404.7.27 1.1l-.018.054zm-.511-2.23c-.044.111-.111.307-.119.485-.01.248.231.704.375.977l.033.063c.104.201.19.47.225.585.095-.366-.105-.711-.283-1.017-.116-.202-.227-.393-.235-.562-.012-.186-.003-.406.004-.531z"/>
</svg>
