<svg xmlns="http://www.w3.org/2000/svg" viewBox="0 0 36 36">
  <path fill="#103800" d="M24.437 21.051l-.027-.082c-.001-.003-.114-.36-.091-.668.01-.144.077-.356.155-.603.089-.28.19-.598.221-.867.055-.493.011-.846.011-.85l-.011-.084.042.073c.012.02.272.474.264.773-.007.353-.162.723-.287 1.021-.049.116-.094.226-.123.315-.102.314-.146.88-.147.885l-.007.087zm.309-2.99c.01.134.021.418-.019.774-.03.272-.132.592-.221.873-.078.245-.145.456-.155.595-.016.21.034.444.065.567.018-.175.062-.56.14-.8.03-.092.076-.202.125-.318.123-.296.277-.663.284-1.009.007-.221-.145-.54-.219-.682z"/>
</svg>
