<svg xmlns="http://www.w3.org/2000/svg" viewBox="0 0 36 36">
  <path fill="#103800" d="M11.3 21.104l.005-.062c0-.005.034-.435 0-.657-.012-.084-.095-.251-.191-.445-.162-.327-.363-.733-.356-.994.011-.409.159-.822.16-.826l.033-.092v.098c0 .005 0 .56.023.785.01.103.124.326.244.562.141.276.3.589.336.791.068.38-.208.772-.219.789l-.035.051zm-.382-2.87c-.044.146-.118.432-.125.714-.007.251.192.654.352.977.097.197.181.366.195.455.026.176.013.468.004.599.073-.122.229-.424.179-.708-.036-.197-.194-.508-.333-.781-.127-.25-.237-.466-.248-.575-.018-.166-.023-.507-.024-.681z"/>
</svg>
