<svg xmlns="http://www.w3.org/2000/svg" viewBox="0 0 36 36">
  <path fill="#103800" d="M10.982 20.742l.004-.043c0-.003.031-.353-.192-.765-.185-.343-.25-.848-.218-1.148.035-.321.333-.657.346-.671l.051-.057-.021.073c-.001.002-.069.23-.126.389-.052.147-.015.591.103.9.111.288.24.649.252.895.012.244-.158.394-.166.399l-.033.028zm-.089-2.538c-.089.114-.258.358-.283.586-.032.296.032.792.214 1.129.181.334.199.629.198.738.047-.054.132-.176.124-.341-.012-.24-.14-.599-.25-.885-.11-.289-.163-.755-.103-.923.036-.098.075-.223.1-.304z"/>
</svg>
