<svg xmlns="http://www.w3.org/2000/svg" viewBox="0 0 36 36">
  <path fill="#6B26B5" d="M17.623 11.374c-.444 0-.698-.242-.698-.665 0-.199.108-.378.297-.493.195-.118.434-.136.608-.045.175.09.743.361 1.23.361.05 0 .099-.003.146-.009.035-.004.069-.007.101-.007.375 0 .562.279.563.282l.006.008-.01-.001c-.004 0-.569-.089-.885.125-.387.261-.945.444-1.358.444zm-.042-1.253c-.119 0-.245.034-.355.102-.186.113-.293.29-.293.486 0 .417.252.657.69.657.411 0 .968-.183 1.353-.444.295-.201.806-.137.882-.127-.036-.049-.25-.315-.65-.264-.048.006-.098.009-.147.009-.49 0-1.059-.272-1.234-.363-.074-.037-.158-.056-.246-.056z"/>
</svg>
