<svg xmlns="http://www.w3.org/2000/svg" viewBox="0 0 36 36">
  <path fill="#6B26B5" d="M25.422 16.263c-.03 0-.07-.038-.122-.116-.166-.248-.542-.721-.898-.922-.402-.225-.812-.516-.812-.961 0-.475.4-.652.653-.652.589 0 .617.515.63.734l.001.021c.01.196.096.662.249.852.146.179.32.609.344.799.007.052.022.222-.033.243l-.012.002zm-1.179-2.644c-.25 0-.646.175-.646.645 0 .441.408.73.808.954.357.201.734.675.9.924.061.09.097.113.117.113l.009-.002c.033-.012.044-.102.027-.234-.023-.189-.196-.617-.342-.795-.155-.191-.241-.66-.251-.857l-.001-.021c-.012-.236-.04-.727-.621-.727z"/>
</svg>
