<svg xmlns="http://www.w3.org/2000/svg" viewBox="0 0 36 36">
  <path fill="#6B26B5" d="M25.256 20.435l-.002-.004c-.001-.001-.103-.15-.126-.39-.005-.051-.008-.108-.011-.17-.012-.227-.025-.508-.159-.741l-.044-.075c-.163-.278-.367-.625-.367-.94 0-.348.436-.653.699-.653.44 0 .597.349.597.676 0 .222-.079.417-.163.625-.049.121-.1.246-.134.378-.047.185-.061.407-.072.604-.011.183-.021.34-.054.423-.068.17-.159.263-.16.264l-.004.003zm-.01-2.965c-.261 0-.691.302-.691.645 0 .313.203.658.366.936l.045.075c.134.235.147.518.159.744.003.062.006.119.011.171.021.214.105.355.122.381.017-.019.095-.107.154-.258.033-.081.043-.237.054-.419.012-.198.024-.422.072-.606.034-.132.085-.257.134-.379.084-.207.163-.402.163-.622 0-.157-.043-.668-.589-.668z"/>
</svg>
