<svg xmlns="http://www.w3.org/2000/svg" viewBox="0 0 36 36">
  <path fill="#D1D3D4" d="M24.248 9.428c.688-.091 1.376-.153 2.06-.153.203 0 .381-.091.509-.229-.102-.395-.246-.775-.426-1.139-.028-.004-.054-.016-.083-.016-2.835 0-5.703.71-8.528 2.108.139-.043.22-.065.22-.065s.815.212 1.937.621c.652-.259 1.304-.466 1.957-.647.015.006.025.018.041.024 1.666.555 3.485 1.655 4.873 2.924.084-.582.141-1.166.169-1.68-.844-.674-1.778-1.262-2.729-1.748zM9.117 12.311c2.007-1.436 8.667-5.74 16.341-5.8-.434-.5-.941-.946-1.51-1.327-6.706.498-12.44 3.839-14.943 5.521.01.456.046 1.014.112 1.606zm.071-3.275c2.477-1.586 7.19-3.888 12.431-4.8C20.823 4 19.983 4 19.125 4H17.36c-2.725 1.059-5.152 1.857-7.022 2.887-.536.678-.934 1.314-1.15 2.149z"/>
</svg>
