<svg xmlns="http://www.w3.org/2000/svg" viewBox="0 0 36 36">
  <path fill="#FFAC33" d="M10.077 13.171c.025-.8-.026-.18-.016-.373.143-2.734 1.62.481 1.722-1.467.102-1.949 1.184-1.678 2.334-2.714.576-.519 1.725-1.533 1.725-1.533s2.646 1.794 4.833 1.909c2.186.115 4.337.92 4.222 3.106-.115 2.187 1.706-1.179 1.563 1.554-.01.195.004-.425-.052.373l.573.03c.089-1.598.086-1.537.14-2.558.372-7.106-4.956-10.039-8.236-10.211-3.279-.172-8.882 2.144-9.255 9.25-.033.633-.069 1.003-.13 2.602l.577.032z"/>
</svg>
