<svg xmlns="http://www.w3.org/2000/svg" viewBox="0 0 36 36">
  <path d="M27.651 16.677c0 .109-.089.198-.198.198h-.692c-.109 0-.198-.089-.198-.198 0-.109.089-.198.198-.198h.692c.109 0 .198.088.198.198zm1.325-.198c0 .109-.089.198-.198.198h-.692c-.109 0-.198-.089-.198-.198 0-.109.089-.198.198-.198h.692c.109-.001.198.088.198.198zm1.361.396c0 .109-.089.198-.198.198h-.692c-.109 0-.198-.089-.198-.198 0-.109.089-.198.198-.198h.692c.109 0 .198.089.198.198zm0 1.094c0 .109-.089.198-.198.198h-.692c-.109 0-.198-.089-.198-.198 0-.109.089-.198.198-.198h.692c.109 0 .198.088.198.198zm0 .725c0 .109-.089.198-.198.198h-.692c-.109 0-.198-.089-.198-.198 0-.109.089-.198.198-.198h.692c.109 0 .198.089.198.198zm-1.361-1.486c0 .109-.089.198-.198.198h-.692c-.109 0-.198-.089-.198-.198 0-.109.089-.198.198-.198h.692c.109 0 .198.089.198.198zm0 .761c0 .109-.089.198-.198.198h-.692c-.109 0-.198-.089-.198-.198 0-.109.089-.198.198-.198h.692c.109 0 .198.088.198.198zm0 .725c0 .109-.089.198-.198.198h-.692c-.109 0-.198-.089-.198-.198 0-.109.089-.198.198-.198h.692c.109 0 .198.089.198.198zm-1.325-1.288c0 .109-.089.198-.198.198h-.692c-.109 0-.198-.089-.198-.198 0-.109.089-.198.198-.198h.692c.109 0 .198.089.198.198zm0 .761c0 .109-.089.198-.198.198h-.692c-.109 0-.198-.089-.198-.198 0-.109.089-.198.198-.198h.692c.109 0 .198.089.198.198zm0 .726c0 .109-.089.198-.198.198h-.692c-.109 0-.198-.089-.198-.198 0-.109.089-.198.198-.198h.692c.109-.001.198.088.198.198z" fill="#EEE"/>
</svg>
