<svg xmlns="http://www.w3.org/2000/svg" viewBox="0 0 36 36">
  <path fill="#77B255" d="M22.874 13.517c-.268-.482-.877-.654-1.359-.385-.861.479-1.714 1.051-2.553 1.689C16.053 17.032 13.32 20.085 11 23.2c-2.584 3.469-4.654 7.011-5.852 9.541.838-10.195 5.569-20.044 13.559-28.034.391-.391.391-1.023 0-1.414s-1.023-.391-1.414 0c-.24.24-.468.487-.702.73-3.421 3.55-6.238 7.438-8.402 11.548-2.607 4.95-4.276 10.217-4.9 15.603-.674-5.697-.978-13.91 1.626-19.767.225-.505-.003-1.096-.507-1.32-.508-.227-1.097.002-1.322.507C1.76 13.577 1.141 17.095.924 20.603.638 19.991.331 19.405 0 18.881v4.343c.035.073.073.158.105.223.148.296.425.478.728.53.023 4.55.59 8.758 1.043 11.401C2.493 35.767 3.218 36 4 36h2.003c.08-1.071 2.509-6.019 6.14-11.024.103-.015.206-.033.304-.082.244-.122.516-.272.807-.433.934-.517 2.498-1.383 3.107-1.02.15.089.639.536.639 2.559 0 .553.448 1 1 1s1-.447 1-1c0-2.236-.531-3.636-1.623-4.28-.781-.46-1.666-.423-2.54-.172 2.321-2.715 4.939-5.166 7.648-6.672.484-.269.658-.876.389-1.359z"/>
</svg>
