<svg xmlns="http://www.w3.org/2000/svg" viewBox="0 0 36 36">
  <path fill="#E1E8ED" d="M29.5 28l-.012.001c.317-.419.512-.935.512-1.501 0-1.381-1.119-2.5-2.5-2.5l-.012.001c.317-.419.512-.935.512-1.501 0-1.381-1.119-2.5-2.5-2.5S23 21.119 23 22.5c0 .566.195 1.082.512 1.501L23.5 24c-1.381 0-2.5 1.119-2.5 2.5 0 .566.195 1.082.512 1.501L21.5 28c-1.381 0-2.5 1.119-2.5 2.5 0 .565.195 1.081.511 1.5h3.976l.013-.013.013.013h3.975l.013-.013.013.013h3.976c.315-.419.51-.935.51-1.5 0-1.381-1.119-2.5-2.5-2.5zm-6 1.013l-.012-.015.012.001.012-.001-.012.015zm2-1.013l-.012.001.012-.015.012.015L25.5 28zm0-2.987l-.012-.015.012.001.012-.001-.012.015zm2 4l-.012-.015.012.001.012-.001-.012.015z"/>
</svg>
