<svg xmlns="http://www.w3.org/2000/svg" viewBox="0 0 36 36">
  <path fill="#F7DECE" d="M18.973 1.123c-1.849-.728-4.732.211-5.067 2.372-.333 2.145.278 5.51 2.162 5.306 1.976-.213 4.003-.643 4.803-2.677.802-2.034-.048-4.273-1.898-5.001z"/>
  <path fill="#F7DECE" d="M20.347 6.648c2.691-3.161-3.791-2.853-3.791-2.853-1.227.045-.383 2.089-.96 3.205-.396.772 1.271 1.182 1.271 1.182s.765-.011.806.917v.008c.009.236-.016.517-.126.892-.549 1.858 1.946 2.997 2.494 1.135.217-.737.133-1.385.023-1.983l-.01-.053c-.166-.889-.372-1.668.293-2.45z"/>
</svg>
