<svg xmlns="http://www.w3.org/2000/svg" viewBox="0 0 36 36">
  <path fill="#FFAC33" d="M15.203 31.557c-.123-.229-.317-.384-.531-.496-2.032-2.172-.589-4.717-.589-4.717 0-.703 1.271-2.544 0-2.544l-1.272 1.272c-1.272 1.271-1.272 5.089-1.272 5.089H8.995c-.703 0-1.272.568-1.272 1.272 0 .701.569 1.271 1.272 1.271h1.408l-.282.153c-.618.334-.848 1.105-.514 1.726.334.616 1.106.848 1.724.514l3.357-1.816c.619-.334.846-1.105.515-1.724zm5.596 0c.123-.229.317-.384.53-.496 2.033-2.172.589-4.717.589-4.717 0-.703-1.271-2.544 0-2.544l1.272 1.272c1.273 1.271 1.273 5.089 1.273 5.089h2.544c.704 0 1.271.568 1.271 1.272 0 .701-.566 1.271-1.271 1.271h-1.408l.281.153c.62.334.848 1.105.515 1.726-.336.616-1.105.848-1.726.514l-3.356-1.816c-.619-.334-.847-1.105-.514-1.724z"/>
</svg>
