<svg xmlns="http://www.w3.org/2000/svg" viewBox="0 0 36 36" xml:space="preserve">
  <g fill="#B55005">
    <path d="m13.997 13.667-5.515 8.399a.339.339 0 0 1-.471.098.34.34 0 0 1-.098-.471l5.515-8.399.569.373zm2.25 2.303-5.005 7.826a.34.34 0 0 1-.47.103.34.34 0 0 1-.104-.47l5.005-7.826.574.367zm1.209 3.721-3.711 5.9a.34.34 0 0 1-.47.107.341.341 0 0 1-.107-.47l3.711-5.9.577.363zm2.24-1.082 4.127 5.676a.341.341 0 0 1-.274.542.338.338 0 0 1-.275-.14l-4.127-5.676.549-.402zm7.662-4.455 1.608 7.821a.34.34 0 0 1-.667.137l-1.608-7.821.667-.137z"/>
    <path d="M17.592 20.584c-.178-.242-.225-.611-.157-.906l-.679-.093c-.114.488-.009.999.287 1.403l1.315 1.782.408-.595-1.174-1.591z"/>
  </g>
</svg>
