<svg xmlns="http://www.w3.org/2000/svg" viewBox="0 0 36 36">
  <path fill="#963B22" d="M29.811 9.377C30.529 8.829 31 7.973 31 7c0-1.657-1.343-3-3-3-.395 0-.77.081-1.116.22C26.539 2.944 25.385 2 24 2c-.537 0-1.034.153-1.47.4C21.998 1.561 21.067 1 20 1c-.772 0-1.468.3-2 .779C17.468 1.3 16.772 1 16 1c-1.067 0-1.998.561-2.53 1.4-.436-.247-.933-.4-1.47-.4-1.385 0-2.539.944-2.884 2.22C8.77 4.081 8.395 4 8 4 6.343 4 5 5.343 5 7c0 1.04.529 1.955 1.333 2.493-1.26 1.834-2.051 3.661-2.458 4.882-1.125 3.375 2.827 11.418 2.437 7.437-.468-4.788 1.236-8.915 4.704-10.166C11.107 13.51 12.848 15 15 15c1.242 0 2.339-.506 3.072-1.284C18.411 15.582 20.036 17 22 17c1.275 0 2.397-.608 3.13-1.537C25.49 16.925 26.632 18 28 18c1.657 0 3-1.567 3-3.5 0-.318-.048-.621-.116-.914.069-.177.116-.368.116-.586 0-.932-.387-2.249-1.189-3.623z"/>
</svg>
