<svg xmlns="http://www.w3.org/2000/svg" viewBox="0 0 36 36">
  <path fill="#31373D" d="M28.977 16.492l.011-.006c-1.466.66-3.102.795-4.676.372-1.626-.436-3.006-1.423-3.947-2.796.019.028.034.058.054.086L19 14l-.213 1.302c1.019 1.443 2.426 2.535 4.069 3.174l-.084.311c-.408 1.521-.275 3.296-.134 5.176.184 2.45.375 4.984-.665 6.933-.978 1.829-2.921 2.919-5.205 2.919h-.032c-2.129-.01-4.063-.98-4.813-2.415-.538-1.03-.597-2.431-.66-3.912-.101-2.393-.214-5.104-2.268-7.443l-3.949-4.501-1.503 1.319 3.949 4.5c1.588 1.811 1.682 4.046 1.773 6.209.069 1.636.14 3.328.885 4.754 1.101 2.106 3.682 3.476 6.577 3.489h.042c3.035 0 5.638-1.484 6.968-3.977 1.314-2.461 1.092-5.417.895-8.025-.128-1.704-.249-3.315.071-4.506l.085-.318c.451.069.902.113 1.352.113 1.252-.001 2.487-.277 3.644-.795L30 17l-1.023-.508z"/>
</svg>
