<svg xmlns="http://www.w3.org/2000/svg" viewBox="0 0 36 36">
  <path fill="#FFCC4D" d="M22.885 17.401c.604-2.41-1.354-4.542-1.354-4.542l-.513 2.501-1.055 1.39.438.779-.437.242-1.037-1.437.384-.869 1.336-.689-1.479-.489-.896 1.043L18 16.483l-.342-1.153-.968-1.043-1.388.316 1.163.776.465.955-.953 1.483-.521-.289.438-.779-1.054-1.39-.513-2.501S12.37 14.99 12.973 17.4c.604 2.41 3.201 2.747 3.201 2.747l-1.652 1.117-.967.078-.165 1.062.876.407.77-.844 1.918-.703-1.094 1.594L18 24l2.069-1.141L19 21.351v-.062l1.84.681.761.844.872-.407-.168-1.062-.969-.078-1.652-1.117c0-.002 2.597-.34 3.201-2.749z"/>
</svg>
