<svg xmlns="http://www.w3.org/2000/svg" viewBox="0 0 36 36">
  <path fill="#292F33" d="M25.676 11.812c-.242-.036-2.877-.731-3.554-1.052-.903-.841-2.483-1.754-2.919-2.042s-.837-.637-1.828-.718h-1.639l-.751.766L13.56 8l-1.748.167c-2.198.338-4 3.024-4.794 4.151-.36.283-.685.614-.896.735-.389.223-2.813 1.505-3.334 2.005l.836 1.068c.312-.281 1.748-.596 2.748-1.046.396-.178 1.452-.296 1.982-.81l.017.017c1.396-.979 2.326-2.021 2.722-2.599L12.208 17s-.005 1.674.058 1.94c.088.372.353 1.449.353 1.884 0 0-.606 1.335-.302 2.484.403 1.529.611 3.468.653 4.008 1.412 0 2.24-.56 2.24-.56s-.278-.638-.165-1.577c.069-.572.58-1.601.58-2.45 0-.849-.095-1.367.031-1.719s.601-1.452.677-2.052c.02-.162.008-.374-.022-.6.534.292 1.493.792 2.084.954.849.232 1.494.595 1.718.79s.376.335.376.335-.201.557-.141 1.516c.055.877.433 1.658.54 2.703.893-.133 1.966-.567 1.966-.567s-.096-1.268-.078-1.848c.023-.706.412-2.193.265-2.824-.229-.981-1.5-2.047-2.677-2.948-1.177-.901-2.375-1.438-2.375-1.438.365-2.469-.005-3.781-.005-3.781s1.81.804 3.578 1.344c.577.285 2.27.562 3.989.5.432-.016.452-1.233.125-1.282z"/>
</svg>
