<svg xmlns="http://www.w3.org/2000/svg" viewBox="0 0 36 36">
  <path fill="#67757F" d="M7.265 13.194c.795-1.126 2.994-4.365 5.435-4.576 0 0 1.118 1.459 2.565 1.235 1.447-.224 1.482-1.318 1.482-1.318l1.727.149c.494.04.841.148 1.12.281-.163-.101-.304-.189-.391-.246-.435-.287-.837-.638-1.828-.719h-1.639l-.751.766L13.56 8l-1.748.167c-2.198.338-4 3.024-4.794 4.151-.36.283-.685.614-.896.735-.389.223-2.813 1.505-3.334 2.005l.288.368c1.224-.797 3.829-1.949 4.189-2.232zm15.956-1.75c.453.215 1.771.594 2.674.834-.016-.24-.089-.446-.219-.465-.2-.03-2.502-.686-3.513-1.033.212.162.682.465 1.058.664zm-2.139 11.291c-.06-.958.024-1.639-.072-1.843-.096-.204-.52-.455-.52-.455s-.201.557-.141 1.516c.055.877.433 1.658.54 2.703.309-.046.638-.128.938-.216-.613-.262-.707-1.099-.745-1.705z"/>
  <path fill="#67757F" d="M13.135 24.147c-.303-1.149.176-2.906.176-2.906 0-.435-.23-1.357-.318-1.729-.063-.266-.103-2.438-.072-2.717 3.859-.123 5.068-1.763 5.068-1.763s-2.21 1.309-5.224.906c-.347-.718-1.03-4.737-1.03-4.737-.213-.025-.499.231-.642.487L12.208 17s-.005 1.674.058 1.94c.088.372.353 1.449.353 1.884 0 0-.606 1.335-.302 2.484.403 1.529.611 3.468.653 4.008.386 0 .724-.044 1.018-.104-.688-.618-.566-1.979-.853-3.065z"/>
</svg>
