<svg xmlns="http://www.w3.org/2000/svg" viewBox="0 0 36 36">
  <path fill="#F4ABBA" d="M32.681 17.022c.003-1.113.003-1.269.003-2.315 0-2.237-.434-4.12-1.147-5.686.382.076.845.139 1.244.094-.779-.556-1.912-1.586-2.354-1.994-2.36-3.27-6.077-4.621-8.691-4.621-3.754 0-9.783 2.739-10.787 10.011l-.015-.111s-.84 2.042-1.461 3.114c.475-.155.974-.495 1.316-.758-.002.732-.018 1.244.009 3.153h.72c-.021-1-.044-.224-.044-.465 0-3.422 2.053.494 2.053-1.943 0-2.438 1.368-2.683 2.736-4.051.331-.331.821-.815 1.24-1.227 1.396.632 3.268 1.109 5.734 1.228.238.069 1.847.574 3.119 1.903-.042-.857-.384-1.432-.604-1.721 1.947.399 3.147 1.725 3.406 3.971l.011.072c-.014.374-.12 1.783-.914 3.1.686-.223 1.1-.619 1.314-.881 1.205 4.775 3.932 5.732 3.932 5.732-.555-2.414-.75-4.83-.82-6.605z"/>
</svg>
