<svg xmlns="http://www.w3.org/2000/svg" viewBox="0 0 36 36">
  <path fill="#FFE51E" d="M26.422 1.752C25.651.478 24.415-.201 22.023.298c-2.089.436-1.714 2.102-1.212 1.91 1.382-.528 2.116.237 2.589 1.369.27-.473 1.143-.648 1.189.117.051.859-.778 1.094-.712 1.337.022.082-.028-.075 0 0 .35.945 1.106 1.348 1.106 1.348s.283.169.969-.766c.684-.934 1.235-2.595.47-3.861z"/>
  <path fill="#FFE51E" d="M25.843 2.713c1.875.677.661 2.73.665 3.791.004 1.306 1.158 1.604 1.158 1.604s-.331-.74-.045-1.649c.397-1.26 1.797-2.079 1.069-3.475-.927-1.783-4.012-.692-2.847-.271z"/>
</svg>
