<svg xmlns="http://www.w3.org/2000/svg" viewBox="0 0 36 36">
  <path fill="#FFD983" d="M22 24c-1.18 0-2.122-.196-2.801-.584-.767-.438-1.208-1.143-1.208-1.933C17.992 19.628 20.332 18 23 18c.553 0 1 .448 1 1 0 .553-.447 1-1 1-1.872 0-3.008 1.03-3.008 1.483 0 .076.152.169.199.196.21.12.724.321 1.809.321 2.404 0 5-1.529 5-4 0-.721-.94-1.183-1.343-1.348-2.02-.826-5.291-.579-6.944 1.104-1.441 1.467-3.792 1.956-6.29 1.301-1.538-.402-3.319-1.338-3.705-2.761-.196-.725.008-1.436.575-2.004C11.586 12 15.871 12 19 12c.553 0 1 .448 1 1s-.447 1-1 1c-2.779 0-6.586 0-8.293 1.707-.052.053-.064.081-.064.082.023.157.571.764 1.807 1.189 1.571.541 3.676.559 4.837-.623 2.319-2.361 6.461-2.644 9.128-1.554C28.058 15.473 29 16.639 29 18c0 3.706-3.634 6-7 6zm-7 0c-7.605 0-10-5.456-10-7 0-.552.448-1 1-1 .551 0 .998.445 1 .995.036.663 1.701 5.005 8 5.005.552 0 1 .447 1 1s-.448 1-1 1z"/>
</svg>
