<svg xmlns="http://www.w3.org/2000/svg" viewBox="0 0 36 36">
  <path fill="#A97C50" d="M10.811 32.853c.091-.285.836-.061 1.113.001 6.934 1.526 11.66-1.385 11.712-1.409.272-.136.579-.034.685.224.106.258-.026.577-.296.712-.225.112-4.808 2.55-12.125.939-.091-.021-.721-.131-.781-.191-.123-.123-.37-.084-.308-.276zm-8.364-9.968c.115.114.108.212.29.165.288-.073.299-.517.255-.798-.492-3.192.36-6.504 1.841-10.352.107-.281-.027-.575-.294-.652-.272-.08-.579.084-.687.364-1.555 4.034-2.057 7.636-1.536 11.013.017.104.064.192.131.26zm10.357 9.178c.07.071.167.118.279.132 3.769.426 6.893-1.137 7.024-1.204.269-.137.4-.456.291-.714-.108-.259-.417-.356-.688-.218-.029.015-2.743 1.843-6.181 1.453-.285-.032-.826-.016-.889.275-.036.177.053.166.164.276z"/>
</svg>
