<svg xmlns="http://www.w3.org/2000/svg" viewBox="0 0 36 36">
  <path fill="#603913" d="M24.271 7.562c.707.707 1.458 1.417 1.458 1.417s2.404 2.804 3.819 4.218c4.242 4.243 2.75 10.313 2.75 10.313L20.646 7.833s2.792-1.042 3.625-.271zm1.271-1.354c-1.833-1.438-4.777-.315-5.5.396-.683.683-.467 1.984.081 2.778l10.528 15.263c.07.101.147.193.232.278.46.46 1.121.673 1.775.553.774-.142 1.393-.725 1.581-1.489.072-.293 1.705-7.223-3.277-12.205-.892-.892-1.938-1.738-2.909-2.913-.329-.423-1.186-1.441-2.074-2.328l-.437-.333z"/>
</svg>
