<svg xmlns="http://www.w3.org/2000/svg" viewBox="0 0 36 36">
  <path fill="#99AAB5" d="M10.411 6.877c-2.318 2.318-.083 8.314 4.994 13.391 5.078 5.078 11.072 7.312 13.391 4.994 2.318-2.318.083-8.313-4.994-13.391-5.076-5.078-11.072-7.313-13.391-4.994z"/>
  <path fill="#99AAB5" d="M20.199 9.939l1.176-.335c.562-.312 1.354-.333 1.896.167l1.211 1.273c.573.69 1.919 2.137 2.995 3.213 3.807 3.807 2.319 8.722 2.253 8.93-.057.182-.213.315-.401.344-.159.024-.318-.029-.429-.141-.021-.021-.04-.043-.058-.068l-8.797-12.669c-.079-.114-.108-.254-.078-.39.029-.135.113-.252.232-.324z"/>
</svg>
