<svg xmlns="http://www.w3.org/2000/svg" viewBox="0 0 36 36">
  <path fill="#292F33" d="M29.656 21.816c-.469-.527-.771-2.129-.764-2.66.002-.118-.005-.202-.014-.271.008-.613.014-1.254.014-1.959 0-8.895-6.843-10.947-10.947-10.947-4.106 0-10.949 2.053-10.949 10.947 0 .276-.002.62-.004.994-.007.05-.012.122-.011.236.013 1.156-.825 2.16-.919 3.125s.444.409.594.128c.078-.147.204-.471.359-.647.089 3.296.476 7.111 2.035 7.111 2.111 0 4.79-2.053 8.896-2.053 4.104 0 6.196 1.259 8.249 1.259.749 0 1.309-.173 1.721-.819.141.204.284.378.398.457.312.219.688.219.58-.134-.107-.353-.424-.741-.331-2.419v-.011c.096-.626.168-1.39.22-2.299.108.104.215.196.312.27.405.314 1.03.22.561-.308z"/>
</svg>
