<svg xmlns="http://www.w3.org/2000/svg" viewBox="0 0 36 36">
  <path fill="#292F33" d="M28.719 10.094c.5-.031.5-.5 0-.5s-2.049-.724-2.917-1.506l-.005-.003c-1.879-2.029-4.306-3.105-6.392-3.452.266-.251.49-.499.634-.687.195-.256.272-.674-.195-.421-.5.271-1.763.927-3.28 1.026-.131.009-.227.028-.307.053-.992-.395-2.427-.598-2.89-.537-.303.04-.56.44-.128.516.306.053.596.26.93.703-1.827.731-3.662 2.01-5.022 3.959-.032.023-.058.025-.09.058C8.375 10 6.938 11.906 6.312 12c-.459.069-.531.469-.031.438.268-.017.771.068 1.327-.033-.385 1.246-.612 2.653-.612 4.247 0 .793-.02 1.257.008 3.257h.72c-.021-1-.044-.224-.044-.465 0-3.422 2.053.494 2.053-1.943 0-1.931.86-2.491 1.897-3.317.012.154.028.305.028.473.002.491.466.5.528.094s.315-1.269 1.041-2.052c.633-.626 1.295-1.275 1.295-1.275s.347.209.905.493l.003.002c1.069.541 1.046 2.019 1.292 2.394s.446-.116.595-.594c.086-.276.12-.606.073-.935 1.037.387 2.216.707 3.291.707 2.736 0 5.474 1.375 5.474 4.112 0 2.736 2.053-1.584 2.053 1.837 0 .244-.023-.531-.04.469h.719c.006-2 .006-1.924.006-3.202 0-2.701-.637-4.881-1.631-6.616.598.064 1.173.02 1.457.003z"/>
</svg>
