<svg xmlns="http://www.w3.org/2000/svg" viewBox="0 0 36 36">
  <path fill="#DD2E44" d="M18.425 26.836s.568-.446.979-.776c0 0-.409-.721.615-1.479 1.025-.758 1.688-.396 1.688-.396s.231.09 1.038-.153c.383-.115 1.147-.307 1.147-.307s-.041-1.617-.267-2.601l-1.951-.077s-.203-.944-.529-1.22c-.328-.274-.523-.51-.771-.794-.691-.791-.6-2.399-.668-2.762 0 0-2.408.956-4.149 1.446-1.348.38-3.291.024-3.291.024.481.655 1.548 1.386 2.272 2.183.707.777 2.285 4.916 1.848 5.403-.438.487-1.062 1.535-1.062 1.535s.615.449 1.032.802c.584.493 1.072.613 1.072.613s.645-1.102.997-1.441z"/>
</svg>
