<svg xmlns="http://www.w3.org/2000/svg" viewBox="0 0 36 36">
  <path fill="#E2C196" d="M22.757 35.82c-1.04.089-2.02-.208-3 0-.475.03-.802 0-1.277-.416s.889-2.399 1.545-2.228c.683.178 2.317-.555 3.149-.446 1.129.149 1.574.683 1.485 1.604-.095.976-.862 1.397-1.902 1.486zm-11.561-2.614c.238-.624 1.188-.891 1.634-.95s1.188.208 1.693.416c.505.208 1.118.234 1.504.085.386-.149.668-.124.958 0 .078.033.423 0 .546-.067 0 0 1.79.616 1.136.824-.653.208-5.421.524-6.074.524s-1.397-.832-1.397-.832z"/>
  <path fill="#E2C196" d="M7.371 30.474c.006-.02.016-.037.022-.056.201.762.76 1.66 1.401 1.898.802.297 7.247 2.198 8.049 2.287.802.089 1.99.208 2.228.386.238.178.861.238 1.366.119.505-.119 1.782.356 2.436.208.653-.148 1.604-.445 1.782-1.247.003-.015.007-.022.011-.034.004.096.003.195-.007.302-.094.975-.861 1.396-1.901 1.485s-2.02-.208-3 0c-.475.03-.802 0-1.277-.416-.475-.416-8.287-1.515-9.713-2.465-.659-.441-1.663-1.543-1.397-2.467z"/>
</svg>
