<svg xmlns="http://www.w3.org/2000/svg" viewBox="0 0 36 36">
  <path fill="#FFAC33" d="M32.929 19.916c4.712-1.567.548-14.683-4.164-13.118-1.804.6-3.636 1.715-5.226 3.028.728-1.954 1.197-4.082 1.197-6.023 0-5.071-13.472-5.071-13.472 0 0 1.941.469 4.07 1.197 6.023C10.87 8.514 9.037 7.399 7.234 6.8 2.522 5.233-1.639 18.349 3.07 19.916c1.803.599 3.926.801 5.966.696-1.711 1.142-3.312 2.582-4.427 4.153-2.912 4.103 7.988 12.209 10.9 8.108 1.114-1.57 1.957-3.576 2.49-5.594.533 2.019 1.376 4.024 2.49 5.594 2.912 4.103 13.811-4.004 10.901-8.108-1.115-1.57-2.717-3.01-4.427-4.153 2.04.105 4.162-.097 5.966-.696z"/>
</svg>
