<svg xmlns="http://www.w3.org/2000/svg" viewBox="0 0 36 36">
  <path fill="#F4900C" d="M26.26 25.769c3.608 1.184 6.752-8.854 3.145-10.038-1.381-.453-3.005-.599-4.565-.513 1.305-.879 2.526-1.984 3.373-3.188 2.214-3.144-6.144-9.306-8.359-6.162-.848 1.204-1.486 2.738-1.888 4.282-.413-1.541-1.064-3.07-1.921-4.267-2.239-3.127-10.549 3.103-8.311 6.229.857 1.196 2.086 2.293 3.398 3.16-1.56-.074-3.183.087-4.56.55-3.599 1.213-.375 11.224 3.222 10.013 1.377-.464 2.776-1.322 3.988-2.33-.551 1.496-.903 3.124-.898 4.607.015 3.876 10.317 3.833 10.304-.042-.006-1.484-.371-3.109-.933-4.6 1.219 1.001 2.624 1.846 4.005 2.299z"/>
</svg>
