<svg xmlns="http://www.w3.org/2000/svg" viewBox="0 0 36 36">
  <path fill="#FFCC4D" d="M24.586 18.537c2.079-.691.242-6.478-1.837-5.787-.796.265-1.604.757-2.306 1.336.321-.862.528-1.801.528-2.657 0-2.237-5.944-2.237-5.944 0 0 .856.207 1.795.528 2.657-.701-.579-1.51-1.071-2.305-1.335-2.079-.691-3.915 5.095-1.837 5.787.796.264 1.732.354 2.632.307-.755.504-1.461 1.139-1.953 1.832-1.285 1.81 3.524 5.386 4.809 3.577.492-.693.863-1.578 1.098-2.468.235.891.607 1.775 1.098 2.468 1.285 1.81 6.093-1.767 4.809-3.577-.492-.693-1.199-1.328-1.953-1.832.901.045 1.837-.044 2.633-.308z"/>
</svg>
