<svg xmlns="http://www.w3.org/2000/svg" viewBox="0 0 36 36">
  <path fill="#8A4B38" d="M18.092 5.995c-9.331 0-16.895 4.584-16.895 10.239 0 5.655 7.564 10.24 16.895 10.24 9.33 0 16.895-4.585 16.895-10.24S27.422 5.995 18.092 5.995zm0 13.374c-3.174 0-5.748-.702-5.748-1.568 0-.866 2.574-1.567 5.748-1.567 3.173 0 5.747.701 5.747 1.567.001.866-2.573 1.568-5.747 1.568z"/>
  <path fill="#8A4B38" d="M1.72 14.623c-.653 1.045-.92 5.494.479 7.577 2.134 3.18 3.179 1.567 4.747 2.047 2.335.715 2.508 2.56 4.354 3.483 2.09 1.045 3.306.741 6.27 0 4.181-1.045 6.837 1.088 9.405 0 2.107-.893 3.312-4.137 4.486-4.528 3.728-1.242 4.515-7.124 1.741-9.537-.87 1.829-5.138 8.404-7.881 8.71-2.744.305-10.974 1-14.457-.784-3.484-1.785-7.01-4.006-7.446-4.616-.436-.611-1.698-2.352-1.698-2.352z"/>
</svg>
