<svg xmlns="http://www.w3.org/2000/svg" viewBox="0 0 36 36">
  <path fill="#55ACEE" d="M9.426 22.548c-.138 0-.277-.026-.412-.085-.53-.228-.776-.842-.548-1.372l.392-.914c.228-.529.843-.779 1.373-.548.53.227.776.842.548 1.372l-.392.914c-.17.395-.555.633-.961.633zm15.592-9.885c-.403 0-.787-.234-.958-.627-.232-.529.01-1.145.538-1.376l.696-.305c.53-.232 1.146.01 1.376.538.231.529-.01 1.145-.538 1.377l-.696.305c-.137.06-.279.088-.418.088zM8.035 12.62c-.078 0-.157-.009-.235-.027l-.566-.13c-.562-.13-.914-.691-.784-1.253.129-.563.691-.913 1.253-.784l.566.13c.562.13.914.691.784 1.253-.112.483-.543.811-1.018.811z"/>
</svg>
