<svg xmlns="http://www.w3.org/2000/svg" viewBox="0 0 36 36">
  <path fill="#F9D616" d="M17.452 13.646l.602 1.221 1.348.196-.975.951.231 1.343-1.206-.634-1.206.634.23-1.343-.976-.951 1.349-.196zm-2.296 3.542c.344.562 3.172 3.516 5.922 5.234.359.234 1.344.984 1.719 1.25-.156.203-.375.5-.609.75-.391-.312-3.969-2.516-5.141-3.109-1.172-.594-2.234-1.625-2.234-2.609-.001-.985.343-1.516.343-1.516zm7.828 6.609c-.172.25-.438.594-.594.781.312.047 1.109.438 1.516 1.281.406.844 1.141.406 1.078-.047s-.953-1.437-2-2.015z"/>
</svg>
