<svg xmlns="http://www.w3.org/2000/svg" viewBox="0 0 36 36">
  <path d="M24.826 18.648l.008-1.295-1.085.007c-.041-.417-.126-.82-.244-1.208l.972-.39-.438-1.219-1.046.416c-.178-.322-.384-.625-.614-.909l.699-.798-.994-.831-.625.71c-.31-.25-.641-.472-.994-.661l.454-.967-1.213-.457-.442.935c-.357-.103-.725-.176-1.104-.214l-.138 1.347c2.495.257 4.447 2.34 4.447 4.902 0 1.509-.688 2.842-1.751 3.751l.553.382 1.365 1.016.531-.578-.833-.618c.252-.303.476-.627.668-.974l1.006.408.5-1.195-1.001-.406c.112-.369.196-.751.238-1.146l1.081-.008zm-4.93 5.12l-.412-.799-.51-.243c-.464.144-.947.243-1.458.243-1.198 0-2.282-.442-3.139-1.15l-.832.979c.308.255.646.473.999.665l-.446.959 1.194.503.45-.972c.346.104.701.176 1.069.219l-.007 1.01 1.295-.014.007-.961c.404-.038.797-.114 1.175-.226l.344.994.688-.203-.431-.999.014-.005z" fill="#F9D616"/>
</svg>
