<svg xmlns="http://www.w3.org/2000/svg" viewBox="0 0 36 36">
  <path fill="#AD5810" d="M11.751 22.764c-.794.448-1.78 1.172-2.376 2.236-.688 1.229-1.218 2.033-1.584 2.544.335.207.679.402 1.032.581.353-.692.878-1.653 1.552-2.688.768-1.179 1.902-1.912 2.489-2.238-.381-.131-.756-.269-1.113-.435zm11.692-.434l-.005.002c.314.114.611.247.886.402-.19.09-.399.153-.597.233.564.415 1.348 1.092 1.96 2.032.74 1.136 1.377 2.218 1.797 2.952.26-.14.521-.278.771-.435.188.3.372.567.562.792 0 0-.562-.792-2.004-3.31s-3.37-2.668-3.37-2.668zm-2.393-3.531c.05-.055.09-.112.138-.168-.568.444-1.34 1.055-2.023 1.622-.358.297-.763.531-1.161.724.401.18.839.335 1.296.477.524-.293 1.157-.698 1.701-1.204.56-.521.892-.92 1.081-1.23-.029-.005-.054-.015-.082-.02-.341-.057-.653-.126-.95-.201zm-2.467-6.088c.732-.612 2.127-1.524 3.951-1.669-.109-.324-.233-.637-.376-.935-.583.091-1.385.249-2.158.518-.877.305-1.58.914-1.998 1.344.235.236.423.486.581.742z"/>
</svg>
