<svg xmlns="http://www.w3.org/2000/svg" viewBox="0 0 36 36">
  <path fill="#F15A29" d="M10.173 21.951H4.134l-.008-.04-.379-2.003c-.058-.032-.201-.132-.278-.345-.109-.3-.043-.693.194-1.169.088-.176.171-.334.247-.481.42-.806.651-1.25.582-2.369-.047-.746-.264-1.273-.627-1.525-.263-.182-.591-.214-.975-.097l-.086.026.023-.087c.007-.026.176-.638.762-.78.186-.438.494-.707.847-.739.407-.035.814.231 1.148.755.643 1.004 1.021 1.564 1.948 2.322.905.74 3.925 2.852 3.956 2.873l.13.091h-.619l-.826 3.568zm-5.956-.099h5.876l.825-3.568h.382c-.591-.415-3.032-2.132-3.832-2.787-.938-.768-1.32-1.332-1.968-2.345-.313-.491-.694-.744-1.055-.709-.322.029-.604.285-.774.701l-.01.024-.026.005c-.418.09-.612.458-.681.627.376-.094.701-.048.968.137.39.27.622.824.67 1.601.072 1.147-.164 1.6-.592 2.422-.076.146-.158.304-.246.479-.221.442-.287.817-.191 1.087.081.225.243.3.25.303l.024.011.005.025.375 1.987z"/>
</svg>
