<svg xmlns="http://www.w3.org/2000/svg" viewBox="0 0 36 36">
  <path fill="#292F33" d="M28.188 6.312s-2.296 6.947-2.302 8.947c-.011 3.803-2.687 7.801-2.687 7.801l1.342 3.422s3.25-3.04 3.938-10.228c.571-5.973 2.566-7.667 2.566-7.667l-2.857-2.275zm5.874 3.126S31.056 13.073 30 19c-1.438 8.062-4.857 9.746-4.857 9.746l.482 2.441s5.281-3.056 6.632-9.115C33.875 14.812 36 13.358 36 13.358l-1.938-3.92zm-30.812 14c.688-.714 3.017 3.808 4.53 4.884 1.589 1.13 5.469.935 5.701 2.162-1.668 1.704-2.763 4.273-4.84 4.988-2.078.716-5.71.677-7.238-2.647-1.528-3.325-.403-4.7.222-6.137s1.458-2.938 1.625-3.25z"/>
</svg>
