<svg xmlns="http://www.w3.org/2000/svg" viewBox="0 0 36 36">
  <path fill="#292F33" d="M25.954 32.945s4.608-1.57 6.108-3.383S36 24 36 24v6.375S34.812 32 32.312 33.313c-1.586.832-6.092 2.251-6.092 2.251l-.266-2.619zM25.01 6.08S24.063 9 23.813 12s-1.125 4.875-1.938 6.188c.312-4.25-.688-5.875-.125-8.125s.87-4.32.87-4.32.63-.368 1.255-.305 1.135.642 1.135.642zM4.753 20.504s3.934-.379 5.747.871 5.332 7.323 5.332 7.323l-1.134.753s-1.697-4.639-4.76-6.076-6-1.188-6-1.188l.815-1.683z"/>
  <path fill="#292F33" d="M5.605 18.678s5.516-.358 6.958 1.509c2.75 3.562 3.831 5.01 4.447 8.349l1.785-.307c-.794-2.917-2.607-8.104-5.919-10.292s-6.25-1.688-6.25-1.688l-1.021 2.429zm12.27-5.99c-.625.688 2 3.312 1.125 5.5s-.375 5.25.125 6.625 1.26 2.839 1.26 2.839l1.622-1.146S21.75 25 21 22.813s-.688-2.25-.375-4.438S18.5 12 17.875 12.688zm-2.83-5.859s1.142 2.046 1.08 3.046-.062 2.688-.625 3.062-.812-2-1.188-3.062-1.064-2.258-1.064-2.258 1.469-1.428 1.797-.788zm-3.544 1.79s1.793 1.398 1.73 2.398 1.144 2.607.581 2.982-1.938-1.25-2.312-2.312S10.243 9.9 10.243 9.9s.929-1.921 1.258-1.281zm-2.563 3.193s1.522.981 1.938 1.75c.415.768 2.11 1.387 1.938 1.875-.173.488-1.977-.098-2.688-.75-.711-.652-2.345-.579-2.345-.579l1.157-2.296z"/>
</svg>
