<svg xmlns="http://www.w3.org/2000/svg" viewBox="0 0 36 36">
  <path fill="#67757F" d="M30 24c0 1.104-.896 2-2 2H3c-1.104 0-2-.896-2-2s.896-2 2-2h25c1.104 0 2 .896 2 2z"/>
  <path fill="#67757F" d="M2.622 35.207c-.186.521-.758.791-1.278.605-.52-.186-.791-.758-.605-1.278l3.317-9.262c.186-.52.758-.791 1.278-.605.52.186.792.758.605 1.278l-3.317 9.262zm25.757 0c.185.521.758.791 1.277.605.52-.186.791-.758.605-1.278l-3.359-9.345c-.185-.521-.758-.791-1.277-.606-.52.186-.791.758-.605 1.278l3.359 9.346z"/>
</svg>
