<svg xmlns="http://www.w3.org/2000/svg" viewBox="0 0 36 36">
  <path fill="#FFF" d="M20.046 14.818c0 .452-.916.818-2.046.818s-2.045-.366-2.045-.818c0-.452.915-.818 2.045-.818s2.046.366 2.046.818zm-4.91 0c0 .452-.915.818-2.045.818s-2.045-.366-2.045-.818c0-.452.916-.818 2.045-.818s2.045.366 2.045.818zm9.818 0c0 .452-.915.818-2.045.818s-2.046-.366-2.046-.818c0-.452.916-.818 2.046-.818s2.045.366 2.045.818zm-4.5 2.864c0 .679-1.099 1.228-2.454 1.228s-2.455-.549-2.455-1.228c0-.677 1.099-1.227 2.455-1.227s2.454.549 2.454 1.227zm5.728 0c0 .679-1.1 1.228-2.454 1.228-1.355 0-2.455-.549-2.455-1.228 0-.677 1.1-1.227 2.455-1.227 1.354 0 2.454.549 2.454 1.227zm-11.455 0c0 .679-1.099 1.228-2.454 1.228-1.355 0-2.455-.549-2.455-1.228 0-.677 1.099-1.227 2.455-1.227 1.355 0 2.454.549 2.454 1.227zm6.545 3.681C21.272 22.269 19.807 23 18 23c-1.807 0-3.273-.731-3.273-1.637 0-.903 1.466-1.636 3.273-1.636 1.807.001 3.272.733 3.272 1.636zm7.365 0c0 .905-1.467 1.637-3.273 1.637-1.807 0-3.273-.731-3.273-1.637 0-.903 1.466-1.636 3.273-1.636 1.806.001 3.273.733 3.273 1.636zm-14.728 0c0 .905-1.466 1.637-3.273 1.637-1.807 0-3.272-.731-3.272-1.637 0-.903 1.465-1.636 3.272-1.636 1.807.001 3.273.733 3.273 1.636z"/>
</svg>
