<svg xmlns="http://www.w3.org/2000/svg" viewBox="0 0 36 36">
  <path fill="#66757F" d="M25.039 33.133c-.804.654-1.278.708-1.357 1.156-.151.855.855.855 1.86.754 1.006-.101 1.106-.905.905-1.86-.202-.955-1.408-.05-1.408-.05zm-15.938 0c-.804.654-1.278.708-1.357 1.156-.151.855.855.855 1.86.754 1.006-.101 1.106-.905.905-1.86s-1.408-.05-1.408-.05z"/>
  <path fill="#66757F" d="M19.446 23.182c1.879.01 2.338.358 2.734 1.367 1.269 3.234 1.958 2.001 2.264 4.419.311 2.453.272 4.449.708 4.676 1.004.523 2.59.817 1.11-4.995-.396-1.555-.783-4.266-.268-5.843.753-2.303.744-4.007.885-4.641-7.49.29-9.145 5.008-7.433 5.017z"/>
</svg>
