<svg xmlns="http://www.w3.org/2000/svg" viewBox="0 0 36 36">
  <path fill="#CCD6DD" d="M28.256 16.743c1.993-1.268 3.117-1.982 3.117-6.586 0-.529-.073-1.408-.603-1.408s-.352.526-.352 1.056c0 3.669-1.063 4.679-3.005 5.594-1.517-1.249-4.696-1.236-7.734-1.236-4.181 0-7.57 1.582-7.57 4.866s.89 4.571 5.071 4.571c1.45 0 2.856-.284 4.529-.647 1.837-.398 2.335.63 2.941 1.529 1.941 2.882 2.823 1.706 3.646 3.999.836 2.328 1.231 4.284 1.706 4.411 1.094.293 2.705.235 0-5.117-.724-1.432-1.69-3.995-1.529-5.646.235-2.411-.143-4.073-.143-4.723 0-.123-.062-.561-.074-.663z"/>
</svg>
