<svg xmlns="http://www.w3.org/2000/svg" viewBox="0 0 36 36">
  <path fill="#99AAB5" d="M20.914 18.184c0 4.6-1.198 7.245-5.767 7.791-5.644.675-10.032-2.963-9.608-7.544.528-5.707 3.78-7.425 7.29-7.431 4.601-.008 8.085 2.582 8.085 7.184z"/>
  <path fill="#99AAB5" d="M22.575 18.402c0 4.6-2.859 7.027-7.428 7.573-5.644.675-10.032-2.963-9.608-7.544.528-5.707 3.772-7.665 7.282-7.671 2.598-.005 5.43 0 7.179 2.607 2.123.561 2.575 3.032 2.575 5.035zm-6.132 13.409c.18 1.782-.873 2.262-2.217 2.398-1.344.136-2.471-.124-2.652-1.905-.18-1.782.763-3.338 2.108-3.474 1.344-.136 2.581 1.199 2.761 2.981z"/>
</svg>
