<svg xmlns="http://www.w3.org/2000/svg" viewBox="0 0 36 36">
  <path fill="#3D5DA7" d="M15.156 13.594c-.4.265-1.219 1.078-1.266 1.672.172-.156.375-.188.375-.188s-.234.328-.203.734c.141-.156.281-.219.281-.219s.083.375.391.766c.156-.094.203-.25.203-.25s.094.328.422.578c.12-.031.12-.172.12-.172s.193.406.99.578c-.141-.266.312-.635.141-1.052.14.083.281.286.281.286s.14-.203-.141-.578c.172.156.266.292.266.292s.108-.651-.266-1.058c.235.094.438.203.438.203s-.039-.787-.625-1.141c-.751-.451-1.407-.123-1.407-.451zm-11 4.312s.359.328-.141.375c-.5.047-.906.641-.891 1.234l.266-.125s-.078.406.047.672c.109-.266.266-.25.266-.25s.031.391.094.688c.125-.156.109-.328.109-.328s.188.062.281.328.141.469.359.594c.094-.047.141-.172.141-.172s.188.156.484.281c-.062-.422.344-.375.516-.672.062.078.078.234.078.234s.125-.234.125-.469.141-.422.141-.422.016.109 0 .281c.141-.078.172-.969.109-1.25.094.078.172.25.172.25s.109-.453 0-.742-.422-.524-.812-.383c-.391.141-.969-.234-.969-.234s.094.234-.031.312-.016-.124-.344-.202zm27.391-.156s-.312.109-.812.578-.656 1.266-.656 1.266.281-.234.391-.266c-.266.609.25.891.172 1.375.203-.031.391-.391.391-.391s.375.672.906 1.047c.125-.359.484-.656.484-.656l.078.203.219-.547.156.266s.141-.307 0-.646c.021.061.234.224.234.224v-.75s.125.234.219.297c0-.328-.188-.562-.109-.703l.109.193s.094-.521-.453-.928c-.547-.406-1.057-.375-1.169-.32-.113.055-.16-.242-.16-.242z"/>
</svg>
