<svg xmlns="http://www.w3.org/2000/svg" viewBox="0 0 36 36">
  <path fill="#A70000" d="M14.859 14.578c.29-.088.188.844-.156 1.219.188-.641-.203-1.109.156-1.219zm.68-.266c.069-.24.569.391 1.21.422-.561.094-1.296-.125-1.21-.422zm-.195.969c.17-.079.219.859 0 1.125.031-.468-.235-1.015 0-1.125zm.625-.234c-.217.059.421.578.781.547-.338-.064-.438-.641-.781-.547zm-.125.995c-.226 0 0 .599.406.739-.141-.219-.042-.739-.406-.739zm-11.61 2.567c.206 0-.062.703-.5.984.235-.343.204-.984.5-.984zm.672-.109c-.167.128.297.699.828.74-.343-.24-.625-.895-.828-.74zm-.5.906c.124-.021.148.653-.203.828.188-.437.016-.796.203-.828zm.594 0c.207-.127.31.402.609.573-.5-.12-.812-.448-.609-.573zm-.257.5c.207-.091.319.659 0 .875.116-.484-.18-.797 0-.875zm26.413-.666c.216-.006-.172.635-.5.807.313-.469.266-.801.5-.807zm.782-.334c-.161.111.297.422.516.422-.271-.084-.313-.562-.516-.422zm-.563 1.073c.165-.126.234.286 0 .583.143-.302-.219-.416 0-.583zm.672-.424c-.171.069.156.555.406.586-.273-.168-.156-.688-.406-.586zm-.235.492c.142-.107.432.594.091.953.162-.521-.359-.75-.091-.953z"/>
</svg>
