<svg xmlns="http://www.w3.org/2000/svg" viewBox="0 0 36 36">
  <path d="M18.979 22.354c-.438-.208-1.188-.458-1.167-.646s.583-.25 1.104-.312c.521-.062.5-.312.354-.438s-.75-.292-1.104-.5-.021-.396.297-.646.328-.541.328-.75.25-.646.667-.917.021-.312-.312-.479-.313-.729-.25-1.146.042-.646-.104-.667-.229-.146-.312-.261c-.083-.115 0-.323-.312-.364s-.292-.146-.375-.333-.354-.479-.479-.833c-.105-.298.149-.863.828-1.519-4.993.019-9.036 5.488-9.036 5.488s4.058 5.49 9.063 5.49c.641 0 1.266-.092 1.868-.249-.143-.587-.705-.75-1.058-.918z"/>
</svg>
