<svg xmlns="http://www.w3.org/2000/svg" viewBox="0 0 36 36">
  <path fill="#3B94D9" d="M19 5.5c-.829 0-1.5.671-1.5 1.5 0-.829-.671-1.5-1.5-1.5s-1.5.671-1.5 1.5c0-.829-.671-1.5-1.5-1.5s-1.5.671-1.5 1.5c0-.829-.671-1.5-1.5-1.5S8.5 6.171 8.5 7c0-.829-.671-1.5-1.5-1.5S5.5 6.171 5.5 7v2c0 .829.671 1.5 1.5 1.5S8.5 9.829 8.5 9c0 .829.671 1.5 1.5 1.5s1.5-.671 1.5-1.5c0 .829.671 1.5 1.5 1.5s1.5-.671 1.5-1.5c0 .829.671 1.5 1.5 1.5s1.5-.671 1.5-1.5c0 .829.671 1.5 1.5 1.5.828 0 1.5-.671 1.5-1.5V7c0-.829-.672-1.5-1.5-1.5z"/>
</svg>
