<svg xmlns="http://www.w3.org/2000/svg" viewBox="0 0 36 36">
  <path fill="#BE1931" d="M19 12.5c-.829 0-1.5.671-1.5 1.5 0-.829-.671-1.5-1.5-1.5s-1.5.671-1.5 1.5c0-.829-.671-1.5-1.5-1.5s-1.5.671-1.5 1.5c0-.829-.671-1.5-1.5-1.5s-1.5.671-1.5 1.5c0-.829-.671-1.5-1.5-1.5s-1.5.671-1.5 1.5v2c0 .829.671 1.5 1.5 1.5s1.5-.671 1.5-1.5c0 .829.671 1.5 1.5 1.5s1.5-.671 1.5-1.5c0 .829.671 1.5 1.5 1.5s1.5-.671 1.5-1.5c0 .829.671 1.5 1.5 1.5s1.5-.671 1.5-1.5c0 .829.671 1.5 1.5 1.5.828 0 1.5-.671 1.5-1.5v-2c0-.829-.672-1.5-1.5-1.5z"/>
</svg>
