<svg xmlns="http://www.w3.org/2000/svg" viewBox="0 0 36 36">
  <path fill="#FFAC33" d="M19 26.5c-.829 0-1.5.672-1.5 1.5 0-.828-.671-1.5-1.5-1.5s-1.5.672-1.5 1.5c0-.828-.671-1.5-1.5-1.5s-1.5.672-1.5 1.5c0-.828-.671-1.5-1.5-1.5s-1.5.672-1.5 1.5c0-.828-.671-1.5-1.5-1.5s-1.5.672-1.5 1.5v2c0 .828.671 1.5 1.5 1.5s1.5-.672 1.5-1.5c0 .828.671 1.5 1.5 1.5s1.5-.672 1.5-1.5c0 .828.671 1.5 1.5 1.5s1.5-.672 1.5-1.5c0 .828.671 1.5 1.5 1.5s1.5-.672 1.5-1.5c0 .828.671 1.5 1.5 1.5.828 0 1.5-.672 1.5-1.5v-2c0-.828-.672-1.5-1.5-1.5z"/>
</svg>
