<svg xmlns="http://www.w3.org/2000/svg" viewBox="0 0 36 36">
  <path d="M17.79 12.618l-.366.552-.627-.147-.017-.004.411.519-.334.55-.009.016.621-.231.433.502-.029-.663.594-.25.017-.007-.639-.177zm-4.579 4.06l-.002-.018-.342.567-.652-.125.433.502-.31.564-.009.016.611-.257.44.469.013.014-.056-.66.583-.274.017-.008-.645-.151zm10.348-.192l-.643-.163-.07-.659-.353.56-.631-.133-.017-.004.423.51-.323.558-.008.016.615-.246.431.479.013.013-.042-.661.588-.262zm-7.84 5.584l-.002-.017-.34.568-.632-.117-.018-.004.435.499-.306.567-.009.016.609-.261.443.467.013.014-.06-.659.582-.279.016-.008-.646-.146zm5.777-.507l-.001-.018-.373.549-.625-.156-.018-.004.405.524-.341.547-.009.015.623-.224.413.493.012.015-.018-.662.596-.243.018-.006-.636-.186z" fill="#DE2910"/>
</svg>
