<svg xmlns="http://www.w3.org/2000/svg" viewBox="0 0 36 36">
  <path fill="#CCD6DD" d="M5.26 6.328c-.044.049-.058.12-.032.185.037.09.14.133.23.096l1.16-.595c.091-.039.133-.14.096-.231-.037-.09-.14-.133-.23-.096l-1.16.595c-.025.012-.046.027-.064.046zm-.395-.779c-.044.049-.058.12-.032.185.037.09.14.133.23.096l1.09-.48c.091-.039.133-.14.096-.231-.037-.09-.14-.133-.23-.096l-1.09.48c-.025.012-.047.027-.064.046zm-.318-.737c-.059.047-.083.128-.055.202.036.091.138.136.228.1l.974-.415c.094-.037.136-.137.101-.229-.035-.09-.137-.135-.228-.099l-.974.415c-.018.006-.033.015-.046.026zm-.244-.697c-.073.041-.107.13-.079.211.032.092.133.14.224.108l.934-.349c.098-.036.14-.133.108-.225-.032-.092-.133-.14-.224-.108l-.934.35c-.011.003-.02.008-.029.013z"/>
</svg>
