<svg xmlns="http://www.w3.org/2000/svg" viewBox="0 0 36 36">
  <path fill="#60352A" d="M29.96 23.087C34 27 34.043 34.021 33.021 34.021s-4.115-1.852-6.068-3.937C25 28 25.203 23.306 25.203 23.306l1.586-4.319c0-.001-.869.187 3.171 4.1z"/>
  <path fill="#60352A" d="M26.96 23.087C31 27 31.043 34.021 30.021 34.021s-4.115-1.852-6.068-3.937C22 28 22.203 23.306 22.203 23.306l1.586-4.319c0-.001-.869.187 3.171 4.1zM3 34c-1 0-1-7 3-11s3-4 3-4l2 4s0 5-2 7-5 4-6 4z"/>
  <path fill="#60352A" d="M6 34c-1 0-1-7 3-11s3-4 3-4l2 4s0 5-2 7-5 4-6 4z"/>
</svg>
