<svg xmlns="http://www.w3.org/2000/svg" viewBox="0 0 36 36">
  <path fill="#FFAC33" d="M7.197 2.672c-1.037-.214-1.453.898-2.261 1.216-.609.24-1.265.171-1.684-.192 0 0 .535.835 1.204 1.21.87.487 2.027.382 2.6.159.896-.35 1.12-1.245 1.12-1.245s.279-.889-.979-1.148z"/>
  <path fill="#FFAC33" d="M12.474 2.54c-.56-.5-2.086-.839-3.199-.412-1.257.482-1.692 1.594-1.638 2.8.032.715.426 1.744.678 1.821.387.118.733-.531.571-.569-.3-.071-.369-1.026-.084-1.244.3-.229.525.064.559.334.034.27.121 1.037.121 1.037s.068-.948.367-1.212c.298-.264 1.538-.047 2.218-1.264 0 0 .393.207.662.739.221.44.181 1.411.181 1.411s.319-.564.561-1.117c.276-.633-.279-1.682-.997-2.324z"/>
</svg>
