<svg xmlns="http://www.w3.org/2000/svg" viewBox="0 0 36 36">
  <path fill="#F9CA55" d="M26.506 13.359c-.655 1.039-1.508 2.081-2.078 2.228-.428.111-1.28.317-1.847.663-.567.345-.483.7.255 1.063.737.364 1.703.209 2.208-.352.505-.562 1.834-1.453 2.656-1.981.82-.527-.702-2.401-1.194-1.621z"/>
  <path fill="#F9CA55" d="M26.259 13.863c.287-.48.958-1.044.958-1.044l-.387-2.473 3.029.12s-.421 2.558-.549 3.137c-.127.579-1.305 1.332-2.087 1.666-.781.334-1.285-.869-.964-1.406zm5.241 9.949s-3.5-1.299-3.5-.375C28 24.36 31.25 26 32.438 28c.479.808 2.23 1.372 1.875-.375-.687-3.38-2.813-3.813-2.813-3.813z"/>
  <path fill="#F9CA55" d="M28.99 23.447s1.303 1.517 2.135 1.115 2.445-3.768 2.875-5-.491-3.736-1.752-2.104c-1.261 1.634-3.258 5.989-3.258 5.989z"/>
</svg>
