<svg xmlns="http://www.w3.org/2000/svg" viewBox="0 0 36 36">
  <path fill="#FFDC5D" d="M26.995 5.054l1.014 2.162-2.562 1.035-1.057-1.77z"/>
  <path fill="#FFDC5D" d="M27.474 4.856c-.178 1.588-1.526 2.277-2.88 2.804-1.291.502-2.363-1.756-2.536-3.333-.175-1.588 1.681-2.8 3.124-2.638s2.47 1.579 2.292 3.167zM22.5 13.438c-1.312.875-2.812 2.5-3.625 2.625-.988.152-1.688-.938-2.59.366-.569.822.34 1.696 2.215 1.696 1.079 0 4.091-1.626 5.25-2.438 1.25-.875 1.528-1.867 1.982-3.061.051-.134.106-.069.197.085L30.5 8.062c-2.521-1.908-3.59-.753-5.382.134-1.267.628-1.868 2.366-2.618 5.242z"/>
</svg>
