<svg xmlns="http://www.w3.org/2000/svg" viewBox="0 0 36 36">
  <path fill="#9266CC" d="M29.999 16c3.209-1.291 4.563-3.062 4.563-3.062C33 11.188 32.095 9.269 30.5 8.062c-.354-.267-.676-.469-.978-.625.125.229.106.47-.334.625-.952.336-2.056-.277-3.219-.318-.205.112-.416.228-.637.343.978.12 1.86.977 1.903 2.21.047 1.344-1.375 2.328-1.375 2.328s.26.536.849 1.042c.588.505 1.994.849 3.29 2.333zm-3.071 15.773s.705 1.226 1.931.52c1.226-.705.445 2.191.445 2.191s-3.417 1.151-5.348.63-.705-1.226.521-1.931l2.451-1.41z"/>
</svg>
