<svg xmlns="http://www.w3.org/2000/svg" viewBox="0 0 36 36">
  <path fill="#FFAC33" d="M26.815 1.812c-.495-.339-1.024-.538-1.609-.559-.768-.028-1.608.297-2.677 1.02-.982.665-.869 1.927-.534 2.131.034.008.063.032.098.034.023.001.042-.007.064-.007.485-.015.827-.447 1.373-.51.255-.029.551.015.937.237.059.034.109.096.154.167.224.35.295 1.038.295 1.038s.027-.785.056-1.06c.028-.256.29-.547.626-.157.292.338.125.986-.085 1.05-.162.049.09.448.485.757.721.563 1.378.333 1.378.333s.305.034.526-1.022c.221-1.056.049-2.675-1.087-3.452z"/>
  <path fill="#FFAC33" d="M27.636 4.5s-.656-.872.631-1.65c1.061-.642 1.956.422 2.972.457.767.026 1.463-.307 1.784-.872 0 0-.264 1.132-.856 1.807-.77.878-2.088 1.215-2.808 1.193-1.126-.034-1.723-.935-1.723-.935z"/>
</svg>
