<svg xmlns="http://www.w3.org/2000/svg" viewBox="0 0 36 36">
  <path fill="#F7DECE" d="M21.96.974c-1.285-.762-3.537-.411-4.045 1.152-.504 1.552-.455 4.123.968 4.198 1.492.079 3.048.003 3.886-1.41.838-1.414.476-3.178-.809-3.94z"/>
  <path fill="#F7DECE" d="M22.316 5.239c2.376-2.023-2.471-2.572-2.471-2.572-.916-.114-.535 1.504-1.097 2.263-.387.526.801 1.03.801 1.03s.569.083.488.777l-.001.006c-.021.177-.074.382-.2.647-.631 1.313 1.085 2.458 1.715 1.142.249-.521.265-1.012.255-1.469l-.001-.041c-.017-.68-.076-1.283.511-1.783z"/>
</svg>
