<svg xmlns="http://www.w3.org/2000/svg" viewBox="0 0 36 36">
  <path fill="#292F33" d="M23.439 1.781C22.698.564 21.481-.216 19.225.4c-.919.251-1.279.045-1.429.196-.718.726-.068 1.766.273 1.634 1.082-.417 1.946-.101 2.106.353.16.454-.171 1.169.013 1.204.496.094.494-.407.737-.657.397-.408.847-.068.872.461.02.419-.177 1.095-.86 1.109.29 1.065 1.134 1.511 1.134 1.511s.271.161.925-.735c.655-.896 1.178-2.486.443-3.695zM8.211 30.079s.097-.127.175-.426c.078-.299.069-.897.047-.988-.022-.091-.053-.16-.163-.158-.083.001-.759.146-1.144.061-.716-.158-.892-.883-.892-.883s-.452.123-.812.223c-.361.101-.796.279-1.106.372-.265.079-.543.078-.823.041-.279-.036-.496-.105-.563-.116s-.597-.219-.757.317l-.037.159s.871.645 2.209.993 1.646.009 2.511.234 1.355.171 1.355.171z"/>
  <path fill="#292F33" d="M6.262 30.488c-.044-.066-.065-.248-.109-.284-.043-.036-.585-.059-.839-.064-.254-.005-.691-.016-1.175-.142s-1.074-.431-1.436-.629-.632-.407-.689-.468c-.057-.061-.033-.075-.02-.106.013-.031.103-.186.103-.186s.214.195.607.407.792.399 1.514.587 1.204.199 1.606.195c.501-.004 1.215.035 1.701.162.375.098.668.056.776.056.025 0 .043.023.036.048l-.167.64c-.011.042-.07.128-.186.122-.114-.004-1.679-.271-1.722-.338z"/>
</svg>
