<svg xmlns="http://www.w3.org/2000/svg" viewBox="0 0 36 36">
  <path fill="#99AAB5" d="M5.864 24.272C2.626 24.272 0 26.897 0 30.136S2.626 36 5.864 36s5.864-2.625 5.864-5.864-2.625-5.864-5.864-5.864zm0 10.053c-2.313 0-4.189-1.875-4.189-4.189 0-2.313 1.875-4.189 4.189-4.189s4.189 1.875 4.189 4.189c0 2.313-1.875 4.189-4.189 4.189zM19.67 3.938c-1.131 1.131-1.924 2.197-2.441 3.211-.427.835-.241 1.852.422 2.515l8.684 8.684c.663.663 1.68.849 2.515.422 1.014-.518 2.08-1.31 3.211-2.441 5.133-5.133 4.381-9.929.959-13.351s-8.217-4.173-13.35.96z"/>
</svg>
