<svg xmlns="http://www.w3.org/2000/svg" viewBox="0 0 36 36">
  <path fill="#7C533E" d="M16.778 12.286v2.444c0 .675.547 1.222 1.222 1.222.675 0 1.222-.547 1.222-1.222v-2.444h-2.444z"/>
  <path fill="#7C533E" d="M21.221 8.091c-.276-.382-.629-.69-1.403-.798.29.133.569.593.605.847.036.254.073.46-.157.206-.921-1.018-1.924-.617-2.917-1.239-.694-.434-.905-.915-.905-.915s-.085.641-1.137 1.294c-.305.189-.669.611-.871 1.234-.145.448-.1.847-.1 1.529 0 1.991 1.641 3.666 3.666 3.666s3.666-1.689 3.666-3.666c-.002-1.238-.132-1.722-.447-2.158z"/>
</svg>
