<svg xmlns="http://www.w3.org/2000/svg" viewBox="0 0 36 36">
  <path fill="#F4900C" d="M8.482 23.321c.493 0 .893-.399.893-.893v-9.821c0-.493-.399-.893-.893-.893-.493 0-.893.399-.893.893v9.821c0 .494.4.893.893.893zm4.464 0c.493 0 .893-.399.893-.893v-9.821c0-.493-.399-.893-.893-.893-.493 0-.893.399-.893.893v9.821c.001.494.4.893.893.893zM5.357 8.575V5.464h15.179v4.878c-.292.107-.604.175-.933.175-1.138 0-2.111-.701-2.516-1.694-.238.206-.545.334-.883.334-.46 0-.865-.23-1.111-.58-.483.756-1.324 1.26-2.288 1.26-.884 0-1.663-.429-2.159-1.083-.248.633-.86 1.083-1.58 1.083-.645 0-1.199-.364-1.488-.893-.27.132-.57.213-.892.213-.882 0-1.329-.582-1.329-.582z"/>
</svg>
