<svg xmlns="http://www.w3.org/2000/svg" viewBox="0 0 36 36">
  <path d="M30.495 6.514c-.256 0-.512-.098-.707-.293-.391-.391-.391-1.024 0-1.415l3.552-3.55c.391-.39 1.023-.39 1.414 0s.391 1.024 0 1.415l-3.552 3.55c-.195.196-.451.293-.707.293zm-4.164-1.697c-.109 0-.221-.019-.33-.057-.521-.182-.796-.752-.614-1.274l.97-2.773c.183-.521.752-.796 1.274-.614.521.182.796.752.614 1.274l-.97 2.773c-.144.413-.531.671-.944.671zm6.143 5.774c-.412 0-.798-.257-.943-.667-.184-.521.09-1.092.61-1.276l2.494-.881c.522-.185 1.092.09 1.276.61.184.521-.09 1.092-.61 1.276l-2.494.881c-.111.039-.223.057-.333.057z" fill="#FA743E"/>
</svg>
