<svg xmlns="http://www.w3.org/2000/svg" viewBox="0 0 36 36">
  <path fill="#EF9645" d="M27.894 23.077c-.262 0-.481-.202-.499-.467-.019-.275.19-.514.466-.532.991-.066 1.563-.676 1.869-1.177.514-.842.655-2.045.329-2.799-.109-.253.007-.548.261-.658.252-.108.547.007.657.26.458 1.059.296 2.587-.394 3.718-.605.992-1.549 1.579-2.656 1.653-.011.002-.022.002-.033.002zM6.766 28H4.069c-.825 0-1.927.476-1.927 1.301 0 .005.627-.249 1.886-.249l2.738.001c.291 0 .526-.236.526-.526 0-.291-.235-.527-.526-.527zm.897-1.839H5.858c-.544 0-1.006.352-1.18.839h2.985c.231 0 .419-.189.419-.419.001-.231-.188-.42-.419-.42zm.884-1.445H7.133c-.362 0-.669.234-.785.558h2.199c.153 0 .279-.126.279-.279 0-.153-.126-.279-.279-.279zm.732-1.034h-.797c-.214 0-.396.139-.465.33h1.262c.091 0 .165-.074.165-.165 0-.091-.074-.165-.165-.165z"/>
</svg>
