<svg xmlns="http://www.w3.org/2000/svg" viewBox="0 0 36 36">
  <path fill="#C1694F" d="M22.533 17.955c.09.07.243-.729.22-.978 0-.017-.029-.546.083-.924.069-.128.073-1.083-.033-1.334.084-.007.185-.034.197-.136-.388.143-.479-.817-.852-1.369-.362-.553-.811-.875-1.28-1.211.035-.094.091-.182.162-.27-.575.288-1.471-.755-2.795-.677-.297.029-.438.047-.514.229-.247.02-.498.076-.498.401 0 .078.071.22.229.221.216.063.392.014.539.316l.039.312s-.193-.247-.299-.286l.065-.133c-.1-.058-.277-.011-.277-.011s-.385-.18-.694-.132l-.06-.25c-.054.154-.175.146-.192.291-.034-.104-.079-.233-.111-.337-.109.148-.077.308-.116.462-.042.036-.128.037-.15-.062-.011-.122-.026-.133-.026-.278-.078.137-.172.204-.203.439l-.083-.26c.003.307-.261.49-.511.707-.071.13.011.131.017.198l.132.066.237-.017c.039.049.007.053.11.084.276.077.62-.254.89.267-.124.104-.249.347-.209.393.05 0-.1.07.102.006-.21.204-.352.473-.352.489-.024.058.084-.008.062.097l.05-.006c-.479.518-.016 1.075-.067 1.374.08.129.09-.003.19-.016.084.368.326.591.474.882l-.312.003c.007.138.132.269.231.39l-.209.066c-.149.076-.247.157-.352.274-.069.168.333.208.527.238l-.007.203c.303.029.653-.061.653-.078l.076-.059.171.094c.057 0 .146-.228.105-.403.11.131.214.342.324.474l.103-.014c.094.149.223.297.317.446l.105.04c.061-.021.113-.028.146-.148l.048.084.166-.114.116-.023.087.142c.051-.019.101-.13.104-.248.052.103.066.095.104.122l.077-.162.415.388.314.018c.112.076.419.124.471.001.252.108.549-.014.534-.134.232.092.589.03.589.015.043-.005.153-.113.049-.194-.767-.534-1.904-1.418-2.343-1.631 0-.158-.119-.727-.247-.883l.104-.174c.299.279.407.252.566.296.17.135.229.34.399.527l.152.028c-.105-.267-.236-.526-.554-.873.164.082.436.301.618.46.12.201.155.361.265.613.08.051.162.238.151.083-.019-.291-.224-.752-.224-.785.326.258.322.66.421.905.083.124.125.29.161.251l-.096-.756-.056-.277c.241.139.327.669.44 1.305 0 .101.041.212.035.277.052.064.111.241.11.136 0 0 0-1.034-.071-1.271-.018-.127.03-.333.03-.333.088.429.182.894.271 1.322v.315l.132.133c.025-.26.055-.518.081-.776l-.099-.925v-.264c-.002-.093.085-.076.14.03.013.227.013.404.022.63.039.258.066.447.085.776.011.266.023.904.079.893z"/>
</svg>
