<svg xmlns="http://www.w3.org/2000/svg" viewBox="0 0 36 36">
  <path d="M13.543 20.269c-.092-.18-.278-.28-.468-.271-.069.002-.14.02-.205.053-.247.125-.344.427-.219.673.09.177.189.35.296.516v.001l.004.006v.001l.008.011v.001l.003.006.001.002.004.005v.001l.003.005v.002l.003.005.001.002.003.005.001.002.003.004.002.003.002.003.001.003.003.005.001.001.002.003.003.006.001.002.003.005.001.002.007.01v.001l.005.007v.001c.052.077.105.151.161.226.102.138.262.206.421.2.096-.004.193-.036.276-.099.222-.164.268-.478.103-.699-.158-.226-.305-.464-.43-.71zm-.497-1.582c-.021-.156-.036-.315-.043-.477-.005-.12-.005-.238-.003-.356.008-.275-.209-.506-.485-.514l-.036.001c-.26.011-.471.221-.478.485-.002.104-.003.207-.001.311v.09l.001.005v.028l.001.003-.001.002v.003l.001.002v.029l.001.003v.011l.001.019.001.009v.011c.009.16.025.319.046.477.036.257.261.44.515.43.016-.001.032-.002.047-.005.281-.04.471-.293.433-.567zm5.294 4.3l-.006.001-.124.008c-.237.009-.477.003-.71-.021-.024-.003-.047-.003-.071-.002-.245.01-.451.2-.476.45-.027.274.173.519.447.547l.125.011.004.001.002-.001.003.001h.002l.006.001h.006l.003.001h.001l.006-.001.003.001h.005l.006.001.005.001h.013l.006.001h.013c.152.01.305.015.459.012h.039l.007-.001.006.001h.015l.005-.001h.019l.006-.001h.001l.005.001.001-.001.006.001h.001l.005-.001h.008l.006-.001h.006l.001.001.006-.001h.007l.005-.001h.02l.005-.001h.004l.004-.001.004.001h.005l.004-.001h.005c.042-.001.085-.005.127-.007.269-.022.471-.255.453-.526-.007-.272-.242-.483-.514-.473zm-2.439-.448c-.251-.116-.495-.255-.724-.411-.092-.064-.199-.091-.303-.087-.152.006-.3.08-.393.217-.155.227-.098.539.13.694l.001.001.006.003.006.006.006.004.006.005c.266.181.548.34.842.476.074.035.153.049.23.046.182-.008.352-.113.433-.289.119-.251.01-.549-.24-.665zm5.03-.398c-.085.004-.171.03-.248.08-.233.148-.481.279-.734.387-.255.106-.375.399-.267.655.084.197.279.312.48.305.059-.002.116-.016.173-.038l.134-.06h.002l.006-.004.002-.001.004-.002h.004l.004-.002.002-.002.006-.001.002-.002.003-.002.005-.002.003-.001.005-.002.002-.001.005-.002.002-.001c.003-.002.003-.003.005-.003l.002-.001.006-.003h.002l.006-.003.006-.003.002-.001.005-.003.002-.001.006-.003.001-.001.007-.001.007-.004.002-.001.004-.003h.002l.006-.004.008-.002.006-.004h.001l.007-.004.001-.001.014-.006.007-.003.014-.008.008-.003.006-.003h.001l.014-.008v-.001l.006-.002h.001l.022-.012.007-.002.014-.008.007-.004h.001c.001-.001.003-.002.007-.002.002-.003.004-.004.006-.005l.008-.004.006-.003v-.001l.014-.006h.001l.007-.004.001-.001.005-.003h.001l.007-.004.006-.003h.002l.006-.004v-.001l.007-.003.001-.001.006-.003v-.001l.006-.002.002-.001.004-.003.003-.001.005-.003.002-.001.005-.003.002-.001.006-.002c-.001-.001 0-.001.001-.001l.006-.003.002-.001.004-.003.002-.001.006-.003.002-.001c0-.002.002-.002.004-.003l.003-.001.004-.002.003-.002.004-.002.003-.002.003-.002.003-.003.005-.001.004-.001.002-.002.004-.002.004-.003.002-.001.004-.002.004-.003.003-.002c.002.001.003 0 .005-.001l.002-.002.004-.002.003-.002.003-.002.004-.002.004-.003.002-.001c.002-.001.006-.001.008-.003-.002-.001-.002-.001 0-.001l.004-.002.007-.005.002-.001.007-.003v-.001l.012-.006.008-.005c.006-.004.012-.008.02-.011h.001c.063-.038.128-.077.19-.117.232-.15.301-.457.152-.69-.115-.149-.285-.232-.457-.225zm2.571-4.618l-.024.001c-.266.011-.478.229-.479.498 0 .277-.025.557-.072.829-.047.271.137.531.408.577.036.006.071.009.106.008.23-.01.432-.179.473-.417v-.005l.001-.002.001-.002-.001-.002.001-.002v-.002l.001-.002v-.003l.001-.002v-.009c.002-.001.002-.003.002-.004v-.006c.021-.129.039-.259.052-.391l-.001-.001.001-.003v-.001l.001-.004v-.011l.002-.003v-.001l-.001-.003v-.002l.001-.003v-.004l.002-.001-.002-.003v-.004c.002-.001.002-.002.002-.003v-.019l.002-.003v-.001c.013-.163.021-.328.021-.495 0-.273-.222-.498-.498-.499zm-.443 2.696c-.084-.046-.175-.066-.263-.062-.169.007-.329.1-.417.258-.134.242-.289.476-.463.692-.172.217-.135.531.08.702.1.079.217.113.333.108.14-.006.276-.07.37-.188.116-.146.227-.299.33-.455.002-.007.007-.014.011-.02l.001-.001.004-.006v-.001l.004-.007c.002-.002.004-.004.004-.006l.001.001.004-.006v-.001c.002-.002.003-.005.003-.007l.002-.001.004-.006v-.001c.002-.001.002-.003.003-.005l.001-.001.004-.006.001-.002.002-.005.003-.002.002-.005h.002l.002-.006.001-.002.004-.004.001-.002c.001-.002.001-.004.003-.005l.001-.003.004-.003c0-.001 0-.002.002-.003v-.004l.003-.002.003-.005.001-.002.003-.006.002-.002.002-.004.002-.003c0-.001 0-.002.002-.003 0-.001 0-.002.002-.003l.003-.005.001-.003.002-.003.002-.003c.002-.001.002-.002.002-.003.002-.001.002-.002.002-.004l.002-.003.003-.004.003-.004v-.003l.002-.003.003-.004.003-.003v-.003l.004-.005v-.003c.002-.001.003-.002.003-.004l.002-.002.002-.003.003-.005.002-.003v-.002l.004-.005c0-.001 0-.002.002-.003l.001-.003.003-.004.002-.004.002-.003c.001-.001 0-.003.002-.004 0-.001 0-.002.002-.002l.002-.005.002-.002.002-.006.002-.001.002-.004.002-.002.002-.005.002-.002.002-.006c.002-.001 0-.002 0-.002l.004-.005.001-.002.004-.005v-.001l.003-.006.002-.002.002-.006v-.001l.005-.005.003-.006v-.001l.004-.007.002-.001.025-.047c.129-.234.043-.538-.199-.672z" fill="#5C913B"/>
</svg>
