<svg xmlns="http://www.w3.org/2000/svg" viewBox="0 0 36 36">
  <path fill="#5C913B" d="M19.117 21.274c-.081 0-.163-.02-.239-.061-.243-.132-.333-.436-.201-.678.16-.294.328-.561.502-.795-.139.006-.283.009-.43.009-.276 0-.528-.225-.528-.501s.195-.5.472-.5l.082.001c.296 0 .6-.018.872-.043.158-.017.309.047.41.156.014-.011.028-.022.043-.031.1-.066.193-.119.28-.161.059-.046.131-.079.211-.094l.036-.007c.188-.061.32-.069.373-.069.159 0 .308.075.402.203.094.128.122.292.075.444-.082.266-.265.326-.586.39-.06.023-.142.063-.238.128-.188.123-.432.104-.599-.034.137.177.143.431-.002.614-.17.217-.337.475-.496.768-.09.167-.262.261-.439.261zm-1.42-1.589c-.021 0-.044-.001-.066-.004-.374-.05-.729-.124-1.056-.221-.265-.079-.416-.357-.337-.622l.006-.02-.012.023c-.135.241-.44.328-.681.192-.34-.19-.645-.419-.907-.681-.195-.195-.195-.512 0-.707.195-.195.512-.195.707 0 .197.197.428.37.688.515.214.12.306.374.229.597.105-.213.354-.326.59-.256.276.082.579.145.9.188.274.036.467.287.431.561-.029.252-.245.435-.492.435zm-2.452-2.339c-.426 0-.977-.165-1.311-.559-.512-.604-.813-1.379-.767-1.973.012-.159-.143-.287-.295-.327-.087-.023-.24-.037-.312.118-.059.126-.207.179-.332.122-.125-.058-.18-.207-.122-.332.156-.339.506-.49.892-.392.358.093.701.415.667.85-.036.462.226 1.109.65 1.61.223.264.611.371.875.381.215.011.324-.038.347-.059-.056-.133-.797-.523-1.113-.689-.269-.141-.349-.335-.369-.472-.067-.455.4-.916.852-1.36.159-.157.31-.305.392-.414.093-.123.078-.205.06-.256-.069-.187-.368-.372-.728-.452-.333-.074-.558-.235-.668-.479-.145-.321-.068-.741.234-1.285.067-.122.22-.164.34-.097.121.067.164.219.097.34-.285.512-.257.744-.215.837.042.092.149.157.32.195.423.094.932.345 1.088.767.089.241.044.501-.128.73-.104.139-.268.3-.441.471-.258.254-.739.727-.708.931.006.042.061.079.107.102.751.394 1.25.679 1.352 1.028.036.123.021.247-.042.359-.097.169-.299.273-.585.299-.043.004-.09.006-.137.006z"/>
</svg>
