<svg xmlns="http://www.w3.org/2000/svg" viewBox="0 0 36 36">
  <path fill="#BB1A34" d="M21.828 20.559C19.707 21.266 19 17.731 19 17.731s.965-.968.235-1.829c1.138-1.137.473-1.707.473-1.707-1.954-1.953-5.119-1.953-7.071 0-.246.246-.414.467-.553.678-.061.086-.115.174-.17.262l-.014.027c-.285.475-.491.982-.605 1.509-.156.319-.379.659-.779 1.06-1.414 1.414-4.949-.707-7.778 2.121-.029.029-.045.069-.069.104-.094.084-.193.158-.284.25-3.319 3.319-3.003 9.018.708 12.728 3.524 3.525 8.84 3.979 12.209 1.17.058-.031.117-.061.165-.109.071-.072.126-.14.193-.21.053-.049.109-.093.161-.143 1.693-1.694 2.342-3.73 2.086-5.811-.068-.99-.165-1.766.39-2.321.707-.707 2.828 0 4.242-1.414 2.117-2.122.631-3.983-.711-3.537z"/>
</svg>
