<svg xmlns="http://www.w3.org/2000/svg" viewBox="0 0 36 36">
  <path fill="#F5F8FA" d="M10.001 29.134c1.782 1.277 1.959 3.473 1.859 4.751-.042.528.519.898.979.637 2.563-1.456 4.602-3.789 4.038-7.853-.111-.735.111-2.117 2.272-2.406 2.161-.29 2.941-1.099 3.208-1.485.153-.221.29-.832-.312-.854-.601-.022-2.094.446-3.431-1.136-1.337-1.582-1.559-2.228-1.604-2.473-.045-.245-1.409-3.694-2.525-1.864-.927 1.521-1.958 4.509-5.287 5.287-1.355.316-3.069 1.005-3.564 1.96-.832 1.604.46 2.725 1.574 3.483 1.115.757 2.793 1.953 2.793 1.953z"/>
</svg>
