<svg xmlns="http://www.w3.org/2000/svg" viewBox="0 0 36 36">
  <path d="M21.667 21.244c-.204.201-.007.403-.007.403l-.887.888-1.495 1.495-.004-.003-.078.085c-.865.863-2.264.863-3.128 0-.862-.864-.862-2.264 0-3.127.863-.864 2.262-.864 3.128 0 .502.505.707 1.189.622 1.846l.895-.894c-.116-.59-.402-1.153-.859-1.609-1.226-1.226-3.216-1.226-4.442 0-1.227 1.227-1.227 3.214 0 4.442 1.226 1.226 3.216 1.226 4.442 0 .028-.027.052-.06.078-.086l.004.004 2.385-2.386s.184.188.392-.016c.204-.199-.004-.404-.004-.404l-.626-.633c-.001.001-.21-.208-.416-.005zm-7.447 2.335c-.135-.469-.175-.957-.122-1.438l-.085-.085c-.824-.822-.33-1.978-.495-2.141-.164-.164-.329 0-.329 0s-1.77 1.771-1.974 1.977c-.164.164 0 .328 0 .328.164.164 1.372-.275 2.087.441l.918.918z" fill="#FFAC33"/>
</svg>
