<svg xmlns="http://www.w3.org/2000/svg" viewBox="0 0 36 36">
  <path fill="#90603E" d="M20.214 18.264c-2.337 0-9.087-.209-11.424.96s-5.706 4.682-5.842 5.842c-.095.808.019 3.83.262 7.092.205 2.744 4.295 2.913 9.994 3.159 5.587.241 12.326-1.095 15.681-2.527 1.976-.844 3.531-1.798 3.676-7.582.124-4.956-.114-6.351-.517-7.524-1.253-3.644-4.064-13.376-4.075-13.406-.51-1.531-2.164-2.358-3.695-1.847-1.531.51-2.4 2.413-2.078 3.993.26 1.278.891 2.139 2.584 6.95.173.445.49 3.965.624 7.129.093 2.193-2.101 3.098-3.906 3.371-3.74.567-2.846-2.887-1.284-5.61z"/>
  <path fill="#90603E" d="M2.947 25.067c0 1.168 12.503-2.488 14.354-3.539 4.705-2.671 5.195-11.994 5.195-13.815s-.595-3.936-2.405-4.129c-1.699-.181-2.716.849-2.998 2.881C15.427 18.473 2.947 15.28 2.947 25.067z"/>
</svg>
