<svg xmlns="http://www.w3.org/2000/svg" viewBox="0 0 36 36">
  <path d="M26.294 5.31s-.163-.587-1.04-1.069c-.594-.327-1.604-.089-1.604-.089s-.323-.834-1.634-1.366C21.066 2.399 20 3 20 3c0-1-.977-2-2-2s-2 1-2 2c0 0-1.066-.601-2.016-.214-1.31.532-1.634 1.366-1.634 1.366s-1.01-.238-1.604.089c-.876.482-1.04 1.069-1.04 1.069S7.894 6 7 6h22c-.894 0-2.706-.69-2.706-.69zM7 32c.894 0 2.706.414 2.706.414s.163.352 1.04.642c.594.196 1.604.053 1.604.053s.323.5 1.634.82C14.934 34.16 16 33.8 16 33.8c0 .6.977 1.2 2 1.2s2-.6 2-1.2c0 0 1.066.36 2.016.129 1.31-.319 1.634-.82 1.634-.82s1.01.143 1.604-.053c.876-.289 1.04-.642 1.04-.642S28.106 32 29 32H7z" fill="#FFAC33"/>
</svg>
