<svg xmlns="http://www.w3.org/2000/svg" viewBox="0 0 36 36">
  <path fill="#3E721D" d="M35.01 30.967c-1.385-2.226-3.34-5.001-5.265-7.888-5.141-8.772-1.513-18.411-2.893-21.511-.56-1.259-3.879.966-5.555 4.563-.356-.106-.747-.156-1.17-.148.155-2.397.293-4.31-.193-5.403-.71-1.599-5.867 2.418-6.463 7.729-1.848 1.006-3.223 1.957-3.223 1.957s-.95 1.375-1.954 3.223c-5.312.594-9.331 5.753-7.732 6.464 1.097.488 3.015.349 5.421.192-.006.42.046.807.154 1.159-3.61 1.674-5.848 5.006-4.586 5.567 3.282 1.46 13.9-2.701 23.053 3.892.288.207.479.322.601.371 2.117 1.433 4.113 2.801 5.791 3.846 2.875 1.79 3.962-.007 3.962-.007s1.843-1.13.052-4.006z"/>
</svg>
