<svg xmlns="http://www.w3.org/2000/svg" viewBox="0 0 36 36">
  <path fill="#77B255" d="M35.029 34.828c.369-.545.338-1.278-.144-1.761 0 0-11.86-15.812-13.836-23.719-1.977-7.906-4.397-5.737-3.689.474.325 2.848 1.817 6.14 3.806 9.385l-8.941-8.941c-.546-.546-1.431-.546-1.977 0-.545.546-.546 1.431 0 1.977l8.94 8.941c-3.246-1.987-6.536-3.48-9.383-3.805-6.211-.709-8.381 1.712-.475 3.688 7.907 1.976 23.719 13.836 23.719 13.836.481.482 1.215.513 1.758.146.034.007.065.01.078-.004.025-.025.034-.059.058-.086.025-.022.059-.031.083-.056.014-.013.01-.044.003-.075z"/>
</svg>
