<svg xmlns="http://www.w3.org/2000/svg" viewBox="0 0 36 36">
  <path fill="#627077" d="M22.002 28.921h-3.543c.878-1.234 2.412-3.234 3.01-4.301.449-.879.729-1.439.729-2.43 0-2.076-1.57-3.777-4.244-3.777-2.225 0-3.74 1.832-3.74 1.832-.131.15-.112.374.019.487l1.141 1.159c.149.15.374.15.523 0 .355-.393 1.047-.935 1.813-.935 1.047 0 1.646.635 1.646 1.346 0 .523-.243 1.047-.486 1.421-1.104 1.682-3.871 5.441-4.955 6.862v.374c0 .188.149.355.355.355h7.732c.186 0 .355-.168.355-.355v-1.682c.001-.188-.169-.356-.355-.356z"/>
</svg>
