<svg xmlns="http://www.w3.org/2000/svg" viewBox="0 0 36 36">
  <path fill="#141414" d="M17.745 16.896c-.083-.146 0-1 .239-1.062.239-.062.698-.812 0-1.062s-.844.479-.844.479-.69.203-.604.375c.083.167.667-.062.792.083s-.062.354-.562.938-.167 1.375.062 1.579.5.359.708.546.448.292.448.292v.604s-.698.062-1.031.021-.562.188-.646.458.125.417.125.209.083-.084.102.083c.019.167.168.104.168-.104s.083-.125.104-.021.167-.042.188-.167.208-.188.375-.229.614.041.614.041v1.104s-.927.062-1.01.188.562.104.562.104-.188.354-.104.375.667-.354.896-.396.583.104.625 0-.562-.25-.625-.354-.188-1.062-.188-1.062.271-.022.605-.001c.333.021.25-.271.042-.562s-.021-.375.333-.312c.354.063.625 0 .625-.563s-1.916-1.438-1.999-1.584zm.729 2.708h-.229l.083-.417c0 .001.292.417.146.417z"/>
</svg>
