<svg xmlns="http://www.w3.org/2000/svg" viewBox="0 0 36 36" xml:space="preserve">
  <path fill="#DD551F" d="m24.999 27.362-.001 1.309-3.94 2.674-2.641-4.139 5.645-5.81-1.939-1.923.501-.751 2.834 2.833-6.054 5.89 2.222 2.222s1.582-1.066 3.373-2.305zm-7.422-5.737c-.782 0-1.536.115-2.254.317a6.312 6.312 0 0 1-.078-.942c0-1.932.834-3.311 1.607-3.48l-.214-.977c-1.387.304-2.393 2.179-2.393 4.457 0 .435.049.856.122 1.267a8.348 8.348 0 0 0-5.137 7.705c0 2.372.994 4.508 2.584 6.028h1.449a7.405 7.405 0 0 1-3.105-6.028 7.418 7.418 0 0 1 7.419-7.419c.414 0 .817.043 1.213.109v-.936a8.225 8.225 0 0 0-1.213-.101z"/>
</svg>
