<svg xmlns="http://www.w3.org/2000/svg" viewBox="0 0 36 36">
  <path d="M28.105 4.865c.936.919 1.509 1.873 1.817 2.85.394-.187.806-.476 1.195-.865.164-.164.31-.334.44-.505-.428-.985-1.088-1.961-2.051-2.906-1.768-1.736-5.303-2.596-9.217-2.25-4.511.401-8.244 2.245-10.24 5.058-.32.45-.214 1.075.237 1.394.449.32 1.075.213 1.394-.237 1.632-2.3 4.917-3.879 8.787-4.223 3.244-.29 6.317.388 7.638 1.684zm6.293 25.919c-.374-.407-1.006-.433-1.413-.06-1.677 1.54-4.139 2.051-6.27 1.302-1.762-.62-2.923-1.965-3.185-3.688-.438-2.89 1.408-5.317 3.744-8.391l.665-.878c1.574-2.091 4.638-6.167 4.217-10.413-.522.458-1.208 1.053-2.02 1.751-.335 2.455-1.938 4.992-3.795 7.46l-.659.87c-2.519 3.313-4.694 6.175-4.129 9.901.37 2.441 2.051 4.413 4.497 5.274.864.305 1.769.452 2.672.452 2.043 0 4.079-.757 5.615-2.168.408-.372.435-1.005.061-1.412z" fill="#553788"/>
</svg>
