<svg xmlns="http://www.w3.org/2000/svg" viewBox="0 0 36 36">
  <path fill="#3B88C3" d="M32.153 24c0-1 1.523-6.212 3.047-7.735 1.522-1.523 0-3.166-1.523-3.166-3.405 0-9.139 6.901-9.139 10.901 0 5 5.733 10.424 9.139 10.424 1.523 0 3.046-1.404 1.523-2.928C33.677 29.974 32.153 26 32.153 24z"/>
  <path fill="#3B88C3" d="M9.021 14.384c0-3.046 1.497-6.093 3.02-6.093 4.569 0 13.322 4.823 14.845 12.439 1.524 7.616-17.865-6.346-17.865-6.346zm4.854 18.278c1.523 1.523 4.57 3.047 7.617 3.047 3.046 0-3.111-4.189-1.523-6.092 2.18-2.617-6.094 3.045-6.094 3.045z"/>
</svg>
