<svg xmlns="http://www.w3.org/2000/svg" viewBox="0 0 36 36">
  <path fill="#662113" d="M18 4.003c-8.317 0-15.059 3.582-15.059 8 0 1.985 1.369 3.797 3.622 5.196L18 13.003l4.431 6.647c6.154-1.006 10.628-4.049 10.628-7.647 0-4.418-6.742-8-15.059-8z"/>
  <path fill="#662113" d="M23.23 22.875c-.642-1.016-5.23-8.368-5.23-8.368S7.21 18.518 5.107 19.273c-.993.356-.758 3.185-.701 5.297.108 4.045.485 3.98 1.564 3.5C8.397 26.992 18 23.513 18 23.513s3.881 5.852 4.96 7.362c.394.552.737 1.247.809-2.421.042-2.112.108-4.554-.539-5.579z"/>
</svg>
