<svg xmlns="http://www.w3.org/2000/svg" viewBox="0 0 36 36">
  <path fill="#F4900C" d="M17.998 18.434s-1.78.265-1.78 1.942c0 1.737 1.726 1.133 1.726 1.133s1.189 1.292 1.402-.324c.212-1.602-1.348-2.751-1.348-2.751zm8.576 13.432c-.054 0-.109-.009-.163-.027-.261-.09-.399-.375-.309-.636.476-1.381.169-7.087-.179-8.772-.057-.271.117-.535.388-.591.268-.062.535.116.591.388.299 1.445.744 7.565.146 9.302-.072.206-.267.336-.474.336zM2.517 27.659c-.24 0-.452-.173-.493-.417-.328-1.961-.179-7.172.167-8.844.056-.271.319-.443.591-.388.27.056.444.321.388.591-.324 1.565-.468 6.638-.16 8.475.045.272-.138.53-.411.576-.027.005-.055.007-.082.007zm28.156 2.373c-.054 0-.109-.009-.163-.027-.261-.09-.399-.375-.31-.636.477-1.381.17-7.087-.178-8.772-.057-.271.117-.535.388-.591.266-.061.534.116.591.388.299 1.446.744 7.567.145 9.302-.072.206-.266.336-.473.336zm3.183-2.804c-.033 0-.066-.003-.1-.01-.271-.054-.446-.317-.392-.589.352-1.758.269-6.905-.053-8.46-.057-.271.117-.535.388-.591.266-.054.534.117.591.389.345 1.667.432 6.975.055 8.859-.047.237-.255.402-.489.402z"/>
</svg>
