<svg xmlns="http://www.w3.org/2000/svg" viewBox="0 0 36 36">
  <path fill="#994500" d="M6.375 16c-.109 0-.219-.036-.312-.109-1.808-1.444-2.625-2.966-2.429-4.524.387-3.079 4.646-5.033 4.827-5.114.253-.116.548-.002.661.25.114.251.002.547-.25.661-.04.018-3.931 1.806-4.247 4.329-.149 1.188.545 2.405 2.061 3.616.216.172.251.487.079.703-.098.124-.244.188-.39.188zm20.167 1.667c-.219 0-.419-.144-.482-.365-.074-.266.08-.542.346-.617.045-.012 4.469-1.294 5.104-4.289.617-2.905-3.962-5.002-4.008-5.023-.252-.113-.364-.409-.251-.661.113-.253.412-.363.661-.251.22.099 5.358 2.458 4.576 6.144-.763 3.588-5.607 4.986-5.812 5.044-.044.012-.089.018-.134.018zm-10.44-5.795l.066.003c.385 0 .712-.294.746-.685.036-.413-.27-.776-.682-.812l-1.87-.162.747-2.672c1.775-.417 2.438-1.216 2.535-1.346.242-.325.175-.775-.143-1.027-.318-.25-.785-.196-1.047.114-.01.012-1.084 1.238-4.735.973-.41-.036-.772.281-.802.694-.03.413.281.772.694.802.394.029.764.042 1.112.042.27 0 .522-.01.765-.025l-.647 2.313-1.9-.165c-.42-.042-.777.269-.812.682-.036.413.27.776.682.812l.968.084-3.492 2.747c-.189.148-.287.368-.287.591 0 .162.052.325.161.463.148.188.368.286.59.286.162 0 .326-.052.463-.161l2.735-2.151-.608 2.175 1.735-.637.509-1.819.737 1.363 1.423-.522-1.129-2.087 1.486.127zm7.624 6.623c.147.143.335.213.524.213.195 0 .39-.076.536-.226.29-.296.284-.771-.012-1.061-1.564-1.526-1.815-4.857-1.818-4.891-.009-.121-.051-.228-.108-.325 1.071-2.898 1.251-5.646 1.263-5.848.024-.414-.292-.768-.706-.792-.414-.034-.768.292-.792.705-.003.067-.37 5.63-3.138 8.945l.862 1.294c.55-.605 1.025-1.274 1.428-1.978.298 1.272.87 2.899 1.961 3.964z"/>
  <path fill="#994500" d="M26.671 9.842c-.225-.347-.69-.446-1.037-.221l-1.542 1c-.348.226-.446.69-.221 1.038.144.22.384.341.63.341.14 0 .281-.039.407-.121l1.542-1c.348-.225.446-.69.221-1.037zm-6.752 1.388c.148.152.343.229.539.229.188 0 .376-.07.521-.211.298-.289.306-.763.018-1.061l-1.291-1.333c-.289-.299-.764-.305-1.061-.018-.298.289-.306.763-.018 1.061l1.292 1.333z"/>
</svg>
