<svg xmlns="http://www.w3.org/2000/svg" viewBox="0 0 36 36">
  <path fill="#FFE150" d="M9.5 8.966l.599 1.6 1.824.038-1.454 1.225.529 1.746L9.5 12.533l-1.498 1.042.529-1.746-1.454-1.225 1.824-.038zm-5.676 1.519l.246.707.748.016-.596.452.216.716-.614-.427-.614.427.217-.716-.597-.452.749-.016zm11.352 0l.246.707.748.016-.596.452.216.716-.614-.427-.614.427.216-.716-.596-.452.748-.016zM9.5 5.821l.246.707.748.016-.596.452.216.716-.614-.427-.614.427.217-.716-.597-.452.748-.016zm0 9.467l.246.707.748.015-.596.452.216.717-.614-.428-.614.428.217-.717-.597-.452.748-.015z"/>
</svg>
