<svg xmlns="http://www.w3.org/2000/svg" viewBox="0 0 36 36">
  <path fill="#B78B60" d="M4.317 19.707c.718.2 1.46.475 2.099.931 1.117.795 1.797 1.679 1.962 1.969.175.298.787.164.525-.345-.256-.494-1.099-1.432-2.093-2.11-.694-.475-1.696-.875-2.597-1.114-.162-.043 1.01-4.132-.22-5.511.469.848-.344 4.548-.344 5.161s.286.912.668 1.019zm24.405 10.287c-.059.982-1.052 1.262-2.065 1.201-1.016-.059-3.726.768-4.679.77-1.687.003-2.268-.829-2.332-2.319C19.5 26.271 18 26.188 18 22.271V9c0-1.766 1.98-2.61 2.312-1.094.642 2.925.597 5.097.65 6.372l.516-.129s-.47-5.078-.983-7.471c-.371-1.741 2.718-2.381 3.092-.641.498 2.308.611 6.273.646 7.801l.639-.057s-.221-3.768-.981-8.045c-.284-1.609 2.802-2.38 3.189-.634.502 2.257.87 6.7.855 9.055l.629.133s-.423-4.995-.921-7.436c-.277-1.355 2.188-2.174 2.744-.184 1.6 5.688 1.006 10.688 1.017 11.13.049 1.85.477 3.986 1.225 3.442 1.131-.824 2.763.239 1.364 2.319-1.577 2.344-4.98 2.093-5.099 4.087-.05.858-.172 2.346-.172 2.346"/>
</svg>
