<svg xmlns="http://www.w3.org/2000/svg" viewBox="0 0 36 36">
  <path fill="#99AAB5" d="M30 33c-2.417 0-5-1.313-5-5 0-2.071 1.118-3.478 2.199-4.838.423-.532.851-1.07 1.239-1.666C26.883 20.077 25.172 19 24 19v-2c1.621 0 3.603 1.133 5.382 2.67.378-.995.618-2.177.618-3.67h2c0 2.169-.448 3.816-1.077 5.149 1.445 1.542 2.591 3.23 3.025 4.534.688 2.066.483 4.228-.535 5.642C32.635 32.405 31.422 33 30 33zm-.13-10.052c-.368.53-.747 1.008-1.105 1.458C27.779 25.646 27 26.627 27 28c0 2.479 1.632 3 3 3 .784 0 1.387-.284 1.791-.845.64-.888.741-2.395.261-3.839-.327-.978-1.15-2.202-2.182-3.368z"/>
</svg>
