<svg xmlns="http://www.w3.org/2000/svg" viewBox="0 0 36 36">
  <path fill="#292F33" d="M19 6c0-.552-.448-1-1-1s-1 .448-1 1v1c0 .552.448 1 1 1s1-.448 1-1V6zm0 21c0-.552-.448-1-1-1s-1 .448-1 1v1c0 .552.448 1 1 1s1-.448 1-1v-1zM8 16H7c-.552 0-1 .448-1 1s.448 1 1 1h1c.552 0 1-.448 1-1s-.448-1-1-1zm21 0h-1c-.552 0-1 .448-1 1s.448 1 1 1h1c.552 0 1-.448 1-1s-.448-1-1-1zm-2.293 8.293L26 23.586c-.391-.391-1.024-.391-1.414 0-.391.391-.391 1.024 0 1.414l.707.707c.391.391 1.024.391 1.414 0 .391-.39.391-1.024 0-1.414zM10 23.586l-.707.707c-.391.391-.391 1.024 0 1.414.391.391 1.024.391 1.414 0l.707-.707c.391-.391.391-1.024 0-1.414-.39-.391-1.023-.391-1.414 0zM9.293 9.707l.707.707c.391.391 1.024.391 1.414 0s.391-1.024 0-1.414l-.707-.707c-.391-.391-1.024-.391-1.414 0s-.391 1.024 0 1.414zM26 10.414l.707-.707c.391-.391.391-1.024 0-1.414-.391-.391-1.024-.391-1.414 0L24.586 9c-.391.391-.391 1.024 0 1.414.39.391 1.023.391 1.414 0z"/>
</svg>
