<svg xmlns="http://www.w3.org/2000/svg" viewBox="0 0 36 36">
  <path fill="#3E721D" d="M9.916 8.625c-.199 0-.4-.04-.594-.123l-2.125-.917c-.76-.328-1.111-1.21-.783-1.971.328-.762 1.211-1.111 1.972-.783l2.125.916c.761.328 1.111 1.211.783 1.972-.245.567-.797.906-1.378.906zM5.459 20.916c-.125 0-.251-.016-.377-.048l-2.25-.583c-.802-.208-1.283-1.026-1.076-1.829.208-.802 1.025-1.285 1.829-1.076l2.25.583c.802.208 1.283 1.026 1.076 1.828-.176.677-.785 1.125-1.452 1.125zM22.668 8.75c-.481 0-.955-.232-1.245-.662l-1.292-1.916c-.463-.687-.281-1.619.405-2.082.687-.462 1.619-.282 2.083.405l1.292 1.917c.463.687.281 1.619-.405 2.082-.258.173-.549.256-.838.256zm-8.003 9.542c-.235 0-.473-.056-.695-.172l-2.542-1.333c-.734-.385-1.017-1.292-.631-2.025.385-.733 1.292-1.017 2.025-.631l2.542 1.333c.734.385 1.017 1.292.631 2.025-.268.511-.79.803-1.33.803zM9.917 29.958c-.127 0-.255-.016-.384-.05l-2.208-.583c-.801-.211-1.279-1.032-1.067-1.833.212-.801 1.035-1.279 1.833-1.067l2.208.583c.801.211 1.279 1.032 1.067 1.833-.177.673-.784 1.117-1.449 1.117z"/>
</svg>
