<svg xmlns="http://www.w3.org/2000/svg" viewBox="0 0 36 36">
  <path fill="#292F33" d="M18.004 4.067c4.35 0 11.601 2.175 11.601 11.601 0 9.427 0 11.602-2.175 11.602s-5.076-2.175-9.426-2.175c-4.351 0-7.19 2.175-9.427 2.175-2.424 0-2.176-8.701-2.176-11.602.001-9.426 7.253-11.601 11.603-11.601"/>
  <path fill="#292F33" d="M17.996 4.067c-4.35 0-11.601 2.175-11.601 11.601 0 9.427 0 11.602 2.175 11.602s5.076-2.175 9.426-2.175c4.351 0 7.19 2.175 9.427 2.175 2.424 0 2.176-8.701 2.176-11.602-.001-9.426-7.253-11.601-11.603-11.601"/>
</svg>
