<svg xmlns="http://www.w3.org/2000/svg" viewBox="0 0 36 36">
  <path fill="#66757F" d="M3.923 22.923c-.212.511-.798.751-1.308.539-.51-.213-.751-.798-.539-1.308L6.693 9.616c.212-.51.798-.751 1.307-.539.51.213.751.798.539 1.308L3.923 22.923z"/>
  <path fill="#66757F" d="M13.923 22.154c.212.51-.029 1.095-.539 1.308-.51.212-1.095-.028-1.308-.539L7.461 10.385c-.212-.51.029-1.095.539-1.308.51-.212 1.095.029 1.308.539l4.615 12.538zm10.001.769c-.213.511-.799.751-1.309.539-.51-.213-.75-.798-.538-1.308l4.616-12.539c.212-.509.797-.75 1.307-.538.51.213.752.798.539 1.308l-4.615 12.538z"/>
  <path fill="#66757F" d="M33.923 22.154c.212.51-.028 1.095-.538 1.308-.51.212-1.096-.028-1.309-.539l-4.615-12.538c-.213-.51.029-1.095.539-1.308.51-.212 1.095.029 1.307.539l4.616 12.538z"/>
</svg>
