<svg xmlns="http://www.w3.org/2000/svg" viewBox="0 0 36 36">
  <path fill="#FFAC33" d="M14.857 22H1.143C.512 22 0 22.511 0 23.143c0 2.524 3.582 4.571 8 4.571s8-2.047 8-4.571c0-.632-.512-1.143-1.143-1.143zM24 34H12c-.552 0-1-.447-1-1 0-2.209 3.134-4 7-4s7 1.791 7 4c0 .553-.447 1-1 1zm10.857-12H21.143c-.632 0-1.143.511-1.143 1.143 0 2.524 3.581 4.571 8 4.571s8-2.047 8-4.571c0-.632-.511-1.143-1.143-1.143z"/>
  <path fill="#FFAC33" d="M19 3c0-.552-.447-1-1-1-.552 0-1 .448-1 1v27c0 .553.448 1 1 1 .553 0 1-.447 1-1V3z"/>
  <circle fill="#FFAC33" cx="18" cy="4" r="2"/>
  <circle fill="#FFAC33" cx="8" cy="10" r="2"/>
  <circle fill="#FFAC33" cx="28" cy="10" r="2"/>
  <path fill="#FFAC33" d="M28 10c0 1.104 0 0-10 0S8 11.104 8 10s3-4 10-4 10 2.896 10 4z"/>
</svg>
