<svg xmlns="http://www.w3.org/2000/svg" viewBox="0 0 36 36">
  <path fill="#A78E81" d="M22.644 18.406c-.633 1.126-1.363 1.809-2.16 2.193-.402.041-1.132-.085-1.417-1.443-.332-1.587-.668-3.833-.668-6.594 0-4.144.601-8.742.601-8.742 0-.929 1.412-.936 2.086-.991-.156-.832-1.749-.83-3.684-.83-1.453 0-2.256 1.074-2.402 2.301-.147 1.228-.789 6.347-.744 10 .024 1.984.154 4.161.315 6.016-.792-.201-1.585-.393-2.364-.491-2.807-.356-6.505-.535-7.129-5.881C4.584 9.712 5 4.82 5 4.82c0-.929 1.412-1.158 2.086-1.213-.156-.832-1.678-.911-3.61-.783C2.026 2.92 1.235 3.668 1 5.3.622 7.929.578 13.988.8 18.176c.124 2.338.49 10.76 4.099 14.035C7.007 34.123 10.587 35.253 15 35c4.185-.24 7.623-1.796 9.548-3.413 3.342-2.807 4.09-4.837 4.229-7.035C29 21 24.02 15.959 22.644 18.406z"/>
  <path fill="#A78E81" d="M35.025 22.671c-2.101 3.201-6.277 4.173-10.759 1.232s-5.253-7.159-3.152-10.36 7.488-2.584 10.384-.624 5.628 6.551 3.527 9.752z"/>
</svg>
