<svg xmlns="http://www.w3.org/2000/svg" viewBox="0 0 36 36">
  <path fill="#D4AB88" d="M26.29 26.753c-.53-.033-.658-.368-.708-.617-.16-.802-.275-1.489-.333-1.845l-3.604.707c.168.654.657 2.438 1.271 3.619.354.682.711.703 1.666.758 0 0 3.975-.139 6.542-.237.885-.034.973-1.48.215-1.657-.751-.176-1.595-.346-2.276-.413-.465-.044-2.533-.3-2.773-.315zm-12.431-3.068c-.57.514-.5.865-.312 1.803 0 0 1.113 3.738 1.854 6.2.265.881 1.698.641 1.679-.138-.019-.771-.067-1.63-.174-2.305-.073-.463-.346-2.528-.392-2.764-.102-.523.19-.73.419-.84.736-.356 1.371-.642 1.7-.786l-1.591-3.311c-.59.327-2.194 1.249-3.183 2.141z"/>
</svg>
