<svg xmlns="http://www.w3.org/2000/svg" viewBox="0 0 36 36">
  <path fill="#D4AB88" d="M18.032 10.659c-.037.617.172 1.537 1.603 1.665 1.43.128 2.808-.164 3.392-.377.584-.214.637.836.892 1.807.256.974.44 1.739.407 1.947-.054.352-.726 1.071-.388 1.647s.848 1.115 1.404.854 1.009-.557 1.136-.889c.127-.333-.626-1.25-.674-1.525s-.081-3.894-.146-4.3c-.08-.496-.172-1.177-1.01-1.395-.838-.218-4.153-.593-4.985-.688-.954-.109-1.582.436-1.631 1.254z"/>
  <path fill="#D4AB88" d="M19.132 6.366c.31-.401.546-.872.661-1.455.409-2.083-.794-4.073-2.688-4.444-1.893-.372-4.483 1.029-4.425 3.151.057 2.107 1.229 5.214 2.993 4.69.466-.138.932-.29 1.375-.474.189.224.325 1.081.247 1.815-.2 1.87 2.381 2.065 2.579.192.157-1.481-.768-2.423-.742-3.475z"/>
</svg>
