<svg xmlns="http://www.w3.org/2000/svg" viewBox="0 0 36 36">
  <path fill="#FFAC33" d="M10.394 20.081l-3.452-1.479-.547-2.866c-.104-.542-.624-.897-1.17-.795-.542.104-.898.627-.795 1.17l.294 1.54-1.33-.57c-.508-.219-1.096.018-1.313.525-.218.508.018 1.096.525 1.313l.743.318-1.056 1.056c-.391.391-.391 1.023 0 1.414.195.195.451.293.707.293s.512-.098.707-.293l1.621-1.621 4.278 1.833c.128.056.262.081.394.081.388 0 .757-.227.919-.606.218-.508-.018-1.095-.525-1.313zm22.922-3.03l-1.465-.488.855-.855c.391-.391.391-1.023 0-1.414s-1.023-.391-1.414 0l-.751.751-.572-2.287c-.134-.535-.678-.865-1.212-.727-.536.134-.862.677-.727 1.213l.862 3.45-3.6 3.6c-.391.391-.391 1.023 0 1.414.196.194.452.292.708.292s.512-.098.707-.293l3.563-3.563 2.413.805c.106.035.213.051.317.051.419 0 .809-.265.948-.684.175-.524-.108-1.09-.632-1.265z"/>
</svg>
