<svg xmlns="http://www.w3.org/2000/svg" viewBox="0 0 36 36">
  <g fill="#F5F8FA">
    <path d="M17.948 6.078l-.03.045C17.132 11.619 10.811 16.126 8 18v4c0 1.104.896 2 2 2s2-.896 2-2v-4c.982-.982 5.813-6.787 5.984-11.732-.01-.064-.027-.126-.036-.19zm.08.398C18.324 11.374 23.031 17.031 24 18v4c0 1.104.896 2 2 2s2-.896 2-2v-4c-2.75-1.833-8.953-6.19-9.972-11.524z"/>
    <path d="M17.984 6.27C17.922 8.346 17.606 16.394 16 18v4c0 1.104.896 2 2 2s2-.896 2-2v-4c-1.564-1.564-1.905-9.241-1.979-11.559-.011-.057-.027-.113-.037-.171z"/>
  </g>
</svg>
