<svg xmlns="http://www.w3.org/2000/svg" viewBox="0 0 36 36">
  <path fill="#99AAB5" d="M5.818 25.881c.691-.07 2.528 2.7 2.45 3.153-.078.454-4.212.618-4.443.25-.231-.368 1.302-3.333 1.993-3.403zm2.311 1.742c.173.27 3.225.117 3.28-.219.054-.336-1.324-2.367-1.834-2.31-.51.056-1.619 2.258-1.446 2.529zm24.032 1.661c-.23.369-4.364.204-4.443-.25-.078-.454 1.759-3.223 2.45-3.153.692.07 2.224 3.035 1.993 3.403zm-5.75-4.19c-.51-.057-1.888 1.975-1.834 2.31.054.336 3.106.489 3.28.219.173-.271-.936-2.473-1.446-2.529z"/>
</svg>
