<svg xmlns="http://www.w3.org/2000/svg" viewBox="0 0 36 36">
  <g fill="#662113">
    <path d="M4.272 35.837c-.253.083-.486.003-.567-.167-.153-.318.466-.978.833-1.571 2.055-3.325 2.213-9.287 2.213-9.35.001-.32.137-.624.375-.837.239-.214.555-.316.874-.28l10.125 1.125c.618.069 1.062.625.994 1.243-.068.618-.616 2.183-1.243 2.12L8.941 26c-.175 2.23-.588 5.993-3.362 8.767-.219.22-.942.886-1.307 1.07z"/>
    <path d="M31.729 35.837c.252.083.486.002.567-.167.153-.318-.466-.978-.833-1.571-2.055-3.325-2.213-9.287-2.213-9.35 0-.32-.137-.624-.375-.837-.239-.214-.555-.316-.874-.28l-10.125 1.125c-.617.069-1.062.625-.994 1.243.068.618.616 2.183 1.243 2.12L27.059 26c.175 2.23.588 5.993 3.362 8.767.22.22.942.886 1.308 1.07zM2.348 23.08c-.621 0-1.272-.127-1.223-.58.046-.422.629-.52 1.248-.573 3.258-.276 4.476-4.392 4.495-4.431.227-.454.734-.7 1.227-.6l5.625 1.125c.609.122 1.004.714.882 1.324-.121.609-.715 2.136-1.324 2.008l-4.831-2.092c-.887 1.431-2.989 3.819-6.099 3.819zm31.304 0c.621 0 1.272-.127 1.223-.58-.046-.422-.629-.52-1.249-.573-3.258-.276-4.476-4.392-4.495-4.431-.227-.454-.734-.7-1.227-.6l-5.625 1.125c-.609.122-1.004.714-.882 1.324.121.609.715 2.136 1.324 2.008l4.831-2.092c.888 1.431 2.99 3.819 6.1 3.819zm-19.028-6.205c-.235 0-.471-.074-.674-.225l-4.008-3.67c-.803-.052-3.108-.15-4.511-1.303-.48-.394-.868-.872-.727-1.178.161-.348.847-.078 1.403.201 1.968.984 4 .55 4.02.55.242.001.479.08.672.225l4.5 3.375c.497.373.598 1.078.225 1.574-.22.296-.558.451-.9.451zm6.752 0c.235 0 .471-.074.674-.225l4.008-3.67c.803-.052 3.108-.15 4.511-1.303.48-.394.868-.872.727-1.178-.161-.348-.847-.078-1.404.201-1.968.984-4 .55-4.02.55-.242.001-.479.08-.672.225l-4.5 3.375c-.497.373-.598 1.078-.225 1.574.221.296.559.451.901.451z"/>
  </g>
  <path fill="#662113" d="M18 32.625L12.375 36 18 27l5.625 9z"/>
</svg>
