<svg xmlns="http://www.w3.org/2000/svg" viewBox="0 0 36 36">
  <path fill="#662113" d="M13.5 12.375c0-2.25 2.015-4.5 4.5-4.5s4.5 2.25 4.5 4.5c0 1.125-2.015 2.25-4.5 2.25s-4.5-1.125-4.5-2.25z"/>
  <ellipse fill="#662113" cx="18" cy="7.875" rx="1.688" ry="1.125"/>
  <path d="M16.938 12.812c-.276 0-.5-.224-.5-.5 0-4.474-5.55-11.875-11.875-11.875-.276 0-.5-.224-.5-.5s.224-.5.5-.5c6.983 0 12.875 7.908 12.875 12.875 0 .277-.224.5-.5.5zm2.062.063c-.276 0-.5-.224-.5-.5C18.5 7.408 24.393-.5 31.375-.5c.276 0 .5.224.5.5s-.224.5-.5.5C25.05.5 19.5 7.901 19.5 12.375c0 .276-.224.5-.5.5z" fill="#662113"/>
</svg>
