<svg xmlns="http://www.w3.org/2000/svg" viewBox="0 0 36 36">
  <path fill="#292F33" d="M14.5 36c-.128 0-.256-.049-.354-.146-.195-.195-.195-.512 0-.707L16 33.293V31.5c0-.276.224-.5.5-.5s.5.224.5.5v2.207l-2.146 2.146c-.098.098-.226.147-.354.147z"/>
  <path fill="#292F33" d="M16.5 34h-3c-.276 0-.5-.224-.5-.5s.224-.5.5-.5h3c.276 0 .5.224.5.5s-.224.5-.5.5zm5 2c-.128 0-.256-.049-.354-.146L19 33.707V31.5c0-.276.224-.5.5-.5s.5.224.5.5v1.793l1.854 1.854c.195.195.195.512 0 .707-.098.097-.226.146-.354.146z"/>
  <path fill="#292F33" d="M22.5 34h-3c-.276 0-.5-.224-.5-.5s.224-.5.5-.5h3c.276 0 .5.224.5.5s-.224.5-.5.5z"/>
</svg>
