<svg xmlns="http://www.w3.org/2000/svg" viewBox="0 0 36 36">
  <path fill="#77B255" d="M18 29c-.209 0-.404-.133-.474-.342-.087-.262.054-.545.316-.633l16.5-5.5c.263-.086.545.055.633.316.087.262-.055.545-.316.633l-16.5 5.5c-.054.018-.107.026-.159.026zm0-3c-.155 0-.308-.071-.405-.207-.162-.224-.112-.536.111-.698l14.5-10.5c.222-.163.536-.112.698.111s.111.537-.112.698l-14.5 10.5c-.087.065-.19.096-.292.096zm0-4c-.091 0-.183-.024-.266-.077-.233-.146-.304-.456-.157-.689l8.5-13.5c.147-.234.458-.301.689-.157.234.147.304.456.157.69l-8.5 13.5c-.095.15-.257.233-.423.233z"/>
</svg>
