<svg xmlns="http://www.w3.org/2000/svg" viewBox="0 0 36 36">
  <path fill="#77B255" d="M17.5 29c-.052 0-.105-.008-.158-.025l-16.5-5.5c-.262-.088-.403-.371-.316-.633s.369-.405.632-.316l16.5 5.5c.262.088.403.371.316.633-.07.208-.265.341-.474.341zm0-3c-.102 0-.204-.031-.293-.095l-14.5-10.5c-.224-.162-.273-.475-.111-.698.161-.224.474-.274.698-.111l14.5 10.5c.224.162.273.475.111.698-.098.135-.251.206-.405.206zm0-4c-.166 0-.329-.083-.424-.233l-8.5-13.5c-.146-.234-.076-.543.157-.69.236-.146.543-.077.69.156l8.5 13.5c.147.233.077.543-.157.689-.082.054-.175.078-.266.078z"/>
  <path fill="#77B255" d="M17.5 24c-.276 0-.5-.224-.5-.5v-18c0-.276.224-.5.5-.5s.5.224.5.5v18c0 .276-.224.5-.5.5z"/>
</svg>
