<svg xmlns="http://www.w3.org/2000/svg" viewBox="0 0 36 36">
  <path fill="#DD2E44" d="M16.312 20.75c-.25 0-.5-.093-.694-.28-.398-.383-.409-1.017-.025-1.414l1.688-1.75c.384-.396 1.017-.408 1.414-.025.398.383.409 1.016.025 1.414l-1.688 1.75c-.196.202-.458.305-.72.305zM19.999 23c-.15 0-.303-.034-.446-.105-.494-.247-.694-.848-.447-1.342l1-2c.248-.494.848-.692 1.342-.447.494.247.694.848.447 1.342l-1 2c-.176.35-.529.552-.896.552zm4.002 1c-.047 0-.095-.003-.143-.01-.547-.079-.927-.585-.849-1.132l.209-1.458c.079-.547.587-.923 1.132-.849.547.079.927.585.849 1.132l-.209 1.458c-.072.5-.5.859-.989.859z"/>
</svg>
