<svg xmlns="http://www.w3.org/2000/svg" viewBox="0 0 36 36">
  <path fill="#269" d="M30 3.178c0 .454-.368.822-.822.822H6.822C6.368 4 6 3.632 6 3.178v-.356C6 2.368 6.368 2 6.822 2h22.355c.455 0 .823.368.823.822v.356zm0 11c0 .454-.368.822-.822.822H6.822C6.368 15 6 14.632 6 14.178v-.355c0-.455.368-.823.822-.823h22.355c.455 0 .823.368.823.822v.356zm0 10c0 .454-.368.822-.822.822H6.822C6.368 25 6 24.632 6 24.178v-.355c0-.455.368-.823.822-.823h22.355c.455 0 .823.368.823.822v.356zm0 11c0 .454-.368.822-.822.822H6.822C6.368 36 6 35.632 6 35.178v-.355c0-.455.368-.823.822-.823h22.355c.455 0 .823.368.823.822v.356z"/>
</svg>
