<svg xmlns="http://www.w3.org/2000/svg" viewBox="0 0 36 36">
  <path fill="#F90" d="M26.58 13.397s.049.683.341.926c0 0 .732-.146 1.317.098.463.193 1.317.536 1.756.39.438-.146.829-.292.928-.195.097.097-.489.244-.587.341-.098.098-.438.196-.243.488.196.293.537.537.439.83 0 0-.439-.341-.634-.634-.196-.293-.635-.537-1.367-.439-.732.098-1.316.488-1.413.927-.098.438.438.39.877.487 0 0-.634.244-.975.244 0 0-.293.537-.586 1.024-.292.488-.342.781-.487.732-.146-.049-.196-.732-.098-1.122 0 0-.341-.195-.293-1.17.042-.833.634-1.61.634-1.61s-.048-.292 0-.634c.05-.342.391-.683.391-.683z"/>
</svg>
