<svg xmlns="http://www.w3.org/2000/svg" viewBox="0 0 36 36">
  <path fill="#F90" d="M25.024 21.728s.499-.47.502-.85c0 0-.575-.475-.757-1.083-.144-.48-.417-1.359-.808-1.607-.392-.248-.751-.458-.738-.595.015-.137.498.224.636.238.137.014.428.217.532-.119.104-.336.076-.755.364-.865 0 0 .014.556-.09.892-.104.335-.015.83.522 1.335.539.505 1.211.712 1.613.509.402-.201.025-.585-.178-.988 0 0 .591.337.807.603 0 0 .601-.113 1.163-.195.563-.082.82-.229.875-.084.055.144-.443.613-.809.785 0 0 .066.387-.721.966-.673.495-1.649.527-1.649.527s-.194.223-.491.4c-.292.179-.773.131-.773.131z"/>
</svg>
