<svg xmlns="http://www.w3.org/2000/svg" viewBox="0 0 36 36">
  <path fill="#F90" d="M32.781 18.83s-.637-.256-.983-.1c0 0-.188.721-.664 1.141-.377.334-1.059.95-1.12 1.408-.06.459-.1.874-.229.919-.13.045-.006-.545-.051-.676-.045-.13.017-.48-.332-.433-.348.047-.718.247-.938.032 0 0 .5-.246.848-.294.348-.046.76-.335.993-1.034.232-.702.138-1.398-.215-1.678-.351-.28-.543.224-.823.577 0 0 .059-.679.208-.985 0 0-.354-.498-.664-.975-.31-.477-.553-.648-.444-.759.107-.109.744.145 1.051.404 0 0 .326-.222 1.182.249.731.403 1.168 1.275 1.168 1.275s.285.084.571.278c.284.194.442.651.442.651z"/>
</svg>
