<svg xmlns="http://www.w3.org/2000/svg" viewBox="0 0 36 36">
  <path fill="#F7DECE" d="M8.646 4.146c.011.127.871 1.535 1.323 2.635.452 1.1.71 2.198.948 2.448.476.499 2.285 1.879 3.271 3.343.985 1.464.57 2.503-.094 2.922-.88.555-1.803.204-2.437-.788-.451-.706-1.951-3.209-2.739-4.601-.306-.541-1.018-1.512-1.449-2.574-.406-1-.454-2.168-.515-2.312-.179-.425-.878-.977-.912-1.407 0 0 2.567-.095 2.604.334zm18.708 0c-.011.127-.871 1.535-1.323 2.635-.452 1.1-.71 2.198-.948 2.448-.476.499-2.285 1.879-3.271 3.343-.985 1.464-.57 2.503.094 2.922.88.555 1.803.204 2.437-.788.451-.706 1.951-3.209 2.739-4.601.304-.54 1.017-1.511 1.448-2.573.406-1 .454-2.168.515-2.312.178-.425.878-.977.912-1.406.001-.002-2.566-.097-2.603.332z"/>
</svg>
