<svg xmlns="http://www.w3.org/2000/svg" viewBox="0 0 36 36">
  <path fill="#292F33" d="M18.011 34.975l-.052.016c.018-.068.042-.19.042-.383 0-.303-.156-.869-.199-.95s-.09-.139-.194-.11c-.079.022-.685.326-1.072.341-.719.027-1.066-.618-1.066-.618s-.399.228-.716.413c-.318.185-.687.462-.959.627-.232.141-.497.208-.771.243s-.497.023-.563.029c-.066.006-.621-.061-.641.488l.003.127-.054-.026s-.048.17-.052.202c-.004.033-.024.052.046.096.07.044.378.176.77.274s1.028.243 1.519.243.909-.098 1.151-.156c.243-.058.763-.169.813-.146.05.023.116.191.173.243.058.052 1.61-.081 1.721-.104.112-.023.146-.119.146-.162v-.649c.002-.027-.021-.045-.045-.038zm10.947-3.752l-.504-.429c-.019-.016-.048-.011-.059.012l-.022.051c-.041-.059-.12-.158-.269-.285-.235-.2-.777-.454-.868-.473-.091-.02-.167-.022-.213.077-.035.076-.199.746-.444 1.056-.454.575-1.184.418-1.184.418l-.153.828c-.067.368-.096.838-.148 1.158-.044.273-.167.523-.322.758-.154.236-.31.4-.35.456-.039.055-.457.441-.045.82l.101.081-.055.025s.1.149.122.174c.022.025.025.053.104.028s.386-.177.721-.416c.336-.24.868-.637 1.192-1.018.325-.381.524-.77.64-.996.116-.226.373-.703.424-.727.051-.024.224.036.303.026.078-.01 1.001-1.302 1.057-1.403s.005-.193-.028-.221z"/>
</svg>
