<svg xmlns="http://www.w3.org/2000/svg" viewBox="0 0 36 36">
  <path fill="#BA5B1F" d="M30.219 14.5c.047-.344.031-.875-.078-1.062-.109-.188-.281-.297-.172-.328.109-.031.625.516.344 1.625-.282 1.109-.094-.235-.094-.235z"/>
  <path fill="#BA5B1F" d="M30.164 14.404c-.211-.123-.484-.436-.457-.607.027-.172.23-.484.262-.422.031.062-.094.256 0 .511s.14.269.267.439c.126.171-.072.079-.072.079zm-.115.237c-.126-.152-1.517-1.047-1.377-1.109s1.338.688 1.528 1.109c.191.421-.151 0-.151 0z"/>
  <path fill="#BA5B1F" d="M29.969 14.906c-.509-.505-1.766-.594-1.703-.672s1.674.07 1.899.535c.226.465-.196.137-.196.137z"/>
  <path fill="#BA5B1F" d="M29.934 15.173c-.574-.298-1.578-.361-1.67-.345-.092.016.969-.298 1.727.171.759.47-.057.174-.057.174zm.035.421c-.594-.266-1.469-.188-1.625-.094-.156.094.453-.354.875-.31.422.044.83.132.946.213.116.081.011.283-.196.191z"/>
  <path fill="#BA5B1F" d="M30.315 14.401c-.072-.384-.073-.708-.588-.669-.515.039-.608 1.002-.479 2.346.128 1.344-.028 1.784-.052 1.861-.023.077.287-.267.265-.861-.022-.594-.153-1.899-.111-2.379.042-.48.275-.84.585-.746.31.095.24.336.231.629-.01.293.149-.181.149-.181z"/>
  <path fill="#BA5B1F" d="M30.656 16.9s.156-.088.359-1.15c.203-1.062-.234-1.516-.625-1.516s-.828.453-.625 1.516c.203 1.062.359 1.15.359 1.15s-.479.455-.411.676c.067.221.677.226.677.226s.609-.005.677-.226c.068-.221-.411-.676-.411-.676z"/>
  <path fill="#BA5B1F" d="M30.567 14.5c-.047-.344-.031-.875.078-1.062s.281-.297.172-.328c-.109-.031-.625.516-.344 1.625.282 1.109.094-.235.094-.235z"/>
  <path fill="#BA5B1F" d="M30.622 14.404c.211-.123.484-.436.457-.607s-.23-.484-.262-.422c-.031.062.094.256 0 .511s-.14.269-.267.439c-.126.171.072.079.072.079zm.115.237c.126-.152 1.518-1.047 1.377-1.109-.141-.062-1.338.688-1.528 1.109-.19.421.151 0 .151 0z"/>
  <path fill="#BA5B1F" d="M30.817 14.906c.509-.505 1.766-.594 1.703-.672s-1.674.07-1.899.535c-.225.465.196.137.196.137z"/>
  <path fill="#BA5B1F" d="M30.853 15.173c.574-.298 1.578-.361 1.67-.345.092.016-.969-.298-1.728.171-.759.47.058.174.058.174zm-.036.421c.594-.266 1.469-.188 1.625-.094.156.094-.453-.354-.875-.31-.422.044-.83.132-.946.213-.116.081-.011.283.196.191z"/>
  <path fill="#BA5B1F" d="M30.472 14.401c.072-.384.073-.708.588-.669.515.039.607 1.002.479 2.346s.028 1.784.052 1.861c.024.077-.287-.267-.265-.861.022-.594.153-1.899.111-2.379-.042-.48-.275-.84-.585-.746-.31.095-.24.336-.231.629.009.293-.149-.181-.149-.181z"/>
</svg>
