<svg xmlns="http://www.w3.org/2000/svg" viewBox="0 0 36 36">
  <path fill="#F7DECE" d="M13.052 22.569c-.236.161-.512-.02-.646-.131-.379-.313-.763-1.144-.611-2.142.154-1.008.199-2.185.673-4.137.055-.228-.069-2.776.212-4.528.076-.473.958-1.066 1.495-1.057.536.008.263.944.274 1.101.12 1.682-.348 4.279-.398 4.632-.277 1.956-1.033 2.835-.776 4.13.135.679.154 1.293-.242 1.345.005.366.106.728.019.787zm9.896 0c.236.161.512-.02.646-.131.379-.313.763-1.144.611-2.142-.154-1.008-.199-2.185-.673-4.137-.055-.228.069-2.776-.212-4.528-.076-.473-.958-1.066-1.495-1.057-.536.008-.263.944-.274 1.101-.12 1.682.348 4.279.398 4.632.277 1.956 1.033 2.835.776 4.13-.135.679-.154 1.293.242 1.345-.005.366-.106.728-.019.787z"/>
</svg>
