<svg xmlns="http://www.w3.org/2000/svg" viewBox="0 0 36 36">
  <path fill="#FFAC33" d="M8.916 12.88c-.111 1.652 1.768 3.126-.712 2.959-2.48-.167-7.836-2.533-7.768-3.53s3.708-2.757 6.188-2.59c2.48.166 2.404 1.508 2.292 3.161zm20.122 16.049c-.202-.032-.392.015-.564.095-2.325.232-3.225-1.885-3.225-1.885-.439-.336-.981-2.009-1.589-1.215l.187 1.402c.187 1.402 2.57 3.224 2.57 3.224l-1.215 1.589c-.336.439-.252 1.066.187 1.402.439.336 1.066.252 1.402-.187l.673-.88-.039.249c-.087.546.285 1.058.831 1.145.546.087 1.058-.285 1.145-.831l.47-2.963c.085-.546-.287-1.058-.833-1.145zm-6.278.623c-.196-.058-.39-.037-.572.018-2.335-.082-2.944-2.3-2.944-2.3-.39-.392-.703-2.123-1.412-1.417l-.003 1.414c-.003 1.414 2.115 3.539 2.115 3.539l-1.417 1.412c-.392.39-.393 1.023-.003 1.414.39.392 1.023.393 1.414.003l.785-.782-.073.242c-.159.529.141 1.086.67 1.246.529.159 1.087-.141 1.246-.67l.862-2.873c.162-.53-.138-1.087-.668-1.246z"/>
</svg>
