<svg xmlns="http://www.w3.org/2000/svg" viewBox="0 0 36 36">
  <path fill="#DD2E44" d="M35.009 6.729c-.383-.17-.758-.057-1.05.244-.054.056-4.225 6.306-14.532 4.944-.34-.045 3.139 11.968 3.199 11.962.124-.014 3.07-.368 6.14-2.553 2.818-2.005 6.284-5.991 6.797-13.598.028-.418-.171-.828-.554-.999z"/>
  <path fill="#DD2E44" d="M34.477 21.108c-.204-.336-.59-.56-.979-.471-1.293.295-3.197.543-4.53.453-6.357-.428-9.361-4.129-9.392-4.16-.275-.282.466 11.552.816 11.576 9.194.62 13.862-6.027 14.057-6.31.222-.326.233-.751.028-1.088z"/>
  <path fill="#DD2E44" d="M24.586 19.016c-.371 5.51 1.316 9.861-4.194 9.489-5.51-.371-10.145-4.92-9.774-10.431s14.34-4.568 13.968.942z"/>
  <path fill="#DD2E44" d="M23.257 12.412c-.353 5.235-3.922 9.257-9.156 8.904-5.235-.353-9.193-4.882-8.84-10.117.353-5.235 4.832-8.444 10.067-8.091 4.001.269 8.24 4.683 7.929 9.304z"/>
</svg>
