<svg xmlns="http://www.w3.org/2000/svg" viewBox="0 0 36 36" xml:space="preserve">
  <path d="M2.846 18.409a.526.526 0 0 1-.721-.493 1.914 1.914 0 0 1 3.271-1.335.539.539 0 0 1-.183.882l-2.367.946zm7.895-5.769a.541.541 0 0 0-.114-.894 1.915 1.915 0 0 0-2.66 2.323.527.527 0 0 0 .842.232l1.932-1.661zm9.523-8.81a.543.543 0 0 0 .889-.15 1.913 1.913 0 0 0-2.431-2.562.526.526 0 0 0-.198.851l1.74 1.861zm4.617 4.194a.54.54 0 0 0 .486-.758 1.914 1.914 0 0 0-3.532.074.526.526 0 0 0 .497.719l2.549-.035zm6.206 4.741a.54.54 0 0 0-.234-.87 1.916 1.916 0 0 0-2.321 2.662.525.525 0 0 0 .866.116l1.689-1.908zm-6.244 4.772a.538.538 0 0 0-.128-.891 1.916 1.916 0 0 0-2.623 2.366.527.527 0 0 0 .846.219l1.905-1.694zm-5.181 3.193a.541.541 0 0 0-.085-.897 1.915 1.915 0 0 0-2.735 2.235.525.525 0 0 0 .834.259l1.986-1.597z" fill="#FBBEA9"/>
</svg>
