<svg xmlns="http://www.w3.org/2000/svg" viewBox="0 0 36 36" xml:space="preserve">
  <path d="M31.926 23.057c.805-.063.635 1.016.843 1.716.372 1.25 1.1 1.627-.799 3.569-1.104 1.129-1.795-.738-1.461-2.585.304-1.682.603-2.636 1.417-2.7zm-30.088-12.1c-.188.641.106 1.344.771 1.258.753-.096.689-2.325-.026-2.239-.352.043-.585.437-.745.981zM4 3.197a2 2 0 0 0-2 2c-.002 1.116.856 2.629 1.979 2.773 1.131.14 2.005-1.573 2.017-2.739C5.999 4.092 5.104 3.197 4 3.197zm.801 5.404c-.309-.005-.545.286-.528.653s.28.669.589.677c.308.007.545-.284.528-.653-.016-.369-.28-.671-.589-.677zM29.873 30.1c-.309-.006-.552.3-.54.681.012.381.273.688.583.695.309.007.549-.289.537-.67-.013-.382-.271-.7-.58-.706zm4.798-9.054c-.338-.034-.661.409-.729.965-.068.556.152 1.002.484 1.043.332.042.666-.337.742-.9s-.159-1.074-.497-1.108zM7.731 1.389c-.259-.168-.614-.046-.794.274-.18.32-.117.716.141.886.258.17.613.048.794-.274s.118-.718-.141-.886z" fill="#A8E0F9"/>
</svg>
