<svg xmlns="http://www.w3.org/2000/svg" viewBox="0 0 36 36" xml:space="preserve">
  <path fill="#F7DECE" d="M35.366 20.68c0-1.196-.97-2.165-2.166-2.165-2.527 0-5.025.541-7.325 1.587l-2.873 1.306a11.534 11.534 0 0 1-9.316.101 2.247 2.247 0 0 1-1.067-3.185l1.183-2.07a8.425 8.425 0 0 0 .946-5.832 1.945 1.945 0 0 0-2.371-1.507c-.331.081-.583.355-.677.682l-.834 2.918-5.501 6.601a9.564 9.564 0 0 1-5.028 3.156L0 22.356v9.887l1.076.369s6.601-2.49 7.884-2.581l9.558-.698c1.678-.12 10.186-4.674 10.186-4.674 1.152-.64 6.837-1.244 6.837-2.302 0-.605-.175-1.723-.175-1.677z"/>
</svg>
