<svg xmlns="http://www.w3.org/2000/svg" viewBox="0 0 36 36">
  <path fill="#F4ABBA" d="M29.75 27.625s2.184-.443 3.542-2.229c1.583-2.083 1.375-4.312 1.375-4.312 1.604-3-.5-5.813-.5-5.813C33.958 12.104 32 10.792 32 10.792c-1.271-3.021-4.083-3.833-4.083-3.833-2.208-2.583-6.125-2.5-6.125-2.5s-3.67-1.345-8.708.167c-.833.25-3.625.833-5.667 2.083C.981 10.649.494 16.793.584 17.792 1.083 23.375 5 24.375 7.5 24.958c.583 1.583 2.729 4.5 6.583 3.417 4.75-.833 6.75-2.25 7.917-2.25s4.417 1.25 7.75 1.5z"/>
</svg>
