<svg xmlns="http://www.w3.org/2000/svg" viewBox="0 0 36 36">
  <path fill="#1C6399" d="M10.912 14.422l-.368.29c-.142.112-.348.087-.459-.054l-.918-1.164c-.112-.142-.087-.348.054-.459l.368-.29c.142-.112.348-.087.459.054l.918 1.164c.112.142.088.347-.054.459zm3.438-2.632l-.368.29c-.142.112-.348.087-.459-.054l-.918-1.164c-.112-.142-.087-.348.054-.459l.368-.29c.142-.112.348-.087.459.054l.918 1.164c.112.142.088.347-.054.459zm6.52-5.208l-.368.29c-.142.112-.348.087-.459-.054l-.918-1.164c-.112-.142-.087-.348.054-.459l.368-.29c.142-.112.348-.087.459.054l.918 1.164c.113.141.088.347-.054.459zm3.471-2.664l-.368.29c-.142.112-.348.087-.459-.054l-.918-1.164c-.112-.142-.087-.348.054-.459l.368-.29c.142-.112.348-.087.459.054l.918 1.164c.112.141.088.347-.054.459zm-8.532 9.678c-.217 0-.433-.094-.581-.275-.262-.32-.215-.793.106-1.055l1.409-1.152c.321-.262.794-.216 1.056.106.262.32.215.793-.106 1.055l-1.409 1.152c-.14.113-.308.169-.475.169z"/>
</svg>
