<svg xmlns="http://www.w3.org/2000/svg" viewBox="0 0 36 36">
  <path fill="#88C9F9" d="M32 36v-2c0-3.313-2.687-6-6-6H10c-3.313 0-6 2.687-6 6v2h28z"/>
  <path fill="#88C9F9" d="M13.64 28.101c1.744 1.267 2.849 3.728 4.36 3.728 1.511 0 2.616-2.462 4.36-3.728V24.29h-8.72v3.811zm-2.196-12.166c0 1.448-.734 2.622-1.639 2.622C8.9 18.558 8 17.448 8 16c0-1.935.501-2.687 1.806-2.687.905 0 1.638 1.174 1.638 2.622zM28 16c0 1.448-.9 2.558-1.806 2.558-.905 0-1.639-1.174-1.639-2.622s.734-2.623 1.639-2.623c1.352 0 1.806.752 1.806 2.687z"/>
  <path fill="#88C9F9" d="M9.478 16.96C9.478 11.371 11 5 18 5s8.522 6.371 8.522 11.96C26.522 22 24 27.08 18 27.08S9.478 22 9.478 16.96z"/>
</svg>
