<svg xmlns="http://www.w3.org/2000/svg" viewBox="0 0 36 36">
  <g fill="#CBB7EA">
    <path d="M26.985 10.177c-1.396-1.115-3.044-2.037-4.612-2.559-.365-.122-.755.076-.876.437-.121.363.075.755.438.876 1.666.555 3.495 1.666 4.882 2.935.09-.623.151-1.328.168-1.689zM9.117 11.311c2.007-1.436 8.723-5.759 16.398-5.819-.473-.545-.984-.937-1.579-1.308-6.706.498-12.428 3.839-14.931 5.522.01.455.046 1.013.112 1.605z"/>
    <path d="M26.421 6.89c-.028-.004-.084 0-.113 0-2.835 0-5.703.71-8.528 2.108.139-.042.22-.064.22-.064s.815.212 1.937.621c2.126-.845 4.263-1.28 6.371-1.28.203 0 .404.014.573.052-.075-.419-.248-1.011-.46-1.437zM9.188 8.036c2.477-1.586 7.101-3.872 12.342-4.784C20.734 3.016 19.983 3 19.125 3H17.36c-2.725 1.059-5.152 1.857-7.022 2.887-.536.678-.934 1.314-1.15 2.149z"/>
  </g>
</svg>
