<svg xmlns="http://www.w3.org/2000/svg" viewBox="0 0 36 36">
  <path d="M26.546 20.159c.032-.204-.107-.396-.312-.428-.209-.039-.396.108-.428.312-.01.064-1.072 6.251-7.231 6.625.111-.968-.078-1.805-.088-1.846-.063-.27-.334-.44-.602-.372-.269.063-.435.332-.372.601.002.009.178.784.052 1.627-6.269-.28-7.328-6.37-7.37-6.636-.033-.204-.224-.344-.429-.312-.204.032-.344.224-.312.428.008.049.567 3.305 3.133 5.45.007.017.026.04.07.078.749.646 3.923 3.988 5.34 4.061v.001l.004-.001.004.001v-.001c1.416-.073 4.591-3.415 5.34-4.061.043-.037.062-.06.07-.077 2.564-2.144 3.124-5.401 3.131-5.45z"/>
</svg>
