<svg xmlns="http://www.w3.org/2000/svg" viewBox="0 0 36 36">
  <path d="M6.103 20.705c-.048 0-.097-.007-.146-.021-2.429-.74-2.859-3.564-2.876-3.684-.039-.273.15-.525.423-.565.272-.038.526.149.566.422.003.023.362 2.316 2.178 2.869.264.081.413.36.333.624-.066.216-.264.355-.478.355zm-1.077 2.012c-.049 0-.099-.007-.148-.022C1.321 21.593.366 17.586.327 17.416c-.062-.269.106-.537.375-.599.271-.062.537.106.6.375.008.036.872 3.618 3.873 4.548.264.082.411.361.33.625-.067.214-.265.352-.479.352z" fill="#5DADEC"/>
</svg>
