<svg xmlns="http://www.w3.org/2000/svg" viewBox="0 0 36 36">
  <path fill="#FFAC33" d="M6.306 22.807c0-.467-.006-.895-.012-1.292-.022-1.526-.037-1.988.321-3.093.649-2.001 1.812-3.292 2.686-3.834 2.174-1.35 3.178-2.708 3.637-3.609.482.638 1.308 1.518 2.629 2.344 1.455.911 2.898 1.194 4.293 1.468 1.867.366 3.63.712 5.305 2.564.3.331.562.551.865.551h.229l.217-.203c.245-.283.188-1.234.091-1.904-.082-.571-.233-1.03-.665-1.656 1.053.426 1.969 1.347 2.601 2.222.917 1.27 1.192 3.798 1.192 6.442 0 1.337-.084 2.787-.297 4.241.507-1.331.797-2.759.797-4.241 0-4.12-.432-5.73-1.478-7.179-.918-1.271-2.093-2.294-4.668-2.656.966.443 1.891 1.972 2.012 2.817.121.845.242 1.529-.523.684-3.063-3.386-6.399-2.052-9.705-4.121-2.31-1.445-3.013-3.042-3.013-3.042s-.282 2.133-3.783 4.306c-1.015.63-2.226 2.033-2.897 4.105-.483 1.489-.333 2.817-.333 5.086 0 1.487.288 2.915.791 4.244-.21-1.448-.292-2.896-.292-4.244z"/>
</svg>
