<svg xmlns="http://www.w3.org/2000/svg" viewBox="0 0 36 36">
  <path fill-rule="evenodd" clip-rule="evenodd" fill="#F4900C" d="M25.774 11.114l-.149.073c-.268.126-.521.299-.838.278-.03-.002-.065.014-.071.048-.021.1-.097.112-.176.113-.153.003-.267.067-.356.193-.099.138-.224.244-.398.281-.056.012-.108.044-.157.074-.145.088-.299.129-.467.112-.055-.006-.091.011-.124.056-.077.103-.162.202-.244.301-.045.053-.094.106-.161.119-.224.044-.402.181-.596.286-.362.196-.726.39-1.132.485-.168.039-.346.087-.51.043-.135-.036-.218.009-.309.075-.056.039-.11.08-.158.127-.189.184-.409.266-.673.232-.049-.007-.098-.006-.143.019-.22.12-.468.123-.706.169-.108.022-.219-.017-.322.008-.246.057-.487-.01-.726-.032-.177-.017-.351-.058-.53-.029-.109.018-.202-.009-.282-.081-.078-.07-.157-.075-.245-.024-.075.044-.155.047-.23.007-.088-.046-.174-.048-.267-.022-.113.031-.229.052-.345.014-.271-.087-.551-.151-.811-.271-.125-.058-.125-.054-.113.088.014.165.071.323.065.492-.008.231-.018.461-.036.692-.026.343-.204.574-.498.735-.111.061-.21.061-.322.007-.204-.1-.405-.206-.619-.286-.273-.102-.541-.127-.816-.008-.094.041-.175.129-.294.099-.007-.002-.02.013-.028.021-.096.1-.196.197-.233.337-.054.201-.142.373-.344.475-.111.056-.202.15-.317.204-.158.074-.351.086-.465-.018-.135-.124-.333-.198-.396-.397-.012-.037-.055-.065-.08-.009-.054.124-.106.252-.042.39.047.101.097.2.175.28.024.025.039.055.046.089.023.116.031.233.002.348-.017.068-.006.126.03.184.026.042.074.102.051.132-.092.118-.006.192.048.277.004.008.01.017.01.026-.004.138.095.187.199.233.062.028.125.059.147.131.059.192.085.393.153.585.023.065.038.11.1.145.141.078.291.143.378.297.041.072.135.094.223.084.034-.004.076-.018.094.014.042.068.109.068.17.062.143-.016.244.045.325.154.042.057.096.092.163.113.146.049.292.098.431.162.083.039.164.053.243-.01.021-.016.045-.018.07-.014.134.025.248-.014.349-.104.041-.037.091-.062.144-.037.089.041.173.021.261 0 .097-.025.199-.033.288.018.166.094.27.248.372.404.066.1.065.209.046.32-.007.039.007.045.042.047.191.014.383.031.579.049-.017-.065-.064-.107-.098-.156-.075-.113-.123-.236-.079-.367.076-.227.24-.391.449-.49.088-.043.183-.08.272-.123.25-.123.507-.108.766-.033.136.039.297-.012.382-.119.017-.022.041-.029.064-.031.07-.01.143-.021.211 0 .073.025.132.025.186-.043.024-.029.069-.037.11-.035.027 0 .051 0 .074-.025.063-.074.151-.102.243-.123.021-.004.043-.002.059-.021.135-.169.331-.215.529-.255.071-.015.12-.044.161-.104.145-.21.289-.263.536-.198.062.017.078-.005.093-.057.026-.094.068-.182.155-.232.049-.028.061-.062.061-.111.001-.142.003-.284.006-.425.007-.328.248-.499.498-.539.153-.024.308-.007.461-.004.106.003.2.031.287.088.079.053.151.115.231.168.078.054.158.049.242.003.072-.04.105-.092.083-.174-.013-.051.013-.066.06-.063.071.005.153.023.209-.016.13-.088.262-.044.393-.035.05.003.102.002.144.028.108.07.249.063.351.149.007.006.021.001.056.001-.053-.028-.048-.058-.04-.093.018-.082 0-.161-.048-.229-.079-.113-.221-.179-.243-.336-.005-.03-.056-.056-.087-.08-.061-.047-.124-.091-.186-.137-.037-.028-.075-.06-.085-.106-.037-.181-.162-.298-.286-.418-.242-.235-.345-.517-.288-.855.018-.11.029-.224.104-.31.066-.076.145-.137.138-.25-.001-.013.011-.031.021-.039.131-.108.259-.219.45-.18.082.017.167.017.248.003.109-.017.194-.073.225-.191.016-.062.028-.129.062-.183.177-.289.435-.501.713-.683.114-.075.253-.125.38-.186.081-.038.16-.083.249-.095.057-.008.092-.034.126-.077.158-.207.328-.401.597-.471.074-.019.109-.084.136-.153.033-.09.065-.188.148-.24.259-.163.482-.398.815-.416.072-.003.111-.044.129-.112l.07-.277c.003-.004.011-.01.01-.012-.011-.007-.02-.002-.028.003z"/>
</svg>
