<svg xmlns="http://www.w3.org/2000/svg" viewBox="0 0 36 36">
  <path fill="#31373D" d="M32.415 3.09c-1.752-.799-3.615-1.187-5.698-1.187-2.518 0-5.02.57-7.438 1.122-2.418.551-4.702 1.072-6.995 1.072-1.79 0-3.382-.329-4.868-1.006-.309-.142-.67-.115-.956.068C6.173 3.343 6 3.66 6 4v19c0 .392.229.747.585.91 1.752.799 3.616 1.187 5.698 1.187 2.518 0 5.02-.57 7.438-1.122 2.418-.551 4.702-1.071 6.995-1.071 1.79 0 3.383.329 4.868 1.007.311.14.67.115.956-.069.287-.185.46-.502.46-.842V4c0-.392-.229-.748-.585-.91z"/>
</svg>
