<svg xmlns="http://www.w3.org/2000/svg" viewBox="0 0 36 36">
  <path fill="#FFDC5D" d="M19.321 1.07c-1.81-.712-4.528.226-4.96 2.322-.602 2.925 1.069 5.402 2.914 5.203 1.934-.209 3.121-.638 3.905-2.629.783-1.992-.049-4.184-1.859-4.896z"/>
  <path fill="#FFDC5D" d="M20.665 6.478c2.634-3.094-3.711-2.792-3.711-2.792-1.201.044-.374 2.044-.939 3.137-.388.756 1.244 1.157 1.244 1.157s.749-.011.789.897v.008c.009.231-.015.506-.123.873-.538 1.819 1.905 2.934 2.442 1.111.212-.721.13-1.355.022-1.941l-.01-.052c-.163-.87-.365-1.633.286-2.398z"/>
</svg>
