<svg xmlns="http://www.w3.org/2000/svg" viewBox="0 0 36 36">
  <g fill="#E1E8ED">
    <path d="M22 20c0-.553-.484-1-1.083-1H10.083C9.485 19 9 19.447 9 20c0 .553.485 1 1.083 1h10.833c.6 0 1.084-.447 1.084-1zm8 9c0-.553-.447-1-1-1H18c-.552 0-1 .447-1 1 0 .553.448 1 1 1h11c.553 0 1-.447 1-1z"/>
    <path d="M21.224 17l-4.166 11.664c-.185.519.086 1.092.606 1.277.111.04.224.059.336.059.411 0 .796-.255.942-.664L23.348 17h-2.124z"/>
    <path d="M29.001 30c-.33 0-.654-.164-.845-.463l-7-11c-.297-.466-.159-1.084.307-1.381.467-.297 1.084-.159 1.381.307l7 11c.297.466.159 1.084-.307 1.381-.167.105-.352.156-.536.156zM19 25.734l-8.387-6.524c-.435-.34-1.063-.26-1.403.176-.339.437-.26 1.064.176 1.403l9 7c.182.143.398.211.613.211H19v-2.266z"/>
    <path d="M7 30c-.104 0-.211-.017-.316-.052-.524-.174-.807-.74-.632-1.265l2.772-8.316-3.423-2.568c-.442-.331-.531-.958-.2-1.4.331-.44.957-.531 1.4-.2l4.577 3.433-3.228 9.684c-.141.419-.532.684-.95.684z"/>
  </g>
</svg>
