<svg xmlns="http://www.w3.org/2000/svg" viewBox="0 0 36 36">
  <path fill="#269" d="M27.979 14.875c-1.42-.419-2.693-1.547-3.136-2.25-.76-1.208.157-1.521-.153-4.889C24.405 4.653 20.16 1.337 15 1c-2.346-.153-4.786.326-7.286 1.693-6.42 3.511-8.964 10.932-4.006 18.099 4.47 6.46.276 9.379.276 9.379s.166 1.36 2.914 3.188c2.749 1.827 6.121.588 6.121.588s1.112-3.954 4.748-3.59c2.606.384 6.266-.129 7.191-1.024.865-.837-.151-1.886.539-4.224-2.365-.232-3.665-1.359-3.79-2.948 2.625.255 3.708-.578 4.458-1.495-.021-.54-.075-1.686-.127-2.454 2.322-.672 3.212-2.962 1.941-3.337z"/>
</svg>
