<svg xmlns="http://www.w3.org/2000/svg" viewBox="0 0 36 36">
  <path fill="#60352A" d="M33 12.65c0-.891-.469-1.667-1.171-2.11.106-.277.171-.575.171-.89 0-1.276-.959-2.316-2.193-2.469.118-.323.193-.667.193-1.031 0-1.657-1.343-3-3-3-.395 0-.77.081-1.115.22-.346-1.276-1.5-2.22-2.885-2.22-.87 0-1.646.376-2.194.967C20.384.971 19.292.15 18 .15s-2.384.821-2.806 1.967C14.646 1.526 13.87 1.15 13 1.15c-1.385 0-2.539.944-2.884 2.22-.346-.139-.721-.22-1.116-.22-1.657 0-3 1.343-3 3 0 .364.075.708.193 1.031C4.959 7.334 4 8.374 4 9.65c0 .315.065.613.171.89C3.469 10.983 3 11.759 3 12.65c0 .878.455 1.648 1.141 2.094-.613.992-.479 2.596 1.08 2.774-.089 1.381 1.254 2.515 1.337.535.045-1.069.367-2.436 1.114-3.965 1.189.403 2.673.223 3.876-.134s2.29-1.004 2.538-1.189c.378 1.362 1.986 2.385 3.914 2.385 1.296 0 2.798-.346 3.528-1.063.476 1.259 2.179 1.96 4.01 1.96 1.076 0 2.534-.417 3.252-.936.287.792.551 1.387.535 2.584-.031 2.348 1.025 1.464 1.47-.134 1.421.009 1.693-1.738 1.065-2.819.685-.444 1.14-1.214 1.14-2.092z"/>
</svg>
