<svg xmlns="http://www.w3.org/2000/svg" viewBox="0 0 36 36">
  <path fill="#334372" d="M17.043 19.746c.702-1.228 1.699-.59 2.881-1.366.95-.624 1.079-1.574 2.079-1.574s1.604.832 2.168 1.04c1.327.489 2.119-.228 3.119.772s-.772 1.901-.921 2.673c-.189.982 1.04 1.693.178 2.168-1.237.683-1.549-.556-3.547-.459-1.502.073-2.096 1.528-3.403 1.082-1.339-.456.475-1.752-.327-2.584-.981-1.018-2.702-.92-2.227-1.752zm-10.871-7.99c.445-1.036 1.065-.439 1.932-1.161.696-.581.712-1.345 1.504-1.436.792-.091 1.346.514 1.812.627 1.096.267 1.88-.08 2.541.329.959.594-.138 1.312-.186 1.937-.061.795.676 1.511.036 1.966-.919.654-1.492-.174-3.066.083-1.183.194-1.271 1.037-2.347.802-1.102-.24-.151-1.315-.861-1.901-.869-.716-1.667-.544-1.365-1.246zM24.39 6.679c.831-.296.818.377 1.693.49.703.091 1.15-.307 1.624.1.473.406.421 1.045.604 1.373.429.77 1.046 1.036 1.162 1.632.17.866-.826.618-1.21.924-.488.388-.508 1.191-1.108 1.066-.864-.18-.693-.948-1.678-1.714-.74-.576-1.27-.177-1.708-.919-.448-.76.674-.785.632-1.505-.051-.881-.573-1.247-.011-1.447z"/>
</svg>
