<svg xmlns="http://www.w3.org/2000/svg" viewBox="0 0 36 36">
  <path d="M30.529 19.661l.17.583h.587l-.464.358.171.567-.464-.357-.464.34.17-.55-.464-.358h.573zm-1.531-6.504l-.679.627.068-.921-.914-.139.762-.523-.46-.801.884.27.339-.859.339.859.884-.27-.46.801.761.522-.913.14.068.921zm-3.623 5.313l-.679.627.068-.922-.914-.139.762-.522-.46-.802.884.271.339-.859.339.859.884-.271-.46.802.761.522-.913.139.068.922zm7.11-.439l-.678.627.067-.922-.914-.139.763-.522-.46-.802.883.271.339-.859.339.859.884-.271-.46.802.762.522-.913.139.067.922zm-3.547 7.74l-.678.627.067-.921-.914-.139.763-.523-.46-.801.884.27.338-.859.339.859.884-.27-.46.801.762.522-.913.14.067.921zm-8.573-3.831c-2.175 0-3.94-1.766-3.94-3.941 0-2.177 1.765-3.94 3.94-3.94.828 0 1.594.258 2.228.695-.905-1.039-2.235-1.699-3.724-1.699-2.731 0-4.944 2.214-4.944 4.945 0 2.73 2.213 4.945 4.944 4.945 1.488 0 2.819-.66 3.727-1.7-.635.437-1.403.695-2.231.695zM11.973 12c0 2.809-2.276 5.086-5.085 5.086S1.801 14.809 1.801 12s2.277-5.086 5.086-5.086S11.973 9.191 11.973 12z" fill="#FFE000"/>
</svg>
