<svg xmlns="http://www.w3.org/2000/svg" viewBox="0 0 36 36">
  <path fill="#F4900C" d="M11.569 35.41c-2.223-.63-5.362-4.11-6.86-7.331-.183-.391-1.101-.673-1.265-1.084C.953 20.775.637 12.54 6.342 6.834 12.751.425 20.537-.295 26.817 1.757c.45.147.837 1.114 1.286 1.199 5.917 1.115 8.322 7.549 5.759 6.816-1.199-.342-2.657-.557-3.814-.428-.437.049-1.051.892-1.544.962-.767.11-2.64.212-3.564.305-9.159.916-12.395 6.971-12.811 14.256-.046.808-.617.623-.73 1.283-.344 1.992 1.089 4.884 1.772 6.939.594 1.794.619 2.951-1.602 2.321z"/>
</svg>
