<svg xmlns="http://www.w3.org/2000/svg" viewBox="0 0 36 36">
  <path fill="#DB7803" d="M4.128 9.652c-1.439 2.333-2.158 4.906-2.333 7.505 2.615-1.499 6.334-2.652 12.393-.18.779-1.397 1.806-2.623 3.124-3.624-.992-.932-1.992-1.645-2.742-1.822-2.481-.588-7.17-2.213-10.442-1.879zm-.251 17.769c.324.215.719.416.832.658.032.069.069.139.103.209 1.92-1.11 4.42-1.707 6.553-1.642.006-.167.005-.339.032-.496.095-.552.506-.52.667-.965-4.887-1.059-6.75.812-8.187 2.236zM28.899 3.157c-.26-.074-.52-.148-.796-.2-.169-.032-.33-.19-.489-.382.918 2.123 1.899 5.032 1.024 7.689.467-.178 1.011-.875 1.409-.919.067-.007.143-.003.211-.008.206-1.704-.284-4.207-1.359-6.18z"/>
</svg>
