<svg xmlns="http://www.w3.org/2000/svg" viewBox="0 0 36 36">
  <path fill="#FFDC5D" d="M12.386 9.254c-.101-.078-.216-.132-.34-.161-.167-.04-.351-.035-.547.013-.39.097-.964.206-1.572.322-.83.158-1.931.476-2.229.476s-1.515-.391-2.634-.537c-.37-.048-1.552-.165-1.804-.193-.342-.038-.756-.08-1.073-.15-.146-.032-.713-.184-.943-.225-.436-.078-1.161-.115-1.202-.03-.176.368.763.233 1.538.913.454.398.916.381 1.355.349.347-.025 1.447.573 2.326.841.635.194 2.056.533 2.26.562s1.296-.052 2.023-.11c.735-.057 1.371-.107 1.879-.075.485.031.849-.079 1.083-.326.292-.309.286-.742.278-.867-.024-.339-.165-.624-.398-.802zm11.198 1.335c-.168-.229-.565-.565-1.412-.8-.657-.183-3.994-.629-4.649-.707-.508-.061-.197 1.809.06 1.966.165.101.365.11.667.141 1.223.126 3.062.028 3.392-.005.143-.014.209.038.218.129-.063.29-.287.669-.477 1.104-.318.727-.656 1.714-.778 1.827l-.111.101c-.251.046-.549.174-.815.391-.095.077-.184.172-.252.364-.094.268.17.299.234.138.027-.067.091-.183.239-.221-.005.031-.015.057-.016.093-.002.058-.017.106-.027.158-.228.395-.682.553-.651.706.007.033.048.035.08.044-.154.104-.274.176-.264.256.008.065.08.08.178.071-.071.053-.117.1-.111.149.026.209.556-.116.81-.219.433-.176.686-.36.986-.636.349-.322.518-.787.669-1.045.111-.19 1.441-1.807 1.736-2.348.435-.798.462-1.428.294-1.657z"/>
</svg>
