<svg xmlns="http://www.w3.org/2000/svg" viewBox="0 0 36 36">
  <path d="M23.541 6.458c-.213 0-.429-.068-.61-.208-.438-.338-.518-.966-.18-1.403L25.73.992c.335-.436.965-.52 1.402-.18.438.338.518.966.18 1.403L24.333 6.07c-.196.255-.492.388-.792.388zm-11.02 0c-.299 0-.595-.134-.792-.389L8.75 2.215c-.337-.437-.256-1.065.181-1.403.437-.337 1.064-.257 1.403.18l2.979 3.855c.337.437.257 1.065-.18 1.403-.183.141-.398.208-.612.208zM18 6c-.552 0-1-.448-1-1V1c0-.552.448-1 1-1 .553 0 1 .448 1 1v4c0 .552-.447 1-1 1z" fill="#5DADEC"/>
</svg>
