<svg xmlns="http://www.w3.org/2000/svg" viewBox="0 0 36 36" xml:space="preserve">
  <path d="M16.536 26.929c-.07.267-.207.498-.389.681l-1.004.996a1.494 1.494 0 0 1-1.437.396 1.5 1.5 0 0 1-.683-2.512l1.004-.996a1.494 1.494 0 0 1 1.437-.396 1.502 1.502 0 0 1 1.072 1.831zM5.992 22.008l1.503-1.497a1.5 1.5 0 0 0-.444-2.429 1.497 1.497 0 0 0-1.674.31l-1.503 1.497a1.5 1.5 0 0 0 .445 2.429 1.496 1.496 0 0 0 1.673-.31zm5.204.052a1.5 1.5 0 1 0-2.122-2.118L6.072 22.94a1.5 1.5 0 1 0 2.122 2.118l3.002-2.998zm2.25 3a1.5 1.5 0 0 0-.945-2.555 1.489 1.489 0 0 0-1.173.44L9.323 24.94a1.5 1.5 0 0 0 .945 2.556c.455.036.874-.141 1.173-.44l2.005-1.996zm21.557-7.456a1.45 1.45 0 0 0 .269-1.885l-.003-.005-3.467-6.521a1.488 1.488 0 0 0-1.794-.6c-1.992.771-4.174 1.657-6.292.937l-1.098-.377c-1.948-.675-4.066-1.466-6-.294-.695.409-1.738 1.133-2.411 1.58a6.873 6.873 0 0 1-2.762 1.076 1.502 1.502 0 0 0-1.235 1.737c.613 2.512 5.3.908 7.838-.369a.968.968 0 0 1 1.002.081l11.584 8.416 4.369-3.776z" fill="#9B6A49"/>
</svg>
