<svg xmlns="http://www.w3.org/2000/svg" viewBox="0 0 36 36">
  <path fill="#662113" d="M9.376 17.519c.545-1.059 3.556.521 6.07 3.035s4.047 5.549 3.035 6.07c-1.054.542-3.556-.521-6.07-3.035s-3.578-5.016-3.035-6.07z"/>
  <path fill="#662113" d="M9.864 18.15c-.078 0-.157-.018-.231-.057-.245-.128-.339-.43-.212-.675l8.485-16.263c.128-.245.429-.34.675-.212.245.128.339.43.212.675l-8.485 16.263c-.09.172-.264.269-.444.269zm8.486 8.486c-.18 0-.354-.098-.444-.269-.127-.245-.033-.547.212-.675l16.264-8.485c.245-.128.547-.033.675.212s.033.547-.212.675l-16.264 8.485c-.074.038-.153.057-.231.057z"/>
</svg>
