<svg xmlns="http://www.w3.org/2000/svg" viewBox="0 0 36 36">
  <path fill="#662113" d="M13.046 23.454c-.128 0-.256-.049-.354-.146-.195-.195-.195-.512 0-.707l11.314-11.314c.195-.195.512-.195.707 0s.195.512 0 .707L13.4 23.308c-.098.097-.226.146-.354.146zm-1.556-1.556c-.1 0-.2-.029-.288-.092-.226-.159-.279-.472-.12-.697l9.545-13.505c.161-.226.474-.277.697-.12.225.159.278.471.119.697l-9.545 13.506c-.096.138-.251.211-.408.211zm3.113 3.112c-.157 0-.312-.073-.409-.211-.16-.226-.106-.538.12-.697l13.505-9.546c.225-.158.537-.107.697.12.159.226.105.538-.119.697l-13.506 9.546c-.088.061-.189.091-.288.091zm-4.244-4.95c-.083 0-.167-.021-.244-.063-.241-.136-.327-.44-.191-.681l8.485-15.132c.135-.242.44-.327.68-.191.241.135.327.44.192.681l-8.486 15.131c-.091.163-.261.255-.436.255zm6.082 6.081c-.175 0-.345-.092-.437-.256-.135-.24-.049-.545.191-.681l15.132-8.485c.239-.135.545-.05.681.191.135.241.049.546-.192.681l-15.131 8.486c-.078.043-.162.064-.244.064z"/>
</svg>
