<svg xmlns="http://www.w3.org/2000/svg" viewBox="0 0 36 36">
  <path fill="#7C533E" d="M13.159 10.449c-.058 1.113-.67 1.987-1.366 1.95-.696-.036-1.213-.969-1.154-2.082.058-1.114.67-1.987 1.366-1.951.696.037 1.213.969 1.154 2.083m12.602.661c-.058 1.113-.67 1.987-1.366 1.95-.696-.036-1.213-.969-1.154-2.082.058-1.114.67-1.987 1.366-1.951.696.036 1.213.969 1.154 2.083"/>
  <path fill="#7C533E" d="M11.606 11.157c.225-4.298 3.342-7.628 6.961-7.439 3.619.19 6.371 3.828 6.145 8.126-.225 4.298-3.342 7.628-6.961 7.439-3.619-.19-6.371-3.828-6.145-8.126"/>
</svg>
