<svg xmlns="http://www.w3.org/2000/svg" viewBox="0 0 36 36" xml:space="preserve">
  <path fill="#65471B" d="M18 31c-5.629 0-6.896-3.527-6.947-3.678a1 1 0 0 1 1.889-.658C12.987 26.782 13.895 29 18 29c4.128 0 5.022-2.242 5.059-2.337.193-.51.763-.78 1.276-.596s.788.739.612 1.255C24.896 27.473 23.629 31 18 31zM28.994 8.011A1.005 1.005 0 0 0 28.011 7c-.067-.001-1.653-.056-3.304-1.707a.999.999 0 1 0-1.414 1.414C25.56 8.974 27.901 9 28 9a.995.995 0 0 0 .994-.989zM12.707 6.707a.999.999 0 1 0-1.414-1.414C9.652 6.934 8.075 6.998 7.99 7A1 1 0 0 0 8 9c.099 0 2.44-.026 4.707-2.293z"/>
</svg>
