<svg xmlns="http://www.w3.org/2000/svg" viewBox="0 0 36 36">
  <path fill="#5C913B" d="M29.866 24.625c2.522-.841 5.884-4.203 5.884-5.884s-2.522-.841-1.681-3.362 1.681-5.043 0-6.724-3.362 0-5.043-1.681 0-3.362-1.681-5.043-4.203-.841-6.724 0S18.939.25 17.258.25s-5.043 3.362-5.884 5.884-2.521.84-3.361 3.362c-.78 2.341.177 4.823-1.972 9.748-1.026 1.621-1.995 3.178-2.899 4.543C-.836 29.792.449 35.552.449 35.552s5.76 1.285 11.765-2.693c1.365-.904 2.922-1.873 4.543-2.899 4.925-2.15 7.407-1.192 9.748-1.972 2.521-.841.84-2.522 3.361-3.363z"/>
</svg>
