<svg xmlns="http://www.w3.org/2000/svg" viewBox="0 0 36 36">
  <path fill="#679E44" d="M34.253 19.017c-.103-.312-.438-.483-.75-.379-3.21 1.054-5.749.677-7.001.349 2.811-2.865 5.337-5.842 7.222-8.589.186-.271.116-.641-.154-.827-.271-.187-.641-.116-.826.154-1.082 1.576-2.403 3.251-3.878 4.944.082-1.765-.065-4.516-1.327-7.238-.139-.298-.492-.427-.789-.289-.298.138-.428.491-.289.789 1.679 3.623 1.194 7.416 1.062 8.235-1.369 1.489-2.837 2.973-4.356 4.402.156-1.873.084-4.922-1.559-7.337-.183-.271-.552-.343-.825-.158-.271.185-.342.554-.157.826 1.957 2.879 1.347 7.003 1.178 7.925-2.44 2.2-4.953 4.211-7.33 5.836 1.535-2.474 3.146-6.37 2-10.845-.082-.318-.406-.511-.723-.428-.318.082-.51.405-.428.723 1.679 6.557-3.33 11.987-3.778 12.456-5.407 3.356-8.373 4.368-8.407 4.379-.311.104-.479.439-.375.751.083.249.314.407.563.407.062 0 .125-.01.187-.03.16-.054 3.996-1.354 11.056-6.036 1.365-.905 2.768-1.936 4.176-3.05.695.426 2.288 1.141 5.162 1.141.804 0 1.706-.057 2.717-.19.325-.043.554-.342.511-.667-.042-.325-.349-.555-.667-.511-3.704.492-5.777-.136-6.717-.581 1.974-1.619 3.937-3.396 5.799-5.235.617.218 1.922.586 3.735.586 1.299 0 2.854-.189 4.592-.761.309-.105.478-.441.376-.752z"/>
</svg>
