<svg xmlns="http://www.w3.org/2000/svg" viewBox="0 0 36 36">
  <path fill="#3E721D" d="M12.753 24.327c.456-.09 1.009-.182 1.61-.281 3.811-.633 7.752-1.288 7.752-3.729 0-1.241-.664-1.982-1.101-2.436.25-.076.59-.147.825-.198 1.07-.227 2.402-.51 2.983-1.69.359-.729.313-1.608-.143-2.635.416-.307 1.58-.678 2.308-.909 1.796-.572 3.493-1.113 3.959-2.504.163-.484.223-1.25-.409-2.144-.008-.011-.02-.035-.028-.05-.495-.084-.989-.284-1.484-.778-.313-.313-.509-.626-.632-.939.234.645.845 2.094 1.123 2.486 2.031 2.872-7.321 2.534-6.024 5.247 1.541 3.222-2.907 2.206-3.747 3.467-.841 1.261 1.121 1.401 1.121 3.082s-5.746 2.271-8.354 2.783C7.243 24.136.448 35.552.448 35.552s.508.11 1.363.165c2.052-3.324 7.257-10.666 10.942-11.39z"/>
</svg>
