<svg xmlns="http://www.w3.org/2000/svg" viewBox="0 0 36 36">
  <path fill="#77B255" d="M12.512 23.101c2.608-.512 8.354-1.102 8.354-2.783s-1.961-1.821-1.121-3.082c.841-1.261 5.288-.245 3.747-3.467-1.298-2.713 8.055-2.375 6.024-5.247-.322-.455-1.094-2.335-1.205-2.729-.363-1.287.321-2.574-.967-3.861-1.681-1.681-4.203-.841-6.724 0S18.939.25 17.258.25s-5.043 3.362-5.884 5.884-2.521.84-3.361 3.362c-.78 2.341.177 4.823-1.972 9.748-1.026 1.621-1.995 3.178-2.899 4.543C-.836 29.792.449 35.552.449 35.552s6.794-11.416 12.063-12.451z"/>
</svg>
