<svg xmlns="http://www.w3.org/2000/svg" viewBox="0 0 36 36">
  <path fill="#A6D388" d="M28.4 8.292c-2.723-1.262-5.475-1.409-7.24-1.326 1.693-1.476 3.367-2.797 4.944-3.878.271-.186.34-.556.154-.827-.186-.27-.556-.339-.826-.154-2.747 1.884-5.724 4.411-8.589 7.222-.329-1.253-.706-3.791.349-7.001.103-.312-.067-.648-.379-.75-.31-.103-.647.067-.75.379-1.366 4.158-.55 7.265-.176 8.328-1.839 1.862-3.616 3.824-5.235 5.799-.445-.94-1.071-3.013-.58-6.719.043-.325-.186-.624-.511-.667-.32-.043-.623.184-.667.51-.613 4.63.407 6.991.951 7.879-1.115 1.408-2.145 2.811-3.05 4.176C2.112 28.323.812 32.159.759 32.318c-.104.312.065.647.376.751.062.021.125.03.188.03.249 0 .481-.157.564-.406.011-.034 1.023-2.999 4.378-8.406.463-.446 5.882-5.465 12.456-3.778.314.079.642-.111.723-.429.081-.318-.11-.642-.429-.724-4.475-1.144-8.373.468-10.848 2.003 1.625-2.378 3.637-4.893 5.838-7.334.923-.169 5.047-.777 7.925 1.18.103.069.219.103.333.103.19 0 .378-.091.492-.26.185-.271.114-.641-.157-.826-2.416-1.642-5.465-1.714-7.338-1.558 1.428-1.518 2.912-2.986 4.401-4.355.814-.134 4.598-.625 8.236 1.061.081.038.166.056.25.056.224 0 .438-.128.539-.345.142-.298.012-.652-.286-.789z"/>
</svg>
