<svg xmlns="http://www.w3.org/2000/svg" viewBox="0 0 36 36">
  <path fill="#FFDC5D" d="M2.789 15.057c-.354.166-1.458.438-1.992.781-.432.278-.845.262-.727.612.102.302.508.216 1.227.132.719-.084 1.929-.289 2.325-.566l-.833-.959zm22.862-3.211c.379.095 1.515.151 2.104.386.477.19 1.122.088 1.073.455-.043.316-.701.317-1.422.371-.722.054-1.949.085-2.39-.113l.635-1.099zM14.698.997c-1.593-.627-4.077.182-4.365 2.043-.287 1.848.239 4.747 1.863 4.572 1.702-.184 3.448-.554 4.138-2.307.69-1.752-.043-3.681-1.636-4.308z"/>
  <path fill="#FFDC5D" d="M15.882 5.757c2.318-2.723-3.266-2.458-3.266-2.458-1.057.038-.329 1.799-.827 2.761-.341.665 1.095 1.018 1.095 1.018s.659-.01.694.79v.007c.008.204-.013.445-.108.769-.473 1.601 1.677 2.582 2.149.978.187-.635.114-1.193.02-1.708l-.009-.046c-.144-.766-.322-1.438.252-2.111z"/>
</svg>
