<svg xmlns="http://www.w3.org/2000/svg" viewBox="0 0 36 36">
  <path fill="#FFCC4D" d="M24.685 2.975l-.086-.083c-.035-.034-.368-.343-.941-.722.058.298.157.729.218 1.237.178 1.473.084 3.228-.921 5.285-.24.491-.516.994-.87 1.52-.608.902-2.135 2.838-3.975 5.105-1.255 1.546-2.653 3.244-4.009 4.88-3.278 3.953-6.297 7.525-6.357 7.596-.124.145-.154.347-.08.52l3 7c.072.166.228.281.408.3.018.002.034.003.052.003.162 0 .315-.078.409-.213.052-.074 3.305-4.751 6.569-9.447l4.01-5.771c1.465-2.11 2.516-3.624 2.619-3.778 1.518-2.261 3.237-4.574 3.237-7.042 0-2.477-1.135-4.687-3.283-6.39z"/>
</svg>
