<svg xmlns="http://www.w3.org/2000/svg" viewBox="0 0 36 36">
  <path fill="#F3D2A2" d="M24.122 14.09l-.118-.118c-.271-.28-.439-.192-.587-.1-.064.04-.23.128-.231.128-.178-.025-2.234-.791-2.498-1.042-.072-.069-.521-.474-.661-.63-.399-.449-.849-.971-1.466-1.383-.484-.323-.631-.348-.859-.289-.277.071-.515.266-.655.534-.315.605-.131 1.283.447 1.647 1.135.716 2.013 1.25 2.539 1.542.41.227 1.505.465 2.229.624.248.054.482.105.526.123.079.032.188.141.292.247.163.165.331.333.502.333.017 0 .033-.001.051-.005.267-.055.406-.338.677-.773.252-.402.068-.585-.188-.838z"/>
</svg>
