<svg xmlns="http://www.w3.org/2000/svg" viewBox="0 0 36 36">
  <path fill="#FFAC33" d="M14 2s0-2 2-2 2 2 2 2v2s0 2-2 2-2-2-2-2V2zm16 12s2 0 2 2-2 2-2 2h-2s-2 0-2-2 2-2 2-2h2zM4 14s2 0 2 2-2 2-2 2H2s-2 0-2-2 2-2 2-2h2zm3.872-7.957s1.414 1.414 0 2.828-2.828 0-2.828 0L3.629 7.458s-1.414-1.414 0-2.829c1.415-1.414 2.829 0 2.829 0l1.414 1.414zm19.085 2.828s-1.414 1.414-2.828 0 0-2.828 0-2.828l1.414-1.414s1.414-1.414 2.828 0 0 2.828 0 2.828l-1.414 1.414z"/>
  <circle fill="#FFAC33" cx="16" cy="16" r="9"/>
</svg>
