<svg xmlns="http://www.w3.org/2000/svg" viewBox="0 0 36 36">
  <path fill="#A0041E" d="M22.037 17.623c.356-.356.937-.356 1.293 0l9.672 9.672c.356.356.356.937 0 1.293-.356.356-.937.356-1.293 0l-9.672-9.672c-.356-.356-.356-.938 0-1.293zm-4.414 4.414c.356-.356.937-.356 1.293 0l9.672 9.672c.356.356.356.937 0 1.293-.356.356-.937.356-1.293 0l-9.672-9.672c-.356-.356-.356-.938 0-1.293zm1.639-2.932c.356-.356.97-.323 1.364.072l10.632 10.632c.395.395.427 1.009.072 1.364-.356.356-.97.323-1.364-.072L19.333 20.469c-.395-.395-.427-1.009-.071-1.364z"/>
</svg>
