<svg xmlns="http://www.w3.org/2000/svg" viewBox="0 0 36 36">
  <path d="M23.115 20.484H17.91c-1.098 0-1.504-.712-1.504-1.403 0-.712.386-1.403 1.504-1.403h7.362c1.038 0 1.464.935 1.464 1.464 0 .407-.224.834-.468 1.342l-5.043 10.25c-.569 1.139-.793 1.545-1.708 1.545-1.119 0-1.688-.854-1.688-1.444 0-.244.061-.427.204-.712l5.082-9.639zm-11.485-.108h-.45c-.976 0-1.383-.658-1.383-1.349 0-.712.509-1.349 1.383-1.349h1.813c.874 0 1.362.631 1.362 1.444v11.572c0 1.016-.502 1.586-1.376 1.586s-1.349-.569-1.349-1.586V20.376z" fill="#66757F"/>
</svg>
