<svg xmlns="http://www.w3.org/2000/svg" viewBox="0 0 36 36">
  <path d="M15.26 9.604c0-.5.3-.78.702-.78.402 0 .701.28.701.78v4.017h1.665c.477 0 .682.38.672.72-.018.33-.261.659-.672.659H15.99c-.458 0-.73-.319-.73-.819V9.604zm-6.465 0c0-.5.299-.78.702-.78.402 0 .701.28.701.78v2.488c0 .92.552 1.649 1.44 1.649.85 0 1.43-.769 1.43-1.649V9.604c0-.5.299-.78.702-.78.402 0 .701.28.701.78v2.568c0 1.679-1.291 2.949-2.833 2.949-1.561 0-2.843-1.25-2.843-2.949V9.604zm-.731 3.397c0 1.679-1 2.119-1.851 2.119-.645 0-1.721-.27-1.721-1.14 0-.269.216-.609.524-.609.374 0 .702.37 1.122.37.524 0 .524-.52.524-.84V9.604c0-.5.298-.78.7-.78.403 0 .702.28.702.78v3.397z" fill="#F5F8FA"/>
</svg>
