<svg xmlns="http://www.w3.org/2000/svg" viewBox="0 0 36 36">
  <path fill="#7C4119" d="M14.121 29.35l1.178-1.178c.13-.132.318-.15.467-.038 0 0 1.159.861 2.056.861.805 0 1.628-.673 1.628-1.496s-.842-1.514-2.225-1.514h-.639c-.186 0-.354-.168-.354-.355v-1.552c0-.206.168-.355.354-.355h.639c1.309 0 2-.635 2-1.439 0-.805-.691-1.402-1.496-1.402-.823 0-1.346.43-1.626.747-.132.15-.355.15-.504.02l-1.141-1.122c-.151-.132-.132-.355 0-.486 0 0 1.533-1.646 3.57-1.646 2.169 0 4.039 1.328 4.039 3.422 0 1.439-1.085 2.505-1.926 2.897v.057c.879.374 2.262 1.533 2.262 3.141 0 2.038-1.776 3.572-4.357 3.572-2.354 0-3.552-1.16-3.944-1.664-.113-.134-.093-.34.019-.47z"/>
</svg>
