<svg xmlns="http://www.w3.org/2000/svg" viewBox="0 0 36 36">
  <path d="M14.845 17.567c-.048-.135-.137-.218-.257-.218-.18 0-.296.184-.296.458s.119.465.3.462c.152-.001.253-.109.264-.288h-.233v-.215h.432v.699h-.138c0-.047-.007-.111-.02-.154-.066.116-.175.182-.308.189-.277.018-.511-.288-.511-.695s.198-.676.511-.676c.247 0 .45.185.45.438h-.194zm1.611.709c.165 0 .208-.124.208-.24v-.906h.23v.903c0 .222-.101.47-.439.47-.337 0-.439-.248-.439-.47v-.903h.231v.906c.002.117.046.24.209.24zm2.089-.283l-.146.001.151-.558.15.558-.155-.001v.229h.22l.074.279h.225l-.381-1.373h-.266l-.381 1.373h.225l.075-.279h.209v-.229zm1.781.508l-.213-1.046v1.046h-.222v-1.373h.345l.205 1.053.205-1.053h.346v1.373h-.222v-1.046l-.213 1.046z" fill="#DD2E44"/>
</svg>
