<svg xmlns="http://www.w3.org/2000/svg" viewBox="0 0 36 36">
  <path fill="#7B4800" d="M16.894 20.684c-.396 0-.576.073-1 .103-.006-1.64.003-2.212-.045-2.212-.047 0-.04.573-.045 2.215-.089.005-.167.011-.281.011-.74 0-.875-.118-1.373-.118-.016.177.188.353.753.426l-.023.145c-.078-.003-.164-.016-.208-.031-.032.167.363.207.85.207s.881-.04.849-.207c-.044.016-.13.028-.208.031l-.023-.144c.566-.073.77-.25.754-.426zm-.853.583c-.174.024-.394.024-.519.024s-.345 0-.52-.024l.019-.145c.147.014.308.024.5.024s.352-.01.499-.024l.021.145z"/>
  <g fill="#7B4800">
    <path d="M17.661 14.707c.063 1.825-.718 6.224 2.046 7.589.264.119.068.617-.381.386-2.631-1.491-1.789-6.031-1.836-7.986l.171.011z"/>
    <circle cx="17.449" cy="14.775" r=".198"/>
    <circle cx="17.682" cy="14.705" r=".198"/>
    <circle cx="17.782" cy="14.517" r=".198"/>
    <circle cx="17.436" cy="14.454" r=".198"/>
  </g>
</svg>
