<svg xmlns="http://www.w3.org/2000/svg" viewBox="0 0 36 36">
  <path fill="#662113" d="M26 33.5H10c-1.665 0-2.479-1.339-2.763-2.31l-2.664-.056c-.153-.003-.297-.077-.389-.2-.092-.122-.123-.281-.083-.43l.594-2.216-2.446-.651c-.152-.041-.276-.15-.335-.296s-.046-.311.035-.445l1.199-1.993-2.156-1.192c-.139-.077-.233-.216-.254-.374-.02-.157.036-.315.151-.426l1.729-1.647-1.729-1.646c-.115-.11-.171-.268-.151-.426.021-.158.115-.297.254-.374l2.156-1.194-1.2-1.994c-.081-.135-.094-.3-.035-.445.059-.146.183-.255.335-.296l2.446-.65-.594-2.218c-.04-.148-.009-.307.083-.43s.236-.196.39-.2l2.575-.053.058-2.302c.004-.149.074-.289.192-.381.118-.092.271-.127.416-.094l2.521.561.717-2.234c.045-.139.148-.251.282-.308.136-.056.288-.051.417.014l2.284 1.139 1.341-2.009c.08-.119.208-.199.35-.218.145-.019.287.024.394.119L18 7.258l1.88-1.636c.109-.094.251-.137.395-.118.143.019.269.099.35.218l1.34 2.009 2.286-1.139c.13-.065.283-.069.417-.014.135.057.237.169.282.308l.716 2.234 2.521-.561c.146-.032.298.002.416.094s.188.232.192.381l.058 2.302 2.574.053c.153.003.297.077.389.2.093.123.123.282.083.43l-.595 2.217 2.449.65c.152.04.276.15.336.296.059.146.046.311-.035.445l-1.201 1.994 2.155 1.194c.14.077.233.216.254.374s-.036.316-.151.426l-1.729 1.646 1.729 1.647c.115.11.172.269.151.426-.021.158-.114.297-.254.374L32.854 24.9l1.2 1.993c.081.135.094.3.035.445-.06.146-.184.255-.335.296l-2.45.651.595 2.216c.04.148.01.307-.082.43-.093.123-.236.197-.39.2l-2.663.056c-.285.974-1.099 2.313-2.764 2.313z"/>
</svg>
