<svg xmlns="http://www.w3.org/2000/svg" viewBox="0 0 36 36">
  <path fill="#8A4B38" d="M16.188 28.824c-.022 0-.044-.001-.066-.004-.143-.019-.27-.099-.35-.219l-1.058-1.585-1.805.899c-.131.064-.283.07-.418.014-.134-.057-.237-.169-.282-.309l-.564-1.757-1.99.442c-.148.031-.299-.003-.417-.095s-.188-.231-.192-.381l-.045-1.804-2.029-.043c-.153-.003-.297-.077-.389-.2-.092-.122-.123-.281-.083-.43l.464-1.732-1.92-.51c-.152-.041-.276-.15-.335-.296s-.046-.311.035-.445l.937-1.557-1.688-.934c-.14-.077-.234-.216-.254-.374-.02-.158.036-.316.151-.426l1.352-1.289-1.352-1.287c-.115-.11-.171-.268-.151-.426.021-.158.115-.297.254-.374l1.689-.935-.937-1.558c-.081-.135-.094-.3-.035-.445.059-.146.183-.255.335-.296l1.922-.511-.466-1.732c-.04-.148-.009-.307.083-.43s.236-.196.39-.2l2.029-.042.045-1.805c.004-.149.074-.289.192-.381.117-.092.27-.127.416-.094l1.99.442.564-1.756c.045-.139.148-.251.282-.308.136-.055.287-.051.418.014l1.805.899 1.058-1.584c.08-.119.207-.199.35-.218.144-.021.287.024.395.119L18 4.172l1.484-1.291c.109-.095.253-.138.395-.119.143.019.269.099.35.218l1.057 1.583 1.807-.9c.13-.064.283-.069.417-.013.135.057.237.169.282.308l.562 1.756 1.991-.442c.146-.033.3.002.416.094.118.092.188.232.192.382l.045 1.804 2.028.042c.153.003.297.077.389.2.093.123.123.282.083.43l-.465 1.734 1.924.511c.152.041.276.15.336.296.059.146.046.311-.035.445l-.938 1.558 1.689.935c.14.077.233.216.254.374.021.158-.036.316-.151.426l-1.353 1.287 1.353 1.289c.115.11.172.268.151.426-.021.158-.115.296-.254.374l-1.688.934.938 1.557c.081.135.094.3.035.445-.06.145-.184.255-.335.296l-1.925.512.465 1.732c.04.148.01.307-.082.43-.093.123-.236.197-.39.2l-2.028.043-.045 1.804c-.004.149-.074.289-.192.381-.117.092-.271.126-.416.095l-1.991-.442-.562 1.757c-.045.139-.147.252-.282.309-.134.058-.284.053-.417-.014l-1.806-.899-1.058 1.585c-.08.12-.207.199-.35.219-.142.018-.286-.024-.395-.119L18 27.407l-1.483 1.294c-.092.08-.209.123-.329.123z"/>
  <path fill="#8A4B38" d="M13.5 27.052h9c3.521 0 6.5 2.575 6.5 4.5 0 1.65-1.35 2-3 2H10c-1.65 0-3-.35-3-2 0-1.925 2.99-4.5 6.5-4.5z"/>
</svg>
