<svg xmlns="http://www.w3.org/2000/svg" viewBox="0 0 36 36">
  <path fill="#FA743E" d="M25.179 13.036c.045-1.188.977-2.021.977-2.021s.016-.025.028-.064c-.851-.132-1.676-.249-2.383-.249-1.152 0-2.299.281-2.299.281s-.329 1.769-2.379 1.903c-2.05.134-1.604-1.644-1.604-1.644-.486-.042-2.154-.302-3.21.009-.744.22-1.561.578-2.353.964-.503.524-.488 1.363-.32 1.91.177.576.78 1.478 1.35 1.368.437-.155.723-.26.723-.26-.028 1.133-.292 2.327.158 3.548.885 2.406.666 4.192 1.009 6.291 2.389-.06 8.613-.226 8.613-.334 0-.025.063-.354.165-.871-.215-1.536-.364-3.491-.026-4.877.335-1.375.83-3.747.841-4.098 0 0 .602 0 1.482-.016-.188-.138-.816-.676-.772-1.84z"/>
</svg>
