<svg xmlns="http://www.w3.org/2000/svg" viewBox="0 0 36 36">
  <path fill="#77B255" d="M33.739 18.565c-1.941-2.589-26.694-4.412-30.577-.767-.784.737-2.265 2.22-.688 4.439.688 1.162 2.116 1.919 2.306 1.56.443-.842 1.327-1.578 2.653-1.507-.075.178.641 3.207.56 3.275-.925.786.997 3.518 3.249 2.063.561 1.108 3.956 3.843 6.299.102.466.844 5.36 2.128 6.719-1.766-.011.067-.008.124-.026.196-.089.35.722.653 1.548.363 1.389-.486 3.395-1.693 3.75-3.018.991-.173 1.734.102 2.306.858.283.374 1.254.464 1.669-.025.732-.859 1.933-3.503.232-5.773z"/>
</svg>
