<svg xmlns="http://www.w3.org/2000/svg" viewBox="0 0 36 36">
  <path d="M12.905 21.832l.367.671.672.368-.672.367-.367.671-.367-.671-.672-.367.672-.368zM16.619 18l.367.671.671.368-.671.367-.367.671-.368-.671-.671-.367.671-.368zm3.162-4.188l.367.671.671.368-.671.367-.367.671-.367-.671-.672-.367.672-.368zm2.411-3.641l.318.582.582.318-.582.318-.318.582-.318-.582-.582-.318.582-.318zm1.924-3.965l.248.452.452.247-.452.248-.248.452-.247-.452-.452-.248.452-.247zm1.244-3.884l.192.351.351.192-.351.193-.192.351-.193-.351-.351-.193.351-.192z" fill="#FFAC33"/>
</svg>
