<svg xmlns="http://www.w3.org/2000/svg" viewBox="0 0 36 36">
  <path fill="#77B255" d="M27.748 32.719c-.064-.286-.134-.589-.209-.905v.001l-.008-.034c-1.08-4.519-3.244-11.863-3.486-17.258l1.199-3.946-.038-1.248-.132-4.258-1.491 1.821c-.293.1-.597.399-.883.973-.763 1.527-7.102 5.891-11.113 8.903-.28 4.644-1.843 12.197-2.581 15.567l-.007-.021c-.041.211-.081.424-.124.616-.44 2.159 2.826 3.046 5.594 1.851l.006-.002c.363.352.784.611 1.231.803 2.182.938 5.055.146 5.686-.724l.001-.002c.393.144.804.248 1.22.321 2.693.47 5.582-.51 5.135-2.458z"/>
</svg>
