<svg xmlns="http://www.w3.org/2000/svg" viewBox="0 0 36 36">
  <path fill="#FFAC33" d="M25.455 9.111l.188 1.341 3.989-1.253c.911-.286 1.385-1.285 1.026-2.17-.064-.157-.211-.445-.212-.429-.127 1.367-.939 1.558-4.991 2.511zm2.293 23.608c-.064-.286-.134-.589-.209-.905v.001c-.368 1.639-2.311 2.611-4.991 2.368-.262-.024-.536-.069-.811-.117-.086-.015-.183-.029-.304-.044-1.732.9-3.657 1.25-5.777.433l-.001-.019c-.058-.009-.117-.028-.176-.045-.291-.086-.596-.261-.913-.444-1.423.345-4.579.705-5.56-1.614l-.007-.021c-.041.211-.081.424-.124.616-.44 2.159 2.826 3.046 5.594 1.851l.006-.002c.363.352.784.611 1.231.803 2.182.938 5.055.146 5.686-.724l.001-.002c.393.144.804.248 1.22.321 2.693.472 5.582-.508 5.135-2.456z"/>
</svg>
