<svg xmlns="http://www.w3.org/2000/svg" viewBox="0 0 36 36">
  <path fill="#F4900C" d="M15.997 25.192c0-.023.003-.044.003-.067l-.002-.039L16 25l-.006.006C15.93 21.679 13.218 19 9.875 19c-.298 0-.588.029-.875.07-.287-.041-.577-.07-.875-.07C4.742 19 2 21.742 2 25.125c0 0 .125 3.188-1 6.875 0 0 3.344 2 8 2s8-2 8-2c-.968-3.172-1.01-6.061-1.003-6.808zm-1.002 1.848c0 3.291-2.685 5.96-5.997 5.96C5.685 33 3 30.331 3 27.04l.002-.04H3v-1.911c4.172-.181 6.588-1.592 7.929-2.91.91 1.074 2.351 2.414 4.071 2.816V27h-.007l.002.04z"/>
</svg>
