<svg xmlns="http://www.w3.org/2000/svg" viewBox="0 0 36 36">
  <path fill="#99AAB5" d="M7.996 26.91c.892-2.691.573-5.988-.996-9.91-1.487-3.719-1.315-6.329-1.129-7.423-.049.041-.096.078-.148.13C3.017 12.414.477 16.531 1.66 26.436c1.276-1.379 2.412-1.723 3.228-1.723 1.265 0 2.333.783 3.108 2.197z"/>
  <path fill="#99AAB5" d="M6.832 13.25c-.019-.03-.041-.058-.06-.087C7 16 8.4 17.001 9 20c.588 2.94.476 5.519.088 7.564.839-.571 1.726-.874 2.656-.874 1.264 0 2.548.538 3.895 1.627C14 19 9 17 6.832 13.25zm21.172 13.66c-.893-2.691-.572-5.988.996-9.91 1.487-3.719 1.315-6.329 1.129-7.423.049.041.097.078.148.13 2.706 2.707 5.246 6.824 4.063 16.729-1.275-1.379-2.412-1.723-3.227-1.723-1.266 0-2.334.783-3.109 2.197z"/>
  <path fill="#99AAB5" d="M29.168 13.25l.061-.087C29 16 27.6 17.001 27 20c-.588 2.94-.477 5.519-.088 7.564-.84-.571-1.726-.874-2.656-.874-1.264 0-2.548.538-3.895 1.627C22 19 27 17 29.168 13.25zm-10.48-.144c-.378.378-.998.378-1.375 0l-.57-.571c-.378-.378-.25-.688.285-.688h1.945c.535 0 .664.309.285.688l-.57.571z"/>
</svg>
