<svg xmlns="http://www.w3.org/2000/svg" viewBox="0 0 36 36">
  <path fill="#FFAC33" d="M21.668 1.776C20.493.401 18.877-.17 16.11.9c-2.417.934-1.64 2.856-1.077 2.528 1.552-.905 2.582-.132 3.372 1.131.23-.62 1.242-1.001 1.447-.094.23 1.02-.717 1.464-.59 1.742.042.093-.048-.084 0 0 .606 1.063 1.591 1.397 1.591 1.397s.373.147 1.01-1.109c.638-1.255.971-3.354-.195-4.719z"/>
  <path fill="#FFAC33" d="M21.032 3.222c2.395.517 1.412 4.251 1.647 5.625.289 1.692 1.95 1.752 1.95 1.752s-.275-1.178-.129-2.41c.203-1.709 1.317-3.088.141-4.757-1.501-2.131-5.098-.531-3.609-.21z"/>
</svg>
