<svg xmlns="http://www.w3.org/2000/svg" viewBox="0 0 36 36">
  <path fill="#11429A" d="M17.218 11.611c0 .03-.023.053-.053.053h-.011c-.029 0-.053-.023-.053-.053v-.228c0-.03.024-.053.053-.053h.011c.029 0 .053.023.053.053v.228zm-.965-.033c-.054.025-.088.066-.088.066l.129.035c-.097.005-.088.141-.088.141l.139-.029-.092-.213zm2.976.283c-.061.032-.098.103-.098.103h.117l-.051.152.094-.035-.023.123c.016-.02.055-.052.102-.078l-.141-.265zm-1.071.277l-.096-.289c-.059.026-.077.081-.077.081l.087.023c-.076.018-.093.106-.093.106.047-.042.14-.012.14-.012l-.047.135c.001-.001.036-.02.086-.044zm-1.957-1.32c.042-.004.084.018.113.038l.016-.096c-.104-.018-.129.058-.129.058zm.145.973l-.058.11s.045-.011.101-.011l-.043-.099zm-.056-.789l.021-.127c-.112-.013-.15.083-.15.083.055-.003.1.022.129.044zm-.177.12c.064-.012.114-.008.155.011l.018-.106c-.096-.005-.173.095-.173.095z"/>
</svg>
