<svg xmlns="http://www.w3.org/2000/svg" viewBox="0 0 36 36">
  <path fill="#FFCC4D" d="M18.864 12.462s-.062.082-.274.082c-.213 0-.117-.028-.287-.028-.169 0-.243.044-.243.095 0 .053.06.085.287.085.226 0 .309-.057.491-.057s.252.066.252.148c0 .083-.118.235-.304.187 0 0 .131.065.269.057.139-.009.258-.035.266-.004.008.031.065.191.057.278-.014.135-.184.183-.252.174-.07-.009-.161.057-.187.087l.017-.092-.069.026.04-.113h-.088s.044-.087.112-.087c.07 0 .228.018.236-.03.008-.048-.043-.114-.144-.108-.099.004-.29.06-.408.03 0 0-.039.057-.004.1.035.044.087.096.061.127-.026.029-.091.029-.153.025-.06-.004-.269.013-.343.039-.074.026-.143.065-.143.065l.035-.101s-.07-.021-.104.009c0 0 .013-.064.07-.078l-.065-.018s.025-.078.121-.07c.096.009.139.031.17-.004.03-.035-.074-.105-.074-.105s-.079.031-.252.057c-.174.026-.287.018-.287.018s-.022.183-.3.213c-.278.031-.417-.1-.483-.125-.065-.026-.156-.004-.156-.004l.044-.083-.104.022s-.006-.101.065-.104l-.096-.026s.069-.083.165-.061.145.103.235.148c.148.073.492.021.235-.031-.06-.012-.102-.07-.102-.07s-.163.035-.29-.161c-.086-.134-.125-.243-.282-.213 0 0 .074-.095.157-.065 0 0-.048-.061-.122-.057 0 0 .035-.086.139-.057 0 0-.057-.052-.109-.048 0 0 .031-.09.17-.012s.055.144.083.192c.018.031.055.083.148.165.156.139.23.174.182.033-.052-.035-.082-.125-.095-.167-.013-.044-.087-.148-.065-.175.022-.026.087.022.087.022s.083-.035.196-.035.157.052.157.052.078-.061.091-.03c.013.03-.044.079-.07.131-.026.052.004.113.004.113s.077.1.233.104c.157.004.389-.022.472-.039.083-.018.227-.045.322-.029.096.018.366.011.357-.059-.009-.069-.074-.091-.209-.074-.134.019-.252.061-.5.044-.247-.018-.272-.143-.256-.205.022-.082.161-.133.291-.133s.294.055.389.055c.09.001.214-.025.214-.025z"/>
</svg>
