<svg xmlns="http://www.w3.org/2000/svg" viewBox="0 0 36 36">
  <path fill="#11429A" d="M17.385 13.123c0 .021-.017.039-.039.039h-.008c-.022 0-.039-.018-.039-.039v-.169c0-.022.017-.04.039-.04h.008c.022 0 .039.017.039.04v.169zm-.686-.023c-.041.019-.065.049-.065.049l.096.026c-.071.003-.065.104-.065.104l.103-.022-.069-.157zm2.21.211c-.044.024-.071.077-.071.077h.088l-.04.113.069-.026-.017.092c.012-.016.042-.039.076-.058l-.105-.198zm-.795.206l-.071-.215c-.043.02-.057.06-.057.06l.065.018c-.057.013-.07.078-.07.078.035-.029.104-.009.104-.009l-.035.101c.001-.001.027-.016.064-.033zm-1.455-.982c.031-.003.063.015.084.029l.012-.07c-.077-.015-.096.041-.096.041zm.109.724l-.043.081s.034-.008.075-.009l-.032-.072zm-.042-.587l.015-.094c-.083-.01-.112.062-.112.062.041-.002.075.016.097.032zm-.132.09c.047-.009.084-.005.115.008l.013-.079c-.07-.003-.128.071-.128.071z"/>
</svg>
