<svg xmlns="http://www.w3.org/2000/svg" viewBox="0 0 36 36">
  <path fill="#FFCC4D" d="M20.531 7c-.168.065-.254.365-.254.365s-.15-.339-.605-.118c0 0 .248.248.195.456-.053.209-.197.301-.443.267-.287-.039-.34-.371-.34-.371s.178-.033.197-.183c.012-.091-.033-.222-.189-.234-.119-.01-.235.065-.235.208 0 .105.131.195.131.195s-.104.224-.34.235c-.299.013-.432-.156-.436-.443-.007-.411.521-.417.521-.417s-.046-.202-.228-.306c-.182-.104-.352.039-.352.039s.13-.293.091-.496c-.034-.173-.164-.346-.211-.403v-.019l-.008.01-.008-.01v.021c-.047.057-.178.229-.211.403-.039.202.091.496.091.496s-.169-.144-.352-.039c-.183.104-.229.306-.229.306s.528.006.521.417c-.004.287-.137.456-.437.443-.235-.011-.339-.235-.339-.235s.13-.09.13-.195c0-.144-.116-.218-.234-.208-.156.013-.201.143-.189.234.02.15.196.183.196.183s-.052.333-.339.371c-.247.034-.391-.058-.443-.267-.052-.208.195-.456.195-.456-.456-.222-.605.118-.605.118s-.085-.302-.253-.367c-.17-.065-.339-.039-.339-.039s.313.496.521.977c.209.482.287.978.287.978s.356-.25.938-.391c.45-.109 1.024-.117 1.1-.118.075.001.649.008 1.098.118.584.142.94.391.94.391s.078-.496.287-.978c.209-.481.521-.977.521-.977s-.171-.026-.341.039z"/>
</svg>
