<svg xmlns="http://www.w3.org/2000/svg" viewBox="0 0 36 36">
  <path fill="#231F20" d="M18.018 14.737l-.004-.012c-.174-.094-1.726-.998-2.199-3.183-.237-1.094.166-2.612.169-2.627.006-.005.483-.316.979-.426.439-.097.923-.104 1.061-.104s.622.007 1.062.104c.494.11.972.421.977.424l.001.001c.005.015.408 1.533.17 2.627-.472 2.185-2.024 3.089-2.2 3.185l.001.008c-.003.002-.007 0-.012-.002l-.005.005zm.006-.008l.011.005-.004-.008c.177-.098 1.727-1.001 2.2-3.184.234-1.082-.158-2.58-.17-2.624-.022-.014-.49-.315-.976-.423-.439-.097-.922-.104-1.06-.104s-.621.007-1.06.104c-.496.109-.972.42-.977.423-.003.014-.405 1.531-.168 2.624.472 2.183 2.022 3.086 2.197 3.182l.001.008.006-.003z"/>
</svg>
