<svg xmlns="http://www.w3.org/2000/svg" viewBox="0 0 36 36">
  <path fill="#FFCC4D" d="M19.406 8.922s-.092.124-.411.124c-.319 0-.177-.042-.43-.042-.255 0-.365.065-.365.143 0 .078.091.127.431.127.338 0 .463-.085.736-.085.273 0 .377.098.377.222s-.176.352-.457.28c0 0 .197.097.406.084.207-.012.383-.051.397-.005.014.045.098.286.086.417-.02.202-.275.273-.379.261-.104-.013-.24.085-.279.13l.025-.137-.105.039.059-.169h-.129s.064-.131.168-.131c.105 0 .34.026.354-.045.012-.071-.066-.169-.215-.163-.15.006-.438.091-.613.045 0 0-.058.084-.006.15.051.065.129.144.09.189-.039.045-.137.045-.227.039-.092-.006-.405.019-.515.059-.111.039-.215.098-.215.098l.052-.15s-.104-.033-.156.013c0 0 .02-.097.104-.117l-.098-.026s.04-.117.183-.104c.143.013.208.045.254-.007.046-.052-.111-.156-.111-.156s-.117.046-.377.085c-.261.04-.43.026-.43.026s-.033.274-.45.319c-.417.045-.625-.15-.723-.189-.098-.039-.235-.006-.235-.006l.065-.124-.157.033s-.01-.15.098-.156l-.143-.039s.104-.124.247-.091c.144.032.217.154.352.221.222.111.737.033.353-.045-.09-.018-.153-.104-.153-.104s-.245.052-.434-.241c-.129-.201-.189-.365-.424-.319 0 0 .111-.143.235-.098 0 0-.072-.091-.182-.085 0 0 .052-.13.208-.084 0 0-.085-.078-.163-.072 0 0 .045-.137.254-.02.207.114.082.213.122.284.026.045.083.125.222.248.235.208.345.261.273.049-.078-.052-.124-.186-.143-.251-.02-.065-.13-.221-.098-.261.033-.039.13.033.13.033s.124-.053.293-.053c.169 0 .234.078.234.078s.117-.091.137-.045c.019.045-.065.118-.104.196-.039.078.006.169.006.169s.114.149.349.156c.234.006.583-.033.707-.059.123-.026.338-.069.482-.042.144.026.548.016.535-.088-.014-.104-.111-.137-.312-.111-.203.026-.378.091-.75.065-.372-.026-.409-.215-.385-.307.033-.124.242-.199.437-.199.196 0 .441.082.583.082.145.002.33-.038.33-.038z"/>
</svg>
