<svg xmlns="http://www.w3.org/2000/svg" viewBox="0 0 36 36">
  <path fill="#11429A" d="M17.19 9.913c0 .032-.026.059-.059.059h-.013c-.032 0-.058-.027-.058-.059v-.254c0-.032.026-.059.058-.059h.013c.033 0 .059.026.059.059v.254zm-1.029-.034c-.061.029-.098.073-.098.073l.143.039c-.108.006-.098.156-.098.156l.155-.033-.102-.235zm3.314.317c-.068.035-.107.115-.107.115h.129l-.059.169.105-.039-.025.137c.018-.023.062-.058.113-.086l-.156-.296zm-1.193.307l-.107-.322c-.065.029-.085.089-.085.089l.098.026c-.085.019-.104.117-.104.117.052-.045.156-.013.156-.013l-.052.15c0 .001.038-.021.094-.047zm-2.18-1.47c.045-.004.094.021.125.043l.018-.106c-.114-.022-.143.063-.143.063zm.162 1.083l-.064.123s.051-.012.112-.013l-.048-.11zm-.063-.878l.023-.141c-.125-.015-.168.092-.168.092.063-.003.113.024.145.049zm-.197.134c.072-.014.127-.008.173.012l.02-.118c-.106-.006-.193.106-.193.106z"/>
</svg>
