<svg xmlns="http://www.w3.org/2000/svg" viewBox="0 0 36 36">
  <path fill="#FFCC4D" d="M19.219 10.719s-.08.111-.368.111c-.287 0-.158-.038-.387-.038-.228 0-.327.058-.327.129 0 .07.082.114.386.114.303 0 .416-.076.66-.076.246 0 .34.088.34.199 0 .112-.158.316-.408.252 0 0 .174.088.361.076.188-.011.346-.046.357-.005s.086.257.076.375c-.018.182-.246.246-.34.234-.094-.011-.217.076-.252.117l.023-.123-.094.035.053-.152h-.117s.059-.117.152-.117c.094 0 .305.023.316-.041.012-.065-.059-.152-.193-.146-.135.005-.393.081-.55.041 0 0-.052.076-.005.135.046.058.116.128.081.169-.035.041-.123.041-.204.035-.082-.005-.363.018-.462.053-.1.035-.193.087-.193.087l.046-.135s-.094-.029-.141.012c0 0 .018-.088.094-.106l-.088-.023s.035-.105.164-.093c.129.011.188.041.229-.006.04-.047-.1-.141-.1-.141s-.105.041-.34.076c-.234.036-.386.023-.386.023s-.029.246-.404.287c-.375.04-.562-.135-.65-.17-.087-.035-.21-.005-.21-.005l.058-.112-.14.03s-.008-.135.087-.141l-.128-.035s.094-.111.222-.082c.129.029.195.139.316.199.198.1.661.029.316-.041-.081-.017-.138-.093-.138-.093s-.219.046-.389-.217c-.116-.18-.17-.328-.38-.287 0 0 .1-.128.21-.088 0 0-.064-.082-.164-.076 0 0 .047-.117.187-.076 0 0-.076-.07-.146-.064 0 0 .041-.123.228-.019.188.106.075.194.111.258.024.041.075.112.199.223.211.188.311.234.246.043-.07-.046-.111-.167-.128-.225-.018-.059-.117-.199-.088-.234.029-.035.117.03.117.03s.111-.047.263-.047c.152 0 .21.071.21.071s.106-.082.123-.042c.018.042-.058.105-.093.176-.035.07.006.152.006.152s.102.135.313.141c.21.005.523-.03.634-.053.111-.023.305-.061.433-.038.13.023.492.015.48-.08-.012-.093-.1-.122-.281-.099-.181.023-.338.082-.672.058-.333-.023-.367-.192-.345-.275.029-.111.216-.178.392-.178.175 0 .395.073.524.073.132 0 .298-.035.298-.035z"/>
</svg>
