<svg xmlns="http://www.w3.org/2000/svg" viewBox="0 0 36 36">
  <path fill="#AF7E57" d="M13.449 22.569c-.236.161-.512-.02-.646-.131-.379-.313-.763-1.144-.611-2.142.154-1.008.404-2.185.878-4.137.055-.228-.274-2.776.007-4.528.076-.473.958-1.066 1.495-1.057.536.008.263.944.274 1.101.12 1.682-.143 4.279-.193 4.632-.277 1.956-1.239 2.835-.981 4.13.135.679.154 1.293-.242 1.345.004.366.105.728.019.787zm9.102 0c.236.161.512-.02.646-.131.379-.313.763-1.144.611-2.142-.154-1.008-.404-2.185-.878-4.137-.055-.228.274-2.776-.007-4.528-.076-.473-.958-1.066-1.495-1.057-.536.008-.263.944-.274 1.101-.12 1.682.143 4.279.193 4.632.277 1.956 1.239 2.835.981 4.13-.135.679-.154 1.293.242 1.345-.004.366-.105.728-.019.787z"/>
</svg>
