<svg xmlns="http://www.w3.org/2000/svg" viewBox="0 0 36 36">
  <path fill="#FFDC5D" d="M30.664 31.033c-.058.982-.946 1.363-1.96 1.305-1.013-.064-5.61-.295-6.56-.354-.951-.055-1.92-.879-1.858-1.892.06-1.016.196-2.463-.643-3.931-.458-.798-1.3-3.784-1.08-9.472.146-3.771-.033-6.722-.138-8.271-.091-1.354 2.143-1.898 2.45-.125.509 2.942.644 4.667.781 6.059l.518-.128s-.474-5.32-.935-7.724c-.315-1.634 2.287-2.076 2.66-.335.498 2.31.995 6.219 1.03 7.747l.641-.054s-.232-4.085-.994-8.365c-.253-1.428 2.421-1.894 2.809-.148.499 2.256 1.262 6.534 1.247 8.888l.626.133s.033-3.69-.92-7.436c-.34-1.34 2.188-2.174 2.748-.184.558 1.985.809 5.002.919 6.783 1.364-1.214 2.793-.405 2.746.036-.403 3.812 2.43 6.729-.426 11.076-1.554 2.364-2.535 2.307-3.529 4.044-.522.911-.132 2.348-.132 2.348"/>
</svg>
