<svg xmlns="http://www.w3.org/2000/svg" viewBox="0 0 36 36">
  <circle fill="#292F33" cx="13.629" cy="15.503" r="3.121"/>
  <path fill="#292F33" d="M25.488 15.503c0 1.724 0 3.121-3.121 3.121-3.12 0-3.12-1.397-3.12-3.121s1.396-3.121 3.12-3.121c1.725 0 3.121 1.397 3.121 3.121zm-6.301 5.656c-.157-.382-.626-.662-1.189-.662-.561 0-1.031.28-1.188.662-.394.11-.685.469-.685.898 0 .517.419.936.937.936.409 0 .753-.263.88-.628.019 0 .037.004.056.004.019 0 .037-.004.057-.004.128.365.472.628.88.628.517 0 .936-.419.936-.936 0-.429-.291-.786-.684-.898z"/>
</svg>
