<svg xmlns="http://www.w3.org/2000/svg" viewBox="0 0 36 36">
  <path fill="#292F33" d="M26.797 28.781c.484 1.109-.268 2.391.739 4.323 1.088 2.087 3.653 2.801 5.292 2.817 1.078.011 1.189-.447.759-.667-.681-.349-.598-.871-.598-.871s.464.429 1.308.663c.621.173 1.307.216 1.518-.379.182-.51-1.647-.142-2.491-1.954 1.092.494 1.692.224 2.146-.151.257-.213.453-.625.109-.5-.344.125-2.703.391-3.047-2.062 1.088 1.231 2.402 1.122 3.019.708.403-.271.503-.803.11-.621-1.422.656-2.051-.606-2.975-1.856-1.113-1.507-2.936-.996-3.686-1.324-.276-.122-2.203 1.874-2.203 1.874z"/>
</svg>
