<svg xmlns="http://www.w3.org/2000/svg" viewBox="0 0 36 36" xml:space="preserve">
  <path fill="#E0AA94" d="M25.6 15.249a.984.984 0 0 0-.03.253 48.02 48.02 0 0 1-.405 8.389 1 1 0 0 0 1.988.215c.328-2.587.482-5.193.46-7.8a6.11 6.11 0 0 0-1.516-.865l-.497-.192zm-5.34-1.718a45.247 45.247 0 0 1-.8 9.011 1 1 0 1 0 1.959.4 46.97 46.97 0 0 0 .848-8.994l-1.949-.748a.981.981 0 0 0-.058.331zM13.749 22.4h.051a1 1 0 0 0 1-.952 22.85 22.85 0 0 1 2.174-9.548l-1.874-.733a24.873 24.873 0 0 0-2.3 10.188 1 1 0 0 0 .949 1.045zM9.37 3.843a37.42 37.42 0 0 0-3.031 5.311 29.337 29.337 0 0 0 1.537 1.505 35.182 35.182 0 0 1 3.098-5.606 10.858 10.858 0 0 0-1.604-1.21z"/>
</svg>
