<svg xmlns="http://www.w3.org/2000/svg" viewBox="0 0 36 36">
  <path fill="#77B255" d="M10.572 12.453C10.3 12.174 9.921 12 9.5 12c-.738 0-1.348.533-1.473 1.235-.215-.139-.478-.235-.777-.235-.69 0-1.25.448-1.25 1 0 .19.084.358.2.51-.123.146-.2.311-.2.49-.552 0-1 .448-1 1 0 .202.075.379.178.537-.11.139-.178.295-.178.463 0 .552.671 1 1.5 1 .43 0 .815-.122 1.089-.316.254.195.567.316.911.316.198 0 .385-.041.558-.11.163.602.69 1.042 1.331 1.091.495-2.544 1.45-4.835 2.738-6.72C12.806 12.097 12.419 12 12 12c-.56 0-1.065.174-1.428.453z"/>
</svg>
