<svg xmlns="http://www.w3.org/2000/svg" viewBox="0 0 36 36">
  <circle fill="#F4900C" cx="17" cy="25" r="1"/>
  <circle fill="#F4900C" cx="13" cy="28" r="1"/>
  <circle fill="#F4900C" cx="19" cy="28" r="1"/>
  <circle fill="#F4900C" cx="22" cy="27" r="1"/>
  <circle fill="#F4900C" cx="26" cy="27" r="1"/>
  <circle fill="#F4900C" cx="29" cy="28" r="1"/>
  <circle fill="#F4900C" cx="31" cy="26" r="1"/>
  <circle fill="#F4900C" cx="21" cy="22" r="1"/>
  <circle fill="#F4900C" cx="15" cy="22" r="1"/>
  <circle fill="#F4900C" cx="34" cy="24" r="1"/>
  <circle fill="#F4900C" cx="17" cy="18" r="1"/>
  <circle fill="#F4900C" cx="22" cy="16" r="1"/>
  <path fill="#F4900C" d="M20 12c0 .552-.447 1-1 1-.552 0-1-.448-1-1s.448-1 1-1c.553 0 1 .448 1 1z"/>
  <circle fill="#F4900C" cx="27" cy="13" r="1"/>
  <circle fill="#F4900C" cx="24" cy="10" r="1"/>
  <circle fill="#F4900C" cx="31" cy="19" r="1"/>
  <circle fill="#F4900C" cx="26" cy="19" r="1"/>
  <circle fill="#F4900C" cx="24" cy="23" r="1"/>
  <circle fill="#F4900C" cx="29" cy="22" r="1"/>
</svg>
