<svg xmlns="http://www.w3.org/2000/svg" viewBox="0 0 36 36">
  <path d="M23.657 19.12H17.87c-1.22 0-1.673-.791-1.673-1.56 0-.791.429-1.56 1.673-1.56h8.184c1.154 0 1.628 1.04 1.628 1.628 0 .452-.249.927-.52 1.492l-5.607 11.395c-.633 1.266-.882 1.717-1.899 1.717-1.244 0-1.877-.949-1.877-1.605 0-.271.068-.474.226-.791l5.652-10.716zM10.889 19h-.5c-1.085 0-1.538-.731-1.538-1.5 0-.792.565-1.5 1.538-1.5h2.015c.972 0 1.515.701 1.515 1.605V30.47c0 1.13-.558 1.763-1.53 1.763s-1.5-.633-1.5-1.763V19z" fill="#66757F"/>
</svg>
