<svg xmlns="http://www.w3.org/2000/svg" viewBox="0 0 36 36">
  <path d="M13.182 4.604c0-.5.32-.78.75-.78.429 0 .749.28.749.78v5.017h1.779c.51 0 .73.38.72.72-.02.33-.28.659-.72.659h-2.498c-.49 0-.78-.319-.78-.819V4.604zm-6.91 0c0-.5.32-.78.75-.78s.75.28.75.78v3.488c0 .92.589 1.649 1.539 1.649.909 0 1.529-.769 1.529-1.649V4.604c0-.5.319-.78.749-.78s.75.28.75.78v3.568c0 1.679-1.38 2.949-3.028 2.949-1.669 0-3.039-1.25-3.039-2.949V4.604zM5.49 9.001c0 1.679-1.069 2.119-1.979 2.119-.689 0-1.839-.27-1.839-1.14 0-.269.23-.609.56-.609.4 0 .75.37 1.199.37.56 0 .56-.52.56-.84V4.604c0-.5.32-.78.749-.78.431 0 .75.28.75.78v4.397z" fill="#F5F8FA"/>
</svg>
