<svg xmlns="http://www.w3.org/2000/svg" viewBox="0 0 36 36">
  <path d="M32 10c0 .552.447 1 1 1s1-.448 1-1-.447-1-1-1-1 .448-1 1m0-3c0 .552.447 1 1 1s1-.448 1-1-.447-1-1-1-1 .448-1 1m-3 3c0 .552.447 1 1 1s1-.448 1-1-.447-1-1-1-1 .448-1 1m0-3c0 .552.447 1 1 1s1-.448 1-1-.447-1-1-1-1 .448-1 1m-3 3c0 .552.447 1 1 1s1-.448 1-1-.447-1-1-1-1 .448-1 1m0-3c0 .552.447 1 1 1s1-.448 1-1-.447-1-1-1-1 .448-1 1m-3 0c0 .552.447 1 1 1s1-.448 1-1-.447-1-1-1-1 .448-1 1m0 3c0 .552.447 1 1 1s1-.448 1-1-.447-1-1-1-1 .448-1 1" fill="#F4ABBA"/>
</svg>
