<svg xmlns="http://www.w3.org/2000/svg" viewBox="0 0 36 36">
  <path fill="#CCD6DD" d="M16.742 20.931c-.144-.062-.257-.194-.32-.351l-.294-.768-.757-.324c-.311-.133-.436-.447-.303-.757l.317-.739-.317-.759c-.126-.314.035-.666.349-.792l.76-.298.337-.786c.133-.311.446-.436.757-.303l.757.324.759-.317c.157-.063.328-.064.472-.002.144.062.259.19.322.347l.296.764.769.329c.31.133.436.446.303.757l-.337.786.317.759c.126.314-.035.666-.349.792l-.76.298-.317.74c-.133.31-.447.436-.757.303l-.769-.329-.759.317c-.158.061-.332.07-.476.009z"/>
</svg>
