<svg xmlns="http://www.w3.org/2000/svg" viewBox="0 0 36 36">
  <path fill="#E1E8ED" d="M20.644 16.498l-.769-.329-.013-.033c-.364.311-1.212 1.012-1.212 1.012l.002.028c-.178-.142-.401-.23-.647-.23v-1.578l-.736-.315c-.311-.133-.624-.007-.757.303l-.337.786-.014.006 1.104 1.105c-.189.189-.306.451-.306.739h-1.576l-.316.739c-.133.311-.007.624.303.757l.757.324.001.001 1.045-1.195c.191.253.491.419.833.419h.001l.003 1.58.735.315c.31.133.624.007.757-.303l.317-.739-1.206-1.05c.265-.19.439-.498.439-.849 0-.017-.004-.032-.005-.048.419.042 1.15.11 1.585.149l-.021-.051.337-.786c.132-.311.007-.624-.304-.757z"/>
</svg>
