<svg xmlns="http://www.w3.org/2000/svg" viewBox="0 0 36 36">
  <path fill="#F7DECE" d="M33.013 3.746c-1.133-.847-3.219-.709-3.924.678-.983 1.936-.285 3.994 1.047 4.208 1.397.224 2.312.15 3.243-1.096.931-1.247.768-2.944-.366-3.79z"/>
  <path fill="#F7DECE" d="M32.92 7.797c2.44-1.666-2.068-2.67-2.068-2.67-.851-.2-.654 1.362-1.26 2.02-.417.456.651 1.05.651 1.05s.437.387.401.669-.176.331-.645.431c-.596 1.244 1.145 2.699 1.87 1.523.287-.465.351-.926.388-1.357l.56.118c-.338-.648-.5-1.372.103-1.784z"/>
</svg>
