<svg xmlns="http://www.w3.org/2000/svg" viewBox="0 0 36 36">
  <path fill="#D01C3A" d="M18.629 18.404l.281-.225h.348v.181s.495-.008.899-.049c.404-.042.528.262.404.34-.123.079.022.383 0 .528-.022.146-.292.359-.225.236.067-.124 0-.461 0-.461s-.078.259-.146.337c-.068.079-.304.09-.214.023s.18-.213.101-.292c-.078-.078-.431-.09-.446-.056-.014.033-.081.426-.126.449-.046.022-.102-.034-.068-.157.034-.124 0-.337 0-.337s-.235-.012-.225.09c.012.101.113.146.091.225-.023.078-.169.18-.18.045-.012-.135-.236-.225-.135-.292.101-.067.203-.173.203-.173s-.127-.029-.216-.153c-.09-.123-.166-.112-.346-.112-.09 0 0-.147 0-.147zm0 1.349l.281-.225h.348v.18s.495-.007.899-.049c.404-.041.528.262.404.341-.123.079.022.382 0 .528-.022.146-.292.358-.225.236.067-.124 0-.461 0-.461s-.078.258-.146.337c-.068.079-.304.09-.214.022.09-.067.18-.214.101-.292-.078-.078-.431-.09-.446-.057-.014.034-.081.427-.126.45-.046.021-.102-.034-.068-.158.034-.123 0-.337 0-.337s-.235-.011-.225.09c.012.101.113.146.091.225-.023.079-.169.181-.18.045-.012-.134-.236-.225-.135-.292.101-.067.203-.173.203-.173s-.127-.029-.216-.152c-.09-.124-.166-.112-.346-.112-.09 0 0-.146 0-.146z"/>
</svg>
