<svg xmlns="http://www.w3.org/2000/svg" viewBox="0 0 36 36">
  <path fill="#AF9167" d="M14.629 21.191c0 .033 1.652.482 1.837.517.186.033.118.415-.129.393-.247-.021-1.472-.291-1.629-.37-.157-.08-.079-.54-.079-.54zm2.27.556s.495.067.921.085c.427.017.719-.02.719-.02l.304.412s-.528.057-.888.057c-.359 0-.944-.057-.944-.057l-.112-.477zm2.157 0s.708-.129 1.136-.231c.427-.101.988-.303 1.135-.325.146-.023.247.241.291.277l.045.037s-.741.348-1.101.449c-.359.102-1.506.259-1.506.259s-.164-.436 0-.466z"/>
</svg>
