<svg xmlns="http://www.w3.org/2000/svg" viewBox="0 0 36 36">
  <path fill="#C7B37F" d="M23.035 19.641c-.159-.472-.563-.382-.563-.225 0 0-.539-.39-.135-1.104 0 0 .786.093.337-.514 0 0 .674-.382.696-1.168.022-.787-.876-1.281-1.258-.967 0 0-.023-.314-.18-.314s-.247.202-.247.202.023-.517.359-.809c.337-.292 1.033-1.079-.428-1.528-1.46-.449-1.527.473-1.303.675 0 0-.359.201-.764.179-.404-.021-.113-.493-.023-.696.09-.202.023-.921-.473-.898-.494.022-.517.225-.696.292-.177.066-.357.021-.357.021s-.18.045-.36-.023c-.179-.067-.202-.269-.696-.292-.495-.023-.562.696-.472.898.09.203.382.675-.023.696-.404.022-.764-.179-.764-.179.225-.202.157-1.124-1.303-.675-1.46.449-.764 1.236-.427 1.528.337.292.36.809.36.809s-.09-.202-.248-.202c-.157 0-.179.314-.179.314-.382-.314-1.281.18-1.259.967.023.786.697 1.168.697 1.168-.45.606.337.514.337.514.404.715-.135 1.104-.135 1.104 0-.157-.404-.247-.564.225-.159.472.316.629.316.629-.629.81-.225 1.573.382 2.022.607.449 1.775.383 2.359.427.584.045.697.337.697.337-.449.428.225.765.225.765.135.449.674-.045.674-.045l.383.338.382-.337s.54.494.674.045c0 0 .675-.337.225-.765 0 0 .113-.292.697-.337.584-.044 1.753.022 2.359-.427.606-.449 1.011-1.213.382-2.022 0 .001.475-.157.316-.628z"/>
</svg>
