<svg xmlns="http://www.w3.org/2000/svg" viewBox="0 0 36 36">
  <path fill="#FFF" d="M16.652 16.91s.056.416.258.438c.202.022.27-.646.601-.646.332 0 .365.579 0 .669l-.05-.168s.236-.236.067-.271c-.168-.033-.247.18-.269.271-.023.09-.158.325-.36.325-.337 0-.382-.309-.433-.547-.05-.239.186-.071.186-.071zm-.6 0s-.056.416-.259.438c-.202.022-.27-.646-.601-.646-.332 0-.366.579 0 .669l.05-.168s-.236-.236-.067-.271c.168-.033.247.18.269.271.023.09.157.325.359.325.337 0 .382-.309.433-.547.052-.239-.184-.071-.184-.071z"/>
  <path fill="#FFF" d="M16.394 14.798l.865 1.101-.433 1.18s-.174-.102-.433-.102-.461.102-.461.102l-.46-1.191.922-1.09z"/>
</svg>
