<svg xmlns="http://www.w3.org/2000/svg" viewBox="0 0 36 36">
  <path fill="#583529" d="M32.302 24.347c-.695-1.01-.307-2.47-.48-4.082-.178-2.63-1.308-5.178-3.5-7.216l-7.466-6.942s-1.471-1.369-2.841.103c-1.368 1.471.104 2.84.104 2.84l3.154 2.934 2.734 2.542s-.685.736-3.711-2.078l-10.22-9.506s-1.473-1.368-2.842.104c-1.368 1.471.103 2.84.103 2.84l9.664 8.989c-.021-.02-.731.692-.744.68L5.917 5.938s-1.472-1.369-2.841.103c-1.369 1.472.103 2.84.103 2.84L13.52 18.5c.012.012-.654.764-.634.783l-8.92-8.298s-1.472-1.369-2.841.103c-1.369 1.472.103 2.841.103 2.841l9.484 8.82c.087.081-.5.908-.391 1.009l-6.834-6.356s-1.472-1.369-2.841.104c-1.369 1.472.103 2.841.103 2.841L11.896 30.71c1.861 1.731 3.772 2.607 6.076 2.928.469.065 1.069.065 1.315.096.777.098 1.459.374 2.372.934 1.175.72 2.938 1.02 3.951-.063l3.454-3.695 3.189-3.412c1.012-1.082.831-2.016.049-3.151z"/>
</svg>
