<svg xmlns="http://www.w3.org/2000/svg" viewBox="0 0 36 36">
  <path fill="#7C533E" d="M35.39 23.822c-.661-1.032-.224-2.479-.342-4.096-.09-2.634-1.133-5.219-3.255-7.33l-7.228-7.189s-1.424-1.417-2.843.008c-1.417 1.424.008 2.842.008 2.842l3.054 3.039 2.646 2.632s-.71.712-3.639-2.202c-2.931-2.915-9.894-9.845-9.894-9.845s-1.425-1.417-2.843.008c-1.418 1.424.007 2.841.007 2.841l9.356 9.31c-.02-.02-.754.667-.767.654L9.64 4.534s-1.425-1.418-2.843.007c-1.417 1.425.007 2.842.007 2.842l10.011 9.962c.012.012-.68.741-.66.761L7.52 9.513s-1.425-1.417-2.843.008.007 2.843.007 2.843l9.181 9.135c.084.083-.53.891-.425.996l-6.616-6.583s-1.425-1.417-2.843.008.007 2.843.007 2.843l10.79 10.732c1.802 1.793 3.682 2.732 5.974 3.131.467.081 1.067.101 1.311.14.773.124 1.445.423 2.34 1.014 1.15.759 2.902 1.118 3.951.07l3.577-3.576 3.302-3.302c1.049-1.05.9-1.99.157-3.15z"/>
</svg>
