<svg xmlns="http://www.w3.org/2000/svg" viewBox="0 0 36 36">
  <path fill="#31373D" d="M10 22c-2 0-4.946.087-6.973.087S-.617 18.609.692 17.305C2 16 6 15 5 11c-.542-2.169 4-3 6-2 4.816 2.408 5 10-2 10 0 0 3 3 1 3zm20-11c-2.586.97-5.485 1.101-8.226.838C20.669 13.231 20 15.031 20 17c0 4.418 3.357 8 7.5 8 2.587 0 4.866-1.396 6.215-3.521.181-1.872.285-4.017.285-6.479 0-2-2.127-4.702-4-4z"/>
  <circle fill="#31373D" cx="17.5" cy="24.5" r="3.5"/>
  <circle fill="#31373D" cx="30" cy="28" r="2"/>
</svg>
