<svg xmlns="http://www.w3.org/2000/svg" viewBox="0 0 36 36">
  <path fill="#AAB8C2" d="M17.994 1.394c-7.982 0-14.453 6.471-14.453 14.453 0 7.982 6.471 14.453 14.453 14.453 7.983 0 14.454-6.471 14.454-14.453-.001-7.982-6.472-14.453-14.454-14.453zm0 26.683c-6.755 0-12.23-5.475-12.23-12.23s5.475-12.23 12.23-12.23c6.754 0 12.23 5.475 12.23 12.23s-5.475 12.23-12.23 12.23z"/>
  <path fill="#AAB8C2" d="M17.993 23.374c-4.15 0-7.526-3.377-7.526-7.527s3.376-7.526 7.526-7.526c4.151 0 7.528 3.376 7.528 7.526s-3.376 7.527-7.528 7.527zm0-13.553c-3.323 0-6.026 2.704-6.026 6.026s2.704 6.027 6.026 6.027c3.324 0 6.028-2.704 6.028-6.027s-2.704-6.026-6.028-6.026z"/>
</svg>
