<svg xmlns="http://www.w3.org/2000/svg" viewBox="0 0 36 36">
  <path fill="#8899A6" d="M27.279 34.429l-8.376-18.344c-.021-.046-.058-.076-.085-.117-.038-.059-.072-.118-.123-.169-.051-.051-.11-.085-.17-.123-.041-.027-.071-.064-.117-.085-.012-.005-.024-.003-.035-.008-.064-.027-.132-.034-.201-.047-.061-.011-.121-.03-.182-.03-.054 0-.106.018-.161.027-.075.013-.149.022-.219.051-.011.005-.023.003-.034.008-.044.02-.074.057-.114.082-.061.039-.121.074-.173.125-.051.051-.086.111-.124.171-.026.04-.063.07-.083.115L8.709 34.429c-.229.502-.008 1.096.494 1.325.135.061.276.09.415.09.379 0 .742-.217.91-.585l7.465-16.351 7.465 16.351c.168.368.531.585.911.585.139 0 .279-.029.414-.091.504-.229.725-.822.496-1.324z"/>
</svg>
