<svg xmlns="http://www.w3.org/2000/svg" viewBox="0 0 36 36">
  <path fill="#00247D" d="M0 23h36V13H0v10zm25.316-3.55l.269.74.787-.027-.62.485.269.74-.653-.44-.62.485.217-.757-.653-.44.787-.027.217-.759zM24.1 17.785l.73-.295-.417.667.506.603-.764-.19-.417.667-.055-.785-.764-.19.73-.295-.055-.785.506.603zm-2.9-2.145l.682.394.585-.527-.164.77.682.394-.783.082-.164.77-.32-.719-.783.082.585-.527-.32-.719zm-2.002-.493l.37-.695.11.779.775.137-.707.345.11.779-.547-.566-.709.345.37-.695-.547-.566.775.137zm-2.875.084l.11-.779.37.695.775-.137-.547.566.37.695-.707-.345-.547.566.11-.779-.707-.345.773-.137zm-2.789.276l.585.527.681-.394-.32.719.585.527-.783-.082-.32.719-.164-.77-.783-.082.682-.394-.163-.77zM11.17 17.49l.73.295.506-.603-.055.785.73.295-.764.19-.055.785-.417-.667-.764.19.506-.603-.417-.667zm-.756 2.699l.269-.74.217.757.787.027-.653.44.217.757-.62-.485-.653.44.269-.74-.62-.485.787.029z"/>
</svg>
