<svg xmlns="http://www.w3.org/2000/svg" viewBox="0 0 36 36">
  <path fill="#FFF" d="M18.6 16.271l.707-.345.547.566-.11-.779.708-.345-.775-.137-.11-.779-.369.695-.776-.137.547.566zm3.118.532l.32.719.163-.769.783-.083-.681-.393.163-.77-.585.526-.681-.393.32.719-.585.527zm1.201 1.459l.764.19.055.785.417-.667.763.19-.506-.603.418-.667-.73.295-.506-.603.055.785zm2.046 2.412l-.217.756.621-.484.652.44-.269-.74.62-.484-.786.027-.27-.739-.217.756-.786.028zm-8.819-4.182l.547-.566.707.345-.369-.695.547-.566-.776.137-.369-.695-.11.779-.775.137.708.345zm-2.347.261l.163.769.32-.719.783.083-.585-.527.32-.719-.681.393-.585-.526.163.77-.681.393zm-1.954 1.817l.417.667.055-.785.764-.19-.73-.295.055-.785-.506.603-.73-.295.418.667-.506.603zm-1.866 2.816l.652-.44.621.484-.217-.756.652-.44-.786-.028-.217-.756-.27.739-.786-.027.62.484z"/>
</svg>
