<svg xmlns="http://www.w3.org/2000/svg" viewBox="0 0 36 36">
  <path fill="#2A6797" d="M12.764 21.84c0 .658-1.474 1.447-3.301 1.447-2.42 0-3.877-1.681-4.361-3.742H3.808c-.315 0-.571-.255-.571-.569 0-.315.256-.57.571-.57h1.129c-.008-.136-.029-.27-.029-.406 0-.3.026-.597.063-.89H3.808c-.315 0-.571-.256-.571-.571 0-.315.256-.569.571-.569h1.416c.593-1.835 2.03-3.257 4.313-3.257 1.84 0 3.008.993 3.008 1.519 0 .336-.205.612-.526.612-.584 0-.876-1.022-2.482-1.022-1.51 0-2.428.942-2.891 2.147h3.327c.315 0 .57.255.57.569 0 .315-.255.571-.57.571H6.351c-.043.297-.072.596-.072.891 0 .134.016.27.025.405h3.668c.315 0 .57.255.57.57 0 .314-.255.569-.57.569H6.485c.389 1.43 1.346 2.631 2.978 2.631 1.563 0 2.25-.934 2.79-.934.307.001.511.235.511.599z"/>
</svg>
