<svg xmlns="http://www.w3.org/2000/svg" viewBox="0 0 36 36">
  <path fill="#FFE8B6" d="M17.483 30.971c-.574.051-1.099-.36-1.168-.93L13.427 5.136c-.069-.57.676-1.133 1.657-1.22.981-.087 1.811.336 1.844.909l1.541 25.024c.031.574-.412 1.07-.986 1.122zm4.199-.146c-.574-.011-1.051-.476-1.058-1.051l-.192-25.071c-.007-.574.791-1.054 1.773-1.034.982.019 1.76.528 1.731 1.102l-1.157 25.045c-.029.574-.522 1.02-1.097 1.009zm4.185.306c-.57-.073-.993-.586-.939-1.158l2.501-24.947c.054-.572.899-.963 1.873-.838.974.124 1.694.714 1.603 1.281l-3.839 24.776c-.091.568-.629.959-1.199.886z"/>
</svg>
