<svg xmlns="http://www.w3.org/2000/svg" viewBox="0 0 36 36">
  <path fill="#F5F8FA" d="M7.891 7.833l-5.542.633c-.474.054-.906-.29-.96-.764l-.04-.352c-.054-.474.29-.906.764-.96l5.541-.632c.474-.054.906.29.96.764l.04.352c.054.473-.289.905-.763.959zm.355 3.114l-5.541.633c-.474.054-.906-.29-.96-.764l-.04-.352c-.055-.474.289-.906.763-.96l5.541-.632c.474-.054.906.29.96.764l.04.352c.055.473-.289.905-.763.959zm.355 3.114l-5.541.632c-.474.054-.906-.29-.96-.764l-.04-.352c-.054-.474.29-.906.764-.96l5.541-.632c.474-.054.906.29.96.764l.04.352c.054.474-.289.906-.764.96zm.356 3.114l-5.541.632c-.474.054-.906-.29-.96-.764l-.04-.352c-.054-.474.29-.906.764-.96l5.541-.632c.474-.054.906.29.96.764l.04.352c.054.473-.29.906-.764.96zm.355 3.113l-5.541.632c-.474.054-.906-.29-.96-.764l-.04-.352c-.054-.474.29-.906.764-.96l5.541-.632c.474-.054.906.29.96.764l.04.352c.054.474-.29.906-.764.96zm.355 3.114l-5.541.632c-.474.054-.906-.29-.96-.764l-.04-.352c-.054-.474.29-.906.764-.96l5.541-.632c.474-.054.906.29.96.764l.04.352c.054.474-.289.906-.764.96zm.356 3.114l-5.541.632c-.474.054-.906-.29-.96-.764l-.04-.352c-.054-.474.29-.906.764-.96l5.541-.632c.474-.054.906.29.96.764l.04.352c.054.474-.29.906-.764.96zm.355 3.114l-5.541.632c-.474.054-.906-.29-.96-.764l-.04-.352c-.054-.474.29-.906.764-.96l5.541-.632c.474-.054.906.29.96.764l.04.352c.054.473-.29.906-.764.96z"/>
</svg>
