<svg xmlns="http://www.w3.org/2000/svg" viewBox="0 0 36 36">
  <path fill="#292F33" d="M5.582 9.148l2.427-.277c.474-.054.818-.486.764-.96l-.04-.352c-.054-.474-.486-.818-.96-.764l-2.428.277c-.474.054-.818.486-.764.96l.04.352c.054.475.486.818.961.764zm.355 3.114l2.427-.277c.474-.054.818-.486.764-.96l-.04-.352c-.054-.474-.486-.818-.96-.764l-2.428.277c-.474.054-.818.486-.764.96l.04.352c.055.475.487.818.961.764zm.711 6.228l2.427-.277c.474-.054.818-.486.764-.96l-.04-.353c-.054-.474-.486-.818-.96-.764l-2.427.277c-.474.054-.818.486-.764.96l.04.352c.053.475.486.819.96.765zm.355 3.113l2.427-.277c.474-.054.818-.486.764-.96l-.04-.352c-.054-.474-.486-.818-.96-.764l-2.427.277c-.474.054-.818.486-.764.96l.04.352c.054.475.486.818.96.764zm.355 3.114l2.427-.277c.474-.054.818-.486.764-.96l-.04-.352c-.054-.474-.486-.818-.96-.764l-2.427.277c-.474.054-.818.486-.764.96l.04.352c.054.475.486.818.96.764zm.711 6.228l2.427-.277c.474-.054.818-.486.764-.96l-.04-.352c-.054-.474-.486-.818-.96-.764l-2.427.277c-.474.054-.818.486-.764.96l.04.352c.054.474.486.818.96.764z"/>
</svg>
