<svg xmlns="http://www.w3.org/2000/svg" viewBox="0 0 36 36">
  <path fill="#A0041E" d="M10.103 6.529l2.252-.257c.237-.027.409-.243.382-.48l-.02-.176c-.027-.237-.243-.409-.48-.382l-2.252.258c-.237.027-.409.243-.382.48l.02.176c.027.237.243.408.48.381zm.237 2.076l2.252-.257c.237-.027.409-.243.382-.48l-.02-.176c-.027-.237-.243-.409-.48-.382l-2.252.257c-.237.027-.409.244-.382.481l.02.176c.027.236.243.408.48.381zm.237 2.076l2.252-.257c.237-.027.409-.243.382-.48l-.02-.176c-.027-.237-.243-.409-.48-.382l-2.252.257c-.237.027-.409.243-.382.48l.02.176c.027.237.243.409.48.382zm.237 2.076l2.252-.257c.237-.027.409-.243.382-.48l-.02-.176c-.027-.237-.243-.409-.48-.382l-2.252.257c-.237.027-.409.243-.382.48l.02.176c.027.237.243.409.48.382zm.237 2.076l2.252-.257c.237-.027.409-.243.382-.48l-.02-.176c-.027-.237-.243-.409-.48-.382l-2.252.257c-.237.027-.409.243-.382.48l.02.176c.027.237.243.409.48.382zm.237 2.076l2.252-.257c.237-.027.409-.243.382-.48l-.02-.176c-.027-.237-.243-.409-.48-.382l-2.252.257c-.237.027-.409.243-.382.48l.02.176c.027.237.243.409.48.382zm.237 2.075l2.252-.257c.237-.027.409-.243.382-.48l-.02-.176c-.027-.237-.243-.409-.48-.382l-2.252.257c-.237.027-.409.243-.382.48l.02.176c.026.238.243.41.48.382zm.237 2.076l2.252-.257c.237-.027.409-.243.382-.48l-.02-.176c-.027-.237-.243-.409-.48-.382l-2.252.257c-.237.027-.409.243-.382.48l.02.176c.026.238.242.409.48.382zm.236 2.076l2.252-.257c.237-.027.409-.243.382-.48l-.02-.176c-.027-.237-.243-.409-.48-.382l-2.252.257c-.237.027-.409.243-.382.48l.02.176c.027.237.243.409.48.382zm.237 2.076l2.252-.257c.237-.027.409-.243.382-.48l-.02-.176c-.027-.237-.243-.409-.48-.382l-2.252.257c-.237.027-.409.243-.382.48l.02.176c.027.237.243.409.48.382zm.237 2.076l2.252-.257c.237-.027.409-.243.382-.48l-.02-.176c-.027-.237-.243-.409-.48-.382l-2.252.257c-.237.027-.409.243-.382.48l.02.176c.027.237.243.409.48.382zm.237 2.076l2.252-.257c.237-.027.409-.243.382-.48l-.02-.176c-.027-.237-.243-.409-.48-.382l-2.252.257c-.237.027-.409.243-.382.48l.02.176c.027.237.243.409.48.382z"/>
</svg>
