<svg xmlns="http://www.w3.org/2000/svg" viewBox="0 0 36 36">
  <path fill="#DD2E44" d="M6.083 6.708c-4.542 0-4.375-5.833 4.125-4.458S27.887 6.907 30.25 5.458c1.875-1.15 1.666-3.5 1.25-4s-1.125-.125-.833.625-.25 2.667-2.458 2.708c-2.208.043-10.279-2.08-15.39-3.171C7.6.506 3.337.575 2.208 3.458c-1.125 2.875 1.667 4 3.167 4.25s.708-1 .708-1z"/>
  <path fill="#DD2E44" d="M33.378 13.246c-2.541-3.928-6.765-6.629-11.255-7.484C14.806 4.369 4.812 4.938 2 9c-.562.812-.478 4.671 3 6 1.763.674 6.542-.162 9.841-.462l-.22 1.737c-.069.548.318 1.048.866 1.118.548.069 1.048-.318 1.118-.866l.264-2.082c.796.02 1.572.1 2.336.232l-.599 1.959c-.162.528.136 1.087.663 1.249.529.161 1.088-.136 1.249-.664l.638-2.088c.742.223 1.479.5 2.219.826l-1.043 1.695c-.29.471-.142 1.086.327 1.376.472.288 1.087.142 1.376-.328l1.14-1.854c.088.047.174.089.262.138 2.808 1.558 4.526 5.937 4.454 7.555-.036.812.169 1.406.608 1.771.792.652 2.078.343 3.018.117.318-.077.647-.156.799-.153l.302-.992.098-.285c1.981-5.772.366-9.121-1.338-11.753z"/>
</svg>
