<svg xmlns="http://www.w3.org/2000/svg" viewBox="0 0 36 36">
  <path fill="#FA743E" d="M18.425 26.836s.568-.446.979-.776c0 0-.409-.721.615-1.478 1.025-.758 1.688-.397 1.688-.397s.231.09 1.038-.153c.383-.115 1.147-.307 1.147-.307s-.041-1.617-.267-2.601l-1.951-.077s-.631-1.372-1.191-1.978c-.834-.904-.709-2.434-.778-2.798 0 0-2.408.956-4.149 1.446-1.348.38-3.291.024-3.291.024.481.655 1.768 1.946 2.346 2.855.687 1.081 2.212 4.245 1.775 4.731-.438.487-1.061 1.535-1.061 1.535s.615.449 1.032.802c.584.493 1.072.613 1.072.613s.644-1.102.996-1.441z"/>
</svg>
