<svg xmlns="http://www.w3.org/2000/svg" viewBox="0 0 36 36">
  <path fill="#DD551F" d="M23.011 2.446c-.055.164-.202.758-.203.984l-.24 1.347c-.014.067.032.132.099.142.197.031.834-.084 1.226.272.262.238.292.663.443.728.048.02.103-.005.12-.054 0 0 .047-.246.11-.456.13-.166.283-.5.519-.634.14-.024.291-.151.66-.174.219-.014 1.224-.085 1.224-.085.255-.013.335-.093.472-.102.282-.02 1.02.002 1.26-.017.239-.018.375-.165.423-.292.048-.126.035-.208.035-.208s-.233-.403-1.596-.956c-.8-.324-4.189-1.074-4.189-1.074l-.127.1c-.126.1-.178.307-.236.479z"/>
</svg>
