<svg xmlns="http://www.w3.org/2000/svg" viewBox="0 0 36 36">
  <path fill="#31373D" d="M16.919 3.743c-2.148 2.147-2.149 5.63 0 7.778 2.148 2.148 5.63 2.148 7.778 0 2.147-2.148 2.147-5.63 0-7.778-2.148-2.148-5.631-2.148-7.778 0zm6.363 6.364c-1.366 1.367-3.583 1.367-4.95 0s-1.367-3.583 0-4.95 3.583-1.367 4.95 0 1.367 3.583 0 4.95z"/>
  <path fill="#31373D" d="M26.111 1.622c-2.148 2.147-2.148 5.63 0 7.778 2.148 2.148 5.63 2.148 7.777 0 2.148-2.148 2.148-5.631 0-7.778-2.147-2.148-5.629-2.148-7.777 0zm6.364 6.364c-1.366 1.366-3.583 1.366-4.949 0-1.367-1.368-1.367-3.583 0-4.95 1.366-1.367 3.582-1.368 4.949 0 1.367 1.366 1.367 3.583 0 4.95z"/>
  <path fill="#31373D" d="M23.989 10.814c-2.147 2.147-2.147 5.63 0 7.778 2.147 2.148 5.631 2.148 7.778 0 2.147-2.148 2.147-5.63 0-7.778-2.147-2.147-5.63-2.147-7.778 0zm6.365 6.364c-1.366 1.367-3.583 1.367-4.95 0s-1.366-3.583 0-4.949c1.367-1.367 3.583-1.368 4.95 0 1.366 1.366 1.366 3.582 0 4.949z"/>
</svg>
