<svg xmlns="http://www.w3.org/2000/svg" viewBox="0 0 36 36">
  <path fill="#99AAB5" d="M15 6c0 .552-.448 1-1 1h-4c-.552 0-1-.448-1-1s.448-1 1-1h4c.552 0 1 .448 1 1zm0 12c0 .553-.448 1-1 1h-4c-.552 0-1-.447-1-1 0-.552.448-1 1-1h4c.552 0 1 .448 1 1zm0 12c0 .553-.448 1-1 1h-4c-.552 0-1-.447-1-1 0-.553.448-1 1-1h4c.552 0 1 .447 1 1zM27 6c0 .552-.447 1-1 1h-4c-.553 0-1-.448-1-1s.447-1 1-1h4c.553 0 1 .448 1 1zm0 12c0 .553-.447 1-1 1h-4c-.553 0-1-.447-1-1 0-.552.447-1 1-1h4c.553 0 1 .448 1 1zm0 12c0 .553-.447 1-1 1h-4c-.553 0-1-.447-1-1 0-.553.447-1 1-1h4c.553 0 1 .447 1 1zm-12-5.894c0 .494-.4.894-.893.894h-2.214c-.493 0-.893-.4-.893-.894v-.213c0-.493.4-.893.893-.893h2.214c.493 0 .893.4.893.894v.212zm10 0c0 .494-.4.894-.893.894h-2.215c-.492 0-.892-.4-.892-.894v-.213c0-.493.4-.893.893-.893h2.215c.492 0 .892.4.892.894v.212z"/>
</svg>
