<svg xmlns="http://www.w3.org/2000/svg" viewBox="0 0 36 36">
  <path fill="#55ACEE" d="M32.53 3.481c-3.026-3.025-7.951-5.17-11.871-1.25-1.468 1.467-1.742 2.914-2.033 4.445-.396 2.083-.845 4.445-4.431 8.031-1.691 1.691-1.774 3.066-1.848 4.279-.059.964-.109 1.797-.899 2.918-.209.296-.174.7.082.956l1.624 1.624c.145.144.335.218.527.218.149 0 .3-.044.429-.136 1.12-.79 1.953-.84 2.917-.899 1.213-.074 2.587-.157 4.278-1.848 3.587-3.586 5.948-4.035 8.032-4.431 1.531-.291 2.978-.565 4.444-2.033 3.92-3.922 1.777-8.847-1.251-11.874zm-.767 2.368c.498-.352 1.187-.234 1.539.263.352.498.234 1.187-.263 1.539s-1.187.235-1.539-.263c-.353-.498-.235-1.187.263-1.539zM29.26 2.458c.61 0 1.104.494 1.104 1.104s-.494 1.105-1.104 1.105-1.104-.494-1.104-1.104.495-1.105 1.104-1.105zm-4.724-.94c.154-.59.757-.944 1.347-.79.59.154.944.757.79 1.347-.154.59-.757.944-1.347.79-.591-.154-.944-.757-.79-1.347zm8.193 12.781c-1.144 1.143-2.203 1.344-3.67 1.623-2.182.415-4.896.93-8.807 4.841-.185.185-.36.339-.531.477-1.086.258-2.598.261-3.904-1.045s-1.304-2.818-1.045-3.904c.138-.17.292-.345.476-.53 3.911-3.911 4.426-6.625 4.841-8.807.278-1.467.479-2.526 1.622-3.669.261-.261.524-.486.79-.68 2.958.286 5.35 1.361 7.48 3.427 2.132 2.068 3.18 4.787 3.424 7.478-.193.264-.416.529-.676.789zm1.485-2.82c-.61 0-1.104-.494-1.104-1.104s.494-1.104 1.104-1.104c.61 0 1.104.494 1.104 1.104s-.495 1.104-1.104 1.104z"/>
</svg>
