<svg xmlns="http://www.w3.org/2000/svg" viewBox="0 0 36 36">
  <path fill="#292F33" d="M32.548 13.134c-.035 0-.071-.007-.105-.023-.125-.059-.18-.207-.121-.333.261-.558.74-1.28 1.078-1.764-.662.064-1.479-.086-1.831-.905-.398-.927-.023-2.09.243-2.716-.75.093-2.164.147-2.812-.63-.604-.722-.469-1.896-.313-2.593-.67.312-1.847.729-2.735.345-.482-.209-.797-.535-.933-.966-.101-.317-.088-.649-.029-.947-.497.388-1.183.838-1.907 1.047-.139.039-.272-.039-.31-.171-.038-.132.038-.271.171-.31 1.254-.363 2.446-1.584 2.458-1.597.089-.092.232-.101.332-.024.102.078.127.219.061.328-.005.01-.512.855-.299 1.525.092.29.306.505.654.656 1.049.455 2.782-.576 2.801-.586.09-.054.203-.046.287.021.081.067.112.177.078.277-.007.018-.634 1.838.066 2.675.577.689 2.222.511 2.808.384.095-.021.195.016.253.095.059.078.067.184.019.27-.01.016-.898 1.639-.435 2.72.421.979 1.812.507 1.871.486.103-.035.219-.001.284.088.065.088.064.209-.001.297-.01.013-1.007 1.349-1.407 2.206-.042.092-.132.145-.226.145z"/>
</svg>
