<svg xmlns="http://www.w3.org/2000/svg" viewBox="0 0 36 36">
  <path fill="#EDEDED" d="M28.021 9.212l-.385 1.181-1.223-.013 1.004.731-.391 1.159 1.004-.729.982.729-.381-1.181.996-.709h-1.242l-.364-1.168zm-4.007-1.08l-.385 1.181-1.225-.013 1.006.729-.391 1.16 1.004-.729.983.729-.383-1.181.998-.708h-1.242l-.365-1.168zm-4.009-.527l-.385 1.18-1.224-.012 1.005.729-.391 1.16 1.004-.73.983.73-.383-1.182.998-.708H20.37l-.365-1.167zM7.979 9.212l.384 1.181 1.224-.013-1.005.73.39 1.159-1.004-.729-.982.729.383-1.181-.998-.708h1.241l.367-1.168zm4.008-1.08l.384 1.181 1.224-.013-1.004.729.39 1.16-1.004-.729-.983.729.384-1.181-.998-.708h1.241l.366-1.168zm4.009-.527l.384 1.18 1.224-.012-1.005.729.391 1.16-1.004-.73-.983.73.384-1.182-.997-.708 1.241-.001.365-1.166z"/>
</svg>
