<svg xmlns="http://www.w3.org/2000/svg" viewBox="0 0 36 36">
  <path d="M18 11c-.552 0-1-.448-1-1V3c0-.552.448-1 1-1s1 .448 1 1v7c0 .552-.448 1-1 1zm-6.583 4.5c-.1 0-.202-.015-.302-.047l-8.041-2.542c-.527-.167-.819-.728-.652-1.255.166-.527.73-.818 1.255-.652l8.042 2.542c.527.167.819.729.652 1.255-.136.426-.53.699-.954.699zm13.625-.291c-.434 0-.833-.285-.96-.722-.154-.531.151-1.085.682-1.239l6.75-1.958c.531-.153 1.085.153 1.238.682.154.531-.151 1.085-.682 1.239l-6.75 1.958c-.092.027-.186.04-.278.04zm2.001 14.958c-.306 0-.606-.14-.803-.403l-5.459-7.333c-.33-.442-.238-1.069.205-1.399.442-.331 1.069-.238 1.399.205l5.459 7.333c.33.442.238 1.069-.205 1.399-.179.134-.389.198-.596.198zm-18.294-.083c-.197 0-.395-.058-.57-.179-.454-.316-.565-.938-.25-1.392l5.125-7.375c.315-.454.938-.566 1.392-.251.454.315.565.939.25 1.392l-5.125 7.375c-.194.281-.506.43-.822.43zM3.5 27.062c-.44 0-.844-.293-.965-.738L.347 18.262c-.145-.533.17-1.082.704-1.227.535-.141 1.083.171 1.227.704l2.188 8.062c.145.533-.17 1.082-.704 1.226-.088.025-.176.035-.262.035zM22 34h-9c-.552 0-1-.447-1-1s.448-1 1-1h9c.553 0 1 .447 1 1s-.447 1-1 1zm10.126-6.875c-.079 0-.16-.009-.24-.029-.536-.132-.864-.674-.731-1.21l2.125-8.625c.133-.536.679-.862 1.21-.732.536.132.864.674.731 1.211l-2.125 8.625c-.113.455-.521.76-.97.76zM30.312 7.688c-.17 0-.342-.043-.5-.134L22.25 3.179c-.478-.277-.642-.888-.364-1.367.275-.478.886-.643 1.366-.365l7.562 4.375c.478.277.642.888.364 1.367-.185.32-.521.499-.866.499zm-24.811 0c-.312 0-.618-.145-.813-.417-.322-.45-.22-1.074.229-1.396l6.188-4.438c.449-.322 1.074-.219 1.396.229.322.449.219 1.074-.229 1.396L6.083 7.5c-.177.126-.38.188-.582.188z" fill="#CCD6DD"/>
</svg>
