<svg xmlns="http://www.w3.org/2000/svg" viewBox="0 0 36 36">
  <path d="M25.493 13.516l-7.208-5.083c-.348-.245-.814-.243-1.161.006l-7.167 5.167c-.343.248-.494.684-.375 1.091l2.5 8.583c.124.426.515.72.96.72H22c.43 0 .81-.274.948-.681l2.917-8.667c.141-.419-.011-.881-.372-1.136zM1.292 19.542c.058 0 .117-.005.175-.016.294-.052.55-.233.697-.494l3.375-6c.051-.091.087-.188.108-.291L6.98 6.2c.06-.294-.016-.6-.206-.832C6.584 5.135 6.3 5 6 5h-.428C2.145 8.277 0 12.884 0 18c0 .266.028.525.04.788l.602.514c.182.156.413.24.65.24zm9.325-16.547c.106.219.313.373.553.412l6.375 1.042c.04.006.081.01.121.01.04 0 .081-.003.122-.01l6.084-1c.2-.033.38-.146.495-.314.116-.168.158-.375.118-.575l-.292-1.443C22.26.407 20.18 0 18 0c-2.425 0-4.734.486-6.845 1.356l-.521.95c-.117.213-.123.47-.017.689zm20.517 2.724l-1.504-.095c-.228-.013-.455.076-.609.249-.152.173-.218.402-.175.63l1.167 6.198c.017.086.048.148.093.224 1.492 2.504 3.152 5.301 3.381 5.782.024.084.062.079.114.151.14.195.372.142.612.142h.007c.198 0 .323.094 1.768-.753.001-.083.012-.164.012-.247 0-4.753-1.856-9.064-4.866-12.281zM14.541 33.376c.011-.199-.058-.395-.191-.544l-4.5-5c-.06-.066-.131-.122-.211-.163-5.885-3.069-5.994-3.105-6.066-3.13-.078-.025-.161-.039-.242-.039-.537 0-.695.065-1.185 2.024 2.236 4.149 6.053 7.316 10.644 8.703l1.5-1.333c.149-.132.239-.319.251-.518zm17.833-8.567c-.189-.08-.405-.078-.592.005l-6.083 2.667c-.106.046-.2.116-.274.205l-4.25 5.083c-.129.154-.19.352-.172.552.02.2.117.384.272.51.683.559 1.261 1.03 1.767 1.44 4.437-1.294 8.154-4.248 10.454-8.146l-.712-1.889c-.072-.193-.221-.347-.41-.427z" fill="#31373D"/>
</svg>
