<svg xmlns="http://www.w3.org/2000/svg" viewBox="0 0 36 36">
  <path fill="#55ACEE" d="M31.5 33h-20c-.825 0-1.5-.675-1.5-1.5s.675-1.5 1.5-1.5h20c.825 0 1.5.675 1.5 1.5s-.675 1.5-1.5 1.5z"/>
  <path fill="#55ACEE" d="M26.012 31.746c-.003-.082-.012-.163-.012-.246 0-3.038 2.462-5.5 5.5-5.5 1.21 0 2.326.396 3.234 1.058l.89-1.205c-1.158-.847-2.58-1.353-4.125-1.353-3.866 0-7 3.134-7 7 0 .102.011.201.015.302l1.498-.056zM5.629 26.117c2.495.52 4.369 2.73 4.371 5.378l3.5.003c-.001-4.34-3.074-7.962-7.163-8.81-.232 1.13-.476 2.31-.708 3.429z"/>
</svg>
