<svg xmlns="http://www.w3.org/2000/svg" viewBox="0 0 36 36">
  <path fill="#FFE8B6" d="M18 8.385c8.691 0 15 4.076 15 9.692 0 4.144-2.06 5.538-3 5.538-1.834 0-2.585-.559-3.723-1.407-1.133-.844-2.543-1.895-5.104-2.049-.146-.009-.295-.014-.446-.014-1.648 0-3.289.514-5.025 1.057-1.616.506-3.286 1.028-4.702 1.028-3.976 0-8-2.141-8-6.23 0-4.946 7.729-7.615 15-7.615M18 7C9 7 1 10.461 1 16c0 4.154 4 7.615 10 7.615 3.454 0 7.111-2.085 9.727-2.085.093 0 .184.003.273.008 3.909.235 4 3.462 9 3.462 2.341 0 5-2.077 5-6.923C35 11.846 28 7 18 7z"/>
  <path fill="#FFE8B6" d="M16.161 8.443S19 8.385 21 9.769c1 .692.335 2.25.335 2.25l1.665.52s-.062-.835 3-1.385c2.251-.404 4.542 1.385 4.542 1.385S28 9.077 23 8.385c-5-.693-6.839.058-6.839.058z"/>
</svg>
