<svg xmlns="http://www.w3.org/2000/svg" viewBox="0 0 36 36">
  <path fill="#60352A" d="M18 3.48c5.648 0 9.178 4.168 9.178 7.641s-.705 4.863-1.412 3.473l-1.412-2.778s-4.234 0-5.646-1.39c0 0 2.117 4.168-2.119 0 0 0 .707 2.779-3.53-.694 0 0-2.118 1.389-2.824 4.862-.196.964-1.412 0-1.412-3.473C8.822 7.648 11.646 3.48 18 3.48"/>
  <path fill="#60352A" d="M14 17c-.55 0-1-.45-1-1v-1c0-.55.45-1 1-1 .551 0 1 .45 1 1v1c0 .55-.449 1-1 1m8 0c-.549 0-1-.45-1-1v-1c0-.55.451-1 1-1 .551 0 1 .45 1 1v1c0 .55-.449 1-1 1"/>
</svg>
