<svg xmlns="http://www.w3.org/2000/svg" viewBox="0 0 36 36">
  <path fill="#55ACEE" d="M2.295 34.394c-.341 0-.686-.105-.98-.325-.729-.542-.881-1.573-.338-2.302.812-1.093 2.049-2.665 3.583-4.327-.804-1.915-.982-4.193-.096-6.534 1.935-5.107 7.096-5.788 10.865-6.284l.669-.089c-.229-2.619-.111-5.109 1.224-7 3.262-4.62 7.495-4.763 10.37-3.355.773.379 1.47.868 2.077 1.442.993-1.142 1.909-2.286 2.726-3.361.549-.724 1.582-.864 2.306-.316.724.549.865 1.582.315 2.305-.997 1.313-2.138 2.724-3.39 4.121.886 1.941 1.09 4.211.431 6.376-1.811 5.944-8.045 7.213-11.887 7.624.071 2.535-.296 4.992-1.802 6.956-2.617 3.41-6.542 4.37-10.006 2.441-.688-.384-1.341-.888-1.926-1.488-1.018 1.138-1.969 2.311-2.818 3.453-.324.433-.82.663-1.323.663zm6.418-6.485c.376.398.801.73 1.249.98.968.537 3.467 1.462 5.794-1.569.896-1.169 1.16-2.789 1.133-4.6-2.627.59-5.522 2.641-8.176 5.189zm7.684-10.11l-.639.084c-4.216.556-7.066 1.147-8.218 4.188-.355.938-.44 1.86-.326 2.717 2.757-2.514 6.043-4.763 9.402-5.369-.068-.539-.144-1.08-.219-1.618v-.002zm3.236-.623l.023.17c.08.572.161 1.155.235 1.743 3.28-.347 7.791-1.282 9.016-5.304.295-.967.322-1.9.155-2.753-2.808 2.703-5.987 5.047-9.264 6.093l-.165.051zM24.274 6.68c-1.563 0-3.089.943-4.365 2.75-.7.992-.797 2.596-.667 4.408 2.846-1.035 5.672-3.268 8.184-5.799-.393-.376-.828-.684-1.282-.906-.621-.304-1.248-.453-1.87-.453z"/>
</svg>
