<svg xmlns="http://www.w3.org/2000/svg" viewBox="0 0 36 36">
  <path fill="#269" d="M8.462 30.276c.507-.648 1.104-1.07 1.538-1.367l-.038-.02c-.448-.25-.872-.582-1.249-.98 0 0-1.583 1.515-2.278 2.367.398.409.835.753 1.286 1.065.217-.348.465-.712.741-1.065zm7.556-7.304c.293-.098.584-.187.871-.251 0 0-.071-1.499-.273-3.302-.345.062-.689.153-1.032.248.078.494.196 1.189.38 2.167.078.415.079.787.054 1.138zm9.878-13.477c.719.403 1.64 1.116 2.219 2.418.32-.289.637-.582.948-.881 0 0-.299-1.644-1.637-2.993-.498.501-1.01.985-1.53 1.456zm-6.24 7.851l-.023-.17c-1.824.468-3.236.624-3.236.624v.001l.135.996c1.053-.201 2.275-.381 3.254-.492-.044-.32-.086-.644-.13-.959zm.918 1.663c-.232.03-.46.057-.682.08.174 1.555.277 3.278.277 3.278.263-.028.538-.061.821-.099-.066-1.056-.282-2.484-.416-3.259z"/>
</svg>
