<svg xmlns="http://www.w3.org/2000/svg" viewBox="0 0 36 36">
  <path fill="#FFF" d="M23 6h-3V4c0-.552-.447-1-1-1h-2c-.552 0-1 .448-1 1v2h-3c-.552 0-1 .448-1 1v2c0 .552.448 1 1 1h3v22c0 .553.448 1 1 1h2c.553 0 1-.447 1-1V10h3c.553 0 1-.448 1-1V7c0-.552-.447-1-1-1z"/>
  <path fill="#FFF" d="M29 13H7c-.552 0-1 .448-1 1v2c0 .553.448 1 1 1h22c.553 0 1-.447 1-1v-2c0-.552-.447-1-1-1zm-4.676 11.924l-11.429-3.657c-.526-.168-1.089.122-1.257.648l-.61 1.905c-.168.526.122 1.089.648 1.257l11.429 3.657c.526.168 1.089-.121 1.257-.648l.61-1.905c.168-.526-.121-1.089-.648-1.257z"/>
</svg>
