<svg xmlns="http://www.w3.org/2000/svg" viewBox="0 0 36 36">
  <path d="M16.867 15.734c.625.626 1.64.626 2.266 0l6.232-6.231c.625-.626.625-1.64 0-2.266l-6.232-6.231c-.625-.626-1.64-.626-2.266 0l-6.232 6.231c-.626.626-.626 1.64 0 2.266l6.232 6.231zm9.631 9.63c.625.626 1.64.626 2.266 0l6.232-6.231c.625-.626.625-1.64 0-2.266l-6.232-6.231c-.625-.626-1.64-.626-2.266 0l-6.232 6.231c-.626.626-.626 1.64 0 2.266l6.232 6.231zm-1.134 1.134l-6.231-6.232c-.626-.626-1.64-.626-2.266 0l-6.231 6.232c-.626.626-.626 1.639 0 2.265l6.231 6.232c.626.625 1.64.625 2.266 0l6.231-6.232c.626-.626.626-1.639 0-2.265zm-9.63-9.63l-6.231-6.232c-.626-.626-1.64-.626-2.266 0l-6.231 6.232c-.626.626-.626 1.639 0 2.265l6.231 6.232c.626.625 1.64.625 2.266 0l6.231-6.232c.626-.626.626-1.639 0-2.265z" fill="#55ACEE"/>
</svg>
