<svg xmlns="http://www.w3.org/2000/svg" viewBox="0 0 36 36">
  <path d="M15.734 16.868l-3.214-3.215C11.571 14.848 11 16.356 11 18c0 1.644.571 3.153 1.52 4.347l3.214-3.214c.626-.626.626-1.639 0-2.265zm6.614 6.612l-3.215-3.215c-.625-.624-1.64-.624-2.266 0l-3.215 3.215C14.847 24.429 16.356 25 18 25c1.644 0 3.153-.571 4.348-1.52zm-2.082-4.347l3.215 3.215C24.429 21.153 25 19.644 25 18c0-1.644-.571-3.153-1.52-4.347l-3.215 3.215c-.624.626-.624 1.639.001 2.265zm-1.133-3.399l3.215-3.214C21.153 11.571 19.644 11 18 11c-1.644 0-3.153.571-4.347 1.52l3.215 3.214c.625.626 1.639.626 2.265 0z" fill="#3B88C3"/>
</svg>
