<svg xmlns="http://www.w3.org/2000/svg" viewBox="0 0 36 36">
  <path fill="#662113" d="M24.163 4.724c-.799.46-3.698 1.008-7.163 1.008s-6.365-.548-7.163-1.008c-.142.082-.226.167-.226.255 0 .583 3.308 1.262 7.389 1.262 4.08 0 7.389-.679 7.389-1.262 0-.088-.083-.173-.226-.255z"/>
  <path fill="#662113" d="M10.387 6.467c2.594.71 5.403.814 6.613.814 1.215 0 4.037-.097 6.639-.815-.137-.388-.155-.912.361-1.427l.008-.01-.117.034c-2.479.682-7.009.969-7.009.969s-4.353-.287-6.832-.969h-.001c.497.513.476 1.025.338 1.404z"/>
</svg>
