<svg xmlns="http://www.w3.org/2000/svg" viewBox="0 0 36 36">
  <path fill="#5C913B" d="M31 27s-1.229-.565-3.272-1.176c-.645 1.426-1.299 2.785-1.561 3.426-.52 1.27-1.125.875-.925-.169.102-.532.461-2.616.736-3.729-1.986-.486-4.449-.908-7.162-.995-.15 1.727-.402 3.219-.483 4.144-.125 1.417-1.5 1.333-1.625.042-.068-.702-.164-2.683-.26-4.171-2.026.092-4.149.398-6.292 1.016.091 1.014.304 2.885.386 3.53.186 1.469-.553 1.086-.833.291-.178-.507-.82-2.217-1.267-3.259-.816.3-1.631.645-2.442 1.05-2 1-4 3-4 4v1h33v-1c0-1-2-3-4-4z"/>
</svg>
