<svg xmlns="http://www.w3.org/2000/svg" viewBox="0 0 36 36">
  <path fill="#F7DECE" d="M24.879.905c-1.341-.8-3.695-.439-4.23 1.193-.531 1.621-.487 4.307 1 4.389 1.559.086 3.185.011 4.064-1.464.88-1.474.507-3.318-.834-4.118z"/>
  <path fill="#F7DECE" d="M25.24 5.363c2.488-2.108-2.576-2.694-2.576-2.694-.957-.122-.563 1.57-1.152 2.362-.405.548.834 1.078.834 1.078s.594.089.508.813l-.001.007c-.023.184-.078.399-.211.676-.662 1.37 1.127 2.571 1.789 1.198.262-.544.279-1.056.27-1.534l-.001-.042c-.015-.712-.076-1.343.54-1.864z"/>
</svg>
