<svg xmlns="http://www.w3.org/2000/svg" viewBox="0 0 36 36">
  <path fill="#A0041E" d="M6.96 20.637c.068.639-.543 1.228-1.368 1.315-.824.089-1.547-.357-1.615-.995-.068-.639.544-1.227 1.368-1.314.824-.089 1.547.356 1.615.994zm2.087 2.717c.125.818-1.756 2.544-2.576 2.669-.819.125-1.584-.438-1.708-1.257-.125-.818.58-1.14 1.398-1.265.819-.124 2.761-.965 2.886-.147zm1.783 2.104c.173.81-1.628 3.927-2.438 4.1-.811.173-1.645.146-1.817-.665-.173-.81.306-1.688 1.116-1.861.81-.174 2.966-2.384 3.139-1.574zm3.853.858c.165.811-1.338 4.354-2.15 4.519-.812.165-1.439.451-1.604-.36-.165-.812.261-1.975 1.006-2.58.644-.523 2.584-2.39 2.748-1.579z"/>
  <path fill="#A0041E" d="M3.925 18.869c.607.715 1.18 1.23.464 1.835-.716.606-1.747.162-2.354-.554-.605-.715-2.239-3.42-1.524-4.025.717-.606 2.809 2.029 3.414 2.744zm.33 4.88c.892.295 1.857.801 1.563 1.691-.294.891-1.328.991-2.219.698-.889-.295-3.772-1.691-3.478-2.581.295-.89 3.244-.102 4.134.192zm1.214 4.532c.905-.253 1.907-.283 2.159.619.252.903-.282 1.535-1.186 1.787-.902.251-4.342.727-4.594-.176-.251-.905 2.718-1.98 3.621-2.23zm4.348 3.188c.084-.937.644-1.669 1.577-1.585.934.085 1.258 1.025 1.173 1.96-.085.934.147 3.562-1.715 4.016-.912.221-1.121-3.46-1.035-4.391zM29.04 20.637c-.068.639.543 1.228 1.367 1.315.824.089 1.547-.357 1.615-.995.068-.639-.544-1.227-1.367-1.314-.824-.089-1.547.356-1.615.994zm-2.087 2.717c-.125.818 1.757 2.544 2.575 2.669.819.125 1.584-.438 1.709-1.257s-.58-1.14-1.398-1.265c-.819-.124-2.761-.965-2.886-.147zm-1.783 2.104c-.173.81 1.628 3.927 2.438 4.1.81.173 1.644.146 1.816-.665.174-.81-.305-1.688-1.115-1.861-.81-.174-2.966-2.384-3.139-1.574zm-3.853.858c-.166.811 1.338 4.354 2.149 4.519.812.165 1.438.451 1.604-.36.164-.812-.262-1.975-1.007-2.58-.642-.523-2.582-2.39-2.746-1.579z"/>
  <path fill="#A0041E" d="M32.075 18.869c-.607.715-1.18 1.23-.465 1.835.716.606 1.747.162 2.354-.554.605-.715 2.239-3.42 1.523-4.025-.715-.606-2.807 2.029-3.412 2.744zm-.33 4.88c-.892.295-1.857.801-1.562 1.691.293.891 1.328.991 2.219.698.889-.295 3.771-1.691 3.477-2.581-.294-.89-3.244-.102-4.134.192zm-1.215 4.532c-.904-.253-1.906-.283-2.158.619-.252.903.282 1.535 1.185 1.787.902.251 4.343.727 4.594-.177.252-.904-2.717-1.979-3.621-2.229zm-4.347 3.188c-.084-.937-.645-1.669-1.577-1.585-.935.085-1.258 1.025-1.173 1.96.084.934-.147 3.562 1.715 4.016.912.221 1.121-3.46 1.035-4.391zM3.148 13.878c-.383-.856.001-1.86.857-2.242.856-.383 1.86.002 2.243.858.381.855 2.651 5.612 1.795 5.994-.855.382-4.513-3.755-4.895-4.61z"/>
  <path fill="#A0041E" d="M3.994 12.034c1.221 2.956 8.341-3.341 8.803-6.281.462-2.939-.308-4.201-.694-4.5-.386-.299.144 1.435-1.187 3.306-1.053 1.482-7.766 5.434-6.922 7.475zm28.858 1.844c.384-.856-.001-1.86-.857-2.242-.857-.383-1.861.002-2.244.858-.381.855-2.65 5.612-1.794 5.994.855.382 4.513-3.755 4.895-4.61z"/>
  <path fill="#A0041E" d="M32.007 12.034c-1.222 2.956-8.341-3.341-8.804-6.281-.461-2.939.309-4.201.694-4.5.386-.299-.144 1.435 1.187 3.306 1.054 1.482 7.766 5.434 6.923 7.475z"/>
</svg>
