<svg xmlns="http://www.w3.org/2000/svg" viewBox="0 0 36 36">
  <path fill="#DD2E44" d="M9.053 21.529c-.14.236-3.053.732-2.303-.731s2.443.497 2.303.731z"/>
  <path fill="#DD2E44" d="M9.891 20.124c-.218.225-3.188.391-1.922-1.404 1.265-1.793 2.234 1.082 1.922 1.404z"/>
  <path fill="#DD2E44" d="M11.657 18.66c-.378.231-3.471-.501-1.407-1.932 1.872-1.296 1.906 1.626 1.407 1.932z"/>
  <path fill="#DD2E44" d="M14.102 17.427c-1.008.299-3.378-1.302-.881-2.141 2.498-.839 1.889 1.842.881 2.141zm12.754 4.102c.141.235 3.053.731 2.303-.731-.75-1.463-2.443.497-2.303.731z"/>
  <path fill="#DD2E44" d="M26.019 20.124c.218.225 3.188.391 1.922-1.404-1.266-1.793-2.235 1.082-1.922 1.404z"/>
  <path fill="#DD2E44" d="M24.253 18.66c.378.231 3.471-.501 1.406-1.932-1.872-1.296-1.906 1.626-1.406 1.932z"/>
  <path fill="#DD2E44" d="M21.808 17.427c1.008.299 3.378-1.302.881-2.141-2.499-.839-1.89 1.842-.881 2.141z"/>
</svg>
