<svg xmlns="http://www.w3.org/2000/svg" viewBox="0 0 36 36">
  <path fill="#FFCC4D" d="M17.799 19c-.336 0-.64-.195-.836-.536l-3.878-6.768c-.2-.348-.219-.714-.052-1 .157-.271.453-.427.811-.427h8.242c.363 0 .658.157.811.431.161.288.133.651-.079.996l-4.196 6.799c-.199.32-.499.505-.823.505zm-3.812-7.735l3.814 6.658 4.108-6.656-7.922-.002z"/>
  <path fill="#FFCC4D" d="M22.086 16.789h-8.242c-.358 0-.653-.155-.811-.427-.167-.288-.148-.652.052-1l3.878-6.769c.196-.34.5-.536.836-.536.323 0 .624.185.822.507l4.196 6.798c.212.344.24.706.079.995-.152.275-.447.432-.81.432zm-8.098-.998l7.922.002-4.108-6.658-3.814 6.656z"/>
</svg>
