<svg xmlns="http://www.w3.org/2000/svg" viewBox="0 0 36 36">
  <path fill="#67757F" d="M17.799 20c-.693 0-1.33-.388-1.703-1.038l-.672-1.173h-1.581c-.714 0-1.34-.346-1.676-.926-.345-.597-.326-1.344.05-1.999l.765-1.335-.766-1.336c-.377-.657-.395-1.404-.049-2 .336-.579.962-.924 1.675-.924h1.581l.671-1.172c.375-.651 1.011-1.039 1.704-1.039.67 0 1.295.368 1.674.984l.757 1.227h1.855c.726 0 1.356.353 1.685.945.337.603.3 1.354-.102 2.006l-.809 1.31.808 1.309c.401.651.439 1.401.102 2.007-.329.591-.958.944-1.684.944H20.23l-.76 1.23c-.375.613-1.001.98-1.671.98z"/>
</svg>
