<svg xmlns="http://www.w3.org/2000/svg" viewBox="0 0 36 36">
  <path fill="#C1694F" d="M33.912 14.37C33.883 13.35 32.276 12.308 30 11S17.039 5.534 10.763 7.791C8.701 8.533 9.129 11 8.565 11c-1 0-2.732-.344-4.958-.127C1.351 11.094.691 12.561.691 15s.558 7.98 1.87 9.525c1.653 1.947 5.849 1.954 6.752-.673.686.122 1.12.178 1.815 1.067C13.248 29.325 14.048 36 15 36c.964 0 2.529-4.409 2.913-7l9.124-1.448C27.184 30.032 27.808 36 29 36c1.016 0 3.24-4.883 4.347-12.238.315-1.625.532-3.697.615-6.319.023.17.038.352.038.557v8c0 .553.447 1 1 1s1-.447 1-1v-8c0-1.807-.749-3.053-2.088-3.63z"/>
</svg>
