<svg xmlns="http://www.w3.org/2000/svg" viewBox="0 0 36 36">
  <path fill="#D5AB88" d="M32.932 7.593l-.245 2.329-2.675-.429.01-2.022z"/>
  <path fill="#D5AB88" d="M33.434 7.67c-.953 1.243-2.434 1.138-3.838.894-1.338-.233-1.093-2.671-.44-4.083.658-1.422 2.829-1.498 3.959-.631 1.131.867 1.273 2.577.319 3.82z"/>
  <path fill="#D5AB88" d="M25.146 7.833c-.942-1.226-2.325-2.46-2.501-3.247-.214-.957-.164-1.954-1.499-2.752-.842-.503-.278.882-.154 2.717.071 1.055 1.664 4.103 2.633 5.094.623.637 3.588 1.518 4.57 3.638.166.358.605 1.03 1.117 1.841.85 1.343 1.341 2.469.658 4.033 2.984.155 5.318-1.113 5.318-1.113-.883-2.313-.212-4.329-.94-6.15-1.15-2.879-2.429-2.989-4.35-2.598 0 0-.402-.733-2.142-.546-.839-.331-1.635-.614-2.71-.917z"/>
</svg>
