<svg xmlns="http://www.w3.org/2000/svg" viewBox="0 0 36 36">
  <path fill="#99AAB5" d="M12.409 4.49s3.633-1.021 4.574-1.021c.941 0 4.99 1.149 4.99 1.149s3.574 4.022 4.515 4.022c0 0 2.038-.045 3.921 1.979s1.708 5.617 1.708 5.617S34 20.282 34 22.305s-.941 4.047-1.882 5.059c-.941 1.012-4.706 2.023-4.706 2.023s-.941 2.023-2.824 3.035c-5.647 1.012-9.412 0-9.412 0l-1.882-2.023s-6.588-1.012-7.529-1.012S2 25.34 2 24.328c0-1.012 0-4.047.941-7.082C4.824 14.211 5.765 13.2 5.765 13.2s-1.188-1.643-.247-3.667C7.4 7.51 11.399 6.469 11.399 6.469l1.01-1.979z"/>
</svg>
