<svg xmlns="http://www.w3.org/2000/svg" viewBox="0 0 36 36">
  <path fill="#CCD6DD" d="M12.771 5.312s3.398-.892 4.278-.892c.88 0 4.667 1.003 4.667 1.003s3.342 3.511 4.222 3.511c0 0 1.906-.039 3.667 1.727 1.76 1.766 1.598 4.903 1.598 4.903s.275 4.245.988 4.373c1.81.324.167 3.713-.713 4.596s-7.01 1.277-7.01 1.277.216 2.755-1.545 3.639c-5.281.883-7.565.246-7.565.246l-1.76-1.766s-4.29-4.097-5.17-4.097-5.393-.319-5.393-1.202 0-3.533.88-6.182c1.76-2.649 2.641-3.533 2.641-3.533s-1.111-1.435-.231-3.201c1.76-1.766 5.5-2.675 5.5-2.675l.946-1.727z"/>
</svg>
