<svg xmlns="http://www.w3.org/2000/svg" viewBox="0 0 36 36">
  <path fill="#E1E8ED" d="M7.3 9.597c.49-.155 3.861-1.596 4.574-1.532.713.064 3.743 1.787 3.03 2.362s-4.634.128-5.762.128S6.29 9.916 7.3 9.597zm-2.376 7.724c.303-.571 4.337-.766 4.337-.766s5.228 2.107 5.228 2.426-4.752 2.49-5.228 2.553-4.575-3.766-4.337-4.213zm11.703 3.894c-.094-.505 2.02-3.575 2.436-3.83.416-.255 6-1.724 6.95-1.724s3.98 2.234 4.04 2.681c.059.447-2.673 3.511-3.386 3.766-.713.256-9.862.064-10.04-.893zm5.347-8.427c-.225.537 5.347 1.277 5.941 1.021.594-.255 1.663-1.979 1.485-2.426-.178-.447-1.901-1.724-2.792-1.596-.892.129-4.1 1.725-4.634 3.001zm-4.396-7.851c.498.107 3.802.894 4.218 1.532s-1.96 2.617-2.614 2.681c-.653.064-5.109-2.681-5.584-3s3.088-1.405 3.98-1.213z"/>
</svg>
