<svg xmlns="http://www.w3.org/2000/svg" viewBox="0 0 36 36">
  <path fill="#99AAB5" d="M20.2 26.754c-.501-.269-.688-2.495-.43-2.68s2.666.185 3.225.277c.559.092 3.956-.185 4.3.185s1.173 1.726 1.462 2.541c.289.816-1.591.693-2.322.508s-5.547-.461-6.235-.831zm-7.613-14.732c.653 0 3.386-.064 3.98 0 .594.064 2.495 1.851 1.604 2.043-.891.192-3.267.83-3.624.894s-1.663-1.149-2.079-1.468c-.415-.32-.593-1.469.119-1.469zm7.486-1.787c.33-.531 1.604-.702 1.663-.128.059.575-.297 1.851-1.01 1.787-.713-.063-1.129-.893-.653-1.659zm-3.446 13.469c.593-.071 1.723-.192 1.723.319s-.713.702-1.545.638c-.831-.063-.713-.893-.178-.957z"/>
</svg>
