<svg xmlns="http://www.w3.org/2000/svg" viewBox="0 0 36 36">
  <path d="M13.598 27.772l-.487-1.499-.487 1.499h-1.577l1.276.927-.487 1.5 1.275-.927 1.276.927-.487-1.5 1.275-.927zm6.485-1.166l.487-1.499-1.276.926-1.275-.926.487 1.499-1.276.927h1.577l.487 1.5.487-1.5h1.577zm.487-6.785l-1.276.926-1.275-.926.487 1.499-1.276.927h1.577l.487 1.5.487-1.5h1.577l-1.275-.927zm4.473 5.449l.487-1.499-1.276.926-1.275-.926.487 1.499-1.276.927h1.577l.487 1.499.488-1.499h1.576zm-1.276-10.574l.487 1.499.488-1.499h1.576l-1.275-.927.487-1.5-1.276.927-1.275-.927.487 1.5-1.276.927zm4.546 6.535l-.487-1.499-.488 1.499h-1.576l1.275.927-.487 1.5 1.276-.927 1.275.927-.487-1.5 1.276-.927zm.043-8.104l.487 1.5.488-1.5h1.576l-1.275-.926.487-1.5-1.276.927-1.275-.927.487 1.5-1.276.926zm4.567 5.136l-.487-1.499-.487 1.499h-1.577l1.276.927-.488 1.5 1.276-.927 1.276.927-.488-1.5 1.276-.927zm-1.275-9.216l-.488 1.5 1.276-.927 1.276.927-.488-1.5L34.5 8.12h-1.577l-.487-1.499-.487 1.499h-1.577z" fill="#FFCE00"/>
</svg>
