<svg xmlns="http://www.w3.org/2000/svg" viewBox="0 0 36 36">
  <path fill="#60352A" d="M24.54 2.488c-1.311-.014-2.496-1.36-3.845-.501-.264.168-.456.337-.604.503-.234-.711-.636-1.367-1.299-1.799-.648-.422-1.443-.737-2.194-.652-4.578.516-4.329 3.827-3.981 4.137.348.31 1.299-.572 2.002-.669.328-.046 1.041-.053 1.419.49.306.44.411 1.33.411 1.33s.012-1.012.041-1.368c.027-.332.356-.714.801-.221.387.428.19 1.268-.079 1.356-.207.068.129.575.648.961.946.704 1.681.428 1.786.389.106-.039.465-.118.648-1.333.026-.169.044-.35.055-.537.374.324.987.709 1.827.715.929.007 2.619-.466 3.586-1.621.744-.889 1.05-2.355 1.05-2.355-.395.736-1.283 1.186-2.272 1.175z"/>
</svg>
