<svg xmlns="http://www.w3.org/2000/svg" viewBox="0 0 36 36">
  <path fill="#9FC2FF" d="M29.359 16.234c-.138.305-.141.969.547 1.219.125-.5.032-.797-.547-1.219zm1.485.328c.156-.156.047-.766-.422-.531-.469.234-.68.172-.801.094.082-.141.41-.25.41-.25s-.6.047-.745-.453c.354.094.526 0 .526 0s-.195-.141-.191-.25c.27-.094.645.203.645.203s-.133-.219-.16-.734c-.027-.516.395-.695.707-.449-.297.356.047 1.043.188 1.637.578-.422 1.281-.328 1.312.328.031.656-.172.5-.172.5s.25-.625-.656-.531c.391.188.203.362.203.362s-.422-.113-.844.074z"/>
</svg>
