<svg xmlns="http://www.w3.org/2000/svg" viewBox="0 0 36 36">
  <path fill="#00A3D6" d="M28.799 14.875c-.408-.046-.252.455-.846.657.141.062.423 0 .423 0s-.28.515 0 1.046c.249-.203.327-.547.327-.547s0 .599.312.885c.274-.353.141-.792.141-.792s.191.536.799.792c.607.255 1.014-.307 1.061-.604.047-.297-.094-.386-.094-.386s-.512.48-.967.199c.201-.188.115-.291-.334-.325s-.559-.659-.605-.737c-.047-.079-.217-.188-.217-.188zm1.355-.54c.174-.46.768-.535.986-.396.406-.22.834.217 1.175.077-.143.328-.565.489-.784.385.266.38.972.635 1.234.405.263-.229.084.297-.45.472s-.909-.472-.909-.472.109.402 0 .571c-.406-.143-.617-.568-.605-.877s-.242-.534-.647-.165z"/>
</svg>
