<svg xmlns="http://www.w3.org/2000/svg" viewBox="0 0 36 36">
  <path fill="#D9A323" d="M27.428 14.922c-.714 0-1.786.356-1.786.356s-.037-.424-.267-.778-.333-.854-.333-.854.583.104.646.458-.021.667-.021.667l.708-.188s-.188-.305-.354-.083-.354-.604-.104-.729.909-.271.909-.271.05.604.091.75-.334.151-.334.151l.062.099h.625s-.208-.234-.208-.604c0-.405.438-.792.438-.792s.391.523.391.833-.233.563-.233.563l.55.104s.208-.417 0-.312-.209-.125-.125-.396.021-.521.021-.521l.854.396s.062.091 0 .42c-.062.33-.438.299-.438.299v.197l.562.146s-.167-.388 0-.642.729-.42.729-.42-.459.827-.729 1.507c-.345-.164-.94-.356-1.654-.356z"/>
</svg>
