<svg xmlns="http://www.w3.org/2000/svg" viewBox="0 0 36 36">
  <path fill="#FFF" d="M27.428 19.297s-.193.984-1.053 1.844h2s-.77-.782-.947-1.844zm-.24 0c-.059.173-.406.5-.656.578s-.637.375-.686.516c-.049-.157.123-.391.123-.391s-.281.031-.312.391c-.031.359-.614.375-.614.375s.114-.5.411-.797c.297-.297.48-.125.662-.234.182-.109-.068-.359.135-.641.203-.281.75-.203.938-.422.062.172-.469.484-.547.516-.078.031-.109.219-.016.203.093-.016.421-.063.562-.094zm.479 0c.059.173.406.5.656.578s.637.375.686.516c.049-.157-.123-.391-.123-.391s.281.031.312.391c.031.359.614.375.614.375s-.114-.5-.411-.797c-.297-.297-.48-.125-.662-.234-.182-.109.068-.359-.135-.641-.203-.281-.75-.203-.938-.422-.062.172.469.484.547.516.078.031.109.219.016.203-.093-.016-.421-.063-.562-.094z"/>
</svg>
