<svg xmlns="http://www.w3.org/2000/svg" viewBox="0 0 36 36">
  <path fill="#D8AB6D" d="M21.234 18.594s.078-.234.391-.406.094-.312-.109-.297c-.203.016-.359.031-.578.594-.219.562-1.047 3 .297 4.312-.391-.188-.75-.953-.75-.953s.047.516.312 1.031c-.797-1.25-.703-2.578-.578-3.578s.422-1.641.875-1.672c.375-.562 1.062-.271 1.578.177s.766.87.766.87.068-.828.456-.75c.388.078.95.359 1.028.562s-.484.047-.594-.078c-.109-.125-.322-.266-.434-.141-.112.125-.191.688-.191.688s.277-.516.443-.469.922.719.896.953-.229-.125-.433-.281c-.203-.156-.363-.438-.463-.391-.1.047-.459.875-.49.953-.031.078.084.062.237-.149.153-.211.325-.445.419-.445.094 0 .742.891.73 1.094-.012.203-.108.391-.188.438-.08.047.036-.233-.151-.562s-.359-.673-.438-.626c-.078.047-.438.609-.5.75-.062.141.406-.328.578-.25.172.078.424.967.431 1.25.007.283-.163.469-.25.547-.087.078-.054-.281 0-.453s-.071-.391-.118-.656c-.047-.266-.094-.516-.141-.438-.047.078-.766.703-.828.75-.062.047.225 0 .456-.125s.356-.109.388.125c.031.234.078.969-.281 1.172-.359.203.031-.25.078-.469.047-.219.016-.688-.078-.641-.094.047-.75.531-.953.609-.203.078-.094.609.109.906.203.297.646.594.737.328.091-.266.436-.547.631-.406.194.141.101.406.101.406s.256 0 .229.281c-.026.281-.386.562-1.261.438s-1.969-.469-1.906-2c-.328-1.344-.078-1.922-.031-2.297.047-.375.188-.927.141-.971-.047-.043-.406.067-.563.27zm12.436 0s-.078-.234-.391-.406-.094-.312.109-.297c.203.016.359.031.578.594.219.562 1.047 3-.297 4.312.391-.188.75-.953.75-.953s-.047.516-.312 1.031c.797-1.25.703-2.578.578-3.578s-.422-1.641-.875-1.672c-.375-.562-1.062-.271-1.578.177s-.766.87-.766.87-.068-.828-.456-.75c-.388.078-.95.359-1.028.562-.078.203.484.047.594-.078.109-.125.322-.266.434-.141.112.125.191.688.191.688s-.277-.516-.443-.469c-.166.047-.922.719-.895.953.026.234.229-.125.433-.281.203-.156.363-.438.463-.391.1.047.459.875.49.953.031.078-.084.062-.237-.149-.153-.211-.325-.445-.419-.445-.094 0-.742.891-.731 1.094.012.203.108.391.189.438.08.047-.036-.233.151-.562s.359-.673.438-.626c.078.047.438.609.5.75.062.141-.406-.328-.578-.25-.172.078-.424.967-.431 1.25-.007.283.163.469.25.547.087.078.054-.281 0-.453s.071-.391.118-.656c.047-.266.094-.516.141-.438.047.078.766.703.828.75.062.047-.225 0-.456-.125s-.356-.109-.388.125c-.031.234-.078.969.281 1.172.359.203-.031-.25-.078-.469-.047-.219-.016-.688.078-.641.094.047.75.531.953.609.203.078.094.609-.109.906-.203.297-.646.594-.737.328-.091-.266-.437-.547-.631-.406-.194.141-.101.406-.101.406s-.256 0-.229.281c.026.281.386.562 1.261.438.875-.125 1.969-.469 1.906-2 .328-1.344.078-1.922.031-2.297-.047-.375-.188-.927-.141-.971.046-.043.406.067.562.27z"/>
</svg>
