<svg xmlns="http://www.w3.org/2000/svg" viewBox="0 0 36 36">
  <path fill="#FBFAE7" d="M31.402 24.203s-.484-.527-.953-.209c-.469.318-1.824 1.443-3.021 1.443-1.197 0-2.553-1.125-3.021-1.443-.469-.318-.953.209-.953.209s.234.109.188.344c-.047.234 0 .641.253.725-.294-.729.731-.365 1.149.064.418.43 1.52.945 2.385.945.865 0 1.967-.516 2.385-.945.418-.43 1.443-.793 1.149-.064.253-.084.3-.49.253-.725-.048-.235.186-.344.186-.344z"/>
  <path fill="#FBFAE7" d="M25.266 23.997c.55-.116 1.266.487 1.391.628s-.062.578-.281.406c-.219-.172-.362-.205-.627-.249-.265-.044-.609-.395-.232-.532-.161.188 0 .44.25.282.249-.157.045-.428-.501-.535zm4.421 0c-.55-.116-1.266.487-1.391.628s.062.578.281.406c.219-.172.362-.205.627-.249.265-.044.609-.395.232-.532.161.188 0 .44-.25.282-.249-.157-.046-.428.501-.535z"/>
</svg>
