<svg xmlns="http://www.w3.org/2000/svg" viewBox="0 0 36 36">
  <path fill="#292F33" d="M16 32.5c-1.693 0-2.404-1.199-2.433-1.25-.138-.239-.056-.545.183-.684.24-.138.544-.056.683.184.016.026.469.75 1.567.75 1.312 0 1.487-1.389 1.502-1.547.027-.273.277-.463.544-.45.274.026.476.268.452.541-.076.85-.695 2.456-2.498 2.456z"/>
  <path fill="#292F33" d="M20 32.5c-1.803 0-2.422-1.606-2.498-2.456-.024-.274.179-.518.454-.542.281-.011.519.179.542.454.015.155.19 1.544 1.502 1.544 1.098 0 1.551-.724 1.569-.755.143-.233.448-.313.684-.173.236.14.317.44.18.678-.03.051-.741 1.25-2.433 1.25z"/>
</svg>
