<svg xmlns="http://www.w3.org/2000/svg" viewBox="0 0 36 36">
  <path fill="#EACE23" d="M18.93 22.015s-.254 0-.254.254c0 .255.254.338.254.338s-.17.253-.423.253c-.254 0-.338-.253-.338-.253s.338-.083.338-.253c0-.17-.254-.254-.254-.254s0-.423-.253-.423-.253.423-.253.423-.254.084-.254.254c0 .17.338.253.338.253s-.085.253-.338.253-.422-.253-.422-.253.253-.083.253-.338c0-.254-.253-.254-.253-.254 0-.338-.338-.17-.338-.17l.253 1.776h2.029l.253-1.776s-.338-.168-.338.17zm-1.945-2.2s-.253 0-.253.256c0 .253.253.338.253.338s-.168.253-.422.253c-.253 0-.338-.253-.338-.253s.338-.085.338-.253c0-.171-.253-.256-.253-.256s0-.421-.254-.421c-.253 0-.253.421-.253.421s-.254.085-.254.256c0 .168.338.253.338.253s-.084.253-.338.253c-.253 0-.423-.253-.423-.253s.254-.085.254-.338c0-.256-.254-.256-.254-.256 0-.336-.337-.168-.337-.168l.253 1.776h2.03l.253-1.776c-.001 0-.34-.168-.34.168zm3.889 0s-.253 0-.253.256c0 .253.253.338.253.338s-.168.253-.423.253c-.253 0-.338-.253-.338-.253s.338-.085.338-.253c0-.171-.253-.256-.253-.256s0-.421-.254-.421c-.253 0-.253.421-.253.421s-.255.085-.255.256c0 .168.339.253.339.253s-.084.253-.339.253c-.253 0-.422-.253-.422-.253s.253-.085.253-.338c0-.256-.253-.256-.253-.256 0-.336-.338-.168-.338-.168l.254 1.776h2.029l.254-1.776s-.339-.168-.339.168zM24.51 7.474l-.17.507-.337-.085.084-.507-.845-.169-.093.536-.331-.092.001-.613-.846-.084-.071.528-.605-.106v.338h-.169v-.423h-.422v.339h-.255V7.22h-.422v.338l-.338-.084v-.762l-.846-.084v.507h-.423v-.507h-.846v.507h-.423v-.507l-.843.084v.761l-.339.084V7.22h-.422v.423h-.253v-.339h-.423v.423h-.168v-.338l-.606.106-.071-.528-.847.083v.613l-.331.092-.092-.535-.846.169.084.507-.338.085-.168-.507-.845.253.423 1.099.253-.084 1.268 2.79s1.438-.422 2.79-.592c1.353-.169 2.621-.169 2.621-.169s1.268 0 2.621.169c1.352.169 2.789.592 2.789.592l1.268-2.79.254.084.422-1.099-.844-.253z"/>
</svg>
