<svg xmlns="http://www.w3.org/2000/svg" viewBox="0 0 36 36">
  <path fill="#CE1A24" d="M10.391 21.254s-.337 1.015-.253 2.029c.085 1.015 2.452.93 2.959.846.507-.085.846-.085.507.339-.337.421-.76 1.098-.676 1.859.084.759-1.015.253-1.352-.509-.338-.76-.677-.76-1.269-1.098-.592-.338-1.165-1.19-1.522-1.691-.423-.591-.677-1.014 1.606-1.775zm15.217 0s.339 1.015.254 2.029c-.083 1.015-2.452.93-2.959.846-.508-.085-.845-.085-.508.339.34.421.762 1.098.678 1.859-.085.759 1.014.253 1.352-.509.34-.76.677-.76 1.269-1.098.593-.338 1.164-1.19 1.522-1.691.422-.591.676-1.014-1.608-1.775z"/>
</svg>
