<svg xmlns="http://www.w3.org/2000/svg" viewBox="0 0 36 36">
  <path fill="#F6E4BE" d="M27.047 22.859c-.931.424-2.861.703-3.637.762-1.025.079-1.183.338-1.183.592 0 .255 1.099.423 1.69.338.592-.083 1.269.085.254.677-1.015.591-2.367 1.438-3.636 1.775-1.267.339-2.535.254-2.535.254s-1.268.085-2.537-.254c-1.268-.338-2.621-1.184-3.635-1.775-1.015-.592-.339-.76.253-.677.592.085 1.691-.083 1.691-.338 0-.254-.158-.513-1.184-.592-.774-.059-2.706-.338-3.635-.762-.392-.178-.507-.506-.507-.506s0 .17.085.676c.084.507.507.845.592 1.353.084.506.084.761.507.845.423.085 1.353.17 1.353.17s0 .759-.169 1.183c-.17.423.423 1.185 2.705 2.029 2.283.847 3.298.762 4.481.762 1.184 0 2.198.085 4.48-.762 2.284-.845 2.874-1.607 2.706-2.029-.169-.424-.169-1.183-.169-1.183s.93-.085 1.352-.17c.425-.084.425-.339.508-.845.085-.509.507-.847.592-1.353.084-.506.084-.676.084-.676s-.115.329-.506.506z"/>
</svg>
