<svg xmlns="http://www.w3.org/2000/svg" viewBox="0 0 36 36">
  <path fill="#EACE23" d="M14.788 12.969s.084-.169 0-.423c-.076-.227-.423-.423-.423-.423s-.347.196-.422.423c-.085.253 0 .423 0 .423-.423-.169-.592.254-.592.507 0 .254.339.422.339.422s0-.338.168-.338c.169 0 .169.338.169.338-.338 0 0 .254 0 .254l-.253.422.338-.085c-.084.254.254.507.254.507s.339-.253.253-.507l.339.085-.253-.422s.338-.254 0-.254c0 0 0-.338.168-.338.169 0 .169.338.169.338s.338-.168.338-.422c-.001-.253-.17-.677-.592-.507zm7.271 0s.084-.169 0-.423c-.075-.227-.423-.423-.423-.423s-.347.196-.423.423c-.085.253 0 .423 0 .423-.423-.169-.592.254-.592.507 0 .254.338.422.338.422s0-.338.169-.338.169.338.169.338c-.338 0 0 .254 0 .254l-.253.422.337-.085c-.084.254.255.507.255.507s.338-.253.253-.507l.339.085-.254-.422s.338-.254 0-.254c0 0 0-.338.169-.338s.169.338.169.338.339-.168.339-.422c-.001-.253-.171-.677-.592-.507zm-3.636 0s.084-.169 0-.423c-.076-.227-.423-.423-.423-.423s-.347.196-.423.423c-.084.253 0 .423 0 .423-.423-.169-.592.254-.592.507 0 .254.338.422.338.422s0-.338.169-.338.169.338.169.338c-.338 0 0 .254 0 .254l-.253.422.338-.085c-.084.255.254.509.254.509s.338-.253.253-.507l.338.085-.253-.422s.338-.254 0-.254c0 0 0-.338.169-.338s.169.338.169.338.338-.168.338-.422c.001-.255-.168-.679-.591-.509z"/>
</svg>
