<svg xmlns="http://www.w3.org/2000/svg" viewBox="0 0 36 36">
  <path d="M18 14.798l.719 2.213h2.326l-1.882 1.367.719 2.212L18 19.223l-1.882 1.367.719-2.212-1.882-1.367h2.326zm0-9.616l.386 1.188h1.249l-1.01.734.386 1.188L18 7.558l-1.011.734.386-1.188-1.01-.734h1.249zm8.02 0l.386 1.188h1.249l-1.01.734.386 1.188-1.011-.734-1.01.734.386-1.188-1.011-.734h1.249zm-16.04 0l.386 1.188h1.249l-1.011.734.386 1.188-1.01-.734-1.011.734.386-1.188-1.01-.734h1.249zm8.02 22.5l.386 1.188h1.249l-1.01.734.386 1.188L18 30.058l-1.011.734.386-1.188-1.01-.734h1.249zm8.02 0l.386 1.188h1.249l-1.01.734.386 1.188-1.011-.734-1.01.734.386-1.188-1.011-.734h1.249zm-16.04 0l.386 1.188h1.249l-1.011.734.386 1.188-1.01-.734-1.011.734.386-1.188-1.01-.734h1.249z" fill="#FCD116"/>
</svg>
