<svg xmlns="http://www.w3.org/2000/svg" viewBox="0 0 36 36">
  <path fill="#F7DECE" d="M15.087 24.856l-1.728-3.593c-.428.233-2.257 1.253-3.35 2.237-.635.572-.549 1.002-.36 1.944l.017.085c.189.952 2.205 7.351 2.47 8.187l1.345-.334c.011-.446.057-2.767-.176-4.233-.073-.463-.147-1.025-.214-1.522-.071-.543-.134-1.012-.18-1.248-.064-.334.033-.53.337-.677.862-.416 1.586-.735 1.839-.846zm8.721 1.817c-.546-.067-1.019-.126-1.258-.141-.339-.021-.504-.165-.57-.496-.188-.939-.313-1.721-.356-1.993l-3.912.767c.118.473.644 2.5 1.322 3.806.393.757.831.782 1.79.838l.087.005c.975.057 7.669-.284 8.545-.329l.015-1.385c-.43-.124-2.663-.752-4.142-.896-.465-.045-1.026-.115-1.521-.176z"/>
</svg>
