<svg xmlns="http://www.w3.org/2000/svg" viewBox="0 0 36 36">
  <path fill="#1C6399" d="M30.398 27.138c-.139-.111-.457-.166-.657-.185-.138-.013-.498-.024-.799-.008-.136.008-.291.024-.355.043-.198.057-.285.141-.332.198-.057.069-.062.144-.049.181.052.153.304.418.414.67.037.084.058.166.05.243-.027.276-.379.678-.643.976-.158.179-.285.32-.29.375-.006.059.011.109.037.158v.002c.072.132.229.269.337.629.069.232.395 1.291.395 1.291.078.27.182.336.226.481.091.297.251 1.094.331 1.346.08.252.271.36.418.381s.232-.014.232-.014.345-.155.574-1.449c.165-.935.019-1.079-.105-2.483s.216-2.835.216-2.835z"/>
</svg>
