<svg xmlns="http://www.w3.org/2000/svg" viewBox="0 0 36 36" xml:space="preserve">
  <path fill="#ADE3FF" d="M22.981 18.944c-.053 2.052-.272 4.003-.628 5.752a39.945 39.945 0 0 1-4.353.295v-5.992c1.888-.003 3.539-.022 4.981-.055zM21.294 5.353c.907.161 1.781.371 2.611.611a10.44 10.44 0 0 0-3.637-2.022c.362.398.705.868 1.026 1.411zm-8.625 5.834A69.042 69.042 0 0 1 17 11.006V6.015c-.92.024-1.814.107-2.671.24-.682 1.297-1.255 2.982-1.66 4.932zm-9.027 2.549a14.443 14.443 0 0 0-.604 3.518c.329.096 1.004.198 1.981.295a18.8 18.8 0 0 1 .62-4.409c-1.071.235-1.763.452-1.997.596zM17 17.998v-5.993c-1.602.012-3.12.082-4.518.189a34.576 34.576 0 0 0-.48 5.735c1.506.041 3.177.065 4.998.069zM13.706 5.353a8.52 8.52 0 0 1 1.027-1.411 10.44 10.44 0 0 0-3.637 2.022c.829-.24 1.703-.45 2.61-.611z"/>
</svg>
