<svg xmlns="http://www.w3.org/2000/svg" viewBox="0 0 36 36" xml:space="preserve">
  <path fill="#F0FFFF" d="M22.331 11.187A69.042 69.042 0 0 0 18 11.006V6.015c.92.024 1.814.107 2.671.24.682 1.297 1.255 2.982 1.66 4.932zM5.738 23.198a18.727 18.727 0 0 1-.716-4.645c-.922-.107-1.567-.225-2.011-.343.02 1.42.237 2.794.64 4.088.209.18.943.519 2.087.9zm5.893-11.927c.363-1.836.871-3.46 1.492-4.798A23.65 23.65 0 0 0 9.576 7.52c-1.02 1.226-1.857 2.685-2.466 4.309 1.36-.23 2.917-.419 4.521-.558zm-3.92 16.34c-.999-.493-1.695-.945-2.016-1.222a14.415 14.415 0 0 1-1.546-2.735c.536.242 1.2.485 1.97.721.425 1.162.96 2.247 1.592 3.236zM23.998 17.9c2.008-.066 3.685-.158 4.987-.262a17.755 17.755 0 0 0-.728-4.719 53.996 53.996 0 0 0-4.704-.636c.281 1.734.44 3.622.445 5.617zm5.038-5.86c.729.15 1.368.313 1.884.489a14.443 14.443 0 0 0-1.718-3.055c-.326-.275-1.008-.705-1.968-1.175a16.574 16.574 0 0 1 1.802 3.741zM11.595 24.553a34.586 34.586 0 0 1-.577-5.635c-2.126-.061-3.751-.154-4.993-.263.062 1.725.352 3.376.853 4.894 1.282.365 2.885.73 4.717 1.004z"/>
</svg>
