<svg xmlns="http://www.w3.org/2000/svg" viewBox="0 0 36 36" xml:space="preserve">
  <path fill="#F1C6FF" d="M31.989 18.21a14.416 14.416 0 0 1-.64 4.088c-.21.181-.943.519-2.088.9.421-1.461.669-3.02.716-4.645.923-.107 1.568-.225 2.012-.343zm-8.798 7.379c-.335 1.452-.768 2.746-1.274 3.855a23.18 23.18 0 0 0 3.587-1.052 14.81 14.81 0 0 0 2.18-3.677 40.811 40.811 0 0 1-4.493.874zm-9.537 4.965a24.664 24.664 0 0 1-2.676-.626 10.498 10.498 0 0 0 3.755 2.13 8.66 8.66 0 0 1-1.079-1.504zm6.425.189a21.98 21.98 0 0 1-2.079.15v1.538c.741-.186 1.446-.775 2.079-1.688z"/>
</svg>
