<svg xmlns="http://www.w3.org/2000/svg" viewBox="0 0 36 36" xml:space="preserve">
  <path fill="#CCB3FF" d="M14.285 29.658c-.554-1.076-1.032-2.41-1.405-3.935 1.338.153 2.726.249 4.12.268v3.902a21.7 21.7 0 0 1-2.715-.235zm14.596-5.283a16.559 16.559 0 0 1-1.592 3.236c.999-.493 1.695-.945 2.016-1.222a14.47 14.47 0 0 0 1.546-2.735c-.535.242-1.2.485-1.97.721zm-4.9-5.457a34.366 34.366 0 0 1-.577 5.635 37.787 37.787 0 0 0 4.716-1.004c.501-1.518.791-3.169.853-4.894-1.24.109-2.866.202-4.992.263zm-2.635 11.636a8.66 8.66 0 0 1-1.079 1.504 10.475 10.475 0 0 0 3.755-2.13 24.61 24.61 0 0 1-2.676.626zM35.5 3A2.503 2.503 0 0 1 33 .5a.5.5 0 0 0-1 0C32 1.878 30.878 3 29.5 3a.5.5 0 0 0 0 1C30.878 4 32 5.122 32 6.5a.5.5 0 0 0 1 0C33 5.122 34.122 4 35.5 4a.5.5 0 0 0 0-1z"/>
</svg>
