<svg xmlns="http://www.w3.org/2000/svg" viewBox="0 0 36 36" xml:space="preserve">
  <path fill="#B0F7FF" d="M18 5.016V3.569c.712.179 1.389.736 2.002 1.589-.66-.08-1.33-.125-2.002-.142zm3.877 1.456c.621 1.339 1.129 2.962 1.492 4.798 1.603.139 3.161.328 4.521.557-.609-1.624-1.446-3.083-2.466-4.309a23.974 23.974 0 0 0-3.547-1.046zM18 12.005v5.993c1.821-.004 3.492-.029 4.999-.069a34.595 34.595 0 0 0-.48-5.735A66.538 66.538 0 0 0 18 12.005zm-1 12.986v-5.992a235.782 235.782 0 0 1-4.981-.055c.053 2.052.272 4.003.628 5.752 1.356.166 2.817.275 4.353.295zm-5.553-12.708c-1.84.172-3.436.402-4.704.636a17.708 17.708 0 0 0-.728 4.719c1.303.104 2.98.196 4.987.262.005-1.995.164-3.883.445-5.617zm3.551-7.125c.66-.08 1.33-.125 2.002-.142V3.569c-.712.179-1.389.736-2.002 1.589zM5.964 12.04a16.574 16.574 0 0 1 1.802-3.741c-.96.469-1.642.9-1.968 1.175a14.487 14.487 0 0 0-1.718 3.055 16.116 16.116 0 0 1 1.884-.489zm7.12 17.403c-.506-1.109-.939-2.403-1.274-3.855a40.513 40.513 0 0 1-4.492-.874 14.829 14.829 0 0 0 2.18 3.677c1.04.4 2.25.775 3.586 1.052zM35.5 31a2.503 2.503 0 0 1-2.5-2.5.5.5 0 0 0-1 0c0 1.378-1.122 2.5-2.5 2.5a.5.5 0 0 0 0 1c1.378 0 2.5 1.122 2.5 2.5a.5.5 0 0 0 1 0c0-1.378 1.122-2.5 2.5-2.5a.5.5 0 0 0 0-1z"/>
</svg>
