<svg xmlns="http://www.w3.org/2000/svg" viewBox="0 0 36 36">
  <path fill="#CCD6DD" d="M8 29c0 1.104-.597 2-1.333 2H5.333C4.597 31 4 30.104 4 29V11c0-1.104.597-2 1.333-2h1.333C7.403 9 8 9.896 8 11v18zm24 0c0 1.104-.597 2-1.333 2h-1.334C28.597 31 28 30.104 28 29V11c0-1.104.597-2 1.333-2h1.334C31.403 9 32 9.896 32 11v18zm-16 0c0 1.104-.597 2-1.333 2h-1.333C12.597 31 12 30.104 12 29V11c0-1.104.597-2 1.333-2h1.333C15.403 9 16 9.896 16 11v18zm8 0c0 1.104-.598 2-1.334 2h-1.332C20.598 31 20 30.104 20 29V11c0-1.104.598-2 1.334-2h1.332C23.402 9 24 9.896 24 11v18z"/>
</svg>
