<svg xmlns="http://www.w3.org/2000/svg" viewBox="0 0 36 36">
  <path fill="#A0041E" d="M4 11v.137c0-.042.011-.084.015-.126L4 11zm13 11.137c-.146-.067-.287-.145-.412-.246L4.565 12.245C4.188 11.94 4 11.539 4 11.137v12.238c0 2.042 1.093 2.484 1.093 2.484l11.574 9.099c.205.161.377.259.528.318-.114-.174-.195-.375-.195-.604V22.137zm-8.773.363c-.994 0-2.033-1.007-2.319-2.25-.287-1.242.287-2.249 1.28-2.249.994 0 2.033 1.007 2.319 2.249.287 1.243-.286 2.25-1.28 2.25zM13.81 30c-.994 0-2.033-1.008-2.319-2.25-.287-1.243.287-2.25 1.281-2.25s2.033 1.007 2.319 2.25c.286 1.242-.287 2.25-1.281 2.25z"/>
</svg>
