<svg xmlns="http://www.w3.org/2000/svg" viewBox="0 0 36 36">
  <path fill="#DD2E44" d="M31.435 12.161l-12.104 9.73c-.102.083-.214.152-.331.212v12.569c0 .233-.083.437-.2.614.155-.058.335-.16.548-.328 1.821-1.432 11.588-9.099 11.588-9.099S32 25.417 32 23.375V11.053c0 .402-.188.803-.565 1.108zm-7.457 16.731c-.242 1.137-1.119 2.058-1.958 2.058-.838 0-1.322-.921-1.08-2.058.242-1.137 1.118-2.058 1.957-2.058s1.322.921 1.081 2.058zm3.538-5.271c-.254 1.172-1.178 2.121-2.062 2.121-.883 0-1.392-.949-1.138-2.121.255-1.172 1.179-2.121 2.061-2.121.885 0 1.394.949 1.139 2.121zm3.063-5.105c-.251 1.115-1.163 2.017-2.035 2.017-.872 0-1.375-.902-1.123-2.017.251-1.113 1.162-2.016 2.034-2.016.873 0 1.376.903 1.124 2.016zm1.415-7.511c.001.016.006.032.006.048V11l-.006.005z"/>
</svg>
