<svg xmlns="http://www.w3.org/2000/svg" viewBox="0 0 36 36">
  <path fill="#EA596E" d="M31.435 9.945L19.289.5c-.753-.61-1.988-.61-2.742 0L4.565 10.029c-.338.273-.515.624-.551.983-.003.042-.014.083-.014.125 0 .402.188.803.565 1.108l12.023 9.646c.125.101.265.178.412.246v12.535c0 .229.081.43.194.604.181.28.466.474.806.474.336 0 .619-.19.8-.464.117-.176.2-.38.2-.614V22.103c.117-.06.229-.129.331-.212l12.104-9.73c.377-.305.565-.706.565-1.108 0-.016-.005-.032-.006-.049-.014-.385-.198-.767-.559-1.059zM18.5 8.667c1.61 0 2.916 1.044 2.916 2.333 0 1.289-1.306 2.333-2.916 2.333-1.611 0-2.916-1.044-2.916-2.333 0-1.289 1.305-2.333 2.916-2.333z"/>
</svg>
