<svg xmlns="http://www.w3.org/2000/svg" viewBox="0 0 36 36">
  <ellipse fill="#FFF" cx="18.5" cy="11" rx="2.916" ry="2.333"/>
  <path fill="#FFF" d="M29.455 16.5c-.872 0-1.783.903-2.034 2.016-.252 1.115.251 2.017 1.123 2.017s1.784-.902 2.035-2.017c.252-1.113-.251-2.016-1.124-2.016zm-3.077 5c-.883 0-1.807.949-2.061 2.121-.254 1.172.255 2.121 1.138 2.121.884 0 1.808-.949 2.062-2.121.254-1.172-.255-2.121-1.139-2.121zm-3.482 5.334c-.839 0-1.715.921-1.957 2.058-.242 1.137.242 2.058 1.08 2.058.839 0 1.716-.921 1.958-2.058.242-1.137-.242-2.058-1.081-2.058z"/>
</svg>
