<svg xmlns="http://www.w3.org/2000/svg" viewBox="0 0 36 36">
  <path fill="#AF7E57" d="M36 20.363C34.529 19.5 31.846 18 30 17c-2.638-1.429-3.53-5.558-4.14-7.737C25.256 7.11 23.201 3.737 23 3c-.263-.965-3-2-8 0S7 5 5 5 2 7 1 9s0 2 0 2c1 1 2-2 4-3s3 1 5 0c1.493-.747 4.146.009 6.488-.305.794-.107 2.005-.188 2.512-.695 0 0 .572 6.698 2 11 0 0-.209 1.075-1.209 4.075-.5 1.5-1.791 1.425-2.166.8S17 21 17 20c0-2-1-5-5-7-1.789-.894-5.658-.683-7 2-2 4 0 8 2 9s3 2 7 2c1.943 0 17.812.48 22 .364v-6.001z"/>
</svg>
