<svg xmlns="http://www.w3.org/2000/svg" viewBox="0 0 36 36">
  <path fill="#F4900C" d="M19.432 32.852c-.264.511-.432.921-.432 1.148 4.656 0 9-3 9-3-1.125-3.688-1.666-8.139-1.666-8.139 0-4.342-3.519-7.861-7.861-7.861-1.245 0-2.418.297-3.464.812-3.33.07-6.009 2.787-6.009 6.133 0 .828.165 1.617.464 2.337C9.214 25.893 8.731 28.604 8 31c0 0 4.344 3 9 3 0-.227-.167-.636-.431-1.146C13.39 32.198 11 29.4 11 26.047l.002-.047H11v-6h3.551c1.018-.574 2.192-.906 3.446-.906s2.429.332 3.446.906H25v6h-.008l.002.047c0 3.351-2.386 6.147-5.562 6.805z"/>
</svg>
