<svg xmlns="http://www.w3.org/2000/svg" viewBox="0 0 36 36">
  <path fill="#F4900C" d="M30.166 11.509c-.333-.038-.649.04-.918.196-.003-.432-.059-.811-.202-1.104l.376-1.128c.262-.786-.162-1.635-.948-1.897-.351-.119-.713-.093-1.032.036-.192-.72-.884-1.206-1.645-1.1-.123.017-.238.052-.348.096-.153-.565-.63-1.012-1.246-1.096-.831-.111-1.578.463-1.689 1.284L22.2 9.102c-.296-.397-.779-.642-1.306-.6-.643.046-1.157.491-1.329 1.075l-.073-.728c-.083-.825-.825-1.427-1.642-1.343-.816.082-1.412.804-1.343 1.619l-.02.01c.049-.531-.183-1.041-.6-1.346l-.417-2.084c-.163-.812-.95-1.341-1.765-1.177-.812.162-1.339.953-1.177 1.765l.718 3.591-.382 1.605-1.454-4.002c-.284-.779-1.145-1.181-1.922-.897-.779.284-1.181 1.144-.898 1.923l1.108 3.047c-.345.236-.594.61-.646 1.058l-.245 2.099-.327-1.963c-.136-.818-.911-1.372-1.726-1.233-.817.136-1.369.909-1.233 1.726l1.55 9.299h23.305c.049-.122 1.116-9.38 1.116-9.38.09-.824-.503-1.565-1.326-1.657z"/>
</svg>
