<svg xmlns="http://www.w3.org/2000/svg" viewBox="0 0 36 36">
  <path fill="#FFCC4D" d="M27.486 7.797c-.009-.064-.028-.123-.044-.184-.192-.72-.884-1.206-1.645-1.1-.123.017-.238.052-.348.096-.627.248-1.031.895-.935 1.593l1.956 14.343h3.028L27.486 7.797zm-4.99 2.096c-.021-.297-.131-.567-.297-.79-.296-.397-.779-.642-1.306-.6-.643.046-1.157.491-1.329 1.075-.049.167-.074.344-.061.528l.879 12.312.009.127H23.4l-.002-.027-.902-12.625zm-11.781 1.408c-.374-.043-.728.06-1.017.258-.345.236-.594.61-.646 1.058l-1.159 9.929h3.02l1.118-9.581c.096-.823-.493-1.568-1.316-1.664zm4.756-5.595c-.163-.812-.95-1.341-1.765-1.177-.812.162-1.339.953-1.177 1.765l3.25 16.252h3.059l-3.367-16.84z"/>
</svg>
