<svg xmlns="http://www.w3.org/2000/svg" viewBox="0 0 36 36">
  <path fill="#662113" d="M9.396 20.496s2.053 6.29 2.053 8.144.023 3.271-.374 4.463c-.397 1.192-.066 1.523 1.523 1.589 1.589.066 3.774 0 3.973-1.192.199-1.192-.156-1.55-.089-2.742.066-1.192.331-4.37.53-4.701.199-.331 3.906.662 4.635.927s3.046.265 3.112 1.059c.066.795.487 4.86.288 5.655-.199.795.397.993 2.251.927 1.986-.071 3.112-.463 2.979-1.324-.132-.861-.222-2.146.043-3.139s1.258-3.84 1.324-4.767c0 0 .927-2.053.861-3.575-.066-1.523-.651-3.477-2.522-5.575-1.28-1.435-3.196-1.466-5.579-2.194s-4.461-1.581-5.454-2.508c-.993-.927-3.694-1.065-5.078-.439-1.362.616-6.059 10.788-4.476 9.392z"/>
</svg>
