<svg xmlns="http://www.w3.org/2000/svg" viewBox="0 0 36 36">
  <path fill="#C1694F" d="M35.627 28.281c-.53-1.523-.993-3.906-1.059-5.429-.029-.661-.076-1.581-.263-2.576l.619.435c-.104-1.144-1.069-2.108-1.069-2.108l1.126-.118c-.28-.504-1.854-1.338-1.854-1.338l1.283-.318c-.56-.84-2.03-.98-2.03-.98l.318-.504c-.402-.281-1.209-.247-2.149-.532-1.02-.603-2.203-1.096-3.576-1.515-1.12-.342-2.124-.907-2.984-1.504l1.289-.444s-1.157-.459-1.628-.619c-.378-.129-.988-.154-1.217-.16l-.026-.023 1.32-.401c-.413-.558-2.555-.759-2.555-.759s.988-.197 1.139-.287c-.755-.574-2.112-.319-2.112-.319l.995-.859c-.583-.077-2.719.602-2.719.602l.582-.999c-.734.013-1.586 1.026-2.27 1.061-.051.003-.097.011-.147.016-.489-.106-.982-.292-1.425-.68-.497-.435-1.054-.86-1.638-1.183-.757-.419-1.558-.666-2.326-.539-1.195.199-1.565 1.223-2.53 1.674-.113.053-.214.115-.304.184-.828.376-1.435.846-1.641 1.093l.802.059s-1.661.726-2.02 1.188l1.042-.031s-.926.655-1.131 1.22l.772.012s-1.279 1.13-1.485 1.592l.971-.258-.704 1.654.543-.055c-.073.341-.135.678-.187 1.012-.039.12-.067.266-.074.455-.031.811-1.09 1.688-1.09 1.688l.541.609s-.565 1.302-.883 1.674c0 0 .931-.215 1.09-.481 0 0-.297 1.16-.52 2.022l.777-.481c.164 2.254.028 5.167-.987 6.98-1.031 1.843-2.782 2.646-3.715 3.193-.933.547.109 3.102.733 3.012.624-.09 2.429-.561 4.762-2.374.442-.344.808-.679 1.14-1.01l.201.67c.445-.683.799-1.769.799-1.769l.799.4v-1.598l.799.285s-.483-1.41-.24-2.181c.39-1.353 1.351-2.888 2.309-3.965.588 1.9 1.691 5.641 1.691 7.001 0 1.854.023 3.271-.374 4.463s-.066 1.523 1.523 1.589 3.774 0 3.973-1.192c.199-1.192-.156-1.55-.089-2.742.065-1.168.2-3.8.392-4.216l.403.587.645-.751.02.001.479 2.204.529-1.925.498.897.692-.957.449 2.156.562-1.64.693 1.069.601-.935.564 1.634.481-1.388c.06.025.118.049.175.075l.522.995c.035-.012.215-.165.422-.405.129.133.225.27.237.417.066.795.398 4.328.199 5.123-.199.795.397.993 2.251.927 1.986-.071 3.112-.463 2.979-1.324-.132-.861-.222-2.146.043-3.139.265-.993 1.258-3.84 1.324-4.767 0 0 .07 1.396.596 2.185 1.195 1.784 1.857 1.188 1.327-.335z"/>
</svg>
