<svg xmlns="http://www.w3.org/2000/svg" viewBox="0 0 36 36">
  <path fill="#E1E8ED" d="M36 16.368V9.257c-.638-.394-1.383-.632-2.188-.632-1.325 0-2.491.627-3.259 1.588C29.75 9.466 28.683 9 27.5 9c-.721 0-1.392.185-1.996.486C24.763 8.018 23.257 7 21.5 7c-.607 0-1.184.124-1.712.342C19.308 5.981 18.024 5 16.5 5c-1.207 0-2.273.611-2.901 1.542C12.97 6.207 12.263 6 11.5 6c-1.641 0-3.062.887-3.848 2.198C6.928 6.33 5.125 5 3 5c-1.131 0-2.162.389-3 1.022v7.955C.838 14.611 24.5 18 24.5 18s10.862-1.238 11.5-1.632z"/>
</svg>
