<svg xmlns="http://www.w3.org/2000/svg" viewBox="0 0 36 36">
  <path fill="#CCD6DD" d="M32 36c2.209 0 4-1.791 4-4v-7.608c-.91-.433-1.925-.683-3-.683-2.926 0-5.429 1.796-6.475 4.344C26.35 28.034 26.18 28 26 28c-.702 0-1.369.147-1.976.409C23.291 27.554 22.215 27 21 27c-2.209 0-4 1.791-4 4 0 .05.013.097.015.146C16.689 31.06 16.353 31 16 31c-.876 0-1.679.289-2.338.767C13.065 31.294 12.32 31 11.5 31c-.198 0-.388.026-.577.059C10.286 29.279 8.602 28 6.604 28c-1.987 0-3.665 1.266-4.31 3.03C2.195 31.022 2.101 31 2 31c-.732 0-1.41.211-2 .555V32c0 2.209 1.791 4 4 4h28z"/>
</svg>
