<svg xmlns="http://www.w3.org/2000/svg" viewBox="0 0 36 36">
  <path fill="#FFCC4D" d="M35.217 17.305c-1.342 0-7.904 4.613-11.553-5.375-.005-.014-.012-.024-.018-.038-.956-3.453-3.809-6.113-7.367-6.789l-.037-.042C18.389 3.684 19 4.707 19 3.93c0-1.179-2.083-1.303-4 .012-1.917-1.315-4-1.191-4-.012 0 .761.583-.208 2.623 1.044C8.788 5.417 5 9.479 5 14.43c0 4.478 3.103 8.223 7.273 9.227 1.003 4.171 4.748 7.273 9.227 7.273 3.953 0 6.934-1.678 8.99-3.999.555-.626.111.602.842.235 4.24-2.132 5.168-9.861 3.885-9.861z"/>
</svg>
