<svg xmlns="http://www.w3.org/2000/svg" viewBox="0 0 36 36">
  <path fill="#FFD701" d="M17.854 13.476l.169.293h.339l-.17.293.17.294h-.339l-.169.293-.169-.293h-.339l.169-.294-.169-.293h.339zm-1.339.155l.23.248.33-.076-.099.324.231.248-.33.076-.099.324-.231-.248-.33.076.098-.324-.23-.248.33-.076zm-1.259.431l.273.201.31-.138-.037.338.274.199-.309.137-.036.337-.274-.2-.309.137.035-.336-.274-.2.31-.137zm3.862-.586l-.169.293h-.339l.17.293-.17.294h.339l.169.293.17-.293h.339l-.169-.294.169-.293h-.339zm1.34.155l-.23.248-.331-.076.1.324-.231.248.33.076.098.324.232-.248.33.076-.099-.324.231-.248-.33-.076zm1.259.431l-.274.201-.309-.138.037.338-.275.199.31.137.036.337.274-.2.309.137-.035-.336.273-.2-.309-.137z"/>
</svg>
