<svg xmlns="http://www.w3.org/2000/svg" viewBox="0 0 36 36">
  <path fill="#009A3B" d="M17.75 17.547c-.318.167-.543-.203-.543-.203s-.289.203-.561.062c-.271-.141-.229-.266 0-.391s.505-.156.505-.156.071-.344.194-.578c.123-.234.33-.328.33-.328s.252-.547.687-.578c.435-.031.435.422.435.422s.27 0 .322.156c.24-.25.662-.219.756-.109.094.109 0 .344 0 .344s.371-.109.451.016c.08.125 0 .286 0 .286s.299.058.158.386-.578.234-.578.234-.178.188-.37.172c-.192-.016-.255-.282-.255-.282s-.298.078-.484-.188c-.187.281-.531.125-.578.016-.047.36-.141.547-.469.719z"/>
</svg>
