<svg xmlns="http://www.w3.org/2000/svg" viewBox="0 0 36 36">
  <path fill="#77B255" d="M25.655 6.873l.646.803s.451-.274.471-.215c.02.059-.039.666-.039.666l.313.078-.255.803s.393-.215.372-.137c-.019.078-.117.764-.117.764l.157.098-.02.764s.157.273.157.215c0-.058.156-.998.156-.998l.216.176.076-.489.177-.842.196.313.411-1.391.216.49.489-.568.333-.02.489-.137.099.293h.45s-.234.196-.215.254c.018.059.43.274.371.294-.059.02-1.058-.079-1.058-.079l-.566.568.352.118-.53.313.451.137-.411.313.353-.039-.568.431.568.118-.764.391.176.196-.763.451-.099.313.725-.568s.588-.392.881-.568c.294-.176.529-.509 1.02-.646s1.429.02 1.429.02l-.882.47.177.274-.567.176.078.332-.941.138.02.352-.803.138-.098.333-.548.196.255.215s-.471.157-.411.176c.059.02.685.078.685.078s-.314.274-.256.274c.06 0 .842.039.842.039l-.333.235.785.039-.354.274s.646.059.646.118c0 .058-.273.352-.273.352l.567.059s-.273.293-.216.314c.061.019.804.528.804.528l-.882-.117s-.215.293-.235.234c-.018-.058-.233-.411-.233-.411l-.216.235-.234-.47s-.274.156-.256.098c.02-.059-.313-.431-.313-.431l-.078.177-.215-.529-.195.274-.373-.51-.137.215-.51-.45s-.019.294 0 .353c.02.059.373.313.373.313s-.235.098-.235.156c0 .059.471.431.471.431l-.216.157.509.431s-.47.098-.412.137c.06.039.294.352.294.352l-.195.47-.391-.607-.216.059-.04-.509-.214-.02.116-.567-.234.039-.02-.47-.099-.47-.195-.314s-.137.235-.118.293c.02.059.178.431.178.431s-.216.117-.178.176c.04.059.255.489.255.489s-.47.098-.411.098c.06 0 .216.274.216.274l-.255.098-.117.294s-.293-.333-.274-.274c.02.059-.176.607-.176.607l-.293-.333.293-1.155-.354-.098-.254.529s-.215-.254-.235-.196c-.02.059-.235.451-.235.451s-.252-.431-.233-.372c.019.058-.295.686-.295.686s-.274-.549-.274-.47c0 .078-.195.764-.195.764s-.312-.529-.294-.431c.021.098-.215.549-.215.549l-.06-.49-.43.254.489-.705.823-.764.627-.469-.414-.058s.597-.207.665-.215c.178-.02-.272-.176-.272-.176l1.096-.333s-.489-.255-.548-.196c-.059.059-.647.176-.647.176l-.078-.45-.606.254s-.099-.412-.118-.353c-.019.059-.49.313-.49.313l-.233-.254-.275.431-.314-.235-.566.176.273-.411-.313-.176.646-.411.137-.274.882.059s-.236-.314-.196-.255c.04.059.9.196.9.196l.256-.039.861.313-.705-.568-.607-.118.392-.313-.921-.332.197-.313-1.216-.313.746-.196-.51-.862 1.057.627.47-.157.236.607.431.255.077.45.216-.098.195.528.256-.079.136.373.374.019-.1-.49.156-.235-.431-.353.374-.176-.55-.451.47-.059-.666-.646.53.02-.53-.607.432-.098-.081-.782z"/>
</svg>
