<svg xmlns="http://www.w3.org/2000/svg" viewBox="0 0 36 36">
  <path d="M34.363 28.125c-1.817 0-1.817-1.062-3.636-1.062-1.818 0-1.818 1-3.693 1-1.762 0-1.762-1-3.608-1-1.789 0-1.789 1-3.607 1-1.818 0-1.818-1-3.637-1-1.818 0-1.818 1-3.636 1s-1.818-1-3.636-1-1.818 1-3.636 1-1.818-1-3.637-1c-.762 0-1.201.178-1.591.383.071.638.277 1.233.613 1.744.263-.077.575-.127.979-.127 1.818 0 1.818 1 3.637 1 1.818 0 1.818-1 3.636-1s1.818 1 3.636 1 1.818-1 3.636-1 1.818 1 3.637 1c1.818 0 1.818-1 3.629-1 1.825 0 1.825 1 3.64 1 1.822 0 1.822-1 3.639-1 1.82 0 1.82.969 3.638.969.088 0 .157-.01.236-.015.674-.581 1.157-1.372 1.326-2.283-.386.21-.821.391-1.565.391zM36 25.383v-1.944c-.402.228-.846.43-1.637.43-1.817 0-1.817-1.062-3.636-1.062-1.818 0-1.818 1-3.693 1-1.762 0-1.762-1-3.608-1-1.789 0-1.789 1-3.607 1-1.818 0-1.818-1-3.637-1-1.818 0-1.818 1-3.636 1s-1.818-1-3.636-1-1.818 1-3.636 1-1.818-1-3.637-1c-.791 0-1.234.19-1.636.404v2c.402-.214.846-.404 1.636-.404 1.818 0 1.818 1 3.637 1 1.818 0 1.818-1 3.636-1s1.818 1 3.636 1 1.818-1 3.636-1 1.818 1 3.637 1c1.818 0 1.818-1 3.629-1 1.825 0 1.825 1 3.64 1 1.822 0 1.822-1 3.639-1 1.82 0 1.82.969 3.638.969.789-.002 1.233-.186 1.635-.393zm0-4.257v-1.944c-.402.228-.846.43-1.637.43-1.817 0-1.817-1.063-3.636-1.063-1.818 0-1.818 1-3.693 1-1.762 0-1.762-1-3.608-1-1.789 0-1.789 1-3.607 1-1.818 0-1.818-1-3.637-1-1.818 0-1.818 1-3.636 1s-1.818-1-3.636-1-1.818 1-3.636 1-1.818-1-3.637-1c-.791 0-1.234.191-1.636.404v2c.402-.214.846-.404 1.636-.404 1.818 0 1.818 1 3.637 1 1.818 0 1.818-1 3.636-1s1.818 1 3.636 1 1.818-1 3.636-1 1.818 1 3.637 1c1.818 0 1.818-1 3.629-1 1.825 0 1.825 1 3.64 1 1.822 0 1.822-1 3.639-1 1.82 0 1.82.969 3.638.969.789 0 1.233-.185 1.635-.392zm0-4.257v-1.944c-.402.228-.846.43-1.637.43-1.817 0-1.817-1.062-3.636-1.062-1.818 0-1.818 1-3.693 1-1.762 0-1.762-1-3.608-1-1.789 0-1.789 1-3.607 1-1.818 0-1.818-1-3.637-1-1.818 0-1.818 1-3.636 1s-1.818-1-3.636-1-1.818 1-3.636 1-1.818-1-3.637-1c-.791 0-1.234.19-1.636.404v2c.402-.214.846-.404 1.636-.404 1.818 0 1.818 1 3.637 1 1.818 0 1.818-1 3.636-1s1.818 1 3.636 1 1.818-1 3.636-1 1.818 1 3.637 1c1.818 0 1.818-1 3.629-1 1.825 0 1.825 1 3.64 1 1.822 0 1.822-1 3.639-1 1.82 0 1.82.969 3.638.969.789-.002 1.233-.186 1.635-.393zm0-4.258v-1.944c-.402.227-.846.43-1.637.43-1.817 0-1.817-1.062-3.636-1.062-1.818 0-1.818 1-3.693 1-1.762 0-1.762-1-3.608-1-1.789 0-1.789 1-3.607 1-1.818 0-1.818-1-3.637-1-1.818 0-1.818 1-3.636 1s-1.818-1-3.636-1-1.818 1-3.636 1-1.818-1-3.637-1c-.791 0-1.234.19-1.636.404v2c.402-.214.846-.404 1.636-.404 1.818 0 1.818 1 3.637 1 1.818 0 1.818-1 3.636-1s1.818 1 3.636 1 1.818-1 3.636-1 1.818 1 3.637 1c1.818 0 1.818-1 3.629-1 1.825 0 1.825 1 3.64 1 1.822 0 1.822-1 3.639-1 1.82 0 1.82.969 3.638.969.789-.001 1.233-.186 1.635-.393zm-.062-4.227c-.095-.611-.317-1.177-.656-1.663-.252.071-.545.119-.919.119-1.817 0-1.817-1.062-3.636-1.062-1.818 0-1.818 1-3.693 1-1.762 0-1.762-1-3.608-1-1.789 0-1.789 1-3.607 1-1.818 0-1.818-1-3.637-1-1.818 0-1.818 1-3.636 1s-1.818-1-3.636-1-1.818 1-3.636 1c-1.814 0-1.82-.994-3.625-.999C.877 6.342.314 7.169.101 8.133c.377-.193.808-.356 1.535-.356 1.818 0 1.818 1 3.637 1 1.818 0 1.818-1 3.636-1s1.818 1 3.636 1 1.818-1 3.636-1 1.818 1 3.637 1c1.818 0 1.818-1 3.629-1 1.825 0 1.825 1 3.64 1 1.822 0 1.822-1 3.639-1 1.82 0 1.82.969 3.638.969.751 0 1.187-.168 1.574-.362z" fill="#00247D"/>
</svg>
