<svg xmlns="http://www.w3.org/2000/svg" viewBox="0 0 36 36">
  <path fill="#FFCC4D" d="M27.021 19.728v.352s.676-.059 1.263-.47c.358-.25 1.116-.559 1.704-.058.382.322.351 1.146.116 1.468-.234.323-.468 1.058.03.559.499-.5.647-1.264.499-1.763-.146-.499-.47-.998-1.233-.998-.765 0-1.264.411-1.615.617-.305.177-.793.233-.764.293z"/>
  <path fill="#FFCC4D" d="M29.969 21.499l-.411-.019.117.626s-.411-.312-.431-.235c-.019.08-.078.646-.078.646l.527-.117-.313.451.411.194s.157-.528.197-.781c.038-.255-.019-.765-.019-.765zm-.863.334l-.392-.039s.339-.764-.157-.745c-.547.021-.175.726-.175.726h-.411l-.061.567.393-.235v.334l-.431.411 1.137.116-.295-.489.021-.351.274.313.097-.608zm-1.495-3.095c0 .39-.308.704-.685.704-.379 0-.686-.315-.686-.704 0-.389.307-.705.686-.705.378.001.685.316.685.705zm-1.301-1.546h1.232v.49H26.31z"/>
  <path fill="#FFCC4D" d="M26.633 16.859h.586v4.523h-.586z"/>
  <path fill="#FFCC4D" d="M26.44 21.187h.919l-.255.646.588-.313v.86l-.569-.195.49.744h-1.272l.391-.744-.567.136v-.763l.529.254z"/>
  <path fill="#FFCC4D" d="M26.928 22.635c1.215 0 1.978.1 2.84.411 0 0 .06.511-.059.765-.116.255-2.8-.177-2.8-.177l.019-.999z"/>
  <path fill="#FFCC4D" d="M26.963 22.635c-1.214 0-1.978.1-2.838.411 0 0-.06.511.057.765.118.255 2.8-.177 2.8-.177l-.019-.999z"/>
</svg>
