<svg xmlns="http://www.w3.org/2000/svg" viewBox="0 0 36 36">
  <path fill="#CCD6DD" d="M6.464 12.875l.99.25.833-.667s1-.375 1.542-.083c.541.292.083.25-.417.375s-.606.622-.479.812c.188.281.759.304.688-.125-.031-.188.792.229.708.688l-.083.458s-.042 1.042.625 1.25.594.833-.031.792-1.677-.833-1.677-.833-.542.375-.667.125c0 0-1.292-.292-1.125-1.458 0 0-.406 1.292.406 1.729 1.17.63 1.316.196 2.302.979 1.167.927 2.083 2.646 1.792 5.021s-.958 3.969-3.625 3.969c-1.562 0-2.406-1.167-2.406-2.312C5.839 22.698 6.87 22 7.526 22c.781 0 1.031.75.938.938-.314.628-.615.194-.375-.094.156-.188-.157-.484-.531-.469-.75.031-1.156.76-1.156 1.469 0 .709.802 1.781 1.802 1.781s2.125-.916 2.125-2.333-.584-2.333-1.542-3.125l-.479.927s-1.833-.261-2.875-1.344c-1.042-1.083-.941-2.463-.75-2.312.438.344 1.479.396 1.479.396s-.416-.875-.708-1.042c-.292-.167-.886-1.063-.427-2.104.458-1.042 1.136-1.354 1.302-1.021.166.333.604.104.479-.229s-.344-.563-.344-.563z"/>
</svg>
