<svg xmlns="http://www.w3.org/2000/svg" viewBox="0 0 36 36">
  <path fill="#CCD6DD" d="M29.479 12.875l-.989.25-.834-.667s-1-.375-1.541-.083c-.542.292-.084.25.416.375s.607.622.479.812c-.188.281-.759.304-.688-.125.031-.188-.792.229-.708.688l.083.458s.042 1.042-.625 1.25-.594.833.031.792 1.677-.833 1.677-.833.542.375.667.125c0 0 1.292-.292 1.125-1.458 0 0 .406 1.292-.406 1.729-1.171.63-1.315.196-2.302.979-1.167.927-2.084 2.646-1.792 5.021s.958 3.969 3.625 3.969c1.562 0 2.406-1.167 2.406-2.312 0-1.146-1.031-1.844-1.688-1.844-.781 0-1.031.75-.938.938.313.628.615.194.375-.094-.156-.188.157-.484.531-.469.75.031 1.156.76 1.156 1.469 0 .709-.802 1.781-1.802 1.781s-2.125-.916-2.125-2.333.584-2.333 1.541-3.125l.479.927s1.833-.261 2.875-1.344.94-2.463.75-2.312c-.438.344-1.479.396-1.479.396s.416-.875.709-1.042c.291-.167.885-1.063.427-2.104s-1.136-1.354-1.302-1.021c-.167.333-.604.104-.479-.229s.346-.564.346-.564z"/>
</svg>
