<svg xmlns="http://www.w3.org/2000/svg" viewBox="0 0 36 36">
  <path d="M8.775 8.131h.557l.825 2.426.819-2.426h.553V11h-.371V9.307c0-.059.001-.156.004-.291s.004-.281.004-.436l-.82 2.42h-.385l-.827-2.42v.088c0 .07.002.177.006.321s.006.25.006.317V11h-.371V8.131zm4.579 0h.438L14.834 11h-.426l-.299-.859h-1.126l-.311.859h-.398l1.08-2.869zm.645 1.693l-.442-1.268-.459 1.268h.901zm.669-1.693h.453l.825 1.379.825-1.379h.457l-1.086 1.713V11h-.389V9.844l-1.085-1.713zm5.253.41c.189.254.285.579.285.975 0 .428-.109.785-.326 1.068-.256.333-.619.5-1.092.5-.441 0-.789-.146-1.041-.438-.225-.281-.338-.637-.338-1.066 0-.388.096-.72.289-.996.248-.354.613-.531 1.098-.531.506 0 .881.162 1.125.488zm-.343 1.829c.152-.246.229-.528.229-.847 0-.337-.089-.609-.265-.815-.177-.206-.418-.309-.724-.309-.297 0-.539.102-.727.306-.188.204-.281.504-.281.902 0 .318.081.586.241.804s.421.328.782.328c.344-.001.592-.124.745-.369zm3.177-2.239v.342h-.967V11h-.393V8.473h-.967v-.342h2.327zm2.602 0v.342h-.967V11h-.393V8.473h-.967v-.342h2.327zm.635 0h2.082v.352h-1.703v.871h1.574v.332h-1.574v.973h1.732V11h-2.111V8.131z" fill="#D42E11"/>
</svg>
