<svg xmlns="http://www.w3.org/2000/svg" viewBox="0 0 36 36">
  <path fill="#269" d="M20.5 16.525c0 .538-.448.975-1 .975-.553 0-1.001-.437-1.001-.975s.448-.975 1.001-.975c.552.001 1 .437 1 .975z"/>
  <path fill="#269" d="M20.5 18.025c0 .538-.448.975-1 .975-.553 0-1.001-.437-1.001-.975s.448-.975 1.001-.975c.552.001 1 .437 1 .975z"/>
  <path fill="#269" d="M19 16.525c0 .538-.448.975-1 .975-.553 0-1.001-.437-1.001-.975s.448-.975 1.001-.975c.552.001 1 .437 1 .975z"/>
  <path fill="#269" d="M19 18.025c0 .538-.448.975-1 .975-.553 0-1.001-.437-1.001-.975s.448-.975 1.001-.975c.552.001 1 .437 1 .975z"/>
  <path fill="#269" d="M17.5 16.525c0 .538-.448.975-1 .975-.553 0-1.001-.437-1.001-.975s.448-.975 1.001-.975c.552.001 1 .437 1 .975z"/>
  <path fill="#269" d="M17.5 18.025c0 .538-.448.975-1 .975-.553 0-1.001-.437-1.001-.975s.448-.975 1.001-.975c.552.001 1 .437 1 .975z"/>
</svg>
