<svg xmlns="http://www.w3.org/2000/svg" viewBox="0 0 36 36">
  <path fill="#171796" d="M22 16.525c0-.308-.156-.571-.386-.75.23-.178.386-.441.386-.75 0-.538-.448-.975-1-.975-.294 0-.552.128-.735.325-.183-.223-.451-.375-.765-.375-.305 0-.568.142-.752.354-.183-.212-.445-.354-.748-.354-.304 0-.567.143-.75.357-.184-.214-.447-.357-.75-.357-.304 0-.567.143-.75.357-.184-.214-.446-.357-.75-.357-.553 0-1 .448-1 1 0 .304.143.566.356.75-.213.184-.356.446-.356.75s.143.566.356.75c-.213.184-.356.446-.356.75 0 .552.447 1.25 1 1.25h6c.552 0 1-.562 1-1.1 0-.308-.156-.634-.386-.812.23-.179.386-.504.386-.813z"/>
</svg>
