<svg xmlns="http://www.w3.org/2000/svg" viewBox="0 0 36 36">
  <path fill="#D42E11" d="M22 19.025c0-.194-.06-.374-.16-.525h-7.681c-.1.152-.16.331-.16.525 0 .304.146.571.369.75-.224.179-.369.446-.369.75s.146.571.369.75c-.224.179-.369.446-.369.75 0 .538.448.975 1.001.975.3 0 .566-.132.75-.336.183.204.449.336.75.336.3 0 .566-.132.75-.336.183.204.449.336.75.336.3 0 .566-.132.75-.336.183.204.449.336.75.336.3 0 .566-.132.75-.336.183.204.449.336.75.336.552 0 1-.437 1-.975 0-.304-.146-.571-.369-.75.223-.178.369-.446.369-.75s-.146-.571-.369-.75c.223-.178.369-.446.369-.75z"/>
</svg>
