<svg xmlns="http://www.w3.org/2000/svg" viewBox="0 0 36 36">
  <path fill="#FFAC33" d="M16.869 20.627c-.101-.058-.196-.098-.286-.127.089-.029.185-.069.286-.127.287-.165.475-.377.42-.473-.056-.096-.333-.039-.62.127-.101.058-.182.121-.252.184.019-.092.033-.194.033-.311 0-.332-.089-.601-.2-.601-.111 0-.2.269-.2.601 0 .116.014.219.033.311-.07-.062-.152-.126-.253-.184-.287-.166-.564-.223-.62-.127-.055.096.132.307.42.473.101.058.196.098.285.127-.089.029-.185.069-.285.127-.288.166-.476.378-.42.473.055.096.333.039.62-.127.101-.058.183-.121.253-.184-.019.092-.033.194-.033.311 0 .332.089.601.2.601.11 0 .2-.269.2-.601 0-.116-.014-.219-.033-.31.07.063.152.126.253.184.287.165.564.222.62.126.054-.096-.134-.308-.421-.473zm3.5 0c-.101-.058-.196-.098-.285-.127.089-.029.185-.069.285-.127.287-.165.475-.377.42-.473-.056-.096-.333-.039-.62.127-.1.058-.182.121-.252.183.019-.092.033-.194.033-.31 0-.332-.09-.601-.2-.601s-.2.269-.2.601c0 .116.014.219.033.311-.07-.063-.152-.126-.253-.184-.287-.166-.564-.223-.62-.127-.055.096.133.307.42.473.101.058.197.098.286.127-.089.029-.185.069-.286.127-.287.166-.475.378-.42.473.056.096.333.039.62-.127.101-.058.183-.121.253-.184-.019.092-.033.194-.033.311 0 .332.09.601.2.601s.2-.269.2-.601c0-.116-.014-.218-.033-.31.07.062.151.126.252.184.287.165.565.222.62.126.056-.096-.133-.308-.42-.473z"/>
</svg>
