<svg xmlns="http://www.w3.org/2000/svg" viewBox="0 0 36 36">
  <path fill="#BE1931" d="M15.775 13.513c-.299-.462-.166-1.084.296-1.383l2.772-1.817c.462-.299 1.084-.166 1.383.296.299.462.166 1.084-.296 1.383l-2.772 1.817c-.462.299-1.084.166-1.383-.296zm4.616 3.755c-.444-.325-.541-.954-.215-1.398l1.595-2.176c.325-.444.954-.541 1.398-.215.444.325.541.954.215 1.398l-1.595 2.176c-.325.443-.954.54-1.398.215zm4.777 1.903c-.519-.183-.794-.757-.611-1.276l.613-1.739c.183-.519.757-.794 1.276-.611.519.183.794.757.611 1.276l-.613 1.739c-.183.519-.757.794-1.276.611zM12.487 2.449c.047-.548.534-.958 1.082-.91l3.985.345c.548.047.958.534.91 1.082-.047.548-.534.958-1.082.91l-3.985-.345c-.548-.047-.957-.534-.91-1.082zm.584 5.538c-.104-.54.253-1.067.793-1.171l3.723-.687c.54-.104 1.067.253 1.171.793.104.54-.253 1.067-.793 1.171l-3.723.687c-.54.104-1.067-.253-1.171-.793z"/>
</svg>
