<svg xmlns="http://www.w3.org/2000/svg" viewBox="0 0 36 36">
  <path fill="#D9B981" d="M17.295 33c-.235 2.224-5 4-6 2-.247-.494-2.341-4.936-2.535-5.453-.194-.517.068-1.094.586-1.287s1.094.068 1.287.586c-.194-.517.068-1.094.586-1.287.517-.194 1.094.068 1.287.586-.194-.517.068-1.094.586-1.287.517-.194 1.094.068 1.287.586-.194-.517.068-1.094.586-1.287s1.094.068 1.287.586c.193.514 1.148 5.263 1.043 6.257zm1.41 0c.235 2.224 5 4 6 2 .247-.494 2.341-4.936 2.535-5.453.194-.517-.068-1.094-.586-1.287s-1.094.068-1.287.586c.194-.517-.068-1.094-.586-1.287-.517-.194-1.094.068-1.287.586.194-.517-.068-1.094-.586-1.287-.517-.194-1.094.068-1.287.586.194-.517-.068-1.094-.586-1.287s-1.094.068-1.287.586c-.193.514-1.148 5.263-1.043 6.257z"/>
</svg>
