<svg xmlns="http://www.w3.org/2000/svg" viewBox="0 0 36 36">
  <path fill="#FFE8B6" d="M12.67 11.073c-.042 0-.084-.005-.127-.016-.267-.07-.427-.343-.357-.61.488-1.867 2.405-2.988 4.271-2.503.267.07.427.343.357.61-.07.267-.343.424-.61.357-1.332-.347-2.702.455-3.05 1.788-.059.225-.262.374-.484.374zm10.66 0c-.223 0-.425-.149-.483-.374-.169-.646-.579-1.188-1.155-1.525-.576-.339-1.249-.432-1.896-.262-.269.069-.54-.091-.609-.357-.07-.268.09-.541.357-.61.901-.236 1.846-.106 2.653.367.807.473 1.381 1.231 1.616 2.136.07.267-.09.54-.357.61-.042.009-.085.015-.126.015z"/>
</svg>
