<svg xmlns="http://www.w3.org/2000/svg" viewBox="0 0 36 36">
  <path fill="#292F33" d="M8.125 7.149s-.27 1.104-.406 1.871c-.136.768.226 1.296 2.705 1.824 3.287.7 10.679.692 15.058-.383 1.759-.432 2.886-.72 2.751-1.583-.167-1.068-.196-1.066-.541-2.208 0 0-1.477.502-3.427.96-2.66.624-9.964.911-13.481.144-1.874-.41-2.659-.625-2.659-.625zm-.136 13.954c-.354.145 2.921 1.378 7.48 1.458 4.771.084 6.234.39 5.146 1.459-1.146 1.125-.852 2.894-.771 3.418.081.524 2.047 1.916 2.208 2.56.161.645-1.229 5.961-1.229 5.961l-8.729-.252c-2.565-8.844-2.883-8.501-4.105-13.604-.241-1.008 0-1 0-1z"/>
</svg>
