<svg xmlns="http://www.w3.org/2000/svg" viewBox="0 0 36 36">
  <path fill="#5C913B" d="M5.5 11.92c4.583 2.75 7.333 2.75 11 0 2.75-1.833-1.833 6.417-5.5 6.417s-8.25-8.25-5.5-6.417zM3.666 8.254c-.138 0-.278-.031-.41-.097-.452-.226-.636-.777-.409-1.23.636-1.272 1.933-2.15 3.303-2.235.839-.047 2.458.155 3.779 2.137.281.421.167.99-.254 1.271-.423.281-.991.167-1.271-.254-.61-.915-1.355-1.374-2.14-1.324-.73.045-1.428.526-1.777 1.226-.161.32-.485.506-.821.506zm14.668 0c-.336 0-.66-.186-.82-.507-.35-.699-1.047-1.18-1.777-1.226-.776-.042-1.529.409-2.14 1.324-.282.422-.85.535-1.271.254-.421-.281-.535-.85-.254-1.271 1.32-1.983 2.931-2.186 3.779-2.137 1.37.085 2.667.963 3.303 2.235.227.453.043 1.003-.41 1.23-.132.067-.272.098-.41.098z"/>
</svg>
