<svg xmlns="http://www.w3.org/2000/svg" viewBox="0 0 36 36">
  <path fill="#9266CC" d="M29.5 30.151C26 28 24 28 20.5 30.151c-2.75 1.833.833-4.417 4.5-4.417s7.25 6.25 4.5 4.417zM17 21.917c-.138 0-.278-.031-.41-.097-.453-.226-.636-.777-.41-1.23.7-1.399 2.404-2.49 4.051-2.592 1.489-.099 2.815.585 3.698 1.911.281.422.167.99-.254 1.272-.421.281-.99.167-1.271-.254-.522-.782-1.215-1.148-2.059-1.099-1.121.069-2.164.859-2.526 1.583-.16.32-.484.506-.819.506zm16.001 0c-.337 0-.66-.186-.821-.508-.36-.723-1.403-1.512-2.524-1.582-.842-.047-1.539.316-2.06 1.099-.28.421-.851.535-1.271.254-.421-.281-.535-.85-.254-1.272.884-1.326 2.188-2.009 3.699-1.911 1.648.103 3.352 1.194 4.051 2.593.226.452.042 1.003-.411 1.229-.132.067-.271.098-.409.098z"/>
</svg>
