<svg xmlns="http://www.w3.org/2000/svg" viewBox="0 0 36 36">
  <path fill="#7C533E" d="M9.639 26.106C8.07 28.335 3.92 27.8 2.316 24.095c-1.55-3.582-.344-6.84.463-7.849.329-.41-.512 4.813 2.237 6.252 1.205.63-2.445-3.399-.695-7.133.525-1.12-.049 3.787 3.263 5.195 1.445.614 4.356 2.281 2.055 5.546zm2.675-4.273c.594-.753 1.641-1.554 8.499-1.554 5.125 0 6.58-2.417 8.287-3.02 5.838-2.061 3.757 11.752-5.972 11.752-9.73.001-11.612-6.168-10.814-7.178z"/>
  <path fill="#7C533E" d="M23.172 20.081c6.388-1.071 8.032-8.666 5.911-12.581-1.99-3.674-6.98-5.397-11.153-1.958.159 1.028.505 5.625-3.341 6.183 1.227-2.514-2.538-4.374-1.394-7.633 1.146-3.259 4.257-2.477 4.523-1.631 3.157-2.543 7.24-2.793 8.832-1.21 4.747.042 7.714 3.234 7.712 5.582 2.738 2.729 1.372 9.473.226 10.217.512 4.034-.661 7.755-5.112 9.043-.769.223-11.916-5.054-6.204-6.012z"/>
</svg>
