<svg xmlns="http://www.w3.org/2000/svg" viewBox="0 0 36 36">
  <path fill="#583529" d="M29.5 14.325c-.229-.013-1.15 1.68-1.082 2.023.226 1.132 4.854 1.277 6.07.702.907-.428 1.383-2.55 1.261-3.529-2.024 1-5.739.833-6.249.804zm3.567-10.287c-.208 1.04-2.927 2.868-4.142 3.139-.188.042.386 1.495.705 1.685.32.19 4.456-1.02 4.631-2.031.098-.565-.23-2.237-1.194-2.793zM26.55 1.25c-.001-.226-.785-1.018-2.098-.93.423 1.477-.405 2.898-.814 3.413-.136.171 1.449.508 1.687.429.427-.142 1.228-1.766 1.225-2.912z"/>
</svg>
