<svg xmlns="http://www.w3.org/2000/svg" viewBox="0 0 36 36">
  <path fill="#CCC" d="M29.56 21.724s.071-.213.284-.178c.212.035.142.283.142.283s.39.179.603-.283c.015-.021.026-.044.035-.07.128-.384.178-.815.39-1.065 0 0-.02-.012-.053-.037-.188.076-.337.18-.337.18s0-.318-.354-.39c-.354-.071-.709.461-.709.461-.142-.425-.71 0-.958.39-.247.391-.851.284-.851.284l-.108-.213s.037-.354-.247-.532c-.284-.177-.71.248-.71.248.107-.461-.39-.391-.495-.318-.107.07-.284-.178-.532-.248-.186-.053-.352.35-.438.689.051.178.094.37.154.552.009.026.021.05.035.07.213.462.603.283.603.283s-.07-.248.142-.283c.213-.035.284.178.284.178s.248-.071.319.142c.07.213-.248.284-.248.284-.035.07.177.39.915.555.141.1.219.294.219.294v.318h.71V23s.077-.194.219-.296c.738-.165.95-.484.915-.555 0 0-.318-.071-.248-.284.071-.213.319-.141.319-.141z"/>
</svg>
