<svg xmlns="http://www.w3.org/2000/svg" viewBox="0 0 36 36">
  <path fill="#CF1B2B" d="M31.862 20.376c-.07-.39 0-.993-.106-1.171-.106-.177-1.099-.531-1.809-.461-.708.071-.213-.886.284-1.134.497-.249.958-.462 1.028-.745.071-.284-.178-.497-.603-.426-.426.071-.674.071-.923.319-.248.248-.283-.035-.39-.319-.105-.283.07-.39.107-.674.035-.283-.036-1.064-.249-1.383-.212-.319-.103-.531-.457-.709-.355-.178-.742-.319-.742-.319s-.39.142-.745.319c-.354.178-.248.39-.46.709-.213.319-.284 1.1-.249 1.383.036.284.212.391.107.674-.107.284-.142.567-.39.319-.249-.248-.497-.248-.923-.319-.425-.071-.674.142-.603.426.07.283.531.496 1.028.745.497.248.992 1.205.284 1.134-.71-.07-1.702.284-1.809.461-.106.178-.036.781-.106 1.171-.071.39-.248.709-.071.638.178-.07.993-.354 1.384-.638.39-.284.851 1.135.674 1.489-.179.354-.213.603-.497.461-.284-.142-.709.071-.851.355-.142.283.177.46.532.708.354.249.779-.248.957-.496.177-.249 1.737-1.028 1.737-1.028s1.558.779 1.734 1.028c.178.248.602.745.957.496.354-.248.673-.425.53-.708-.142-.284-.567-.497-.851-.355-.284.142-.319-.107-.498-.461-.176-.354.284-1.773.674-1.489.391.284 1.206.567 1.384.638.179.071.003-.248-.069-.638z"/>
</svg>
