<svg xmlns="http://www.w3.org/2000/svg" viewBox="0 0 36 36">
  <path fill="#FFE000" d="M30.866 18.39s.107.248.248.248.391-.318.178-.566c-.212-.249-.391-.355-.283-.567.105-.213-.178-.568-.178-.568-.142.212-.532.532-1.206.106-.674-.425-1.206-.497-1.312-.248h-.627c-.105-.248-.638-.177-1.312.248s-1.065.106-1.206-.106c0 0-.283.355-.178.568.107.212-.071.318-.283.567-.213.248.036.566.178.566s.248-.248.248-.248.46.39.426.922c-.036.531-.745 1.027-.745 1.027.213.248.213.604.426 1.241.212.639.957.461.957.461.036.391.71.781.957.781.249 0 .319.212.319.212s-.283.178-.142.32c.133.132.609-.047.668-.069.059.022.535.201.668.069.142-.143-.142-.32-.142-.32s.07-.212.319-.212c.247 0 .921-.391.957-.781 0 0 .745.178.957-.461.213-.638.213-.993.426-1.241 0 0-.709-.496-.745-1.027-.033-.532.427-.922.427-.922z"/>
</svg>
