<svg xmlns="http://www.w3.org/2000/svg" viewBox="0 0 36 36">
  <path fill="#64B4D1" d="M31.298 18.106c-.213-.248-.39-.355-.284-.567.107-.213-.142-.354-.142-.354-.142.213-.734.516-1.24.213-.532-.32-.674-.249-.816-.32 0 0 .087.247-.106.32-.283.106-.391-.143-.391-.143h-.637s-.107.249-.391.143c-.193-.073-.106-.32-.106-.32-.143.071-.284 0-.816.32-.506.303-1.099 0-1.24-.213 0 0-.249.142-.142.354.106.212-.071.319-.284.567-.213.248.106.035.248.035.142 0 .497.249.497.249s.39.284.354.958c-.028.532-.816 1.062-.816 1.062.212.25.425 1.136.425 1.136.213.462 4.816-1.666 4.787-2.198-.035-.674.354-.958.354-.958s.355-.249.497-.249c.142.001.462.213.249-.035z"/>
</svg>
