<svg xmlns="http://www.w3.org/2000/svg" viewBox="0 0 36 36">
  <ellipse fill="#292F33" cx="22.276" cy="14.221" rx="1.557" ry="2"/>
  <path fill="#292F33" d="M20.892 11c-.43 0-.862-.138-1.227-.422-.871-.678-1.028-1.935-.35-2.807l4.67-6c.679-.872 1.934-1.029 2.807-.35.871.678 1.028 1.935.35 2.807l-4.67 6c-.396.507-.985.772-1.58.772zm-4.671 0c-.596 0-1.185-.265-1.58-.771l-4.672-6c-.679-.872-.522-2.128.349-2.807.872-.679 2.129-.523 2.807.349l4.672 6c.679.872.522 2.128-.349 2.807-.365.284-.798.422-1.227.422z"/>
</svg>
