<svg xmlns="http://www.w3.org/2000/svg" viewBox="0 0 36 36" xml:space="preserve">
  <path fill="#D4AB88" d="M29.802 21.752 18.5 13.601l-.059-.08.053-.08.053-.053.854.469c.958.62 3.147 1.536 4.806 1.536 1.135 0 1.815-.425 2.018-1.257a1.409 1.409 0 0 0-1.152-1.622 6.788 6.788 0 0 1-2.801-1.091l-.555-.373c-.624-.421-1.331-.898-1.853-1.206-.65-.394-1.357-.585-2.163-.585-1.196 0-2.411.422-3.585.83l-1.266.436a5.18 5.18 0 0 1-1.696.271c-1.544 0-3.055-.586-4.516-1.152l-.147-.058a1.389 1.389 0 0 0-1.674.56L1.35 15.669a1.357 1.357 0 0 0 .257 1.761l7.785 6.672c.352.301.722.588 1.1.852l6.165 4.316a2 2 0 0 0 2.786-.491.803.803 0 0 0-.196-1.115l-1.833-1.283a.424.424 0 0 1-.082-.618.422.422 0 0 1 .567-.075l3.979 2.785a1.4 1.4 0 0 0 1.606-2.294l-3.724-2.606a.424.424 0 0 1-.082-.618.423.423 0 0 1 .567-.075l5.132 3.593a1.4 1.4 0 0 0 1.606-2.294l-4.868-3.407a.42.42 0 0 1-.081-.618.377.377 0 0 1 .506-.066l5.656 3.959a1.4 1.4 0 0 0 1.606-2.295z"/>
</svg>
