<svg xmlns="http://www.w3.org/2000/svg" viewBox="0 0 36 36">
  <path d="M28.601 2.599c.44-.33.53-.96.2-1.4l-.6-.8c-.33-.44-.96-.53-1.4-.2L14.157 10.243c-.774-.167-1.785.083-2.673.749-1.326.994-1.863 2.516-1.2 3.4s2.275.794 3.6-.2c.835-.626 1.355-1.461 1.462-2.215l13.255-9.378zm5.868 2.919l-.509-.861c-.28-.474-.896-.632-1.37-.352l-13.913 8.751c-.719-.141-1.626.023-2.472.524-1.426.843-2.127 2.297-1.565 3.248.562.951 2.174 1.039 3.6.196 1.005-.594 1.638-1.49 1.735-2.301l14.142-7.835c.474-.281.632-.897.352-1.37z" fill="#AA695B"/>
</svg>
