<svg xmlns="http://www.w3.org/2000/svg" viewBox="0 0 36 36">
  <path fill="#AF7E57" d="M8.401 6.183c3.217.844 10.943 3.114 12.782 3.907 4.244 1.829 7.507 5.306 7.448 9.206-.064 4.219-1.768 6.944-7.888 8.048-6.201 1.119-10.241 1.437-12.626 1.79-3.452.511-4.322-4.596-.671-5.05 0 0-3.171-.447-5.121-.664C.024 23.164-.15 21.314.35 18.842c.511-2.525 2.294-6.897 3.193-9.142 1.144-2.859 2.301-4.189 4.858-3.517z"/>
  <path fill="#AF7E57" d="M21.257 10.158c3.218 1.04 7.624 1.139 11.535.772 2.021-.189 3.208-.197 3.208 1.436V22.97c0 1.99-.668 1.969-2.812 1.683-3.267-.436-5.099-1.228-8.218 1.347-2.176 1.797-9.769-17.798-3.713-15.842z"/>
</svg>
