<svg xmlns="http://www.w3.org/2000/svg" viewBox="0 0 36 36">
  <path d="M21.875 14.56c-.972-.972-2.77-2.785-4.692-6.106-.753.492-1.554 1.091-2.409 1.808 2.803 3.613 8.121 5.317 7.101 4.298zm-7.485 8.072c-1.041-1.041-3.03-3.05-5.105-6.846-.687.832-1.349 1.693-1.98 2.57 2.807 3.597 8.101 5.292 7.085 4.276zm9.301-.351c-3.581-2.008-5.49-3.91-6.502-4.921-1.02-1.022.692 4.315 4.317 7.114.311-.29 1.786-1.767 2.185-2.193zm-12.183 9.324c.895-.492 1.804-1.025 2.715-1.597-3.273-1.905-5.069-3.683-6.034-4.648-.922-.923.386 3.347 3.319 6.245z" fill="#D67503"/>
</svg>
