<svg xmlns="http://www.w3.org/2000/svg" viewBox="0 0 36 36" xml:space="preserve">
  <path fill="#50A5E6" d="M30.562 15.127c-.944-1.292-8.539 2.967-8.613 3.014-.715.445-1.282.591-1.682.622.536-.76 1.513-1.98 2.791-2.869 6.217-4.319 5.939-4.93 5.735-5.376a.7.7 0 0 0-.486-.387c-1.081-.245-4.839 2.221-5.89 3.085-1.187.975-3.103 2.391-3.874 2.957-.877-.885.321-2.108 1.268-3.458 3.616-5.156 4.267-6.488 3.484-7.124a.797.797 0 0 0-.596-.161c-1.413.177-5.446 5.792-6.488 7.196-.887 1.192-2.942 3.345-3.659 2.048-.207-.375-.31-1.06.022-1.855.59-1.415.628-4.899-.859-5.226-1.723-.375-1.466 3.027-3.329 6.409-.631 1.145-1.227 2.227-1.186 4.864.057 3.657.096 4.554-3.2 8.797V31c0 .551.449 1 1 1h6.952c.661-1.208 1.208-2.184 1.36-2.401.359-.512 1.928-1.661 2.963-1.98 1.223-.377 3.453-1.846 4.043-2.666.517-.716 5.397-.748 7.61-3.038.289-.298.89-.92.495-1.473-.176-.249-.507-.71-2.961.44-1.203.563-3.721.927-4.637.8.751-.615 3.056-1.518 3.96-1.87 1.205-.469 3.617-1.706 4.509-2.501.675-.602 1.366-.833 1.467-1.456.041-.246-.026-.491-.199-.728z"/>
</svg>
