<svg xmlns="http://www.w3.org/2000/svg" viewBox="0 0 36 36">
  <path fill="#DD2E44" d="M22.043 8.722c-.549-.02-1.321.078-1.865.117 0 0-.078.855-1.399.894-1.321.039-1.671-.661-1.671-.661s-1.01.078-1.749.544c-.738.466-1.865.884-1.865.884s1.049 1.197.661 2.169l1.049-.315s-.352.593-.235 1.021c.117.427.538.88.581 1.269.12 1.082-.227 3.672-.383 4.021 0 0 1.225-.346 3.191-.13 1.202.133 3.042.965 3.042.965-.022-.842-.413-2.902-.559-4.01-.142-1.079.814-3.793 1.474-3.948.661-.155 1.166-.194 1.166-.194s-.155-.994 0-1.538.233-.933.233-.933-1.121-.135-1.671-.155z"/>
</svg>
