<svg xmlns="http://www.w3.org/2000/svg" viewBox="0 0 36 36">
  <path fill="#CCD6DD" d="M29.384 33.14c.016 0 .031-.002.047-.006l.91-.22c.107-.026.174-.134.147-.241-.026-.107-.134-.173-.241-.147l-.91.22c-.107.026-.174.134-.147.241.023.091.104.153.194.153zm-.174-.72c.016 0 .031-.002.047-.006l.91-.22c.107-.026.174-.134.147-.241-.025-.107-.135-.174-.241-.147l-.91.22c-.107.026-.174.134-.147.241.022.092.103.153.194.153zm-.174-.72c.016 0 .031-.002.047-.006l.91-.22c.107-.026.174-.134.147-.241s-.134-.174-.241-.147l-.91.22c-.107.026-.174.134-.147.241.022.092.103.153.194.153z"/>
</svg>
