<svg xmlns="http://www.w3.org/2000/svg" viewBox="0 0 36 36">
  <path fill="#DA9F83" d="M34.966 17.87c.414 4.649-2.082 8.731-4.831 12.206-2.304 2.554-5.602 3.631-8.901 4.285-3.198 1.089-6.766.739-9.716-.895-1.034-.43-2.248-.559-3.167-1.176-2.879-1.846-4.524-4.927-5.779-8.029-1.627-2.916-1.74-6.483-1.414-9.742.219-1.107.967-2.032 1.388-3.051.729-2.127 1.916-3.963 3.569-5.475.786-.787 1.377-1.823 2.303-2.444.919-.617 2.103-.758 3.137-1.188 1.016-.422 1.968-1.08 3.072-1.299 1.072-.213 2.201.106 3.335.106 2.235-.056 4.482.148 6.575.789 1.034.43 1.781 1.38 2.7 1.997.926.622 1.999 1.04 2.784 1.827 1.603 1.566 2.984 3.411 3.94 5.446.65 2.109.957 4.389 1.005 6.643z"/>
</svg>
