<svg xmlns="http://www.w3.org/2000/svg" viewBox="0 0 36 36">
  <path fill="#F3D2A2" d="M34.081 1.421C32.559.337 30.55 3.943 30.094 4.437l1.764 1.469-.592 5.579s-1.487-.555-2.558-.689c-.918-.115-2.56.187-2.56.187s-2.072-.714-2.422-.69c-1.15.077-2.226.689-2.226.689l-.453-1.713c.97-.747 1.608-1.972 1.608-3.363 0-2.278-1.699-4.125-3.793-4.125-2.094 0-3.786 1.856-3.582 4.125.167 1.861 1.017 3.351 2.405 3.893l-.167 1.441c-.486-.042-2.154-.302-3.21.009-2.333.688-5.404 2.711-6.08 2.81-.474.07-2.608.675-4.14.901-.277.041-.891-.966-1.416-1.033-.15-.019-.686.691-.835.672-.56-.069-1.079-.115-1.307-.022-.926.381-.4 3.381.727 3.213 0 0 2.036-.483 2.793-.574 1.669-.2 4.343-.272 5.317-.536 1.416-.382 4.34-1.451 4.34-1.451-.139.467-.394 2.713-.28 3.517.268 1.875.962 5.411 1.262 7.116.447 2.541 6.525.148 8.302.148 0 0-.805-3.362.344-6.154.538-1.309 1.18-4.824 1.191-5.175 0 0 7.852.208 8.847-.557 1.012-.777.65-8.46.565-8.232.315-.299 1.437-3.548.143-4.471z"/>
</svg>
