<svg xmlns="http://www.w3.org/2000/svg" viewBox="0 0 36 36">
  <path fill="#269" d="M12.001 22c-.323 0-.64-.156-.833-.445-1.742-2.614-6.319-3.565-6.365-3.574-.541-.109-.892-.636-.783-1.178.109-.541.632-.891 1.176-.783.221.044 5.431 1.119 7.636 4.426.306.46.182 1.08-.277 1.387-.171.112-.364.167-.554.167zm11.998 0c-.19 0-.383-.055-.554-.168-.46-.307-.584-.927-.277-1.387 2.204-3.307 7.415-4.382 7.636-4.426.54-.106 1.067.242 1.176.783.109.542-.241 1.068-.782 1.178-.046.009-4.623.96-6.365 3.574-.193.29-.511.446-.834.446z"/>
</svg>
