<svg xmlns="http://www.w3.org/2000/svg" viewBox="0 0 36 36">
  <path fill="#FFD983" d="M9.783 2.181c1.023 1.413 2.446 4.917 1.717 5.447-.728.531-3.607-1.91-4.63-3.323-1.022-1.413-.935-2.668-.131-3.254.804-.587 2.02-.282 3.044 1.13zm19.348 2.124C28.109 5.718 25.23 8.16 24.5 7.627c-.729-.53.695-4.033 1.719-5.445C27.242.768 28.457.463 29.262 1.051c.803.586.89 1.841-.131 3.254zM16.625 33.291c-.001-1.746.898-5.421 1.801-5.421.897 0 1.798 3.675 1.797 5.42 0 1.747-.804 2.712-1.8 2.71-.994.002-1.798-.962-1.798-2.709zm16.179-9.262c-1.655-.539-4.858-2.533-4.579-3.395.277-.858 4.037-.581 5.69-.041 1.655.54 2.321 1.605 2.013 2.556-.308.95-1.469 1.42-3.124.88zM2.083 20.594c1.655-.54 5.414-.817 5.694.044.276.857-2.928 2.854-4.581 3.392-1.654.54-2.818.07-3.123-.88-.308-.95.354-2.015 2.01-2.556z"/>
</svg>
