<svg xmlns="http://www.w3.org/2000/svg" viewBox="0 0 36 36">
  <path fill="#88C9F9" d="M28.667 16.396c0 .955-.793 1.729-1.771 1.729-.979 0-1.771-.774-1.771-1.729 0-.955.793-1.729 1.771-1.729.978 0 1.771.774 1.771 1.729z"/>
  <path fill="#88C9F9" d="M30.667 18.396c0 .955-.793 1.729-1.771 1.729-.979 0-1.771-.774-1.771-1.729 0-.955.793-1.729 1.771-1.729.978 0 1.771.774 1.771 1.729z"/>
  <path fill="#88C9F9" d="M28.667 19.396c0 .955-.793 1.729-1.771 1.729-.979 0-1.771-.774-1.771-1.729 0-.955.793-1.729 1.771-1.729.978 0 1.771.774 1.771 1.729zm-6.593 6.557c.658.262.974 1.021.706 1.694-.269.674-1.02 1.007-1.678.745-.657-.262-.974-1.02-.705-1.694.268-.674 1.02-1.008 1.677-.745z"/>
  <path fill="#88C9F9" d="M24.001 25.124c.658.262.974 1.021.706 1.694-.269.674-1.021 1.008-1.678.746-.657-.263-.975-1.022-.705-1.695.269-.674 1.02-1.007 1.677-.745z"/>
  <path fill="#88C9F9" d="M24.142 26.776c.657.262.973 1.021.705 1.694-.269.674-1.02 1.007-1.678.745-.657-.262-.974-1.021-.705-1.694.268-.673 1.02-1.007 1.678-.745z"/>
</svg>
