<svg xmlns="http://www.w3.org/2000/svg" viewBox="0 0 36 36">
  <path fill="#C1694F" d="M27.843 11.9c.205-.371.39-.766.548-1.183 1.209-3.187.467-6.423-1.658-7.229-1.588-.602-3.499.326-4.868 2.164-.397-1.141-.548-2.209-.092-2.652h-8.228c.455.443.304 1.511-.093 2.652-1.369-1.838-3.28-2.766-4.868-2.164-2.125.806-2.868 4.042-1.659 7.229.158.418.344.812.548 1.183-1.184 1.166-2.157 2.879-2.157 5.563 0 6.17 8.227 13.39 9.256 15.447-.126.045 6.297.045 6.171 0C21.773 30.852 30 23.633 30 17.462c0-2.683-.973-4.396-2.157-5.562zM11.488 9.214c-.382.382-1.333.768-2.377 1.418-.111-.198-.214-.406-.299-.631-.617-1.624-.237-3.272.845-3.683.931-.354 2.076.329 2.772 1.559-.335.585-.673 1.069-.941 1.337zm15.017.787c-.085.225-.188.433-.299.632-1.044-.65-1.995-1.036-2.377-1.418-.268-.268-.606-.753-.94-1.337.695-1.23 1.841-1.913 2.772-1.559 1.081.41 1.461 2.058.844 3.682z"/>
</svg>
