<svg xmlns="http://www.w3.org/2000/svg" viewBox="0 0 36 36">
  <path d="M18.546 31.747H16.63c-2.057 0-5.142.971-5.142 3.027 0 1.029 3.942 1.143 6.085 1.143h.032c2.143 0 6.084-.113 6.084-1.143-.001-2.056-3.085-3.027-5.143-3.027zM30 17.462c0-2.611-.923-4.299-2.063-5.462H7.38c-1.14 1.163-2.063 2.852-2.063 5.462 0 1.481.481 3.022 1.216 4.538h22.251C29.519 20.484 30 18.943 30 17.462zM23.688 1.373c0-1.011-3.808-1.159-5.972-1.164H17.6c-2.164.005-5.972.152-5.972 1.164 0 2.013 3.796 2.942 5.887 2.982h.285c2.093-.041 5.888-.97 5.888-2.982z" fill="#272B2B"/>
</svg>
