<svg xmlns="http://www.w3.org/2000/svg" viewBox="0 0 36 36">
  <path d="M13.031 20H10.46c-.284 0-.514-.216-.514-.5s.23-.5.514-.5H13v-4H9v1h2.488c.284 0 .514.216.514.5s-.23.5-.514.5H9.062C8.521 17 8 16.854 8 16.229v-1.315c0-.726.604-.914.888-.914h4.143c.698 0 .969.479.969.915v4.114c0 .617-.458.971-.969.971zm14 0h-2.572c-.283 0-.514-.216-.514-.5s.231-.5.514-.5H27v-4h-4v1h2.488c.283 0 .514.216.514.5s-.231.5-.514.5h-2.426c-.541 0-1.062-.146-1.062-.771v-1.315c0-.726.604-.914.889-.914h4.143c.697 0 .968.479.968.915v4.114c0 .617-.458.971-.969.971zm-7 0h-2.572c-.283 0-.514-.216-.514-.5s.231-.5.514-.5H20v-4h-4v1h2.488c.283 0 .514.216.514.5s-.231.5-.514.5h-2.426c-.541 0-1.062-.146-1.062-.771v-1.315c0-.726.604-.914.889-.914h4.143c.697 0 .968.479.968.915v4.114c0 .617-.458.971-.969.971z" fill="#C1694F"/>
</svg>
