<svg xmlns="http://www.w3.org/2000/svg" viewBox="0 0 36 36">
  <path fill="#9266CC" d="M17.261 7H7.739C7.332 7 7 6.668 7 6.261v-.522C7 5.332 7.332 5 7.739 5h9.523c.406 0 .738.332.738.739v.523c0 .406-.332.738-.739.738zm0 4H7.739C7.332 11 7 10.668 7 10.261v-.522C7 9.332 7.332 9 7.739 9h9.523c.406 0 .738.332.738.739v.523c0 .406-.332.738-.739.738zm0 4H7.739C7.332 15 7 14.668 7 14.261v-.523c0-.406.332-.738.739-.738h9.523c.406 0 .738.332.738.739v.523c0 .406-.332.738-.739.738zm0 4H7.739C7.332 19 7 18.668 7 18.261v-.523c0-.406.332-.738.739-.738h9.523c.406 0 .738.332.738.739v.523c0 .406-.332.738-.739.738zm0 4H7.739C7.332 23 7 22.668 7 22.261v-.523c0-.406.332-.738.739-.738h9.523c.406 0 .738.332.738.739v.523c0 .406-.332.738-.739.738zm0 4H7.739C7.332 27 7 26.668 7 26.261v-.523c0-.406.332-.738.739-.738h9.523c.406 0 .738.332.738.739v.523c0 .406-.332.738-.739.738zm0 4H7.739C7.332 31 7 30.668 7 30.261v-.523c0-.406.332-.738.739-.738h9.523c.406 0 .738.332.738.739v.523c0 .406-.332.738-.739.738z"/>
</svg>
