<svg xmlns="http://www.w3.org/2000/svg" viewBox="0 0 36 36">
  <path fill="#292F33" d="M33.334 27.096c-.588-1.143-1.532-4.627-1.246-5.976.286-1.349 1.015-3.975.402-6.053L30.216 7.36s-.108-1.503-1.519-1.122c-1.949.526-1.501 2.043-1.501 2.043l.715 3.092 1.157 2.42s-.701.206-1.551-2.674l-2.872-9.731S24.578-.1 23.16.255c-1.85.463-1.521 2.102-1.521 2.102l2.662 9.02c-.402.05-.456.203-.46.191l-2.905-9.846S21.015.261 19.582.543c-1.92.377-1.695 2.08-1.695 2.08l2.939 9.851c.003.012-.479.156-.473.176l-2.506-8.494s.059-1.547-1.355-1.179c-2.018.525-1.659 2.142-1.659 2.142l2.676 9.05c.024.083-.45.226-.419.33l-1.92-6.507s.079-1.461-1.355-1.178c-1.837.363-1.448 2.006-1.448 2.006l3.101 10.51.037-.011c-.02.005.074.474.17.711.604 1.49 1.395 2.726 2.324 3.706.029.094.078.186.163.277.969 1.036 3.396 4.267 4.325 7.59.581 2.078 4.215.914 5.026.556 1.078-.477-.641-3.61-.753-4.311-.112-.701.618-1.482 1.096-.51.479.972.646 4.026 1.657 3.835 1.012-.191 2.888-1.17 3.558-1.855.44-.452.851-1.079.263-2.222z"/>
</svg>
