<svg xmlns="http://www.w3.org/2000/svg" viewBox="0 0 36 36">
  <path fill="#99AAB5" d="M30.041 25.625c-1.09-.681-3.682-3.193-4.127-4.498-.444-1.305-1.16-3.935-2.75-5.407l-5.895-5.461s-1.072-.993-2.065.079c-.992 1.072.08 2.064.08 2.064l2.297 2.128 1.991 1.844s-.497.536-2.701-1.505L9.427 7.974s-1.072-.993-2.065.079c-.992 1.072.079 2.065.079 2.065l7.039 6.52c-.015-.014-.53.504-.54.495l-7.531-6.976s-1.072-.993-2.065.079c-.993 1.072.079 2.064.079 2.064l7.532 6.977c.009.008-.475.556-.46.57L4.999 13.83s-1.072-.993-2.065.079c-.993 1.072.079 2.065.079 2.065l6.907 6.398c.063.059-.362.661-.283.734l-4.977-4.61s-1.072-.993-2.065.08c-.993 1.072.079 2.065.079 2.065l8.039 7.447s.332.341.536.496c1.28.972 2.444 1.603 3.741 2.01.127.042.314.107.433.141 1.363.395 5.1 1.931 7.597 4.311 1.562 1.489 4.09-1.37 4.603-2.092.683-.961-2.397-2.775-2.851-3.32-.454-.545-.227-1.589.681-.999s2.613 3.13 3.385 2.448c.772-.681 1.884-2.482 2.11-3.413.149-.614.182-1.364-.907-2.045z"/>
</svg>
