<svg xmlns="http://www.w3.org/2000/svg" viewBox="0 0 36 36">
  <path fill="#66757F" d="M19.097 27.624c-.067 0-.136-.014-.202-.043l-6.529-2.883c-.252-.111-.367-.406-.255-.659.112-.252.406-.366.66-.255l6.529 2.883c.252.111.367.406.255.659-.083.187-.267.298-.458.298zm2.497-2.997c-.127 0-.253-.048-.351-.144l-5.253-5.167c-.197-.193-.2-.51-.006-.707.193-.197.51-.2.707-.006l5.252 5.167c.197.193.199.51.006.707-.096.1-.226.15-.355.15zm-1.226 1.453c-.098 0-.195-.028-.281-.087l-6.235-4.241c-.229-.155-.288-.466-.132-.694.155-.229.467-.286.695-.132l6.235 4.241c.228.155.287.466.132.694-.097.143-.255.219-.414.219z"/>
</svg>
