<svg xmlns="http://www.w3.org/2000/svg" viewBox="0 0 36 36">
  <path fill="#78B159" d="M24.735 8.258c-.786 1.067-2.577 1.082-3.999.033-1.423-1.048-1.938-2.763-1.151-3.83.785-1.067 2.576-1.082 3.999-.033 1.423 1.048 1.937 2.763 1.151 3.83"/>
  <path fill="#78B159" d="M26.205 5.37c.845 1.281.107 3.255-1.645 4.41-1.752 1.154-3.858 1.052-4.701-.229-.843-1.28-.106-3.254 1.646-4.409 1.753-1.155 3.856-1.053 4.7.228"/>
  <path fill="#78B159" d="M20.71 8.144c-.874 1.148-2.897 1.476-2.897 1.476s1.695 1.257 2.733.546c1.038-.71.164-2.022.164-2.022m2.551-3.28c-.055-.82 1.312-2.295 1.967-1.913 0 0-.874.984-.054 1.585.819.601-1.913.328-1.913.328"/>
</svg>
