<svg xmlns="http://www.w3.org/2000/svg" viewBox="0 0 36 36" xml:space="preserve">
  <path fill="#FFDC5D" d="m0 7.932 5.215 2.235c1.182.506 2.439.812 3.722.903l9.516.68c1.678.12 3.309.605 4.78 1.422l5.027 2.793a11.542 11.542 0 0 0 3.705 1.295l2.226.371a2.166 2.166 0 0 1-.356 4.302c-2.527 0-5.025-.541-7.325-1.587l-2.873-1.306a11.534 11.534 0 0 0-9.316-.101 2.247 2.247 0 0 0-1.067 3.185l1.183 2.07a8.425 8.425 0 0 1 .946 5.832 1.945 1.945 0 0 1-2.371 1.507c-.331-.081-.583-.355-.677-.682l-.835-2.919-5.501-6.602a9.564 9.564 0 0 0-5.028-3.156L0 17.932v-10z"/>
</svg>
