<svg xmlns="http://www.w3.org/2000/svg" viewBox="0 0 36 36">
  <path fill="#553986" d="M15.894 14.211l-6-3c-.988-.494-2.189-.093-2.684.895-.494.988-.093 2.189.895 2.684l4.212 2.106c-.306.533-.317 1.105-.317 1.105v2s0 2 2 2 2-2 2-2v-2s-.003-.109-.025-.263c.338-.189.628-.471.814-.843.494-.988.093-2.189-.895-2.684zm12.895-2.105c-.493-.986-1.694-1.391-2.684-.895l-6 3c-.988.494-1.389 1.695-.895 2.684.186.372.476.654.814.843-.021.154-.024.263-.024.263v2s0 2 2 2 2-2 2-2v-2s-.011-.572-.318-1.105l4.212-2.106c.989-.495 1.389-1.696.895-2.684zm-4.507 17.489c-.039-.165-.985-3.848-6.282-3.848-5.291 0-6.245 3.69-6.282 3.848-.063.26.047.525.274.661.227.135.515.098.703-.092.015-.016 1.583-1.522 5.306-1.522s5.291 1.507 5.305 1.521c.108.112.259.176.412.176.1 0 .199-.026.289-.079.224-.134.338-.407.275-.665z"/>
</svg>
