<svg xmlns="http://www.w3.org/2000/svg" viewBox="0 0 36 36">
  <path d="M8.52 22.262l.169.584h.587l-.464.357.171.567-.463-.358-.464.342.17-.551-.464-.357h.572zm-1.532-6.504l-.678.627.067-.921-.914-.139.763-.523-.46-.801.883.27.339-.859.339.859.884-.27-.46.801.762.522-.913.14.067.921zM3.365 21.07l-.678.627.067-.921-.914-.139.763-.522-.46-.802.883.271.339-.859.339.859.884-.271-.46.802.762.522-.913.139.067.921zm7.111-.438l-.679.627.067-.921-.914-.14.763-.522-.46-.801.884.27.339-.859.338.859.884-.27-.46.801.762.521-.913.141.067.921zm-3.547 7.741L6.25 29l.067-.922-.914-.138.763-.524-.46-.801.884.27.339-.86.339.86.883-.27-.46.801.762.522-.913.14.067.922z" fill="#FFF"/>
</svg>
