<svg xmlns="http://www.w3.org/2000/svg" viewBox="0 0 36 36">
  <path fill="#FFC639" d="M29.617 6.518c.232-.182 2.409 1.969 2.668 2.384.259.415.156 1.969.415 2.669s.491.856.751.7c.259-.156 1.167 0 1.296.337 0 0-.726.441-.777.752 0 0-2.306.803-3.628 1.477-1.321.674-.979.328-2.072.804-1.607.699-3.059.362-4.12.207-1.064-.155-.753-.389 0-.284.751.104 3.004-.13 3.601-.337.596-.207 1.763-1.14 2.255-1.373.492-.233 1.114-1.088.57-1.607-.546-.521-2.178-1.247-2.826-1.947-.648-.699-.647-.803.363-.647 1.011.156 1.898.689 2.383 1.173.52.519.981-.145.669-.975-.311-.83-.745-.743-1.031-1.495-.284-.751-.751-1.657-.517-1.838z"/>
</svg>
