<svg xmlns="http://www.w3.org/2000/svg" viewBox="0 0 36 36">
  <path fill="#AA8DD8" d="M22.41 18.221c.199-.16.459-.244.734-.215.867.094 1.598.396 2.109.873.541.505.807 1.183.734 1.862-.129 1.191-1.324 2.285-3.363 2.065-.793-.085-1.146.17-1.158.291-.014.121.277.446 1.07.532.867.094 1.598.396 2.109.873.541.505.809 1.183.734 1.862-.129 1.192-1.324 2.285-3.361 2.066-.578-.062-.883.057-1.012.134-.103.063-.144.124-.148.158-.012.12.275.445 1.07.531.549.06.947.553.887 1.102-.059.549-.551.946-1.102.887-2.037-.219-2.973-1.542-2.844-2.735.129-1.192 1.324-2.285 3.363-2.065.578.063.881-.057 1.01-.134.104-.062.145-.123.148-.157.014-.121-.275-.446-1.07-.532-2.037-.22-2.973-1.542-2.844-2.735.129-1.192 1.324-2.286 3.361-2.064.578.062.883-.058 1.012-.135.103-.062.144-.123.148-.157.012-.121-.277-.446-1.07-.532-.549-.059-.947-.553-.887-1.102.032-.276.171-.512.37-.673z"/>
</svg>
