<svg xmlns="http://www.w3.org/2000/svg" viewBox="0 0 36 36">
  <path fill="#77B255" d="M15.266 35.828c-1.973.557-3.334-.322-3.658-1.477-.324-1.154.378-2.615 2.35-3.17.77-.216 1.001-.584.97-.701-.034-.119-.425-.312-1.193-.096-1.972.556-3.333-.324-3.657-1.479-.326-1.155.378-2.614 2.351-3.169.769-.217 1.001-.586.967-.703-.033-.116-.423-.311-1.192-.095-.53.149-1.084-.159-1.233-.69-.148-.533.161-1.084.693-1.234 1.971-.555 3.333.322 3.659 1.479.324 1.154-.379 2.613-2.352 3.17-.77.216-1.001.584-.967.701.032.117.422.312 1.19.096 1.974-.556 3.334.322 3.659 1.479.325 1.153-.378 2.612-2.352 3.169-.768.215-.999.586-.967.701.034.118.423.312 1.192.097.532-.151 1.083.159 1.233.69.149.531-.161 1.084-.693 1.232z"/>
</svg>
