<svg xmlns="http://www.w3.org/2000/svg" viewBox="0 0 36 36">
  <g fill="#FFF">
    <path d="M17.844 21.333c-1.841 0-3.333-1.492-3.333-3.333 0-1.841 1.492-3.333 3.333-3.333.982 0 1.865.425 2.475 1.101C19.601 14.701 18.382 14 17 14c-2.209 0-4 1.791-4 4s1.791 4 4 4c1.382 0 2.601-.701 3.32-1.768-.61.676-1.493 1.101-2.476 1.101z"/>
    <path d="M23.667 17.998l-1.196-.424.544-1.146-1.146.545-.426-1.195-.424 1.196-.003-.002-1.144-.542.546 1.146-1.196.426 1.196.424-.544 1.146 1.141-.543.005-.002.426 1.195.424-1.196 1.147.544-.546-1.146z"/>
  </g>
</svg>
