<svg xmlns="http://www.w3.org/2000/svg" viewBox="0 0 36 36">
  <path fill="#BF6952" d="M21.755 22.015c-.257-.256-.657-.268-.913-.013-.006.005-.643.49-2.842.49-2.118 0-2.787-.449-2.839-.487-.257-.232-.654-.225-.902.024-.256.256-.256.671 0 .927.036.036.118.186.265.389-.033.156-.031.32.009.481.008.034.02.067.036.098l1.012 2.072c.084.172.258.281.449.281h.009c.194-.003.369-.119.448-.296l.484-1.085c.31.062.647.104 1.029.104.367 0 .694-.037.996-.096l.479 1.075c.079.177.254.293.448.296h.009c.191 0 .365-.109.449-.281l1.012-2.072c.015-.031.027-.064.036-.098.036-.144.032-.29.008-.432.167-.226.265-.4.304-.438.256-.256.27-.683.014-.939z"/>
</svg>
