<svg xmlns="http://www.w3.org/2000/svg" viewBox="0 0 36 36">
  <path fill="#292F33" d="M25.362 30.28C24.879 29.642 21.947 26 18 26c-4.234 0-7.3 4.191-7.428 4.37-.121.167-.085.381.084.516.094.075.219.114.344.114.096 0 .193-.023.277-.07.029-.016 2.918-1.597 6.722-1.597 3.792 0 6.695 1.581 6.723 1.597.086.048.215.08.281.07.277-.003.516-.182.516-.417.001-.119-.059-.226-.157-.303z"/>
  <g fill="#292F33">
    <ellipse cx="12" cy="14.5" rx="2" ry="3.5"/>
    <ellipse cx="24" cy="14.5" rx="2" ry="3.5"/>
    <path d="M21.137 13.031c-.225-.06-.425-.215-.547-.45-.243-.469-.079-1.081.366-1.366 4.834-3.099 8.616-2.136 8.775-2.093.486.13.764.668.621 1.202-.142.532-.65.859-1.135.731-.058-.015-3.27-.777-7.383 1.859-.221.144-.471.178-.697.117zm-6.274.001c-.225.06-.476.026-.698-.116-4.13-2.647-7.352-1.867-7.384-1.859-.486.124-.993-.205-1.133-.737s.136-1.066.62-1.196c.159-.042 3.941-1.005 8.775 2.093.445.285.609.896.366 1.366-.121.234-.321.388-.546.449z"/>
  </g>
</svg>
