<svg xmlns="http://www.w3.org/2000/svg" viewBox="0 0 36 36">
  <path fill="#D39954" d="M26.617 32.441c-.02-.039-.373-.678-1.025-1.172.103-.421.056-.835-.307-1.103-.9-.662-8.82.226-9.386 3.057-.234 1.171.588 1.171 1.038.809-.137.499-.212 1.011-.169 1.49.024.269.261.467.531.444.029-.002.057-.007.084-.015.225-.06.381-.275.36-.516-.03-.334.022-.694.111-1.051.201.18.424.327.686.269.312-.07.51-.378.64-.712.015.212.046.348.05.363.069.259.333.411.593.345l.006-.002c.257-.069.411-.333.348-.591-.004-.017-.051-.229-.019-.565.442.267 1 .509 1.457.398.581-.142.859-.631.997-1.113.439.412.698.895.958 1.454.101.219.344.327.569.267.028-.007.054-.016.08-.029.246-.113.352-.405.238-.65-.185-.399-.414-.88-.793-1.348.346.231.711.393.95.253.166-.097.364-.302.545-.553.377.336.589.721.592.727.11.204.344.3.559.242.035-.009.069-.023.103-.04.239-.126.33-.419.204-.658z"/>
</svg>
