<svg xmlns="http://www.w3.org/2000/svg" viewBox="0 0 36 36">
  <path fill="#E2A759" d="M13.66 32.585c-3.296-1.993-7.838-5.273-8.227-11.23-.425-6.519 4.936-10.098 5.304-13.826.444 4.428-3.559 7.236-3.214 12.866.313 5.101 2.429 8.841 6.137 12.19z"/>
  <path fill="#E2A759" d="M19.764 32.885c-3.097-1.934-6.932-5.916-7.944-11.203-1.457-7.611 1.103-12.145.203-17.89 1.897 6.644 1.034 9.757 2.302 16.336.825 4.282 2.9 10.213 5.439 12.757zm8.158-4.121c1.858-3.374 4.302-8.526 1.66-13.88-2.891-5.858-9.474-6.237-11.657-9.281 1.829 4.057 6.85 4.447 9.367 9.495 2.28 4.574 2.166 8.912.63 13.666z"/>
  <path fill="#E2A759" d="M22.786 32.076c1.715-3.223 3.045-8.589 1.278-13.674-2.543-7.32-7.027-9.966-9.121-15.392 1.679 6.703 3.983 8.966 6.174 15.298 1.427 4.12 2.596 10.295 1.669 13.768z"/>
</svg>
