<svg xmlns="http://www.w3.org/2000/svg" viewBox="0 0 36 36">
  <path fill="#FFAC33" d="M28.287 13.078l-.051-.001c-.552-.027-.976-.497-.949-1.048.001-.016.063-2.157-1.58-3.8-1.638-1.637-3.772-1.579-3.801-1.58-.55.033-1.021-.398-1.049-.948-.027-.552.397-1.022.949-1.049.122-.012 3.028-.123 5.314 2.163 2.287 2.288 2.17 5.191 2.164 5.314-.026.533-.468.949-.997.949z"/>
  <path fill="#FFAC33" d="M31.846 12.522c-.109 0-.221-.019-.33-.057-.521-.183-.796-.753-.613-1.274.034-.107.893-2.876-2.195-5.963-3.126-3.127-6.126-2.414-6.252-2.382-.529.137-1.077-.184-1.216-.715-.14-.531.172-1.074.701-1.217.17-.046 4.205-1.077 8.181 2.901 4.016 4.014 2.726 7.876 2.668 8.039-.144.41-.531.668-.944.668z"/>
</svg>
