<svg xmlns="http://www.w3.org/2000/svg" viewBox="0 0 36 36">
  <path fill="#77B253" d="M28.342 15.689c.114-.099.175-.158.244-.148.071.011.166.006.236-.016.07-.022.421-.065.564-.017.048.006.113.032.213.117.102.084.248.231.198.637-.05.406-.033.58-.054.807-.037.4-.128.732-.287.705.217.378.237.704.378.964.141.259.23.791.174 1.365-.055.574-.206 1.863.249 2.73-.076.054-.26 0-.423-.174-.161-.174-.233-.167-.368-.065-.41.312-.796.693-1.365.312-.13-.086-.17-.189-.076-.454.239-.661.354-1.566.316-1.992v-4.771z"/>
</svg>
