<svg xmlns="http://www.w3.org/2000/svg" viewBox="0 0 36 36">
  <path fill="#FAAA34" d="M26.022 20.594c.347.357 1.43 1.503 1.569 1.633.141.13.207.12.262-.01.392-.943.293-2.145-.678-3.327-.157.581-.562.958-1.196 1.094-.323.069-.379.277-.32.357.088-.156.282-.162.375.017.074.147-.024.331-.186.38-.162.048-.401.043-.498-.126-.098-.167-.178-.558.271-.751.45-.196.933-.396 1.023-.798.093-.4.217-.595.488-.622 1.5 1.381 1.69 2.926 1.066 4.306-.151.335-.39.423-.553.218-.162-.207-1.297-1.549-1.882-2.21.135-.009.224-.084.259-.161z"/>
</svg>
