<svg xmlns="http://www.w3.org/2000/svg" viewBox="0 0 36 36">
  <path fill="#F6DDCD" d="M28.733 15.282c.03.093.046.212-.003.319-.05.109-.06.239.022.396.131-.184.314-.147.422-.255.109-.108.131-.211.213-.233-.082-.07-.207-.146-.18-.352.027-.206.314-.374.054-.688-.167-.203-.411-.146-.517-.068-.05.037-.092.089-.109.125-.015.035.005.115-.035.163-.026.033-.059.065-.097.092-.024.017-.04.043-.014.073.01.012.029.015.05.022-.011.025-.025.049-.039.067-.013.016-.008.032.009.045-.021.065.019.073-.009.121-.022.042-.055.092.032.141.025.014.141.04.201.032zm-1.054 1.079c-.15.038-.393-.027-.58-.005-.08.009-.145-.033-.135-.113.011-.082.022-.207.006-.321-.024-.177.06-.422.179-.693.12-.271.18-.422.18-.549 0-.085.007-.179.083-.228.057-.036.067-.071.088-.1.045-.068.089-.084.093-.044.005.025-.004.047-.025.08.049-.04.13-.088.151-.102.018-.013.113-.081.118-.017.039-.019.066-.018.073.002.011.023.004.032-.014.048.026-.006.059.042.005.084.027-.01.056.037.006.081-.052.045-.112.076-.132.112-.018.035-.147.133-.198.155-.05.022-.053.051-.053.127 0 .834-.101.767-.101.967 0 .054-.011.103.043.086.056-.016.134-.041.214-.041v.471zm.034 1.798c.245-.124.524-.168.671-.207.146-.037.38-.151.493-.211.113-.059.205-.14.27-.162.065-.021.139-.066.179-.147.212-.411.325-.742.325-1.028 0-.19-.05-.4-.233-.25-.172.143-.36.418-.411.618-.077.304-.14.368-.157.429-.016.059-.077.059-.152.075-.318.071-.395.12-.633.298-.239.179-.498.336-.673.433-.173.097-.204.108-.243.187-.038.079-.072.138-.105.174-.033.035-.043.076-.035.119.006.035-.01.197-.014.252-.002.054.011.068.033.07.021.002.051-.008.062-.073-.012.066.079.043.084-.005-.003.07.092.029.098-.036 0 .045.071.014.077-.008.017-.055.031-.114.052-.157.031-.063.066-.145.128-.19.07-.051.037-.108.184-.181zm1.754 4.437c.018.059.046.127.058.166.012.041-.009.054-.02.078-.057.117-.117.307-.126.41-.007.06-.047.118-.066.151-.021.038-.014.07.035.107.023.017.098-.006.105-.043.028.026.077.015.098-.026.024.026.065.008.092-.032.025.017.061-.015.074-.038.037.02.078-.004.079-.078 0-.014.01-.041.021-.057.009-.018.014-.053.013-.083-.001-.03.018-.089.044-.132.025-.041.07-.115.05-.186-.016-.066-.046-.061-.069-.155-.06-.063-.141-.149-.225-.153-.085-.005-.134.05-.163.071zm-1.54.464c.075.076.245.079.366-.049-.044-.019-.14-.062-.183-.098-.059.061-.128.129-.183.147z"/>
</svg>
