<svg xmlns="http://www.w3.org/2000/svg" viewBox="0 0 36 36">
  <path fill="#955C0F" d="M28.693 14.449c.029-.193.165-.188.252-.168.035.008.121.016.202-.006.16-.043.282.014.267.168.043.032.088.108.08.173-.007.065.006.092.064.101.06.008.188.081.104.184.082.049.144.173.101.257-.043.083-.175.097-.227.021-.061.027-.157.032-.218-.03-.041.048-.145.043-.164 0-.018-.044-.049-.066-.088-.079-.043-.014-.047-.133.019-.146-.01-.035-.006-.076.011-.094.015-.02.003-.055-.036-.084-.037-.03-.07-.144-.033-.206-.063.022-.208-.04-.238-.084-.027-.042-.068-.045-.096-.007z"/>
</svg>
