<svg xmlns="http://www.w3.org/2000/svg" viewBox="0 0 36 36">
  <path d="M29.638 15.237c-.043 0-.081-.018-.104-.048-.063.027-.154.028-.215-.028-.022.022-.057.031-.088.031l-.02-.001c-.031-.004-.055-.018-.063-.038-.016-.038-.042-.062-.083-.074-.027-.009-.038-.048-.037-.08.002-.032.016-.068.05-.079-.009-.037-.003-.075.014-.094.011-.014.003-.045-.035-.073-.037-.03-.068-.135-.042-.201l-.018.001c-.074 0-.186-.052-.213-.091-.013-.02-.028-.031-.044-.031h-.001c-.015 0-.028.008-.039.023l-.014-.005c.012-.073.039-.125.082-.155.045-.031.103-.037.18-.02.034.007.12.015.198-.006.095-.025.177-.016.227.026.038.032.056.083.05.146.045.035.088.112.08.177-.007.064.006.085.058.092.041.005.11.039.132.092.009.022.012.056-.019.097.082.053.141.176.097.263-.022.042-.068.071-.121.075l-.012.001zm-.099-.067l.003.005c.022.031.063.05.105.046.047-.003.089-.028.108-.066.041-.081-.02-.201-.098-.248l-.008-.004.006-.007c.025-.031.032-.061.021-.089-.019-.046-.082-.078-.12-.083-.068-.009-.077-.047-.071-.109.008-.06-.033-.134-.077-.166l-.003-.002v-.004c.007-.06-.009-.107-.044-.137-.045-.038-.124-.046-.213-.023-.081.022-.17.014-.206.006-.074-.017-.127-.011-.167.017-.035.024-.059.064-.071.121.01-.007.021-.011.032-.011h.002c.021 0 .041.014.056.038.024.035.134.085.201.085.011 0 .021-.001.029-.004l.019-.006-.01.018c-.035.057-.005.167.031.196.02.015.033.032.04.049.007.018.006.034-.003.045-.015.017-.019.054-.01.088l.003.008-.008.001c-.031.006-.044.039-.045.067-.002.032.009.06.025.065.046.014.076.042.093.083.007.014.025.025.052.028.031.005.076-.002.1-.03l.006-.006.005.006c.057.057.146.055.21.028l.007-.005zm-.805.12l-.002-.015c.051-.007.085-.025.115-.042s.059-.032.097-.032h.009v.015c-.039-.002-.065.012-.098.03-.032.018-.067.037-.121.044zm-.149 2.018l-.01-.011c.171-.157.108-.495.062-.742l-.003-.015c-.037-.213 0-.397.111-.547l.012.009c-.108.146-.145.327-.107.535l.002.015c.047.251.111.594-.067.756zm.268.575c-.06 0-.119-.012-.168-.037l.006-.014c.11.055.27.045.362-.021.096-.07.272-.072.406-.043l-.004.015c-.123-.026-.301-.026-.395.041-.054.039-.13.059-.207.059z"/>
</svg>
