<svg xmlns="http://www.w3.org/2000/svg" viewBox="0 0 36 36" xml:space="preserve">
  <path d="m25.611 13.218-.726.726c-.336-.57-.739-1.111-1.228-1.6s-1.03-.892-1.6-1.228l.726-.726a9.046 9.046 0 0 1 2.828 2.828zM12.343 23.657a7.975 7.975 0 0 1-1.228-1.6l-.726.726a9.056 9.056 0 0 0 2.828 2.828l.726-.726a7.975 7.975 0 0 1-1.6-1.228zm12.542-1.601c-.336.57-.739 1.111-1.228 1.6s-1.03.892-1.6 1.228l.726.726a9.056 9.056 0 0 0 2.828-2.828l-.726-.726zm-14.496-8.838.726.726c.336-.57.739-1.111 1.228-1.6s1.03-.892 1.6-1.228l-.726-.726a9.046 9.046 0 0 0-2.828 2.828z" fill="#AEB3B2"/>
</svg>
