<svg xmlns="http://www.w3.org/2000/svg" viewBox="0 0 36 36">
  <path fill="#FFF" d="M17.114 15.688c-.176-1.208-1.313-.833-1.796 0-.483.833-.9 1.333-1.347.75-.447-.583-.742-1.208-.096-2l.646-.792c-.092-.479-.479-.375-1.033-.146-.554.229-.904.125-.849.375.056.25.258.271.258.271s-.349.34-.441 1.513c-.092-1.173-.441-1.513-.441-1.513s.203-.021.258-.271c.055-.25-.295-.146-.849-.375s-.941-.333-1.033.146l.646.792c.646.792.351 1.417-.096 2-.446.583-.864.146-1.347-.688-.483-.833-1.621-1.208-1.796 0-.176 1.208.028 3.312.028 3.312s-.111 1.146.111 2.125c.221.979.351 1.854 0 2.604.387-.104.627-.604.627-.604s-.129.604.111.542c.24-.062.295-.521.479-.688.185-.166.333-.541.333-.541s.388-.146 0 .5c.314.021.517-.188.517-.188l.11.584.185-.312.092.562.332-.542.218.25s.041-1.062.336-.854c.295.208.313.896.111 1.312-.203.416 0 .584 0 .584s-.295.438-.446.688c-.151.25.078.541.078.541s-.572.854-.413 1.188c.154.32 1.107.524 1.804.539l.006.003.039-.001.039.001.006-.003c.697-.015 1.65-.219 1.804-.539.16-.333-.413-1.188-.413-1.188s.228-.291.078-.541c-.151-.25-.447-.688-.447-.688s.203-.168 0-.584c-.202-.416-.184-1.104.111-1.312.295-.208.335.854.335.854l.218-.25.332.542.092-.562.185.312.11-.584s.203.208.517.188c-.388-.646 0-.5 0-.5s.148.375.332.542.24.625.48.688c.24.062.111-.542.111-.542s.24.5.627.604c-.35-.75-.221-1.626 0-2.604.222-.979.111-2.125.111-2.125s.206-2.167.03-3.375z"/>
</svg>
