<svg xmlns="http://www.w3.org/2000/svg" viewBox="0 0 36 36">
  <path fill="#EDB92E" d="M11.891 14.312c-.44-.422-1.538-.969-1.902-.891-.364.079-.656.329-.385.72.271.391.385.375.385.375s.433-.391.621-.172c.188.219.031.297-.312.328-.344.031-.693-.203-.693-.203s.113.406.59.453c.321.312.726.078.93.078s1.156-.312.766-.688zm1.131 0c.44-.422 1.538-.969 1.902-.891.364.078.656.328.385.719-.271.391-.385.375-.385.375s-.433-.391-.621-.172c-.188.219-.031.297.312.328.344.031.693-.203.693-.203s-.113.406-.59.453c-.321.313-.726.079-.93.079s-1.157-.312-.766-.688zM9.969 25.199c.137-.316.041-.361-.069-.471-.111-.109-.166-.262-.166-.262s-.055.152-.166.262c-.111.109-.207.154-.07.471-.333-.197-.388.164-.235.383.043-.197.305-.152.305.088s-.217.131-.191.229c.027.099.225.306.356.306.131 0 .33-.207.356-.306.027-.099-.19.011-.19-.229 0-.24.261-.285.305-.088.154-.219.099-.58-.235-.383zm5.438 0c.137-.316.041-.361-.07-.471-.111-.109-.166-.262-.166-.262s-.055.152-.166.262c-.111.109-.207.154-.07.471-.333-.197-.388.164-.235.383.043-.197.305-.152.305.088s-.217.131-.19.229c.026.099.225.306.356.306.131 0 .33-.207.356-.306.027-.099-.19.011-.19-.229 0-.24.261-.285.305-.088.153-.219.099-.58-.235-.383z"/>
</svg>
