<svg xmlns="http://www.w3.org/2000/svg" viewBox="0 0 36 36">
  <path fill="#EDB92E" d="M12.5 7.062c-3.938 0-5.172 1.672-4.844 2.297.328.625 1.312 2.234 1.312 2.234s-.312.125 0 .75 1.531.203 3.531.203 3.219.422 3.531-.203 0-.75 0-.75.984-1.609 1.313-2.234c.329-.625-.905-2.297-4.843-2.297zm-3.438 2.969c-.283.088 0 .953-.1.579-.082-.309-.4-.438-.4-.266s-.125 0-.094-.312c.031-.313-.062-.5-.25-.766-.187-.266-.187-.5.048-.657.234-.156.75-.281.75-.281s.203.891.312 1.094c.109.203.312.336.312.336s-.094.148 0 .226c.094.078.203.266.203.266s-.343-.281-.405-.219c-.062.062.078.141.062.25-.016.11-.188-.328-.438-.25zm3.188.016c-.078.078-.141-.063-.297-.172-.156-.109-.25-.046-.219.079s-.188.109-.188.297-.203.109-.203.109.25-.656-.172-.641c-.239.009-.156.5 0 .672-.069-.105-.266-.109-.43-.234s.023-.329-.102-.282c-.125.047-.203.25-.328.297s-.062-.142 0-.297c.062-.156-.072-.234-.072-.234s.01-.109.104-.172c.094-.062.125-.172 0-.297s-.577-.828-.437-1.063c.141-.234.609-.5 1.922-.469.234 1.078-.125 1.609-.125 1.609s.266.172.344.266c-.188.079-.047.157.078.266.125.11.203.188.125.266zm2.438-.172c.062.156.125.344 0 .297s-.203-.25-.328-.297c-.125-.047.062.157-.102.282-.164.125-.36.129-.43.234.156-.172.239-.663 0-.672-.422-.016-.172.641-.172.641s-.203.078-.203-.109-.219-.172-.188-.297-.062-.188-.219-.079c-.156.109-.219.25-.297.172-.078-.078 0-.156.125-.266.126-.109.267-.187.079-.265.078-.094.344-.266.344-.266s-.359-.531-.125-1.609c1.312-.031 1.781.234 1.922.469.141.234-.312.938-.438 1.062s-.094.234 0 .297c.094.062.104.172.104.172s-.135.078-.072.234zm2.093-.609c-.188.266-.281.453-.25.766.031.312-.094.484-.094.312s-.318-.042-.4.266c-.1.374.183-.49-.1-.579-.25-.078-.578.672-.5.594s.188-.531.125-.594c-.062-.063-.406.219-.406.219s.109-.188.203-.266c.094-.078 0-.226 0-.226s.203-.133.312-.336c.109-.203.312-1.094.312-1.094s.516.125.75.281.236.391.048.657z"/>
</svg>
