<svg xmlns="http://www.w3.org/2000/svg" viewBox="0 0 36 36">
  <path fill="#CCD6DD" d="M20.342 32.637c.017 0 .034-.002.051-.007l.905-.239c.107-.028.171-.137.143-.244-.027-.106-.137-.172-.244-.142l-.905.239c-.107.028-.171.137-.143.244.024.089.105.149.193.149zm-.188-.716c.017 0 .034-.002.051-.007l.905-.239c.107-.028.171-.137.143-.244-.027-.106-.138-.172-.244-.142l-.905.239c-.107.028-.171.137-.143.244.023.089.104.149.193.149zm-.189-.716c.017 0 .034-.002.051-.007l.905-.239c.107-.028.171-.137.143-.244-.028-.106-.139-.173-.244-.142l-.905.239c-.107.028-.171.137-.143.244.024.089.105.149.193.149z"/>
</svg>
