<svg xmlns="http://www.w3.org/2000/svg" viewBox="0 0 36 36">
  <g fill="#D4AB88">
    <path d="M19.958 24.146l2.5-1.438 1.281 2.614c.24.185.28.276 1.615 1.052 1.203.699 3.46 3.091 4.21 4.025.213.198.259.341.393.701l-1.023.266s-.182-.34-.476-.533c-1.438-.821-6.309-3.495-6.309-3.495-.394-.283-.64-.478-.78-.72 0 0-1.192-1.979-1.411-2.472zm-6.037-2.159l2.501 1.313c-.171.271-.513.854-.797 1.59-.083.213-.191.618.163.874.2.146.59.466.889.704.204.163.438.349.714.563.997.778 3.032 2.787 3.198 2.951.166.164.283.377.344.662-.087.019-.965.233-.965.233s-.123-.307-.421-.487c-.929-.561-6.214-3.599-6.214-3.599-.69-.495-1.067-.722-1.005-1.432.107-1.24 1.263-2.915 1.593-3.372zm8.503-12.665c.268-.28.705-.422 1.299-.422 1.689 0 3.358.215 3.783.3.118.023.173.024.301-.052.318-.188.435-.697.583-1.341.049-.217.102-.445.165-.672.279-1.001.588-2.46.55-2.736-.053-.384.312-3.219.356-3.262.071-.07.274.067.413.075.111.007.19.098.308.176.682.447.78 1.376.849 2 .042.386-.62 1.095-.684 1.502-.021.133-.048.804-.09 1.888-.044 1.135-.099 2.549-.141 2.788-.101.572-.208 1.186-1.01 1.382-.604.147-2.378.241-3.673.309-.65.035-1.213.064-1.512.093-.647.062-1.198-.058-1.515-.331-.192-.167-.296-.389-.309-.66-.016-.443.092-.793.327-1.037zM2.393 12.423c.285-.016.335-.059.612-.053.406.009.393.056.577.053.399-.006.967-.034 1.387-.084.31-.037 1.968-.116 2.419-.198.614-.113 1.384-.261 2.798-.152.794-.409 1.869-.87 2.823-1.279.699-.3 1.359-.583 1.802-.8.223-.109.442-.165.652-.165.156 0 .308.031.449.092.325.141.568.43.686.813.043.142.162.638-.108 1.073-.216.347-.624.573-1.214.671-.618.102-1.367.333-2.234.6-.857.265-1.82.561-2.804.772 0 0-1.555-.164-2.367-.213-1.124-.068-2.682-.362-3.092-.238-.518.157-1.068.303-1.715-.03-1.106-.569-2.212-.236-2.095-.707.027-.109.881-.125 1.424-.155zm15.779-7.43c.062-.564.59-1 1.148-.934.564.062.977.558.914 1.122l-.411 3.61.355.047s.363 1.057-1.449 1.057-1.621-.825-1.621-.825l.595-.113.469-3.964z"/>
    <ellipse cx="18.833" cy="4.917" rx="2.625" ry="3"/>
  </g>
</svg>
