<svg xmlns="http://www.w3.org/2000/svg" viewBox="0 0 36 36">
  <path fill="#963B22" d="M17.166 1.104c.699-.487 2.461-.66 3.656-.029.615.325 1.011.778 1.248 1.298.181-.193.487-.359 1.016-.403 1.196-.099 1.513 1.208 2.378 1.675.653.352 1.4.364 1.921.013 0 0-.716.867-1.52 1.198-1.045.43-2.333.154-2.947-.175-.258-.138-.452-.314-.604-.498-.01.089-.015.177-.03.266-.207 1.24-1.349 2.324-1.349 2.324s-.414-1.064-.227-1.085c.347-.039.555-1.105.264-1.389-.306-.299-.6 0-.675.3S20.02 5.75 20.02 5.75s.052-1.076-.248-1.414c-.3-.337-1.724-.262-2.324-1.724 0 0-.47.179-.845.742-.309.464-.396 1.562-.396 1.562s-.283-.678-.479-1.333c-.224-.749.543-1.855 1.438-2.479z"/>
</svg>
