<svg xmlns="http://www.w3.org/2000/svg" viewBox="0 0 36 36">
  <path fill="#5C913B" d="M18.241 9.633c-.277-3.307 2.17-4.72 2.17-4.72-3.199.113-4.894 2.826-4.894 2.826-.752-1.3.946-4.012 2.169-4.719-3.198.113-3.67 2.12-3.67 2.12-1.503-2.601-1.03-4.607-1.03-4.607-1.121.647-1.767 2.113-2.141 3.512l-2.318-2.67c-.23 1.044.157 3.174.573 4.959-3.055-1.79-5.903-.15-5.903-.15 3.95 1.188 5.45 3.788 5.45 3.788s-3.948-1.187-5.646 1.526c2.597-.092 4.5.499 5.856 1.23-1.163.289-3.145-.236-4.355 1.371 0 0 3.198-.113 3.851 1.055-2.172.614-3.575 2.251-3.575 2.251 4.422-.818 9.123 1.669 9.123 1.669l6.119-3.532c-1.029-4.607 2.642-6.727 2.642-6.727-2.724-1.895-4.421.818-4.421.818z"/>
</svg>
