<svg xmlns="http://www.w3.org/2000/svg" viewBox="0 0 36 36">
  <path fill="#FFCC4D" d="M30.562 25.364c-.209-.848-.54-1.685-1.002-2.484l-.186-.323v.001l-1.951-.828.624-1.471-.075-.131c-2.025-3.51-5.92-5.217-9.486-4.466l-.818 1.926-1.884-.8c-3.28 2.122-4.567 6.319-3.262 10.128l1.006.427-.401.946c.055.105.102.212.163.315l1.589 2.753c.685 1.187 1.59 2.16 2.618 2.909l.229-.538 1.951.828-.324.764c.665.277 1.357.465 2.061.572l.215-.507 1.403.595c1.144-.048 2.28-.336 3.343-.883l-.017-.007.828-1.951 1.189.504c.522-.521.973-1.104 1.334-1.736l-1.693-.72.828-1.951 1.667.707c.191-.7.301-1.427.316-2.167l-1.155-.49.828-1.951.062.029zm-6.212-7.243l1.95.829-.828 1.95-1.951-.828.829-1.951zm.294 4.731l-.828 1.95-1.951-.827.828-1.951 1.951.828zm-4.197-6.387l1.951.828-.829 1.952-1.951-.828.829-1.952zm-1.656 3.902l1.951.828-.828 1.951-1.95-.828.827-1.951zm-3.902-1.655l1.95.828-.828 1.949-1.95-.828.828-1.949zm-2.484 5.853l.828-1.952 1.951.828-.829 1.952-1.95-.828zm4.196 6.385l-1.951-.827.828-1.951 1.951.828-.828 1.95zm-.295-4.73l.829-1.951 1.951.827-.829 1.952-1.951-.828zm4.196 6.386l-1.95-.828.828-1.95 1.95.829-.828 1.949zm-.294-4.73l.828-1.952 1.951.829-.828 1.952-1.951-.829zm4.197 6.388l-1.951-.828.828-1.951 1.951.828-.828 1.951zm1.657-3.904l-1.95-.827.828-1.952 1.95.828-.828 1.951zm1.656-3.901l-1.951-.828.828-1.95 1.951.827-.828 1.951z"/>
</svg>
