<svg xmlns="http://www.w3.org/2000/svg" viewBox="0 0 36 36">
  <path fill="#AD743D" d="M35.432 22.773c-.195.858-.638 1.773-1.022 2.159 1.399-4.418 1.399-9.111-2.25-11.167.112 1.107-.11 1.691-.265 2.153-.21-2.219-.578-3.744-2.158-4.927-1.82-1.363-2.611-.452-.736 3.765 2.2 4.945 1.475 8.603.827 11.216-.038.154-.08.29-.12.439.804-5.765-.989-11.722-6.825-14.915-2.989-1.636-5.211-1.852-5.329-3.037-.135-1.377-1.218-3.698-3.811-5.327.444-1.309-.485-2.787-1.117-2.841-.631-.054-2.024 1.039-2.16 2.528-4.694 1.399-9.492 7.219-9.345 8.397.148 1.177.341 2.638 6.57 3.656 1.104.18 3.995 1.835 4.4 5.779.456 4.44 2.276 8.054 4.712 11.216h-1.73c-4.132 0-4.132 4.132-1.377 4.132h10.928l-.002-.002c.36-.003.788-.029 1.304-.085 6.931-.612 10.792-7.349 9.506-13.139z"/>
</svg>
