<svg xmlns="http://www.w3.org/2000/svg" viewBox="0 0 36 36">
  <path fill="#F4ABBA" d="M23.401 20.622c-.283 0-.558-.146-.711-.407-.23-.393-.099-.896.294-1.126 3.134-1.837 6.378-6.191 7.165-7.913.189-.414.675-.597 1.092-.406.413.189.595.678.406 1.091-.886 1.936-4.356 6.613-7.831 8.648-.13.077-.273.113-.415.113z"/>
  <path fill="#F4ABBA" d="M31.42 17.688c-.064 0-.13-.007-.195-.023-1.504-.366-6.195-2.541-8.011-6.311-.197-.41-.025-.902.384-1.099.412-.198.902-.025 1.099.384 1.54 3.196 5.668 5.122 6.917 5.426.442.107.713.553.605.995-.092.376-.429.628-.799.628zM12.338 4.963c-2.371-.066-9.137 2.603-9.137 18.224.147 2.014.344 9.235 5.403 12.772h5.354c1.032-.442 2.456-2.26 2.456-8.4 0-1.818-1.398-6.773-1.474-8.154-.186-3.401.637-4.545 1.85-7.565 1.541-3.832-.915-6.779-4.452-6.877z"/>
</svg>
