<svg xmlns="http://www.w3.org/2000/svg" viewBox="0 0 36 36">
  <path fill="#F4ABBA" d="M12.206 25.569c-.142 0-.286-.037-.417-.113-3.49-2.045-6.976-6.742-7.866-8.687-.19-.416-.007-.906.408-1.096.416-.19.906-.008 1.096.408.792 1.73 4.05 6.104 7.198 7.948.394.231.526.738.295 1.132-.153.262-.43.408-.714.408z"/>
  <path fill="#F4ABBA" d="M4.211 22.563c-.373 0-.711-.254-.803-.632-.108-.443.164-.891.607-.999 1.247-.303 5.361-2.219 6.89-5.391.199-.412.694-.583 1.104-.386.412.198.584.693.386 1.104-1.946 4.038-6.873 6.009-7.988 6.281-.066.016-.132.023-.196.023z"/>
</svg>
