<svg xmlns="http://www.w3.org/2000/svg" viewBox="0 0 36 36">
  <path fill="#272B2B" d="M33.66 25.242c.204.279.333.588.339.939.03 1.905-.745 3.303-1.915 4.327L26.999 31l6.661-5.758zM15 25c-1 1 2 4 3 4s4-3 3-4-5-1-6 0zM10 3c2.667 2 8 4 8 4s5.333-2 8-4l-8 1-8-1zm8-1s1.652-.62 3.576-1.514C20.48.178 19.295 0 18 0s-2.481.178-3.576.486C16.348 1.38 18 2 18 2zm-7 7c3 2 7 4 7 4s4-2 7-4l-7 1-7-1zm20.645 2.285L27 15l6.006.75c-.334-1.401-.777-2.928-1.361-4.465zm1.911 7.159L28 24h5.835c.102-.595.165-1.251.165-2 0 0-.081-1.43-.444-3.556zm-31.112 0C2.082 20.57 2 22 2 22c0 .748.063 1.405.165 2H8l-5.556-5.556zm-.105 6.798c-.204.279-.333.588-.339.94-.03 1.905.745 3.303 1.916 4.327L9 31l-6.661-5.758zM9 15l-4.644-3.715c-.584 1.537-1.028 3.064-1.361 4.466L9 15z"/>
</svg>
