<svg xmlns="http://www.w3.org/2000/svg" viewBox="0 0 36 36">
  <path fill="#77B255" d="M24.684 29.81c6.128 1.634 10.658-.738 11.076-1.156 0 0-3.786 1.751-10.359-1.476.952-1.212 3.854-2.909 3.854-2.909-.553-.346-4.078-.225-6.485 1.429-1.158-.733-2.384-1.617-3.673-2.675l.84-.871c3.25-3.384 6.944-2.584 6.944-2.584-.638-.613-5.599-3.441-9.583.7l-.613.638c-.426-.399-.856-.812-1.294-1.25l-1.85-1.85 1.064-1.065c3.321-3.32 8.226-3.451 8.226-3.451-.626-.627-6.863-2.649-10.924 1.412l-.736.735-8.292-8.294c-.626-.627-1.692-.575-2.317.05-.626.626-.677 1.691-.051 2.317l8.293 8.293-.059.059C4.684 21.924 6.37 28.496 6.997 29.123c0 0 .468-5.242 3.789-8.562l.387-.388 3.501 3.502c.057.057.113.106.17.163-2.425 4.797 1.229 10.34 1.958 10.784 0 0-1.465-4.723.48-8.635 1.526 1.195 3.02 2.095 4.457 2.755.083 2.993 2.707 5.7 3.344 5.931 0 0-.911-3.003-.534-4.487l.135-.376z"/>
</svg>
