<svg xmlns="http://www.w3.org/2000/svg" viewBox="0 0 36 36">
  <path d="M22.083 10c-.396 0-.771-.238-.928-.628-.205-.512.042-1.092.553-1.299.166-.068 4.016-1.698 4.416-6.163.05-.549.524-.951 1.085-.907.551.049.956.535.907 1.085-.512 5.711-5.451 7.755-5.661 7.839-.122.05-.248.073-.372.073zm5 4c-.414 0-.801-.259-.944-.671-.181-.52.092-1.088.61-1.271.188-.068 4.525-1.711 5.38-8.188.072-.547.561-.935 1.122-.86.548.072.933.574.86 1.122-1.021 7.75-6.468 9.733-6.699 9.813-.109.037-.22.055-.329.055zm3.001 6c-.353 0-.694-.188-.877-.519-.266-.483-.089-1.091.394-1.357.027-.015 2.751-1.536 3.601-3.518.218-.508.808-.742 1.312-.525.508.217.743.805.525 1.313-1.123 2.62-4.339 4.408-4.475 4.483-.153.083-.317.123-.48.123z" fill="#5DADEC"/>
</svg>
