<svg xmlns="http://www.w3.org/2000/svg" viewBox="0 0 36 36">
  <path fill="#CCD6DD" d="M16.5 13H15v-1h1.5c.275 0 .5.225.5.5s-.225.5-.5.5zm4 0h-2c-.275 0-.5-.225-.5-.5s.225-.5.5-.5h2c.275 0 .5.225.5.5s-.225.5-.5.5zm4 0h-2c-.275 0-.5-.225-.5-.5s.225-.5.5-.5h2c.275 0 .5.225.5.5s-.225.5-.5.5zm4 0h-2c-.275 0-.5-.225-.5-.5s.225-.5.5-.5h2c.275 0 .5.225.5.5s-.225.5-.5.5zm3.5 0h-1.5c-.275 0-.5-.225-.5-.5s.225-.5.5-.5H32v1zM16.5 25H15v-1h1.5c.275 0 .5.225.5.5s-.225.5-.5.5zm4 0h-2c-.275 0-.5-.225-.5-.5s.225-.5.5-.5h2c.275 0 .5.225.5.5s-.225.5-.5.5zm4 0h-2c-.275 0-.5-.225-.5-.5s.225-.5.5-.5h2c.275 0 .5.225.5.5s-.225.5-.5.5zm4 0h-2c-.275 0-.5-.225-.5-.5s.225-.5.5-.5h2c.275 0 .5.225.5.5s-.225.5-.5.5zm3.5 0h-1.5c-.275 0-.5-.225-.5-.5s.225-.5.5-.5H32v1z"/>
</svg>
