<svg xmlns="http://www.w3.org/2000/svg" viewBox="0 0 36 36">
  <path fill="#662113" d="M32.325 10.958s2.315.024 3.511 1.177c-.336-4.971-2.104-8.249-5.944-10.13-3.141-1.119-6.066 1.453-6.066 1.453s.862-1.99 2.19-2.746C23.789.236 21.146 0 18 0c-3.136 0-5.785.227-8.006.701 1.341.745 2.215 2.758 2.215 2.758S9.194.803 6 2.053C2.221 3.949.481 7.223.158 12.174c1.183-1.19 3.55-1.215 3.55-1.215S-.105 13.267.282 16.614c.387 2.947 1.394 5.967 2.879 8.722C3.039 22.15 5.917 20 5.917 20s-2.492 5.96-.581 8.738c1.935 2.542 4.313 4.641 6.976 5.916-.955-1.645-.136-3.044-.103-2.945.042.125.459 3.112 2.137 3.743 1.178.356 2.4.548 3.654.548 1.292 0 2.55-.207 3.761-.583 1.614-.691 2.024-3.585 2.064-3.708.032-.098.843 1.287-.09 2.921 2.706-1.309 5.118-3.463 7.064-6.073 1.699-2.846-.683-8.557-.683-8.557s2.85 2.13 2.757 5.288c1.556-2.906 2.585-6.104 2.911-9.2-.035-3.061-3.459-5.13-3.459-5.13z"/>
</svg>
