<svg xmlns="http://www.w3.org/2000/svg" viewBox="0 0 36 36">
  <path fill="#F4900C" d="M10.229 22.751c-.985.067-1.689-.308-2.203-.917.214.557.487 1.081.788 1.588.771.289 1.591.41 2.54-.272-.463-.227-.88-.415-1.125-.399zM23.086 8.608c.045.328-.187.5-.75.363-.955-.232-1.793.776-2.274 1.619-.947 1.657-4.854 3.524-4.857 2.087-.001-.679-3.452.843-3.893.161-.417-.644-1.663-.396-1.921-1.168-1.135 1.544-1.869 3.402-2.04 5.422.377.718.864 1.282 1.352 1.526.66.33 3.726 1.528 4.174.763.747-1.276 5.229-.373 5.122-1.044-.205-1.285 2.427-.23 3.373-1.886.482-.843 1.533-1.49 2.489-1.258 1.116.271 2.493-1.643 2.389-3.996-.871-1.057-1.951-1.931-3.164-2.589zm3.181 16.175c-.338.166-.671.293-.975.326-2.248.243-2.734 2.005-4.242 1.703-.777-.156-1.837 1.214-3.05 1.297-.611.042-1.489.141-2.386.308.768.175 1.565.277 2.386.277 3.331 0 6.305-1.523 8.267-3.911z"/>
</svg>
