<svg xmlns="http://www.w3.org/2000/svg" viewBox="0 0 36 36">
  <path fill="#E85E00" d="M23.225 8.674c.953.535 1.811 1.213 2.554 2.003 2.491-.157 4.01.429 3.883 1.777-.066.705-.585 1.542-1.431 2.435-2.108 2.221-6.309 4.796-11.07 6.602-3.309 1.255-6.258 1.9-8.366 1.934-2.145.035-3.418-.563-3.302-1.803.076-.815.752-1.806 1.852-2.857-.019-.255-.039-.507-.039-.765 0-.848.109-1.669.296-2.461C3.3 18.522.5 21.807.5 24.369c0 3.487 5.162 4.558 12.275 2.957 1.65-.371 3.405-.886 5.225-1.549 3.9-1.419 7.489-3.3 10.399-5.317 4.301-2.983 7.101-6.268 7.101-8.83 0-3.486-5.162-4.558-12.275-2.956z"/>
</svg>
