<svg xmlns="http://www.w3.org/2000/svg" viewBox="0 0 36 36">
  <path fill="#F4900C" d="M6.356 18.051c-.742.711-1.369 1.524-1.88 2.382-.49.852-.907 1.811-.844 2.671.035.856.682 1.366 1.558 1.602.874.227 1.845.287 2.834.229 1.962-.089 3.93-.415 5.841-.965 1.924-.505 3.791-1.225 5.615-2.036 3.648-1.628 7.068-3.789 10.132-6.382.368-.333.771-.649 1.124-.986.333-.337.647-.713.91-1.097.522-.768.826-1.667.335-2.352-.49-.696-1.495-1.075-2.453-1.271-.981-.187-2.01-.23-3.03-.111.992-.265 2.037-.395 3.088-.316 1.03.092 2.172.3 3.008 1.221.41.457.599 1.145.524 1.746-.057.611-.293 1.15-.563 1.635-.278.485-.59.925-.945 1.348-.352.404-.709.777-1.072 1.163-2.932 2.994-6.44 5.414-10.261 7.159-3.816 1.72-7.974 2.911-12.261 2.754-1.056-.04-2.157-.133-3.236-.548-.534-.209-1.082-.517-1.5-1.016-.429-.49-.635-1.171-.589-1.774.098-1.213.704-2.152 1.349-2.976.664-.819 1.447-1.525 2.316-2.08z"/>
</svg>
