<svg xmlns="http://www.w3.org/2000/svg" viewBox="0 0 36 36">
  <path fill="#FA743E" d="M22.043 8.722c-.549-.02-1.321.078-1.865.117 0 0-.078.855-1.399.894-1.321.039-1.671-.661-1.671-.661s-1.01.078-1.749.544c-.738.466-1.865.884-1.865.884s1.078 1.291.689 2.263l.852-.248s-.048.542.237 2.047c.209 1.102.049 3.754-.107 4.103 0 0 1.224.002 3.189.218 1.205.132 3.046.617 3.046.617.058-1.25-.31-3.028-.292-4.168.028-1.679.962-3.63 1.18-3.664.671-.103 1.208-.217 1.208-.217s-.17-1.098-.015-1.642c.155-.544.233-.933.233-.933s-1.121-.134-1.671-.154z"/>
</svg>
