<svg xmlns="http://www.w3.org/2000/svg" viewBox="0 0 36 36">
  <path fill="#55ACEE" d="M12.708 26.202c-.139 0-.277-.033-.402-.1-.229-.119-.392-.333-.446-.585-.212-.975-.354-1.747-.354-2.351 0-.223.085-.437.238-.598 1.627-1.715 3.689-3.483 5.058-4.608-1.308-2.187-4.363-7.227-5.038-8.319-.24-.389-.138-.898.234-1.164 1.012-.722 6.832-4.626 7.079-4.792.374-.252.877-.174 1.159.176.639.791 2.349 3.617 4.16 6.609.864 1.428 1.712 2.828 2.382 3.903.046.073.08.153.102.237.01.039 1.029 3.928 1.029 4.847 0 .364-.228.689-.569.815-1.343.494-14.171 5.809-14.301 5.862-.105.046-.218.068-.331.068z"/>
</svg>
