<svg xmlns="http://www.w3.org/2000/svg" viewBox="0 0 36 36">
  <path fill="#BE1931" d="M5.594 31.657c-.208 0-.411-.014-.61-.042-1.264-.181-2.259-.931-2.878-2.168-.247-.494-.047-1.095.447-1.342.495-.246 1.095-.047 1.342.447.632 1.266 1.864 1.45 3.658.553 1.23-.615 7.657-3.303 14.462-6.148 4.396-1.838 8.793-3.677 11.592-4.876.503-.219 1.095.017 1.312.525.218.507-.017 1.095-.525 1.313-2.802 1.201-7.205 3.042-11.608 4.884-6.474 2.707-13.169 5.507-14.339 6.092-1.015.507-1.972.762-2.853.762z"/>
</svg>
