<svg xmlns="http://www.w3.org/2000/svg" viewBox="0 0 36 36">
  <path fill="#269" d="M16.69 14.529c-.284 0-.562-.139-.728-.394-.262-.402-.149-.94.253-1.202l2.498-1.629c.403-.263.939-.148 1.202.253.262.402.148.94-.253 1.202l-2.497 1.629c-.148.095-.312.141-.475.141zm1.989 3.076c-.42 0-.789-.305-.857-.733-.075-.474.248-.919.722-.994l2.967-.47c.477-.075.918.248.994.722.074.474-.249.918-.723.994l-2.967.47c-.045.008-.091.011-.136.011zm.862 4.472c-.138 0-.278-.033-.408-.103l-1.731-.925c-.423-.227-.583-.753-.357-1.176.226-.423.75-.583 1.175-.357l1.731.925c.423.227.583.753.357 1.176-.157.293-.456.46-.767.46z"/>
</svg>
