<svg xmlns="http://www.w3.org/2000/svg" viewBox="0 0 36 36">
  <path fill="#BBDDF5" d="M23.543 5.535c-.304 0-.599-.159-.758-.442-.235-.418-.087-.948.331-1.183L28.741.743c.418-.236.948-.087 1.183.331.235.418.087.948-.331 1.183l-5.625 3.166c-.135.077-.28.112-.425.112zm2.5 3.709c-.304 0-.599-.159-.758-.443-.235-.418-.087-.948.331-1.183l3.333-1.875c.418-.235.947-.087 1.183.332.235.418.087.948-.331 1.183l-3.333 1.875c-.135.075-.281.111-.425.111zm2 4c-.308 0-.605-.163-.763-.452-.23-.421-.076-.949.345-1.179l2.208-1.208c.419-.231.949-.076 1.179.345.231.421.076.949-.345 1.179l-2.208 1.208c-.132.073-.275.107-.416.107z"/>
</svg>
