<svg xmlns="http://www.w3.org/2000/svg" viewBox="0 0 36 36">
  <path d="M14.002 16.24c-.255.504-.413 1.059-.459 1.651l.498.013c.044-.52.185-1.007.411-1.45l-.45-.214zm4.754-1.858c.633.133 1.199.429 1.68.826l.345-.361c-.547-.457-1.192-.799-1.915-.951l-.11.486zm2.437 1.629c.434.633.69 1.398.69 2.224 0 .15-.027.293-.044.439l.49.09c.022-.176.054-.348.054-.529 0-.928-.286-1.787-.773-2.499l-.417.275zm-4.97 5.748c-1.184-.58-2.022-1.731-2.171-3.098l-.494.056c.169 1.546 1.119 2.845 2.459 3.498l.206-.456zm-1.336-5.975c.722-.899 1.817-1.487 3.06-1.487.026 0 .05.007.076.008l.031-.497c-.036-.001-.07-.011-.107-.011-1.413 0-2.656.672-3.469 1.701l.409.286zm6.8 3.621c-.33 1.055-1.081 1.916-2.068 2.382l.203.456c1.113-.523 1.962-1.491 2.337-2.679l-.472-.159z" fill="#FFCC01"/>
</svg>
