<svg xmlns="http://www.w3.org/2000/svg" viewBox="0 0 36 36">
  <path fill="#1F601A" d="M17.462 21.297c.246-.764-.609-.906-.609-.906s.062.438-.453.453c.172.344.016.625-.203.641.359.327 1.109.296 1.265-.188zm-1.27-.463c.473-.578-.221-.992-.221-.992s-.095.4-.547.239c.033.355-.199.547-.394.486.201.408.862.635 1.162.267zm-.895-.795c.564-.302.152-.857.152-.857s-.207.284-.511.01c-.091.291-.336.366-.471.255.025.388.472.783.83.592zm-.346-1.009c.594-.121.371-.736.371-.736s-.265.202-.467-.129c-.162.239-.405.241-.497.104-.082.358.216.838.593.761zm-.14-.865c.545-.004.455-.586.455-.586s-.269.133-.39-.195c-.185.183-.399.142-.456.005-.134.302.045.778.391.776zm.129-.825c.425.146.492-.396.492-.396s-.241.044-.257-.28c-.187.112-.344.017-.356-.121-.177.232-.15.704.121.797zm.327-.683c.212.124.45-.288.45-.288s-.184-.066-.137-.369c-.164.074-.276.029-.26-.1-.179.187-.253.641-.053.757zm3.116 4.64c-.246-.764.609-.906.609-.906s-.062.438.453.453c-.172.344-.016.625.203.641-.359.327-1.109.296-1.265-.188zm1.269-.463c-.473-.578.221-.992.221-.992s.096.4.547.239c-.032.355.199.547.395.486-.202.408-.862.635-1.163.267zm.896-.795c-.563-.302-.151-.857-.151-.857s.207.284.51.01c.092.291.337.366.471.255-.025.388-.472.783-.83.592zm.346-1.009c-.594-.121-.37-.736-.37-.736s.265.202.467-.129c.162.239.404.241.496.104.081.358-.216.838-.593.761zm.139-.865c-.545-.004-.455-.586-.455-.586s.27.133.39-.195c.184.183.399.142.456.005.135.302-.045.778-.391.776zm-.129-.825c-.425.146-.492-.396-.492-.396s.242.044.258-.28c.188.112.344.017.356-.121.177.232.15.704-.122.797zm-.326-.683c-.213.124-.45-.288-.45-.288s.185-.066.138-.369c.163.074.275.029.26-.1.177.187.251.641.052.757z"/>
</svg>
