<svg xmlns="http://www.w3.org/2000/svg" viewBox="0 0 36 36">
  <path fill="#EEE" d="M21.753 22.832c-.47 0-1.102.379-1.102.379s-.289-.289-.759-.037c-.47.254-.74.326-.704.795 0 0-.256.131-.506.199-.397.109-.668.017-.668.017s-.271.092-.668-.017c-.25-.068-.505-.199-.505-.199.036-.469-.235-.541-.705-.795-.47-.252-.759.037-.759.037s-.632-.379-1.102-.379c-.47 0-.885.451-.867.578.018.127.235.559.361.775.126.217.235.344.578.344.343 0 1.065-.217 1.065-.217s.163.162 1.012.488c.849.324 1.589.307 1.589.307s.74.018 1.589-.307c.849-.326 1.012-.488 1.012-.488s.723.217 1.066.217c.343 0 .451-.127.578-.344.126-.217.344-.648.361-.775.019-.127-.396-.578-.866-.578z"/>
</svg>
