<svg xmlns="http://www.w3.org/2000/svg" viewBox="0 0 36 36">
  <path fill="#FBD44D" d="M12.758 21.658c-.054.397-.289.795.163.92.451.127.536-.293.413-.67-.124-.377-.576-.25-.576-.25zm1.572-.021c-.072.166-.289.529.144.482.434-.047.705-.043.975 0 .272.045.434-.25.145-.238-.289.012-.506-.094-.615-.363-.108-.268-.649.119-.649.119zm-1.061-4.991l-.129-.7s-.365.373-.491.554c-.126.181-.377-.081-.522-.199-.145-.117-.307-.478-.343-.785-.036-.307-.398-.487-.271-.704.126-.217.235-.325.452-.325.216 0 .271.289.271.289s.418.053.253.253c-.406.493-.085.576-.085.576l.246-.305s-.091-.578 0-.686c.091-.109.633-.307.814-.326.181-.018.398-.18.316-.289-.081-.108-.262-.307-.262-.543 0-.234-.082-.74.447-.667.529.072.71.415.565.704-.145.289-.216.379-.163.542.054.163.07.361.423.379.353.018.421.131.475.438.054.307.059.465.041.718-.019.253.001.343.001.343s.324-.063.558-.027c.235.036.723.335.723.335h-1.174l-.09.38s-.127.145-.181.126c-.054-.019-.353-.488-.353-.488l-.134.488-1.387-.081z"/>
</svg>
