<svg xmlns="http://www.w3.org/2000/svg" viewBox="0 0 36 36">
  <path fill="#892614" d="M23.226 21.658c.054.397.289.795-.163.92-.451.127-.535-.293-.411-.67.121-.377.574-.25.574-.25zm-1.572-.021c.072.166.288.529-.145.482-.434-.047-.704-.043-.976 0-.271.045-.433-.25-.144-.238.288.012.507-.094.614-.363.11-.268.651.119.651.119zm1.061-4.991l.129-.7s.29.291.417.472c.126.18.421.2.564.082.146-.117.34-.677.376-.983.035-.307.378-.253.251-.47-.126-.217-.261-.356-.478-.356s-.225.085-.225.085-.276.072-.168.307c.108.235-.032.55-.032.55l-.215-.184s-.068-.691-.159-.799c-.092-.109-.474-.343-.654-.362-.181-.018-.397-.18-.316-.289.082-.108.262-.307.262-.543 0-.234.083-.74-.446-.667-.529.072-.71.415-.564.704.143.289.121.397.067.56-.055.162.024.343-.329.361-.352.018-.471.204-.525.511-.054.307-.008.392.01.645.019.253-.002.343-.002.343s-.323-.063-.558-.027c-.235.036-.723.335-.723.335h1.174l.091.38s.126.145.181.126c.055-.019.352-.488.352-.488l.135.488 1.385-.081z"/>
</svg>
