<svg xmlns="http://www.w3.org/2000/svg" viewBox="0 0 36 36">
  <ellipse fill="#007F00" cx="18" cy="9" rx=".51" ry=".657"/>
  <ellipse fill="#007F00" cx="18" cy="27" rx=".51" ry=".657"/>
  <path fill="#007F00" d="M15.179 26.562c.094-.351.39-.575.662-.503.273.073.417.416.323.767-.094.351-.39.575-.663.503-.272-.074-.416-.417-.322-.767zM20.16 9.939c.272.073.568-.15.662-.501.094-.351-.05-.693-.322-.767-.272-.072-.568.152-.662.502-.094.352.05.694.322.766zm-7.101 15.6c.181-.315.526-.455.77-.315.244.142.294.51.113.824-.181.315-.526.455-.769.315-.245-.141-.296-.509-.114-.824zm9.113-14.766c.244.141.588.001.77-.313.182-.314.131-.683-.113-.823-.244-.141-.588-.001-.77.313-.182.315-.131.683.113.823zm-10.896 13.23c.256-.257.625-.304.825-.104.199.199.152.568-.104.825-.257.257-.625.304-.825.104-.199-.199-.153-.568.104-.825zM23.9 12.1c.199.199.567.152.824-.103.257-.258.303-.626.104-.825-.199-.199-.567-.153-.824.104-.257.255-.303.624-.104.824zM9.951 22.058c.314-.181.683-.13.824.114.141.243 0 .588-.314.77-.314.182-.683.131-.824-.113-.141-.245-.001-.59.314-.771zm15.276-8.23c.141.243.508.295.822.113.315-.182.455-.526.315-.769-.142-.244-.51-.296-.824-.114-.315.181-.455.526-.313.77zM9.175 19.837c.351-.094.693.05.766.322.073.272-.152.568-.502.663-.351.094-.693-.051-.766-.323-.073-.272.151-.568.502-.662zM26.06 15.84c.072.273.414.417.766.323.351-.095.574-.391.502-.663-.073-.271-.416-.416-.766-.322-.351.093-.575.39-.502.662z"/>
  <ellipse fill="#007F00" cx="9" cy="18" rx=".657" ry=".51"/>
  <path fill="#007F00" d="M26.344 18c0 .282.293.51.656.51s.656-.228.656-.51-.293-.51-.656-.51-.656.228-.656.51zM9.438 15.179c.351.094.575.39.503.662-.073.273-.416.417-.767.323-.351-.094-.575-.39-.503-.663.074-.272.417-.416.767-.322zM26.06 20.16c-.073.272.15.568.501.662.351.094.693-.05.767-.322.072-.272-.152-.568-.502-.662-.351-.094-.693.05-.766.322zm-15.599-7.102c.314.181.455.526.314.77-.142.244-.51.295-.824.113-.314-.181-.455-.526-.314-.769.141-.245.509-.296.824-.114zm14.766 9.114c-.141.243-.001.588.313.77.314.182.683.13.823-.113.141-.244.001-.589-.313-.771-.315-.182-.683-.13-.823.114zm-13.23-10.897c.257.256.304.625.104.825-.199.199-.568.152-.825-.104-.257-.257-.304-.626-.104-.825.199-.199.568-.152.825.104zM23.9 23.9c-.199.199-.152.566.104.824.258.256.626.303.825.104s.153-.568-.104-.824c-.256-.258-.625-.303-.825-.104zM13.942 9.95c.181.314.13.683-.114.824-.243.141-.588 0-.769-.314-.182-.314-.131-.683.113-.824.244-.141.589 0 .77.314zm8.23 15.276c-.243.141-.295.509-.113.823.182.315.526.454.77.314.244-.141.296-.509.114-.823-.182-.315-.527-.455-.771-.314zM16.163 9.174c.094.351-.05.693-.322.766-.272.073-.568-.152-.663-.502-.094-.351.051-.693.323-.766.272-.073.568.152.662.502zM20.16 26.06c-.273.073-.417.415-.323.767.095.35.391.574.663.501.271-.073.416-.415.322-.766-.093-.351-.39-.576-.662-.502z"/>
</svg>
