<svg xmlns="http://www.w3.org/2000/svg" viewBox="0 0 36 36">
  <path fill="#289400" d="M14.981 11.308c.629-.378 1.039.253 1.039.253s.26-.795 1.037-.849c.776-.054.77.289.77.289s.172-.499 1.209-.295c1.038.204 1.006.548.832.692-.174.145-1.745.054-1.745.054s.162.307.18.433c.018.127.578-.234 1.462 0 0 0 .435-.758 1.103-.361.669.398 1.106 1.156.941 1.373-.164.217-1.357.072-1.492-.072 0 0-.242.398-.803.325-.561-.072-1.5-.668-1.5-.668l-.188-.29s-.436-.343-.964-.361c-.528-.017-.896 0-.896 0s-.356.416-.771.47c-.415.055-.848.036-.848.036s-.087-.595.634-1.029z"/>
  <path fill="#289400" d="M15.711 12.464c1.039-.163 1.725 0 1.797.506.072.506-.775.416-.947.434-.173.018-1.167.361-1.491.343-.325-.018-.994-.343-.506-.812.488-.471 1.147-.471 1.147-.471zm3.979.921c1.022.238 1.504.795 1.268 1.03-.234.234-.837.199-1.385 0s-1.308-.054-1.478-.434c-.171-.379.435-.867 1.595-.596zm-.348 1.301c.776.127.804.812.678.939-.127.126-1.319-.036-1.589-.361-.272-.325.143-.704.911-.578zm-2.886-.344c.968-.366 1.383.055 1.371.434-.011.379-.823.361-1.14.506-.316.145-.894.325-1.092.108-.2-.217.096-.759.861-1.048z"/>
</svg>
