<svg xmlns="http://www.w3.org/2000/svg" viewBox="0 0 36 36">
  <path fill="#D99E82" d="M18.666 11.588c-2.247 0-4.511-.762-5.608-1.658-.808-.66-1.223-1.544-1.138-2.425.068-.703.489-1.723 2.109-2.591 2.326-1.247 4.73-1.616 6.949-1.069 2.296.564 4.698 2.357 4.477 4.026-.236 1.768-3.604 3.299-5.267 3.59-.497.087-1.008.127-1.522.127zm.273-6.988c-1.451 0-2.958.403-4.438 1.196-.973.521-1.521 1.146-1.585 1.806-.053.542.23 1.109.775 1.554 1.183.966 4.009 1.728 6.326 1.32 1.747-.306 4.313-1.742 4.447-2.737.128-.962-1.752-2.438-3.724-2.923-.587-.145-1.189-.216-1.801-.216z"/>
  <path fill="#D99E82" d="M18.432 9.424c-.986 0-1.906-.24-2.423-.663-.433-.354-.654-.835-.607-1.321.037-.38.255-.926 1.084-1.371.629-.337 2.067-.645 3.043-.544 1.105.111 2.625.869 2.589 1.853-.059 1.524-1.646 1.789-2.697 1.964-.329.055-.663.082-.989.082zm.687-2.918c-.79 0-1.784.243-2.162.445-.337.181-.542.394-.56.585-.014.145.077.313.244.45.402.329 1.489.556 2.615.37 1.406-.234 1.841-.472 1.861-1.016-.039-.213-.846-.736-1.688-.82-.098-.009-.202-.014-.31-.014z"/>
</svg>
