<svg xmlns="http://www.w3.org/2000/svg" viewBox="0 0 36 36">
  <path fill="#FFCC4D" d="M32.127 31.764c-.256 0-.512-.098-.707-.293-.916-.916-1.598-1.07-2.462-1.266-.988-.224-2.109-.478-3.435-1.803s-1.578-2.446-1.802-3.435c-.195-.863-.35-1.546-1.266-2.462-.915-.915-1.597-1.069-2.46-1.264-.989-.224-2.11-.477-3.434-1.801-1.323-1.324-1.576-2.444-1.799-3.432-.194-.862-.348-1.543-1.262-2.458-.914-.914-1.595-1.067-2.457-1.262-.988-.223-2.108-.476-3.432-1.799-1.322-1.322-1.575-2.442-1.798-3.43-.195-.863-.348-1.544-1.263-2.458-.391-.39-.391-1.023 0-1.414s1.023-.391 1.414 0c1.324 1.323 1.577 2.443 1.8 3.432.195.862.348 1.543 1.263 2.458.914.914 1.595 1.067 2.457 1.262.988.223 2.108.476 3.432 1.799 1.324 1.324 1.576 2.444 1.799 3.432.194.862.348 1.543 1.262 2.458.916.916 1.597 1.07 2.46 1.264.988.224 2.109.477 3.434 1.801 1.325 1.325 1.578 2.446 1.802 3.435.195.863.35 1.546 1.266 2.462s1.599 1.07 2.462 1.266c.989.224 2.11.478 3.435 1.803.391.391.391 1.023 0 1.414-.197.193-.453.291-.709.291z"/>
</svg>
