<svg xmlns="http://www.w3.org/2000/svg" viewBox="0 0 36 36" xml:space="preserve">
  <path d="M3.5 13A1.5 1.5 0 0 1 2 11.5C2 6.813 5.813 3 10.5 3a1.5 1.5 0 1 1 0 3A5.506 5.506 0 0 0 5 11.5 1.5 1.5 0 0 1 3.5 13zM27 18c0-1.103.897-2 2-2a1.5 1.5 0 1 0 0-3c-2.757 0-5 2.243-5 5a1.5 1.5 0 1 0 3 0zM17 29c0-.551.449-1 1-1a1.5 1.5 0 1 0 0-3c-2.206 0-4 1.794-4 4a1.5 1.5 0 1 0 3 0z" fill="#FFF"/>
  <path d="M10.5 1c.68 0 1.344.07 1.988.195A5.47 5.47 0 0 1 13 3.5 5.5 5.5 0 0 1 2.227 5.057C4.15 2.593 7.14 1 10.5 1zm12.579 13.283A4.494 4.494 0 0 0 32 13.5a4.45 4.45 0 0 0-.506-2.033A6.96 6.96 0 0 0 29 11a6.995 6.995 0 0 0-5.921 3.283zM13.061 25.601A3.99 3.99 0 0 0 17 29a4 4 0 0 0 4-4c0-.466-.095-.907-.242-1.323A5.955 5.955 0 0 0 18 23a5.996 5.996 0 0 0-4.939 2.601z" fill="#FFF" fill-opacity=".5"/>
</svg>
