<svg xmlns="http://www.w3.org/2000/svg" viewBox="0 0 36 36">
  <path d="M10.08 2.113c-.153-.229-.463-.292-.693-.138l-.887.591V1.5c0-.276-.224-.5-.5-.5s-.5.224-.5.5v1.066l-.887-.591c-.231-.154-.54-.091-.693.138-.153.229-.091.54.139.693l1.04.694-1.04.693c-.23.154-.292.464-.139.694.096.145.255.223.417.223.095 0 .191-.027.277-.084l.886-.592V5.5c0 .276.224.5.5.5s.5-.224.5-.5V4.434l.887.591c.085.057.182.084.277.084.162 0 .32-.078.417-.223.153-.229.091-.54-.139-.693L8.901 3.5l1.04-.693c.23-.154.292-.464.139-.694zm-4 7c-.153-.229-.463-.292-.693-.138l-.887.591V8.5c0-.276-.224-.5-.5-.5s-.5.224-.5.5v1.066l-.887-.591c-.231-.154-.54-.091-.693.138-.153.229-.091.54.139.693l1.04.693-1.04.693c-.23.153-.292.464-.139.693.096.145.255.223.417.223.095 0 .191-.027.277-.084l.886-.59V12.5c0 .276.224.5.5.5s.5-.224.5-.5v-1.066l.887.591c.085.057.182.084.277.084.162 0 .32-.078.417-.223.153-.229.091-.54-.139-.693L4.901 10.5l1.04-.693c.23-.154.292-.464.139-.694zm0 17c-.153-.229-.463-.292-.693-.139l-.887.592V25.5c0-.276-.224-.5-.5-.5s-.5.224-.5.5v1.066l-.887-.591c-.231-.153-.541-.091-.693.139-.153.229-.091.54.139.693l1.04.693-1.04.693c-.23.153-.292.464-.139.693.096.145.255.223.417.223.095 0 .191-.027.277-.084l.886-.591V29.5c0 .276.224.5.5.5s.5-.224.5-.5v-1.066l.887.591c.085.057.182.084.277.084.162 0 .32-.078.417-.223.153-.229.091-.54-.139-.693L4.901 27.5l1.04-.693c.23-.154.292-.464.139-.694zM33.901 9.5l1.04-.693c.23-.153.292-.464.139-.693s-.463-.292-.693-.139l-.887.591V7.5c0-.276-.224-.5-.5-.5s-.5.224-.5.5v1.066l-.887-.591c-.231-.153-.541-.091-.693.139-.153.229-.091.54.139.693l1.04.693-1.04.693c-.23.153-.292.464-.139.693.096.145.255.223.417.223.095 0 .191-.027.277-.084l.887-.591V11.5c0 .276.224.5.5.5s.5-.224.5-.5v-1.066l.887.591c.085.057.182.084.277.084.162 0 .32-.078.417-.223.153-.229.091-.54-.139-.693L33.901 9.5zm.179 13.613c-.153-.229-.463-.292-.693-.139l-.887.592V22.5c0-.276-.224-.5-.5-.5s-.5.224-.5.5v1.066l-.887-.591c-.231-.153-.541-.091-.693.139-.153.229-.091.54.139.693l1.04.693-1.04.693c-.23.153-.292.464-.139.693.096.145.255.223.417.223.095 0 .191-.027.277-.084l.887-.591V26.5c0 .276.224.5.5.5s.5-.224.5-.5v-1.066l.887.591c.085.057.182.084.277.084.162 0 .32-.078.417-.223.153-.229.091-.54-.139-.693l-1.04-.693 1.04-.693c.228-.154.29-.464.137-.694zm-4.139-18.92l-1.04-.693 1.04-.693c.23-.153.292-.464.139-.693s-.463-.292-.693-.139l-.887.591V1.5c0-.276-.224-.5-.5-.5s-.5.224-.5.5v1.066l-.887-.591c-.231-.153-.541-.091-.693.139-.153.229-.091.54.139.693l1.04.693-1.04.693c-.23.153-.292.464-.139.693.096.145.255.223.417.223.095 0 .191-.027.277-.084l.886-.591V5.5c0 .276.224.5.5.5s.5-.224.5-.5V4.434l.887.591c.085.057.182.084.277.084.162 0 .32-.078.417-.223.152-.229.09-.539-.14-.693z" fill="#88C9F9"/>
</svg>
