<svg xmlns="http://www.w3.org/2000/svg" viewBox="0 0 36 36">
  <g fill="#66757F">
    <path d="M34.999 32.16c-.175 0-.353-.046-.514-.143-4.628-2.777-11.278-1.877-11.345-1.867-.559.079-1.053-.304-1.13-.85-.078-.547.302-1.053.848-1.131.301-.042 7.411-1.014 12.656 2.133.474.284.627.898.343 1.372-.187.313-.518.486-.858.486z"/>
    <path d="M32.001 35.16c-.305 0-.604-.138-.801-.4-2.728-3.637-8.309-4.604-8.364-4.613-.545-.091-.913-.606-.822-1.15.09-.545.606-.92 1.15-.822.262.044 6.433 1.115 9.636 5.387.332.441.242 1.068-.2 1.399-.18.134-.39.199-.599.199zm-31-3c-.34 0-.671-.173-.858-.485-.284-.474-.131-1.088.343-1.372 5.244-3.146 12.355-2.175 12.656-2.133.546.078.926.584.848 1.131-.078.547-.582.93-1.13.85-.066-.009-6.717-.909-11.345 1.867-.161.096-.339.142-.514.142z"/>
    <path d="M3.999 35.16c-.208 0-.419-.065-.599-.2-.442-.331-.531-.958-.2-1.399 3.203-4.271 9.375-5.343 9.635-5.387.548-.097 1.059.276 1.15.821.091.544-.276 1.06-.82 1.151-.056.01-5.648.991-8.366 4.613-.195.263-.496.401-.8.401z"/>
  </g>
</svg>
