<svg xmlns="http://www.w3.org/2000/svg" viewBox="0 0 36 36">
  <path fill="#77B255" d="M34.725 18.412c-1.9-1.751-1.79-.819-3.246-1.23-.553-.156-4.51-5.271-13.529-5.271h-.02c-9.019 0-12.976 5.115-13.529 5.271-1.456.411-1.346-.521-3.246 1.23-.872.804-1.108 1.222-.188 1.43 1.386.313 1.26 1.152 2.253 1.444 1.202.353 1.696-.292 3.634-.028 1.653.225 1.761 2.369 3.429 2.369s1.668-.8 3.335-.8 2.653 2.146 4.321 2.146 2.653-2.146 4.321-2.146c1.668 0 1.668.8 3.335.8 1.668 0 1.776-2.144 3.429-2.369 1.938-.263 2.433.381 3.634.028.993-.292.867-1.13 2.253-1.444.922-.207.687-.626-.186-1.43z"/>
</svg>
