<svg xmlns="http://www.w3.org/2000/svg" viewBox="0 0 36 36">
  <path d="M10.784 3.695c-.498-.319-1.159-.173-1.477.325-.318.498-.173 1.16.325 1.477.498.319 1.76.557 2.079.059.318-.498-.429-1.543-.927-1.861zm9.734-1.035c-.562.182-1.549 1.006-1.366 1.568.183.562 1.464.648 2.026.466s.869-.786.686-1.348c-.182-.561-.786-.869-1.346-.686zm10.909 7.035c-.452-.38-1.585.225-1.966.677-.38.453-.321 1.127.131 1.507.452.38 1.127.321 1.507-.131.381-.453.781-1.673.328-2.053zm-3.643-5c-.498-.318-1.159-.172-1.478.326-.318.498-.172 1.159.326 1.477.498.319 1.76.557 2.078.059.319-.499-.428-1.544-.926-1.862zm-15 7c-.498-.318-1.159-.172-1.478.326-.318.497-.172 1.159.326 1.476.498.319 1.76.558 2.078.059.319-.498-.428-1.543-.926-1.861zm3.046-4.808c-.336.486-.62 1.739-.133 2.075.486.336 1.557-.374 1.893-.86.336-.486.213-1.152-.273-1.488-.485-.336-1.152-.213-1.487.273zm7.954 4.808c-.498-.318-1.159-.172-1.478.326-.318.497-.172 1.16.326 1.476.498.319 1.76.558 2.078.059.319-.498-.428-1.543-.926-1.861zM4.948 7.808c-.394.441-.833 1.648-.392 2.042.439.394 1.591-.174 1.985-.615.395-.44.357-1.116-.083-1.511-.439-.394-1.116-.356-1.51.084z" fill="#FFE8B6"/>
</svg>
