<svg xmlns="http://www.w3.org/2000/svg" viewBox="0 0 36 36">
  <path fill="#DD2E44" d="M31.998 27c-.168 0-.339-.042-.495-.132l-13.504-7.717-13.504 7.717c-.478.276-1.09.107-1.364-.372s-.107-1.09.372-1.364l14-8c.308-.176.685-.176.992 0l14 8c.48.274.647.885.372 1.364-.184.323-.521.504-.869.504zm-8.999-13c-.219 0-.439-.072-.624-.219l-4.376-3.5-4.374 3.5c-.432.343-1.061.275-1.406-.156-.345-.432-.275-1.061.156-1.406l4.999-4c.365-.292.884-.292 1.25 0l5.001 4c.431.345.501.974.156 1.405-.198.247-.488.376-.782.376z"/>
</svg>
