<svg xmlns="http://www.w3.org/2000/svg" viewBox="0 0 36 36">
  <path fill="#66757F" d="M24.811 18.482h-1.085l-.238-.571.027-.035c.002-.002.15-.19.188-.372.007-.037.012-.072.016-.104.019-.142.036-.275.275-.355.231-.077 1.213-.547 1.563-.722.306-.153.778-.703.783-.708l.217-.253-.176.645c.411-.089.525-.048.563.041.035.079-.025.174-.119.266.187-.017.285.013.318.092.035.082-.03.178-.118.263h.009c.245 0 .356.042.379.133.022.091-.069.194-.273.31.123.028.223.081.223.182 0 .204-.478.357-.921.381-.693.039-1.602.782-1.61.79l-.021.017zm-.986-.15h.932c.146-.118.986-.768 1.677-.806.463-.026.757-.176.778-.233-.008 0-.065-.047-.335-.061l-.313-.016.287-.127c.185-.083.361-.19.406-.246-.036-.013-.141-.035-.452-.014l-.274.019.228-.156c.112-.077.219-.177.241-.224-.029-.01-.13-.023-.427.037l-.361.072.305-.208c.13-.089.255-.202.283-.256-.038-.01-.161-.016-.506.068l-.123.03.072-.267c-.173.18-.421.415-.619.514-.293.147-1.326.645-1.583.73-.149.05-.156.1-.173.232-.005.035-.01.073-.019.114-.033.167-.14.329-.189.399l.165.399z"/>
</svg>
