<svg xmlns="http://www.w3.org/2000/svg" viewBox="0 0 36 36">
  <path fill="#D89500" d="M22 19.537s.767.121 1.089 0c.323-.121.726-.242.726-.242l.605.645.242-.605.444.121-.041.202s.363.121.363.161c0 .04-.04.363-.04.363l1.129.282.202-.443s.726.645 1.009.685c.281.041 1.129 0 1.29.121.161.122.524.363.524.363s2.864.646 2.864.687c0 .04-.04.281-.282.241-.242-.04-3.953-.767-4.438-.928-.484-.161-1.21.161-1.21.161v-.443l-1.251-.363-.12.323h-.323l-.121.282-.443-.121.08-.606s-.362-.04-.523.081c-.162.121-.403.242-.403.242s-.242-.443-.606-.686c-.363-.241-.766-.523-.766-.523z"/>
  <path fill="#D89500" d="M26.114 21.675s5.405.443 5.729.483c.322.041.322.323 0 .363-.323.041-5.729-.403-5.729-.403s-.242.242-.242.323c0 .08 2.138.121 2.138.121l-.201.201s.847.04 1.17-.04c.322-.081.362-.322.403-.242.04.081-.242.403-.161.403.08 0 .968-.081.968-.081l-.646.323.969.363s-.484.121-.687.121c-.201 0-.524-.081-.524-.081s.323.443.565.524c0 0-.807-.202-.929-.323-.12-.12.242.606-.483-.04-.726-.646-.726-.322-.726-.322l.241.403s-.604 0-1.009-.242c-.403-.242-.887-.363-1.25-.484s-.685-.242-.968-.403c-.282-.161-.888-.524-.767-.887s.604-.242.604-.242.323-.081.565-.041c.242.041.403-.282.646-.161.244.122.324.364.324.364z"/>
</svg>
