<svg xmlns="http://www.w3.org/2000/svg" viewBox="0 0 36 36">
  <path fill="#66757F" d="M34.396 17.686l-2.791-.465.001-.065.043-1.828.092.023c.229.057.72.083 1.741-.122.085-.017.165-.036.239-.053.289-.069.52-.124.675.034.112.11.144.196.148.252.084.049.237.156.237.284v.102c.062.118.12.317.011.444.026.091.067.285-.006.428-.023.047-.059.084-.102.112.03.078.062.203.011.304-.023.046-.071.102-.172.127l-.127.423zm-2.639-.593l2.533.422.117-.387.048-.006c.084-.011.101-.044.106-.055.032-.064-.015-.188-.042-.237l-.046-.083.091-.026c.042-.012.07-.034.088-.07.054-.105.006-.293-.017-.356l-.02-.053.045-.033c.105-.079-.019-.304-.021-.306l-.01-.017v-.141c0-.042-.105-.127-.199-.175l-.067-.033.033-.066c-.003 0-.004-.054-.107-.157-.093-.094-.256-.061-.534.006-.076.018-.158.037-.245.055-.774.156-1.353.202-1.716.139l-.037 1.579z"/>
</svg>
