<svg xmlns="http://www.w3.org/2000/svg" viewBox="0 0 36 36">
  <path fill="#9C3900" d="M25.711 16.431c.363-.242.686-.726.686-.726s-.121-.162-.564.04c-.443.202-1.009.444-1.251.162-.37-.434.171-.98.605-1.13 1.291-.443-.524-.927 1.009-1.613.643-.288 1.896-.484 2.138-.605s.604-.565.604-.524c0 .04.041.323.041.323s.888-.242 1.17-.363c.282-.121.524-.443.524-.443l.08.282s.727-.081 1.009-.282c.282-.202.484-.04.484-.04s.807-.202 1.129-.363c.323-.161.767-.242.686.041-.08.282-.564 1.694-.767 1.977-.201.282-.161.726-.403.928-.241.202-1.895 1.129-1.895 1.129s.807.04 1.13.162c.322.121.161.524.161.524s.081.161.081.322c0 .162-.202.202-.202.202s.202.081.161.242c-.04.162-.403.162-.322.162.081 0 .403.322.363.443-.041.121-.686-.161-.969-.08 0 0 .041.202.282.323.242.121.242.202.041.323-.202.121-.404.282-.202.282s.282.121.161.202c-.121.08.484 0 .121.282-.362.283-.443.283-.443.283s.363.443.201.484c-.161.04-.686-.243-.686-.243s.121.404.323.525c0 0-.444.281-.686-.041 0 0 .04.444.161.565 0 0-.242.04-.444-.121 0 0-.161.322-.08.524l-.403-.646-.565-.16-.322.564s-.202-.404-.161-.767c.04-.362 0-.887-.041-1.089-.04-.202-.524-.766-.927-.847-.404-.081-1.171-.081-1.171-.081l-.928-1.13"/>
</svg>
