<svg xmlns="http://www.w3.org/2000/svg" viewBox="0 0 36 36">
  <path fill="#FAAE29" d="M8.348 30.084l-.244.166s-.208-.396-.771-.438-.875.188-1.354.219c-.479.031-1.955-1.086-1.188-2.797.688.495.331 1.099.645 1.391.314.292.645.49.772.834.128.344.726.059 1.125.125.625.104 1.015.5 1.015.5z"/>
  <path fill="#FAAE29" d="M6.651 30.084l.244.166s.208-.396.771-.438.876.188 1.355.219 1.955-1.086 1.187-2.797c-.687.495-.331 1.099-.645 1.391-.314.292-.645.49-.772.834-.128.344-.726.059-1.125.125-.625.104-1.015.5-1.015.5z"/>
</svg>
