<svg xmlns="http://www.w3.org/2000/svg" viewBox="0 0 36 36">
  <path fill="#FFF" d="M18.18 8.289c.65.564 1.07 1.387 1.07 2.316 0 1.7-1.378 3.078-3.078 3.078-.585 0-1.125-.172-1.591-.455.571.622 1.384 1.018 2.294 1.018 1.726 0 3.125-1.399 3.125-3.125 0-1.26-.748-2.337-1.82-2.832zm-2.334-.422l-.246.483.383.384-.535-.085-.247.483-.084-.535-.536-.085.483-.246-.085-.537.384.384z"/>
  <path fill="#FFF" d="M17.377 8.795l-.246.483.384.384-.536-.085-.247.483-.084-.536-.536-.085.483-.246-.084-.536.383.384zm-1.531.665l-.246.483.383.384-.535-.085-.247.483-.084-.536-.536-.085.483-.246-.085-.536.384.384zm-1.594.809l-.246.483.384.384-.536-.085-.247.484-.084-.536-.536-.085.483-.246-.084-.536.383.384zm1.594.902l-.246.483.383.384-.535-.085-.247.483-.084-.536-.536-.085.483-.246-.085-.536.384.384z"/>
</svg>
