<svg xmlns="http://www.w3.org/2000/svg" viewBox="0 0 36 36">
  <path fill="#FAAE29" d="M4 8.312l.805.805-.219.219.32.32.211-.211.664.664-.656.657-.273-.274-.29.289.243.242-.805.711v-.375l.441-.418-.238-.191.608-.607.351.304.328-.328-.351-.351-.246.246-.641-.641.24-.24L4 8.688zm0 4.626l.805.804-.219.219.32.32.211-.211.664.664-.656.657-.273-.274-.29.289.243.242-.805.711v-.375l.441-.418-.238-.191.608-.607.351.304.328-.328-.351-.351-.246.246-.641-.641.24-.24L4 13.312zm0 4.718l.805.805-.219.219.32.32.211-.211.664.664-.656.656-.273-.273-.29.289.243.242-.805.711v-.375l.441-.418-.238-.191.608-.608.351.305.328-.328-.351-.352-.246.246-.641-.64.24-.24L4 18.031zm0 4.656l.805.805-.219.219.32.32.211-.211.664.664-.656.657-.273-.274-.29.289.243.242-.805.711v-.375l.441-.418-.238-.191.608-.607.351.304.328-.328-.351-.351-.246.246-.641-.641.24-.24L4 22.688zm7-14l-.805.805.219.219-.32.32-.211-.211-.664.664.656.657.273-.274.29.289-.243.242.805.711v-.375l-.441-.418.238-.191-.608-.607-.351.304-.328-.328.351-.351.246.246.641-.641-.24-.24.492-.445zM4.562 5.688l.29-.29.273.274.656-.656L5.766 5h-.301l.025.025-.328.329-.351-.305-.608.607.238.192L4 6.266v.375l.805-.711zm6.235-.032l-.608-.607-.351.305-.328-.329L9.535 5h-.301l-.015.016.656.656.273-.274.29.29-.243.242.805.711v-.375l-.441-.418zM11 12.938l-.805.804.219.219-.32.32-.211-.211-.664.664.656.657.273-.274.29.289-.243.242.805.711v-.375l-.441-.418.238-.191-.608-.607-.351.304-.328-.328.351-.351.246.246.641-.641-.24-.24.492-.446zm0 4.718l-.805.805.219.219-.32.32-.211-.211-.664.664.656.656.273-.273.29.289-.243.242.805.711v-.375l-.441-.418.238-.191-.608-.608-.351.305-.328-.328.351-.352.246.246.641-.64-.24-.24.492-.446zm0 4.656l-.805.805.219.219-.32.32-.211-.211-.664.664.656.657.273-.274.29.289-.243.242.805.711v-.375l-.441-.418.238-.191-.608-.607-.351.304-.328-.328.351-.351.246.246.641-.641-.24-.24.492-.445z"/>
</svg>
