<svg xmlns="http://www.w3.org/2000/svg" viewBox="0 0 36 36">
  <path fill="#FAAE29" d="M10.113 7.729v.392l-.462.284v.338l-.498.302H8.78l-.605.313H7.5V7.729zm-5.185 3.833h.676v.729h-.676zm.676-.104h.676v.729h-.676zm.677-.26h.676v.729h-.676zm3.135.364h.676v.729h-.676zm-.677-.104h.676v.729h-.676zm-.677-.26h.676v.729h-.676z"/>
  <path fill="#FAAE29" d="M6.958 10.833h1.105v.901H6.958zm-2.03 1.651h.676v.729h-.676zm.676.104h.676v.729h-.676zm.677.261h.676v.729h-.676zm3.135-.365h.676v.729h-.676zm-.677.104h.676v.729h-.676zm-.677.261h.676v.729h-.676z"/>
  <path fill="#FAAE29" d="M6.958 13.042h1.105v.901H6.958z"/>
</svg>
