<svg xmlns="http://www.w3.org/2000/svg" viewBox="0 0 36 36">
  <path fill="#29AE66" d="M8.383 15.646H6.657l-1.221.86v1.217l1.221.86h1.727l1.221-.86v-1.217l-1.222-.86zm.736 1.936l-.937.66H6.858l-.937-.66v-.934l.937-.66h1.324l.937.66v.934zm-.526 6.96H6.447l-1.517.971v1.371l1.517.97h2.145l1.517-.97v-1.371l-1.516-.971zm1.059 2.221l-1.25.799H6.637l-1.25-.799v-1.13l1.25-.799h1.766l1.25.799v1.13zm.102-5.325v-.443h-.442v-.493H5.719v.493h-.494v.443h-.433v.646h.433v.479h.494v.521h3.594v-.521h.441v-.479h.517v-.646h-.517zm-.677 1.374H5.959v-2.084h3.118v2.084z"/>
  <path fill="#29AE66" d="M7.5 20.25l-1.896 1.125v.729l1.896 1.23 1.916-1.188v-.771z"/>
</svg>
