<svg xmlns="http://www.w3.org/2000/svg" viewBox="0 0 36 36">
  <path fill="#AF7E57" d="M8.31 4.156c.011.127.814 1.525 1.266 2.625.452 1.1.747 2.25.984 2.5.476.499 1.926 1.474 2.911 2.937.985 1.464-1.977 2.58-2.611 1.588-.451-.706-1.309-2.368-2.097-3.759-.304-.54-.897-1.454-1.328-2.516-.406-1-.642-2.168-.702-2.312-.179-.425-.879-.977-.913-1.407 0 0 2.454-.084 2.49.344zm19.159 0c-.011.127-.814 1.525-1.266 2.625-.452 1.1-.747 2.25-.984 2.5-.476.499-1.926 1.474-2.911 2.937-.985 1.464 1.977 2.58 2.611 1.588.451-.706 1.309-2.368 2.097-3.759.304-.54.897-1.454 1.328-2.516.406-1 .642-2.168.702-2.312.178-.425.878-.977.912-1.406 0-.001-2.453-.085-2.489.343z"/>
</svg>
