<svg xmlns="http://www.w3.org/2000/svg" viewBox="0 0 36 36">
  <path fill="#D99E82" d="M.314 10.699c-.004.961 1.22 2.097 2.883 1.682 1.333-.332 3.234-1.359 3.316-.561.082.798-1.179 3.471-.629 6.276.93 4.74 2.379 8.873 7.201 10.095 0 0 .723 2.775 1.479 3.986.694 1.111 1.029 2.022.45 2.215-.579.193-3.472.386-4.694.579C9.099 35.164 8.906 36 10.256 36H17.2c.707 0 .643-.643.193-1.607s.805-2.643.598-5.332c.414.14 1.395.067 1.974.838.579.772 3.729 5.976 8.809 5.976s6.43-3.826 6.815-4.855c.386-1.029-.45-1.029-1.093-.193s-2.761 1.931-5.722 1.508c-3.151-.45-3.822-4.465-4.658-6.909-.836-2.443-2.74-6.968-7.044-9.487-3.177-1.859-5.483-1.31-5.363-3.356.178-3.033.325-5.21-1.099-6.892-1.15-1.357-3.851-1.264-5.418-.319-.697.42-1.117 1.595-1.778 2.103C1.428 8.998.317 9.848.314 10.699z"/>
</svg>
