<svg xmlns="http://www.w3.org/2000/svg" viewBox="0 0 36 36">
  <path fill="#F7DECE" d="M12.497 16.024c-.674-.134-1.336 1.309-1.47 1.983L9.846 23.02c-1.619 1.166-1.57 3.454-2.808 4.512-.171.146-.949.766-1.203 1.325-.336.738.22.444.045.695-.406.584-.414 1.478-.127 1.686l.373.1c.557.403 2.081-1.336 2.281-2.302.3-1.443 3.075-3.25 3.589-4.653.006-.017.007-.029.013-.046.097-.138.169-.294.204-.469l1.266-6.375c.135-.674-.308-1.335-.982-1.469zm17.59 13.588c-.175-.251.437-.016.101-.754-.255-.56-1.089-1.179-1.259-1.325-1.246-1.064-1.133-3.377-2.781-4.535l-1.176-4.99c-.134-.674-.795-2.117-1.47-1.983-.674.134-1.116.795-.983 1.47l1.266 6.375c.038.191.125.355.236.501l.004.014c.513 1.402 3.289 3.209 3.589 4.653.201.967 1.725 2.706 2.281 2.302l.373-.1c.29-.21.226-1.044-.181-1.628z"/>
  <path fill="#F7DECE" d="M22.757 35.82c-1.04.089-2.02-.208-3 0-.475.03-.802 0-1.277-.416s-8.287-1.515-9.713-2.465c-.658-.439-1.662-1.54-1.396-2.465.263-.913 1.139-1.429 2.198-1.455 2.065-.051 6 2.941 8.851 4.04.518.2.948-.052 1.604.119.683.178 2.317-.555 3.149-.446 1.129.149 1.574.683 1.485 1.604-.094.974-.861 1.395-1.901 1.484z"/>
</svg>
