<svg xmlns="http://www.w3.org/2000/svg" viewBox="0 0 36 36">
  <path fill="#FDCB58" d="M34.347 23.894l-3.824-1.416-1.416-3.824c-.145-.394-.52-.654-.938-.654-.418 0-.793.26-.938.653l-1.416 3.824-3.824 1.416c-.393.144-.653.519-.653.938 0 .418.261.793.653.938l3.824 1.416 1.416 3.824c.145.393.52.653.938.653.418 0 .793-.261.938-.653l1.416-3.824 3.824-1.416c.392-.145.653-.52.653-.938 0-.418-.261-.793-.653-.937zm-23-16.001l-2.365-.875-.875-2.365C7.961 4.26 7.587 4 7.169 4c-.419 0-.793.26-.938.653l-.876 2.365-2.364.875c-.393.146-.653.52-.653.938 0 .418.26.792.653.938l2.365.875.875 2.365c.146.393.52.653.938.653.418 0 .792-.26.938-.653l.875-2.365 2.365-.875c.393-.146.653-.519.653-.938 0-.418-.26-.792-.653-.938z"/>
</svg>
