<svg xmlns="http://www.w3.org/2000/svg" viewBox="0 0 36 36">
  <path d="M7.721 13.536l.383 1.316h1.324l-1.045.804.383 1.279-1.045-.805-1.045.768.383-1.242-1.045-.804h1.289zm-4.014 5.133l.383 1.314h1.324l-1.045.804.383 1.279-1.045-.803-1.045.767.383-1.243L2 19.983h1.289zm4.014 6.933l.383 1.315h1.324l-1.045.804L8.766 29l-1.045-.804-1.045.767.383-1.242-1.045-.804h1.289zm1.792-2.794l.192.657h.662l-.523.403.192.639-.523-.403-.522.384.191-.62-.522-.403h.644zm2.203-4.504l.383 1.315h1.324l-1.045.804.383 1.279-1.045-.804-1.045.767.383-1.242-1.045-.804h1.289z" fill="#FFF"/>
</svg>
