<svg xmlns="http://www.w3.org/2000/svg" viewBox="0 0 36 36">
  <path fill="#FFDC5D" d="M21.455.928C20.11.273 17.97.83 17.513 2.411c-.637 2.207.496 4.206 1.922 4.164 1.496-.044 2.431-.302 3.152-1.782.72-1.48.214-3.21-1.132-3.865z"/>
  <path fill="#FFDC5D" d="M22.162 5.155c2.205-2.215-2.678-2.364-2.678-2.364-.923-.039-.41 1.545-.908 2.349-.342.557.884.962.884.962s.575.036.551.735v.006c-.007.178-.042.387-.147.662-.521 1.362 1.285 2.364 1.805.999.206-.54.181-1.031.133-1.487l-.004-.04c-.072-.677-.181-1.274.364-1.822z"/>
</svg>
