<svg xmlns="http://www.w3.org/2000/svg" viewBox="0 0 36 36">
  <path fill="#0B0200" d="M27 5c2 0 2.999 1 2.999 1-1-3-5-3-5-3C24.051.796 22.427.796 22.427.796c.872.69.882 1.638.882 1.638l-.05.009C21.991 1.628 19.035.281 14 1c0 0 2 0 3 1 0 0-7-1-10 4 0 0 1.47-1.455 3.775-1.248-1.703 1.097-3.092 2.905-3.366 5.031-.443 3.437.545 5.032.896 7.616.398 2.928 2.044 3.864 3.36 4.256 1.893 2.501 3.906 2.394 7.285 2.394 4.715 0 7.657-2.264 9.059-6.287.491.734.436 1.288.436 1.288s1.329-3.788 1-8C29.117 6.839 27 5 27 5z"/>
</svg>
