<svg xmlns="http://www.w3.org/2000/svg" viewBox="0 0 36 36">
  <path fill="#FFF" d="M15.865 16.109s-1.401.133-2.632.165c-.009-.269-.014-.506-.014-.681 0-.188.007-.394.017-.605.973.06 1.645.246 1.645.246.247 0 .447-.2.447-.447v-.606c0-.247-.2-.447-.447-.447 0 0-.739.126-1.568.179.071-.782.156-1.435.156-1.435 0-.247-.2-.447-.447-.447h-.605c-.247 0-.447.2-.447.447 0 0 .092.666.17 1.443-.852-.047-1.583-.187-1.583-.187-.247 0-.447.2-.447.447v.606c0 .247.2.447.447.447 0 0 .639-.206 1.67-.255.014.23.024.453.024.646 0 .161-.006.388-.016.649-1.242-.033-2.693-.164-2.693-.164-.247 0-.447.2-.447.447v.606c0 .247.2.447.447.447 0 0 1.319-.108 2.635-.128-.083 1.531-.207 3.322-.207 3.322 0 .247.2.447.447.447h.605c.247 0 .447-.2.447-.447 0 0-.111-1.773-.185-3.317 1.272.03 2.581.123 2.581.123.247 0 .447-.2.447-.447v-.606c0-.247-.2-.448-.447-.448z"/>
</svg>
