<svg xmlns="http://www.w3.org/2000/svg" viewBox="0 0 36 36">
  <g fill="#55ACEE">
    <path d="M14.2 18.73c-.056.269-1.602 8.59-1.643 9.077-.015.179-.024.334-.018.431.008.139.626 5.29.705 5.892.274.061.636.102 1.024.115-.075-.569-.72-5.897-.73-6.068-.003-.05-.001-.12.004-.206.025-.393 1.485-8.301 1.638-9.036l-.98-.205z"/>
    <path d="M16.691 18.454c-.001.014-.133 1.436-.312 2.322-.051.253-.123.534-.198.819-.083.312-.177.637-.28.972-.25.814-.54 1.67-.815 2.472l-.001.004c-.124.361-.853 2.598-.889 3.001-.006.071-.008.136-.005.194.011.176.641 5.411.719 6.004.363-.017.709-.062.99-.14-.075-.572-.7-5.734-.711-5.924-.001-.018.005-.052.007-.078.028-.313.895-2.911.924-2.997.276-.805.557-1.647.799-2.454.102-.342.193-.671.274-.989.059-.234.122-.472.165-.686.188-.938.321-2.367.327-2.428l-.994-.092zm2.706.599c0 .629-.265 1.913-.503 2.56-.045.121-.841 1.651-.985 1.979.359-.293.828-.617 1.298-1.008.201-.167.399-.348.59-.543.065-.167.128-.359.187-.566.238-.832.413-1.886.413-2.422h-1z"/>
  </g>
</svg>
