<svg xmlns="http://www.w3.org/2000/svg" viewBox="0 0 36 36">
  <path fill="#4289C1" d="M22.141 8.562c-.812 0-1.45.072-1.99.111 0 0-.077.847-1.387.886-1.309.039-1.656-.655-1.656-.655s-1.411-.055-2.143.407l-1.606.685s.915 1.338.821 2.719l.74-.212s-.032.025-.068.525c-.088 1.207.208 5.343.054 5.69 0 0 1.521.536 3.469.75 1.192.131 3.703.106 3.703.106-.31-1.295-.529-3.545-.578-4.652-.096-2.173.497-3.318.708-3.298.896.083 1.729-.125 1.729-.125s-.375-.688-.292-1.458c.083-.771.312-1.292.312-1.292s-1.004-.187-1.816-.187z"/>
</svg>
