<svg xmlns="http://www.w3.org/2000/svg" viewBox="0 0 36 36">
  <path fill="#CCD6DD" d="M29.463 33.264c.019 0 .037-.002.057-.008l.944-.277c.105-.031.166-.142.136-.248-.031-.106-.137-.167-.249-.136l-.944.277c-.105.031-.166.142-.136.248.026.087.105.144.192.144zm-.22-.747c.019 0 .037-.002.057-.008l.944-.277c.105-.031.166-.142.136-.248-.031-.106-.137-.167-.249-.136l-.944.277c-.105.031-.166.142-.136.248.026.088.105.144.192.144zm-.218-.747c.019 0 .037-.002.057-.008l.944-.277c.105-.031.166-.142.136-.248-.031-.106-.137-.167-.249-.136l-.944.277c-.105.031-.166.142-.136.248.026.088.105.144.192.144z"/>
</svg>
