<svg xmlns="http://www.w3.org/2000/svg" viewBox="0 0 36 36">
  <circle fill="#292F33" cx="5" cy="17" r="1"/>
  <path fill="#292F33" d="M0 20s0 2 1 2c0-2 1-2 1-2s-1-1-2 0zm16 5c2.154-2.872 2.759-7.794 2.93-10.348-.779-.443-1.685-.901-2.804-1.223.403 1.455 1.562 6.506-.126 11.571zm4-2c1.264-1.896 1.729-4.988 1.9-7.009-.783-.039-1.562-.518-2.529-1.085.524 1.452 1.345 4.512.629 8.094zm3-1c1.094-1.641 1.588-4.177 1.812-6.141-.59.053-1.218.09-1.864.114.331 1.592.518 3.698.052 6.027zm3-1c.961-1.442 1.458-3.574 1.717-5.403-.515.033-1.052.08-1.63.138.232 1.478.308 3.291-.087 5.265zm3 2.444c1.364-2.046 1.797-5.486 1.935-7.468-.707-.336-1.538-.432-2.489-.414.523 1.528 1.236 4.471.554 7.882zM13 21c1.455-2.182 1.85-5.942 1.958-7.835C14.36 13.063 13.714 13 13 13c-.161 0-.356.032-.568.075.523 1.516 1.256 4.483.568 7.925z"/>
</svg>
