<svg xmlns="http://www.w3.org/2000/svg" viewBox="0 0 36 36">
  <path d="M24.769 8.816l-1.617-1.617c-.446-.446-1.172-.446-1.618 0-.446.447-.446 1.171 0 1.617l1.618 1.618c.445.446 1.171.446 1.617 0 .446-.446.446-1.17 0-1.618zm-9.705 1.619c.446.446 1.171.446 1.617 0 .447-.447.447-1.171 0-1.618l-.77-.77c-.654.398-1.302.829-1.938 1.297l1.091 1.091zm2.426-2.427c.447.447 1.17.447 1.617 0 .446-.446.446-1.17 0-1.617l-.025-.025c-.711.325-1.431.688-2.149 1.086l.557.556zm-4.853 4.853c.447.446 1.171.446 1.619 0 .446-.447.446-1.171 0-1.618l-1.198-1.196c-.586.474-1.156.985-1.707 1.528l1.286 1.286zM23.96 4.773c-.447.447-.447 1.17 0 1.617l1.617 1.617c.447.447 1.171.447 1.617 0 .446-.446.446-1.17 0-1.617l-1.617-1.617c-.447-.446-1.17-.446-1.617 0zm2.408-.796c.006.007.008.016.015.023L28 5.617c.447.447 1.171.447 1.617 0 .446-.446.446-1.17 0-1.617l-.462-.462c-.54.044-1.516.172-2.787.439zm-4.025 8.884c.446-.447.446-1.171 0-1.618l-1.618-1.617c-.446-.447-1.171-.447-1.617 0-.447.446-.447 1.17 0 1.617l1.617 1.618c.446.446 1.171.446 1.618 0zm-2.428 2.426c.447-.447.447-1.171 0-1.618l-1.617-1.617c-.446-.447-1.17-.447-1.617 0-.446.447-.446 1.171 0 1.617l1.617 1.618c.447.446 1.172.446 1.617 0zm-4.851 4.852c.447-.447.446-1.17 0-1.618l-1.618-1.617c-.446-.446-1.169-.447-1.617 0-.446.447-.446 1.171 0 1.617l1.617 1.618c.447.446 1.171.446 1.618 0zm-.808-5.661c-.447.446-.447 1.171 0 1.618l1.617 1.617c.447.446 1.17.446 1.618 0 .447-.447.447-1.171 0-1.617l-1.618-1.618c-.447-.447-1.171-.447-1.617 0z" fill="#F7B82D"/>
</svg>
