<svg xmlns="http://www.w3.org/2000/svg" viewBox="0 0 36 36">
  <path fill="#77B255" d="M27.866 23.574c-7.125-2.374-15.097.652-19.418 3.576 2.925-4.321 5.95-12.294 3.576-19.418-.934-2.8-5.602-5.601-8.402-2.801-.934.934-1.867 1.868 0 1.868s4.667 2.8 3.735 5.601c-.835 2.505-6.889 8.742-4.153 15.375-.27.115-.523.279-.744.499l-.715.714c-.919.919-.919 2.409 0 3.329l.716.716c.919.92 2.409.92 3.328 0l.715-.716c.123-.123.227-.258.316-.398 6.999 3.84 13.747-2.799 16.379-3.677 2.8-.933 5.6 1.868 5.6 3.734 0 1.867.934.934 1.867 0 2.801-2.8-.001-7.47-2.8-8.402z"/>
</svg>
