<svg xmlns="http://www.w3.org/2000/svg" viewBox="0 0 36 36">
  <path fill="#66757F" d="M27.315.179c-1.277 0-2.383.802-2.994 1.97-.606-1.143-1.717-1.97-3.006-1.97-1.277 0-2.383.802-2.994 1.97-.606-1.143-1.717-1.97-3.006-1.97-1.277 0-2.383.802-2.994 1.97-.606-1.143-1.717-1.97-3.006-1.97-1.934 0-3.5 1.819-3.5 4.005 0 1.854 1.045 3.371 2.569 3.926.759.275 1.224-.447 1.159-1.026-.055-.48-.374-.793-.729-1.018-.485-.307-1-1.008-1-1.877 0-1.104.671-2.095 1.5-2.095s1.5.905 1.5 1.905h1.016c-.003.062-.016.121-.016.184 0 1.854 1.045 3.371 2.569 3.926.759.275 1.224-.447 1.159-1.026-.055-.479-.374-.792-.729-1.017-.485-.307-1-1.008-1-1.877 0-1.104.671-2.095 1.5-2.095S16.815 3 16.815 4h1.016c-.003.062-.016.121-.016.184 0 1.854 1.045 3.371 2.569 3.926.759.275 1.224-.447 1.159-1.026-.055-.479-.374-.792-.729-1.017-.485-.307-1-1.008-1-1.877 0-1.104.671-2.095 1.5-2.095S22.815 3 22.815 4h1.016c-.003.062-.016.121-.016.184 0 1.854 1.045 3.371 2.569 3.926.759.275 1.224-.447 1.159-1.026-.055-.479-.374-.792-.729-1.017-.485-.307-1-1.008-1-1.877 0-1.104.671-2.095 1.5-2.095S28.815 3 28.815 4h1.996C30.79 2 29.235.179 27.315.179z"/>
</svg>
