<svg xmlns="http://www.w3.org/2000/svg" viewBox="0 0 36 36">
  <path fill="#D4AB88" d="M16.261 28.432c-.378-.1-.67-.432-.807-.785-.059-.152-.245-.89-.245-.89l-2.284.284c.043.214.114.512.185.94.054.324-.089.753.012.954.101.201.817.74 1.301.839 1.237.255 2.491-.342 2.644-.517.223-.254-.427-.725-.806-.825zm7.51-3.222c-.334-.065-.607-.336-.746-.634-.06-.129-.22-.651-.22-.651l-2.009.274c.05.183.129.438.216.804.066.278-.033.659.066.827.099.169.752.594 1.178.652 1.088.148 2.141-.443 2.264-.604.177-.233-.415-.603-.749-.668z"/>
</svg>
