<svg xmlns="http://www.w3.org/2000/svg" viewBox="0 0 36 36">
  <path fill="#7C533E" d="M27.755 12.233c-.589-.235-1.348-.276-2.104-.386-1.198-.175-2.852-.765-3.529-1.086-.825-.495-2.577-1.661-3.012-1.948S18.093 8.128 17.375 8h-.156c.385.542.609 1.159.748 2.841 0 0 3.319 1.661 3.595 1.753 1.125.375 3.182.366 4.344.512.602.076 1.021-.014 1.499-.047.722-.049 1.38-.055 1.422-.371.05-.367-.595-.265-1.072-.455zM14.698.997c-1.593-.627-4.077.182-4.365 2.043-.287 1.848.239 4.747 1.863 4.572 1.702-.184 3.448-.554 4.138-2.307.69-1.752-.043-3.681-1.636-4.308z"/>
  <path fill="#7C533E" d="M15.882 5.757c2.318-2.723-3.266-2.458-3.266-2.458-1.057.038-.329 1.799-.827 2.761-.341.665 1.095 1.018 1.095 1.018s.659-.01.694.79v.007c.008.204-.013.445-.108.769-.473 1.601 1.677 2.582 2.149.978.187-.635.114-1.193.02-1.708l-.009-.046c-.144-.766-.322-1.438.252-2.111zm-4.883 2.645c-1.666.993-3.368 3.049-3.98 3.914-.36.283-.686.614-.897.736-.389.223-2.154 1.432-3.334 2.005-.354.166-1.458.438-1.992.781-.432.278-.845.262-.727.612.102.302.508.216 1.227.132.719-.084 1.929-.289 2.325-.566.8-.531 3.347-1.156 4.597-2.031.221-.155 2.385-2.163 2.781-2.741.543-1.515.282-2.556 0-2.842z"/>
</svg>
