<svg xmlns="http://www.w3.org/2000/svg" viewBox="0 0 36 36">
  <path fill="#93493B" d="M12.144 14.035c-2.477 0-4.789-1.862-4.789-1.862s-4.033.944-5.629-.49c.579 1.114 1.809 2.6 3.342 2.941 2.005.446 4.455-.089 5.213.802.254.298.487.708.773 1.129.634-.829 1.35-2.082 1.09-2.52zm-.014-5.758s.725.275 1.239-.276c.35-.376.38-.729.319-.999-.126-.109-.211-.214-.244-.309l-.005-.007c-.028.352-.216 1.15-1.309 1.591zm5.131 7.874c-.449.766-1.39 2.016-1.904 2.686 1.321.647 2.452 2.002 3.776 3.531 1.4-.7 4.878-2.38 6.847-2.804-3.102-3.086-6.694-1.564-8.719-3.413zm10.571 4.495c-.438.189-.602 3.636-.664 6.123.656.003 1.299-.044 1.915-.117 2.629-.312 4.678-2.896 5.525-6.371.446-1.829.23-4.039-.665-6.075.481 4.745-4.255 6.69-6.111 6.44z"/>
</svg>
