<svg xmlns="http://www.w3.org/2000/svg" viewBox="0 0 36 36">
  <g fill="#1C6399">
    <path d="M21.211 17.894s.826 2.083 1.101 2.948c.275.865.848 1.848.848 1.848s-1.729 1.586-3.066 1.546l-1.843-3.299-2.021 2.896s-1.959-1.333-3.167-1.542c0 0 1.709-3.03 2.062-3.698.354-.668.75-1.094.75-1.094l5.336.395z"/>
    <path d="M20.089 24.411c-.062-.002-.118-.036-.148-.09l-1.707-3.055-1.86 2.667c-.055.077-.163.097-.242.044-.019-.013-1.941-1.313-3.099-1.513-.056-.01-.104-.047-.128-.098-.024-.052-.022-.111.006-.161.017-.03 1.712-3.036 2.061-3.694.359-.681.76-1.113.776-1.131.036-.038.085-.06.141-.055l5.335.394c.067.005.125.047.15.11.034.085.831 2.099 1.105 2.96.266.836.827 1.804.833 1.813.042.071.027.161-.033.217-.072.066-1.754 1.593-3.136 1.593l-.054-.001zm2.055-3.516c-.235-.74-.887-2.406-1.056-2.834l-5.139-.379c-.118.138-.407.499-.67.995-.296.561-1.557 2.802-1.948 3.496 1.036.27 2.407 1.13 2.853 1.421l1.923-2.756c.034-.049.092-.072.152-.074.06.003.115.037.144.09l1.793 3.209c1.054-.035 2.366-1.089 2.741-1.409-.164-.298-.57-1.059-.793-1.759z"/>
  </g>
</svg>
