<svg xmlns="http://www.w3.org/2000/svg" viewBox="0 0 36 36">
  <path fill="#A0041E" d="M25 19c-.553 0-1-.448-1-1 0-7.728-1.93-13.625-1.949-13.684-.174-.524.109-1.09.634-1.265.522-.173 1.089.109 1.264.632.08.24 1.876 5.71 2.04 13.223 1.139-.161 3.165-.602 5.564-1.801.494-.247 1.094-.047 1.342.447.247.494.047 1.095-.447 1.342C28.284 18.976 25.132 19 25 19zm-14 0c-.132 0-3.284-.024-7.447-2.106-.494-.247-.694-.848-.447-1.342.247-.493.847-.695 1.342-.447 2.399 1.2 4.425 1.64 5.565 1.801.164-7.513 1.959-12.983 2.039-13.223.175-.524.744-.805 1.264-.632.524.174.808.741.633 1.265C13.929 4.374 12 10.271 12 18c0 .552-.448 1-1 1z"/>
</svg>
