<svg xmlns="http://www.w3.org/2000/svg" viewBox="0 0 36 36">
  <path fill="#E5A157" d="M7.238 18.415H4.864c-.398 0-.709-.19-.709-.57 0-.383.312-.573.709-.573h1.664l-2.772-4.28c-.173-.259-.26-.449-.26-.691 0-.33.33-.573.607-.573.278 0 .554.122.797.485L8 16.874l3.102-4.662c.243-.364.52-.485.797-.485.276 0 .605.243.605.573 0 .243-.086.432-.259.691l-2.772 4.28h1.664c.399 0 .711.191.711.573 0 .381-.312.57-.711.57H8.764v1.229h2.373c.399 0 .711.192.711.573 0 .381-.312.571-.711.571H8.764v2.668c0 .502-.312.815-.763.815s-.762-.313-.762-.815v-2.668H4.864c-.398 0-.709-.19-.709-.571 0-.381.312-.573.709-.573h2.375v-1.228z"/>
</svg>
