<svg xmlns="http://www.w3.org/2000/svg" viewBox="0 0 36 36">
  <path d="M24.322 7.969c1.568 1.568 2.758 2.917 3.595 2.082.152-.152.241-.349.301-.565-.018-.043-.036-.087-.041-.136-.128-1.148-2.41-3.641-4.08-4.721l-.045.042-1.474 1.474c.438.539 1.064 1.144 1.744 1.824zm-4.543 4.542c1.568 1.568 2.76 2.917 3.597 2.082.152-.152.241-.35.301-.567-.018-.043-.036-.086-.041-.135-.127-1.148-2.411-3.643-4.083-4.722l-1.517 1.517c.437.54 1.063 1.145 1.743 1.825zm-4.54 4.542c1.567 1.568 2.759 2.918 3.595 2.081.152-.152.241-.349.301-.565-.018-.043-.036-.087-.042-.136-.128-1.148-2.412-3.642-4.083-4.721l-1.517 1.517c.439.539 1.065 1.144 1.746 1.824zm-4.542 4.542c1.567 1.567 2.759 2.919 3.596 2.082.152-.152.241-.35.301-.566-.018-.043-.036-.087-.042-.136-.127-1.148-2.411-3.643-4.082-4.722L8.953 19.77c.437.54 1.063 1.145 1.744 1.825zm-4.542 4.541c1.567 1.568 2.759 2.919 3.596 2.082.152-.152.241-.35.301-.566-.018-.043-.036-.086-.042-.135-.128-1.148-2.412-3.643-4.083-4.722l-.801.801c-.246.246-.475.496-.691.747.437.532 1.053 1.126 1.72 1.793z" fill="#E5A157"/>
</svg>
