<svg xmlns="http://www.w3.org/2000/svg" viewBox="0 0 36 36">
  <path d="M24.859 3.932c-.126.106-.634.569-.762.696 1.67 1.08 3.952 3.574 4.08 4.721.005.049.023.093.042.136.077.182.252.309.455.309l.057-.003c.274-.031.472-.278.441-.553-.164-1.452-2.382-4-4.313-5.306zm-4.583 4.514l-.724.724c1.671 1.079 3.956 3.574 4.083 4.722.005.049.023.092.041.135.076.183.252.31.455.31l.057-.003c.274-.031.472-.278.441-.552-.162-1.464-2.411-4.04-4.353-5.336zm-4.541 4.541l-.724.724c1.671 1.079 3.955 3.574 4.083 4.721.005.049.023.093.042.136.077.182.252.309.454.309l.057-.003c.274-.031.472-.278.441-.552-.163-1.463-2.412-4.038-4.353-5.335zm-4.542 4.541l-.724.724c1.671 1.079 3.955 3.574 4.082 4.722.005.049.023.093.042.136.077.183.252.309.455.309l.056-.003c.274-.03.472-.277.442-.552-.163-1.463-2.411-4.039-4.353-5.336zm-4.542 4.543l-.724.724c1.671 1.079 3.955 3.574 4.083 4.722.005.049.023.092.042.135.077.182.252.309.455.309.019 0 .037-.001.056-.003.274-.03.472-.278.442-.553-.164-1.462-2.413-4.038-4.354-5.334z" fill="#FFD983"/>
</svg>
