<svg xmlns="http://www.w3.org/2000/svg" viewBox="0 0 36 36">
  <path fill="#E9EFF3" d="M26.766 19.378l5.83-3.939-1.8-1.106s-3.63 3.394-4.822 4.548c-.876-.455-2.073-.837-3.486-1.104l2.439-5.303-2.463-.294-1.094 5.419c-1.059-.145-2.202-.233-3.401-.244-.928-.008-1.823.031-2.671.106l-1.183-5.357-2.457.251 2.491 5.235c-1.64.226-3.037.604-4.036 1.085-1.271-1.227-4.847-4.573-4.847-4.573l-1.778 1.074 5.814 3.98c-.541.397-.847.84-.843 1.311.018 1.766 4.303 3.237 9.573 3.285 5.268.048 9.527-1.346 9.51-3.113-.004-.445-.281-.872-.776-1.261z"/>
</svg>
