<svg xmlns="http://www.w3.org/2000/svg" viewBox="0 0 36 36">
  <path fill="#66757F" d="M22.885 30.848c-.043-4.36-2.19-5.47-4.825-5.493-2.634-.024-4.759 1.047-4.716 5.407.016 1.606.046 2.96.089 4.12 1.504.156 3.079.254 4.712.269 1.6.014 3.141-.054 4.616-.18.097-1.003.142-2.341.124-4.123zM10.917 28.89l.001.107.003.364.003.271.001.065c.001.052 0 .044 0 0l-.001-.065-.003-.271-.003-.364-.001-.107-.001-.122c-.022-2.18-3.61-3.303-3.589-1.122v.037l.002.204.002.158.005.47.001.067.051 5.218c1.106.297 2.302.556 3.585.762l-.056-5.753v.081zm17.878-.992l.005.506v.027l.003.27c.001.118.001.15 0 0l-.003-.27v-.027l-.005-.506-.001-.058c-.022-2.18-3.589-1.123-3.567 1.057v.036l.057 5.753c1.279-.186 2.47-.426 3.57-.707l-.06-6.1.001.019zM4.931 26.534c-.022-2.18-2.417-3.292-2.396-1.112v.041l.063 6.439c.676.406 1.483.785 2.396 1.133l-.052-5.321c.003.208.006.582-.011-1.18zm26.237.237l.012 1.137v-.047.047l.053 5.34c.906-.334 1.705-.701 2.374-1.098l-.064-6.448c-.021-2.18-2.396-1.111-2.375 1.069zM2.972 5.225c-.276 0-.5.224-.5.5v12.37c0 .276.224.5.5.5s.5-.224.5-.5V5.725c0-.277-.223-.5-.5-.5z"/>
</svg>
