<svg xmlns="http://www.w3.org/2000/svg" viewBox="0 0 36 36">
  <path fill="#66757F" d="M10.003 22.75c0 2.35-1.904 4.253-4.253 4.253S1.497 25.1 1.497 22.75c0-.086-1.497-.084-1.497 0 0 3.176 2.575 5.75 5.75 5.75s5.75-2.574 5.75-5.75c0-.084-1.497-.086-1.497 0z"/>
  <path fill="#66757F" d="M1.5 22.75c0 .414-.336.75-.75.75S0 23.164 0 22.75v-8.5c0-.414.336-.75.75-.75s.75.336.75.75v8.5zm10 0c0 .414-.336.75-.75.75s-.75-.336-.75-.75v-8.5c0-.414.336-.75.75-.75s.75.336.75.75v8.5zM6.5 31c0 .414-.336.75-.75.75S5 31.414 5 31V14.25c0-.414.336-.75.75-.75s.75.336.75.75V31z"/>
</svg>
