<svg xmlns="http://www.w3.org/2000/svg" viewBox="0 0 36 36">
  <path fill="#FFDC5D" d="M29.282 1.82l.079-.014c-.134.021-.261-.069-.284-.203-.023-.135.068-.265.204-.289l.513-.092.825.901.25.922-.817.15c-.135.023-.265-.068-.288-.204-.022-.129.064-.248.189-.279l-.22.038c-.135.023-.265-.068-.288-.204-.023-.131.065-.253.194-.282l-.271.046c-.135.023-.265-.068-.288-.204s.067-.263.202-.286zm-7.901 2.909c.084 1.655-1.021 3.056-2.469 3.131-1.446.074-2.69-1.208-2.774-2.863-.086-1.654 1.02-3.056 2.468-3.13 1.447-.074 2.691 1.208 2.775 2.862z"/>
  <path fill="#FFDC5D" d="M17.866 9.022l.254-3.952c.033-.552.525-1 1.071-.964.551.032.977.493.944 1.045l-.199 3.787 2.674-.039-.671 1.81c.004.261-5.995-.536-6.528-.38-.001 0 .282-1.386 2.455-1.307z"/>
</svg>
