<svg xmlns="http://www.w3.org/2000/svg" viewBox="0 0 36 36">
  <path fill="#CCD6DD" d="M14.894 4.489c.036.008.071.011.106.011.231 0 .438-.16.488-.394.031-.145.334-1.441 1.319-2.212.76-.595 1.749-.987 2.007-1.084-.396-.225-.824-.4-1.268-.535-.423.21-.914.486-1.355.832-1.236.967-1.617 2.492-1.681 2.788-.057.27.115.536.384.594zm12.157-2.586c.986.772 1.289 2.066 1.319 2.211.051.235.258.395.489.395.034 0 .069-.003.105-.011.27-.058.441-.324.384-.594-.064-.296-.443-1.82-1.681-2.789-.426-.333-.896-.602-1.309-.809-.434.139-.851.317-1.237.542.337.132 1.227.504 1.93 1.055z"/>
</svg>
