<svg xmlns="http://www.w3.org/2000/svg" viewBox="0 0 36 36">
  <path fill="#C1694F" d="M7.365 21.657c.764.708 1.573 1.273 2.329 1.615.122-.277.201-.573.25-.881-.628-.303-1.297-.777-1.942-1.37l1.304-1.304c-.178-.245-.389-.459-.621-.652l-1.32 1.32c-.646-.702-1.158-1.437-1.455-2.11-.306.042-.603.109-.879.223.013.031.016.059.03.09.336.785.927 1.635 1.667 2.434L5.43 22.319c-.796-.737-1.642-1.325-2.423-1.662-.1.29-.162.595-.185.914.636.302 1.317.782 1.972 1.385l-1.158 1.158c.193.232.408.444.652.621l1.142-1.142c.592.643 1.023 1.262 1.304 1.803.315-.03.617-.093.903-.199-.356-.751-.914-1.542-1.564-2.247l1.292-1.293z"/>
</svg>
