<svg xmlns="http://www.w3.org/2000/svg" viewBox="0 0 36 36">
  <path fill="#F7DECE" d="M13.63 28.101c1.744 1.268 2.848 1.963 4.36 1.963 1.512 0 2.615-.696 4.359-1.963V24.29h-8.72v3.811zm-2.195-12.165c0 1.448-.734 2.622-1.639 2.622s-1.639-1.174-1.639-2.622.734-2.623 1.639-2.623c.905-.001 1.639 1.174 1.639 2.623m16.388 0c0 1.448-.733 2.622-1.639 2.622-.905 0-1.639-1.174-1.639-2.622s.733-2.623 1.639-2.623c.906-.001 1.639 1.174 1.639 2.623"/>
  <path fill="#F7DECE" d="M9.468 16.959c0-5.589 3.733-11.001 8.439-11.001 4.707 0 8.605 5.412 8.605 11.001 0 5.589-3.815 10.121-8.522 10.121-4.706 0-8.522-4.531-8.522-10.121"/>
</svg>
