<svg xmlns="http://www.w3.org/2000/svg" viewBox="0 0 36 36">
  <path fill="#F4ABBA" d="M18.375 5.042c-.152 0-.302-.069-.4-.2l-.5-.667c-.166-.221-.121-.534.1-.7.221-.167.534-.122.7.1l.5.667c.166.221.121.534-.1.7-.09.067-.195.1-.3.1zm-2.416 3.5c-.042 0-.084-.005-.127-.016-.267-.07-.427-.343-.357-.61l.25-.958c.069-.267.344-.426.61-.357.267.07.427.343.357.61l-.25.958c-.058.224-.261.373-.483.373zm4.374.083c-.089 0-.18-.023-.261-.073l-.75-.458c-.235-.144-.31-.452-.166-.688.146-.236.453-.31.688-.166l.75.458c.235.144.309.452.166.688-.095.154-.259.239-.427.239z"/>
</svg>
