<svg xmlns="http://www.w3.org/2000/svg" viewBox="0 0 36 36">
  <path fill="#99AAB5" d="M30.68 5.784c-.192-.075-.411-.022-.55.13L28.672 7.52l-2.349-4.743c-.082-.165-.248-.271-.432-.277-.195-.013-.356.089-.449.249l-2.066 3.565L18.355.183C18.261.067 18.119 0 17.969 0c-.149 0-.292.067-.386.183l-5.041 6.138-2.12-3.576c-.091-.153-.24-.227-.436-.245-.179.002-.342.099-.43.254L6.909 7.449l-.994-1.478c-.123-.182-.351-.266-.561-.199-.21.064-.354.258-.354.478V9.5c0 .276.224.5.5.5h25c.276 0 .5-.224.5-.5V6.25c0-.207-.127-.392-.32-.466z"/>
</svg>
