<svg xmlns="http://www.w3.org/2000/svg" viewBox="0 0 36 36">
  <circle fill="#F5F8FA" cx="18" cy="21" r="3"/>
  <path fill="#F5F8FA" d="M6.963 31.694c0-1.303-1.057-2.359-2.359-2.359-1.303 0-2.359 1.056-2.359 2.359s1.056 2.359 2.359 2.359c1.302.001 2.359-1.056 2.359-2.359z"/>
  <circle fill="#F5F8FA" cx="29.708" cy="31.375" r="2.958"/>
  <path fill="#F5F8FA" d="M22.833 32.856c0-.887-.719-1.606-1.606-1.606-.887 0-1.606.719-1.606 1.606s.719 1.606 1.606 1.606c.887 0 1.606-.719 1.606-1.606z"/>
  <circle fill="#F5F8FA" cx="3.077" cy="13.917" r="1.75"/>
  <path fill="#F5F8FA" d="M9.75 5.167c0-1.565-1.269-2.833-2.833-2.833-1.565 0-2.833 1.268-2.833 2.833C4.083 6.731 5.352 8 6.917 8 8.481 8 9.75 6.731 9.75 5.167zm24.584 14.25c0-1.22-.989-2.208-2.209-2.208-1.219 0-2.208.989-2.208 2.208s.989 2.208 2.208 2.208c1.22 0 2.209-.989 2.209-2.208z"/>
  <circle fill="#F5F8FA" cx="25.917" cy="8" r="1.75"/>
</svg>
