<svg xmlns="http://www.w3.org/2000/svg" viewBox="0 0 36 36">
  <path fill="#F3D2A2" d="M32.189 17.406c-.247-2.237-.68-5.368-.992-6.081-.897-2.051-3.219-7.031-3.227-7.047-.827-1.641-1.91-2.062-3.441-1.552-1.531.51-2.126 2.519-1.418 4.366.475 1.24 2.308 5.277 2.532 6.06.172.517.725 4.789.654 8.041-.045 2.05-2.74 3.163-4.361 3.21-4.463.13-4.375-2.753-2.813-5.475l.313-.565c2.2-3.811 2.421-8.913 2.421-10.291 0-1.822-.134-3.348-1.842-3.98-1.604-.594-2.639.34-2.921 2.372C15.427 18.473 2.947 15.28 2.947 25.067c-.095.808.064 2.347.307 5.608.205 2.744 4.373 3.615 10.073 3.861 5.587.241 12.203-.314 15.557-1.746 1.976-.844 3.531-1.798 3.676-7.582.125-4.956-.235-6.569-.371-7.802z"/>
</svg>
