<svg xmlns="http://www.w3.org/2000/svg" viewBox="0 0 36 36">
  <path fill="#1C6399" d="M20.004 20.243c-.426 0-.858.01-1.294.031-.436 1.268-.468 2.747 0 5.097.328 1.646 2.659 6.299 4.584 7.933.683.58 1.638.884 2.69.884 2.144 0 4.691-1.265 6.157-4.034 3.001-5.671-3.474-9.911-12.137-9.911z"/>
  <path fill="#1C6399" d="M33.666 1.973c-.204 0-.425.021-.663.066-3.182.601-9.302 5.126-14.287 11.771 0 0-.789 5.16-.789 6.194 0 .336 1.264.5 3.058.5 3.717 0 9.709-.705 11.424-2.041 1.898-1.479 3.65-9.804 3.488-14.079-.046-1.175-.662-2.411-2.231-2.411z"/>
</svg>
