<svg xmlns="http://www.w3.org/2000/svg" viewBox="0 0 36 36">
  <path fill="#55ACEE" d="M27.098 13.936l6.629-.436s-1.055 3.619-3.102 4.656-7.719 1.5-7.719 1.5 2.33-4.261 3.286-5.29c.237-.256.559-.408.906-.43zm.52-1.952l7.526-8.151s.002 5.365-1.206 8.635c0 0-5.383.379-5.914.391-.703.016-.969-.265-.406-.875zm-6.068 7.672l5.5-8.547c.188-.22.253-.52.171-.798l-.968-3.233-6.722 6.609-.844 6.031 2.863-.062zM27.862 8.88c.172.406.516.5.938.125s6.074-6.094 6-6.218c0 0-2.832-1.194-7.8 3.463 0 0 .69 2.224.862 2.63zm-8.925 12.099l5.373 5.228c.203.178.255.473.125.709L22.06 31.25s-4.187-5.479-3.123-10.271zm7.282 6.301l5.549.741s-1.058 3.845-3.394 4.854c-3.906 1.688-5.312-.625-5.312-.625l2.352-4.562c.151-.298.477-.463.805-.408zm-5.95-6.426l5.375 4.958c.077.066.169.11.269.129l6.119.903s-1.219-3.031-4.429-4.531c-3.71-1.733-7.334-1.459-7.334-1.459z"/>
</svg>
