<svg xmlns="http://www.w3.org/2000/svg" viewBox="0 0 36 36">
  <path fill="#292F33" d="M20.004 20.243c-.426 0-.858.01-1.294.031-.436 1.268-.468 2.747 0 5.097.328 1.646 2.659 6.299 4.584 7.933.683.58 1.638.884 2.69.884 2.144 0 4.691-1.265 6.157-4.034 3.001-5.671-3.474-9.911-12.137-9.911zm10.537 9.326c-1.316 2.486-3.05 3.473-4.558 3.473-.767 0-1.704-.313-2.15-.691-1.695-1.439-3.437-4.58-4.25-7.224-.465-1.513-.354-4.022-.354-4.022l.667-.021c5.168 0 9.249 2.058 10.726 4.512.714 1.186.687 2.523-.081 3.973z"/>
  <path fill="#292F33" d="M33.666 3.223c.231 0 .935 0 .981 1.208.102 2.681-.594 6.061-1.397 8.882-.541 1.901-1.586 3.292-2.094 3.687-.56.436-1.863 1.238-3.719 1.563-2.03.355-4.207.833-6.456.833-.827 0-1.433.019-1.794-.021.131-1.218.489-3.551.717-5.064 3.768-4.94 9.711-10.361 13.331-11.044.155-.029.3-.044.431-.044m0-1.25c-.204 0-.425.021-.663.066-3.182.601-9.302 5.126-14.287 11.771 0 0-.789 5.16-.789 6.194 0 .336 1.264.5 3.058.5 3.717 0 9.709-.705 11.424-2.041 1.898-1.479 3.65-9.804 3.488-14.079-.046-1.175-.662-2.411-2.231-2.411z"/>
</svg>
