<svg xmlns="http://www.w3.org/2000/svg" viewBox="0 0 36 36">
  <path fill="#1C6399" d="M3.902 30.154c1.466 2.769 4.012 4.034 6.157 4.034 1.052 0 2.007-.304 2.69-.884 1.925-1.633 4.256-6.286 4.584-7.933.468-2.35.436-3.828 0-5.097-.436-.021-.868-.031-1.294-.031-8.665 0-15.139 4.24-12.137 9.911z"/>
  <path fill="#1C6399" d="M2.376 1.973C.807 1.973.19 3.209.146 4.383c-.162 4.275 1.59 12.601 3.488 14.079 1.715 1.336 7.706 2.041 11.424 2.041 1.794 0 3.058-.164 3.058-.5 0-1.033-.789-6.194-.789-6.194C12.341 7.165 6.22 2.64 3.039 2.039c-.238-.045-.459-.066-.663-.066z"/>
</svg>
