<svg xmlns="http://www.w3.org/2000/svg" viewBox="0 0 36 36">
  <path fill="#55ACEE" d="M8.943 13.936L2.315 13.5s1.055 3.619 3.102 4.656 7.719 1.5 7.719 1.5-2.33-4.261-3.286-5.29c-.237-.256-.559-.408-.907-.43zm-.519-1.952L.898 3.833s-.002 5.365 1.206 8.635c0 0 5.383.379 5.914.391.703.016.969-.265.406-.875zm6.068 7.672l-5.5-8.547c-.188-.22-.253-.52-.171-.798l.968-3.233 6.722 6.609.844 6.031-2.863-.062zM8.179 8.88c-.172.406-.516.5-.938.125s-6.074-6.094-6-6.218c0 0 2.832-1.194 7.8 3.463.001 0-.69 2.224-.862 2.63zm8.926 12.099l-5.373 5.228c-.203.178-.255.473-.125.709l2.375 4.333c-.001.001 4.187-5.478 3.123-10.27zM9.822 27.28l-5.549.741s1.058 3.845 3.394 4.854c3.906 1.688 5.312-.625 5.312-.625l-2.352-4.562c-.15-.298-.476-.463-.805-.408zm5.951-6.426l-5.375 4.958c-.077.066-.169.11-.269.129l-6.119.903s1.219-3.031 4.429-4.531c3.709-1.733 7.334-1.459 7.334-1.459z"/>
</svg>
