<svg xmlns="http://www.w3.org/2000/svg" viewBox="0 0 36 36">
  <path fill="#292F33" d="M3.902 30.154c1.466 2.769 4.012 4.034 6.157 4.034 1.052 0 2.007-.304 2.69-.884 1.925-1.633 4.256-6.286 4.584-7.933.468-2.35.436-3.828 0-5.097-.436-.021-.868-.031-1.294-.031-8.665 0-15.139 4.24-12.137 9.911zm1.518-4.559c1.477-2.454 5.558-4.512 10.726-4.512l.667.021s.111 2.51-.354 4.022c-.813 2.644-2.555 5.785-4.25 7.224-.446.379-1.383.691-2.15.691-1.508 0-3.242-.986-4.558-3.473-.768-1.449-.795-2.786-.081-3.973z"/>
  <path fill="#292F33" d="M2.376 3.223c.131 0 .276.015.431.044 3.619.683 9.563 6.104 13.331 11.044.228 1.513.586 3.846.717 5.064-.361.04-.967.021-1.794.021-2.249 0-4.426-.478-6.456-.833-1.856-.325-3.159-1.127-3.719-1.563-.508-.396-1.553-1.786-2.094-3.687-.803-2.821-1.499-6.201-1.397-8.882.046-1.208.749-1.208.981-1.208m0-1.25C.807 1.973.19 3.209.146 4.383c-.162 4.275 1.59 12.601 3.488 14.079 1.715 1.336 7.706 2.041 11.424 2.041 1.794 0 3.058-.164 3.058-.5 0-1.033-.789-6.194-.789-6.194C12.341 7.165 6.22 2.64 3.039 2.039c-.238-.045-.459-.066-.663-.066z"/>
  <path fill="#292F33" d="M21.887 4.762c-.25-.138-.563-.047-.701.203l-2.74 4.98c-.018.033-.022.068-.032.102-.127-.007-.244-.018-.393-.018-.148 0-.266.01-.392.018-.01-.034-.014-.069-.032-.102l-2.74-4.98c-.138-.25-.452-.341-.702-.203-.25.137-.341.451-.203.701l2.655 4.826c-1.179.784 1.15 3.438.381 9.204-1.033 7.75 1.033 9.817 1.033 9.817s2.067-2.067 1.033-9.817c-.769-5.766 1.56-8.42.381-9.204l2.656-4.826c.137-.25.046-.564-.204-.701z"/>
</svg>
