<svg xmlns="http://www.w3.org/2000/svg" viewBox="0 0 36 36">
  <path fill="#F7DECE" d="M11.397 20.373c-.076-.064-.202-.171-.385-.352-.129-.128-.165-.279-.165-.279-.021-.073-.105-.312-.303-.524-.117-.126-.271-.243-.459-.319l-.116-.779-1.62.284.224.999c-.156.247-.24.542-.193.854l.016.104.224 1.478s.031.207.239.176.176-.239.176-.239L8.9 20.89c.002.015.108.013.11.026l.198 1.31s.031.207.239.176c.207-.031.176-.239.176-.239l-.019-.126-.167-1.105c0 .003.104-.01.105-.009l.221 1.457s.031.207.239.176c.207-.031.176-.239.176-.239l-.22-1.457c0-.002.103-.021.102-.024l.182 1.206s.031.207.239.176c.207-.031.176-.239.176-.239l-.249-1.644c-.017-.112.057-.165.106-.164.128.001.185.189.3.309.176.183.393.237.527.152.148-.092.095-.227.056-.259z"/>
</svg>
