<svg xmlns="http://www.w3.org/2000/svg" viewBox="0 0 36 36">
  <path fill="#FFDC5D" d="M16.053 30.085h4.148V36h-4.148z"/>
  <path fill="#FFDC5D" d="M23.861 22.62c-.491-.68-1.12-1.227-2.498-1.421.517.237 1.012 1.055 1.077 1.507.065.452.129.818-.28.366-1.639-1.811-3.424-1.098-5.192-2.205-1.235-.773-1.612-1.628-1.612-1.628s-.151 1.141-2.024 2.304c-.543.337-1.191 1.088-1.55 2.196-.258.797-.178 1.507-.178 2.721 0 3.544 2.921 6.524 6.524 6.524s6.524-3.006 6.524-6.524c-.001-2.204-.232-3.065-.791-3.84z"/>
</svg>
