<svg xmlns="http://www.w3.org/2000/svg" viewBox="0 0 36 36">
  <path fill="#FFDC5D" d="M26.05 17.786h5.059v10H26.05z"/>
  <path fill="#FFDC5D" d="M35.248 9.103c-.571-.791-1.302-1.427-2.905-1.653.601.275 1.177 1.227 1.252 1.753.075.526.15.952-.326.426-1.906-2.107-3.982-1.277-6.039-2.564-1.437-.899-1.875-1.893-1.875-1.893s-.175 1.327-2.354 2.68c-.632.392-1.385 1.265-1.803 2.554-.301.927-.207 1.753-.207 3.165 0 1.145.27 2.235.738 3.219 1.218 2.558 3.823 4.37 6.85 4.37 2.587 0 4.869-1.335 6.239-3.317.561-.812.97-1.733 1.181-2.717v-4.138c-.144-.83-.385-1.378-.751-1.885z"/>
</svg>
