<svg xmlns="http://www.w3.org/2000/svg" viewBox="0 0 36 36">
  <path fill="#FFDC5D" d="M4.897 17.786h5.059v10H4.897z"/>
  <path fill="#FFDC5D" d="M14.095 9.103c-.571-.791-1.302-1.427-2.905-1.653.601.275 1.177 1.227 1.252 1.753.075.526.15.952-.326.426-1.906-2.107-3.982-1.277-6.039-2.564-1.436-.899-1.874-1.894-1.874-1.894s-.175 1.327-2.354 2.68C1.217 8.243.464 9.116.046 10.405c-.022.067-.028.132-.046.198v4.506c.124.587.323 1.148.577 1.68 1.218 2.558 3.823 4.37 6.85 4.37 2.587 0 4.869-1.335 6.239-3.317.849-1.229 1.349-2.705 1.349-4.271 0-2.565-.268-3.566-.92-4.468z"/>
</svg>
