<svg xmlns="http://www.w3.org/2000/svg" viewBox="0 0 36 36">
  <path fill="#99AAB5" d="M17.336 17.636L4.384 26.949c-.034.028-.054.063-.085.091.179.57.518 1.043.992 1.384.035-.023.073-.033.107-.06L18.35 19.05c.501-.391.681-1.023.401-1.414-.281-.391-.913-.391-1.415 0m13.81 9.404c-.015-.028-.016-.063-.034-.09l-7.674-9.314c-.281-.391-.913-.391-1.416 0-.501.391-.68 1.023-.4 1.414l7.676 9.314c.018.026.051.037.072.06.666-.34 1.274-.814 1.776-1.384"/>
  <path fill="#99AAB5" d="M35.699 13c.626-2.209-.658-4-2.867-4h-20c-2.209 0-4.507 1.791-5.133 4l-.021.074 8.806 8.452c1.631 1.584 3.788 1.475 5.725.371l13.227-7.964.263-.933z"/>
</svg>
