<svg xmlns="http://www.w3.org/2000/svg" viewBox="0 0 36 36">
  <path fill="#E1E8ED" d="M13 4.004c-.239.01-.478.035-.717.035-1.797 0-3.396-.313-4.887-.957-.308-.135-.665-.103-.945.083C6.169 3.349 6 3.664 6 4v6s3.292 1 7 1V4.004zM20 10s-3.75 1-7 1v7c3 0 7-1 7-1v-7zm7-1V1.974c-.096-.002-.186-.013-.283-.013-2.267 0-4.521.442-6.717.911V10s2.167-1 7-1zM6.604 23.918c1.5.648 3.09.993 4.82 1.082H13v-7c-4.167 0-7-1-7-1v6c0 .399.237.76.604.918zM20 17v6.916c2.313-.499 4.511-.955 6.717-.955.097 0 .187.011.283.013V16c-4.5 0-7 1-7 1zm7-1c2.676 0 4.82.56 6 .954V9.908C31.853 9.527 29.769 9 27 9v7z"/>
</svg>
