<svg xmlns="http://www.w3.org/2000/svg" viewBox="0 0 36 36">
  <path fill="#FA743E" d="M29.156 4.159c-.492-.245-.694-.849-.449-1.341l1.07-2.146c.245-.492.849-.694 1.341-.449s.694.849.449 1.341l-1.07 2.146c-.245.492-.849.694-1.341.449m.98 2.199l-.027-.083c-.167-.499.104-1.043.603-1.21l3.904-1.296c.498-.167 1.044.104 1.21.603l.027.083c.167.499-.105 1.044-.604 1.211l-3.903 1.295c-.498.167-1.043-.104-1.21-.603m.514 2.264c-.245.492-.043 1.096.449 1.341l2.146 1.07c.492.245 1.096.043 1.341-.449s.043-1.096-.449-1.341l-2.146-1.07c-.492-.245-1.096-.043-1.341.449"/>
</svg>
