<svg xmlns="http://www.w3.org/2000/svg" viewBox="0 0 36 36">
  <path fill="#E1E8ED" d="M11.13 32.026c-1.042-.349-3.118-.951-2.678-4.476l.646-5.174c.121-.97 1.177-1.265 2.329-1.811 1.001-.475 3.415-2.103 4.009-6.857.518-4.156-.265-10.722-.47-12.307L10.388.872l-4.58-.53c-.562 1.497-2.823 7.71-3.267 11.875-.507 4.764 1.472 6.9 2.338 7.591.997.794 1.958 1.322 1.854 2.294-.103.972-.177 1.652-.552 5.185-.376 3.532-2.535 3.644-3.629 3.746-2.077.193-2.192 1.882-1.188 1.988 1.006.108 5.235.603 5.235.603s4.231.484 5.234.608c1.002.127 1.275-1.544-.703-2.206z"/>
</svg>
