<svg xmlns="http://www.w3.org/2000/svg" viewBox="0 0 36 36">
  <path fill="#BE1931" d="M14.401 34.162c.063-.154.027-.453-.008-.637-.025-.127-.11-.452-.205-.717-.043-.119-.099-.254-.132-.306-.104-.162-.201-.217-.266-.244-.077-.033-.145-.018-.175.004-.123.088-.294.383-.489.548-.065.055-.133.095-.204.109-.254.049-.707-.159-1.044-.317-.202-.094-.362-.17-.412-.16-.054.011-.095.038-.132.075l-.002.001h.001c-.099.099-.18.277-.474.468-.189.123-1.051.696-1.051.696-.221.141-.252.252-.37.33-.242.16-.912.515-1.117.653-.204.138-.251.338-.23.475s.074.204.074.204.23.268 1.448.129c.88-.1.97-.269 2.194-.752s2.594-.559 2.594-.559z"/>
</svg>
