<svg xmlns="http://www.w3.org/2000/svg" viewBox="0 0 36 36">
  <path fill="#CCD6DD" d="M12.562 25.65c-.619-.266-1.107-.837-1.378-1.513l-1.266-3.306-3.258-1.393c-1.336-.574-1.876-1.922-1.304-3.259l1.362-3.181-1.364-3.269c-.541-1.35.15-2.868 1.5-3.408l3.272-1.281 1.449-3.384C12.148.32 13.496-.22 14.833.352l3.258 1.396L21.358.382c.675-.271 1.411-.276 2.03-.011.619.265 1.114.819 1.385 1.494l1.274 3.29 3.309 1.417c1.336.572 1.875 1.921 1.305 3.258l-1.451 3.384 1.365 3.267c.541 1.35-.15 2.866-1.5 3.407l-3.271 1.281-1.363 3.183c-.572 1.336-1.922 1.877-3.258 1.305l-3.308-1.417-3.267 1.364c-.676.271-1.427.311-2.046.046z"/>
</svg>
