<svg xmlns="http://www.w3.org/2000/svg" viewBox="0 0 36 36">
  <path fill="#E1E8ED" d="M29.356 6.572l-3.309-1.417-.055-.143c-1.565 1.337-5.215 4.354-5.215 4.354l.007.123C20.015 8.879 19.057 8.5 18 8.5V1.709L14.833.353c-1.337-.572-2.685-.032-3.258 1.304l-1.449 3.384-.061.024 4.753 4.754c-.814.813-1.318 1.938-1.318 3.181H6.717l-1.361 3.178c-.572 1.337-.032 2.686 1.304 3.259l3.258 1.394.002.006 4.496-5.142c.822 1.09 2.115 1.805 3.584 1.805h.005c.006 1.979.015 5.273.012 6.801l3.164 1.356c1.336.572 2.686.031 3.258-1.305l1.362-3.18-5.192-4.517c1.14-.816 1.89-2.145 1.89-3.654 0-.071-.018-.137-.021-.208 1.802.182 4.951.472 6.822.642l-.092-.22L30.66 9.83c.571-1.337.031-2.686-1.304-3.258z"/>
</svg>
