<svg xmlns="http://www.w3.org/2000/svg" viewBox="0 0 36 36">
  <path fill="#CB9C2B" d="M25.236 14.042c-.5-.146-.419-.625-.746-.625s-.246.479-.746.625c-.499.146-.746-.083-.746-.083l.233.958s.419-.354 1.259-.354c.84 0 1.259.354 1.259.354l.233-.958c0-.001-.247.228-.746.083z"/>
  <path fill="#CB9C2B" d="M25.318 12.774c-.555-.153-.465-.658-.828-.658-.363 0-.274.505-.828.658-.554.153-.827-.087-.827-.087l.258 1.008s.466-.373 1.397-.373c.932 0 1.397.373 1.397.373l.258-1.008c0 .001-.273.241-.827.087z"/>
  <path fill="#CB9C2B" d="M25.187 11.445c-.467-.129-.392-.554-.697-.554-.306 0-.23.425-.697.554-.466.129-.696-.073-.696-.073l.218.849s.392-.236 1.176-.236c.784 0 1.176.236 1.176.236l.218-.849c-.001 0-.232.202-.698.073zm-.875-.947c0 .148.08.269.178.269.098 0 .178-.12.178-.269 0-.149-.08-.269-.178-.269-.097 0-.178.12-.178.269z"/>
  <path fill="#CB9C2B" d="M24.041 10.206c0 .102.201.185.449.185s.449-.083.449-.185c0-.103-.201-.186-.449-.186-.248.001-.449.084-.449.186z"/>
  <path fill="#CB9C2B" d="M24.312 9.935c0 .103.08.186.178.186.098 0 .178-.083.178-.186s-.08-.185-.178-.185c-.097 0-.178.083-.178.185z"/>
</svg>
