<svg xmlns="http://www.w3.org/2000/svg" viewBox="0 0 36 36">
  <path fill="#EC1C24" d="M24.49 17c.2.154.246.75.246 1.453v5.484s.307.078.213.891c-.027.232-.484.188-.562 0-.078-.188-.04-.791.104-.875V18.5c0-.812-.136-1.127-.178-1.281-.043-.154.081-.294.177-.219z"/>
  <path fill="#EC1C24" d="M26.375 20.799c-.196-.137-.471-.482-.707-.812-.312-.438-.391-.736-.701-1.111-.31-.375-1.122-1.152-1.314-1.125-.076.011-.156.188-.083.25s.302.312.817.703c.516.391.594.828 1.024 1.453.397.577.74.971 1.049 1.024-.045-.121-.072-.249-.085-.382z"/>
  <path fill="#EC1C24" d="M25.36 17.551c-.183.175-.749.729-1.057 1.089-.308.36-.698 1.22-1.042 1.61-.221.25-.46.464-.642.596-.017.136-.046.267-.097.389.248-.083.602-.311 1.046-.953.614-.891.911-1.547 1.208-1.797s.416-.324.583-.498c.168-.175.185-.612.001-.436z"/>
  <path fill="#EC1C24" d="M24.124 18.281v5.781c-.331.266-.237.707-.175.924.062.217.603.216.687.108.084-.108.107-.844-.202-1.094v-5.359c0-.141-.31-.575-.31-.36z"/>
  <path fill="#EC1C24" d="M22.095 20.982c-.297.207-.552.564.112.83s1.543.625 2.283.625 2.123-.502 2.447-.728c.324-.226.464-.495-.052-.647-.271-.08-.312.125-.171.172s.305.193-.051.323c-.355.13-1.168.511-2.23.511s-2.062-.453-2.226-.511c-.164-.058-.209-.245-.093-.323s.114-.344-.019-.252z"/>
</svg>
