<svg xmlns="http://www.w3.org/2000/svg" viewBox="0 0 36 36">
  <path fill="#CB9C2B" d="M22.561 19.562c.379.359.701-.105 1.306-.641.553-.49 4.188-3.87 4.578-4.214.391-.344.028-.864-.425-.442s-4.801 4.062-5.127 4.359c-.327.298-.752.54-.332.938z"/>
  <path fill="#CB9C2B" d="M28.348 14.558l.437.488-.219.188.219.187.219-.187.312.344v.343l-.609.517-.359-.235v-.282h-.297v.267l.156.015.141.156.015.36-.54.437-1.108-1.051zm-8.688 6.103c0 .822.667 1.489 1.489 1.489.822 0 1.489-.667 1.489-1.489 0-.822-.667-1.489-1.489-1.489-.822 0-1.489.667-1.489 1.489zm.954.001c-.267-.004-.482-.22-.482-.486 0-.27.219-.488.488-.488.27 0 .488.219.488.488l-.001.007c.014-.001.026-.009.041-.009.001-.268.22-.486.488-.486.27 0 .488.219.488.488 0 .267-.215.482-.481.486.267.005.481.221.481.487 0 .269-.219.488-.488.488s-.487-.219-.488-.487c-.015 0-.027-.008-.042-.009l.002.008c0 .269-.219.488-.488.488-.27 0-.488-.219-.488-.488.001-.266.216-.482.482-.487z"/>
</svg>
