<svg xmlns="http://www.w3.org/2000/svg" viewBox="0 0 36 36">
  <path fill="#A1A1A1" d="M26.439 19.562c-.379.359-.701-.105-1.306-.641-.553-.49-4.188-3.87-4.578-4.214-.391-.344-.028-.864.425-.442s4.801 4.062 5.127 4.359c.327.298.752.54.332.938z"/>
  <path fill="#A1A1A1" d="M20.652 14.558l-.437.488.219.188-.219.187-.219-.187-.312.344v.343l.609.517.359-.235v-.282h.297v.267l-.156.015-.141.156-.015.36.54.437 1.108-1.051zm7.199 4.614c-.822 0-1.489.667-1.489 1.489 0 .822.667 1.489 1.489 1.489.822 0 1.489-.667 1.489-1.489 0-.822-.667-1.489-1.489-1.489zm1.016 1.977c0 .269-.219.488-.488.488-.27 0-.488-.219-.488-.488l.002-.008c-.015.001-.027.009-.042.009-.001.268-.219.487-.488.487s-.488-.219-.488-.488c0-.267.215-.482.481-.487-.267-.004-.481-.22-.481-.486 0-.27.219-.488.488-.488s.487.218.488.486c.015 0 .027.008.041.009l-.001-.007c0-.27.219-.488.488-.488.27 0 .488.219.488.488 0 .267-.215.482-.481.486.266.005.481.221.481.487z"/>
</svg>
