<svg xmlns="http://www.w3.org/2000/svg" viewBox="0 0 36 36">
  <path fill="#CB9C2B" d="M26.878 19.247c.116.115.057.362-.131.549-.188.188-.434.247-.549.131-.116-.115-.058-.361.131-.549.187-.188.434-.247.549-.131zm2.394.188c0 .141-.114.255-.256.255-.141 0-.255-.114-.255-.255 0-.142.114-.256.255-.256.142 0 .256.114.256.256zm-2.223 2.461c0 .141-.114.255-.256.255-.141 0-.255-.114-.255-.255 0-.142.114-.256.255-.256.142 0 .256.114.256.256zm2.291-.083c0 .141-.114.255-.256.255-.141 0-.255-.114-.255-.255 0-.142.114-.256.255-.256.142.001.256.115.256.256z"/>
</svg>
