<svg xmlns="http://www.w3.org/2000/svg" viewBox="0 0 36 36">
  <path fill="#F1B517" d="M20.935 16.023l-.772.471.149.226-2.02 2.311v.179l2.103-2.431.251-.047zm1.11.697s-.774.298-.774.334c0 .036-.143.274-.143.274l-2.824 2.288.084.108 2.8-2.288.404-.179.453-.537zm.822 1.174s-.894.125-.905.161c-.013.036-.071.239-.071.239l-3.277 1.787.143.084 3.193-1.764.37-.024.547-.483z"/>
  <path fill="#F1B517" d="M22.093 19.592l-3.366.411.319.384.498.05-.373.501.181.203.501-.548s.155.798.834.798c.68 0 .894-.679.894-.905 0-.227-.059-.345-.059-.345h.643l-.072-.549z"/>
</svg>
