<svg xmlns="http://www.w3.org/2000/svg" viewBox="0 0 36 36">
  <path fill="#006A16" d="M20.514 14.694c-.229-.274-.818-.262-1.218-.274-.399-.012-.601.131-.422-.059s.455-.142.746-.155c.292-.012.343-.047.164-.142-.179-.095-.493-.213-.91-.106-.409.105-.667.36-.885.404-.218-.043-.491-.299-.9-.404-.417-.107-.74.01-.918.106-.179.095-.131.13.161.142.292.012.565-.036.744.155.179.191-.024.047-.423.059-.399.012-.989 0-1.218.274-.229.274.199.095.426.059.226-.036.56-.047.56-.047s-.56.166-.715.381c-.155.214.047.405.334.238.286-.167.727-.393.965-.417 0 0-.62.258-.894.481-.274.223.013.199.221.199s.422-.083.601-.215c.179-.131-.118.262-.167.513-.047.25.322.191.388 0 .065-.191.279-.572.279-.572s-.094.548-.082.918c.012.37.134.393.229.226s.425.099.425.099.3-.266.395-.099c.096.167.186.143.198-.226.012-.369-.083-.918-.083-.918s.214.381.28.572c.065.191.435.25.387 0-.047-.25-.345-.644-.166-.513.179.131.393.215.601.215.209 0 .495.024.222-.199-.274-.223-.894-.481-.894-.481.239.024.679.25.965.417.286.167.488-.024.333-.238-.155-.215-.715-.381-.715-.381s.334.012.561.047c.226.037.654.215.425-.059z"/>
</svg>
