<svg xmlns="http://www.w3.org/2000/svg" viewBox="0 0 36 36">
  <path fill="#D21C33" d="M18.005 19.282v2.002l-1.5-.441-.382-.56-.262-.191.143-.506.226-.876h.346l.085-.739zm-4.313-.906c.179-.214.513-.071.524 0 .012.072-.131.059-.262.179-.131.119-.095.488-.322.441-.226-.048.06-.62.06-.62zm.809-1.115c.231-.156.513.074.504.146-.009.072-.143.021-.301.099-.159.078-.227.443-.432.334-.204-.109.229-.579.229-.579zm.954-.682c.249-.125.499.14.481.21-.018.07-.193-.054-.36.003-.168.057-.234.466-.423.331-.189-.134.302-.544.302-.544z"/>
</svg>
