<svg xmlns="http://www.w3.org/2000/svg" viewBox="0 0 36 36">
  <path fill="#F1B517" d="M14.945 16.023l.773.471-.085.226 2.087 2.311v.179l-2.169-2.431-.283-.047zm-1.11.697s.775.298.775.334c0 .036.142.274.142.274l2.824 2.288-.083.108-2.801-2.288-.405-.179-.452-.537zm-.822 1.174s.894.125.906.161c.012.036.072.239.072.239l3.276 1.787-.143.084-3.193-1.765-.369-.024-.549-.482z"/>
  <path fill="#F1B517" d="M13.788 19.592l3.367.411-.319.384-.499.05.373.501-.18.203-.501-.548s-.155.798-.834.798-.895-.679-.895-.906c0-.227.06-.345.06-.345h-.644l.072-.548z"/>
</svg>
