<svg xmlns="http://www.w3.org/2000/svg" viewBox="0 0 36 36">
  <path fill="#D21C33" d="M18.005 19.282v2.002l1.436-.441.349-.56.246-.191-.151-.506-.235-.876-.266.198-.092-.817zm4.183-.906c-.18-.214-.514-.071-.525 0-.012.072.132.059.263.179.131.119.096.488.322.441.226-.048-.06-.62-.06-.62zm-.809-1.115c-.231-.156-.512.074-.504.146.009.072.143.021.302.099s.226.443.432.334c.203-.109-.23-.579-.23-.579zm-.953-.682c-.25-.125-.498.14-.481.21.018.07.192-.054.359.003.168.057.235.466.424.331.189-.134-.302-.544-.302-.544z"/>
</svg>
