<svg xmlns="http://www.w3.org/2000/svg" viewBox="0 0 36 36">
  <path fill="#DD2E44" d="M6.257 34.718c-.255 0-.472-.193-.497-.452-.058-.595-.072-2.676.234-3.841.07-.268.349-.429.61-.356.267.07.427.344.356.61-.273 1.04-.25 3.03-.206 3.491.027.274-.175.52-.45.546l-.047.002zm1.569.382c-.254 0-.472-.193-.497-.452-.057-.584-.066-2.515.246-3.829.063-.27.333-.439.602-.371.269.063.435.333.371.601-.276 1.166-.272 3.002-.224 3.503.027.274-.175.519-.45.546l-.048.002zm1.683.348c-.254 0-.472-.193-.497-.452-.044-.453-.099-2.601.226-3.977.063-.27.333-.44.602-.372.269.063.435.332.372.601-.276 1.171-.25 3.176-.204 3.652.027.274-.175.519-.45.546l-.049.002zm1.857.169c-.276 0-.5-.224-.5-.5 0-.309-.007-.587-.013-.851-.022-.911-.042-1.697.242-2.928.062-.269.328-.436.6-.375.269.062.436.331.375.6-.256 1.107-.239 1.801-.217 2.679.007.271.014.558.014.875-.001.277-.224.5-.501.5zm1.873.371c-.254 0-.472-.193-.497-.452-.054-.56-.014-2.362.214-3.625.049-.272.312-.447.581-.403.272.049.452.31.403.581-.223 1.234-.244 2.93-.204 3.351.027.274-.175.519-.45.546l-.047.002zm2.209-.094c-.255 0-.472-.193-.497-.452-.034-.349-.021-1.142-.007-2.06.008-.502.016-1.022.016-1.477 0-.276.224-.5.5-.5s.5.224.5.5c0 .459-.008.984-.016 1.492-.013.813-.026 1.655.002 1.948.027.274-.175.52-.45.546l-.048.003z"/>
</svg>
