<svg xmlns="http://www.w3.org/2000/svg" viewBox="0 0 36 36">
  <path fill="#FFAC33" d="M13.272 32.665l-.169-.098c-4.102-2.356-6.783-7.384-6.998-13.121.191-2.32 1.35-3.255 2.577-4.246.44-.355.896-.723 1.35-1.177l3.125-3.125.319.191c.047.028 4.703 2.793 8.339 2.793 3.624 0 7.696 1.762 8.071 5.629-.249 5.741-2.927 10.717-6.985 13.052l-.169.098-.188-.049c-1.319-.34-7.771-.338-9.083.003l-.189.05zm.038-20.57l-2.604 2.603c-.49.49-.986.891-1.425 1.245-1.201.969-2.068 1.669-2.224 3.526.201 5.279 2.634 9.947 6.365 12.18 1.716-.322 7.439-.324 9.16-.003 3.69-2.212 6.12-6.831 6.354-12.108-.316-3.208-3.913-4.699-7.12-4.699-3.368-.001-7.349-2.093-8.506-2.744z"/>
</svg>
