<svg xmlns="http://www.w3.org/2000/svg" viewBox="0 0 36 36">
  <path fill="#C1694F" d="M27.188 11.188c-3.437.156-7.207.438-9.5.438-3.655 0-5.219-1.428-6.562-2.625C8.838 6.964 8.167 4.779 6 5.501c0 0-.632-.411-1.247-.778l-.261-.152c-.256-.148-.492-.276-.656-.347-.164-.072-.258-.087-.228-.01.019.051.093.143.236.286.472.472.675.95.728 1.395-2.01 1.202-2.093 2.276-2.871 3.552-.492.807-1.36 2.054-1.56 2.515-.412.948 1.024 2.052 1.706 1.407.893-.845.961-1.122 2.032-1.744.983-.016 1.975-.416 2.308-1.02 0 0 .938 2.083 1.938 3.583s2.5 3.125 2.5 3.125c-.131 1.227.12 2.176.549 2.922-.385.757-.924 1.807-1.417 2.745-.656 1.245-1.473 3.224-1.208 3.618.534.798 2.719 2.926 4.137 3.311 1.03.28 2.14.437 2.14.437l-.193-1.574s-1.343.213-1.875-.083c-1.427-.795-2.666-2.248-2.708-2.542-.07-.487 3.841-2.868 5.14-3.645 2.266.097 6.022-.369 8.626-1.702.958 1.86 2.978 2.513 2.978 2.513s.667 2.208 1.375 4.125c-1.017.533-4.468 3.254-4.975 3.854-.456.54-.856 2.49-.856 2.49.82.375 1.57.187 1.57.187s.039-1.562.385-2.073c.346-.511 4.701-2.559 5.958-3.458.492-.352.404-.903.262-1.552-.321-1.471-.97-4.781-.971-4.782 5.146-2.979 6.458-11.316-2.354-10.916z"/>
</svg>
