<svg xmlns="http://www.w3.org/2000/svg" viewBox="0 0 36 36">
  <path fill="#FFCC4D" d="M19.657 9.885c-2.648 1.447-6.515 9.628-6.355 13.029.159 3.364 1.779 5.653 3.855 6.365s9.767 1.339 8.897-7.516c-.2-2.031 1.398-3.536 1.965-3.404 1.438.336-.767 1.486-.153 3.173.506 1.391 1.126 5.323-1.041 9.135C25.364 33.236 21.855 35 17.262 35c-3.832 0-7.731-2.207-9.128-5.82-1.596-4.127-.697-7.833.396-9.523 1.503-2.323 6.482-8.747 4.325-10.233 3 1 6.802.461 6.802.461z"/>
  <path fill="#FFCC4D" d="M16.5 3.5C17.878 3.5 19 4.622 19 6s-1.122 2.5-2.5 2.5S14 7.378 14 6s1.122-2.5 2.5-2.5m0-2.5c-2.761 0-5 2.239-5 5s2.239 5 5 5 5-2.239 5-5-2.239-5-5-5z"/>
</svg>
