<svg xmlns="http://www.w3.org/2000/svg" viewBox="0 0 36 36">
  <path fill="#F4900C" d="M15.579 10.629c-.506-.099-.851-.239-.851-.239s-.007.424-.244 1.254c-.208.727-.596 1.768-1.312 3.114.679-1.07 1.318-2.116 1.804-2.978.411.1.867.174 1.364.212.579-.817 1.016-1.354 1.016-1.354-.637.146-1.283.087-1.777-.009zm3.305 20.731c4.336.129 6.525-1.434 7.698-4.131-.09-.228-.375.041-.749.761-.645 1.239-3.123 2.876-7.238 2.677-3.712-.179-5.404-2.658-6.1-5.253l-.026.005c.534 1.961 1.425 5.792 6.415 5.941z"/>
</svg>
