<svg xmlns="http://www.w3.org/2000/svg" viewBox="0 0 36 36">
  <path fill="#FFD983" d="M19 6c0 1.378-1.122 2.5-2.5 2.5S14 7.378 14 6c-.013-.171-.005-.35.016-.533-.056.088-.096.182-.107.288-.145 1.493.986 3.355 2.896 3.208 1.738-.134 2.408-1.85 2.317-3.074-.007-.096-.054-.185-.116-.271.002.128.006.256-.006.382z"/>
  <path fill="#FFD983" d="M14.086 5.384c-.024.028-.051.054-.07.083-.021.183-.029.362-.016.533 0-.214.035-.418.086-.616zM19 6c.012-.126.008-.254.006-.382-.015-.02-.033-.039-.05-.058.025.144.044.289.044.44z"/>
</svg>
