<svg xmlns="http://www.w3.org/2000/svg" viewBox="0 0 36 36" xml:space="preserve">
  <path fill="#99AAB5" d="M21.956 12.788c.091.544-.321 1.066-.922 1.136-.676.079-1.355.121-2.035.147V16a1 1 0 0 1-2 0v-1.93a26.188 26.188 0 0 1-2.035-.147c-.601-.07-1.012-.591-.922-1.136a1.042 1.042 0 0 1 1.152-.851c.6.07 1.202.109 1.804.133V10a1 1 0 0 1 2 0v2.07a24.781 24.781 0 0 0 1.804-.133 1.042 1.042 0 0 1 1.154.851zM26.651 3c-1.73-.597-4.952-1-8.651-1s-6.921.403-8.651 1H8v1c0 1.105 4.477 2 10 2s10-.895 10-2V3h-1.349z"/>
</svg>
