<svg xmlns="http://www.w3.org/2000/svg" viewBox="0 0 36 36">
  <path fill="#C1694F" d="M21.978 20.424c-.054-.804-.137-1.582-.247-2.325-.133-.89-.299-1.728-.485-2.513-.171-.723-.356-1.397-.548-2.017-.288-.931-.584-1.738-.852-2.4-.527-1.299-.943-2.043-.943-2.043l-3.613.466s.417.87.868 2.575c.183.692.371 1.524.54 2.495.086.49.166 1.012.238 1.573.1.781.183 1.632.242 2.549.034.518.058 1.058.074 1.619.006.204.015.401.018.611.01.656-.036 1.323-.118 1.989-.074.6-.182 1.197-.311 1.789-.185.848-.413 1.681-.67 2.475-.208.643-.431 1.261-.655 1.84-.344.891-.69 1.692-.989 2.359-.502 1.119-.871 1.863-.871 2.018 0 .49.35 1.408 2.797 2.02 3.827.956 4.196-.621 4.196-.621s.243-.738.526-2.192c.14-.718.289-1.605.424-2.678.081-.642.156-1.348.222-2.116.068-.8.125-1.667.165-2.605.03-.71.047-1.47.055-2.259.002-.246.008-.484.008-.737 0-.64-.03-1.261-.071-1.872z"/>
</svg>
