<svg xmlns="http://www.w3.org/2000/svg" viewBox="0 0 36 36">
  <path fill="#D99E82" d="M18.306 30.068c-1.403-.244-2.298-.653-2.789-.959-.344.891-.69 1.692-.989 2.359.916.499 2.079.895 3.341 1.114.729.127 1.452.191 2.131.191.414 0 .803-.033 1.176-.08.14-.718.289-1.605.424-2.678-.444.157-1.548.357-3.294.053zm1.06-4.673c-1.093-.108-1.934-.348-2.525-.602-.185.848-.413 1.681-.67 2.475.864.326 1.881.561 2.945.666.429.042.855.064 1.27.064.502 0 .978-.039 1.435-.099.068-.8.125-1.667.165-2.605-.628.135-1.509.21-2.62.101zm.309-2.133c.822 0 1.63-.083 2.366-.228.002-.246.008-.484.008-.737 0-.641-.029-1.262-.071-1.873-.529.138-1.285.272-2.352.286-1.084-.005-1.847-.155-2.374-.306.006.204.015.401.018.611.01.656-.036 1.323-.118 1.989.763.161 1.605.253 2.461.257l.062.001zm-.249-4.577c.825-.119 1.59-.333 2.304-.585-.133-.89-.299-1.728-.485-2.513-.496.204-1.199.431-2.181.572-.91.132-1.605.124-2.129.077.1.781.183 1.632.242 2.549.152.006.29.029.446.029.588.001 1.2-.043 1.803-.129zm1.271-5.116c-.288-.931-.584-1.738-.852-2.4-.443.222-1.004.456-1.737.659-.795.221-1.437.309-1.951.339.183.692.371 1.524.54 2.495.681-.068 1.383-.179 2.094-.376.679-.188 1.31-.44 1.906-.717z"/>
</svg>
