<svg xmlns="http://www.w3.org/2000/svg" viewBox="0 0 36 36">
  <path fill="#3E721D" d="M32.61 4.305c-.044-.061-4.48-5.994-10.234-3.39-2.581 1.167-4.247 3.074-4.851 5.535-1.125-1.568-2.835-2.565-5.093-2.968C6.233 2.376 2.507 9.25 2.47 9.32c-.054.102-.031.229.056.305s.217.081.311.015c.028-.02 2.846-1.993 7.543-1.157 4.801.854 8.167 1.694 8.201 1.702.02.005.041.007.061.007.069 0 .136-.028.184-.08.032-.035 3.22-3.46 6.153-4.787 4.339-1.961 7.298-.659 7.326-.646.104.046.227.018.298-.07.072-.087.075-.213.007-.304z"/>
</svg>
