<svg xmlns="http://www.w3.org/2000/svg" viewBox="0 0 36 36">
  <path fill="#5C913B" d="M27.884 7.63c-4.405-2.328-7.849-1.193-9.995.22-2.575-.487-7.334-.459-11.364 4.707-4.983 6.387-.618 14.342-.573 14.422.067.119.193.191.327.191.015 0 .031-.001.046-.003.151-.019.276-.127.316-.274.015-.054 1.527-5.52 5.35-10.118 2.074-2.496 4.55-4.806 6.308-6.34 1.762.298 4.327.947 6.846 2.354 4.958 2.773 7.234 7.466 7.257 7.513.068.144.211.226.379.212.158-.018.289-.133.325-.287.02-.088 1.968-8.8-5.222-12.597z"/>
</svg>
