<svg xmlns="http://www.w3.org/2000/svg" viewBox="0 0 36 36">
  <path fill="#2657A7" d="M18.265 17.76l-.249-.766-.249.766h-.806l.652.473-.249.767.652-.474.652.474-.249-.767.652-.473zm5.332 2.48l-.249.766.652-.473.652.473-.249-.766.652-.473h-.806L24 19l-.249.767h-.806zm.652-4.48L24 14.994l-.249.766h-.806l.652.473-.249.767.652-.474.652.474-.249-.767.652-.473zm-12.707 4.48l-.249.766.652-.473.652.473-.249-.766.652-.473h-.806L11.945 19l-.249.767h-.806zm.652-4.48l-.249-.766-.249.766h-.806l.652.473-.249.767.652-.474.652.474-.249-.767.652-.473z"/>
</svg>
