<svg xmlns="http://www.w3.org/2000/svg" viewBox="0 0 36 36">
  <path fill="#7C533E" d="M18.032 10.676c-.037.617.172 1.537 1.603 1.665 1.43.128 2.808-.164 3.392-.377.584-.214.637.836.892 1.807.256.974.44 1.739.407 1.947-.054.352-.726 1.071-.388 1.647.338.576.848 1.115 1.404.854s1.009-.557 1.136-.889c.127-.333-.626-1.25-.674-1.525s-.081-3.894-.146-4.3c-.08-.496-.172-1.177-1.01-1.395s-4.153-.593-4.985-.688c-.953-.109-1.582.436-1.631 1.254zM16.461.971c-1.845-.19-4.101 1.369-3.959 3.405.198 2.841 2.368 4.687 4.011 4.031 1.723-.688 2.703-1.387 2.911-3.417.209-2.03-1.118-3.829-2.963-4.019z"/>
  <path fill="#7C533E" d="M19.083 5.593c1.625-3.518-4.125-1.612-4.125-1.612-1.092.348.181 1.974-.058 3.122-.162.794 1.439.743 1.439.743s.685-.202.955.622l.002.008c.068.21.116.469.111.834-.027 1.808 2.503 2.205 2.528.394.01-.717-.229-1.278-.478-1.788l-.022-.045c-.372-.76-.753-1.408-.352-2.278z"/>
</svg>
