<svg xmlns="http://www.w3.org/2000/svg" viewBox="0 0 36 36">
  <path fill="#A78E81" d="M2.381 8.671c-1.573 0-2.359.786-1.573 1.573 1.573 1.573 3.145 1.573 3.931.786L2.381 8.671zm6.29-6.29c0-1.573.786-2.359 1.573-1.573 1.573 1.573 1.573 3.145.786 3.931L8.671 2.381zm-4.717 9.435s8.547 14.433 14.939 16.512c3.344 1.087 5.692.599 7.863-1.573s2.406-4.447 1.573-7.863C26.937 13.188 11.816 3.954 11.816 3.954l-7.862 7.862z"/>
  <path fill="#A78E81" d="M16.129 26.852c4.231 5.36 8.793 7.807 10.465 6.519 1.624-1.25-.324-2.578-2.174-6.954-1.936-4.58-10.526-2.397-8.291.435zM26.85 16.07c5.36 4.231 7.803 8.858 6.516 10.53-1.25 1.624-2.578-.324-6.954-2.174-4.581-1.936-2.394-10.591.438-8.356z"/>
</svg>
