<svg xmlns="http://www.w3.org/2000/svg" viewBox="0 0 36 36">
  <path fill="#A78E81" d="M10.655 10.401c-.426 0-.82-.101-1.132-.308-.189-.125-.241-.38-.116-.57.125-.19.38-.242.57-.116.452.299 1.339.188 2.019-.253.276-.179.906-.674.785-1.399-.037-.224.114-.436.338-.473.225-.036.436.114.473.338.139.836-.291 1.668-1.15 2.224-.565.368-1.205.557-1.787.557z"/>
  <path fill="#A78E81" d="M7.931 13.619c-.103 0-.207-.009-.31-.026-.224-.038-.376-.249-.338-.473.038-.224.251-.375.473-.338.722.121 1.22-.509 1.399-.786.441-.681.553-1.568.253-2.019-.125-.189-.074-.444.116-.57.189-.126.445-.074.57.116.489.739.387 1.939-.249 2.92-.488.753-1.187 1.176-1.914 1.176z"/>
</svg>
