<svg xmlns="http://www.w3.org/2000/svg" viewBox="0 0 36 36">
  <g fill="#67757F">
    <path d="M2.928 15.73c-.028 0-.057-.002-.086-.008-.264-.047-.44-.3-.393-.564.407-2.269 1.793-3.891 3.707-4.338.261-.06.523.102.584.363.061.262-.101.523-.363.584-1.524.356-2.634 1.689-2.971 3.564-.042.233-.246.399-.478.399z"/>
    <path d="M5.072 15.974c-.253 0-.466-.195-.484-.451-.079-1.078.493-2.498 1.586-3.008.244-.113.533-.009.646.235.113.243.009.533-.235.646-.671.313-1.08 1.335-1.028 2.056.02.268-.181.501-.449.52-.013.002-.024.002-.036.002zm6.208-9.209c-.037 0-.074-.004-.111-.013-.262-.061-.424-.323-.363-.584.448-1.914 2.07-3.299 4.338-3.707.264-.047.517.129.564.393.047.264-.128.517-.393.564-1.875.337-3.207 1.447-3.564 2.971-.05.225-.25.376-.471.376z"/>
    <path d="M12.944 6.877c-.069 0-.139-.015-.205-.046-.244-.113-.348-.403-.235-.646.51-1.093 1.919-1.664 3.008-1.586.268.019.469.253.449.52-.019.267-.248.468-.52.449-.712-.048-1.742.357-2.056 1.028-.083.177-.258.281-.441.281z"/>
  </g>
</svg>
