<svg xmlns="http://www.w3.org/2000/svg" viewBox="0 0 36 36">
  <path fill="#292F33" d="M8.588 14.077c1.116-.14 4.486-.19 7.023-2.093.558-.419 1.326.913.93 1.163-3.209 2.023-6.965 2.279-7.814 2.279-.464-.001-.73-1.276-.139-1.349zm.628 3.602c.844.244 2.594.28 3.39.235.796-.045 6.165-.723 6.165-.723l.189 1.445s-5.659.826-6.554.943c-.896.117-3.1.802-3.1.802s-.255-.615-.32-1.289c-.065-.684.23-1.413.23-1.413zm10.929 4.999l1.377.958s-2.545 3.872-4.874 5.086l-1.249-1.237s1.303-.867 2.439-2.099c1.196-1.299 2.307-2.708 2.307-2.708z"/>
</svg>
