<svg xmlns="http://www.w3.org/2000/svg" viewBox="0 0 36 36">
  <path fill="#D99E82" d="M25.448 21.797c-2.407-3.139-4.928-5.403-8.368-8.165-2.401-1.928-2.514-5.196-2.514-6.029 0-3.626-3.244-5.455-6.496-4.229-.779.293-1.402 1.33-1.754 1.872-1.978 3.037-4.659.015-4.918 2.822-.313 3.395 1.721 4.534 5.051 4.821 1.892.163 2.425 1.069 2.838 5.018.154 1.472-.433 3.802 1.411 5.822.78 2.959.507 7.08-.091 9.756-2.252.476-1.341 2.179-1.341 2.179s2.858-.043 3.543-.043c.814 0 2.146-5.639 1.849-9.067.942 1.151 1.517 1.762 2.581 2.267-1.116 1-1.081 2.512-.523 3.419.467.759 1.326.872 2.147 1.22-1.602.52-1.091 1.732-.909 2.122 1.083-.043 7.918-.043 8.197-.043 1.11 0 2.985-2.503 2.897-5.488-.078-2.64-1.581-5.62-3.6-8.254z"/>
</svg>
