<svg xmlns="http://www.w3.org/2000/svg" viewBox="0 0 36 36">
  <path fill="#E1E8ED" d="M20.143 32.215c0 1.183-.959 2.143-2.143 2.143s-2.143-.96-2.143-2.143c0-1.184.96-2.144 2.143-2.144s2.143.96 2.143 2.144z"/>
  <path fill="#E1E8ED" d="M27.643 15.643C27.643 10.317 23.324 6 18 6c-5.326 0-9.643 4.317-9.643 9.643 0 5.357-1.071 16.572-1.071 16.572 0 1.183.959 2.143 2.143 2.143 1.183 0 2.143-.96 2.143-2.143 0 1.183.96 2.143 2.143 2.143 1.183 0 2.142-.96 2.142-2.143h4.286c0 1.183.96 2.143 2.144 2.143 1.183 0 2.143-.96 2.143-2.143 0 1.183.959 2.143 2.143 2.143 1.184 0 2.143-.96 2.143-2.143-.002 0-1.073-11.215-1.073-16.572z"/>
</svg>
