<svg xmlns="http://www.w3.org/2000/svg" viewBox="0 0 36 36">
  <path fill="#FFAC33" d="M23.682 30.431l.002-.051c.027-.552.497-.977 1.049-.949.016.001 2.156.063 3.8-1.58 1.637-1.638 1.578-3.772 1.58-3.801-.033-.55.397-1.021.948-1.049.552-.027 1.022.397 1.049.949.012.122.123 3.028-2.163 5.314-2.288 2.287-5.191 2.17-5.314 2.164-.535-.027-.951-.468-.951-.997z"/>
  <path fill="#FFAC33" d="M24.238 33.989c0-.109.018-.221.057-.33.182-.521.752-.796 1.273-.613.107.034 2.877.893 5.964-2.195 3.127-3.126 2.414-6.126 2.382-6.252-.137-.529.184-1.077.716-1.216.53-.14 1.073.172 1.217.701.046.17 1.077 4.205-2.9 8.181-4.014 4.016-7.876 2.726-8.038 2.668-.413-.144-.671-.531-.671-.944z"/>
</svg>
