<svg xmlns="http://www.w3.org/2000/svg" viewBox="0 0 36 36">
  <path fill="#4289C1" d="M24.032 17.279c.193 1.421-.135 2.945-1.22 3.321-1.039.36-3.058.116-3.058.116s-.66.468-.426 1.231c.133.434.314.645.262.692-.046.042-.486.02-.684.027-.528.02-1.114-.115-2.108-.301-.994-.187-1.44-.16-2.522-.359-1.198-.22-2.051-.659-2.491-1.745-.375-.927.091-2.139 1.419-2.764 1.08-.508 4.292-.724 5.498-.712 1.207.011 5.162-.741 5.33.494z"/>
  <path fill="#4289C1" d="M6.879 28.832c-.656-.086-1.341-.485-1.521-1.095 1.178-1.982 3-7.829 3-7.829.541-1.798 1.213-3.546 2.843-3.443 2.1.133 5.697.533 5.697.533 2.296.13 1.228.904 1.938 1.75.712.845-1.115 2.095-2.611 2.126-2.607.054-3.902-.113-5.428 1.324-.596 2.367-1.706 4.252-2.275 6.63-.799.315-.987.091-1.643.004z"/>
</svg>
