<svg xmlns="http://www.w3.org/2000/svg" viewBox="0 0 36 36">
  <path fill="#5DADEC" d="M10.999 24.961l-.113-3.421-2.87 1.708c-.638.345-1.062 1.024-1.036 1.799.037 1.102.966 1.975 2.076 1.953 1.109-.023 1.98-.937 1.943-2.039zm-2 8l-.113-3.421-2.87 1.708c-.638.345-1.062 1.024-1.036 1.799.037 1.102.966 1.975 2.076 1.953 1.11-.023 1.98-.937 1.943-2.039zm-4.979-5.54L3.907 24l-2.87 1.708c-.638.345-1.062 1.024-1.036 1.799.037 1.103.966 1.976 2.076 1.953 1.11-.023 1.98-.937 1.943-2.039zm25-2.46l-.113-3.421-2.869 1.708c-.639.345-1.062 1.024-1.036 1.799.037 1.103.966 1.976 2.076 1.953 1.109-.023 1.979-.937 1.942-2.039zm-2 9l-.113-3.421-2.869 1.708c-.639.345-1.062 1.024-1.036 1.799.037 1.102.966 1.976 2.076 1.953 1.109-.023 1.979-.937 1.942-2.039zm6-4l-.113-3.421-2.869 1.708c-.639.345-1.062 1.024-1.036 1.799.037 1.103.966 1.976 2.076 1.953 1.109-.023 1.979-.937 1.942-2.039z"/>
</svg>
