<svg xmlns="http://www.w3.org/2000/svg" viewBox="0 0 36 36">
  <path d="M11.148 12.514v-2.168c0-.279-.226-.505-.505-.505H9.085c-.279 0-.505.226-.505.505v2.168l1.284 1.285 1.284-1.285zm-2.569 3.63v2.168c0 .279.226.505.505.505h1.558c.279 0 .505-.226.505-.505v-2.168l-1.284-1.285-1.284 1.285zm5.269-3.1H11.68l-1.285 1.285 1.285 1.285h2.168c.279 0 .505-.227.505-.505V13.55c0-.279-.226-.506-.505-.506zm-5.799 0H5.88c-.279 0-.505.227-.505.505v1.558c0 .279.226.505.505.505h2.168l1.285-1.285-1.284-1.283z" fill="#8899A6"/>
</svg>
