<svg xmlns="http://www.w3.org/2000/svg" viewBox="0 0 36 36">
  <path fill="#FFCC4D" d="M15 10c-4.419 0-8 3.581-8 8 0 4.418 3.581 8 8 8 4.418 0 8-3.582 8-8 0-4.419-3.582-8-8-8zm-6.113 4.594l1.602 1.602-2.46 1.23c.083-1.022.383-1.981.858-2.832zm-.858 3.979l4.4 2.207-2.706 1.804.014.021c-.96-1.097-1.583-2.492-1.708-4.032zM14 24.92c-.937-.134-1.813-.453-2.592-.92H14v.92zM14 23h-3.099L14 20.934V23zm0-3.268l-.607.405L9.118 18l2.116-1.058L14 19.707v.025zm0-1.439l-3.543-3.543 3.543.59v2.953zm0-3.992l-4.432-.713c1.084-1.333 2.65-2.253 4.432-2.508v3.221zm7.113.293c.475.851.775 1.81.858 2.833l-2.46-1.23 1.602-1.603zM16 11.08c1.782.256 3.348 1.175 4.432 2.508L16 14.301V11.08zm0 4.26l3.543-.591L16 18.293V15.34zm0 4.367l2.765-2.765L20.882 18l-4.274 2.137-.608-.405v-.025zm0 5.213V24h2.592c-.779.467-1.655.786-2.592.92zM16 23v-2.066L19.099 23H16zm4.264-.395l.014-.021-2.706-1.804 4.4-2.207c-.126 1.54-.749 2.935-1.708 4.032z"/>
</svg>
