<svg xmlns="http://www.w3.org/2000/svg" viewBox="0 0 36 36">
  <path fill="#FFAC33" d="M19.537 16.631c0 2.989-.538 5.411-1.202 5.411-.664 0-1.202-2.422-1.202-5.411 0-2.988.538-5.41 1.202-5.41.663 0 1.202 2.422 1.202 5.41zm4.684-.23c.513 2.533.446 4.683-.148 4.804-.595.12-1.492-1.834-2.006-4.368-.513-2.532-.447-4.683.148-4.803.595-.121 1.492 1.834 2.006 4.367zm3.853.223c.945 1.944 1.269 3.734.724 4-.546.265-1.754-1.095-2.7-3.04-.945-1.944-1.269-3.734-.724-4 .546-.265 1.754 1.097 2.7 3.04zm-13.493-.113c-.646 2.701-1.63 4.78-2.201 4.644-.571-.137-.51-2.436.134-5.137.645-2.701 1.738-4.304 2.309-4.167.572.136.403 1.96-.242 4.66zm-4.323.374c-.868 1.94-2.018 3.312-2.573 3.064-.554-.248-.3-2.02.567-3.961.867-1.94 2.086-2.915 2.64-2.667.554.249.233 1.625-.634 3.564z"/>
</svg>
