<svg xmlns="http://www.w3.org/2000/svg" viewBox="0 0 36 36">
  <path fill="#FFCC4D" d="M12.865 7.319c.514.603.618 1.387.233 1.751-.386.364-1.115.169-1.629-.434s-.618-1.387-.233-1.751c.385-.363 1.115-.169 1.629.434zm-6.392 3.462c.263.762.082 1.53-.405 1.716-.487.186-1.095-.28-1.358-1.042-.263-.762-.082-1.53.405-1.716.487-.185 1.095.281 1.358 1.042zm-3.492 4.904c.663.572.935 1.378.607 1.799-.328.421-1.132.299-1.796-.273-.663-.572-.935-1.378-.607-1.799.329-.422 1.133-.299 1.796.273zm15.691-9.214c.514.603.618 1.387.233 1.751-.386.364-1.115.169-1.629-.434s-.618-1.387-.233-1.751c.385-.364 1.115-.17 1.629.434z"/>
  <ellipse transform="rotate(-3.242 23.923 7.975)" fill="#FFCC4D" cx="23.913" cy="7.978" rx="1.118" ry="1.668"/>
  <path fill="#FFCC4D" d="M29.092 9.926c.147.795-.147 1.524-.655 1.628-.508.104-1.039-.457-1.186-1.252-.147-.795.147-1.524.655-1.628.508-.104 1.039.457 1.186 1.252zm3.167 3.436c-.333.684-.976 1.038-1.437.79s-.565-1.004-.233-1.688c.333-.684.976-1.038 1.437-.79.462.248.566 1.003.233 1.688zm2.285 3.81c-.414.532-1.118.646-1.572.255-.454-.391-.485-1.14-.071-1.671.415-.532 1.118-.646 1.572-.255.453.391.485 1.139.071 1.671z"/>
</svg>
