<svg xmlns="http://www.w3.org/2000/svg" viewBox="0 0 36 36">
  <path fill="#157569" d="M26.496 9.174L32 0h-2l-6.38 7.292c-1.162-.559-2.418-.949-3.741-1.141L19 0h-2l-.879 6.151c-1.298.188-2.532.566-3.676 1.109L7 0H5l4.561 9.123c-.91.778-1.713 1.674-2.38 2.673L0 10v2l5.819 2.494C5.298 15.9 5 17.413 5 19c-.001.098-.013.191-.017.288l-2.748.393c-.078-.225-.156-.444-.235-.681-1-2.999-2-5-2-5v18c0 4 4 4 4 4h28s-.465-1.044 0-2c.179-.368 1.447-.658 1-2-.709-2.129-1.417-6.767-1.769-10H36v-2l-4.992-.713c-.004-.1-.008-.206-.008-.287 0-1.587-.299-3.1-.818-4.506L36 12v-2l-7.182 1.796c-.651-.978-1.437-1.855-2.322-2.622zM4 24s-.372-.747-.886-2h1.483C4.319 23.181 4 24 4 24z"/>
</svg>
