<svg xmlns="http://www.w3.org/2000/svg" viewBox="0 0 36 36">
  <path fill="#DD2E44" d="M23.123 21.824c.993.175 2.954.521 3.475-2.433s1.506-2.781.985.174-2.237 3.667-4.634 3.245c-1.969-.348-1.796-1.333.174-.986zm-10.33-1.821c1.971.34 2.277 1.422.308 1.07-.873-.156-.984.212-1.251.958-.252.702-.611 1.757-1.144 3.23-.391 1.082-1.279.603-.95-.342.551-1.588 1.061-2.968 1.392-3.847.338-.895.613-1.247 1.645-1.069z"/>
  <path fill="#DD2E44" d="M10.62 24.01c-.258-.094-.547.04-.641.299l-2.052 5.638c-.094.258.04.547.299.641.258.094.547-.04.641-.299l2.052-5.638c.094-.259-.041-.547-.299-.641z"/>
</svg>
