<svg xmlns="http://www.w3.org/2000/svg" viewBox="0 0 36 36">
  <path fill="#292F33" d="M16 21v2s-2 0-2 2v3c0 1 1 2 2 2h10c1 0 2-1 2-2v-5c0-1-1-2-2-2H16z"/>
  <path fill="#292F33" d="M22.956 22.559l-9.848-1.736c-.985-.174-.985-.174-.811-1.158.096-.542.617-.907 1.158-.811l9.848 1.736c.542.096.907.617.811 1.158-.173.985-.173.985-1.158.811z"/>
  <path fill="#292F33" d="M25.238 19.023c-.193.922-.557 1.827-2.094 1.537-1.537-.29-1.782 1.225-.824 1.493.958.267 3.252.646 3.921-.446.668-1.092.78-2.139.713-2.606s-1.572-.66-1.716.022z"/>
</svg>
