<svg xmlns="http://www.w3.org/2000/svg" viewBox="0 0 36 36">
  <path fill="#EA596E" d="M24.781 19.625c-.198.246-.488.375-.782.375-.219 0-.439-.071-.624-.219C23.375 19.781 20 16 18 16s-5.375 3.781-5.375 3.781c-.185.148-.405.219-.625.219-.293 0-.584-.128-.781-.375-.033-.042-.044-.091-.07-.136-.209.348-.199.8.07 1.136.198.247.488.375.781.375.219 0 .44-.071.624-.219C12.625 20.781 16 17 18 17s5.375 3.781 5.375 3.781c.185.148.405.219.624.219.294 0 .584-.129.782-.375.268-.336.278-.788.07-1.136-.026.045-.037.095-.07.136z"/>
</svg>
