<svg xmlns="http://www.w3.org/2000/svg" viewBox="0 0 36 36">
  <path fill="#EA596E" d="M22 9.075c.04-2.777 3.003-3.141 7.459.958 2.483 2.284 4.044 6.757 4.871 11.584.832 4.856.387 10.182-.119 11.525-.297-3.089-3.683-1.426-7.307-3.03-1.089-.482-1.515-.926-1.426-3.327.119-3.208-2.598-2.198-2.598-4.34.001-3.97-.994-5.397-.88-13.37zm-2.25-5.559c-.128 0-.255-.052-.348-.155-.012-.013-.444-.451-1.402-.451s-1.389.437-1.407.456c-.177.185-.471.196-.658.022-.187-.174-.203-.462-.032-.652.07-.078.723-.761 2.097-.761s2.027.683 2.098.76c.173.192.157.488-.035.661-.089.08-.202.12-.313.12zm0 3c-.128 0-.255-.052-.348-.155-.012-.013-.444-.451-1.402-.451s-1.389.437-1.407.456c-.177.185-.471.196-.658.022s-.203-.462-.032-.652c.07-.078.723-.761 2.097-.761s2.027.683 2.098.76c.173.192.157.488-.035.661-.089.08-.202.12-.313.12zm0 3c-.128 0-.255-.052-.348-.155-.012-.013-.444-.451-1.402-.451s-1.389.437-1.407.456c-.177.184-.471.196-.658.022-.187-.174-.203-.462-.032-.652.07-.078.723-.761 2.097-.761s2.027.683 2.098.76c.173.192.157.488-.035.661-.089.08-.202.12-.313.12zm0 3c-.128 0-.255-.052-.348-.155-.012-.013-.444-.451-1.402-.451s-1.389.437-1.407.456c-.177.185-.471.196-.658.022s-.203-.462-.032-.652c.07-.078.723-.761 2.097-.761s2.027.683 2.098.76c.173.192.157.488-.035.661-.089.08-.202.12-.313.12z"/>
</svg>
