<svg xmlns="http://www.w3.org/2000/svg" viewBox="0 0 36 36">
  <g fill="#BE1931">
    <path d="M14.847 22.402h-.064c-2.117-.069-4.919-1.006-6.246-5.077-.135-.413.089-.864.503-.999.414-.135.857.085.992.499l.003.011c.312.959 1.263 3.876 4.8 3.991.435.015.776.378.762.812-.014.415-.344.743-.75.763zm-5.348 5.637c.151-.221.411-.359.698-.342 3.034.181 4.578-1.938 5.086-2.634.256-.352.749-.429 1.1-.173.352.256.414.747.173 1.1-1.698 2.33-3.869 3.434-6.453 3.28-.434-.026-.766-.399-.74-.834.01-.148.059-.284.136-.397z"/>
    <path d="M14.362 23.967c.421-.064.767-.141 1.022-.2l.179-.04c.426-.092.695-.511.603-.937-.092-.425-.515-.698-.937-.603l-.193.043c-1.087.245-3.635.824-6.463-1.149-.357-.248-.849-.161-1.096.195-.249.357-.161.848.195 1.096 2.665 1.86 5.165 1.826 6.69 1.595z"/>
    <path d="M15.403 25.298c.376-.199 1.053-.624 1.053-.624.371-.228.487-.712.259-1.084-.227-.37-.718-.488-1.084-.259l-.168.105c-.944.591-3.156 1.981-6.479 1.057-.419-.116-.854.129-.97.548-.117.419.129.854.548.97 3.131.87 5.479.009 6.841-.713z"/>
  </g>
  <g fill="#BE1931">
    <path d="M21.833 22.402h.064c2.117-.069 4.919-1.006 6.246-5.077.135-.413-.089-.864-.503-.999-.414-.135-.857.085-.992.499l-.003.011c-.312.959-1.263 3.876-4.8 3.991-.435.015-.776.378-.762.812.015.415.344.743.75.763zm5.348 5.637c-.151-.221-.411-.359-.698-.342-3.034.181-4.578-1.938-5.086-2.634-.256-.352-.749-.429-1.1-.173-.352.256-.414.747-.173 1.1 1.698 2.33 3.869 3.434 6.453 3.28.434-.026.766-.399.74-.834-.009-.148-.058-.284-.136-.397z"/>
    <path d="M22.318 23.967c-.421-.064-.767-.141-1.022-.2l-.179-.04c-.426-.092-.695-.511-.603-.937.092-.425.515-.698.937-.603l.193.043c1.087.245 3.635.824 6.463-1.149.357-.248.849-.161 1.096.195.249.357.161.848-.195 1.096-2.664 1.86-5.165 1.826-6.69 1.595z"/>
    <path d="M21.277 25.298c-.376-.199-1.053-.624-1.053-.624-.371-.228-.487-.712-.259-1.084.227-.37.718-.488 1.084-.259l.168.105c.944.591 3.156 1.981 6.479 1.057.419-.116.854.129.97.548.117.419-.129.854-.548.97-3.131.87-5.479.009-6.841-.713z"/>
  </g>
  <path fill="#BE1931" d="M8.983 6.922c.752-.779 2.316-2.461 1.59-3.954.949.077 6.757 6.159-.06 9.073-1.072-.137-1.53-5.119-1.53-5.119zm8.772 23.394c-.726.329-4.25 2.171-4.354 5.46.069.789 2.73-1.25 5.01-1.25v-3.454l-.656-.756z"/>
  <path fill="#BE1931" d="M19.035 30.316c.726.329 4.25 2.171 4.354 5.46-.069.789-2.73-1.25-5.01-1.25v-3.454l.656-.756zm-11.4-18.303c.133 1.429 2.975 2.889 5.023 3.227.262-.57-1.354-2.237-2.227-3.246-.488-.564-.701-1.904-2.185-1.321s-.611 1.34-.611 1.34z"/>
  <path fill="#BE1931" d="M11.742 13.793c-.655 0-.83 1.754 2.489 2.544s1.56-.878 1.048-1.667c-.656-1.009-3.537-.877-3.537-.877z"/>
</svg>
