<svg xmlns="http://www.w3.org/2000/svg" viewBox="0 0 36 36">
  <path fill="#BE1931" d="M27.629 6.922c-.752-.779-2.316-2.461-1.59-3.954-.949.077-6.757 6.159.06 9.073 1.072-.137 1.53-5.119 1.53-5.119z"/>
  <path fill="#BE1931" d="M28.976 12.013c-.133 1.429-2.975 2.889-5.023 3.227-.262-.57 1.354-2.237 2.227-3.246.488-.564.701-1.904 2.185-1.321s.611 1.34.611 1.34z"/>
  <path fill="#BE1931" d="M24.87 13.793c.655 0 .83 1.754-2.489 2.544s-1.56-.878-1.048-1.667c.655-1.009 3.537-.877 3.537-.877z"/>
</svg>
