<svg xmlns="http://www.w3.org/2000/svg" viewBox="0 0 36 36">
  <path fill="#55ACEE" d="M15.018 27.982c-.276-.223.119-.841 1.078-1.235.887-.365 1.267.059 1.258.17-.008.104-.425-.242-1.113.183s-.917 1.129-1.223.882zm.553.716c-.276-.223.119-.841 1.078-1.235.887-.365 1.267.059 1.258.17-.008.104-.425-.243-1.113.183s-.918 1.129-1.223.882zm7.982-4.388c-.296-.195.037-.848.952-1.335.848-.45 1.267-.065 1.269.046.002.104-.447-.2-1.09.291-.642.491-.802 1.214-1.131.998zm.621.659c-.296-.195.037-.848.952-1.335.848-.45 1.267-.065 1.269.046.002.104-.447-.2-1.09.291s-.803 1.214-1.131.998z"/>
</svg>
