<svg xmlns="http://www.w3.org/2000/svg" viewBox="0 0 36 36">
  <g fill="#66757F">
    <path d="M11.945 32.885c-.185 0-.363-.103-.45-.28L.652 10.624c-.123-.248-.021-.549.228-.671.25-.122.549-.02.671.228l10.843 21.98c.123.248.021.549-.228.672-.071.035-.147.052-.221.052z"/>
    <path d="M11.944 32.885c-.216 0-.416-.141-.481-.358L4.042 7.612c-.079-.265.072-.545.338-.624.268-.079.545.073.624.338l7.421 24.914c.079.266-.072.545-.338.624-.047.014-.095.021-.143.021z"/>
    <path d="M11.944 32.885c-.259 0-.479-.199-.5-.462L9.214 4.428c-.022-.276.184-.518.46-.54.278-.02.518.184.54.46l2.23 27.995c.022.276-.184.518-.46.54l-.04.002z"/>
    <path d="M11.945 32.885c-.17 0-.336-.087-.43-.243-.143-.237-.066-.546.171-.688l21-12.64c.237-.143.546-.066.688.171s.066.546-.171.688l-21 12.64c-.081.048-.17.072-.258.072z"/>
    <path d="M11.944 32.885c-.141 0-.281-.06-.38-.175-.181-.21-.157-.526.053-.707l19.705-16.957c.21-.18.527-.157.707.053.181.21.157.527-.053.708L12.271 32.763c-.094.082-.21.122-.327.122z"/>
    <path d="M11.944 32.885c-.106 0-.212-.034-.303-.103-.22-.168-.263-.482-.096-.703L28.546 9.726c.168-.221.482-.262.703-.096.221.168.264.482.096.703L12.344 32.687c-.099.129-.249.198-.4.198z"/>
  </g>
</svg>
