<svg xmlns="http://www.w3.org/2000/svg" viewBox="0 0 36 36">
  <path fill="#F4900C" d="M15.799 29.523c-.095-.427-.489-.521-.633-.196-.144.325-.214 1.356-.214 1.356s-.337-.915-.656-1.37l-.031-.047c-.054-.072-.107-.132-.157-.167l-.02-.013c-.246-.206-.596-.356-1.034-.485s-.813-.191-1.132-.151h-.024c-.061.003-.139.025-.222.056-.018.006-.034.015-.052.022-.514.21-1.292.799-1.292.799s.498-.906.552-1.257c.054-.351-.328-.485-.639-.177-.31.308-1.13 2.047-1.011 2.449.119.402.788.23 1.217.097l.198-.064c-.07.395-.111.863-.02 1.321-.887 1.998-.811 3.811-.411 3.928.616.181 1.137-2.356 1.44-2.267.303.089-.524 2.461.092 2.642.4.117 1.339-1.323 1.671-3.484.324-.337.542-.752.697-1.123.045.055.091.113.132.161.29.344.759.85 1.077.576.318-.272.567-2.179.472-2.606z"/>
</svg>
