<svg xmlns="http://www.w3.org/2000/svg" viewBox="0 0 36 36">
  <path fill="#66757F" d="M8 21.5c0 .276-.224.5-.5.5s-.5-.224-.5-.5v-11c0-.276.224-.5.5-.5s.5.224.5.5v11zm21 .096c0 .223-.181.404-.404.404h-.191c-.224 0-.405-.181-.405-.404V10.404c0-.223.181-.404.404-.404h.191c.224 0 .405.181.405.404v11.192z"/>
  <path fill="#66757F" d="M29 10.5c0 .276-.224.5-.5.5h-21c-.276 0-.5-.224-.5-.5s.224-.5.5-.5h21c.276 0 .5.224.5.5zm0 5.116c0 .212-.172.384-.384.384H7.384C7.172 16 7 15.828 7 15.616v-.232c0-.212.172-.384.384-.384h21.232c.212 0 .384.172.384.384v.232z"/>
</svg>
