<svg xmlns="http://www.w3.org/2000/svg" viewBox="0 0 36 36">
  <path fill="#FFDC5D" d="M14.444 12.936c0 1.448-.734 2.622-1.639 2.622s-1.639-1.174-1.639-2.622.734-2.623 1.639-2.623c.905-.001 1.639 1.174 1.639 2.623m16.389 0c0 1.448-.733 2.622-1.639 2.622-.905 0-1.639-1.174-1.639-2.622s.733-2.623 1.639-2.623c.906-.001 1.639 1.174 1.639 2.623"/>
  <path fill="#FFDC5D" d="M12.477 13.96c0-5.589 3.816-10.121 8.523-10.121s8.522 4.532 8.522 10.121S25.707 24.081 21 24.081c-4.706-.001-8.523-4.532-8.523-10.121"/>
</svg>
