<svg xmlns="http://www.w3.org/2000/svg" viewBox="0 0 36 36">
  <path fill="#77B255" d="M16.196 21.209c.153.376-.805 1.121-2.14 1.663s-2.541.677-2.693.301c-.153-.376.805-1.121 2.14-1.663 1.334-.543 2.54-.677 2.693-.301zm-.66-1.124c.109.391-.849.998-2.139 1.356-1.29.358-2.423.331-2.532-.06-.109-.391.849-.998 2.139-1.356s2.423-.331 2.532.06zm-1.38-1.333c.109.391-.743.969-1.902 1.291-1.159.322-2.186.265-2.295-.126-.109-.391.743-.969 1.901-1.291 1.16-.322 2.187-.265 2.296.126z"/>
  <path fill="#77B255" d="M13.101 17.41c.141.319-.568.942-1.583 1.389-1.015.448-1.953.552-2.094.233-.141-.319.568-.942 1.583-1.389 1.016-.448 1.953-.552 2.094-.233zm-1.795-.659c.126.286-.452.817-1.29 1.187-.839.37-1.621.438-1.747.152-.126-.286.452-.817 1.29-1.187.838-.37 1.62-.438 1.747-.152zm-1.82-.893c.183.253-.184.831-.82 1.29-.636.459-1.3.626-1.483.373-.183-.253.184-.831.82-1.29.636-.459 1.3-.627 1.483-.373zm-1.458-.345c.191.264-.223.889-.925 1.396-.702.507-1.425.703-1.616.439-.191-.264.223-.889.925-1.396.702-.507 1.425-.703 1.616-.439zm-1.834-.202c.17.235-.209.8-.847 1.261-.638.461-1.293.643-1.463.408-.17-.235.209-.8.847-1.261.638-.461 1.293-.643 1.463-.408zm-1.632-.287c.149.206-.165.687-.701 1.075-.536.387-1.092.534-1.241.328-.149-.206.165-.687.701-1.075.537-.388 1.092-.535 1.241-.328z"/>
  <path fill="#77B255" d="M3.496 14.966c.064.246-.404.58-1.044.746-.64.166-1.211.101-1.275-.146-.064-.246.404-.58 1.044-.746.641-.165 1.212-.1 1.275.146z"/>
</svg>
