<svg xmlns="http://www.w3.org/2000/svg" viewBox="0 0 36 36">
  <path fill="#5C913B" d="M3.712 14.666c-.12.224-.69.153-1.273-.16-.583-.312-.958-.748-.838-.972.12-.224.69-.153 1.273.16s.958.748.838.972zm16.864 3.361c.217.343-.594 1.246-1.811 2.016s-2.38 1.117-2.597.774c-.217-.343.594-1.246 1.811-2.016s2.38-1.117 2.597-.774zm-1.808-1.304c.266.306-.297 1.232-1.258 2.067s-1.956 1.264-2.223.958c-.266-.307.297-1.232 1.258-2.067.962-.836 1.957-1.265 2.223-.958zm-1.292-.988c.266.306-.227 1.172-1.103 1.932-.875.761-1.801 1.129-2.067.823-.266-.307.227-1.172 1.103-1.932.875-.761 1.801-1.129 2.067-.823zm-2.007-.981c.298.201.096 1.019-.45 1.828-.546.809-1.23 1.302-1.527 1.101-.298-.201-.096-1.019.45-1.828.546-.809 1.23-1.302 1.527-1.101zm-1.603-.944c.331.139.292.981-.087 1.881-.379.899-.954 1.516-1.285 1.376-.331-.139-.292-.981.087-1.881.379-.899.954-1.516 1.285-1.376zm-1.705-1.164c.329.061.445.922.261 1.923-.185 1.002-.601 1.765-.929 1.704-.328-.061-.445-.922-.261-1.923.184-1.002.6-1.765.929-1.704zm-1.421.181c.328.061.464.818.303 1.691-.161.873-.558 1.532-.886 1.472-.329-.061-.464-.818-.303-1.691.161-.874.557-1.533.886-1.472zm-1.587-.594c.334.004.596.727.585 1.615-.011.888-.291 1.604-.625 1.6-.334-.004-.596-.727-.585-1.615.012-.888.291-1.604.625-1.6zm-1.426-.132c.334.004.596.671.586 1.489-.01.818-.289 1.478-.623 1.473-.334-.004-.596-.671-.586-1.489.01-.817.289-1.477.623-1.473zm-1.352-.022c.328.004.587.612.578 1.357-.009.745-.283 1.346-.612 1.342-.328-.004-.587-.612-.578-1.357.01-.745.284-1.346.612-1.342z"/>
  <path fill="#5C913B" d="M4.852 12.122c.321-.071.712.461.873 1.188s.033 1.375-.288 1.446c-.321.071-.712-.461-.873-1.188-.161-.728-.032-1.375.288-1.446zm-1.49.411c.248-.121.676.244.954.815.278.571.303 1.132.054 1.253-.248.121-.676-.244-.954-.815-.278-.57-.302-1.131-.054-1.253z"/>
</svg>
