<svg xmlns="http://www.w3.org/2000/svg" viewBox="0 0 36 36">
  <path fill="#C6E5B3" d="M18.374 21.969c-.057.402-1.069.59-2.259.421-1.191-.17-2.109-.633-2.052-1.035.057-.402 1.069-.59 2.259-.421s2.109.633 2.052 1.035zm-.681-1.873c.001.349-.898.635-2.007.639-1.11.003-2.01-.277-2.012-.626-.001-.349.898-.635 2.007-.639 1.11-.003 2.011.277 2.012.626zm-.78-1.229c.001.312-.741.568-1.658.571-.917.003-1.66-.248-1.661-.56-.001-.312.741-.568 1.658-.571.916-.003 1.66.248 1.661.56zm-1.31-1.547c.066.305-.502.687-1.269.853-.767.166-1.442.053-1.508-.252-.066-.305.502-.687 1.269-.853.767-.166 1.442-.053 1.508.252zm-1.197-.9c.069.319-.561.725-1.406.909-.846.183-1.587.073-1.656-.245-.069-.319.561-.725 1.406-.909.845-.183 1.587-.074 1.656.245zm-1.094-.983c.062.284-.512.649-1.281.816-.769.167-1.442.071-1.504-.213-.061-.284.512-.649 1.281-.816.77-.166 1.443-.071 1.504.213zm-1.696-.791c.054.249-.427.564-1.073.704-.647.14-1.214.052-1.268-.196-.054-.249.427-.564 1.073-.704.646-.141 1.214-.053 1.268.196zm-1.143-.543c-.04.251-.602.37-1.256.265-.653-.105-1.15-.393-1.11-.644.04-.251.602-.37 1.256-.265.653.105 1.15.393 1.11.644z"/>
</svg>
