<svg xmlns="http://www.w3.org/2000/svg" viewBox="0 0 36 36">
  <path fill="#A6D388" d="M10.791 13.915c-.2.157-.694-.137-1.103-.657-.409-.52-.578-1.069-.379-1.226.2-.157.694.137 1.103.657.409.519.579 1.068.379 1.226zm12.338 8.043c.121.387-.766 1.01-1.981 1.39-1.215.38-2.299.374-2.42-.013-.121-.388.766-1.01 1.981-1.39 1.215-.38 2.299-.374 2.42.013zm-.693-1.359c.121.387-.678.982-1.785 1.328-1.107.346-2.102.313-2.224-.075s.678-.982 1.785-1.329c1.107-.345 2.102-.312 2.224.076zm-1.098-1.893c.192.303-.32.972-1.144 1.495-.824.522-1.648.7-1.84.397-.192-.303.32-.973 1.145-1.495.823-.522 1.647-.7 1.839-.397zm-.901-1.507c.247.26-.126 1.016-.833 1.688-.707.672-1.481 1.007-1.729.746-.247-.26.126-1.016.833-1.688.708-.672 1.482-1.007 1.729-.746zm-1.096-1.75c.277.187.039 1.023-.532 1.867-.57.844-1.257 1.376-1.534 1.189-.277-.187-.039-1.023.532-1.867.57-.844 1.257-1.376 1.534-1.189zm-1.374-.404c.277.187.098.935-.399 1.671s-1.125 1.181-1.402.993c-.277-.187-.098-.935.399-1.671.497-.735 1.125-1.18 1.402-.993zm-1.216-1.18c.304.138.254.905-.112 1.714-.366.809-.91 1.354-1.214 1.216-.304-.138-.254-.905.112-1.714.366-.809.91-1.353 1.214-1.216zm-1.254-.692c.304.138.278.854-.059 1.599s-.857 1.238-1.162 1.1c-.304-.138-.278-.854.059-1.599.338-.745.858-1.237 1.162-1.1zm-1.23-.561c.299.135.293.796-.014 1.475s-.799 1.12-1.098.984c-.299-.135-.293-.795.014-1.475.307-.679.799-1.12 1.098-.984z"/>
  <path fill="#A6D388" d="M12.855 12.04c.322.063.467.707.324 1.439-.143.731-.521 1.273-.843 1.21s-.467-.707-.324-1.439c.143-.732.521-1.273.843-1.21zm-1.53-.22c.276-.012.521.494.548 1.129.026.635-.176 1.158-.453 1.17-.276.011-.521-.494-.548-1.129-.026-.634.176-1.158.453-1.17zm8.879 12.32l-.042-.001c-.293-.023-.513-.279-.491-.572.222-2.938 2.831-7.78 8.884-8.269.287-.021.55.195.573.488.024.293-.194.549-.488.573-6.041.487-7.776 5.553-7.907 7.289-.021.279-.253.492-.529.492z"/>
  <path fill="#A6D388" d="M19.959 22.482c-.008.406.959.756 2.161.781 1.202.025 2.184-.283 2.192-.689.008-.406-.959-.755-2.162-.781-1.201-.026-2.182.283-2.191.689zm.976-1.739c-.058.344.783.772 1.878.955 1.094.183 2.029.053 2.086-.292.058-.344-.783-.772-1.878-.955-1.094-.183-2.028-.052-2.086.292zm.969-1.086c-.052.308.639.681 1.544.832.904.151 1.679.024 1.73-.284.051-.308-.64-.681-1.544-.832-.904-.151-1.679-.024-1.73.284zm1.542-1.315c-.115.291.384.76 1.114 1.048.73.288 1.414.286 1.529-.005.115-.291-.384-.76-1.114-1.048-.729-.288-1.414-.285-1.529.005zm1.169-.915c-.12.303.436.807 1.241 1.124s1.555.33 1.674.026c.12-.303-.436-.806-1.241-1.124-.804-.318-1.554-.33-1.674-.026z"/>
  <path fill="#A6D388" d="M26.012 16.855c-.107.27.4.724 1.132 1.012.732.289 1.412.304 1.518.034.107-.27-.4-.723-1.132-1.012-.732-.289-1.412-.304-1.518-.034zm1.802-.506c-.093.237.33.625.945.868s1.19.248 1.283.011c.093-.237-.33-.625-.945-.868s-1.19-.248-1.283-.011z"/>
</svg>
