<svg xmlns="http://www.w3.org/2000/svg" viewBox="0 0 36 36">
  <path fill="#C6E5B3" d="M29.03 15.998c-.001.254.535.463 1.196.465.661.002 1.199-.202 1.199-.456.001-.254-.535-.462-1.196-.465-.661-.002-1.198.202-1.199.456z"/>
  <path fill="#C6E5B3" d="M28.747 15.761c.172.188.707-.023 1.194-.47.488-.447.744-.961.572-1.149-.172-.188-.707.023-1.194.47-.488.447-.744.961-.572 1.149zM16.49 20.63c-.182.363.51 1.079 1.546 1.6 1.036.521 2.024.649 2.206.286.182-.363-.51-1.079-1.546-1.6-1.036-.521-2.024-.649-2.206-.286z"/>
  <path fill="#C6E5B3" d="M17.879 19.161c-.239.268.159 1.011.887 1.66s1.513.958 1.752.69c.239-.268-.159-1.012-.887-1.661s-1.513-.957-1.752-.689zm.817-1.721c-.286.217-.041 1.023.549 1.801.589.778 1.299 1.233 1.585 1.016.286-.217.04-1.023-.549-1.801-.59-.778-1.299-1.233-1.585-1.016zm1.365-1.549c-.303.14-.204 1.003.223 1.928.426.925 1.018 1.562 1.321 1.422.303-.14.204-1.003-.223-1.928-.426-.925-1.018-1.562-1.321-1.422zm1.421-.176c-.303.14-.248.907.124 1.714.372.807.919 1.347 1.222 1.207.303-.14.248-.907-.124-1.713-.371-.807-.918-1.348-1.222-1.208zm1.391-.968c-.323.087-.398.852-.167 1.71.23.858.678 1.483 1.001 1.396.323-.087.398-.852.167-1.71-.23-.857-.679-1.482-1.001-1.396zm1.349-.479c-.323.087-.412.797-.2 1.587.212.79.646 1.36.968 1.274.323-.087.412-.797.2-1.587-.211-.791-.645-1.361-.968-1.274zm1.305-.356c-.317.085-.418.738-.225 1.457s.607 1.234.924 1.149c.317-.085.418-.738.225-1.457-.193-.719-.607-1.234-.924-1.149z"/>
  <path fill="#C6E5B3" d="M27.013 13.577c-.328.01-.576.622-.553 1.367.023.745.308 1.34.636 1.33.328-.01.576-.622.552-1.367s-.307-1.34-.635-1.33zm1.546.031c-.271-.056-.594.403-.723 1.025s-.014 1.172.257 1.228c.271.056.594-.403.723-1.025s.014-1.172-.257-1.228z"/>
</svg>
