<svg xmlns="http://www.w3.org/2000/svg" viewBox="0 0 36 36">
  <g fill="#3E721D">
    <path d="M18.733 23.524c-.259 0-.485-.189-.525-.452-1.074-7.082.905-17.425 5.465-20.944.231-.179.566-.137.747.096.18.233.137.567-.096.747-4.145 3.198-6.091 13.166-5.064 19.941.045.291-.155.562-.446.606-.028.004-.055.006-.081.006z"/>
    <path d="M18.745 15.719c.061.401 1.265.552 2.69.335 1.424-.216 2.53-.717 2.469-1.118-.061-.401-1.265-.552-2.69-.335-1.425.215-2.53.716-2.469 1.118zm.095 1.739c.061.401 1.358.537 2.897.304 1.539-.234 2.737-.748 2.676-1.15-.061-.401-1.358-.537-2.897-.304-1.539.234-2.737.748-2.676 1.15z"/>
    <ellipse transform="rotate(-8.632 21.821 18.732)" cx="21.824" cy="18.734" rx="3.083" ry=".735"/>
    <path d="M19.095 14.226c.103.393 1.236.435 2.531.095 1.294-.34 2.26-.935 2.157-1.327-.103-.393-1.236-.435-2.531-.095-1.294.341-2.26.935-2.157 1.327zm.178-1.765c.121.388 1.149.411 2.298.053 1.148-.358 1.98-.963 1.859-1.35-.121-.388-1.149-.411-2.298-.053-1.148.358-1.98.963-1.859 1.35zm.105-1.584c.127.325 1.068.263 2.102-.14 1.034-.403 1.77-.993 1.643-1.318-.127-.325-1.068-.263-2.102.14-1.034.402-1.769.992-1.643 1.318zm.802-1.738c.113.291.898.258 1.752-.075.854-.332 1.455-.838 1.342-1.129-.113-.291-.898-.258-1.752.075-.855.333-1.456.838-1.342 1.129zm.652-1.918c.05.308.718.456 1.493.331.774-.126 1.361-.478 1.311-.786-.05-.308-.718-.456-1.493-.331-.774.125-1.361.477-1.311.786zm.786-1.276c.052.322.787.47 1.641.331.854-.139 1.504-.512 1.452-.834-.052-.322-.787-.47-1.641-.331-.854.139-1.504.512-1.452.834zm1.152-1.441c.047.287.714.417 1.491.291.777-.126 1.369-.461 1.322-.748-.047-.287-.714-.417-1.491-.291-.776.127-1.368.462-1.322.748zm.949-1.358c.041.251.603.369 1.256.263.653-.106 1.149-.396 1.108-.647-.041-.251-.603-.369-1.256-.263s-1.149.396-1.108.647z"/>
    <path d="M24.431 2.351c.129.219.696.124 1.266-.212.57-.336.927-.786.798-1.005-.129-.219-.696-.124-1.266.212-.57.335-.927.786-.798 1.005z"/>
    <path d="M24.066 2.291c.244.073.596-.381.786-1.014.19-.634.147-1.206-.096-1.28-.244-.073-.596.381-.786 1.014-.19.634-.147 1.207.096 1.28zm-10.796 13.2c0 .406 1.168.735 2.609.735s2.609-.329 2.609-.735c0-.406-1.168-.735-2.609-.735s-2.609.329-2.609.735zm-.336 1.458c-.039.404 1.092.844 2.526.981 1.434.138 2.628-.078 2.667-.482.039-.404-1.092-.844-2.526-.981-1.434-.138-2.628.078-2.667.482zm-.537 1.653c-.039.404 1.22.856 2.811 1.009 1.591.153 2.913-.051 2.952-.455.039-.404-1.22-.856-2.811-1.009-1.592-.153-2.913.051-2.952.455zm1.64-4.934c-.034.405.968.818 2.237.924 1.269.106 2.325-.137 2.359-.541.034-.405-.968-.818-2.237-.924s-2.325.136-2.359.541zm.778-1.404c-.018.406.907.776 2.065.828 1.159.051 2.113-.236 2.131-.641.018-.406-.907-.776-2.065-.828-1.159-.052-2.113.235-2.131.641z"/>
    <path d="M15.825 10.677c-.068.352.654.788 1.612.973.958.185 1.79.049 1.858-.303.068-.352-.654-.788-1.612-.973-.958-.185-1.79-.049-1.858.303zm.464-1.802c-.135.333.489.9 1.393 1.267.904.367 1.747.395 1.882.063.135-.333-.488-.9-1.393-1.267-.905-.367-1.747-.395-1.882-.063zm.381-2.029c-.189.275.338.966 1.178 1.543.84.577 1.673.821 1.863.546.189-.275-.338-.966-1.178-1.543s-1.674-.821-1.863-.546zm1.131-.878c-.189.275.251.906.983 1.409s1.479.687 1.668.412c.189-.275-.251-.906-.983-1.409s-1.479-.687-1.668-.412zm.7-1.543c-.233.239.094.936.731 1.555.637.619 1.341.927 1.574.688.233-.239-.094-.936-.731-1.555-.636-.619-1.341-.927-1.574-.688zm.914-1.103c-.233.239.054.896.64 1.466s1.25.839 1.483.599c.233-.239-.054-.896-.64-1.466s-1.25-.838-1.483-.599zm.94-.972c-.229.235.018.848.553 1.367s1.153.75 1.382.515c.229-.235-.018-.848-.553-1.367s-1.153-.751-1.382-.515z"/>
    <ellipse transform="rotate(-32.542 22.187 2.44)" cx="22.186" cy="2.439" rx=".595" ry="1.349"/>
    <path d="M22.804.537c-.261.09-.305.65-.097 1.251.208.6.588 1.014.849.923s.305-.65.097-1.251c-.208-.6-.588-1.013-.849-.923z"/>
  </g>
  <path fill="#3E721D" d="M16.885 23.63c-.278-.041-.478-.293-.453-.576.753-8.173-2.365-13.97-8.781-16.321-.276-.1-.417-.406-.316-.682.1-.276.404-.421.683-.317 6.912 2.532 10.277 8.718 9.475 17.418-.027.292-.286.508-.578.481-.011 0-.02-.001-.03-.003z"/>
  <path fill="#3E721D" d="M16.664 16.81c-.008.406-1.181.713-2.622.686s-2.602-.378-2.595-.784c.008-.406 1.182-.713 2.622-.687 1.441.028 2.602.379 2.595.785zm-.002 1.758c-.008.406-1.181.713-2.622.687s-2.912-.478-2.904-.884c.007-.406 1.491-.613 2.932-.586 1.44.026 2.601.377 2.594.783z"/>
</svg>
