<svg xmlns="http://www.w3.org/2000/svg" viewBox="0 0 36 36">
  <path fill="#3E721D" d="M16.499 15.517c-.054.402-1.173.584-2.5.405-1.326-.179-2.358-.65-2.304-1.052.054-.402 1.174-.584 2.5-.405 1.327.179 2.358.65 2.304 1.052zm-.744-1.769c-.054.402-1.064.599-2.256.438-1.192-.16-2.114-.617-2.06-1.019s1.064-.599 2.256-.438c1.192.161 2.114.617 2.06 1.019z"/>
  <path fill="#3E721D" d="M15.314 12.1c.004.349-.893.642-2.002.654-1.11.012-2.012-.261-2.016-.61-.004-.349.893-.642 2.002-.654 1.109-.012 2.012.261 2.016.61zm-1.392-1.313c.003.312-.737.574-1.653.584-.917.01-1.662-.235-1.666-.547-.003-.312.737-.574 1.653-.584.917-.011 1.663.234 1.666.547zM12.601 9.25c.068.305-.496.691-1.262.863-.765.172-1.441.064-1.51-.24-.068-.305.496-.691 1.262-.863.766-.172 1.442-.065 1.51.24zm-1.204-.891c.071.318-.555.73-1.399.919-.844.19-1.587.086-1.658-.232s.555-.73 1.399-.919c.844-.19 1.586-.086 1.658.232zM9.79 7.452c.064.283-.507.653-1.275.826-.767.172-1.441.082-1.505-.201-.064-.284.507-.653 1.275-.826.768-.172 1.442-.082 1.505.201zm-1.387-.907c.056.248-.422.567-1.068.712-.645.145-1.214.062-1.269-.187-.056-.248.422-.567 1.067-.712.646-.145 1.214-.061 1.27.187z"/>
  <path fill="#3E721D" d="M7.446 6.073c-.038.251-.6.375-1.254.275s-1.153-.384-1.114-.636c.038-.251.6-.375 1.254-.275.653.1 1.152.385 1.114.636z"/>
</svg>
