<svg xmlns="http://www.w3.org/2000/svg" viewBox="0 0 36 36">
  <path fill="#5C913B" d="M7.762 5.882c-.198.159-.694-.131-1.107-.648-.413-.517-.587-1.065-.388-1.223.199-.159.695.131 1.108.648.412.517.586 1.064.387 1.223zm14.18 9.727c.065.401-1.036.912-2.458 1.141-1.422.229-2.628.09-2.692-.311-.065-.401 1.036-.912 2.458-1.141 1.422-.229 2.628-.09 2.692.311zm.884 1.279c.065.401-1.478 1.199-2.901 1.429-1.422.229-2.628.09-2.693-.311-.065-.401 1.036-.912 2.458-1.141 1.424-.229 3.071-.378 3.136.023zm.553 1.679c.065.401-1.877 1.301-3.299 1.53-1.422.229-2.628.09-2.692-.311-.065-.401 1.036-.912 2.458-1.141 1.422-.229 3.468-.479 3.533-.078zm-2.585-4.869c.124.387-.758 1.016-1.97 1.405-1.212.39-2.296.392-2.42.005-.124-.387.758-1.016 1.97-1.405s2.296-.391 2.42-.005zm-.799-1.416c.124.387-.67.988-1.774 1.342s-2.1.329-2.224-.057c-.124-.387.67-.988 1.774-1.342 1.104-.355 2.099-.33 2.224.057zm-1.459-1.692c.194.302-.313.975-1.133 1.504-.82.529-1.643.713-1.837.411-.194-.302.313-.975 1.133-1.504.82-.528 1.642-.712 1.837-.411zm-1.102-1.499c.249.258-.118 1.017-.82 1.695-.702.678-1.473 1.018-1.723.76-.249-.258.118-1.017.82-1.695.702-.678 1.474-1.018 1.723-.76zm-1.11-1.741c.278.185.047 1.022-.517 1.871-.564.848-1.247 1.386-1.525 1.201-.278-.185-.047-1.022.517-1.871.564-.848 1.247-1.386 1.525-1.201zm-1.377-.393c.278.185.105.934-.387 1.674-.492.74-1.116 1.189-1.394 1.004-.278-.185-.105-.934.387-1.674.491-.739 1.115-1.189 1.394-1.004zm-1.225-1.17c.305.135.261.903-.099 1.715s-.899 1.36-1.204 1.225c-.305-.135-.261-.903.099-1.715.359-.812.899-1.361 1.204-1.225zm-1.259-.683c.305.135.284.851-.047 1.599s-.848 1.245-1.153 1.109-.284-.851.047-1.599.847-1.244 1.153-1.109zm-1.235-.552c.3.133.299.793-.003 1.475-.302.681-.79 1.126-1.09.993-.3-.133-.299-.793.003-1.475.302-.681.79-1.126 1.09-.993z"/>
  <path fill="#5C913B" d="M9.812 3.992c.323.061.473.704.335 1.436-.138.732-.511 1.277-.834 1.216-.323-.061-.473-.704-.335-1.436.138-.733.511-1.277.834-1.216zM8.28 3.784c.276-.014.525.49.556 1.124.031.635-.167 1.16-.443 1.173-.276.014-.525-.49-.556-1.124-.032-.634.167-1.16.443-1.173zm10.596 21.305c-.023 0-.047-.001-.071-.005-.292-.039-.496-.307-.457-.598C19.829 13.45 26.63 8.516 30.569 7.998c.287-.038.559.166.597.458.039.292-.166.559-.458.597-3.627.477-9.903 5.127-11.305 15.574-.036.268-.264.462-.527.462z"/>
  <path fill="#5C913B" d="M20.889 18.194c-.032.405 1.106.825 2.542.939 1.436.114 2.626-.122 2.659-.527.032-.405-1.106-.825-2.542-.939-1.437-.113-2.627.122-2.659.527z"/>
  <ellipse transform="rotate(-2.063 23.613 16.845)" fill="#5C913B" cx="23.601" cy="16.836" rx="2.423" ry=".735"/>
  <path fill="#5C913B" d="M22.093 15.236c.015.406 1.001.7 2.202.656 1.202-.043 2.164-.407 2.149-.813-.015-.406-1.001-.7-2.202-.656-1.202.043-2.164.407-2.149.813z"/>
  <path fill="#5C913B" d="M22.693 13.638c-.038.347.826.726 1.929.847 1.103.121 2.028-.063 2.066-.41.038-.347-.826-.726-1.929-.847-1.103-.12-2.029.063-2.066.41zm1.512-1.171c-.034.311.677.643 1.588.742.911.099 1.677-.072 1.711-.382.034-.311-.677-.643-1.588-.742s-1.677.072-1.711.382zm1.465-1.4c-.098.297.427.736 1.172.982s1.428.205 1.526-.092c.098-.297-.427-.736-1.172-.982s-1.428-.205-1.526.092zm1.286-.769c-.102.31.481.78 1.303 1.052.822.271 1.571.24 1.673-.069.102-.31-.481-.78-1.303-1.052s-1.571-.241-1.673.069zm1.687-.746c-.091.276.441.699 1.188.946.747.247 1.427.223 1.518-.053.091-.276-.441-.7-1.188-.946-.747-.247-1.427-.223-1.518.053zm1.469-.767c-.08.242.365.605.993.813.628.207 1.202.18 1.282-.062.08-.242-.365-.605-.993-.813-.628-.208-1.202-.18-1.282.062z"/>
  <path fill="#5C913B" d="M31.111 8.408c.014.254.56.431 1.221.396.661-.035 1.185-.27 1.172-.524-.014-.254-.56-.431-1.221-.396-.661.036-1.186.27-1.172.524z"/>
</svg>
