<svg xmlns="http://www.w3.org/2000/svg" viewBox="0 0 36 36">
  <path fill="#77B255" d="M30.815 8.187c.182.177.704-.063 1.166-.537.461-.474.688-1.002.506-1.18-.182-.177-.704.063-1.166.537-.462.475-.688 1.003-.506 1.18zm-15.062 8.296c-.103.393.942 1.008 2.335 1.375s2.607.346 2.71-.046c.104-.393-.942-1.008-2.335-1.375s-2.607-.347-2.71.046zm1.329-1.789c-.161.373.655 1.085 1.824 1.591s2.247.614 2.408.242c.161-.373-.655-1.085-1.824-1.591-1.168-.507-2.246-.615-2.408-.242zm.934-1.332c-.161.373.571 1.048 1.635 1.509 1.064.461 2.058.533 2.219.16.161-.373-.571-1.048-1.635-1.509-1.064-.461-2.058-.532-2.219-.16zm1.617-1.541c-.223.281.216 1.001.981 1.607.765.606 1.565.87 1.788.589.223-.281-.216-1.001-.981-1.607-.764-.606-1.565-.87-1.788-.589zm1.243-1.384c-.273.233.018 1.024.65 1.767.633.743 1.367 1.157 1.64.924.273-.233-.018-1.024-.65-1.767-.632-.743-1.367-1.157-1.64-.924zm1.275-1.625c-.295.157-.146 1.013.332 1.912s1.105 1.501 1.4 1.344c.295-.157.146-1.013-.332-1.912s-1.105-1.501-1.4-1.344zm1.409-.256c-.295.157-.196.92.221 1.704.417.784.994 1.293 1.289 1.136.295-.157.196-.92-.221-1.704-.417-.785-.994-1.293-1.289-1.136zm1.333-1.046c-.317.105-.348.873-.069 1.717.279.843.762 1.442 1.079 1.337.317-.105.348-.873.069-1.717-.279-.843-.762-1.441-1.079-1.337zm1.32-.556c-.317.105-.366.819-.109 1.596.257.777.722 1.321 1.039 1.216.317-.105.366-.819.109-1.596-.257-.776-.722-1.32-1.039-1.216zm1.282-.429c-.312.103-.375.76-.141 1.468s.676 1.198.988 1.095c.312-.103.375-.76.141-1.468-.233-.708-.676-1.198-.988-1.095z"/>
  <path fill="#77B255" d="M28.96 6.106c-.327.029-.539.654-.474 1.397.066.742.384 1.321.711 1.292.327-.029.539-.654.474-1.397s-.384-1.321-.711-1.292zm1.545-.058c-.274-.04-.57.436-.663 1.065-.093.628.053 1.171.327 1.211.274.04.571-.436.663-1.065.092-.628-.054-1.17-.327-1.211z"/>
</svg>
