<svg xmlns="http://www.w3.org/2000/svg" viewBox="0 0 36 36">
  <path fill="#F4ABBA" d="M30.877 21.749c-.175.369-.534.739-.736.93 1.969.427 3.359.946 3.359.946s-.483-.662-.694-1.875c-.074-.422-.391-.826-.458-1.375-.079-.651-.164-1.393-.208-2.208-.052-.951-.121-1.809-.083-2.958.289-8.89-6.256-11.23-10.36-11.23S10.459 6.036 10.748 14.926c.037 1.149.019 2.206-.032 3.157-.044.815-.113 1.553-.193 2.205-.067.549-.141 1.037-.215 1.459-.212 1.213-.417 1.879-.417 1.879s6.906-2.592 11.805-.958c2.234-.745 4.881-.609 7.105-.242.347-.098 1.437-.408 2.076-.677z"/>
</svg>
