<svg xmlns="http://www.w3.org/2000/svg" viewBox="0 0 36 36">
  <path fill="#DD2E44" d="M20.719 19.459l-6.233.002c-.029.104-2.745 9.524-12.025 16.539h5.825c2.453-1.656 5.72-2.678 9.316-2.678 3.596 0 6.864 1.022 9.317 2.678h5.827c-9.245-6.998-11.998-16.437-12.027-16.541zm-3.116 10.863c-2.151 0-4.202.329-6.093.906 1.28-1.659 2.303-3.265 3.119-4.717h5.947c.816 1.453 1.839 3.058 3.119 4.717-1.891-.578-3.941-.906-6.092-.906z"/>
  <path fill="#DD2E44" d="M14.539 16.038c-.225 1.239-.487 2.437-.785 3.5h7.755c-.299-1.063-.56-2.261-.785-3.5h-6.185z"/>
</svg>
