<svg xmlns="http://www.w3.org/2000/svg" viewBox="0 0 36 36" xml:space="preserve">
  <path fill="#F4ABBA" d="M18 21.182c-5.17-5.25-3.322-6.513-14.294-10.218a.5.5 0 0 0-.62.276c-1.804 4.216-1.369 7.359 4.201 8.894-2.141-.014-4.393.249-6.813.492a.5.5 0 0 0-.447.55c.325 3.099 3.617 7.551 11.214 5.121A2.68 2.68 0 0 0 11 27.392c0 2.683 5.164 4.224 6.62 4.605a1.528 1.528 0 0 0 .76 0c1.456-.381 6.62-1.922 6.62-4.605 0-.387-.089-.751-.241-1.094 7.596 2.43 10.888-2.022 11.214-5.121a.5.5 0 0 0-.447-.55c-2.42-.243-4.671-.507-6.813-.492 5.57-1.535 6.004-4.678 4.201-8.894a.5.5 0 0 0-.62-.277C21.322 14.668 23.17 15.932 18 21.182z"/>
</svg>
