<svg xmlns="http://www.w3.org/2000/svg" viewBox="0 0 36 36">
  <path fill="#FFDC5D" d="M8.556 34.087c.131.787-2.091 1.454-2.376 1.326-.305-.137.988-.808.967-1.226-.106-2.12-.904-1.961-.818-4.18-.802-2.376-.355-4.621-.094-5.42.457-1.401 3.126.756 3.003 1.651-.204 1.488-.792 2.577-.815 3.757.42 1.883-.175 2.244.133 4.092zm7.188-.872c.353.715.726 1.971.416 1.931-.331-.043-1.396-.505-1.736-1.427-.734-1.991-1.747-1.45-2.307-3.6-1.047-1.579-2.402-3.882-2.621-4.478-.509-1.384 3.391-1.737 3.619-.863.5 1.914.509 3.359.829 4.496.949 1.68.971 2.261 1.8 3.941z"/>
  <path fill="#FFDC5D" d="M5.869 26.06c-.158.153-.56.236-.661.211-.235-.06-.764-.427-1.061-.786-.541-.652-2.661-1.333-3.223-2.72-.095-.234-.089-.52.081-.864.104-.21 1.53-2.556 2.831-3.804.427-.41.95-.872 1.569-.929.534-.049 1.055 1.182.826 1.653-.746 1.53-3.005 2.607-3.646 3.488 1.01.804.909 1.315 2.287 2.123.152-.095.45-.177.531-.159.081.018.27.143.241.387.025.018.234.186.283.274.135.239.146.928-.058 1.126zm7.584.126c.173.136.582.178.679.142.227-.083.716-.503.975-.89.472-.704 2.51-1.598 2.928-3.035.071-.243.036-.527-.169-.851-.125-.198-1.643-2.276-2.982-3.484-.356-.321-1.156-1.137-1.565-.788-.408.348-1.364 1.316-1.087 1.761.899 1.446 3.376 2.267 4.104 3.078-.922.903-.77 1.401-2.058 2.346-.161-.078-.466-.13-.545-.104-.079.027-.254.17-.2.409-.023.021-.214.209-.254.301-.109.253-.05.94.174 1.115z"/>
</svg>
