<svg xmlns="http://www.w3.org/2000/svg" viewBox="0 0 36 36">
  <path fill="#292F33" d="M14.129 17.359c-.716-.399-1.311-.707-2.415-.707H9.379v.002-.002H7.044c-.678 0-1.529.295-2.354.707.188.617.428 2.106.69 2.996.251.853 1.044 2.154.797 3.158-.134.545-.49 3.675-.326 4.7.906.074 2.079.178 2.955.342.234-.733.443-1.515.429-1.48.238.009.587-.017.803-.065.228.403.951 1.471.951 1.471s1.634-.282 2.792-.564c-.084-1.174-.662-3.612-.917-4.416-.288-.908.354-2.566.515-3.144.148-.535.75-2.998.75-2.998z"/>
</svg>
