<svg xmlns="http://www.w3.org/2000/svg" viewBox="0 0 36 36">
  <path fill="#FFF" d="M9 6.917l.306 5.156 1.022-2.158-.442 2.347 1.639-1.737-1.146 2.096 2.096-1.146-1.737 1.639 2.347-.442-2.158 1.023 5.156.305-5.156.306 2.158 1.022-2.347-.442 1.737 1.639-2.096-1.146 1.146 2.096-1.639-1.736.442 2.346-1.022-2.158L9 21.082l-.306-5.155-1.022 2.158.442-2.346-1.639 1.736 1.146-2.096-2.096 1.146 1.737-1.639-2.347.442 2.158-1.022L1.917 14l5.156-.305-2.158-1.023 2.347.442-1.737-1.639 2.096 1.146-1.146-2.096 1.639 1.737-.442-2.347 1.022 2.158z"/>
</svg>
