<svg xmlns="http://www.w3.org/2000/svg" viewBox="0 0 36 36">
  <path fill="#AF7E57" d="M15.015 10.618c-.085.612.05 1.546 1.466 1.787 1.416.241 2.812.059 3.411-.108.599-.167.569.884.747 1.872.179.992.301 1.768.252 1.973-.082.347-.809 1.011-.517 1.612s.757 1.179 1.332.962c.575-.217 1.05-.475 1.203-.797s-.525-1.295-.552-1.574c-.027-.278.227-3.888.194-4.298-.04-.501-.078-1.187-.896-1.47-.818-.284-4.094-.92-4.915-1.079-.942-.185-1.612.309-1.725 1.12z"/>
  <path fill="#AF7E57" d="M16.217 6.241c.285-.396.498-.858.589-1.424.326-2.021-.9-3.9-2.738-4.196-1.838-.296-4.287 1.14-4.162 3.184.125 2.029 1.356 4.986 3.04 4.423.444-.149.889-.311 1.31-.502.19.209.349 1.031.298 1.742-.131 1.81 2.363 1.913 2.492.1.104-1.435-.819-2.312-.829-3.327z"/>
</svg>
