<svg xmlns="http://www.w3.org/2000/svg" viewBox="0 0 36 36">
  <path fill="#1C6399" d="M14.355 34.104c.07-.163.038-.485.003-.683-.024-.136-.109-.486-.206-.772-.043-.129-.101-.274-.136-.33-.108-.176-.212-.237-.28-.267-.082-.036-.155-.022-.188.001-.134.091-.322.405-.535.578-.071.058-.144.1-.22.113-.273.048-.755-.184-1.112-.359-.214-.105-.385-.189-.438-.18-.059.01-.102.039-.143.078l-.002.001h.001c-.108.104-.199.293-.516.492-.206.128-1.14.724-1.14.724-.24.147-.275.265-.403.346-.262.167-.987.534-1.209.678-.222.144-.275.357-.255.505.02.148.076.22.076.22s.242.291 1.549.166c.945-.09 1.045-.269 2.365-.763 1.32-.493 2.789-.548 2.789-.548z"/>
</svg>
