<svg xmlns="http://www.w3.org/2000/svg" viewBox="0 0 36 36">
  <path fill="#C36446" d="M3.172 11.19s.272-.908 1.371-2.491 3.963-3.973 4.483-4.238c.519-.265.97-.399 1.408.128.332.399 2.391 4.183 4.359 5.661 2.335 1.753 4.887 1.519 6.424 1.122.868-.224 1.414-.501 1.414-.501s3.671 8.299 4.325 9.961c.216.55.413 1.09.617 1.548.701 1.574 1.84 2.885 3.146 4.06 1.307 1.175 2.509 1.92 2.835 2.191s3.575 2.243 1.692 5.181c0 0-7.25-1.047-14.39-5.907-5.536-3.769-5.829-6.843-12.438-11.968-4.41-3.418-5.246-4.747-5.246-4.747z"/>
</svg>
