<svg xmlns="http://www.w3.org/2000/svg" viewBox="0 0 36 36">
  <path fill="#803F29" d="M15.382 24.732c1.026 1.185 2.774 3.28 5.375 4.936 7.16 4.56 14.727 4.625 14.727 4.625l.128-.417c.053-.187-.061-.286-.205-.318-.686-.154-3.053-.693-4.286-1.162-2.577-.981-5.357-1.632-9.137-4.256s-5.593-5.031-7.273-6.852c-1.68-1.821-5.204-5.31-7.747-7.074-1.963-1.362-3.13-2.634-3.56-3.143-.1-.118-.215-.062-.303.065l-.872 1.259c0 .001 9.959 8.647 13.153 12.337z"/>
  <path fill="#803F29" d="M22.003 24.025l-.305-.427c-4.889-6.835-9.47-5.766-10.342-5.482-.146.048-.678.211-.678.211l-.43-1.404c.001 0 .509-.156.65-.202 1.021-.333 6.28-1.594 11.649 5.554.551-.258 1.542-.81 2.706-1.858-.302-.84-.991-2.708-1.711-4.286-.965-2.117-2.328-4.76-2.328-4.76.595-.156 1.414-.501 1.414-.501s1.273 2.507 2.25 4.652c.986 2.163 1.884 4.756 1.922 4.865l.152.444-.339.325c-2.226 2.135-4.033 2.694-4.109 2.717l-.501.152z"/>
</svg>
