<svg xmlns="http://www.w3.org/2000/svg" viewBox="0 0 36 36">
  <path fill="#292F33" d="M9.221 22.139c.49-.062 1.438-.699 1.783-.639.345.061 2.654 2.527 3.711 3.707s2.882 3.207 5.445 4.985c2.563 1.779 6.403 3.327 8.809 4.237s4.949 1.417 5.469 1.442c.521.025.49-.148.585-.334.095-.186.46-1.245.46-1.245s-2.248-.299-4.851-1.298c-2.603-.999-5.418-1.675-9.244-4.33s-5.666-5.081-7.369-6.919c-1.703-1.837-5.275-5.359-7.848-7.145-1.985-1.377-3.018-2.55-3.478-3.043-.165-.176-.38-.062-.51.12L.434 13.984c-.153.221-.321.849.178 1.374.499.527 8.119 6.843 8.609 6.781zm11.598-7.493c-.326 0-.638-.186-.782-.501-.198-.431-.009-.942.422-1.14l2.385-1.096c.433-.198.943-.009 1.141.422.198.431.009.942-.422 1.14l-2.385 1.096c-.117.054-.239.079-.359.079zm1.474 2.902c-.322 0-.631-.182-.778-.492-.203-.429-.02-.942.409-1.145l2.371-1.122c.432-.203.942-.02 1.146.409.203.429.02.942-.409 1.145l-2.371 1.122c-.12.056-.245.083-.368.083zm1.397 3.039c-.317 0-.621-.176-.771-.479-.211-.426-.036-.941.389-1.152l2.225-1.101c.427-.212.94-.036 1.152.389.211.426.036.941-.389 1.152l-2.225 1.101c-.123.062-.253.09-.381.09z"/>
</svg>
