<svg xmlns="http://www.w3.org/2000/svg" viewBox="0 0 36 36">
  <path fill="#CCD6DD" d="M34.147 27.12s-.002.164-.079.276c-.077.113-.129.39-.149.596-.019.206-.105.981-.083 1.524.022.544.194 1.527.203 1.855s.003.839-.065 1.217c-.069.378-.142.715-.199.922-.073.267-.171.486-.285.639 0 0 .43-.03.757-.667.258-.503.402-.986.454-1.457.004-.036.112-1.291.163-1.918.037-.459.1-1.191.1-1.191.081-.868.1-1.309.061-1.475-.007-.029-.013-.152-.106-.279-.059-.083-.761-.153-.772-.042zm-2.472 3.287c-.074 0-.146-.042-.181-.113-.048-.099-.006-.219.094-.267l.316-.152c.102-.047.219-.006.268.094.048.099.006.219-.094.267l-.316.152c-.028.013-.057.019-.087.019zm.269.656c-.085 0-.164-.055-.191-.141-.032-.106.026-.218.132-.25l.354-.11c.109-.034.218.026.251.132.032.106-.026.218-.132.25l-.354.11c-.021.007-.04.009-.06.009zm.23.679c-.095 0-.179-.067-.196-.164-.021-.109.052-.213.16-.233l.334-.061c.117-.019.213.052.232.161.021.109-.052.213-.16.233l-.334.061-.036.003z"/>
</svg>
