<svg xmlns="http://www.w3.org/2000/svg" viewBox="0 0 36 36">
  <path fill="#8899A6" d="M13.726 29.713c.278.253 1.134.43 1.677.6-.162-.236-.574-.917-.735-1.257-.051-.108-.187-.15-.298-.094l-.677.426c-.131.064-.073.229.033.325zm-6.869 5.581c1.108.427 2.151.629 3.153.652.076.002 2.741 0 4.072-.007.974-.005 1.809-.01 2.091-.008l.174.001.263.002c1.844.011 3.116.105 3.668-.382.081-.072.112-.18.116-.3.006-.166-.008-.341-.008-.341-.035.125-5.57.481-7.417.58-6.101.326-7.589-1.435-7.656-1.586 0-.001.142.848 1.544 1.389z"/>
</svg>
