<svg xmlns="http://www.w3.org/2000/svg" viewBox="0 0 36 36">
  <path fill="#CCD6DD" d="M12.974 30.691l-.379-.604c-.089-.143-.039-.327.112-.412.151-.085.347-.037.436.105l.379.604c.089.143.039.327-.112.412-.116.065-.258.053-.358-.021-.03-.023-.057-.051-.078-.084zm-1.139.529l-.296-.687c-.066-.154.012-.329.175-.392.163-.063.349.011.415.165l.296.687c.066.154-.012.329-.175.392-.109.042-.229.023-.316-.041-.043-.031-.077-.073-.099-.124zm-1.2.343l-.19-.652c-.046-.16.053-.325.223-.369.17-.044.345.05.391.21l.19.653c.046.16-.053.325-.223.369-.101.026-.204.004-.28-.053-.052-.039-.092-.093-.111-.158zm-1.187.284l-.125-.522c-.038-.162.069-.323.241-.359.172-.036.342.066.381.227l.125.522c.038.162-.069.323-.241.359-.097.021-.193-.003-.266-.056-.056-.041-.097-.1-.115-.171zM20.4 35.008c-.001.119-.139.316-.802.511-.466.138-2.68.115-3.423.111-.743-.005-5.333.033-6.156.015-.822-.018-1.731-.145-2.955-.545-1.28-.419-1.692-1.054-1.752-1.196.344.2.822.357 1.399.456.447.077 1.171.165 1.979.236.809.071 1.886-.005 2.576-.08.691-.075 2.731-.586 3.873-.724 1.142-.138 2.79-.101 3.228-.099.438.003 1.031.059 1.282.192.251.133.596.109.596.109.253.003.158.724.155 1.014z"/>
</svg>
