<svg xmlns="http://www.w3.org/2000/svg" viewBox="0 0 36 36">
  <path fill="#FFCC4D" d="M9.534 17.233C6.644 17.233 4.3 14.89 4.3 12c0-2.89 2.343-5.233 5.233-5.233.715 0 1.397.146 2.018.405C10.556 6.438 9.331 6 8 6c-3.313 0-6 2.687-6 6 0 3.314 2.687 6 6 6 1.331 0 2.556-.438 3.551-1.172-.621.26-1.302.405-2.017.405z"/>
  <path fill="#FFCC4D" d="M12.922 8.829l.334 1.62 1.003-1.315-.402 1.604 1.475-.749-1.059 1.271 1.654-.035-1.505.686 1.505.686-1.654-.035 1.059 1.271-1.475-.749.402 1.605-1.003-1.316-.334 1.621-.334-1.621-1.003 1.316.402-1.605-1.475.749 1.058-1.271-1.653.035 1.505-.686-1.505-.686 1.653.035-1.058-1.271 1.475.749-.402-1.604 1.003 1.315z"/>
</svg>
