<svg xmlns="http://www.w3.org/2000/svg" viewBox="0 0 36 36">
  <path fill="#F3D2A2" d="M26.007 1.015c-1.214-.871-3.488-.718-4.13.795-.638 1.502-.813 4.067.598 4.266 1.479.209 3.036.269 3.994-1.066.959-1.335.752-3.124-.462-3.995z"/>
  <path fill="#F3D2A2" d="M25.99 5.295c2.544-1.808-2.238-2.778-2.238-2.778-.902-.194-.664 1.452-1.29 2.159-.431.49.708 1.096.708 1.096s.56.133.419.817l-.002.006c-.037.174-.107.374-.256.627-.743 1.253.866 2.543 1.609 1.287.294-.497.352-.985.382-1.441l.003-.041c.043-.679.036-1.285.665-1.732z"/>
</svg>
