<svg xmlns="http://www.w3.org/2000/svg" viewBox="0 0 36 36">
  <path fill="#F3D2A2" d="M14.919 1.309c-1.46-.632-3.707.061-4.116 1.762-.572 2.374.726 4.444 2.239 4.331 1.586-.118 2.568-.436 3.263-2.042.695-1.605.074-3.419-1.386-4.051z"/>
  <path fill="#F3D2A2" d="M15.871 5.765c2.237-2.457-2.957-2.383-2.957-2.383-.983.003-.362 1.661-.853 2.538-.337.607.985.979.985.979s.612.011.62.755v.007c.001.189-.026.413-.124.71-.489 1.472 1.477 2.449 1.965.975.193-.584.143-1.104.071-1.586l-.007-.043c-.109-.715-.253-1.344.3-1.952z"/>
</svg>
