<svg xmlns="http://www.w3.org/2000/svg" viewBox="0 0 36 36">
  <path fill="#F3D2A2" d="M16.261 28.432c-.378-.1-.971-.58-1.154-.912-.661-1.197.171-3.476.19-4.777.005-.37-2.213-1.974-2.86-1.016s.991 4.719.812 6.193c-.04.326-.227.814-.126 1.015.101.201.817.74 1.301.839 1.237.255 2.491-.342 2.644-.517.222-.254-.428-.725-.807-.825zm7.51-3.222c-.334-.065-.85-.469-1.016-.753-.29-.498.157-3.642.127-4.946-.35-.234-2.393.926-2.393.926-.437 1.815.817 2.863.659 4.262-.032.284-.17.964-.071 1.132.099.169.752.594 1.178.652 1.088.148 2.141-.443 2.264-.604.178-.234-.414-.604-.748-.669zm3.984-12.977c-.589-.235-1.348-.276-2.104-.386-1.198-.175-2.852-.765-3.529-1.086-.825-.495-2.577-1.661-3.012-1.948S18.093 8.128 17.375 8h-.156c.385.542.609 1.159.748 2.841 0 0 3.319 1.661 3.595 1.753 1.125.375 3.182.366 4.344.512.602.076 1.021-.014 1.499-.047.722-.049 1.38-.055 1.422-.371.05-.367-.595-.265-1.072-.455zM10.999 8.402c-1.666.993-3.368 3.049-3.98 3.914-.36.283-.686.614-.897.736-.389.223-2.154 1.432-3.334 2.005-.354.166-1.458.438-1.992.781-.432.278-.845.262-.727.612.102.302.508.216 1.227.132.719-.084 1.929-.289 2.325-.566.8-.531 3.347-1.156 4.597-2.031.221-.155 2.385-2.163 2.781-2.741.543-1.515.282-2.556 0-2.842z"/>
</svg>
