<svg xmlns="http://www.w3.org/2000/svg" viewBox="0 0 36 36">
  <path fill="#FFDC5D" d="M17.896 26.76c.271.091.487-.159.586-.302.279-.405.422-1.309.004-2.227-.423-.927-.702-2.072-1.69-3.821-.115-.204-.494-2.746-1.242-4.354-.202-.435-1.495-.684-2.009-.529-.513.154.005.98.037 1.134.344 1.651 1.305 4.077 1.45 4.404.8 1.806 1.965 2.389 2.071 3.706.055.69.205 1.286.6 1.228.092.352.093.728.193.761zM3.3 26.964c-.257.126-.504-.094-.62-.222-.33-.365-.591-1.242-.296-2.208.297-.975.424-2.146 1.174-4.01.087-.217.129-2.787.66-4.479.143-.457 1.392-.875 1.922-.789.529.086.124.972.112 1.129-.124 1.682-.758 4.213-.859 4.556-.556 1.895-1.634 2.627-1.566 3.946.036.692-.034 1.302-.433 1.296-.048.363 0 .735-.094.781z"/>
</svg>
