<svg xmlns="http://www.w3.org/2000/svg" viewBox="0 0 36 36">
  <path fill="#FFAC33" d="M17.38 33.098c-.097-.18-.25-.302-.417-.391C15.366 31.001 16.5 29 16.5 29c0-.553 1-2 0-2l-1 1c-1 1-1 4-1 4h-2c-.553 0-1 .447-1 1s.447 1 1 1h1.108l-.222.12c-.486.263-.667.869-.404 1.355s.869.667 1.356.404l2.639-1.427c.485-.262.666-.868.403-1.354zM23.5 32h-2s0-3-1-4l-1-1c-1 0 0 1.447 0 2 0 0 1.135 2.001-.462 3.707-.168.089-.32.211-.418.391-.263.486-.082 1.093.404 1.355l2.639 1.427c.486.263 1.093.082 1.356-.404.263-.486.082-1.093-.404-1.355L22.393 34H23.5c.553 0 1-.447 1-1s-.447-1-1-1z"/>
</svg>
