<svg xmlns="http://www.w3.org/2000/svg" viewBox="0 0 36 36">
  <path fill="#FFCC4D" d="M34 24c-1-2-3-5-4-10h-.008c.001-.052.008-.102.008-.154 0-5.943-4.324-10.864-9.996-11.819 1.189-.26 2.031-.509.996-1.027-1.115-.558-2.23.129-2.999.846h-.002C17.23 1.129 16.116.442 15 1c-1.035.518-.193.767.996 1.026C10.325 2.981 6 7.902 6 13.846c0 .052.007.102.008.154H6c-1 5-3 8-4 10-.447.895 0 3 2 2 1.191-.596 2.377-1.912 3.357-3.715C8.902 26.94 12.066 31 18 31c5.934 0 9.098-4.06 10.643-8.715.98 1.803 2.166 3.119 3.357 3.715 2 1 2.447-1.105 2-2z"/>
</svg>
