<svg xmlns="http://www.w3.org/2000/svg" viewBox="0 0 36 36">
  <path fill="#CCD6DD" d="M29.049 7.033c-.07-.07-.141-.126-.211-.188-1.08-1.087-2.497-1.564-4.008-1.373l-3.812.483c-.382-3.003-2.25-4.446-4.351-4.181l-4.24.536C12.075.767 11.011.034 9.827.185L5.033.79C3.71.958 2.773 2.438 2.94 4.097l.606 6.007c.152 1.501 1.425 2.591 2.403 2.693l.514 5.093c.258 2.553 2.509 4.365 4.117 4.38l.498 4.926c.164 1.622.928 3.027 1.917 4.063.23.339.471.656.737.922 4.423 4.423 12.183 5.064 16.607.64 4.42-4.422 3.133-21.365-1.29-25.788z"/>
</svg>
