<svg xmlns="http://www.w3.org/2000/svg" viewBox="0 0 36 36">
  <path fill="#FFDC5D" d="M11.136 19.038c.259.967-.314 1.961-1.281 2.221l-.362.097c-.967.259-1.961-.314-2.22-1.281L4.069 8.121c-.258-.967.316-1.962 1.283-2.221l.361-.097c.967-.26 1.961.314 2.221 1.281l3.202 11.954zm4.554-2.32c.269 1-.325 2.028-1.325 2.296l-.242.065c-1 .268-2.028-.326-2.296-1.326L7.88 3.022c-.269-1 .325-2.028 1.325-2.296l.242-.065c1-.268 2.028.326 2.297 1.326l3.946 14.731zm4.994 1.204c-.18 1.02-1.152 1.701-2.172 1.521l-.246-.044c-1.02-.18-1.701-1.152-1.521-2.172L19.393 2.21c.18-1.02 1.152-1.701 2.172-1.521l.246.043c1.02.18 1.701 1.153 1.522 2.173l-2.649 15.017zm4.902.991c-.168.952-1.074 1.588-2.027 1.42l-.492-.087c-.952-.168-1.587-1.075-1.42-2.027L24.166 3.94c.168-.951 1.075-1.588 2.026-1.42l.493.087c.952.168 1.587 1.076 1.419 2.027l-2.518 14.279zm3.341 8.446c-.522.903-1.677 1.213-2.581.691l-.191-.111c-.904-.522-1.214-1.677-.691-2.58l5.609-9.718c.522-.903 1.678-1.214 2.582-.692l.191.111c.904.521 1.213 1.678.691 2.581l-5.61 9.718z"/>
  <path fill="#FFDC5D" d="M6.183 16.007C6.583 17.5 6 21.192 6 24s2.125 12 12 12 10.5-8.234 12-10.666c1.5-2.432-.833-6.375-2-4.375s-2.934 1.163-2.333-2.375-3.12-5.464-3.636-2.544c-.438 2.477-1.438 1.753-.854-.913.583-2.667-3.514-3.42-4.177.207-.487 2.667-1.452.892-1.851-.637s-4.484-1.664-3.951.709c.761 3.387-.005 4.067-1.114-.071-.704-2.625-3.901.672-3.901.672z"/>
</svg>
