<svg xmlns="http://www.w3.org/2000/svg" viewBox="0 0 36 36">
  <path fill="#EEE" d="M36 19.125v-1.979c-.402.228-.846.43-1.637.43-1.817 0-1.817-1.063-3.636-1.063-1.818 0-1.818 1-3.693 1-1.762 0-1.762-1-3.608-1-1.789 0-1.789 1-3.607 1-1.818 0-1.818-1-3.637-1-1.818 0-1.818 1-3.636 1s-1.818-1-3.636-1-1.818 1-3.636 1-1.818-1-3.637-1c-.791 0-1.234.19-1.636.404v2c.402-.213.846-.404 1.636-.404 1.818 0 1.818 1 3.637 1 1.818 0 1.818-1 3.636-1s1.818 1 3.636 1 1.818-1 3.636-1 1.818 1 3.637 1c1.818 0 1.818-1 3.629-1 1.825 0 1.825 1 3.64 1 1.822 0 1.822-1 3.639-1 1.82 0 1.82.987 3.638.987.789 0 1.233-.168 1.635-.375z"/>
</svg>
