<svg xmlns="http://www.w3.org/2000/svg" viewBox="0 0 36 36">
  <path fill="#FFAC33" d="M20.878 17.737c.277-.377.663-.375 1.124-.135-.064-.611-.793-.997-1.122-1.049.134-.45.565-.675 1.078-.608-.266-.553-1.146-.571-1.475-.504-.025-.471.306-.832.808-.948-.434-.427-1.267-.137-1.555.038-.18-.433.007-.887.442-1.171-.552-.251-1.239.311-1.449.576-.317-.344-.292-.836.021-1.253-.604-.045-1.059.725-1.167 1.046-.414-.212-.557-.681-.406-1.182-.58.169-.749 1.049-.741 1.388-.459-.055-.753-.447-.78-.971-.488.361-.351 1.246-.229 1.562-.451.109-.859-.159-1.06-.641-.337.509.09 1.293.311 1.547-.388.258-.86.15-1.212-.235-.146.596.52 1.185.814 1.347-.277.377-.444.654-.904.417.063.611.575.715.905.766l6.597.01z"/>
</svg>
