<svg xmlns="http://www.w3.org/2000/svg" viewBox="0 0 36 36">
  <path fill="#FCD116" d="M21.094 8.491c-1.349-.063-1.692.214-2.346.269-.598.05-.974.232-1.278.586-.273.317-.544.605-.694.705-.018.012-.029.025-.044.038-.222-.016-.445-.105-.572-.228-.211-.205-.494-.229-.701-.02-.039.04-.086.104-.215.104-.222 0-.576.004-.581.376.117-.147.199-.171.577-.171.058 0 .129.028.187.127.086.146.276.261.468.265.19.004.271.133.397.269.367.396 1.185.657 1.949.364.395-.151.765-.666 1.435-.649.639.016.973-.19.421-.333-.554-.142-.976-.087-1.349-.015-.132.025-.265.006-.404-.026.054-.014.094-.045.107-.097.097.036.245-.023.277-.127.096.04.24-.016.277-.11.128.047.26.012.318-.103.085.051.233-.004.257-.123.086.056.219.048.25-.079.109.075.241.016.234-.111.05.024.154 0 .163-.079.202.008.459 0 .459-.15.172.008.413-.07.408-.256.12-.008.273-.102.309-.234.034-.111-.091-.182-.309-.192z"/>
</svg>
