<svg xmlns="http://www.w3.org/2000/svg" viewBox="0 0 36 36">
  <path fill="#00247D" d="M35.926 27.733c-.384.211-.818.313-1.562.313-1.817 0-1.817-.984-3.636-.984-1.818 0-1.818 1-3.693 1-1.762 0-1.762-1-3.608-1-1.789 0-1.789 1-3.607 1-1.818 0-1.818-1-3.637-1-1.818 0-1.818 1-3.636 1s-1.818-1-3.636-1-1.818 1-3.636 1-1.818-1-3.637-1c-.762 0-1.201.178-1.591.383C.269 29.441 1.943 31 4 31h28c1.958 0 3.581-1.408 3.926-3.267zm.074-2.35v-1.944c-.402.228-.846.374-1.637.374-1.817 0-1.817-1.007-3.636-1.007-1.818 0-1.818 1-3.693 1-1.762 0-1.762-1-3.608-1-1.789 0-1.789 1-3.607 1-1.818 0-1.818-1-3.637-1-1.818 0-1.818 1-3.636 1s-1.818-1-3.636-1-1.818 1-3.636 1-1.818-1-3.637-1c-.791 0-1.234.19-1.636.404v2c.402-.214.846-.404 1.636-.404 1.818 0 1.818 1 3.637 1 1.818 0 1.818-1 3.636-1s1.818 1 3.636 1 1.818-1 3.636-1 1.818 1 3.637 1c1.818 0 1.818-1 3.629-1 1.825 0 1.825 1 3.64 1 1.822 0 1.822-1 3.639-1 2.378 0 2.323.991 3.638.991.789 0 1.233-.207 1.635-.414zm0-4.257v-1.944c-.402.228-.846.365-1.637.365-1.817 0-1.817-.999-3.636-.999-1.818 0-1.818 1-3.693 1-1.762 0-1.762-1-3.608-1-1.789 0-1.789 1-3.607 1-1.818 0-1.818-1-3.637-1-1.818 0-1.818 1-3.636 1s-1.818-1-3.636-1-1.818 1-3.636 1-1.818-1-3.637-1c-.791 0-1.234.191-1.636.404v2c.402-.214.846-.404 1.636-.404 1.818 0 1.818 1 3.637 1 1.818 0 1.818-1 3.636-1s1.818 1 3.636 1 1.818-1 3.636-1 1.818 1 3.637 1c1.818 0 1.818-1 3.629-1 1.825 0 1.825 1 3.64 1 1.822 0 1.822-1 3.639-1 1.82 0 1.82.969 3.638.969.789.001 1.233-.184 1.635-.391z"/>
</svg>
