<svg xmlns="http://www.w3.org/2000/svg" viewBox="0 0 36 36">
  <path fill="#FFF" d="M12.104 15.92c-.354 0-.521.211-1.042.211s-.604-.211-.958-.211c-.268 0-.434.12-.639.179.812.61 1.66.86 1.66.86.711-.118 1.27-.466 1.693-.859-.269-.059-.445-.18-.714-.18zm-1.958-1.383c.333 0 .625.26.979.26s.604-.26.979-.26c.321 0 .743.419 1.36.179.278-.469.411-.841.411-.841l-1.25-1.792-.625.759-.875-1.675-.833 1.675-.604-.799s-.542.643-1.438 1.851c.107.286.251.534.407.766.709.35 1.187-.123 1.489-.123zm2.958.755c-.458 0-.646-.26-1-.26s-.521.26-1.042.26-.604-.26-.958-.26-.53.26-.854.26c-.117 0-.248-.036-.373-.085.127.168.252.341.39.484.386-.035.673-.273.879-.273.333 0 .625.278.979.278s.604-.278.979-.278c.231 0 .516.235.887.271.109-.142.205-.283.293-.423-.058.009-.113.026-.18.026z"/>
</svg>
