<svg xmlns="http://www.w3.org/2000/svg" viewBox="0 0 36 36">
  <path fill="#F4ABBA" d="M34.613 15.754c-.052-.901-.175-2.585-1.398-4.227-1.16-1.549-3.805-3.371-5.534-2.585.516-1.676-.264-4.125-1.191-5.49-1.179-1.736-4.262-3.843-8.146-3.026-1.754.369-4.18 2.036-4.632 3.864-1.18-1.471-4.22-1.675-6.015-1.222-2.026.511-3.154 1.777-3.739 2.461l.003-.005-.03.034-.027.033c-.583.689-1.656 1.994-1.847 4.074-.193 2.146.75 5.832 3.026 6.042.149.014.324.031.514.051-2.271.098-3.572 3.654-3.595 5.8-.022 2.102.926 3.506 1.443 4.243l-.003-.004c.008.01.019.024.025.036.007.011.02.023.026.036.523.733 1.525 2.094 3.515 2.776 1.958.669 5.553.656 6.567-1.236-.273 2.244 3.027 4.077 5.169 4.438 2.115.358 3.71-.358 4.55-.753l-.005.003c.013-.008.028-.015.041-.021l.041-.02c.838-.4 2.398-1.178 3.462-3.04.729-1.282 1.27-3.403.951-5.015l.192.127c1.826 1.224 4.63-1.119 5.705-2.938 1.044-1.761.932-4.424.932-4.436z"/>
</svg>
