<svg xmlns="http://www.w3.org/2000/svg" viewBox="0 0 36 36">
  <path fill="#EA596E" d="M27.542 13.542c-1.786-.997-4.874-.434-6.792.308-.266-.468-.621-.875-1.051-1.196 1.393-1.607 3.526-4.593 1.468-6.362-2.191-1.883-3.74 2.154-3.575 5.605-.068-.003-.132-.02-.201-.02-1.019 0-1.94.402-2.632 1.045-1.401-2.277-3.942-4.244-5.314-2.392-1.482 2.002 1.148 3.153 4.222 4.2-.09.329-.154.668-.154 1.025 0 .456.093.887.238 1.293-2.541.732-6.236 2.718-4.21 4.91 2.122 2.296 4.472-1.238 5.604-3.053.635.454 1.407.727 2.247.727.225 0 .441-.029.655-.066-.109 4.802 1.443 7.07 4.036 5.892 2.295-1.043-.137-5.299-1.781-7.165.316-.362.564-.779.729-1.241 7.008 2.544 8.589-2.351 6.511-3.51z"/>
</svg>
