<svg xmlns="http://www.w3.org/2000/svg" viewBox="0 0 36 36">
  <path fill="#292F33" d="M21.492 5.897l-.958.316c-.337-.047-1.038-.066-1.779.015-.197.022-.272.078-.739.078-.466 0-.542-.056-.739-.078-.741-.081-1.442-.062-1.779-.015l-.958-.316c-.093-.033-.191.019-.221.111s.02.19.111.221l.894.295c.066.051.208.148.242.248.039.116.117.861.35 1.055.241.2 1.148.125 1.322.039.389-.194.437-.82.505-1.094.039-.155.272-.155.272-.155s.233 0 .272.155c.069.274.117.902.505 1.096.174.087 1.081.161 1.322-.039.233-.194.311-.941.35-1.057.033-.1.175-.196.241-.247l.895-.295c.092-.03.142-.129.111-.221-.029-.093-.132-.144-.219-.112z"/>
</svg>
