<svg xmlns="http://www.w3.org/2000/svg" viewBox="0 0 36 36">
  <path fill="#292F33" d="M22.175 11.639c-1.191-.273-2.172-.639-2.172-.639H16s-.981.366-2.172.639c-1.322.303-1.828.864-1.828 1.968V21h2v1h2l2.003-1 2 1h2v-1h2v-7.393c0-1.104-.507-1.665-1.828-1.968zm-5.535 17.84c1.105 0 1.346.159 1.359.521.052 1.375-1.786 3.479-3.141 2.979-.86-.317-.422-1.901.141-2.979.23-.441.962-.521 1.641-.521z"/>
  <path fill="#292F33" d="M19.36 29.479c-1.105 0-1.346.159-1.359.521-.051 1.375 1.787 3.479 3.141 2.979.86-.317.422-1.901-.141-2.979-.23-.441-.961-.521-1.641-.521zm-.046-26.866c-.678-.219-2.274-.16-2.673.359-1.037.02-2.254.957-2.414 2.194-.158 1.224.194 1.792.319 2.713.142 1.043.728 1.376 1.197 1.516.674.891 1.391.853 2.595.853 2.351 0 3.47-1.573 3.569-4.244.061-1.616-.887-2.84-2.593-3.391z"/>
</svg>
