<svg xmlns="http://www.w3.org/2000/svg" viewBox="0 0 36 36">
  <path fill="#BBDDF5" d="M24.408 12c-.429-.073-1.908-.588-2.304-.917-.396-.328-1.595-1.621-2.098-2.286-.366-.486-.99-.797-1.598-.797 0 0-5.408.011-6.408.011-2.406 0-5.125 2.489-5.585 3.294-.562.985-1.353 4.216-.509 7.195.094.333 3.53-.504 3.399-1.132-.284-1.368-.326-3.08-.125-3.536.201-.455.664-.801 1.32-1.098V18c0 .164.081.317.215.411.085.059.184.089.285.089.059 0 .119-.01.176-.032l8-3c.195-.073.324-.26.324-.468v-1.048c.594.476 1.594 1.096 1.83 1.21s1.679.812 2.707.812c.55 0 1.46-3.79.371-3.974z"/>
</svg>
