<svg xmlns="http://www.w3.org/2000/svg" viewBox="0 0 36 36">
  <path fill="#CFDCD9" d="M23.033 24.126s.228.045.273.045c.045 0 .318-.091.409-.045.091.045.046.182.182.228.137.046.183.091.092.228l-.183.272s-.5.091-.683.183c-.182.091-.546.228-.136.272.409.046 1.001.228.909.273-.091.045-.637 0-.818 0-.183 0-.546.091-.638.091-.091 0-.363.046-.227.137.136.091-.183-.046-.364-.091-.182-.046-.592-.183-.318-.274.273-.091.5-.045.637-.045s.318-.183.182-.228c-.136-.046.137-.364.41-.41.272-.045.728-.137.363-.227-.362-.091-.408-.227-.09-.409z"/>
  <path fill="#CFDCD9" d="M23.352 25.036c.183-.046.638.045.592.137-.046.091-.091.182-.228.136-.137-.045-.364-.273-.364-.273z"/>
</svg>
