<svg xmlns="http://www.w3.org/2000/svg" viewBox="0 0 36 36">
  <path fill="#3C4544" d="M25.354 25.218c-.046-.274-.592-.683-.592-.683s-.242-.391-.602-.573c-.135.05-.189.163-.036.255.228.137.228.227.137.273-.091.045-.182.136-.227.228-.045.091.137-.046.364 0 .228.045.228.045.409.091.183.045.364.228.274.273-.091.046.091.092.136.227.046.137-.091.092-.273.092-.182 0-.683 0-.729.045-.045.046.865.046.865.137 0 .091-.501 0-.637.045-.137.046-.592.137-.773.092-.183-.046-.547-.092-.638-.046-.091.046-.318.091-.045.137.272.045.727.045 1.001 0 .272-.046.455-.228.728-.137.141.047.148.13.16.199l.113.028c.108.027.359-.026.547-.111.072-.045.142-.094.203-.143.015-.021.024-.043.024-.064.001-.183-.409-.365-.409-.365z"/>
</svg>
