<svg xmlns="http://www.w3.org/2000/svg" viewBox="0 0 36 36">
  <path fill="#3C4544" d="M29.903 25.218c.046-.274.592-.683.592-.683s.242-.391.602-.573c.135.05.189.163.036.255-.227.137-.227.227-.137.273.091.045.182.136.228.228.045.091-.137-.046-.364 0-.228.045-.228.045-.409.091-.183.045-.364.228-.273.273.091.046-.091.092-.136.227-.046.137.091.092.272.092.182 0 .683 0 .729.045.045.046-.865.046-.865.137 0 .091.501 0 .637.045.137.046.592.137.773.092.183-.046.547-.092.638-.046.091.046.318.091.045.137-.272.045-.728.045-1.001 0-.273-.046-.455-.228-.728-.137-.141.047-.148.13-.16.199l-.113.028c-.107.027-.359-.026-.547-.111-.072-.045-.142-.094-.203-.143-.015-.021-.023-.043-.023-.064-.002-.183.407-.365.407-.365z"/>
</svg>
