<svg xmlns="http://www.w3.org/2000/svg" viewBox="0 0 36 36">
  <path fill="#288548" d="M31.496 23.717s.091-.41 0-.455c-.091-.046-.227.137-.227.137s0-.501-.136-.456c-.137.046-.183.228-.183.228s-.137-.363-.272-.272c-.137.091 0 .364 0 .364s-.318.137-.228.273c.091.137.546.137.637.183.091.045.046.182-.045.136-.092-.045-.547-.228-.501-.045.045.182.137.228.318.228.183 0 .501-.092.501-.092l.409.273.046-.046-.319-.456zm.774-.455c-.045.182-.091.228-.272.228-.182 0-.318.091-.228.182.091.091.318.091.318.091l-.137.364.046.045.182-.363.183.228s.272-.183.182-.274c-.091-.091-.273-.091-.182-.182.091-.091.227-.364-.046-.318-.272.045.182.137.182.137M35 25.173c-.046-.092-.318-.183-.318-.183s-.046-.364-.183-.364c-.136 0-.272.273-.272.273s-.046-.182-.137-.137c-.091.046-.318.273-.272.364.045.091.091.409.272.455.182.045.364-.273.364-.273s.091.046.272.046c.183 0 .274-.181.274-.181zm-4.141-.729s-.137-.409-.274-.364c-.136.046-.136.228-.136.228s-.409-.045-.592.092c-.182.136-.182.409.045.5.229.091.547-.091.592-.137.046-.045.046.501.228.501.183 0 .273-.228.227-.364-.045-.137 0-.273 0-.273s.364 0 .455.183c0 0-.091-.137-.273-.227l-.272-.139z"/>
</svg>
