<svg xmlns="http://www.w3.org/2000/svg" viewBox="0 0 36 36">
  <path fill="#D1BEA7" d="M31.087 17.893s.137-.273.592-.091c.455.182.546.5.591.728.046.227-.091.455.228.683.319.228.546 1.638.183 1.593-.364-.046-.455-.091-.637.045-.183.137-.592.183-.865-.136 0 0-.272.409-.272.637 0 .228.091.864-.183.955 0 0-.409-.546-.409-1.092s.137-1.138.592-1.41c0 0-.183-.137-.319-.319s-.226-.136-.5-.136h-.727s.182-.41.409-.501c.228-.091.637-.318 1.046 0 .41.318.683.546.683.546l.046-.318s-.091-.182-.273-.363c-.182-.183-.182-.455-.182-.592s-.003-.229-.003-.229z"/>
</svg>
