<svg xmlns="http://www.w3.org/2000/svg" viewBox="0 0 36 36">
  <path fill="#FFF" d="M24.353 17.574s.273.591.91.591 1.001-.455 1.001-.455l.637.819s-.409.273-.409.592c0 0-.273-.273-.182-.501 0 0-.183.183-.318.228 0 0-.046-.273.045-.409 0 0-.318.182-.728.182s-.819-.272-.91-.5c-.091-.228-.046-.547-.046-.547zm2.547-.592c0 .15-.121.272-.273.272H26.4c-.15 0-.273-.122-.273-.272 0-.15.123-.273.273-.273h.227c.152 0 .273.123.273.273zm1.412-.364c0 .151-.122.273-.273.273h-.229c-.15 0-.272-.122-.272-.273 0-.15.122-.273.272-.273h.228c.152.001.274.123.274.273z"/>
</svg>
