<svg xmlns="http://www.w3.org/2000/svg" viewBox="0 0 36 36">
  <path fill="#FFF" d="M23.216 14.753s.182.455.728.409c.546-.045.955-.182 1.092.318 0 0-.318.046-.455.273-.136.227.228.819.228.819s-.363 0-.5-.228c0 0-.046.409-.318.683-.116.115-.41.136-.41.136l.455-.91c.091-.182.182-.409-.228-.136-.409.272-.955.5-1.273.136 0 0 1.319-.591 1.592-.728-.454 0-.5-.046-.909 0-.244.027-.501.137-.501.137s-.045-.364.455-.364c.318 0-.046-.091-.091-.272-.048-.182.135-.273.135-.273zm6.961 3.73s1.001-.136.865-1.046c-.137-.91-.819-1.547-.683-2.093 0 0-.325.089-.41.363-.182.592.396 1.072.501 1.229.182.273.273.592.273.592s-.5-.409-.774 0c0 0 .318-.046.455.091s.227.318.091.501c-.136.182-.318.363-.318.363zm2.866-3.093s.455.183.455.455c0 .274-.228.364-.591.364 0 0 .182-.137.228-.318.045-.183-.092-.501-.092-.501z"/>
</svg>
