<svg xmlns="http://www.w3.org/2000/svg" viewBox="0 0 36 36">
  <path fill="#905F41" d="M26.036 15.071s.683.455.864.501c.183.045.91 0 .91 0l.137-.319s.364-.091.592-.091c.227 0 .501.046.501.046l.091.273-.364.819h-1.229c-.182 0-.592-.137-.683-.318-.091-.183-.455-.409-.546-.546-.091-.137-.591-.501-.273-.365z"/>
  <path fill="#905F41" d="M27.901 15.562c0 .056-.04.101-.091.101-.05 0-.091-.045-.091-.101V13.76c0-.055.041-.1.091-.1.051 0 .091.045.091.1v1.802zm-.818.055c0 .051-.041.091-.091.091-.051 0-.092-.04-.092-.091v-1.638c0-.05.041-.091.092-.091.05 0 .091.041.091.091v1.638zm1.319 0c0 .051-.041.091-.091.091-.05 0-.091-.04-.091-.091v-1.638c0-.05.041-.091.091-.091.05 0 .091.041.091.091v1.638z"/>
</svg>
