<svg xmlns="http://www.w3.org/2000/svg" viewBox="0 0 36 36">
  <path fill="#FFF" d="M27.265 14.435c0 .05-.163.091-.364.091-.2 0-.363-.041-.363-.091 0-.051.163-.091.363-.091.201 0 .364.04.364.091zm.182.455c0 .05-.214.091-.479.091-.264 0-.478-.041-.478-.091 0-.051.214-.091.478-.091.265 0 .479.04.479.091zm.683-.615c0 .037-.163.068-.364.068-.201 0-.364-.031-.364-.068 0-.038.163-.068.364-.068.201 0 .364.03.364.068z"/>
  <path fill="#FFF" d="M28.676 14.252c0 .025-.133.046-.296.046-.164 0-.296-.021-.296-.046 0-.024.132-.045.296-.045.163 0 .296.02.296.045zm-.638.455c0 .051-.132.092-.296.092-.163 0-.295-.041-.295-.092 0-.05.132-.091.295-.091.164 0 .296.041.296.091zm.638 0c0 .04-.133.071-.296.071-.164 0-.296-.031-.296-.071 0-.039.132-.07.296-.07.163 0 .296.031.296.07z"/>
</svg>
