<svg xmlns="http://www.w3.org/2000/svg" viewBox="0 0 36 36">
  <path fill="#8FD2E2" d="M26.127 16.437s.364-.046.183-.364c0 0 .182-.091.409.137.228.228.638 0 .364-.273 0 0 .227-.137.409.046.183.182.501.228.364-.137 0 0 .318-.091.455.183.137.273.637.227.409-.137 0 0 .228-.046.319.137.091.182.182.227.182.227s.182-.227.363 0c.183.227.092.455-.227.501-.318.045-.456-.318-.456-.318s-.136.182-.363.137c-.228-.046-.364-.228-.364-.228s-.266.136-.409.136c-.228 0-.398-.221-.455-.136-.091.136-.364.273-.637.136 0 0-.227.364-.501.364-.273 0-.546-.164-.546-.409 0-.228.137-.318.272-.273.138.043.229.271.229.271z"/>
</svg>
