<svg xmlns="http://www.w3.org/2000/svg" viewBox="0 0 36 36">
  <path fill="#288548" d="M25.49 17.392s-.5.137-.546.41c-.046.272-.091.318-.091.318s-.228-.091-.364-.273c-.137-.182-.182-.592-.137-.728.046-.137.228-.546.41-.773.182-.227.273-.683.228-.865-.046-.182-.273-.363-.273-.363s.592 0 .683.363c.091.364-.091.638-.091.638s.091.045.228-.137c0 0 .045.455-.228.546 0 0-.183.273-.273.501-.091.227-.248.499-.137.409.227-.183.591-.046.591-.046zm-3.003-1.866s-.182.227-.182.364c0 .137.182.455.455.546 0 0-.819-.318-.819-.592 0-.272.365-.318.546-.318zm7.416.273s.092-.682.592-.637c.501.046 1.229.183 1.365.046.137-.137.091-.409.091-.409s.273.045.318.182c.046.137-.136.318-.136.318s.228-.046.363.091c.137.137.273.318.273.318s-.455-.136-.683-.136c-.227 0-.864-.046-.864-.046s.637.364 1.001.501c.363.136.637.273 1.092.136 0 0-.455.273-.592.364-.137.091-.363.091-.637-.046-.272-.136-.727-.454-.727-.454s0 .318.136.637c.137.318.364.546.364.546s-.409-.091-.592-.273c-.182-.182-.182-.591-.182-.591s-.228.318-.546.228c0 0 .137-.092.228-.319s.227-.409.091-.591c-.137-.183-.318-.364-.546-.318-.226.044-.409.453-.409.453zm-1.637.91c-.409.183-.683.455-.637 1.138 0 0 .227-.455.455-.592 0 0 0 .41.137.774.137.363.5.637.773.683 0 0-.318-.501-.318-.91 0 0 .272.682.727 1.092l.046-.318s-.183-.183-.227-.41c0 0 .272.364.637.364s.637-.228.683-.546c0 0-.182.091-.5.137-.319.045-.683-.137-.956-.501-.273-.364-.318-.683-.318-.683l-.502-.228z"/>
</svg>
