<svg xmlns="http://www.w3.org/2000/svg" viewBox="0 0 36 36">
  <path d="M29.631 24.08c-.364 0-.637.41-1.001.41-.364 0-.637-.364-.955-.364-.318 0-.592.364-.956.364-.363 0-.637-.41-1.001-.41-.079 0-.165.026-.252.065.175.284.369.5.548.663.501.455 1.615.864 1.615.864s1.114-.409 1.615-.864c.186-.169.386-.394.566-.693-.062-.021-.122-.035-.179-.035zm0-1.956c-.364 0-.637.409-1.001.409-.364 0-.637-.364-.955-.364-.318 0-.592.364-.956.364-.363 0-.637-.409-1.001-.409-.251 0-.567.26-.783.376.032.29.085.55.153.783.176-.125.357-.249.585-.249.454 0 .773.409 1.092.409.318 0 .592-.318.91-.318.318 0 .591.318.909.318.318 0 .638-.409 1.093-.409.194 0 .355.091.508.195.065-.232.115-.491.144-.779-.209-.128-.478-.326-.698-.326zm0-1.957c-.364 0-.637.41-1.001.41-.364 0-.637-.364-.955-.364-.318 0-.592.364-.956.364-.363 0-.637-.41-1.001-.41-.265 0-.603.29-.819.395v.894c.241-.147.466-.378.774-.378.454 0 .773.41 1.092.41.318 0 .592-.319.91-.319.318 0 .591.319.909.319.318 0 .638-.41 1.093-.41.268 0 .475.176.683.318v-.884c-.214-.126-.499-.345-.729-.345z" fill="#3AB1D6"/>
</svg>
