<svg xmlns="http://www.w3.org/2000/svg" viewBox="0 0 36 36">
  <path fill="#E1E8ED" d="M17.978 0h1c2 0 4.001 2 4.001 2s3.227 1.274 6.227 2.274S36.028 22.479 36 23.668c-.022.96-4.746 1.866-4.975 1.263-.517-1.361-1.718-5.296-2.83-10.804 0 11 2.416 19.707 2.416 19.707S24.978 36 21.978 36c-1-4-.999-17-.999-20S17.978 0 17.978 0z"/>
  <path fill="#E1E8ED" d="M18 0h-1c-2 0-4.001 2-4.001 2S9.772 3.274 6.772 4.274c-3 1-6.821 18.205-6.794 19.394.022.96 4.746 1.866 4.974 1.263.517-1.361 1.717-4.993 2.83-10.804 0 11-2.416 19.707-2.416 19.707S11 36 14 36c1-4 .999-17 .999-20S18 0 18 0z"/>
</svg>
