<svg xmlns="http://www.w3.org/2000/svg" viewBox="0 0 36 36">
  <path fill="#F5F8FA" d="M24.002 4S21 0 19 0h-2c-2 0-5.002 4-5.002 4l2.001 1-2.001 1 3.001 10.004h6.002L24.002 6l-2.001-1 2.001-1zM12.18 28.167c-.537.062-2.668-.25-3.084-.458-.565-.283-.648-.615-.583-1.208.065-.594.311-1.344.425-3.5.909.417 2.951.542 4.535.583 0 1.812-.332 3.417-.332 3.417-.069.549-.424 1.103-.961 1.166zm11.64 0c.537.062 2.667-.25 3.084-.458.565-.283.648-.615.583-1.208-.065-.594-.311-1.344-.425-3.5-.909.417-2.951.542-4.535.583 0 1.812.332 3.417.332 3.417.069.549.424 1.103.961 1.166z"/>
</svg>
