<svg xmlns="http://www.w3.org/2000/svg" viewBox="0 0 36 36">
  <path fill="#292F33" d="M11.781 9.593s.688 2.443.385 7.5c2.228-.038 3.963-.732 3.963-.732s.146-1.919-.228-3.615c-.546-2.469-1.105-3.921-1.105-3.921l-3.015.768zm6.516-1.246s.623 3.271.484 5.224c-.14 1.953-.235 2.694-.235 2.694s.441.486 1.57.466c.467-1.222.752-3.679.695-5.183-.059-1.585-1.002-3.127-1.002-3.127l-1.512-.074zm-5.89 10.38s-.607 6.995-.982 8.307c-.334 1.168-3.799 6.742-3.799 6.742s1.646.406 3.229.094c0 0 3.163-3.836 3.99-5.688.24-.539 1.835-5.521 1.835-5.521s1.712 1.908 2.863 3.599c.728 2.003.09 7.442.09 7.442s1.483.312 2.899.042c0 0 .859-5.397.651-7.688-.033-.367-.103-1.05-.245-1.309-.619-1.123-1.963-3.231-2.822-4.172-.774-.847-.625-1.873-.625-1.873l-7.084.025z"/>
</svg>
