<svg xmlns="http://www.w3.org/2000/svg" viewBox="0 0 36 36">
  <path fill="#292F33" d="M14.268 35.26c-.005-.034-.055-.214-.055-.214l-.057.027.004-.134c-.021-.58-.608-.51-.678-.516-.07-.006-.305.006-.596-.031s-.57-.108-.816-.257c-.287-.174-.678-.467-1.014-.663s-.758-.437-.758-.437-.367.682-1.127.654c-.409-.015-1.05-.337-1.133-.36-.11-.031-.159.031-.205.116-.046.086-.211.684-.211 1.005 0 .204.025.333.044.405l-.055-.017c-.025-.007-.049.012-.049.039v.687c0 .045.037.147.155.171.118.024 1.759.165 1.821.11s.13-.232.183-.257c.053-.024.603.094.859.155s.698.165 1.218.165 1.191-.153 1.607-.257c.415-.104.741-.243.815-.289.073-.046.053-.067.048-.102z"/>
</svg>
