<svg xmlns="http://www.w3.org/2000/svg" viewBox="0 0 36 36">
  <path fill="#D4AB88" d="M28.658 1.816c-.19-.089-.279.102-.279.102l-.378.812c.007-.014-.083-.071-.077-.082l.56-1.201s.089-.19-.102-.279-.279.102-.279.102l-.054.115-.472 1.013c.001-.003-.093-.049-.092-.051l.622-1.336s.089-.19-.102-.279c-.19-.089-.279.102-.279.102l-.622 1.336c-.001.002-.097-.039-.099-.036l.515-1.106s.089-.19-.102-.279c-.19-.089-.279.102-.279.102l-.702 1.507c-.048.103-.139.105-.179.078-.106-.072-.05-.26-.079-.424-.045-.25-.196-.415-.355-.418-.176-.003-.206.138-.192.187.028.095.073.254.126.506.037.177-.017.324-.017.324-.023.072-.085.318-.038.604.028.169.092.352.205.52l-.332.714 1.507.659.366-.956c.267-.119.5-.319.633-.604l.044-.095.631-1.355c.003-.004.091-.194-.099-.282z"/>
</svg>
