<svg xmlns="http://www.w3.org/2000/svg" viewBox="0 0 36 36">
  <g fill="#AF7E57">
    <path d="M27.096 4.363c-.33-.157-.476-.428-.377-.719l.003-.01c.099-.291.291-.346.738-.339 0 0 1.521.076 2.437.712 0 0-.199.304-.447.56l-.003.01c-.101.29-1.614.137-2.351-.214z"/>
    <path d="M27.843 3.47c-.137-.033-.221-.173-.188-.31l.087-.357c.033-.137.173-.221.31-.188s.221.173.188.31l-.087.357c-.034.137-.173.221-.31.188zm-.445-.87c-.163-.055-.342.034-.397.197l-.279.837c-.055.164.168-.068.332-.013.163.055.342-.033.397-.196l.144-.427c.055-.164-.034-.342-.197-.398z"/>
    <path d="M28.384 3.399c-.137-.033-.221-.173-.188-.31l.082-.334c.033-.137.173-.221.31-.188s.221.173.188.31l-.082.334c-.034.137-.173.221-.31.188z"/>
    <path d="M28.9 3.424c-.137-.033-.221-.173-.188-.31l.068-.277c.033-.137.173-.221.31-.188s.221.173.188.31l-.068.277c-.034.137-.173.221-.31.188z"/>
    <path d="M29.419 3.447c-.137-.033-.221-.173-.188-.31l.04-.162c.033-.137.173-.221.31-.188s.221.173.188.31l-.04.162c-.034.137-.174.222-.31.188z"/>
  </g>
  <g fill="#AF7E57">
    <path d="M8.904 4.363c.33-.157.476-.428.377-.719l-.003-.01c-.099-.29-.291-.346-.738-.339 0 0-1.521.076-2.437.712 0 0 .199.304.447.56l.003.01c.101.29 1.614.137 2.351-.214z"/>
    <path d="M8.157 3.47c.137-.033.221-.173.188-.31l-.087-.357c-.033-.137-.173-.221-.31-.188-.137.034-.221.173-.188.31l.087.357c.034.137.173.221.31.188zm.445-.87c.163-.055.342.034.397.197l.279.837c.055.164-.168-.068-.332-.013-.163.055-.342-.033-.397-.196l-.144-.427c-.055-.164.034-.342.197-.398z"/>
    <path d="M7.616 3.399c.137-.033.221-.173.188-.31l-.082-.334c-.033-.137-.173-.221-.31-.188-.136.034-.221.173-.187.31l.082.334c.033.137.172.221.309.188z"/>
    <path d="M7.1 3.424c.137-.033.221-.173.188-.31l-.068-.277c-.033-.137-.172-.221-.309-.188s-.221.173-.188.31l.068.277c.033.137.172.221.309.188z"/>
    <path d="M6.581 3.447c.137-.033.221-.173.188-.31l-.039-.162c-.034-.136-.173-.221-.31-.188-.137.034-.221.173-.188.31l.04.162c.033.137.173.222.309.188z"/>
  </g>
</svg>
