<svg xmlns="http://www.w3.org/2000/svg" viewBox="0 0 36 36">
  <path fill="#DD2E44" d="M13.452 35.149c.102-.243.316-.694.339-.955.023-.261.034-.354.238-.426.345-.121 1.427-.087 1.613-.016.185.071.188.263.214.424.026.161.113.424.226.64s.406.697.26 1.034c-.061.14-.402.138-1.497.138s-1.408-.026-1.483-.118-.011-.477.09-.721zm8.875 0c-.102-.243-.316-.694-.339-.955-.023-.261-.034-.354-.238-.426-.345-.121-1.427-.087-1.613-.016-.185.071-.188.263-.214.424-.026.161-.113.424-.226.64s-.406.697-.26 1.034c.061.14.402.138 1.497.138s1.408-.026 1.483-.118c.074-.092.011-.477-.09-.721z"/>
</svg>
