<svg xmlns="http://www.w3.org/2000/svg" viewBox="0 0 36 36">
  <path fill="#5DADEC" d="M11.999 33.961l-.113-3.421-2.869 1.708c-.639.345-1.062 1.024-1.036 1.799.037 1.102.966 1.976 2.076 1.953 1.109-.023 1.979-.937 1.942-2.039zm-6.979-1.54L4.906 29l-2.869 1.708c-.639.345-1.063 1.024-1.036 1.799.037 1.103.966 1.976 2.076 1.953 1.11-.023 1.98-.937 1.943-2.039zm14 .54l-.113-3.421-2.869 1.708c-.639.345-1.062 1.024-1.036 1.799.037 1.102.966 1.976 2.076 1.953 1.109-.023 1.979-.937 1.942-2.039zm5.978 1l-.113-3.421-2.869 1.708c-.639.345-1.062 1.024-1.035 1.799.037 1.102.965 1.976 2.076 1.953 1.109-.023 1.978-.937 1.941-2.039zm6.021-1.54L30.905 29l-2.869 1.708c-.639.345-1.062 1.024-1.035 1.799.037 1.103.965 1.976 2.076 1.953 1.11-.023 1.979-.937 1.942-2.039z"/>
</svg>
