<svg xmlns="http://www.w3.org/2000/svg" viewBox="0 0 36 36">
  <path fill="#F18F26" d="M23.912 12.087C22.219 10.394 20.318 9.5 18.415 9.5c-1.626 0-3.189.667-4.402 1.88-1.519 1.519-1.727 2.39-1.865 2.966-.071.295-.106.421-.255.57-.106.106-.155.256-.14.406.015.149.1.286.225.369.013.009.324.22.368.651.039.394-.13 1.08-1.16 2.11-.629.629-1.252.948-1.85.948-.981 0-1.649-.87-1.654-.877-.11-.15-.295-.226-.48-.197-.185.029-.337.159-.396.335-.221.663-.251.668-.535.709-.59.086-1.578.229-3.624 2.275C.972 23.32.381 25.412.939 27.693c.395 1.617 1.408 3.358 2.708 4.659 1.408 1.408 3.802 2.912 6.301 2.912 1.654 0 3.137-.643 4.406-1.912 2.045-2.046 2.189-3.033 2.274-3.624.042-.284.046-.313.71-.534.177-.06.307-.212.336-.396.029-.184-.046-.369-.196-.48-.008-.006-.805-.619-.873-1.527-.047-.638.27-1.302.944-1.976.963-.963 1.622-1.165 2.005-1.165.504 0 .746.357.752.366.08.13.216.216.368.234.142.016.303-.035.411-.144.149-.149.275-.185.57-.255.576-.139 1.446-.348 2.965-1.866 2.286-2.286 2.955-6.234-.708-9.898z"/>
</svg>
